<svg width="36" height="36" viewBox="0 0 36 36" fill="none" xmlns="http://www.w3.org/2000/svg">
<g clip-path="url(#clip0_5046_205320)">
<path d="M3.48193 19.2796C3.46318 19.2257 3.43774 19.1462 3.41721 19.0928C3.34535 18.9051 3.27259 18.7174 3.19984 18.5301C3.12888 18.3469 3.05121 18.1659 2.98694 17.98C2.90883 17.7546 2.83519 17.5274 2.7727 17.297C2.73119 17.1439 2.71557 16.984 2.68388 16.8278C2.65487 16.6863 2.65353 16.5435 2.65844 16.4012C2.67094 16.0406 2.81019 15.7433 3.09585 15.5139C3.25474 15.3859 3.42569 15.2898 3.62565 15.2507C3.83944 15.209 4.01083 15.2691 4.10412 15.4797C4.20186 15.7002 4.2099 15.9328 4.19338 16.1677C4.18356 16.3078 4.16705 16.4479 4.14562 16.5866C4.11661 16.7752 4.08403 16.9638 4.04565 17.1506C3.91799 17.7685 3.75062 18.3761 3.56718 18.9791C3.53995 19.0685 3.48996 19.2782 3.48237 19.2796H3.48193Z" fill="url(#paint0_linear_5046_205320)"/>
<path d="M1.30399 18.7888C1.22454 18.7237 1.14019 18.6635 1.06654 18.5921C0.979953 18.5073 0.932641 18.3941 0.92059 18.2769C0.906754 18.1413 0.906754 18.0016 0.920144 17.866C0.940229 17.6635 1.02637 17.4821 1.14063 17.316C1.22231 17.1974 1.31917 17.0887 1.45262 17.0299C1.61866 16.9563 1.79094 16.9657 1.93689 17.1045C2.04982 17.2122 2.119 17.3496 2.18639 17.4848C2.3194 17.7515 2.44214 18.0232 2.55953 18.2967C2.72601 18.6842 3.06969 19.5315 3.09379 19.5697C3.06032 19.567 2.66219 19.4 2.48231 19.3349C2.30467 19.2702 2.12168 19.2181 1.94761 19.1454C1.79496 19.0816 1.65079 18.9967 1.50395 18.9199C1.44414 18.8885 1.30845 18.7947 1.30399 18.7893V18.7888Z" fill="url(#paint1_linear_5046_205320)"/>
<path d="M6.19309 18.5279C6.09579 18.5809 5.99804 18.6339 5.90074 18.6869C5.79853 18.743 5.69588 18.7996 5.59367 18.8557C5.50127 18.9109 5.40888 18.9666 5.31649 19.0218C5.21026 19.0834 5.10404 19.1449 4.99736 19.2068C4.98353 19.2136 4.96924 19.2194 4.9563 19.2271C4.74831 19.3519 4.53987 19.4763 4.33277 19.602C4.26671 19.642 4.20333 19.686 4.13281 19.7318C4.15334 19.7435 4.16361 19.752 4.17566 19.756C4.33098 19.8059 4.48631 19.8553 4.64163 19.9051C4.80008 19.9554 4.95853 20.0061 5.11698 20.0564C5.23213 20.0951 5.34774 20.1332 5.46289 20.1718C5.4861 20.1777 5.50931 20.1826 5.53252 20.1894C5.62893 20.2181 5.72533 20.2477 5.82174 20.2769C5.82576 20.2792 5.82978 20.2814 5.83379 20.2837C5.83826 20.2868 5.84272 20.2899 5.84718 20.2931C5.87084 20.2985 5.89449 20.303 5.9177 20.3097C5.99626 20.3322 6.07437 20.3551 6.15292 20.378C6.26361 20.4085 6.3743 20.4395 6.48544 20.47C6.48991 20.4736 6.49437 20.4772 6.49839 20.4808C6.57382 20.4979 6.64925 20.5149 6.72468 20.5315C6.82198 20.5558 6.91928 20.58 7.01613 20.6043C7.12281 20.6294 7.22903 20.655 7.33571 20.6802C7.37454 20.6842 7.41337 20.6869 7.45176 20.6932C7.55486 20.7103 7.65796 20.7287 7.76107 20.7471C7.87577 20.7574 8.27256 20.8001 8.35648 20.8014C8.45512 20.8028 8.5542 20.7969 8.6524 20.787C8.74479 20.7776 8.83762 20.7601 8.92734 20.7417C9.13979 20.6986 9.22192 20.6474 9.36787 20.5814C9.5589 20.4947 9.72003 20.3389 9.85348 20.1772C10.1208 19.8539 10.2668 19.4942 10.2083 19.0641C10.1784 18.8431 10.1079 18.6406 9.97667 18.4632C9.84723 18.2881 9.69994 18.1269 9.50445 18.0236C9.39331 17.9648 9.27771 17.9055 9.15675 17.8759C8.97376 17.8314 8.78496 17.8045 8.59705 17.7861C8.49841 17.7762 7.99003 17.8489 7.84141 17.8916C7.70884 17.9284 7.57584 17.9657 7.44328 18.0025C7.3058 18.0506 7.16878 18.0991 7.03131 18.1471C6.91615 18.1938 6.80055 18.241 6.6854 18.2877C6.6189 18.3195 6.55284 18.3514 6.48633 18.3833C6.48098 18.3864 6.47562 18.3896 6.47027 18.3923C6.47027 18.3923 6.47027 18.3918 6.47027 18.3914C6.37832 18.4372 6.28638 18.4834 6.19443 18.5292" fill="url(#paint2_linear_5046_205320)"/>
<path d="M4.28464 19.0825C4.45514 18.963 4.62654 18.8445 4.79748 18.7255C4.95281 18.62 5.10858 18.5145 5.2639 18.4089C5.44958 18.2792 5.63525 18.1494 5.82093 18.0201C6.08203 17.8135 6.3485 17.6132 6.60291 17.3981C6.8051 17.227 6.99568 17.0416 7.1519 16.8247C7.23045 16.716 7.31838 16.6132 7.38756 16.4987C7.50138 16.3096 7.54512 16.0999 7.53619 15.879C7.52503 15.615 7.41434 15.3985 7.21662 15.231C6.97604 15.0272 6.69262 14.9719 6.38331 15.0123C6.0615 15.0546 5.78879 15.196 5.55447 15.4115C5.35897 15.5916 5.209 15.8125 5.08046 16.0434C4.96307 16.2544 4.86622 16.4767 4.76445 16.6963C4.72562 16.7802 4.69795 16.8696 4.66492 16.9563C4.62654 17.064 4.58458 17.1705 4.54977 17.2796C4.49398 17.4552 4.15744 18.6375 4.11057 18.8C4.06416 18.9595 4.01863 19.1193 3.97266 19.2792" fill="url(#paint3_linear_5046_205320)"/>
<path d="M2.82396 20.0138C2.72309 19.9788 2.62355 19.9388 2.52268 19.9043C2.44502 19.8773 2.24863 19.81 2.2281 19.8032C2.02368 19.7327 1.81971 19.6595 1.6135 19.594C1.33409 19.5055 1.05067 19.4346 0.753859 19.4575C0.538279 19.4741 0.344124 19.5369 0.208438 19.7224C0.0745379 19.9056 0.0111584 20.1113 0 20.3353V20.3618C0 20.3708 0 20.3798 0 20.3883C0 20.4683 0 20.5482 0 20.6277C0.00758769 20.8073 0.0464188 20.9739 0.189246 21.0987C0.19237 21.1014 0.195495 21.1041 0.198173 21.1073C0.255303 21.1364 0.307078 21.1715 0.377153 21.1751C0.581127 21.1845 0.769481 21.1347 0.952031 21.0493C1.14886 20.9573 1.34927 20.8729 1.54432 20.7777C1.81123 20.6474 2.07501 20.5096 2.34013 20.3749C2.53116 20.2693 2.72219 20.1638 2.91322 20.0583C2.91099 20.0466 2.8494 20.0224 2.82351 20.0134L2.82396 20.0138Z" fill="url(#paint4_linear_5046_205320)"/>
<path d="M11.9951 16.2148C11.9928 16.2409 11.9906 16.2669 11.9884 16.293C11.9652 16.2633 11.9679 16.2319 11.9951 16.2148Z" fill="#CBC8DC"/>
<path d="M11.9971 18.2695C11.9944 18.292 11.9917 18.3144 11.989 18.3369C11.9667 18.3113 11.9547 18.2875 11.9971 18.2695Z" fill="#CBC8DC"/>
<path d="M11.8198 20.0547C11.8176 20.0655 11.8158 20.0767 11.8136 20.0875C11.7971 20.0731 11.7837 20.0592 11.8198 20.0547Z" fill="#CBC8DC"/>
<path d="M11.8125 20.5434C11.8125 20.5519 11.8116 20.56 11.8116 20.5686C11.8067 20.565 11.8018 20.5614 11.7969 20.5578C11.8022 20.5528 11.8076 20.5479 11.8129 20.543L11.8125 20.5434Z" fill="#CBC8DC"/>
<path d="M11.99 16.7031C11.99 16.7076 11.9891 16.7126 11.9891 16.717C11.985 16.7144 11.9806 16.7121 11.9766 16.7094C11.981 16.7072 11.9855 16.7049 11.9904 16.7031H11.99Z" fill="#CBC8DC"/>
<path d="M11.9939 18.7578C11.9939 18.7623 11.9939 18.7668 11.9939 18.7713C11.9894 18.769 11.9849 18.7668 11.9805 18.7645C11.9849 18.7623 11.9894 18.7601 11.9939 18.7578Z" fill="#CBC8DC"/>
<path d="M12.5312 16.7656C12.5348 16.7683 12.5384 16.7706 12.5415 16.7733C12.5379 16.7706 12.5344 16.7683 12.5312 16.7656Z" fill="#CBC8DC"/>
<path d="M0.191406 21.1016C0.194531 21.1043 0.197655 21.107 0.200333 21.1101C0.196316 21.1083 0.193638 21.1052 0.191406 21.1016Z" fill="#FEFEFE"/>
<path d="M11.8122 20.1094C11.8122 20.1134 11.8122 20.1175 11.8122 20.1215C11.8108 20.1188 11.8095 20.1161 11.8086 20.113C11.8086 20.1121 11.8108 20.1107 11.8117 20.1094H11.8122Z" fill="#CBC8DC"/>
<path d="M11.8164 20.5977C11.8195 20.5986 11.8227 20.5995 11.8253 20.6008H11.8204L11.8164 20.5977Z" fill="#CBC8DC"/>
<path d="M6.48526 18.3828C6.47991 18.386 6.47455 18.3891 6.46875 18.3922C6.47411 18.3891 6.47946 18.386 6.48526 18.3828Z" fill="#EF5447"/>
<path d="M35.9573 18.4603C35.8988 18.4392 35.8399 18.4194 35.7818 18.3965C35.4413 18.2614 35.1226 18.093 34.8584 17.8307C34.6821 17.6556 34.5397 17.4594 34.429 17.2371C34.3402 17.0584 34.2862 16.8693 34.2531 16.6744C34.2348 16.5662 34.229 16.4558 34.2188 16.3462C34.2125 16.2829 34.2085 16.2191 34.2036 16.1562H33.4779C33.4721 16.2452 33.4627 16.3309 33.4613 16.4171C33.4582 16.6179 33.4011 16.8083 33.3489 16.9982C33.3051 17.1576 33.2261 17.3027 33.1324 17.4383C33.0708 17.5272 33.0021 17.6112 32.9333 17.6947C32.8802 17.7593 32.8293 17.828 32.7655 17.8806C32.6615 17.9664 32.5513 18.0458 32.4383 18.119C32.2379 18.2488 32.025 18.3561 31.8019 18.4414C31.7688 18.454 31.7372 18.4711 31.6992 18.4886C31.7952 18.6314 31.8876 18.7697 31.9826 18.9062C31.9898 18.9165 32.0188 18.9228 32.0304 18.917C32.1621 18.8523 32.3085 18.8267 32.4397 18.758C32.5995 18.674 32.7713 18.613 32.9284 18.5241C33.0699 18.4441 33.2016 18.3444 33.3319 18.2457C33.5234 18.1002 33.6796 17.921 33.8086 17.718C33.8287 17.6866 33.8416 17.6848 33.8648 17.7131C33.9532 17.8213 34.0407 17.9304 34.1326 18.0355C34.2947 18.2205 34.4919 18.3642 34.7017 18.4868C34.8628 18.5811 35.0329 18.661 35.2029 18.7374C35.3498 18.8029 35.5029 18.8555 35.6537 18.912C35.6671 18.917 35.693 18.9174 35.6993 18.9093C35.7698 18.8182 35.8358 18.7234 35.9064 18.6323C35.9345 18.5955 35.9697 18.5645 36.0019 18.5308V18.4751C35.9872 18.4702 35.972 18.4657 35.9573 18.4607V18.4603Z" fill="#122B85"/>
<path d="M30.7117 19.0991C30.6969 19.1 30.6818 19.0991 30.667 19.0991C29.4972 19.0991 28.3273 19.0991 27.1575 19.0991H27.0883C27.0883 19.2549 27.0883 19.4049 27.0883 19.5553C27.0883 19.5738 27.0906 19.594 27.0839 19.6101C27.0682 19.6487 27.0861 19.6582 27.1187 19.6568C27.1812 19.6541 27.2441 19.6478 27.3066 19.6474C28.1327 19.6465 28.9594 19.6465 29.7855 19.6465C29.8708 19.6465 29.9565 19.6478 30.0417 19.6483C30.0462 19.6505 30.0502 19.6528 30.0547 19.655C30.0538 19.6586 30.0533 19.6622 30.0524 19.6658C30.0556 19.7116 30.0618 19.757 30.0618 19.8028C30.0636 20.1705 30.064 20.5383 30.0645 20.9065C30.0605 20.9142 30.0564 20.9218 30.0524 20.9294H30.788C30.7907 20.9222 30.7938 20.9151 30.7965 20.9079C30.7746 20.9047 30.7527 20.8998 30.7309 20.8957C30.7527 20.8998 30.7746 20.9043 30.7965 20.9079C30.7978 20.8167 30.8005 20.7256 30.8009 20.6349C30.8014 20.153 30.8009 19.6716 30.8014 19.1898C30.8014 19.0946 30.8027 19.0946 30.7117 19.0991Z" fill="#122B85"/>
<path d="M15.9777 20.0504C15.4488 20.05 14.9194 20.0491 14.3905 20.0513C14.3379 20.0513 14.3258 20.036 14.3263 19.9857C14.3285 19.6193 14.3271 19.2534 14.3276 18.8869C14.3276 18.8142 14.3294 18.8133 14.403 18.8133C14.8802 18.8133 15.3573 18.8128 15.8344 18.8142C15.8755 18.8142 15.8898 18.8039 15.8889 18.7612C15.8866 18.6516 15.8889 18.5421 15.8898 18.4321C15.8911 18.4312 15.8933 18.4294 15.8933 18.4289C15.8924 18.4262 15.8911 18.4235 15.8898 18.4208C15.8898 18.3948 15.8898 18.3687 15.8898 18.3427C15.8898 18.3427 15.8933 18.34 15.8933 18.3395C15.8924 18.3369 15.8911 18.3342 15.8898 18.3315L15.8907 18.2978C15.8907 18.2978 15.8942 18.2955 15.8942 18.2951C15.8942 18.2924 15.8924 18.2897 15.8916 18.287C15.8826 18.2789 15.8737 18.2704 15.8648 18.2623C15.8612 18.2623 15.8572 18.2623 15.8536 18.2623C15.7014 18.2632 15.5497 18.2641 15.3975 18.2641C15.36 18.2641 15.3296 18.2583 15.3296 18.2071C15.331 17.7428 15.331 17.2785 15.3314 16.8141C15.3314 16.7989 15.3368 16.7832 15.3399 16.7679C15.3439 16.7665 15.3479 16.7647 15.3524 16.7634C15.5131 16.7621 15.6737 16.7598 15.8344 16.7589C15.8616 16.7589 15.888 16.7612 15.8902 16.7234C15.8911 16.7225 15.8938 16.7207 15.8933 16.7203C15.8924 16.7176 15.8911 16.7154 15.8898 16.7131C15.8898 16.5717 15.8898 16.4298 15.8898 16.2883C15.8911 16.2874 15.8933 16.2861 15.8929 16.2852C15.8924 16.2825 15.8907 16.2802 15.8898 16.2775C15.8898 16.2659 15.8898 16.2546 15.8902 16.243C15.8889 16.2322 15.8875 16.2218 15.8862 16.2111C15.8786 16.2097 15.8715 16.2084 15.8639 16.207C15.8603 16.207 15.8567 16.207 15.8536 16.207C15.8425 16.2075 15.8313 16.2088 15.8201 16.2088C15.1109 16.2088 14.4017 16.2088 13.6925 16.2093C13.1278 16.2093 12.5637 16.2102 11.9991 16.2106C11.9968 16.2367 11.9946 16.2627 11.9924 16.2888C11.9924 16.4253 11.9924 16.5622 11.9924 16.6987C11.9924 16.7032 11.9915 16.7082 11.9915 16.7127C11.9875 16.7508 12.008 16.7589 12.0419 16.7585C12.2048 16.758 12.3682 16.7594 12.5311 16.7598C12.5347 16.7625 12.5382 16.7647 12.5414 16.7674C12.5454 16.7885 12.5534 16.8096 12.5534 16.8308C12.5543 17.2865 12.553 17.7423 12.5552 18.1976C12.5552 18.2515 12.5378 18.2637 12.4887 18.2632C12.3253 18.2614 12.162 18.2632 11.9986 18.2637C11.9959 18.2861 11.9933 18.3086 11.9906 18.331C11.9915 18.4716 11.9924 18.6121 11.9933 18.7522C11.9933 18.7567 11.9933 18.7612 11.9933 18.7657C11.9937 18.7778 11.9942 18.7904 11.9951 18.8025C12.0031 18.8057 12.0116 18.8088 12.0196 18.8119C12.0531 18.8119 12.0866 18.8115 12.12 18.8115C12.5954 18.8115 13.0707 18.8119 13.5461 18.8124C13.5572 18.8151 13.5684 18.8182 13.5791 18.8209C13.5813 18.8321 13.5836 18.8429 13.5858 18.8537C13.5836 18.9552 13.58 19.0567 13.58 19.1582C13.58 19.2875 13.5853 19.4168 13.5853 19.5457C13.5853 19.7002 13.5809 19.8546 13.5804 20.0091C13.5804 20.0446 13.563 20.0482 13.5354 20.0482C13.4314 20.0477 13.3274 20.0482 13.2238 20.0482C12.7561 20.0482 12.2887 20.0491 11.821 20.0495C11.8187 20.0603 11.817 20.0715 11.8147 20.0823C11.8138 20.0895 11.8134 20.0967 11.8125 20.1038C11.8125 20.1079 11.8125 20.1119 11.8125 20.116C11.8129 20.2565 11.8134 20.3975 11.8138 20.5381C11.8138 20.5466 11.8129 20.5547 11.8129 20.5632L11.8183 20.5933C11.8214 20.5942 11.8246 20.5951 11.8272 20.5964C11.8464 20.5973 11.8656 20.5978 11.8848 20.5987C11.8888 20.5987 11.8928 20.5987 11.8973 20.5987C11.9178 20.5982 11.9379 20.5973 11.9585 20.5973C13.2564 20.5973 14.5543 20.5973 15.8523 20.5973C15.8929 20.5973 15.934 20.5987 15.9746 20.5996C15.9786 20.5996 15.9826 20.5996 15.9871 20.5991C15.9978 20.5996 16.0085 20.6 16.0196 20.6009C16.0237 20.6009 16.0277 20.6009 16.0317 20.6005C16.0357 20.5794 16.0424 20.5583 16.0429 20.5372C16.0455 20.3818 16.0464 20.226 16.0482 20.0706C16.0491 20.0693 16.0509 20.0675 16.0504 20.067C16.0491 20.0643 16.0469 20.0625 16.0451 20.0603C16.0223 20.0567 15.9991 20.0495 15.9764 20.0495L15.9777 20.0504ZM13.3135 18.2623C13.3033 18.2515 13.293 18.2408 13.2827 18.23C13.2827 17.7468 13.2827 17.2632 13.2827 16.78C13.2854 16.776 13.2881 16.7724 13.2908 16.7683C13.3068 16.7652 14.5467 16.7607 14.5615 16.7612C14.5722 16.7742 14.5923 16.7867 14.5923 16.7998C14.5941 17.2713 14.5932 17.7432 14.5945 18.2147C14.5945 18.2551 14.5798 18.265 14.5423 18.2646C14.1325 18.2632 13.7228 18.2628 13.3131 18.2623H13.3135Z" fill="#122B85"/>
<path d="M22.0125 16.8181C22.0103 17.0175 22.0045 17.2168 22.0049 17.4162C22.0054 17.6416 22.0094 17.8671 22.0156 18.092C22.0192 18.2236 21.996 18.3565 22.0478 18.4858C22.1053 18.6286 22.2044 18.7319 22.3481 18.7714C22.4606 18.8024 22.5825 18.81 22.7003 18.8105C23.7215 18.8132 24.7432 18.8114 25.7644 18.8127C25.8059 18.8127 25.8188 18.8024 25.8184 18.7602C25.8166 18.6098 25.8184 18.4589 25.8184 18.3085C25.8184 18.3085 25.8224 18.3062 25.8224 18.3053C25.822 18.3022 25.8206 18.2995 25.8193 18.2963C25.8046 18.2887 25.7903 18.2752 25.7751 18.2748C25.7233 18.2721 25.6711 18.2734 25.6193 18.2734C24.6874 18.2734 23.755 18.2734 22.823 18.2739C22.7833 18.2739 22.7458 18.2761 22.7534 18.2187C22.7548 18.2173 22.757 18.216 22.757 18.2155C22.7561 18.2128 22.7543 18.2101 22.753 18.2074C22.753 18.0884 22.7534 17.9694 22.7539 17.85C22.7539 17.8428 22.7539 17.8352 22.7539 17.828C22.7539 17.8132 22.7539 17.7983 22.7534 17.7831C22.7565 17.7768 22.7597 17.7705 22.7628 17.7647C22.7851 17.7633 22.807 17.7611 22.8293 17.7611C23.7077 17.7611 24.5856 17.7611 25.464 17.7611C25.5412 17.7611 25.6184 17.7687 25.6952 17.771C25.7144 17.7714 25.7336 17.7647 25.7528 17.7611C25.7568 17.7611 25.7599 17.7597 25.7613 17.7561C25.763 17.7463 25.7648 17.7368 25.7666 17.7269C25.7675 17.7256 25.7697 17.7238 25.7693 17.7234C25.7684 17.7207 25.7666 17.718 25.7648 17.7153C25.7657 17.5635 25.7666 17.4117 25.7675 17.2599C25.7613 17.2442 25.7555 17.229 25.7492 17.2132C25.7139 17.2173 25.6782 17.224 25.643 17.224C24.7003 17.2245 23.7572 17.2245 22.8146 17.2245H22.7512C22.7512 17.0799 22.7543 16.9407 22.7498 16.8019C22.7476 16.7431 22.7668 16.7319 22.8217 16.7319C23.7813 16.7337 24.7409 16.7332 25.7006 16.7332H25.7764C25.7764 16.5612 25.7764 16.3964 25.7764 16.2312C25.7764 16.2235 25.7769 16.2159 25.7773 16.2083C25.7572 16.2011 25.7372 16.1885 25.7166 16.1876C25.6863 16.1863 25.6555 16.1966 25.6247 16.1966C24.4419 16.1971 23.2587 16.1966 22.0759 16.1966H22C22.0054 16.281 22.0134 16.3565 22.0143 16.4319C22.0161 16.5599 22.0147 16.6883 22.0134 16.8163L22.0125 16.8181Z" fill="#122B85"/>
<path d="M30.7617 16.1094C30.5296 16.1107 30.2975 16.1107 30.0654 16.1112C30.0632 16.1184 30.061 16.1255 30.0592 16.1327C30.0601 16.1399 30.0614 16.1475 30.0614 16.1547C30.0583 16.7385 30.0547 17.3227 30.0511 17.9065C30.0404 17.9091 30.0297 17.9114 30.019 17.9141C29.3183 17.915 28.618 17.9159 27.9172 17.9168C27.8561 17.9168 27.7949 17.915 27.7338 17.9141C27.7226 17.9114 27.7114 17.9091 27.7007 17.9065C27.6976 17.8759 27.6923 17.8454 27.6923 17.8148C27.6918 17.2733 27.6918 16.7313 27.6923 16.1898C27.6923 16.161 27.6865 16.1426 27.6552 16.1404C27.6516 16.1404 27.6481 16.1404 27.6445 16.1408H26.9531C26.9531 16.1722 26.9531 16.1907 26.9531 16.2091C26.9567 16.3698 26.9634 16.531 26.9638 16.6918C26.9661 17.0986 26.9652 17.5059 26.9661 17.9127C26.9661 18.0228 26.9754 18.1301 27.0312 18.2298C27.1192 18.386 27.2513 18.457 27.4285 18.4565C28.1319 18.4552 28.8349 18.4556 29.5383 18.4556C29.6905 18.4556 29.8427 18.4565 29.9949 18.457C30.0364 18.4507 30.0757 18.4467 30.0596 18.5104V18.8602H30.73C30.734 18.8602 30.738 18.8602 30.7425 18.8602C30.7532 18.8602 30.7639 18.8602 30.7746 18.8607C30.7787 18.8607 30.7827 18.8598 30.7867 18.8598C30.7903 18.8441 30.7965 18.8283 30.7965 18.8126C30.7983 17.9258 30.7996 17.0389 30.8019 16.152C30.8019 16.1206 30.7912 16.1098 30.7599 16.1103L30.7617 16.1094Z" fill="#122B85"/>
<path d="M17.3937 18.5917C17.5276 18.7003 17.6763 18.7875 17.8441 18.8319C18.0066 18.8746 18.1748 18.8764 18.3417 18.8746C18.3453 18.8746 18.3489 18.8746 18.352 18.8746C18.3636 18.8746 18.3752 18.8741 18.3864 18.8737C18.39 18.8737 18.3935 18.8737 18.3966 18.8737C18.4114 18.8728 18.4257 18.8723 18.4404 18.8714C18.4449 18.871 18.4493 18.8705 18.4538 18.8701C18.5118 18.8615 18.5703 18.8553 18.6274 18.844C18.7751 18.8148 18.9144 18.7574 19.0358 18.6721C19.1344 18.6029 19.2224 18.5135 19.3005 18.4206C19.504 18.1786 19.604 17.8939 19.6102 17.5786C19.612 17.4704 19.5995 17.3617 19.5893 17.2535C19.5634 16.9836 19.4678 16.7412 19.292 16.5341C19.0144 16.2068 18.6488 16.0842 18.2324 16.09C18.1378 16.0914 18.0432 16.1085 17.9494 16.1219C17.7106 16.1556 17.5062 16.2616 17.3321 16.4255C17.2308 16.5211 17.1523 16.6352 17.088 16.7591C16.9791 16.9693 16.9188 17.1907 16.9264 17.4286C16.93 17.5369 16.9358 17.6455 16.9407 17.7538L16.9465 17.7731C16.951 17.7928 16.9563 17.8126 16.959 17.8328C16.9791 17.9666 17.0175 18.0919 17.0893 18.21C17.175 18.3514 17.2652 18.487 17.3937 18.5912V18.5917ZM17.7178 17.0955C17.7633 16.9531 17.8365 16.826 17.9606 16.738C18.2043 16.5651 18.5444 16.6338 18.7086 16.884C18.8202 17.0537 18.8684 17.2409 18.8751 17.3968C18.8738 17.6675 18.8461 17.8871 18.7149 18.082C18.5926 18.2634 18.4207 18.3496 18.2083 18.329C18.0061 18.3092 17.861 18.1911 17.7727 18.0075C17.7088 17.8754 17.674 17.7371 17.6589 17.5894C17.6414 17.4179 17.6669 17.2562 17.7182 17.0955H17.7178Z" fill="#122B85"/>
<path d="M20.8519 20.3412C19.9494 20.3425 19.0474 20.3416 18.1449 20.3412C18.102 20.3412 18.0596 20.3394 18.0168 20.3385L17.9891 20.3192C17.9878 20.3043 17.9856 20.29 17.9856 20.2752C17.9856 20.0044 17.9856 19.7336 17.9851 19.4624C17.9851 19.4184 17.9851 19.3744 17.9851 19.3281H17.2344C17.2384 19.4036 17.2424 19.4763 17.2464 19.5491C17.2451 19.55 17.2429 19.5513 17.2433 19.5522C17.2442 19.5549 17.2455 19.5571 17.2469 19.5598C17.2478 19.6842 17.2473 19.8091 17.2496 19.9334C17.2527 20.1319 17.2545 20.3308 17.2629 20.5293C17.267 20.6214 17.3187 20.6977 17.3843 20.7574C17.4906 20.8535 17.6263 20.8863 17.7633 20.8868C18.7939 20.8899 19.8245 20.8881 20.8546 20.889C20.8992 20.889 20.9175 20.8769 20.9166 20.8288C20.9144 20.6874 20.914 20.5459 20.9184 20.4049C20.9202 20.3511 20.9028 20.3403 20.8528 20.3407L20.8519 20.3412Z" fill="#122B85"/>
<path d="M20.1523 19.5691C20.1523 19.5732 20.1523 19.5772 20.1523 19.5813C20.1715 19.5849 20.1907 19.5911 20.2099 19.5916C20.376 19.5925 20.5424 19.592 20.7085 19.5916C20.7656 19.5916 20.8227 19.5916 20.8803 19.5911C20.8825 19.5875 20.8843 19.5844 20.8866 19.5808C20.8866 19.5732 20.8866 19.5655 20.8866 19.5579C20.8875 19.557 20.8897 19.5552 20.8897 19.5548C20.8888 19.5521 20.887 19.5498 20.8857 19.5471C20.8848 19.5247 20.8825 19.5027 20.8825 19.4802C20.8825 18.398 20.8825 17.3154 20.8825 16.2332C20.8825 16.1932 20.8825 16.1528 20.8825 16.1133H20.1555C20.1555 16.2211 20.1555 16.3243 20.1555 16.4281C20.1555 17.1349 20.1555 17.8417 20.1555 18.548C20.1555 18.8587 20.1537 19.169 20.1523 19.4798C20.1523 19.4986 20.1528 19.5175 20.1532 19.5364C20.1532 19.5471 20.1528 19.5579 20.1523 19.5691Z" fill="#122B85"/>
<path d="M21.784 20.043C21.784 20.1813 21.7849 20.3164 21.7836 20.452C21.7836 20.4767 21.7679 20.598 21.8179 20.598C21.8693 20.598 21.921 20.589 21.9724 20.589C23.2569 20.5886 24.5419 20.589 25.8265 20.589C25.8742 20.589 25.9233 20.5899 25.9688 20.6025C26.0112 20.6142 26.0193 20.5989 26.0193 20.5652C26.0193 20.3923 26.0193 20.2199 26.0193 20.043H21.7845H21.784Z" fill="#122B85"/>
<path d="M35.8681 20.051C35.0687 20.051 34.2689 20.0505 33.4695 20.051C32.8964 20.051 32.3229 20.0519 31.7498 20.0523C31.7422 20.0577 31.7342 20.0631 31.7266 20.0685C31.7324 20.0743 31.7382 20.0802 31.744 20.0856C31.744 20.2373 31.7435 20.3891 31.7431 20.5404C31.7386 20.5427 31.7342 20.5449 31.7297 20.5472C31.7342 20.5499 31.7382 20.5521 31.7426 20.5548C31.7426 20.5548 31.7426 20.5548 31.7426 20.5544C31.7426 20.5544 31.7426 20.5544 31.7426 20.5548C31.7426 20.566 31.7422 20.5773 31.7417 20.5885L31.7404 20.6033C31.7466 20.6024 31.7524 20.6015 31.7587 20.6006C33.0424 20.6006 34.326 20.6006 35.6097 20.6006C35.6967 20.6006 35.7842 20.6015 35.8712 20.6024C35.8864 20.6024 35.9016 20.6029 35.9163 20.6033C35.9234 20.6033 35.9301 20.6029 35.9373 20.6024L35.9444 20.6154C35.9467 20.6109 35.9484 20.606 35.9507 20.6015C35.9578 20.6002 35.965 20.5993 35.9716 20.5979C35.9828 20.602 35.994 20.606 36.0056 20.61V20.0519C35.9895 20.0528 35.9734 20.0537 35.9578 20.0546C35.9284 20.0537 35.8985 20.0519 35.869 20.0519L35.8681 20.051Z" fill="#122B85"/>
<path d="M25.75 17.2148C25.7562 17.2306 25.7621 17.2458 25.7683 17.2615C25.8013 17.2306 25.7768 17.2225 25.75 17.2148Z" fill="#122B85"/>
</g>
<defs>
<linearGradient id="paint0_linear_5046_205320" x1="3.51264" y1="15.1067" x2="2.00499" y2="18.7418" gradientUnits="userSpaceOnUse">
<stop stop-color="#FDD100"/>
<stop offset="1" stop-color="#F8E404"/>
</linearGradient>
<linearGradient id="paint1_linear_5046_205320" x1="1.06357" y1="17.2356" x2="2.6698" y2="19.8366" gradientUnits="userSpaceOnUse">
<stop stop-color="#159343"/>
<stop offset="1" stop-color="#14923E"/>
</linearGradient>
<linearGradient id="paint2_linear_5046_205320" x1="10.2242" y1="19.2606" x2="3.72711" y2="19.7931" gradientUnits="userSpaceOnUse">
<stop offset="0.213542" stop-color="#E40C1A"/>
<stop offset="0.880208" stop-color="#F37F71"/>
</linearGradient>
<linearGradient id="paint3_linear_5046_205320" x1="7.45458" y1="14.9994" x2="3.35238" y2="18.5883" gradientUnits="userSpaceOnUse">
<stop stop-color="#EF8200"/>
<stop offset="1" stop-color="#F8C600"/>
</linearGradient>
<linearGradient id="paint4_linear_5046_205320" x1="-1.02686e-09" y1="20.3243" x2="2.98591" y2="20.1979" gradientUnits="userSpaceOnUse">
<stop offset="0.614583" stop-color="#159AD6"/>
<stop offset="1" stop-color="#99CEED"/>
</linearGradient>
<clipPath id="clip0_5046_205320">
<rect width="36" height="6.17752" fill="white" transform="translate(0 15)"/>
</clipPath>
</defs>
</svg>
