<svg width="36" height="36" viewBox="0 0 36 36" fill="none" xmlns="http://www.w3.org/2000/svg">
<g clip-path="url(#clip0_5046_205305)">
<path d="M12.8802 19.0746C12.7297 19.0734 12.5792 19.0716 12.4287 19.0722C12.3998 19.0722 12.3709 19.0801 12.3421 19.0849C12.3089 19.0951 12.2604 19.0608 12.2487 19.1288C12.2137 19.3318 12.1737 19.5342 12.1338 19.7366C12.1031 19.8902 12.0681 20.0438 12.0361 20.1974C11.9907 20.4142 11.9465 20.631 11.9016 20.8479C11.874 20.9822 11.8482 21.1165 11.8211 21.2502C11.7978 21.3647 11.7745 21.4791 11.7505 21.5942H11.7253C11.6811 21.4707 11.6369 21.3472 11.592 21.2237C11.5195 21.025 11.4452 20.8262 11.3727 20.6268C11.1884 20.1185 11.0048 19.6095 10.8205 19.1005C10.8168 19.0939 10.8125 19.0879 10.8088 19.0813C10.7947 19.0782 10.7799 19.0722 10.7658 19.0728C10.4826 19.0776 10.1988 19.0831 9.91561 19.0879H9.80811C9.54826 20.2823 9.28903 21.4743 9.02734 22.6784C9.29886 22.6784 9.54949 22.6796 9.79951 22.676C9.81671 22.676 9.84497 22.6452 9.84927 22.6254C9.88858 22.4519 9.92483 22.2784 9.95923 22.1043C10.0078 21.855 10.052 21.605 10.1017 21.3563C10.1822 20.9569 10.2651 20.5576 10.3481 20.1582C10.3579 20.11 10.3745 20.0631 10.3911 20.0058C10.4034 20.0245 10.4107 20.0317 10.4144 20.0408C10.4949 20.2558 10.576 20.4702 10.654 20.6859C10.8893 21.3328 11.1239 21.9797 11.3604 22.626C11.3684 22.6476 11.401 22.6754 11.4231 22.6754C11.694 22.6784 11.9655 22.6778 12.2364 22.6735C12.2561 22.6735 12.2862 22.6422 12.2917 22.6211C12.3157 22.5314 12.3316 22.4392 12.3513 22.3483C12.4336 21.9706 12.5178 21.5936 12.5988 21.2159C12.664 20.9123 12.7248 20.6076 12.7911 20.304C12.8691 19.9456 12.9527 19.5878 13.0307 19.2294C13.0657 19.0698 13.0546 19.0614 12.8796 19.0746H12.8802Z" fill="#636363"/>
<path d="M28.1627 19.0734C27.7302 19.0728 27.2978 19.0716 26.8653 19.0716C26.7351 19.0716 26.6042 19.074 26.474 19.0758C26.3861 19.0837 26.2971 19.0861 26.2105 19.1005C25.7166 19.1818 25.3075 19.3999 25.0089 19.8016C24.8375 20.0329 24.7171 20.2877 24.6373 20.5588C24.5187 20.9611 24.4044 21.3647 24.4917 21.7917C24.5562 22.108 24.7183 22.3525 25.0169 22.5031C25.3013 22.6458 25.6078 22.6778 25.9211 22.6784C26.4279 22.6784 26.9341 22.6784 27.4409 22.6784C27.4716 22.6784 27.5042 22.6838 27.5324 22.6747C27.5558 22.6675 27.5859 22.6452 27.5908 22.6248C27.6166 22.5199 27.6338 22.4133 27.6559 22.3073C27.7026 22.0778 27.7486 21.8483 27.7984 21.6195C27.8617 21.3273 27.9286 21.0364 27.9944 20.7449C28.0091 20.678 28.0239 20.6118 28.0411 20.5365H27.9483C27.9483 20.5365 27.9434 20.5353 27.9409 20.5353C27.3801 20.5347 26.8192 20.5341 26.2584 20.5329C26.1969 20.5329 26.1939 20.5672 26.1988 20.6112C26.1853 20.6587 26.1693 20.7057 26.1595 20.7539C26.1306 20.8955 26.1036 21.037 26.0759 21.1786C26.0808 21.1816 26.0851 21.1846 26.0901 21.1876C26.4009 21.1864 26.7123 21.1858 27.0232 21.184C27.0778 21.184 27.0938 21.2014 27.0809 21.2569C27.0232 21.4984 26.9691 21.7411 26.9126 21.9899H26.7517C26.7154 21.9899 26.6792 21.9887 26.6429 21.9899C26.4949 21.9947 26.3462 22.0001 26.1982 22.005C26.1214 22.0044 26.044 22.008 25.9678 22.0013C25.8222 21.9893 25.6809 21.9604 25.5667 21.8616C25.3898 21.708 25.3462 21.5116 25.3677 21.2912C25.3941 21.0129 25.4555 20.7431 25.5532 20.4811C25.6281 20.2805 25.7227 20.0914 25.8861 19.942C26.095 19.751 26.3487 19.6944 26.627 19.6992C27.1251 19.7077 27.6239 19.7083 28.1221 19.7143C28.1983 19.7155 28.2303 19.6854 28.2425 19.6125C28.2622 19.4944 28.2929 19.3782 28.3181 19.2613C28.3623 19.056 28.3924 19.065 28.1633 19.074L28.1627 19.0734Z" fill="#636363"/>
<path d="M3.77421 19.0717C3.12122 19.0711 2.46823 19.0699 1.81523 19.0705C1.74152 19.0705 1.6678 19.0795 1.59409 19.0843C1.28817 19.1114 1.00375 19.1988 0.785066 19.415C0.460719 19.7348 0.329875 20.1342 0.354447 20.5769C0.366118 20.7871 0.472391 20.957 0.67265 21.0642C0.856324 21.1618 1.05413 21.2009 1.25746 21.2051C1.61805 21.2124 1.97864 21.2051 2.33923 21.2087C2.42953 21.2099 2.52167 21.2226 2.61013 21.2419C2.73975 21.2696 2.81223 21.3756 2.78705 21.4991C2.77107 21.5768 2.74466 21.6527 2.71456 21.7261C2.66603 21.8436 2.57819 21.9243 2.45226 21.9592C2.3724 21.9815 2.29008 21.9966 2.209 22.0147C1.81093 22.0141 1.41349 22.0123 1.01543 22.0123C0.778309 22.0123 0.541192 22.0141 0.304075 22.0153H0.132073C0.0866153 22.2405 0.0436148 22.4532 0 22.6688C0.0325575 22.6736 0.0423862 22.676 0.0522149 22.676C0.658522 22.676 1.26483 22.676 1.87175 22.676C2.123 22.676 2.37363 22.6808 2.62119 22.617C2.97502 22.5254 3.26927 22.3604 3.43697 22.0291C3.57825 21.7508 3.65566 21.4575 3.63784 21.1431C3.63108 21.0232 3.59423 20.919 3.51682 20.8287C3.34728 20.6311 3.10955 20.6016 2.86813 20.5817C2.84295 20.5799 2.81715 20.5775 2.79196 20.5775C2.35704 20.5757 1.92151 20.5739 1.48659 20.5721C1.46755 20.5661 1.44912 20.5594 1.43007 20.554C1.32196 20.5221 1.2249 20.4739 1.20893 20.3522C1.20033 20.289 1.20524 20.2209 1.21876 20.1577C1.255 19.9854 1.3582 19.8631 1.52406 19.7891C1.67702 19.721 1.83919 19.7132 2.00259 19.7132C2.52966 19.712 3.05733 19.712 3.5844 19.7132C3.62924 19.7132 3.67593 19.7288 3.71954 19.7228C3.75886 19.7174 3.82336 19.6999 3.8295 19.6758C3.88049 19.4843 3.9198 19.2897 3.96772 19.0729H3.7736L3.77421 19.0717Z" fill="#636363"/>
<path d="M7.62789 19.0704C7.3791 19.0704 7.13891 19.0698 6.89872 19.0722C6.88152 19.0722 6.85327 19.0963 6.84958 19.1131C6.80474 19.3252 6.76604 19.5378 6.72119 19.7498C6.67266 19.9799 6.61676 20.2082 6.57008 20.4383C6.55533 20.5118 6.5154 20.531 6.44906 20.5262C6.051 20.525 5.65294 20.5244 5.25426 20.522C5.2174 20.522 5.18055 20.5118 5.14307 20.5063C5.24075 20.048 5.33781 19.589 5.43548 19.1306C5.46312 19.0776 5.43548 19.0692 5.38879 19.0758C5.37343 19.0758 5.35746 19.0758 5.34211 19.0758C5.13755 19.0758 4.93299 19.0758 4.72843 19.0758C4.68727 19.0662 4.65963 19.0734 4.65164 19.1216C4.6369 19.2113 4.61908 19.3005 4.60065 19.389C4.52755 19.7317 4.45384 20.0739 4.37951 20.416C4.33528 20.6184 4.28921 20.8201 4.24375 21.0219C4.18539 21.2797 4.12642 21.5375 4.06868 21.7953C4.00725 22.0712 3.94643 22.347 3.88746 22.6229C3.88377 22.6398 3.89483 22.6591 3.89852 22.6771C3.90405 22.6771 3.90896 22.6783 3.91449 22.6789C4.11413 22.6789 4.31378 22.6783 4.51342 22.6783C4.67068 22.6783 4.66761 22.6777 4.69956 22.5247C4.75054 22.2844 4.80706 22.0453 4.85989 21.805C4.89429 21.6465 4.92684 21.4881 4.9594 21.3297C4.98029 21.2285 5.04458 21.1779 5.15229 21.1779C5.53376 21.1779 5.91463 21.1779 6.2961 21.1773C6.32559 21.1773 6.35507 21.1773 6.40237 21.1773C6.29364 21.6845 6.18799 22.1766 6.0811 22.6735C6.10629 22.6747 6.1284 22.6765 6.15113 22.6765C6.32743 22.6771 6.50435 22.6771 6.68065 22.6783C6.80351 22.6791 6.87456 22.6201 6.89381 22.5012C6.89381 22.5012 6.89381 22.4964 6.89381 22.494C6.94418 22.2742 6.99762 22.0549 7.04492 21.8339C7.11987 21.4857 7.18867 21.1358 7.26361 20.7876C7.3232 20.5105 7.38893 20.2341 7.45036 19.9576C7.50994 19.6902 7.5683 19.4221 7.62605 19.1541C7.63157 19.1294 7.62666 19.1023 7.62666 19.071L7.62789 19.0704Z" fill="#636363"/>
<path d="M9.1149 19.1131C9.102 19.0987 9.0891 19.0715 9.0762 19.0715C8.83846 19.0697 8.60012 19.0697 8.36239 19.0728C8.34334 19.0728 8.3243 19.0993 8.30526 19.1131C8.04787 20.2967 7.79048 21.4803 7.53125 22.6753C7.79417 22.6753 8.04418 22.6729 8.2942 22.6771C8.35624 22.6783 8.37099 22.653 8.3802 22.6018C8.42013 22.3838 8.46067 22.1657 8.50736 21.9495C8.58108 21.6098 8.66155 21.2719 8.73649 20.9327C8.81021 20.6003 8.88085 20.2666 8.95334 19.9335C9.00248 19.7058 9.05347 19.4787 9.10138 19.2504C9.1106 19.2053 9.11121 19.1589 9.11551 19.1131H9.1149Z" fill="#636363"/>
<path d="M24.4371 19.0727C24.2202 19.0739 24.0028 19.0715 23.7859 19.0733C23.6938 19.0739 23.6883 19.083 23.6932 19.1745C23.5236 19.9811 23.3547 20.787 23.1852 21.5935C23.1354 21.5025 23.1028 21.4122 23.0697 21.3218C22.8934 20.837 22.7171 20.3515 22.5395 19.8672C22.4529 19.6311 22.3638 19.3956 22.2754 19.1601C22.2576 19.1239 22.2705 19.0691 22.1986 19.0703C21.9639 19.0739 21.7293 19.0727 21.494 19.0739C21.4326 19.0733 21.3711 19.0739 21.3103 19.0715C21.2612 19.0697 21.2348 19.0842 21.2317 19.1378C21.2286 19.1914 21.2163 19.245 21.2047 19.298C21.1279 19.6365 21.048 19.9744 20.9737 20.3135C20.9233 20.543 20.8828 20.7743 20.8336 21.0038C20.7913 21.1996 20.7397 21.3929 20.6973 21.5887C20.6481 21.8157 20.607 22.0446 20.5597 22.2729C20.5326 22.403 20.5007 22.5319 20.4688 22.6723C20.5044 22.6747 20.5339 22.6777 20.5634 22.6777C20.7759 22.6777 20.9884 22.6747 21.2004 22.6795C21.2649 22.6807 21.2845 22.6578 21.2944 22.6012C21.3189 22.4614 21.3472 22.3229 21.3767 22.1844C21.4191 21.988 21.4676 21.7929 21.5069 21.5959C21.5622 21.3182 21.6083 21.0381 21.6654 20.7611C21.7158 20.5171 21.776 20.275 21.8349 20.016C21.8521 20.0419 21.8693 20.0594 21.8767 20.0804C21.9013 20.1509 21.9191 20.2232 21.9449 20.2931C22.1175 20.7635 22.2914 21.2333 22.4646 21.7037C22.577 22.0079 22.6894 22.3121 22.8 22.6168C22.8172 22.6644 22.8436 22.6801 22.8958 22.6795C23.152 22.6765 23.4075 22.6765 23.6637 22.6789C23.7165 22.6789 23.7411 22.6644 23.7374 22.612C23.7362 22.597 23.7356 22.5819 23.7386 22.5675C23.7835 22.3663 23.8314 22.1657 23.8744 21.9639C23.953 21.5977 24.028 21.2303 24.106 20.8641C24.1711 20.5587 24.2393 20.2545 24.3056 19.9497C24.3652 19.6769 24.4254 19.404 24.4856 19.1312C24.4997 19.0872 24.4801 19.0739 24.4365 19.0739L24.4371 19.0727Z" fill="#636363"/>
<path d="M20.5791 19.0709C20.326 19.0709 20.0846 19.0703 19.8425 19.0727C19.8266 19.0727 19.8112 19.1004 19.7958 19.1149C19.7903 19.1311 19.7829 19.1468 19.7799 19.1637C19.7283 19.4088 19.6797 19.6546 19.6263 19.8997C19.5655 20.1804 19.5028 20.4611 19.4365 20.7406C19.3714 21.0134 19.3081 21.2869 19.2313 21.5567C19.122 21.9398 18.8222 22.0916 18.4475 22.135C18.2791 22.1542 18.1133 22.1223 17.953 22.0723C17.7846 22.0199 17.6298 21.8525 17.6458 21.6543C17.6612 21.464 17.687 21.273 17.7244 21.0851C17.7871 20.7701 17.8633 20.4575 17.9333 20.1437C17.9689 19.984 18.0027 19.8244 18.0365 19.6648C18.0746 19.4865 18.1114 19.3076 18.1489 19.1293C18.1336 19.1101 18.1188 19.0733 18.1035 19.0733C17.8676 19.0745 17.6317 19.0799 17.3964 19.0866C17.3878 19.0866 17.3798 19.1046 17.3712 19.1143C17.3209 19.3492 17.2717 19.5847 17.2195 19.8196C17.1679 20.0509 17.1114 20.2804 17.061 20.5117C17.0045 20.7725 16.956 21.0345 16.8976 21.2947C16.8417 21.5435 16.8196 21.7946 16.862 22.0458C16.8964 22.2524 17.0014 22.4199 17.198 22.5259C17.3952 22.6319 17.6077 22.6921 17.8289 22.7012C18.0906 22.712 18.3541 22.6981 18.6164 22.6897C18.8461 22.6825 19.0636 22.6192 19.2712 22.5265C19.5298 22.4108 19.7301 22.2313 19.8646 21.9844C20.0231 21.6929 20.0882 21.3736 20.1607 21.0562C20.1945 20.9068 20.2246 20.7568 20.2559 20.6075C20.2867 20.4629 20.3155 20.3177 20.3469 20.1738C20.3837 20.0027 20.4224 19.8323 20.4587 19.6612C20.4943 19.4944 20.5281 19.3269 20.5625 19.1595C20.5674 19.133 20.5723 19.1065 20.5791 19.0703V19.0709Z" fill="#636363"/>
<path d="M16.1382 19.0716C16.0952 19.0704 16.051 19.0716 16.0086 19.0674C15.9404 19.0596 15.9189 19.0999 15.9085 19.1529C15.8747 19.3167 15.8428 19.4812 15.8071 19.6444C15.7549 19.8835 15.699 20.1221 15.648 20.3618C15.6155 20.5142 15.6185 20.5148 15.4773 20.5232C15.0681 20.5232 14.6584 20.5232 14.2493 20.5232C14.2401 20.4997 14.2186 20.4738 14.2235 20.4533C14.2966 20.113 14.374 19.7739 14.4489 19.4342C14.471 19.333 14.4882 19.2312 14.5073 19.1294C14.519 19.0915 14.5159 19.0692 14.4637 19.0698C14.2388 19.0716 14.014 19.0692 13.7892 19.0716C13.7707 19.0716 13.7523 19.0987 13.7339 19.1132C13.4734 20.2973 13.2136 21.4815 12.9531 22.6663C12.974 22.6723 12.9814 22.6759 12.9888 22.6759C13.2191 22.6777 13.4495 22.6808 13.6798 22.6777C13.7056 22.6777 13.7468 22.6464 13.7542 22.6223C13.7738 22.5561 13.7757 22.4856 13.791 22.4181C13.8346 22.223 13.8832 22.029 13.9268 21.8339C13.9759 21.6176 14.022 21.4008 14.0705 21.1797H15.473C15.3655 21.6803 15.2592 22.1736 15.1529 22.6681C15.1676 22.6717 15.1744 22.6753 15.1818 22.6753C15.4171 22.6765 15.6523 22.6783 15.8882 22.6753C15.9091 22.6753 15.941 22.6416 15.9478 22.6181C15.9693 22.5476 15.9804 22.4742 15.9957 22.4013C16.0651 22.0742 16.1339 21.7471 16.2046 21.4207C16.2734 21.1057 16.3459 20.7912 16.4147 20.4756C16.473 20.2082 16.5277 19.9408 16.5836 19.6733C16.6192 19.5023 16.6549 19.3312 16.6905 19.1601C16.6966 19.133 16.7022 19.1059 16.7095 19.0734H16.1382V19.0716Z" fill="#636363"/>
<path d="M24.8784 16.3959C24.9699 16.4182 25.0614 16.4399 25.1536 16.4622C25.1689 16.4652 25.1849 16.4682 25.2002 16.4712M25.2002 16.4712C25.3544 16.5128 25.5092 16.5531 25.6634 16.5953C25.8366 16.6429 26.0099 16.6923 26.1831 16.7411C26.2126 16.7537 26.2421 16.7676 26.2722 16.779C26.6229 16.9121 26.9823 17.0284 27.3232 17.1826C27.6697 17.3392 28.0057 17.5217 28.3331 17.7138C28.5844 17.8608 28.8154 18.0409 29.0549 18.2059C29.1354 18.2704 29.2159 18.3348 29.2963 18.3987C29.5378 18.6372 29.7859 18.8697 30.0175 19.1166C30.1729 19.2829 30.305 19.4702 30.4475 19.6479C30.4592 19.6672 30.4715 19.6858 30.4819 19.7057C30.6564 20.0231 30.8394 20.3364 31.0022 20.6592C31.1005 20.8532 31.1675 21.0622 31.2492 21.2646C31.2553 21.2886 31.2609 21.3127 31.267 21.3362C31.318 21.5308 31.369 21.7253 31.42 21.9199C31.42 21.9247 31.4212 21.9301 31.4218 21.9349C31.4193 21.9398 31.42 21.9446 31.4236 21.9488C31.4286 21.9741 31.4329 21.9994 31.4378 22.0247C31.4378 22.0391 31.4384 22.0536 31.439 22.0681C31.439 22.0735 31.4378 22.0789 31.4378 22.0843C31.4415 22.0897 31.4458 22.0946 31.4494 22.1C31.4513 22.1138 31.4531 22.1283 31.4544 22.1427C31.4574 22.1482 31.4599 22.1542 31.463 22.1596C31.4654 22.1638 31.4673 22.1686 31.4697 22.1729C31.4746 22.1927 31.4789 22.2132 31.4838 22.2331C31.4838 22.2602 31.4808 22.2879 31.4838 22.3144C31.5023 22.4541 31.5262 22.5939 31.5404 22.7342C31.5447 22.7788 31.5576 22.7981 31.6018 22.7963C31.6085 22.7963 31.6153 22.7963 31.6227 22.7963C31.6933 22.7939 31.764 22.7909 31.8346 22.7884C32.0342 22.7884 32.2339 22.7884 32.4335 22.7884C32.6793 22.7884 32.925 22.7884 33.1707 22.7884C33.3298 22.7884 33.4883 22.7896 33.6474 22.7902C33.8108 22.7915 33.9748 22.7921 34.1382 22.7933C34.3778 22.7945 34.6173 22.7957 34.8569 22.7969C34.8643 22.7969 34.871 22.7969 34.8784 22.7969C34.8913 22.7969 34.9042 22.7969 34.9177 22.7969C34.93 22.7969 34.9429 22.7969 34.9552 22.7969C34.9681 22.7969 34.9816 22.7969 34.9945 22.7969C35.0019 22.7969 35.0093 22.7969 35.0166 22.7969C35.3219 22.7951 35.6279 22.7933 35.9332 22.7915C35.9399 22.7915 35.9461 22.7927 35.9528 22.7927C35.9614 22.7945 35.97 22.7963 35.9786 22.7981C35.9866 22.7896 35.994 22.7818 36.002 22.7734C35.9184 22.6222 35.8349 22.4716 35.7513 22.3204C35.7427 22.271 35.747 22.215 35.6819 22.1958L35.6813 22.1945C35.6715 22.1632 35.6629 22.1313 35.6518 22.1006C35.6457 22.0831 35.6297 22.0669 35.6279 22.0494C35.6217 21.9849 35.5799 21.959 35.521 21.9494C35.4528 21.856 35.384 21.7639 35.3176 21.6699C35.2642 21.5946 35.2144 21.5169 35.1628 21.4404C35.1585 21.4356 35.1549 21.4314 35.1506 21.4266C35.1456 21.4212 35.1413 21.4157 35.1364 21.4109C35.1291 21.4007 35.1223 21.3904 35.1149 21.3796C35.1119 21.3754 35.1088 21.3712 35.1057 21.3669C35.0928 21.3513 35.0799 21.3356 35.067 21.3206V21.3145L35.0603 21.3139C35.0541 21.3067 35.0474 21.2995 35.0412 21.2917C35.0326 21.2802 35.024 21.2682 35.0154 21.2567C35.0013 21.2393 34.9872 21.2218 34.973 21.2043C34.8084 21.0128 34.6444 20.8212 34.4797 20.6297C34.4017 20.5393 34.3231 20.4484 34.2451 20.358C34.1566 20.2653 34.0706 20.1707 33.9797 20.0804C33.922 20.0225 33.8587 19.9695 33.7979 19.9147C33.6603 19.7888 33.5227 19.6624 33.3838 19.5377C33.2991 19.4612 33.2112 19.3877 33.1246 19.3124C32.9618 19.1853 32.7997 19.0582 32.6369 18.9311C32.616 18.9137 32.5957 18.8944 32.573 18.8793C32.3899 18.7546 32.2069 18.6306 32.0232 18.5059C31.9237 18.4426 31.8248 18.38 31.7253 18.3168C31.7234 18.3119 31.7197 18.3107 31.7148 18.3113C31.6878 18.2927 31.6626 18.2722 31.6337 18.2565C31.3192 18.0824 31.0047 17.9084 30.6883 17.7367C30.6386 17.7096 30.5814 17.6939 30.528 17.6735C30.5176 17.6686 30.5071 17.6638 30.4973 17.6584C30.4776 17.647 30.458 17.6355 30.4383 17.6247C30.2516 17.5422 30.0661 17.4578 29.8781 17.3789C29.7958 17.3446 29.7079 17.3217 29.6231 17.2934C29.5359 17.2597 29.4481 17.2259 29.3608 17.1922C29.3473 17.1868 29.3344 17.1796 29.3209 17.1753C29.1692 17.1247 29.0175 17.0735 28.8651 17.0236C28.7754 16.994 28.6857 16.9633 28.5942 16.9398C28.4836 16.9115 28.3712 16.891 28.26 16.8645C28.1648 16.8416 28.0721 16.8115 27.9762 16.7905C27.7668 16.7447 27.5561 16.7013 27.346 16.6585C27.2041 16.6302 27.0622 16.6043 26.9203 16.5778C26.8957 16.5688 26.8711 16.558 26.8459 16.5507C26.497 16.455 26.1469 16.3622 25.7986 16.2634C25.6284 16.2152 25.4607 16.1568 25.2924 16.1026C25.2107 16.0761 25.129 16.049 25.0473 16.0225C25.0375 16.0171 25.0276 16.011 25.0178 16.0056C24.8538 15.937 24.6898 15.8683 24.5257 15.7996C24.4539 15.7653 24.382 15.731 24.3107 15.6972C24.2469 15.6647 24.183 15.6328 24.1197 15.599C23.9778 15.5225 23.8365 15.4448 23.6952 15.3671C23.6866 15.3617 23.6774 15.3563 23.6688 15.3503C23.6522 15.34 23.6363 15.3292 23.6197 15.319C23.6141 15.3147 23.608 15.3111 23.6025 15.3069C23.5982 15.3033 23.5933 15.2997 23.589 15.2961C23.5785 15.2894 23.5675 15.2834 23.557 15.2768C23.5324 15.2599 23.5079 15.2425 23.4833 15.2256C23.4526 15.2027 23.4213 15.1792 23.3905 15.1563L23.2658 15.0672C23.2609 15.063 23.2554 15.0582 23.2505 15.0539H23.2492C23.2345 15.0431 23.2198 15.0329 23.205 15.0226C23.1989 15.0178 23.1933 15.0124 23.1872 15.0076C23.1829 15.0033 23.1786 14.9991 23.1737 14.9949L23.1712 14.9925C23.1362 14.9582 23.1006 14.9238 23.0656 14.8895C23.0557 14.8787 23.0459 14.8678 23.0361 14.8564C23.0263 14.8467 23.0164 14.8371 23.006 14.8275C22.9955 14.8172 22.9845 14.807 22.974 14.7961C22.9642 14.7865 22.9544 14.7769 22.9439 14.7672C22.9384 14.7618 22.9329 14.7564 22.9274 14.751C22.9016 14.7221 22.8758 14.6937 22.8493 14.6648C22.8389 14.6407 22.8321 14.6148 22.8174 14.5938C22.7627 14.5173 22.7038 14.4444 22.6491 14.3679C22.6024 14.3022 22.56 14.233 22.5158 14.1655C22.5096 14.1565 22.5041 14.1468 22.498 14.1378L22.4255 13.9854C22.4255 13.9854 22.4243 13.986 22.423 13.9872C22.4243 13.9866 22.4255 13.9854 22.4255 13.9854C22.4144 13.9613 22.404 13.9378 22.3929 13.9137C22.38 13.8746 22.3665 13.836 22.353 13.7969H21.7135C21.4678 13.7969 21.2221 13.7969 20.9764 13.7969H20.2699C19.9652 13.7969 19.6606 13.7969 19.3516 13.7969C19.4498 13.9583 19.964 14.386 20.2392 14.5401C20.4174 14.6498 20.5943 14.7612 20.7743 14.8678C20.8787 14.9299 20.9887 14.9835 21.0962 15.0407C21.1072 15.0485 21.1189 15.0563 21.1299 15.0648C21.1748 15.0871 21.219 15.11 21.2645 15.131C21.3517 15.1708 21.4395 15.2087 21.5274 15.2473C21.7362 15.3376 21.9451 15.428 22.154 15.5189C22.154 15.5105 22.1521 15.5009 22.1509 15.4918C22.1521 15.5015 22.1534 15.5105 22.154 15.5189L22.173 15.5328C22.1835 15.5376 22.1933 15.5424 22.2037 15.5472C22.2105 15.5382 22.2166 15.5286 22.2228 15.5183C22.2166 15.5286 22.2105 15.5388 22.2037 15.5472C22.2295 15.5575 22.2547 15.5671 22.2805 15.5774C22.3702 15.6117 22.4593 15.6472 22.5496 15.6804C22.7369 15.749 22.9249 15.8171 23.1135 15.8833C23.143 15.8936 23.1983 15.9092 23.2284 15.9189C23.3107 15.946 23.3721 15.9544 23.4532 15.9851C23.5257 16.0098 23.5976 16.0363 23.6707 16.0586C23.8365 16.1086 24.0036 16.1562 24.1701 16.2044C24.1774 16.2092 24.1842 16.217 24.1928 16.2188C24.4207 16.2779 24.6492 16.3357 24.8771 16.3941M24.5159 15.7912C24.5159 15.7912 24.5104 15.7912 24.5079 15.7918C24.5079 15.7918 24.5135 15.7918 24.5159 15.7912Z" fill="url(#paint0_linear_5046_205305)"/>
</g>
<defs>
<linearGradient id="paint0_linear_5046_205305" x1="27.6768" y1="13.7969" x2="27.6768" y2="22.7981" gradientUnits="userSpaceOnUse">
<stop offset="0.145833" stop-color="#DB0A0D"/>
<stop offset="0.494792" stop-color="#FD0B1A"/>
<stop offset="0.833333" stop-color="#DB0A0D"/>
</linearGradient>
<clipPath id="clip0_5046_205305">
<rect width="36" height="9" fill="white" transform="translate(0 13.8008)"/>
</clipPath>
</defs>
</svg>
