<svg width="36" height="36" viewBox="0 0 36 36" fill="none" xmlns="http://www.w3.org/2000/svg">
<rect x="5.25" y="9" width="25.5" height="19.5" rx="4" fill="#757575"/>
<path fill-rule="evenodd" clip-rule="evenodd" d="M16.5 5.25C14.8431 5.25 13.5 6.59315 13.5 8.25V10.5H15V7.75C15 7.19772 15.4477 6.75 16 6.75H20C20.5523 6.75 21 7.19772 21 7.75V10.5H22.5V8.25C22.5 6.59315 21.1569 5.25 19.5 5.25H16.5Z" fill="#757575"/>
<rect x="9" y="9" width="18" height="19.5" fill="white"/>
<rect x="18" y="9" width="9" height="19.5" fill="white"/>
<rect x="16.125" y="14.25" width="3.75" height="9.75" rx="1" fill="#F64A4A"/>
<rect x="13.125" y="17.25" width="9.75" height="3.75" rx="1" fill="#F64A4A"/>
<path d="M24.9968 30.8424L22.9055 25.208C22.3609 23.7406 22.7404 22.0898 23.8712 21.0076L24.0533 20.8332C25.2889 19.6507 27.1787 19.4968 28.5868 20.4504C29.9948 19.4968 31.8846 19.6507 33.1202 20.8332L33.3024 21.0076C34.4332 22.0898 34.8127 23.7406 34.268 25.208L32.1768 30.8424C31.754 31.9814 30.1418 31.9778 29.7241 30.837L29.5258 30.2953C29.2055 29.4204 27.9681 29.4204 27.6477 30.2953L27.4494 30.837C27.0317 31.9778 25.4195 31.9814 24.9968 30.8424Z" fill="#AFC3DC"/>
<mask id="mask0_5030_204686" style="mask-type:alpha" maskUnits="userSpaceOnUse" x="22" y="19" width="13" height="13">
<path d="M24.9968 30.8424L22.9055 25.208C22.3609 23.7406 22.7404 22.0898 23.8712 21.0076L24.0533 20.8332C25.2889 19.6507 27.1787 19.4968 28.5868 20.4504C29.9948 19.4968 31.8846 19.6507 33.1202 20.8332L33.3024 21.0076C34.4332 22.0898 34.8127 23.7406 34.268 25.208L32.1768 30.8424C31.754 31.9814 30.1418 31.9778 29.7241 30.837L29.5258 30.2953C29.2055 29.4204 27.9681 29.4204 27.6477 30.2953L27.4494 30.837C27.0317 31.9778 25.4195 31.9814 24.9968 30.8424Z" fill="#DCEAFC"/>
</mask>
<g mask="url(#mask0_5030_204686)">
<path d="M28.5 24H35.5V32C35.5 33.6569 34.1569 35 32.5 35H28.5V24Z" fill="#AFC3DC"/>
</g>
<mask id="mask1_5030_204686" style="mask-type:alpha" maskUnits="userSpaceOnUse" x="22" y="19" width="13" height="13">
<path d="M24.9968 30.8424L22.9055 25.208C22.3609 23.7406 22.7404 22.0898 23.8712 21.0076L24.0533 20.8332C25.2889 19.6507 27.1787 19.4968 28.5868 20.4504C29.9948 19.4968 31.8846 19.6507 33.1202 20.8332L33.3024 21.0076C34.4332 22.0898 34.8127 23.7406 34.268 25.208L32.1768 30.8424C31.754 31.9814 30.1418 31.9778 29.7241 30.837L29.5258 30.2953C29.2055 29.4204 27.9681 29.4204 27.6477 30.2953L27.4494 30.837C27.0317 31.9778 25.4195 31.9814 24.9968 30.8424Z" fill="#DCEAFC"/>
</mask>
<g mask="url(#mask1_5030_204686)">
<path d="M22 14H29V25H25C23.3431 25 22 23.6569 22 22V14Z" fill="#DCEAFC"/>
<path d="M28.5 14H35.5V22C35.5 23.6569 34.1569 25 32.5 25H28.5V14Z" fill="white"/>
</g>
</svg>
