<svg width="37" height="36" viewBox="0 0 37 36" fill="none" xmlns="http://www.w3.org/2000/svg">
<g clip-path="url(#clip0_5046_205300)">
<path d="M0.800781 21.0948V14.4152C0.829456 14.4104 0.858132 14.4015 0.886675 14.4015C1.84657 14.4008 2.80659 14.3941 3.76648 14.4031C4.69637 14.4118 5.44668 14.8144 6.04159 15.524C6.40459 15.9568 6.64404 16.4564 6.74737 17.015C6.89432 17.8092 6.83062 18.5865 6.48388 19.3206C6.04886 20.2416 5.30622 20.7744 4.33443 20.9925C3.93747 21.0817 3.53113 21.0951 3.12638 21.0985C2.38228 21.105 1.63804 21.1005 0.89381 21.1003C0.867646 21.1003 0.841614 21.0973 0.800781 21.0949L0.800781 21.0948ZM2.46909 14.707V20.7828C2.48614 20.7896 2.49407 20.7957 2.502 20.7955C2.90252 20.7899 3.30411 20.8014 3.70318 20.7736C4.27682 20.7334 4.65369 20.4018 4.81121 19.8415C4.88164 19.591 4.9115 19.3341 4.91256 19.075C4.916 18.1874 4.91639 17.2996 4.91428 16.4119C4.91388 16.2427 4.90159 16.0731 4.88547 15.9046C4.86486 15.6907 4.81411 15.4842 4.7232 15.2878C4.60097 15.0237 4.40209 14.8522 4.12485 14.7857C3.95941 14.746 3.78828 14.7153 3.61887 14.7104C3.24055 14.6993 2.86182 14.7069 2.46936 14.7069L2.46909 14.707Z" fill="#B2CB01"/>
<path d="M31.4013 17.9735C31.5599 17.7291 31.7462 17.5102 31.9867 17.3449C32.422 17.0459 32.8905 16.987 33.3825 17.1714C33.7085 17.2936 33.9214 17.532 34.0201 17.8718C34.0296 17.9045 34.0406 17.9367 34.0576 17.9901C34.1057 17.9288 34.1421 17.8802 34.1805 17.8338C34.4867 17.4645 34.8582 17.2005 35.3326 17.1033C35.6326 17.0419 35.9285 17.0614 36.2176 17.1618C36.3002 17.1904 36.3814 17.229 36.4558 17.275C36.6833 17.4157 36.8045 17.6195 36.8026 17.895C36.8003 18.2474 36.802 18.5998 36.802 18.9522C36.802 19.6168 36.802 20.2815 36.802 20.9461V21.0963H35.4713V20.9466C35.4713 19.9742 35.4721 19.0018 35.47 18.0293C35.4697 17.932 35.4621 17.8326 35.4405 17.7381C35.4047 17.5804 35.2982 17.5 35.1374 17.4885C34.9269 17.4734 34.7458 17.5498 34.5935 17.688C34.2618 17.9892 34.086 18.3672 34.0845 18.8209C34.0819 19.5257 34.0838 20.2305 34.0838 20.9353V21.0969H32.7491C32.7491 21.0429 32.7491 20.9952 32.7491 20.9474C32.7485 20.0151 32.7487 19.0829 32.7457 18.1506C32.7453 18.0362 32.7337 17.9207 32.7153 17.8077C32.6737 17.5518 32.4806 17.435 32.2136 17.4999C32.0513 17.5394 31.9133 17.6261 31.7928 17.7408C31.4926 18.0267 31.362 18.3847 31.3618 18.7964C31.3614 19.4521 31.3616 20.1079 31.3616 20.7636C31.3616 20.8702 31.3616 20.9769 31.3616 21.0798C31.2538 21.109 30.3054 21.1186 30.0299 21.0949C30.0241 20.948 30.0279 20.7979 30.0273 20.6483C30.0266 20.4921 30.0271 20.3361 30.0271 20.1799V17.8781C30.0271 17.7277 30.0271 17.5771 30.0271 17.4147H29.4023V17.1413H31.3505C31.3692 17.2761 31.3601 17.4176 31.3614 17.5582C31.3627 17.6965 31.3615 17.8347 31.3614 17.9731C31.3626 17.9872 31.3636 18.0012 31.3647 18.0153C31.3768 18.0014 31.389 17.9876 31.4013 17.9737V17.9735Z" fill="#B2CB01"/>
<path d="M27.1923 20.4051C26.9612 20.9189 26.5383 21.1545 26.0113 21.2326C25.735 21.2736 25.4578 21.2624 25.184 21.2059C24.8643 21.14 24.6389 20.9655 24.5601 20.6306C24.5449 20.5657 24.53 20.4997 24.5255 20.4336C24.5136 20.2559 24.5011 20.0777 24.5004 19.8997C24.4978 19.1239 24.4992 18.348 24.4992 17.5721C24.4992 17.5239 24.4992 17.4756 24.4992 17.415H23.8242V17.1553C23.9192 17.125 25.711 17.1113 25.8715 17.1434V17.2838C25.8715 18.2647 25.871 19.2458 25.8722 20.2267C25.8723 20.3541 25.866 20.4815 25.9133 20.6063C25.9692 20.7534 26.07 20.8255 26.2216 20.8353C26.4027 20.847 26.5638 20.787 26.6982 20.6724C27.0284 20.3908 27.2397 20.0474 27.2359 19.59C27.2304 18.939 27.2344 18.288 27.2344 17.637V17.4146H26.5653V17.1362H28.5896C28.5931 17.1599 28.6003 17.1849 28.6003 17.21C28.6008 18.4808 28.6008 19.7516 28.6004 21.0224C28.6004 21.04 28.5966 21.0577 28.5945 21.0754C28.5854 21.0829 28.5762 21.0902 28.567 21.0977C28.1291 21.0977 27.6911 21.0977 27.2368 21.0977C27.2354 20.8636 27.2339 20.6388 27.2325 20.4139C27.2296 20.3963 27.2267 20.3786 27.2236 20.3608C27.2132 20.3757 27.2026 20.3905 27.1922 20.4054L27.1923 20.4051Z" fill="#B2CB01"/>
<path d="M14.3255 21.0963H13.0329V17.4127H12.4062V17.1391H14.3617C14.3617 17.3962 14.3617 17.6534 14.3617 17.9107C14.3617 17.9318 14.3617 17.953 14.3617 18.007C14.3876 17.9585 14.3982 17.9386 14.4088 17.9187C14.5073 17.7936 14.5981 17.6609 14.7061 17.5448C14.9713 17.259 15.3083 17.1221 15.6892 17.0829C15.9361 17.0574 16.1813 17.0576 16.4246 17.1111C16.8459 17.204 17.0782 17.4819 17.0993 17.917C17.1037 18.006 17.1028 18.0952 17.1028 18.1844C17.103 19.1028 17.1029 20.0212 17.1029 20.9396C17.1029 20.9878 17.1029 21.036 17.1029 21.0923H15.7771V20.9456C15.7771 20.0674 15.7795 19.189 15.775 18.3107C15.7742 18.1425 15.7612 17.9714 15.7282 17.8069C15.6781 17.5577 15.5559 17.4736 15.3052 17.4856C15.0958 17.4958 14.9273 17.5952 14.7854 17.7446C14.5841 17.9562 14.4677 18.2145 14.4069 18.4973C14.3781 18.6313 14.3622 18.7706 14.3613 18.9076C14.3568 19.5809 14.3593 20.2541 14.3589 20.9273C14.3589 20.9761 14.355 21.025 14.3529 21.0738C14.3437 21.0813 14.3345 21.0888 14.3254 21.0962L14.3255 21.0963Z" fill="#B2CB01"/>
<path d="M7.66797 19.121C7.68541 18.4664 7.95961 17.9452 8.4751 17.5568C8.79793 17.3136 9.16225 17.1733 9.56264 17.1068C9.95485 17.0416 10.3341 17.0593 10.705 17.1957C11.2073 17.3804 11.5897 17.703 11.7973 18.2146C11.8703 18.3944 11.902 18.5824 11.9037 18.7757C11.9049 18.9143 11.8574 18.973 11.7217 18.9891C11.6394 18.9989 11.5552 18.994 11.4719 18.9941C10.7585 18.9945 10.0452 18.9944 9.33192 18.9948C9.31937 18.9948 9.30668 18.9995 9.28461 19.0039C9.28131 19.0365 9.27497 19.0703 9.27497 19.104C9.27431 19.5054 9.27431 19.9068 9.27497 20.3081C9.27497 20.3571 9.27668 20.4065 9.28422 20.4548C9.32518 20.7209 9.47331 20.8842 9.73377 20.9522C10.5241 21.1584 11.3705 20.7146 11.6516 19.9416C11.665 19.9043 11.6777 19.8667 11.694 19.8198C11.735 19.8311 11.7718 19.8394 11.8075 19.8517C11.8441 19.8643 11.8794 19.8808 11.9239 19.8991C11.8511 20.1711 11.7338 20.4115 11.5563 20.6205C11.2966 20.9262 10.9648 21.1113 10.5786 21.1899C9.87041 21.3338 9.19039 21.2514 8.56787 20.8667C7.97732 20.5017 7.68673 19.952 7.66823 19.2532C7.69929 19.2092 7.69915 19.165 7.66823 19.121H7.66797ZM10.5589 18.7221C10.5619 18.6802 10.5667 18.6456 10.5667 18.6111C10.5673 18.3347 10.568 18.0583 10.5667 17.7818C10.5657 17.587 10.4902 17.473 10.3108 17.4036C10.1309 17.3338 9.94256 17.3154 9.75267 17.3409C9.66664 17.3524 9.57903 17.3749 9.49987 17.4101C9.35927 17.4726 9.27959 17.5915 9.27721 17.7464C9.27219 18.0628 9.27695 18.3794 9.2784 18.6958C9.2784 18.7033 9.28673 18.7108 9.29333 18.722H10.559L10.5589 18.7221Z" fill="#B3CB02"/>
<path d="M18.5474 21.0875V17.4598H17.9531V17.1717H18.5404V15.9022C19.0031 15.8955 19.4528 15.9003 19.9176 15.8984V17.1654H20.6604V17.4522H19.9239C19.9214 17.5156 19.9176 17.567 19.9176 17.6183C19.9172 18.6658 19.9173 19.7133 19.9173 20.7608V21.0874H18.5474V21.0875Z" fill="#B2CB00"/>
<path d="M21.0352 17.4092V17.1406H23.0655V21.0956H21.7183C21.7042 20.7867 21.7138 20.481 21.712 20.1757C21.7103 19.8681 21.7116 19.5606 21.7116 19.253V18.3437C21.7116 18.0369 21.7116 17.7301 21.7116 17.4094H21.0352V17.4092Z" fill="#B2CB00"/>
<path d="M22.3689 14.7853C22.7472 14.7872 23.0728 15.123 23.0691 15.5074C23.0654 15.8931 22.7347 16.2214 22.3557 16.2155C21.9786 16.2096 21.6455 15.8699 21.6485 15.4938C21.6514 15.1203 21.9937 14.7833 22.3688 14.7852L22.3689 14.7853Z" fill="#B3CB02"/>
<path d="M7.66797 19.1211C7.6984 19.1651 7.69853 19.2093 7.66797 19.2533C7.66797 19.2093 7.66797 19.1651 7.66797 19.1211Z" fill="#C5D73F"/>
<path d="M14.4103 17.9182C14.3998 17.938 14.3892 17.9579 14.3633 18.0065C14.3633 17.9524 14.3633 17.9313 14.3633 17.9102C14.379 17.9128 14.3946 17.9155 14.4103 17.9182Z" fill="#E1EB9C"/>
<path d="M31.3993 17.9732C31.3871 17.9871 31.375 18.0009 31.3627 18.0148C31.3616 18.0008 31.3604 17.9867 31.3594 17.9727C31.3727 17.9728 31.3859 17.9731 31.3993 17.9732Z" fill="#DCE78D"/>
<path d="M27.1953 20.4039C27.2058 20.3891 27.2163 20.3742 27.2268 20.3594C27.2297 20.377 27.2326 20.3947 27.2356 20.4125C27.2221 20.4097 27.2088 20.4069 27.1953 20.4039Z" fill="#D8E580"/>
<path d="M14.3242 21.0966C14.3332 21.0891 14.3423 21.0816 14.3513 21.0742C14.3423 21.0817 14.3332 21.0892 14.3242 21.0966Z" fill="#BCD120"/>
<path d="M28.5703 21.0966C28.5793 21.0891 28.5883 21.0817 28.5974 21.0742C28.5884 21.0817 28.5794 21.0891 28.5703 21.0966Z" fill="#BCD120"/>
</g>
<defs>
<clipPath id="clip0_5046_205300">
<rect width="36" height="6.85714" fill="white" transform="translate(0.800781 14.3984)"/>
</clipPath>
</defs>
</svg>
