<svg width="40" height="40" viewBox="0 0 40 40" fill="none" xmlns="http://www.w3.org/2000/svg">
<path fill-rule="evenodd" clip-rule="evenodd" d="M34.1666 19.1666C35.0871 19.1666 35.8333 19.9128 35.8333 20.8333V31.6666L35.8329 34.1666L32.4999 31.6666H19.9999C19.0794 31.6666 18.3333 30.9204 18.3333 30V20.8333C18.3333 19.9128 19.0794 19.1666 19.9999 19.1666H34.1666Z" fill="#074093"/>
<path fill-rule="evenodd" clip-rule="evenodd" d="M9.16659 5.83337C7.32564 5.83337 5.83325 7.32576 5.83325 9.16671V25.8334L5.83398 29.1667L9.16659 25.8334H29.1666C31.0075 25.8334 32.4999 24.341 32.4999 22.5V9.16671C32.4999 7.32576 31.0075 5.83337 29.1666 5.83337H9.16659Z" fill="#2AD6CE"/>
<path d="M14.1666 15.8333C14.1666 16.7538 13.4204 17.5 12.4999 17.5C11.5794 17.5 10.8333 16.7538 10.8333 15.8333C10.8333 14.9128 11.5794 14.1666 12.4999 14.1666C13.4204 14.1666 14.1666 14.9128 14.1666 15.8333Z" fill="white"/>
<path d="M20.8333 15.8333C20.8333 16.7538 20.0871 17.5 19.1667 17.5C18.2462 17.5 17.5 16.7538 17.5 15.8333C17.5 14.9128 18.2462 14.1666 19.1667 14.1666C20.0871 14.1666 20.8333 14.9128 20.8333 15.8333Z" fill="white"/>
<path d="M27.5001 15.8333C27.5001 16.7538 26.7539 17.5 25.8334 17.5C24.9129 17.5 24.1667 16.7538 24.1667 15.8333C24.1667 14.9128 24.9129 14.1666 25.8334 14.1666C26.7539 14.1666 27.5001 14.9128 27.5001 15.8333Z" fill="white"/>
</svg>
