<svg width="40" height="40" viewBox="0 0 40 40" fill="none" xmlns="http://www.w3.org/2000/svg">
<path fill-rule="evenodd" clip-rule="evenodd" d="M11.1112 4.44446C9.27022 4.44446 7.77783 5.93684 7.77783 7.77779V32.2222C7.77783 34.0632 9.27022 35.5556 11.1112 35.5556H28.8889C30.7299 35.5556 32.2223 34.0632 32.2223 32.2222V13.3333L23.3334 4.44446H11.1112Z" fill="#DCEAFC"/>
<path fill-rule="evenodd" clip-rule="evenodd" d="M25.5555 13.3333H32.2221L23.3333 4.44446V11.1111C23.3333 12.3384 24.3282 13.3333 25.5555 13.3333Z" fill="#B8CAE1"/>
<path d="M11.6666 20C11.6666 19.3864 12.1641 18.8889 12.7777 18.8889H22.7777C23.3914 18.8889 23.8888 19.3864 23.8888 20C23.8888 20.6137 23.3914 21.1111 22.7777 21.1111H12.7777C12.1641 21.1111 11.6666 20.6137 11.6666 20Z" fill="#A1B3C9"/>
<path d="M11.6666 14.4445C11.6666 13.8308 12.1641 13.3334 12.7777 13.3334H19.4444C20.0581 13.3334 20.5555 13.8308 20.5555 14.4445C20.5555 15.0581 20.0581 15.5556 19.4444 15.5556H12.7777C12.1641 15.5556 11.6666 15.0581 11.6666 14.4445Z" fill="#A1B3C9"/>
<path fill-rule="evenodd" clip-rule="evenodd" d="M34.4441 26.6683C34.4441 29.1229 32.4543 31.1127 29.9997 31.1127C27.5451 31.1127 25.5552 29.1229 25.5552 26.6683C25.5552 24.2137 27.5451 22.2238 29.9997 22.2238C32.4543 22.2238 34.4441 24.2137 34.4441 26.6683ZM33.4705 32.3613C32.4595 32.979 31.2712 33.3349 29.9997 33.3349C26.3178 33.3349 23.333 30.3502 23.333 26.6683C23.333 22.9864 26.3178 20.0016 29.9997 20.0016C33.6816 20.0016 36.6663 22.9864 36.6663 26.6683C36.6663 28.2748 36.0981 29.7486 35.1516 30.8997L37.7216 33.4697C38.1555 33.9036 38.1555 34.6072 37.7216 35.0411C37.2877 35.475 36.5842 35.475 36.1503 35.0411L33.4705 32.3613Z" fill="#3E4C60"/>
</svg>
