<svg width="40" height="40" viewBox="0 0 40 40" fill="none" xmlns="http://www.w3.org/2000/svg">
<path d="M4.44434 26.6666H10.5554V31.6666C10.5554 32.5871 9.87144 33.3333 9.02767 33.3333H5.97212C5.12835 33.3333 4.44434 32.5871 4.44434 31.6666V26.6666Z" fill="#003582"/>
<path d="M29.4443 26.6666H35.5554V31.6666C35.5554 32.5871 34.8714 33.3333 34.0277 33.3333H30.9721C30.1283 33.3333 29.4443 32.5871 29.4443 31.6666V26.6666Z" fill="#003582"/>
<path fill-rule="evenodd" clip-rule="evenodd" d="M5.19732 19.0367L7.56377 16.2239C8.39028 13.7789 10.7312 8.88892 13.4827 8.88892H13.5627H17.002H23.0777H26.5971H26.917C27.7168 8.88892 28.4187 9.29363 28.8149 9.90248C30.5551 11.4671 31.924 14.4727 32.516 16.2239L34.9736 19.1558C34.9736 19.1558 35.5554 19.8066 35.5554 21.406V29.3823C35.5554 29.7235 35.5554 30 35.5554 30H4.44434C4.44434 30 4.44434 29.7235 4.44434 29.3823V21.406C4.44434 19.8066 5.15141 19.1069 5.19732 19.0367Z" fill="#0168FE"/>
<path d="M15.6618 28.0883C15.7256 27.9037 15.9174 27.7778 16.1346 27.7778H23.8654C24.0826 27.7778 24.2744 27.9037 24.3382 28.0883L25 30.0001H15L15.6618 28.0883Z" fill="#A3C6F9"/>
<path d="M8.48008 10.6064C8.95763 8.30626 10.9077 6.66504 13.1631 6.66504H26.8368C29.0922 6.66504 31.0423 8.30626 31.5198 10.6064L32.7777 16.665H7.22217L8.48008 10.6064Z" fill="#0168FE"/>
<path d="M10.1166 11.1186C10.395 9.51134 11.8397 8.33337 13.5326 8.33337H26.4672C28.1601 8.33337 29.6048 9.51134 29.8832 11.1186L30.5554 15H9.44434L10.1166 11.1186Z" fill="#0048B1"/>
<path fill-rule="evenodd" clip-rule="evenodd" d="M4.59182 12.7778C3.09905 12.7778 1.88892 14.2939 1.88892 16.1641C1.88892 16.7485 2.26708 17.2223 2.73357 17.2223H5.94543H7.43914H8.55942V15.5848H7.43914V13.7135C7.43914 13.1967 7.10476 12.7778 6.69228 12.7778H4.59182Z" fill="#0168FE"/>
<path fill-rule="evenodd" clip-rule="evenodd" d="M35.4082 12.7778C36.901 12.7778 38.1111 14.2939 38.1111 16.1641C38.1111 16.7485 37.7329 17.2223 37.2664 17.2223H34.0546H32.5609H31.4406V15.5848H32.5609V13.7135C32.5609 13.1967 32.8953 12.7778 33.3078 12.7778H35.4082Z" fill="#0168FE"/>
<path d="M7.22217 23.0555C7.22217 22.5953 7.59526 22.2222 8.0555 22.2222H12.4999C12.9602 22.2222 13.3333 22.5953 13.3333 23.0555V25.2777C13.3333 25.738 12.9602 26.1111 12.4999 26.1111H8.0555C7.59526 26.1111 7.22217 25.738 7.22217 25.2777V23.0555Z" fill="white"/>
<path d="M26.6667 23.0555C26.6667 22.5953 27.0398 22.2222 27.5001 22.2222H31.9445C32.4048 22.2222 32.7779 22.5953 32.7779 23.0555V25.2777C32.7779 25.738 32.4048 26.1111 31.9445 26.1111H27.5001C27.0398 26.1111 26.6667 25.738 26.6667 25.2777V23.0555Z" fill="white"/>
<path d="M20 25.4167C20 24.4962 20.7462 23.75 21.6667 23.75H36.6667C37.5871 23.75 38.3333 24.4962 38.3333 25.4167V35.4167C38.3333 36.3371 37.5871 37.0833 36.6667 37.0833H21.6667C20.7462 37.0833 20 36.3371 20 35.4167V25.4167Z" fill="#FFC737"/>
<path fill-rule="evenodd" clip-rule="evenodd" d="M25.1616 27.1235C25.5997 26.9826 26.0691 27.2236 26.2099 27.6618L27.1353 30.5409L28.4006 27.5885C28.5319 27.2821 28.8332 27.0835 29.1666 27.0835C29.4999 27.0835 29.8012 27.2821 29.9325 27.5885L31.1978 30.5409L32.1232 27.6618C32.264 27.2236 32.7334 26.9826 33.1716 27.1235C33.6097 27.2643 33.8508 27.7337 33.7099 28.1718L32.1028 33.1718C31.9964 33.5028 31.6958 33.7329 31.3485 33.7492C31.0013 33.7655 30.6804 33.5646 30.5435 33.2451L29.1666 30.0323L27.7897 33.2451C27.6527 33.5646 27.3318 33.7655 26.9846 33.7492C26.6374 33.7329 26.3367 33.5028 26.2304 33.1718L24.6232 28.1718C24.4824 27.7337 24.7234 27.2643 25.1616 27.1235Z" fill="white"/>
<path d="M23.3335 30.2083C23.3335 29.7481 23.7066 29.375 24.1668 29.375H25.4168C25.8771 29.375 26.2502 29.7481 26.2502 30.2083C26.2502 30.6686 25.8771 31.0417 25.4168 31.0417H24.1668C23.7066 31.0417 23.3335 30.6686 23.3335 30.2083Z" fill="white"/>
<path d="M32.0835 30.2083C32.0835 29.7481 32.4566 29.375 32.9168 29.375H34.1668C34.6271 29.375 35.0002 29.7481 35.0002 30.2083C35.0002 30.6686 34.6271 31.0417 34.1668 31.0417H32.9168C32.4566 31.0417 32.0835 30.6686 32.0835 30.2083Z" fill="white"/>
</svg>
