<svg width="36" height="36" viewBox="0 0 36 36" fill="none" xmlns="http://www.w3.org/2000/svg">
<g clip-path="url(#clip0_6660_159071)">
<path d="M26.8361 17.0666C26.4962 16.8996 26.102 16.8163 25.6535 16.8165C25.2846 16.8132 24.9188 16.8773 24.5788 17.0049C24.2387 17.1324 23.9315 17.3207 23.6762 17.5581C23.4232 17.792 23.2219 18.0662 23.0826 18.3664C22.9371 18.6809 22.8639 19.0182 22.8673 19.3584C22.8673 19.7472 22.9623 20.0893 23.1524 20.3846C23.3409 20.6775 23.618 20.9173 23.9521 21.0766C24.2946 21.243 24.6872 21.3263 25.1297 21.3263C25.5026 21.3287 25.872 21.2621 26.2145 21.1306C26.5477 21.0016 26.8494 20.8157 27.1025 20.5833C27.6302 20.103 27.9228 19.4557 27.916 18.7834C27.916 18.3946 27.8209 18.0525 27.6309 17.7572C27.4432 17.4655 27.168 17.2263 26.8361 17.0666ZM26.4294 19.5831C26.3134 19.7911 26.1396 19.969 25.9244 20.1C25.7182 20.2263 25.4735 20.2931 25.2234 20.2915C24.899 20.2915 24.6419 20.2003 24.4521 20.0179C24.2623 19.8355 24.1672 19.5882 24.167 19.2763C24.1626 19.0261 24.2267 18.7787 24.3539 18.5556C24.4707 18.3492 24.6445 18.1726 24.8588 18.0425C25.0651 17.9163 25.3097 17.8495 25.5599 17.8509C25.8838 17.8509 26.1409 17.9421 26.3312 18.1246C26.5215 18.307 26.6165 18.5542 26.6163 18.8662C26.6197 19.1151 26.5556 19.3611 26.4294 19.5831Z" fill="#FF5000"/>
<path d="M30.8567 19.939C30.8307 19.9227 30.7998 19.9139 30.768 19.9139C30.7363 19.9139 30.7053 19.9227 30.6794 19.939C30.5549 20.0162 30.4241 20.0848 30.288 20.1443C30.0938 20.2359 30.0121 20.0936 30.0631 19.874L30.5002 17.873H31.7024C31.7334 17.8729 31.7635 17.8634 31.7875 17.8458C31.8114 17.8283 31.8279 17.8039 31.834 17.7768L31.9944 17.0749C31.9983 17.0575 31.9978 17.0395 31.993 17.0223C31.9882 17.0051 31.9792 16.989 31.9665 16.9753C31.9539 16.9615 31.938 16.9504 31.92 16.9428C31.902 16.9352 31.8823 16.9313 31.8624 16.9313H30.7059L30.9269 15.9242C30.9307 15.9069 30.9302 15.8889 30.9254 15.8718C30.9206 15.8546 30.9115 15.8386 30.8988 15.8249C30.8862 15.8112 30.8703 15.8002 30.8524 15.7927C30.8344 15.7851 30.8148 15.7812 30.7949 15.7813H29.7711C29.74 15.7813 29.7097 15.7909 29.6857 15.8086C29.6616 15.8262 29.6451 15.8508 29.6391 15.8781L29.4089 16.9313H28.6568C28.6258 16.9312 28.5957 16.9408 28.5716 16.9582C28.5476 16.9757 28.531 17 28.5248 17.027L28.3621 17.7296C28.3581 17.7471 28.3585 17.765 28.3633 17.7823C28.368 17.7995 28.377 17.8156 28.3896 17.8294C28.4022 17.8432 28.4181 17.8543 28.4361 17.862C28.4541 17.8696 28.4738 17.8736 28.4937 17.8736H29.2097C29.2097 17.8736 28.8536 19.494 28.8421 19.5573C28.7174 20.2575 28.514 21.0624 29.509 21.2905C29.7665 21.3497 30.0716 21.3309 30.3667 21.2672C30.8751 21.1578 31.296 20.7884 31.5408 20.5985C31.5588 20.5852 31.5732 20.5685 31.5829 20.5496C31.5926 20.5306 31.5972 20.5099 31.5965 20.4891C31.5959 20.4683 31.5899 20.4479 31.579 20.4294C31.5682 20.411 31.5528 20.395 31.5339 20.3827L30.8567 19.939Z" fill="#FF5000"/>
<path d="M22.8077 16.9367C22.6667 16.8938 22.5185 16.8727 22.3695 16.8741C22.0939 16.8764 21.8265 16.9583 21.6074 17.1074C21.3563 17.2751 21.1556 17.4955 21.023 17.7491L21.1332 17.1221C21.1368 17.1007 21.1353 17.0789 21.1287 17.0581C21.122 17.0373 21.1104 17.018 21.0946 17.0015C21.0789 16.9851 21.0593 16.9719 21.0373 16.9628C21.0152 16.9538 20.9912 16.949 20.967 16.949H20.1289C20.0752 16.9489 20.0232 16.9655 19.9818 16.996C19.9404 17.0265 19.9122 17.0689 19.9022 17.1159L19.0499 21.0131C19.0452 21.0347 19.046 21.0571 19.0521 21.0785C19.0582 21.0999 19.0695 21.1199 19.0853 21.1369C19.1011 21.154 19.1208 21.1677 19.1433 21.1771C19.1657 21.1866 19.1901 21.1915 19.2149 21.1916H20.1209C20.1745 21.1916 20.2265 21.175 20.2678 21.1445C20.3092 21.114 20.3373 21.0716 20.3473 21.0247L20.7034 19.3828C20.8029 18.9217 20.9692 18.5674 21.2022 18.32C21.4353 18.0726 21.7205 17.949 22.0579 17.9492C22.201 17.9477 22.3434 17.9662 22.48 18.0039C22.5046 18.0109 22.5305 18.0132 22.5561 18.0109C22.5818 18.0085 22.6066 18.0015 22.6291 17.9902C22.6516 17.979 22.6712 17.9637 22.6868 17.9454C22.7025 17.9271 22.7137 17.9062 22.7198 17.8839L22.9282 17.1358C22.9394 17.0952 22.9332 17.0523 22.911 17.0155C22.8887 16.9788 22.8519 16.9507 22.8077 16.9367Z" fill="#FF5000"/>
<path d="M15.09 16.9505H14.2458C14.1929 16.9503 14.1416 16.9663 14.1004 16.9959C14.0593 17.0255 14.0308 17.0668 14.0198 17.1129L13.882 17.6756C13.7715 17.4137 13.5698 17.1903 13.3064 17.038C13.0478 16.8909 12.7408 16.8174 12.3855 16.8174C12.0484 16.8162 11.7156 16.8846 11.4131 17.0172C11.1045 17.1523 10.8303 17.3424 10.6073 17.5757C10.3728 17.8204 10.1877 18.0996 10.0605 18.4008C9.92538 18.7176 9.8572 19.0539 9.85943 19.3928C9.85943 19.7816 9.9362 20.1205 10.0897 20.4094C10.2296 20.685 10.455 20.9191 10.7393 21.0843C11.0207 21.2455 11.3479 21.326 11.7209 21.3258C12.0239 21.3263 12.3225 21.2606 12.5904 21.1342C12.7938 21.0402 12.9752 20.9125 13.1249 20.7579L13.0635 21.009C13.0582 21.0309 13.0583 21.0536 13.0641 21.0755C13.0698 21.0973 13.081 21.1177 13.0967 21.1352C13.1125 21.1527 13.1324 21.1668 13.1551 21.1765C13.1778 21.1862 13.2026 21.1913 13.2278 21.1913H14.1848C14.2386 21.1915 14.2908 21.1749 14.3323 21.1443C14.3738 21.1138 14.402 21.0712 14.4119 21.0241L15.2534 17.1276C15.2578 17.1062 15.2569 17.0841 15.2508 17.0629C15.2446 17.0418 15.2334 17.0221 15.2178 17.0052C15.2023 16.9884 15.1828 16.9747 15.1607 16.9653C15.1386 16.9558 15.1145 16.9507 15.09 16.9505ZM13.4254 19.584C13.3106 19.791 13.139 19.9688 12.9265 20.1008C12.7191 20.2282 12.4724 20.2952 12.2205 20.2924C11.8964 20.2924 11.6393 20.2012 11.4492 20.0188C11.2591 19.8363 11.1632 19.5887 11.1614 19.2758C11.1571 19.0256 11.2212 18.7782 11.3483 18.5551C11.4653 18.3488 11.639 18.1722 11.8533 18.042C12.0596 17.9158 12.3042 17.849 12.5543 17.8504C12.8846 17.8504 13.1432 17.9416 13.3302 18.1241C13.5172 18.3065 13.6107 18.5537 13.6107 18.8657C13.6149 19.1149 13.5512 19.3614 13.4254 19.584Z" fill="#FF5000"/>
<path d="M8.54271 20.0837C8.50256 20.0577 8.45586 20.041 8.40672 20.035C8.35757 20.029 8.30752 20.034 8.26104 20.0495C7.99697 20.1381 7.71873 20.1886 7.4368 20.1993C7.0298 20.217 6.62541 20.1323 6.26991 19.9547C5.9584 19.7993 5.69853 19.5732 5.51666 19.2993C5.31771 18.9992 5.2156 18.6559 5.22158 18.3073C5.22675 17.8869 5.36019 17.4756 5.6076 17.1177C5.88887 16.7274 6.12486 16.5276 6.51511 16.2947C6.88834 16.0744 7.32064 15.9466 7.76759 15.9245C8.04539 15.9104 8.32381 15.9397 8.59029 16.0111C8.8466 16.0846 8.34815 16.4294 8.34815 16.4294L8.21807 16.5255C8.1979 16.5402 8.18179 16.5588 8.17101 16.5799C8.16023 16.601 8.15504 16.624 8.15592 16.6472C8.15676 16.6704 8.16363 16.6931 8.17594 16.7135C8.18825 16.7339 8.20568 16.7516 8.22691 16.765L8.90532 17.2028C8.9628 17.2398 9.03258 17.2585 9.10343 17.2559C9.17428 17.2533 9.24206 17.2296 9.29595 17.1885L9.99892 16.6518C9.99892 16.6518 10.5308 16.244 9.90874 15.5154C9.74797 15.327 9.49549 15.1734 9.21805 15.0602C8.74338 14.8652 8.19198 14.8125 7.85429 14.8125C7.30049 14.813 6.75325 14.9195 6.24957 15.1248C5.801 15.3078 5.50362 15.4877 5.11836 15.7891C4.70632 16.1191 4.37167 16.5185 4.13372 16.9644C3.91423 17.3838 3.75 17.9164 3.75 18.4271C3.75 19.0182 3.90349 19.4874 4.18668 19.9301C4.47075 20.3733 4.89019 20.7355 5.39617 20.9744C5.88896 21.2094 6.44015 21.3301 6.99899 21.3254C7.6237 21.3254 8.0972 21.2128 8.61331 21.0096C8.75182 20.9549 9.14553 20.7432 9.22306 20.7038C9.32051 20.6546 9.28291 20.5602 9.22306 20.5218L8.54271 20.0837Z" fill="#FF5000"/>
<path d="M19.1281 16.9367C18.9863 16.8937 18.8374 16.8725 18.6876 16.8741C18.412 16.8765 18.1447 16.9584 17.9255 17.1074C17.6746 17.2752 17.474 17.4957 17.3415 17.7491L17.4512 17.1221C17.455 17.1007 17.4535 17.0789 17.447 17.0581C17.4403 17.0373 17.4288 17.018 17.413 17.0016C17.3973 16.9851 17.3777 16.9719 17.3557 16.9628C17.3337 16.9538 17.3097 16.9491 17.2855 16.949H16.4474C16.3937 16.9489 16.3417 16.9655 16.3002 16.996C16.2588 17.0265 16.2307 17.0689 16.2207 17.1159L15.3703 21.013C15.3655 21.0348 15.3662 21.0572 15.3723 21.0786C15.3784 21.1 15.3898 21.12 15.4056 21.137C15.4213 21.1541 15.4411 21.1679 15.4636 21.1773C15.486 21.1867 15.5105 21.1916 15.5353 21.1916H16.4413C16.4949 21.1916 16.5468 21.1749 16.588 21.1444C16.6293 21.114 16.6573 21.0716 16.6673 21.0247L17.0234 19.3828C17.1232 18.9217 17.2894 18.5674 17.5222 18.32C17.755 18.0726 18.0401 17.949 18.3776 17.9492C18.5206 17.9477 18.663 17.9662 18.7996 18.0039C18.8242 18.0109 18.8502 18.0132 18.8759 18.0109C18.9016 18.0085 18.9264 18.0015 18.9489 17.9903C18.9714 17.979 18.9911 17.9638 19.0067 17.9455C19.0224 17.9272 19.0337 17.9062 19.0398 17.8839L19.2478 17.1358C19.259 17.0953 19.253 17.0525 19.2309 17.0157C19.2088 16.979 19.1722 16.9508 19.1281 16.9367Z" fill="#FF5000"/>
</g>
<defs>
<clipPath id="clip0_6660_159071">
<rect width="28.5" height="6.51429" fill="white" transform="translate(3.75 14.8125)"/>
</clipPath>
</defs>
</svg>
