<svg width="36" height="36" viewBox="0 0 36 36" fill="none" xmlns="http://www.w3.org/2000/svg">
<g clip-path="url(#clip0_2792_169710)">
<mask id="mask0_2792_169710" style="mask-type:luminance" maskUnits="userSpaceOnUse" x="0" y="15" width="36" height="6">
<path d="M36 15.75H0V20.8929H36V15.75Z" fill="white"/>
</mask>
<g mask="url(#mask0_2792_169710)">
<path d="M2.58227 19.6067C2.35887 19.607 2.13922 19.5494 1.94485 19.4397C1.75047 19.33 1.58803 19.1718 1.47343 18.9807C1.35883 18.7896 1.29601 18.5722 1.2911 18.3496C1.2862 18.127 1.33939 17.907 1.44546 17.7111C1.55153 17.5152 1.70685 17.3501 1.89621 17.2319C2.08556 17.1138 2.30246 17.0467 2.52566 17.0372C2.74886 17.0277 2.9707 17.0762 3.16947 17.1778C3.36824 17.2794 3.53711 17.4307 3.65956 17.6169L4.55155 16.6613C4.2102 16.259 3.75308 15.9709 3.24202 15.8359C2.73097 15.7009 2.19063 15.7255 1.6941 15.9065C1.19757 16.0875 0.768811 16.4161 0.465819 16.8479C0.162827 17.2796 0.000222173 17.7937 0 18.3206L0 18.3224C0.000279172 18.8492 0.162925 19.3632 0.465938 19.7949C0.768952 20.2266 1.19771 20.5552 1.69423 20.7362C2.19075 20.9171 2.73106 20.9418 3.24209 20.8068C3.75312 20.6718 4.21022 20.3836 4.55155 19.9813L3.65956 19.0268C3.54229 19.2049 3.38245 19.3511 3.1944 19.4523C3.00635 19.5536 2.796 19.6066 2.58227 19.6067Z" fill="#C20021"/>
<path d="M6.6662 19.6634V18.8484H9.04939L9.05022 17.7802H6.6662V16.9678H9.25348V15.8984H5.35864V20.7649H9.25529V19.6634H6.6662Z" fill="#C20021"/>
<path d="M14.9457 20.7651L13.5163 18.9477C13.8658 18.8233 14.1601 18.5798 14.3472 18.2604C14.5343 17.9409 14.6022 17.5658 14.539 17.2013C14.4757 16.8368 14.2854 16.5063 14.0015 16.2679C13.7176 16.0296 13.3585 15.8987 12.9872 15.8984H10.2251V20.7651H11.524V16.8415H12.6364C12.8028 16.842 12.9623 16.9083 13.0798 17.0258C13.1972 17.1433 13.2631 17.3024 13.2629 17.4683C13.2647 17.5511 13.2497 17.6333 13.2188 17.7102C13.1879 17.787 13.1418 17.8569 13.0831 17.9155C13.0245 17.9741 12.9545 18.0203 12.8775 18.0513C12.8005 18.0823 12.7179 18.0975 12.6349 18.0959H12.1539V19.0244L13.4891 20.7651H14.9457Z" fill="#C20021"/>
<path d="M18.4759 15.8984H17.1462L15.0996 20.774H16.5172L17.8119 17.6119L19.1058 20.774H20.5239L18.4759 15.8984Z" fill="#C20021"/>
<path d="M34.6078 15.9023L33.4395 17.7864L32.2756 15.9023H30.8679V20.7752H32.1731V17.9879L33.1525 19.4834H33.7054L34.6911 17.975V20.7759H35.9997V15.9023H34.6078Z" fill="#C20021"/>
<path d="M27.3597 19.6634V18.8484H29.7432L29.7445 17.7802H27.3597V16.9678H29.948V15.8984H26.0527V20.7649H29.9488V19.6634H27.3597Z" fill="#C20021"/>
<path d="M23.8664 19.2962C23.6676 19.4663 23.4214 19.572 23.1608 19.5991C22.9001 19.6263 22.6374 19.5735 22.4076 19.448C22.1778 19.3225 21.9918 19.1301 21.8746 18.8966C21.7573 18.663 21.7143 18.3994 21.7513 18.1409C21.7883 17.8824 21.9035 17.6412 22.0816 17.4496C22.2597 17.258 22.4922 17.1251 22.748 17.0686C23.0039 17.0121 23.271 17.0347 23.5136 17.1333C23.7563 17.232 23.963 17.402 24.1061 17.6207L24.1107 17.6161L24.9976 16.6678C24.6691 16.2792 24.2324 15.9963 23.7426 15.8551C23.2528 15.7139 22.732 15.7206 22.2461 15.8744C21.7601 16.0282 21.3309 16.3222 21.0126 16.7191C20.6944 17.1161 20.5015 17.5982 20.4582 18.1045C20.415 18.6107 20.5235 19.1183 20.7699 19.5632C21.0163 20.008 21.3896 20.37 21.8425 20.6033C22.2954 20.8367 22.8076 20.9309 23.3143 20.8742C23.8209 20.8174 24.2993 20.6121 24.6889 20.2843C24.8642 20.1363 25.0195 19.9663 25.1508 19.7785V18.1582H23.8664V19.2962Z" fill="#C20021"/>
</g>
</g>
<defs>
<clipPath id="clip0_2792_169710">
<rect width="36" height="5.14286" fill="white" transform="translate(0 15.75)"/>
</clipPath>
</defs>
</svg>
