<svg width="61" height="60" viewBox="0 0 61 60" fill="none" xmlns="http://www.w3.org/2000/svg">
<g clip-path="url(#clip0_5058_40354)">
<path d="M0.666504 35.1608V24.0283C0.714296 24.0202 0.762088 24.0053 0.809659 24.0053C2.40948 24.0042 4.00952 23.993 5.60933 24.008C7.15916 24.0225 8.40968 24.6934 9.40119 25.8761C10.0062 26.5975 10.4053 27.4302 10.5775 28.3611C10.8224 29.6848 10.7162 30.9803 10.1383 32.2039C9.41331 33.7388 8.17556 34.6268 6.55592 34.9904C5.89432 35.139 5.21709 35.1613 4.54249 35.1671C3.30233 35.1778 2.06194 35.1704 0.821552 35.17C0.777945 35.17 0.734558 35.1651 0.666504 35.161L0.666504 35.1608ZM3.44702 24.5145V34.6409C3.47544 34.6522 3.48865 34.6623 3.50186 34.6621C4.16941 34.6527 4.83872 34.6719 5.50384 34.6255C6.4599 34.5585 7.08802 34.0058 7.35054 33.072C7.46793 32.6545 7.51771 32.2264 7.51947 31.7945C7.5252 30.3152 7.52586 28.8356 7.52233 27.356C7.52167 27.074 7.50119 26.7914 7.47432 26.5105C7.43996 26.1541 7.35539 25.8099 7.20387 25.4824C7.00014 25.0423 6.66868 24.7566 6.20662 24.6457C5.93088 24.5795 5.64567 24.5284 5.36333 24.5201C4.73278 24.5016 4.10158 24.5143 3.44746 24.5143L3.44702 24.5145Z" fill="#B2CB01"/>
<path d="M51.6643 29.9533C51.9286 29.546 52.2391 29.181 52.64 28.9055C53.3655 28.4072 54.1464 28.3091 54.9664 28.6164C55.5097 28.8201 55.8645 29.2174 56.029 29.7837C56.0449 29.8382 56.0632 29.8919 56.0916 29.9809C56.1717 29.8788 56.2323 29.7978 56.2964 29.7204C56.8067 29.105 57.4258 28.6648 58.2164 28.5029C58.7166 28.4005 59.2097 28.4331 59.6916 28.6004C59.8293 28.6481 59.9645 28.7124 60.0885 28.7891C60.4677 29.0235 60.6697 29.3633 60.6666 29.8223C60.6626 30.4097 60.6655 30.997 60.6655 31.5843C60.6655 32.6921 60.6655 33.7998 60.6655 34.9076V35.1579H58.4477V34.9085C58.4477 33.2877 58.449 31.6671 58.4455 30.0463C58.445 29.8841 58.4323 29.7184 58.3964 29.5609C58.3367 29.2981 58.1592 29.1641 57.8911 29.1449C57.5403 29.1197 57.2386 29.247 56.9846 29.4775C56.4318 29.9794 56.1389 30.6093 56.1363 31.3655C56.1321 32.5402 56.1352 33.7148 56.1352 34.8895V35.159H53.9108C53.9108 35.0689 53.9108 34.9894 53.9108 34.9098C53.9097 33.3559 53.9101 31.8023 53.905 30.2484C53.9044 30.0577 53.885 29.8652 53.8544 29.6769C53.785 29.2504 53.4632 29.0557 53.0181 29.1638C52.7477 29.2297 52.5177 29.3742 52.3169 29.5654C51.8165 30.0418 51.5989 30.6385 51.5985 31.3247C51.5978 32.4175 51.5983 33.5105 51.5983 34.6033C51.5983 34.7811 51.5983 34.9589 51.5983 35.1304C51.4185 35.179 49.8379 35.1951 49.3787 35.1556C49.369 34.9107 49.3754 34.6606 49.3743 34.4113C49.3732 34.1509 49.3741 33.8908 49.3741 33.6305V29.7942C49.3741 29.5435 49.3741 29.2926 49.3741 29.022H48.3328V28.5663H51.5797C51.6108 28.7909 51.5956 29.0267 51.5978 29.2611C51.6 29.4915 51.598 29.722 51.5978 29.9526C51.5998 29.976 51.6016 29.9995 51.6033 30.0229C51.6236 29.9997 51.6438 29.9767 51.6643 29.9535V29.9533Z" fill="#B2CB01"/>
<path d="M44.6562 34.0088C44.271 34.8652 43.5662 35.2578 42.6879 35.3881C42.2274 35.4563 41.7653 35.4376 41.309 35.3434C40.7762 35.2337 40.4005 34.9428 40.2692 34.3847C40.2439 34.2765 40.219 34.1665 40.2115 34.0564C40.1917 33.7601 40.1708 33.4632 40.1697 33.1665C40.1653 31.8734 40.1677 30.5803 40.1677 29.2872C40.1677 29.2069 40.1677 29.1264 40.1677 29.0253H39.0427V28.5926C39.2011 28.5419 42.1873 28.5192 42.4549 28.5727V28.8067C42.4549 30.4416 42.454 32.0766 42.456 33.7115C42.4562 33.9238 42.4456 34.1362 42.5245 34.3441C42.6176 34.5893 42.7857 34.7095 43.0383 34.7258C43.3403 34.7454 43.6087 34.6452 43.8327 34.4543C44.3831 33.985 44.7352 33.4126 44.7289 32.6504C44.7196 31.5654 44.7264 30.4804 44.7264 29.3954V29.0246H43.6111V28.5607H46.985C46.9909 28.6002 47.0028 28.6419 47.0028 28.6836C47.0037 30.8016 47.0037 32.9196 47.0031 35.0376C47.0031 35.0671 46.9967 35.0965 46.9931 35.126C46.9779 35.1384 46.9627 35.1507 46.9473 35.1632C46.2175 35.1632 45.4876 35.1632 44.7304 35.1632C44.728 34.7731 44.7256 34.3983 44.7231 34.0236C44.7183 33.9941 44.7134 33.9647 44.7084 33.935C44.691 33.9598 44.6734 33.9845 44.656 34.0093L44.6562 34.0088Z" fill="#B2CB01"/>
<path d="M23.2058 35.1626H21.0515V29.0231H20.0071V28.5672H23.2662C23.2662 28.9957 23.2662 29.4244 23.2662 29.8532C23.2662 29.8884 23.2662 29.9236 23.2662 30.0138C23.3093 29.9328 23.327 29.8998 23.3446 29.8665C23.5089 29.658 23.6602 29.4369 23.8401 29.2433C24.2821 28.767 24.8438 28.5389 25.4787 28.4735C25.8901 28.4311 26.2989 28.4313 26.7043 28.5206C27.4065 28.6754 27.7936 29.1385 27.8289 29.8636C27.8361 30.012 27.8346 30.1608 27.8346 30.3093C27.835 31.84 27.8348 33.3707 27.8348 34.9014C27.8348 34.9817 27.8348 35.062 27.8348 35.1559H25.6252V34.9114C25.6252 33.4476 25.6291 31.9837 25.6216 30.5199C25.6203 30.2395 25.5987 29.9544 25.5437 29.6803C25.4602 29.2649 25.2565 29.1246 24.8387 29.1447C24.4896 29.1617 24.2088 29.3274 23.9723 29.5763C23.6368 29.929 23.4428 30.3595 23.3415 30.8309C23.2935 31.0541 23.2671 31.2864 23.2655 31.5148C23.258 32.6368 23.2622 33.7588 23.2616 34.8808C23.2616 34.9623 23.2549 35.0437 23.2514 35.1251C23.2362 35.1376 23.2208 35.1501 23.2056 35.1624L23.2058 35.1626Z" fill="#B2CB01"/>
<path d="M12.1123 31.8697C12.1414 30.7787 12.5984 29.9101 13.4575 29.2627C13.9956 28.8574 14.6028 28.6236 15.2701 28.5128C15.9238 28.4041 16.5559 28.4336 17.1741 28.6609C18.0112 28.9687 18.6486 29.5063 18.9946 30.3591C19.1161 30.6587 19.169 30.9721 19.1719 31.2942C19.1738 31.5253 19.0948 31.623 18.8686 31.65C18.7314 31.6663 18.5911 31.658 18.4521 31.6582C17.2633 31.6589 16.0744 31.6587 14.8856 31.6593C14.8646 31.6593 14.8435 31.6671 14.8067 31.6745C14.8012 31.7289 14.7906 31.7851 14.7906 31.8414C14.7895 32.5103 14.7895 33.1793 14.7906 33.8483C14.7906 33.9299 14.7935 34.0122 14.8061 34.0928C14.8743 34.5362 15.1212 34.8084 15.5553 34.9217C16.8726 35.2654 18.2832 34.5257 18.7516 33.2373C18.7741 33.1753 18.7952 33.1126 18.8223 33.0343C18.8906 33.0533 18.9521 33.0671 19.0115 33.0876C19.0725 33.1086 19.1313 33.136 19.2055 33.1666C19.0842 33.6199 18.8886 34.0205 18.5928 34.3689C18.1601 34.8784 17.6071 35.1869 16.9633 35.3178C15.783 35.5576 14.6497 35.4205 13.6121 34.7791C12.6279 34.1708 12.1436 33.2547 12.1127 32.0901C12.1645 32.0167 12.1643 31.9431 12.1127 31.8697H12.1123ZM16.9305 31.2049C16.9355 31.1351 16.9435 31.0774 16.9435 31.0198C16.9446 30.5592 16.9457 30.0985 16.9435 29.6377C16.9419 29.3131 16.816 29.1231 16.5171 29.0073C16.2171 28.8911 15.9033 28.8603 15.5868 28.9029C15.4434 28.9221 15.2974 28.9596 15.1655 29.0182C14.9311 29.1224 14.7983 29.3205 14.7944 29.5788C14.786 30.1061 14.7939 30.6337 14.7964 31.161C14.7964 31.1735 14.8102 31.186 14.8212 31.2047H16.9307L16.9305 31.2049Z" fill="#B3CB02"/>
<path d="M30.2421 35.1502V29.104H29.2517V28.6237H30.2305V26.508C31.0017 26.4968 31.7512 26.5048 32.5258 26.5017V28.6133H33.7638V29.0913H32.5364C32.5322 29.197 32.5258 29.2827 32.5258 29.3681C32.5251 31.114 32.5253 32.8598 32.5253 34.6057V35.15H30.2421V35.1502Z" fill="#B2CB00"/>
<path d="M34.3933 29.0153V28.5676H37.7773V35.1592H35.5319C35.5084 34.6444 35.5245 34.1349 35.5214 33.6261C35.5185 33.1135 35.5207 32.6009 35.5207 32.0883V30.5728C35.5207 30.0615 35.5207 29.55 35.5207 29.0155H34.3933V29.0153Z" fill="#B2CB00"/>
<path d="M36.6153 24.6409C37.2459 24.644 37.7885 25.2037 37.7824 25.8443C37.7762 26.4872 37.2249 27.0344 36.5933 27.0245C35.9647 27.0147 35.4097 26.4486 35.4146 25.8218C35.4194 25.1992 35.9901 24.6375 36.6151 24.6406L36.6153 24.6409Z" fill="#B3CB02"/>
<path d="M12.1123 31.8696C12.163 31.943 12.1632 32.0166 12.1123 32.09C12.1123 32.0166 12.1123 31.943 12.1123 31.8696Z" fill="#C5D73F"/>
<path d="M23.3445 29.8664C23.3269 29.8994 23.3093 29.9327 23.2661 30.0136C23.2661 29.9235 23.2661 29.8883 23.2661 29.853C23.2923 29.8575 23.3183 29.8619 23.3445 29.8664Z" fill="#E1EB9C"/>
<path d="M51.6642 29.9533C51.6439 29.9765 51.6236 29.9995 51.6032 30.0227C51.6014 29.9992 51.5994 29.9758 51.5977 29.9524C51.6199 29.9526 51.6419 29.9531 51.6642 29.9533Z" fill="#DCE78D"/>
<path d="M44.6562 34.0089C44.6736 33.9841 44.6913 33.9593 44.7087 33.9346C44.7135 33.964 44.7184 33.9935 44.7234 34.0231C44.701 34.0184 44.6787 34.0138 44.6562 34.0089Z" fill="#D8E580"/>
<path d="M23.2058 35.1625C23.2208 35.15 23.2359 35.1375 23.2509 35.1252C23.2359 35.1377 23.2208 35.1502 23.2058 35.1625Z" fill="#BCD120"/>
<path d="M46.9475 35.1625C46.9625 35.15 46.9774 35.1377 46.9926 35.1252C46.9776 35.1377 46.9627 35.15 46.9475 35.1625Z" fill="#BCD120"/>
</g>
<defs>
<clipPath id="clip0_5058_40354">
<rect width="60" height="11.4286" fill="white" transform="translate(0.666504 24)"/>
</clipPath>
</defs>
</svg>
