<svg width="36" height="36" viewBox="0 0 36 36" fill="none" xmlns="http://www.w3.org/2000/svg">
<path d="M9.66388 16.4485V15.9497H10.3989V16.4485H11.3911V16.921H10.8661C10.9816 17.061 11.0744 17.2272 11.1444 17.4197C11.2179 17.6122 11.2564 17.8222 11.2599 18.0497C11.2564 18.2772 11.2231 18.4855 11.1601 18.6745C11.1006 18.8635 11.0166 19.028 10.9081 19.168C10.7996 19.308 10.6701 19.4165 10.5196 19.4935C10.3726 19.5705 10.2099 19.609 10.0314 19.609C9.84588 19.6125 9.67787 19.5757 9.52737 19.4987C9.37687 19.4182 9.24913 19.308 9.14413 19.168C9.03563 19.0315 8.95163 18.8687 8.89213 18.6797C8.83613 18.4872 8.80813 18.2772 8.80813 18.0497C8.80813 17.8222 8.84138 17.6122 8.90788 17.4197C8.97788 17.2272 9.07063 17.061 9.18613 16.921H8.70312V16.4485H9.66388ZM10.0314 16.9315C9.88438 16.9315 9.76013 17.0347 9.65863 17.2412C9.56063 17.4442 9.51338 17.7137 9.51688 18.0497C9.51338 18.3787 9.56063 18.643 9.65863 18.8425C9.75663 19.0385 9.87913 19.1365 10.0261 19.1365C10.1731 19.1365 10.2956 19.0402 10.3936 18.8477C10.4916 18.6517 10.5406 18.3857 10.5406 18.0497C10.5406 17.6962 10.4916 17.4215 10.3936 17.2255C10.2991 17.0295 10.1784 16.9315 10.0314 16.9315ZM12.5724 17.866V20.7115H11.8636V15.9497H12.5724V17.3935H13.2549V17.866H12.5724Z" fill="black"/>
<path d="M14.43 18.874H15.6218C15.6988 18.874 15.7723 18.874 15.8423 18.874C15.9158 18.874 15.9875 18.8705 16.0575 18.8635C16.1275 18.8565 16.1958 18.8442 16.2623 18.8267C16.3323 18.8057 16.4058 18.7742 16.4828 18.7322V15.9602H17.1915V17.404H17.874V17.8765H17.1915V20.7115H16.4828V19.2047C16.3568 19.2607 16.215 19.2992 16.0575 19.3202C15.9035 19.3377 15.753 19.3465 15.606 19.3465H14.0363C13.8788 19.3465 13.7475 19.2835 13.6425 19.1575C13.541 19.028 13.4903 18.874 13.4903 18.6955V16.1702H14.199V18.6797C14.199 18.7427 14.2183 18.7917 14.2568 18.8267C14.2953 18.8582 14.353 18.874 14.43 18.874Z" fill="black"/>
<path d="M20.5798 16.0652V16.312C20.5798 16.4975 20.6131 16.669 20.6796 16.8265C20.7461 16.9805 20.8371 17.117 20.9526 17.236C21.0716 17.3515 21.2081 17.446 21.3621 17.5195C21.5196 17.593 21.6876 17.6385 21.8661 17.656V18.1337C21.6666 18.1302 21.4741 18.1022 21.2886 18.0497C21.1066 17.9937 20.9403 17.9255 20.7898 17.845C20.6393 17.7645 20.5116 17.677 20.4066 17.5825C20.3051 17.4845 20.2368 17.3882 20.2018 17.2937C20.1598 17.3882 20.0881 17.4845 19.9866 17.5825C19.8851 17.677 19.7626 17.7627 19.6191 17.8397C19.4721 17.9202 19.3076 17.9885 19.1256 18.0445C18.9471 18.097 18.7581 18.1267 18.5586 18.1337V17.6612C18.7336 17.6402 18.8981 17.593 19.0521 17.5195C19.2096 17.446 19.3478 17.3497 19.4668 17.2307C19.5823 17.1152 19.6733 16.9787 19.7398 16.8212C19.8098 16.6637 19.8448 16.4905 19.8448 16.3015V16.0652H20.5798ZM18.0861 18.5905H19.8553V17.8607H20.5693V18.5905H22.3386V19.063H19.3198V20.029C19.3198 20.092 19.3391 20.1427 19.3776 20.1812C19.4161 20.2197 19.4668 20.239 19.5298 20.239H21.8136V20.7115H19.1151C18.9681 20.7115 18.8473 20.6485 18.7528 20.5225C18.6583 20.4 18.6111 20.2547 18.6111 20.0867V19.063H18.0861V18.5905Z" fill="black"/>
<path d="M23.2226 16.4485V15.9497H23.9576V16.4485H24.7294V16.921H24.3409C24.4354 17.054 24.5106 17.215 24.5666 17.404C24.6226 17.593 24.6506 17.8082 24.6506 18.0497C24.6506 18.2912 24.6244 18.51 24.5719 18.706C24.5194 18.8985 24.4459 19.0612 24.3514 19.1942C24.2569 19.3307 24.1449 19.4357 24.0154 19.5092C23.8859 19.5792 23.7441 19.6125 23.5901 19.609C23.4431 19.6125 23.3049 19.5792 23.1754 19.5092C23.0459 19.4357 22.9321 19.3307 22.8341 19.1942C22.7361 19.0612 22.6591 18.8985 22.6031 18.706C22.5506 18.51 22.5244 18.2912 22.5244 18.0497C22.5209 17.8187 22.5489 17.607 22.6084 17.4145C22.6714 17.222 22.7554 17.0575 22.8604 16.921H22.4719V16.4485H23.2226ZM23.5901 16.9315C23.4956 16.935 23.4081 17.0295 23.3276 17.215C23.2471 17.4005 23.2069 17.6787 23.2069 18.0497C23.2034 18.4277 23.2419 18.7042 23.3224 18.8792C23.4029 19.0542 23.4904 19.14 23.5849 19.1365C23.6689 19.14 23.7529 19.0542 23.8369 18.8792C23.9244 18.7007 23.9681 18.4242 23.9681 18.0497C23.9681 17.6717 23.9296 17.3917 23.8526 17.2097C23.7756 17.0277 23.6881 16.935 23.5901 16.9315ZM25.6586 17.8922V20.7115H24.9656V15.9497H25.6586V17.4197H25.9999V15.9497H26.6824V20.7115H25.9999V17.8922H25.6586Z" fill="black"/>
<path d="M28.4974 17.089H30.2824V16.1702H30.9911V18.874H29.7416V19.609H31.5109V20.0815H27.2584V19.609H29.0276V18.874H28.3294C28.1859 18.874 28.0599 18.8127 27.9514 18.6902C27.8429 18.5642 27.7886 18.412 27.7886 18.2335V16.1702H28.4974V17.089ZM28.4974 17.5615V18.181C28.4974 18.2545 28.5166 18.3105 28.5551 18.349C28.5936 18.384 28.6426 18.4015 28.7021 18.4015H30.2824V17.5615H28.4974Z" fill="black"/>
<path d="M32.6049 16.3435V15.8447H33.3399V16.3435H34.3322V16.816H33.8492C33.9017 16.879 33.9489 16.949 33.9909 17.026C34.0364 17.0995 34.0714 17.1782 34.0959 17.2622H34.9097V15.9497H35.6184V18.8215H34.9097V17.7347H34.1274C34.1064 17.8992 34.0592 18.0445 33.9857 18.1705C33.9157 18.2965 33.8282 18.4015 33.7232 18.4855C33.6182 18.573 33.5009 18.6395 33.3714 18.685C33.2419 18.727 33.1089 18.7462 32.9724 18.7427C32.8184 18.7462 32.6697 18.7217 32.5262 18.6692C32.3862 18.6167 32.2637 18.5397 32.1587 18.4382C32.0502 18.3402 31.9627 18.2195 31.8962 18.076C31.8332 17.929 31.8017 17.7627 31.8017 17.5772C31.8017 17.4232 31.8279 17.2832 31.8804 17.1572C31.9329 17.0277 32.0047 16.914 32.0957 16.816H31.6442V16.3435H32.6049ZM32.9724 16.8527C32.8464 16.8562 32.7379 16.9262 32.6469 17.0627C32.5559 17.1957 32.5104 17.3672 32.5104 17.5772C32.5104 17.7767 32.5507 17.9412 32.6312 18.0707C32.7152 18.2002 32.8272 18.2632 32.9672 18.2597C33.0407 18.2597 33.1054 18.2405 33.1614 18.202C33.2174 18.1635 33.2647 18.1127 33.3032 18.0497C33.3417 17.9867 33.3714 17.915 33.3924 17.8345C33.4134 17.7505 33.4257 17.6647 33.4292 17.5772C33.4257 17.3672 33.3802 17.1957 33.2927 17.0627C33.2087 16.9262 33.1019 16.8562 32.9724 16.8527ZM33.2192 19.504V20.1025C33.2192 20.1725 33.2367 20.2215 33.2717 20.2495C33.3102 20.2775 33.3609 20.2915 33.4239 20.2915H34.9097V19.504H33.2192ZM35.6184 19.0315V20.764H32.9934C32.8604 20.764 32.7467 20.6992 32.6522 20.5697C32.5577 20.4437 32.5104 20.2915 32.5104 20.113V19.0315H35.6184Z" fill="black"/>
<path d="M5.60068 18.5814C5.58146 18.4645 5.54781 18.3506 5.50054 18.2424C5.36618 17.918 5.13513 17.645 4.84011 17.4619C4.60818 17.3216 4.34318 17.2484 4.07353 17.25C3.80388 17.2516 3.53975 17.3281 3.30945 17.4711C3.09423 17.6034 2.91932 17.7941 2.80424 18.0219C2.7668 18.0998 2.73517 18.1805 2.70961 18.2633C2.63943 18.4787 2.61247 18.7062 2.63037 18.9324C2.64826 19.1586 2.71063 19.3788 2.81376 19.5799C2.88552 19.7031 2.99416 19.7995 3.12369 19.855C3.18827 19.8818 3.25805 19.8929 3.32756 19.8875C3.39707 19.8821 3.46441 19.8603 3.52426 19.8239C3.59136 19.7713 3.64151 19.6995 3.66828 19.6176C3.69504 19.5357 3.6972 19.4476 3.67447 19.3645C3.62254 19.1547 3.62774 18.9344 3.68949 18.7274C3.71281 18.6593 3.75041 18.5973 3.79964 18.5456C3.83168 18.5159 3.86757 18.4909 3.9063 18.4711C3.98799 18.4294 4.08026 18.4142 4.17066 18.4277C4.2483 18.4453 4.32082 18.4812 4.38239 18.5325C4.44395 18.5839 4.49285 18.6492 4.52517 18.7233C4.5883 18.8724 4.621 19.0331 4.6213 19.1955C4.62339 19.9111 4.51923 20.623 4.31236 21.3068C4.29483 21.3763 4.27581 21.4457 4.25678 21.5146C4.24176 21.5656 4.21472 21.6366 4.24777 21.6882C4.26328 21.7101 4.28467 21.7269 4.30936 21.7367C4.4095 21.7785 4.49563 21.7147 4.56422 21.6438C4.95595 21.2161 5.24434 20.7012 5.40641 20.1399C5.47456 19.9346 5.52875 19.7248 5.56863 19.512C5.63105 19.2047 5.64173 18.8888 5.60018 18.5778" fill="#009090"/>
<path d="M8.25 15.1948C8.24921 15.1675 8.2437 15.1407 8.23379 15.1159C8.22389 15.0912 8.2098 15.0691 8.19239 15.0509C8.17497 15.0328 8.15458 15.019 8.13247 15.0103C8.11036 15.0017 8.08698 14.9984 8.06376 15.0007C7.9663 15.0174 7.87179 15.0525 7.78393 15.1047C6.00056 15.8556 4.08463 16.068 2.21283 15.7222C1.89703 15.6696 1.57678 15.5945 1.25951 15.5362C1.06244 15.4998 0.865378 15.4478 0.663876 15.4287C0.484239 15.3872 0.29786 15.4286 0.143618 15.5443C0.064165 15.6466 0.0148169 15.7761 0.00284416 15.9138C-0.00912858 16.0515 0.0169014 16.19 0.0771024 16.309C0.212816 16.58 0.408831 16.8027 0.644165 16.9531C0.861577 17.1354 1.11997 17.2387 1.38711 17.25C2.09228 17.198 2.79532 17.1183 3.49623 17.0109C4.715 16.8947 5.91561 16.5923 7.06758 16.1115C7.44037 15.9389 7.79141 15.7076 8.11106 15.4241C8.1687 15.3739 8.25 15.2907 8.25 15.1931" fill="#009090"/>
<path d="M3.14873 14.845C3.14873 15.0413 3.22773 15.2295 3.36835 15.3682C3.50898 15.507 3.69971 15.585 3.89859 15.585C4.09746 15.585 4.28819 15.507 4.42882 15.3682C4.56944 15.2295 4.64844 15.0413 4.64844 14.845C4.64819 14.7837 4.6343 14.7233 4.60774 14.6679C4.54346 14.5332 4.47169 14.4676 4.47812 14.3064C4.48776 14.0886 4.20495 14.0855 4.05284 14.0855C3.88356 14.0804 3.71535 14.1136 3.56115 14.1827C3.44158 14.2428 3.34017 14.3328 3.26711 14.4438C3.1927 14.5584 3.15173 14.691 3.14873 14.827C3.14834 14.833 3.14834 14.839 3.14873 14.845Z" fill="#E4003F"/>
</svg>
