<svg width="36" height="36" viewBox="0 0 36 36" fill="none" xmlns="http://www.w3.org/2000/svg">
<g clip-path="url(#clip0_6660_159166)">
<path d="M8.76775 14.6241L5.42969 18.082L8.76775 21.54L12.1058 18.082L8.76775 14.6241Z" fill="#E3007F"/>
<path d="M4.79613 14.7852H2.25V17.4227H4.79613V14.7852Z" fill="#E3007F"/>
<path d="M4.79613 18.7412H2.25V21.3788H4.79613V18.7412Z" fill="#E3007F"/>
<path d="M23.0401 16.8735V16.192C23.0401 15.9978 22.9152 15.8672 22.7266 15.8672H19.1874V16.4192H22.3198L22.3516 16.8735C22.3516 17.1654 22.3198 17.4902 22.1948 17.7821H18.8125V18.3341H20.7542V19.0473H19.1886V19.5664H22.3516V21.253H23.0401V19.0473H21.4745V18.3341H23.4162V17.7821H22.947C23.0095 17.522 23.0413 17.1983 23.0413 16.8735H23.0401Z" fill="#2E0F6E"/>
<path d="M13.548 18.5928V19.1448H14.6751C14.424 19.3719 14.2683 19.6968 14.2683 20.0534C14.2683 20.8325 14.9887 21.4481 15.834 21.4481C16.6793 21.4481 17.3996 20.8313 17.3996 20.0534C17.3996 19.6968 17.2428 19.3719 17.0235 19.1448H18.1199V18.5928H13.5469H13.548ZM16.7111 20.0522C16.7111 20.5383 16.335 20.9608 15.834 20.9608C15.3647 20.9608 14.9568 20.5395 14.9568 20.0522C14.9568 19.5332 15.3636 19.1436 15.834 19.1436C16.335 19.1436 16.7111 19.5649 16.7111 20.0522Z" fill="#2E0F6E"/>
<path d="M14.5161 17.1656C14.5161 17.847 15.1114 18.399 15.8317 18.399C16.552 18.399 17.1781 17.847 17.1781 17.1656C17.1781 16.9055 17.0838 16.6795 16.9588 16.4841H17.9302V15.9321H16.1453V15.4131H15.5193V15.9321H13.7344V16.4841H14.7365C14.5797 16.6783 14.5172 16.9055 14.5172 17.1656H14.5161ZM15.8317 16.4194C16.2078 16.4194 16.5202 16.7442 16.5202 17.1656C16.5202 17.5552 16.2067 17.8788 15.8317 17.8788C15.4568 17.8788 15.1739 17.5869 15.1739 17.1656C15.1739 16.7442 15.4557 16.4194 15.8317 16.4194Z" fill="#2E0F6E"/>
<path d="M33.1583 15.8027V17.4246H32.7516V15.8027H32.1562V21.2215H32.7516V17.9436H33.1583V21.2215H33.7537V15.8027H33.1583Z" fill="#2E0F6E"/>
<path d="M28.2751 15.8025H27.6491V18.8849H25.9266V18.4565C26.4981 18.3247 26.9287 17.8468 26.9287 17.296C26.9287 16.9841 26.7992 16.7017 26.5947 16.4851H27.0855V15.9331H25.9266V15.4141H25.2688V15.9331H24.1099V16.4851H24.6496C24.4519 16.7017 24.3292 16.9841 24.3292 17.296C24.3292 17.8362 24.7223 18.3035 25.2688 18.4471V18.8861H24.0156V19.4381H27.6491V21.2224H28.2751V17.9775H28.9329V17.4255H28.2751V15.8036V15.8025ZM24.9234 17.2619C24.9234 16.8723 25.237 16.5487 25.6119 16.5487C25.9869 16.5487 26.3004 16.8735 26.3004 17.2619C26.3004 17.6832 25.9869 17.9751 25.6119 17.9751C25.237 17.9751 24.9234 17.6832 24.9234 17.2619Z" fill="#2E0F6E"/>
<path d="M31.0271 16.3547H31.8724V15.8027H29.4922V16.3547H30.3068V16.5819C30.3068 17.7824 30.0875 18.3991 29.3047 19.21L29.5865 19.6314C30.0625 19.23 30.434 18.8028 30.6715 18.2567C30.9158 18.8028 31.2884 19.23 31.7474 19.6314L32.061 19.21C31.2782 18.3991 31.0271 17.7824 31.0271 16.5819V16.3547Z" fill="#2E0F6E"/>
</g>
<defs>
<clipPath id="clip0_6660_159166">
<rect width="31.5" height="6.91463" fill="white" transform="translate(2.25 14.625)"/>
</clipPath>
</defs>
</svg>
