<svg width="36" height="36" viewBox="0 0 36 36" fill="none" xmlns="http://www.w3.org/2000/svg">
<path d="M2.84499 16.4686C4.20967 16.4686 5.31215 15.4782 5.31215 14.25H7.58732V21.0767H4.74027V18.1762H2.84292V21.0786H0V14.25H2.84499V16.4686Z" fill="#F5A200"/>
<path d="M35.2752 15.8164V16.6972H36.0019V17.3921H35.2752V18.4196H34.375V15.8164H35.2752Z" fill="#001755"/>
<path d="M31.8906 19.8039C31.8906 19.0718 32.6029 18.4697 33.5671 18.4697C34.5312 18.4697 35.2435 19.0699 35.2435 19.8039C35.2435 20.5378 34.5312 21.1436 33.5671 21.1436C32.6029 21.1436 31.8906 20.536 31.8906 19.8039ZM33.5588 20.4709C33.9944 20.4709 34.3475 20.1773 34.3475 19.802C34.3475 19.4267 33.9944 19.1405 33.5588 19.1405C33.1232 19.1405 32.7866 19.4267 32.7866 19.802C32.7866 20.1773 33.1232 20.4709 33.5588 20.4709Z" fill="#001755"/>
<path d="M31.4164 15.8184C31.4122 16.5505 31.3709 17.1525 30.1797 17.6523L30.6132 18.2488C31.1273 18.115 31.7054 17.7136 31.9263 17.355C32.1472 17.7136 32.7253 18.115 33.2394 18.2488L33.6729 17.6523C32.4817 17.1525 32.4404 16.5505 32.4363 15.8184H31.4143H31.4164Z" fill="#001755"/>
<path d="M21.5656 17.0461H21.0907V15.8271H20.2422V21.0875H21.0907V17.8135H21.5656V21.0875H22.441V15.8271H21.5656V17.0461Z" fill="#001755"/>
<path d="M28.3713 17.0461H27.9604V15.8271H27.1016V21.0875H27.9604V17.8135H28.3713V21.0875H29.2528V15.8271H28.3713V17.0461Z" fill="#001755"/>
<path d="M12.2734 19.2744H13.1984V20.3205H15.9525V21.0025H12.2734V19.2744Z" fill="#001755"/>
<path d="M15.0526 18.6058H14.3693V17.9295H15.0526V17.4761H14.3672V16.7979H15.0526V15.8242H15.9528V19.6928H15.0526V18.6058Z" fill="#001755"/>
<path d="M24.8875 15.5938V16.0118H23.8594V16.6547H24.3673C24.0638 16.8387 23.8883 17.1862 23.8883 17.5578C23.8883 18.197 24.4994 18.7433 25.3438 18.7433C26.1882 18.7433 26.7993 18.197 26.7993 17.5578C26.7993 17.188 26.6238 16.8387 26.3203 16.6547H26.8282V16.0118H25.8001V15.5938H24.8896H24.8875ZM25.9549 17.5448C25.9549 17.8254 25.6886 18.0948 25.3438 18.0948C24.999 18.0948 24.7306 17.8235 24.7306 17.5448C24.7306 17.2661 24.997 16.9948 25.3438 16.9948C25.6907 16.9948 25.9549 17.2661 25.9549 17.5448Z" fill="#001755"/>
<path d="M12.05 15.5967V16.0148H10.9062V16.6577H11.5421C11.2469 16.836 11.0755 17.1798 11.0755 17.505C11.0755 18.1442 11.6867 18.6626 12.5311 18.6626C13.3755 18.6626 13.9866 18.1442 13.9866 17.505C13.9866 17.1798 13.8152 16.836 13.52 16.6577H14.1559V16.0148H13.0121V15.5967H12.05ZM13.1422 17.492C13.1422 17.7725 12.8759 18.0141 12.529 18.0141C12.1822 18.0141 11.9179 17.7707 11.9179 17.492C11.9179 17.2132 12.1842 16.968 12.529 16.968C12.8738 16.968 13.1422 17.2114 13.1422 17.492Z" fill="#001755"/>
<path d="M19.9356 18.6614H18.4656V16.6658H19.6734V15.9746H17.5469V19.3545H19.9356V18.6614Z" fill="#001755"/>
</svg>
