<svg width="36" height="36" viewBox="0 0 36 36" fill="none" xmlns="http://www.w3.org/2000/svg">
<g clip-path="url(#clip0_6777_210790)">
<path d="M8.16194 17.4642L8.08907 17.4168C7.84395 17.1572 7.50442 17.0449 7.0473 17.073C6.66802 17.0975 6.36658 17.2572 6.13802 17.4045C6.13802 17.401 6.13802 17.3975 6.13802 17.394C6.13802 17.2677 6.15127 17.1309 6.16452 16.9993C6.17777 16.8642 6.19102 16.7274 6.19102 16.5976C6.19102 16.4678 6.17611 16.3397 6.13305 16.2327C6.12146 16.2046 6.09827 16.1888 6.06846 16.1888C5.9459 16.1923 5.7074 16.2801 5.64943 16.3344L5.61796 16.4081C5.6163 16.552 5.58649 16.9537 5.55668 17.0028C5.55668 17.001 5.54012 17.0502 5.54012 17.0502C5.48877 17.6238 5.48712 18.1273 5.53515 18.5606C5.54012 18.6044 5.61962 18.6693 5.67924 18.6921C5.74549 18.7184 5.95418 18.6588 6.07508 18.6114L6.1198 18.6044C6.1579 18.5992 6.17943 18.5658 6.17777 18.5202L6.18108 18.3957C6.26721 18.022 6.61833 17.5764 7.03405 17.5098C7.26923 17.4694 7.45473 17.5343 7.60048 17.7027C7.62035 17.7326 7.66342 18.0027 7.50773 18.3115C7.39345 18.5395 7.16158 18.7325 6.85848 18.8535C6.57195 18.9693 6.25561 19.0149 5.8664 19.0009C5.84983 18.9903 5.50202 18.7395 5.50202 18.7395C5.19231 18.5097 4.80806 18.2237 4.46025 18.0834C4.39897 18.0588 4.28966 17.9624 4.22341 17.9045L4.18697 17.8729C3.98657 17.7027 3.60398 17.4326 3.29757 17.2151C3.29757 17.2151 3.15845 17.1168 3.13195 17.0975C3.13195 17.0852 3.13195 17.0607 3.13195 17.0607C3.14023 17.0502 3.33401 16.9274 3.33401 16.9274C3.60398 16.7607 3.72819 16.6783 3.75469 16.6344C3.74972 16.6414 3.79113 16.6116 3.79113 16.6116C3.79279 16.6116 4.46025 16.2099 4.46025 16.2099C5.10287 15.8362 5.82996 15.4117 6.21255 14.9924L6.23077 14.9275L6.23905 14.8714C6.26389 14.7819 6.26555 14.7135 6.24402 14.6328C6.23905 14.61 6.21918 14.5837 6.19268 14.5784C5.89455 14.5469 5.50865 14.7363 5.15918 15.0854C5.07968 15.1644 5.01343 15.2029 4.94387 15.2433L4.89087 15.2749C4.50497 15.5082 3.63379 16.0801 3.17832 16.3888C3.20813 15.8696 3.29923 15.131 3.4102 14.5153L3.39695 14.4416L3.35057 14.3486L3.31579 14.282L3.30585 14.2785C3.21476 14.2293 3.14023 14.2486 3.08557 14.2644L2.99448 14.2995L2.87357 14.3451C2.85039 14.3504 2.83217 14.3662 2.82389 14.3907C2.60692 14.9468 2.42473 15.8643 2.38167 16.5976C1.94608 16.3046 1.54527 16.0941 1.34818 15.9924L1.34321 15.9888L1.32002 15.9836C1.2488 15.9731 1.16268 15.9187 1.07987 15.8661C1.07159 15.8608 0.914244 15.752 0.914244 15.752L0.660839 15.5801L0.59459 15.5643C0.485278 15.5836 0.278248 15.7327 0.215311 15.8345C0.20703 15.8485 0.203717 15.8625 0.203717 15.8783C0.203717 15.8994 0.210342 15.9204 0.215311 15.9415L0.226905 15.9959L0.238498 16.0292C0.359404 16.1608 0.665808 16.38 0.965587 16.5502L1.3134 16.7449L1.84505 17.0537L1.93614 17.1291L1.99908 17.1677C1.99908 17.1677 2.0057 17.1712 2.01067 17.1747C1.86824 17.2747 1.04343 17.8589 1.04343 17.8589L0.534965 18.215C0.486934 18.2501 0.286529 18.3448 0.241811 18.3641C0.130843 18.4114 0.0480309 18.4851 0.0132499 18.5641L0 18.5956L0.0132499 18.6167L0.0529996 18.6483L0.104343 18.6851L0.160655 18.7255L0.213655 18.7342C0.303092 18.7377 0.435591 18.6834 0.68237 18.5693C0.909275 18.4623 1.52705 18.0676 1.79205 17.8992L1.90467 17.8273C1.95105 17.8308 2.00239 17.7904 2.04877 17.7536C2.10177 17.708 2.21605 17.6343 2.28727 17.601C2.28892 17.601 2.33033 17.5764 2.36677 17.5536C2.36677 17.5659 2.36677 17.5852 2.36677 17.5852C2.37836 18.4413 2.42473 19.064 2.51251 19.5429V19.5517L2.52245 19.571C2.56551 19.6394 2.6152 19.8412 2.65992 20.0201L2.76095 20.3779L2.78911 20.4113C2.84707 20.4516 3.02264 20.5235 3.13857 20.5095L3.16838 20.506L3.1866 20.4622C3.19654 20.4095 3.19985 20.3569 3.19985 20.299C3.19985 20.2341 3.19488 20.1604 3.18992 20.0727L3.18163 19.9447C3.14354 19.3482 3.1071 18.4851 3.1071 17.9115V17.8659C3.20317 17.929 3.62219 18.2097 3.62219 18.2097C4.33603 18.6991 5.41259 19.4412 6.06515 19.6359C6.09993 19.6464 6.13471 19.6377 6.15955 19.6131L6.26058 19.5447L6.2788 19.5377C6.31689 19.5184 6.34174 19.4517 6.34505 19.3798C6.89327 19.35 7.6601 19.1272 8.06919 18.5816C8.22819 18.3693 8.29941 18.1115 8.29941 17.8904C8.29941 17.708 8.25138 17.5519 8.16526 17.4659" fill="#FCAF17"/>
<path d="M19.1328 17.851V17.3914H20.958V16.709H21.4648V17.3914H23.2651V17.851H20.0901V18.9229H22.8925V19.3877H19.585V17.8493H19.1345L19.1328 17.851ZM20.9315 15.0898H21.4946V15.1986C21.5145 15.367 21.5658 15.5074 21.637 15.6266C21.7033 15.7512 21.7845 15.8547 21.8871 15.9354C21.9782 16.0213 22.0859 16.088 22.1985 16.1424C22.3062 16.1968 22.4122 16.2389 22.5198 16.2669C22.6225 16.3003 22.7186 16.3266 22.8113 16.3371C22.8991 16.3529 22.9703 16.3652 23.0217 16.3704V16.8353C22.8941 16.83 22.75 16.8072 22.591 16.7704C22.4271 16.7371 22.2581 16.6897 22.0958 16.6195C21.9269 16.5546 21.7679 16.4722 21.6155 16.3652C21.4565 16.2669 21.324 16.1371 21.2114 15.9863C21.0988 16.1371 20.9663 16.2617 20.8122 16.3652C20.6582 16.4739 20.5009 16.5546 20.3369 16.6195C20.168 16.6897 20.0056 16.7388 19.8467 16.7704C19.6827 16.802 19.5402 16.8248 19.4177 16.8353V16.3704C19.469 16.3652 19.5402 16.3546 19.633 16.3318C19.7191 16.3213 19.8168 16.2933 19.9245 16.2617C20.0272 16.2283 20.1348 16.1862 20.2475 16.1319C20.3551 16.0827 20.4561 16.0126 20.5539 15.9266C20.645 15.8459 20.7228 15.7424 20.794 15.6231C20.8603 15.5038 20.9066 15.3635 20.9315 15.2004V15.0916V15.0898Z" fill="#776C61"/>
<path d="M25.6965 15.8041H25.3023C25.405 15.9234 25.4861 16.069 25.5474 16.2427C25.6087 16.4216 25.6385 16.6321 25.6385 16.8812C25.6385 17.1093 25.6137 17.3093 25.5623 17.4777C25.511 17.6513 25.4398 17.7917 25.3536 17.9004C25.2609 18.0197 25.1582 18.1057 25.0423 18.1601C24.9197 18.2197 24.7955 18.2478 24.6646 18.2478C24.5338 18.2478 24.403 18.2197 24.287 18.1601C24.1645 18.1057 24.0618 18.0197 23.9806 17.9004C23.8895 17.7917 23.8233 17.6513 23.7719 17.4777C23.7206 17.3093 23.6941 17.1093 23.6941 16.8812C23.6941 16.6321 23.7256 16.4216 23.7868 16.2427C23.8432 16.069 23.9243 15.9234 24.027 15.8041H23.6328V15.3445H24.4096V14.9551H24.9164V15.3445H25.6981V15.8041H25.6965ZM24.6646 17.7759C24.7872 17.7759 24.8899 17.7057 24.976 17.5531C25.0572 17.4128 25.1036 17.1795 25.1036 16.8654C25.1036 16.5514 25.0572 16.3234 24.976 16.1725C24.8899 16.0322 24.7872 15.9567 24.6646 15.9567C24.5421 15.9567 24.4394 16.0322 24.3582 16.1725C24.2705 16.3234 24.2307 16.5514 24.2307 16.8654C24.2307 17.1795 24.2721 17.418 24.3582 17.5584C24.4411 17.7057 24.5421 17.7759 24.6646 17.7759ZM26.9039 15.1007H27.3941V19.4003H26.9039V16.9321H26.4799V19.2652H25.9896V15.1007H26.4799V16.4655H26.9039V15.1007Z" fill="#776C61"/>
<path d="M27.8828 18.6902H29.6716V17.8025H30.1784V18.6902H31.9373V19.155H27.8828V18.6902ZM31.553 15.208V17.5464H28.3217V15.2098H28.8236V15.8869H31.0529V15.2098H31.5547L31.553 15.208ZM31.0512 17.0921V16.3448H28.8219V17.0921H31.0512Z" fill="#776C61"/>
<path d="M35.4906 15.1006H36.0007V17.3162H35.4906V16.6548H34.8712C34.8414 16.7741 34.79 16.8724 34.7188 16.9583C34.6426 17.0513 34.5499 17.1267 34.4472 17.1794C34.3345 17.239 34.217 17.2829 34.0845 17.3092C33.947 17.3408 33.8029 17.353 33.6605 17.353C33.4866 17.353 33.3276 17.3372 33.1802 17.2934C33.0278 17.2601 32.8986 17.2004 32.7876 17.1197C32.675 17.0443 32.5839 16.9513 32.521 16.832C32.4547 16.7233 32.4249 16.5882 32.4249 16.4373C32.4249 16.2865 32.4564 16.1566 32.521 16.0426C32.5822 15.9339 32.6651 15.8356 32.7777 15.7602H32.3438V15.3006H33.4071V14.9111H33.9122V15.3006H34.9705V15.7602H34.5465C34.6227 15.8146 34.6906 15.8795 34.7453 15.9444C34.7966 16.0198 34.8314 16.1023 34.8629 16.1882H35.4923V15.1006H35.4906ZM36.0007 17.6407V19.3897H32.7909V17.6407H36.0007ZM33.6654 16.8987C33.7582 16.8987 33.8493 16.8882 33.9354 16.8671C34.0182 16.8513 34.0944 16.818 34.1606 16.7759C34.2219 16.7373 34.2683 16.6847 34.308 16.6198C34.3428 16.5601 34.3644 16.4829 34.3644 16.397C34.3644 16.311 34.3445 16.2356 34.308 16.1707C34.2683 16.111 34.2219 16.0566 34.1606 16.0128C34.0944 15.9742 34.0182 15.9426 33.9354 15.9216C33.8476 15.9058 33.7565 15.8953 33.6654 15.8953C33.5627 15.8953 33.47 15.9058 33.3888 15.9216C33.3027 15.9426 33.2315 15.976 33.1702 16.0128C33.104 16.0566 33.0526 16.111 33.0162 16.1707C32.9748 16.2356 32.9599 16.311 32.9599 16.397C32.9599 16.4829 32.9764 16.5601 33.0162 16.6198C33.051 16.6847 33.1023 16.739 33.1702 16.7759C33.2315 16.8197 33.3027 16.8513 33.3888 16.8671C33.47 16.8882 33.5627 16.8987 33.6654 16.8987ZM35.5005 18.9196V18.1074H33.2977V18.9196H35.5005Z" fill="#776C61"/>
<path d="M10.1797 15.1289H10.819V17.0235L12.9671 15.1289H13.8714L11.6007 17.041L14.0586 19.3619H13.1559L10.819 17.0937V19.3619H10.1797V15.1289Z" fill="#776C61"/>
<path d="M14.5078 15.1377H16.4738C17.4079 15.1377 17.8965 15.4675 17.8965 16.185C17.8965 16.6972 17.5586 17.0481 17.1114 17.1428V17.1603C17.754 17.241 18.0588 17.6884 18.0588 18.1918C18.0588 18.8233 17.6215 19.3707 16.5367 19.3707H14.5095V15.1377H14.5078ZM15.1455 16.9218H16.4423C16.9243 16.9218 17.2804 16.7288 17.2804 16.2762C17.2804 15.8832 17.1048 15.6201 16.3694 15.6201H15.1471V16.9218H15.1455ZM15.1455 18.8918H16.4025C17.1826 18.8918 17.3897 18.569 17.3897 18.1585C17.3897 17.6726 17.0717 17.4024 16.3678 17.4024H15.1455V18.8918Z" fill="#776C61"/>
</g>
<defs>
<clipPath id="clip0_6777_210790">
<rect width="36" height="6.26087" fill="white" transform="translate(0 14.25)"/>
</clipPath>
</defs>
</svg>
