<svg width="40" height="40" viewBox="0 0 40 40" fill="none" xmlns="http://www.w3.org/2000/svg">
<circle cx="20" cy="20" r="20" fill="#E3DFEB"/>
<path d="M17.5702 10.0516C16.9228 10.2086 16.2937 10.4321 15.6931 10.7184L15.525 10.8017L15.5418 10.6934C15.5558 10.5989 15.5502 10.5794 15.4941 10.5488C15.1799 10.3766 13.6787 10.8683 12.418 11.5546C12.2216 11.663 12.1602 11.6852 12.177 11.6463C12.3311 11.2796 11.9753 11.3018 11.1405 11.7048C9.63878 12.4327 8.43128 13.4635 7.80382 14.5526C7.61759 14.8791 7.47537 15.2285 7.3808 15.5917C7.29091 16.1459 7.33506 16.7133 7.50963 17.2472C7.6637 17.6529 8.06993 18.2419 8.50699 18.6892C9.4147 19.6172 10.5858 20.2257 12.4964 20.7619C13.4714 21.0346 15.284 21.451 16.8557 21.7649C17.7493 21.9402 17.8222 21.965 17.8222 22.0678C17.7281 22.1765 17.6227 22.2752 17.508 22.3623C16.8748 22.8846 16.7852 23.0013 16.7852 23.2847C16.7852 23.5963 17.0626 23.8598 17.6395 24.096C18.0827 24.2704 18.49 24.5237 18.8414 24.8434C19.242 25.1823 19.5306 25.2906 20.0348 25.2851C20.4615 25.2922 20.8743 25.1349 21.1863 24.8461C21.4617 24.5993 21.7711 24.3925 22.1052 24.2321C22.2845 24.146 22.5226 24.0321 22.6346 23.9789C23.01 23.7983 23.2342 23.5344 23.2342 23.2787C23.2342 23.0036 23.139 22.8814 22.5787 22.4229C22.2145 22.1285 22.1613 22.0534 22.2593 21.9728C22.2789 21.9562 22.7243 21.856 23.2454 21.7506C26.6158 21.0671 28.4872 20.5559 29.6527 20.0002C30.8153 19.4417 31.7791 18.5776 32.3506 17.5802C32.5999 17.1412 32.6868 16.7244 32.6616 16.0715C32.6628 15.7082 32.5844 15.3489 32.4318 15.0185C32.1909 14.4462 31.8378 13.9489 31.2829 13.396C30.5932 12.7106 29.7907 12.1469 28.91 11.7289C28.1004 11.326 27.6296 11.276 27.8145 11.6067L27.8734 11.7178L27.7585 11.6484C26.7359 11.0316 24.9878 10.4116 24.5731 10.5231C24.4526 10.5564 24.416 10.6176 24.4582 10.7231C24.4835 10.7926 24.4723 10.787 24.1304 10.6398C23.4333 10.3398 22.3542 10.023 22.032 10.023C21.9753 10.0212 21.9192 10.0347 21.8695 10.0619C21.819 10.0981 21.819 10.1009 21.8724 10.1925C21.935 10.275 22.013 10.3447 22.1021 10.3981C22.1974 10.4592 22.4607 10.6287 22.6877 10.7732C23.4224 11.2322 24.102 11.7729 24.7132 12.3847C25.733 13.396 26.3942 14.4768 26.6632 15.5659C26.7506 15.9013 26.7744 16.2499 26.7332 16.5939C26.6376 17.5224 26.2494 18.3974 25.6236 19.0944C25.2591 19.4829 24.8279 19.804 24.35 20.0427C23.756 20.3372 22.4393 20.704 21.3242 20.8873C20.8788 20.9596 20.7583 21.0042 20.6435 21.1405C20.5876 21.1938 20.5462 21.2601 20.5232 21.3335C20.5002 21.4068 20.4963 21.4848 20.5118 21.56C20.5454 21.674 20.6547 21.7823 21.0721 22.1019C21.4391 22.3825 21.4979 22.4464 21.5932 22.6493C21.6429 22.7618 21.666 22.8842 21.6606 23.007C21.6553 23.1298 21.6217 23.2498 21.5624 23.3577C21.3999 23.6522 21.0104 23.9245 20.5818 24.044C20.4056 24.0798 20.2265 24.0993 20.0467 24.1024C19.6849 24.1328 19.3218 24.0616 18.9989 23.8968C18.7598 23.7781 18.5582 23.5964 18.4162 23.3717C18.329 23.2022 18.299 23.0094 18.3309 22.8218C18.3627 22.6341 18.4546 22.4616 18.593 22.3297C18.6546 22.2713 18.8679 22.096 19.0665 21.9408C19.4867 21.6097 19.5232 21.5546 19.4642 21.3324C19.4427 21.2508 19.4028 21.1751 19.3474 21.1111C19.2921 21.0471 19.2228 20.9964 19.1448 20.9628C18.9651 20.9137 18.7826 20.8747 18.5985 20.8459C17.87 20.7237 16.5 20.3736 16.035 20.1903C15.4614 19.9717 14.9424 19.6323 14.5138 19.1956C13.7382 18.4523 13.2808 17.4415 13.2362 16.3727C13.2133 15.9527 13.2792 15.5325 13.4296 15.1391C13.9815 13.4943 15.4467 11.8745 17.5675 10.5659C18.0718 10.2543 18.2175 10.0991 18.0774 10.024C17.9989 9.9851 17.8449 9.99347 17.5704 10.0518L17.5702 10.0516ZM14.9647 11.0546C14.9423 11.0686 14.7265 11.191 14.4856 11.3273C11.9809 12.7387 10.5381 14.5169 10.5381 16.1923C10.5381 16.9896 11.034 17.9427 11.8577 18.7345C12.5902 19.4136 13.4445 19.9508 14.3763 20.3182C14.6929 20.446 14.7937 20.4989 14.6564 20.4572C14.1661 20.3182 12.813 19.6931 12.2835 19.3653C11.1096 18.6368 10.4289 17.8448 10.1824 16.9197C10.1209 16.6964 10.0954 16.4647 10.1068 16.2335C10.0913 15.8384 10.1531 15.4441 10.2885 15.0722C10.5046 14.4137 10.86 13.8549 11.4344 13.2663C12.2384 12.4411 13.2918 11.7548 14.6702 11.1575C14.9727 11.0269 15.0484 11.0017 14.9648 11.0546H14.9647ZM25.423 11.1963C26.2289 11.541 26.9937 11.9734 27.7035 12.4855C28.1012 12.7799 28.8353 13.4996 29.0706 13.8246C29.4868 14.3741 29.7618 15.0159 29.8719 15.6944C29.8935 15.902 29.8991 16.111 29.8887 16.3195C29.8987 16.7257 29.8001 17.1274 29.6029 17.4837C29.1631 18.37 28.2479 19.1525 26.8574 19.8314C26.4203 20.0426 25.3754 20.4704 25.2969 20.4704C25.3814 20.4167 25.4728 20.3747 25.5687 20.3454C27.6811 19.4982 29.1267 18.081 29.4376 16.5529C29.575 15.8666 29.3001 14.8942 28.7316 14.0607C28.469 13.6768 28.1636 13.3235 27.821 13.0077C27.1332 12.3517 26.3619 11.7877 25.5267 11.33C24.8907 10.9744 24.8851 10.9688 25.423 11.1967V11.1963ZM12.1346 11.702C12.0704 11.7491 12.003 11.7918 11.9329 11.8298C10.8429 12.4688 9.81769 13.3829 9.24335 14.2331C8.80914 14.8721 8.54853 15.625 8.54853 16.2168C8.55138 16.5447 8.697 17.0726 8.89869 17.473C9.21307 18.0361 9.6325 18.5348 10.1347 18.9425C10.6454 19.3317 11.2069 19.6504 11.804 19.89C11.9047 19.924 12.0022 19.9667 12.0953 20.0177C11.9932 19.9948 11.893 19.9641 11.7955 19.926C9.86856 19.262 8.61923 18.1812 8.26887 16.8726C7.95789 15.7001 8.33329 14.6416 9.45703 13.5385C10.1455 12.8799 10.9246 12.3214 11.7713 11.8798C12.1295 11.6853 12.1346 11.6826 12.1346 11.702ZM28.2778 11.902C29.3789 12.4967 30.3425 13.2301 30.9225 13.9219C31.5556 14.6718 31.8302 15.3223 31.8302 16.0808C31.8302 17.281 31.197 18.2896 29.9252 19.1148C29.4467 19.41 28.9399 19.6575 28.4123 19.8538C27.922 20.0372 27.782 20.0649 28.1714 19.9039C28.7313 19.6779 29.2618 19.3859 29.7514 19.0343C30.1307 18.7314 30.4738 18.3865 30.774 18.0063C31.1006 17.5539 31.3234 17.0361 31.4268 16.4893C31.4997 16.0698 31.41 15.539 31.1663 14.9696C30.7153 13.9166 29.5694 12.733 28.2106 11.9133C27.9837 11.777 27.9417 11.7466 27.9781 11.7466C27.9837 11.7466 28.121 11.8161 28.2779 11.9024L28.2778 11.902Z" fill="#44207A"/>
<path d="M16.136 27.3337L16.8627 29.0943H16.8911L17.6178 27.3337H18.2894V29.9289H17.7621V28.2306H17.7405L17.0571 29.9182H16.6957L16.0133 28.2228H15.9917V29.9289H15.4634V27.3337H16.136Z" fill="#3F1377"/>
<path d="M19.9027 29.9649C19.2055 29.9649 18.6772 29.4761 18.6772 28.6318C18.6772 27.7875 19.2046 27.2977 19.9027 27.2977C20.6009 27.2977 21.1243 27.7836 21.1243 28.6318C21.1243 29.48 20.595 29.9649 19.9027 29.9649ZM19.9027 29.4887C20.3053 29.4868 20.5734 29.1859 20.5714 28.6328C20.5734 28.0767 20.3063 27.7778 19.9027 27.7758C19.4962 27.7778 19.2301 28.0767 19.2301 28.6328C19.2301 29.1888 19.4952 29.4878 19.9027 29.4887Z" fill="#3F1377"/>
<path d="M21.5132 27.3337H22.554C23.1304 27.3337 23.4231 27.6093 23.4211 28.0007C23.4243 28.134 23.3784 28.2639 23.292 28.3661C23.2056 28.4682 23.0846 28.5357 22.9517 28.5558V28.5811C23.1119 28.5902 23.262 28.6616 23.3696 28.7797C23.4771 28.8978 23.5334 29.0532 23.5262 29.2122C23.5242 29.6241 23.2139 29.9289 22.6228 29.9289H21.5132V27.3337ZM22.4745 28.4195C22.7023 28.4214 22.8742 28.2939 22.8722 28.0864C22.8742 27.8985 22.7328 27.7709 22.4853 27.7709H22.0552V28.4195H22.4745ZM22.5138 29.4839C22.828 29.4858 22.9635 29.3563 22.9616 29.1615C22.9635 28.9434 22.7956 28.7886 22.5275 28.7886H22.0542V29.4839H22.5128H22.5138Z" fill="#3F1377"/>
<path d="M24.4098 27.3337H23.8678V29.9289H24.4098V27.3337Z" fill="#3F1377"/>
<path d="M24.8497 27.3337H25.3918V29.4848H26.52V29.9289H24.8497V27.3337Z" fill="#3F1377"/>
<path d="M27.4107 27.3337H26.8687V29.9289H27.4107V27.3337Z" fill="#3F1377"/>
<path d="M27.7495 27.3337H29.8931V27.7787H29.0909V29.9289H28.5527V27.7787H27.7495V27.3337Z" fill="#3F1377"/>
<path d="M30.6796 27.3337L31.2825 28.4526H31.3081L31.908 27.3337H32.5188L31.5644 29.0047V29.9289H31.0223V29.0047L30.0688 27.3337H30.6796Z" fill="#3F1377"/>
<path d="M7.62744 26.8702H8.30597V28.1381L9.501 26.8702H10.3887L9.01886 28.289L10.5055 29.9231H9.55795L8.30597 28.474V29.9231H7.62744V26.8702Z" fill="#3F1377"/>
<path d="M13.3011 29.7069C12.9015 29.9073 12.4586 30.0079 12.0108 30C11.0495 30 10.3494 29.3748 10.3494 28.3961C10.3494 27.4174 11.0495 26.7922 12.0108 26.7922C12.4969 26.7922 12.928 26.9003 13.2363 27.1847L12.7581 27.7018C12.5754 27.5119 12.3535 27.4135 12.0108 27.4135C11.4325 27.4135 11.0544 27.8274 11.0544 28.3961C11.0544 28.9648 11.4325 29.3797 12.0108 29.3797C12.2333 29.3832 12.4531 29.3313 12.6501 29.2287V28.733H12.0972V28.1118H13.3011V29.7069Z" fill="#3F1377"/>
</svg>
