<svg width="40" height="40" viewBox="0 0 40 40" fill="none" xmlns="http://www.w3.org/2000/svg">
<circle cx="20" cy="20" r="20" fill="#F8DBDC"/>
<g clip-path="url(#clip0_1128_6160)">
<mask id="mask0_1128_6160" style="mask-type:luminance" maskUnits="userSpaceOnUse" x="5" y="16" width="30" height="8">
<path d="M34.6667 16.6667H5.33337V23.5646H34.6667V16.6667Z" fill="white"/>
</mask>
<g mask="url(#mask0_1128_6160)">
<path d="M22.3528 22.7781C22.3528 22.8318 22.3692 22.8631 22.4021 22.8631C22.4279 22.8611 22.4526 22.8516 22.4731 22.8358L31.615 16.8996C31.7689 16.7913 31.9535 16.7351 32.1417 16.7392H34.1516C34.2203 16.7351 34.2891 16.7456 34.3535 16.77C34.4179 16.7944 34.4763 16.8322 34.525 16.8809C34.5737 16.9296 34.6115 16.988 34.6359 17.0524C34.6603 17.1168 34.6708 17.1856 34.6667 17.2543V21.0905C34.6916 21.2869 34.6556 21.4863 34.5635 21.6615C34.4713 21.8368 34.3275 21.9795 34.1516 22.0702L31.714 23.5345C31.6905 23.5518 31.6628 23.5623 31.6338 23.565C31.6041 23.565 31.5769 23.5413 31.5769 23.4588V18.9804C31.5769 18.9319 31.5604 18.8942 31.5276 18.8942C31.5019 18.8963 31.4773 18.9056 31.4566 18.9211L24.7724 23.2619C24.622 23.3666 24.4428 23.4218 24.2597 23.4199H19.8286C19.7599 23.424 19.691 23.4135 19.6266 23.3891C19.5622 23.3647 19.5037 23.3269 19.4549 23.2783C19.4062 23.2296 19.3683 23.1711 19.3438 23.1068C19.3193 23.0424 19.3087 22.9736 19.3127 22.9048V17.3762C19.3127 17.3361 19.2947 17.2984 19.2642 17.2984C19.2384 17.3006 19.2135 17.3097 19.1925 17.3249L14.7831 19.9729C14.7386 19.9994 14.727 20.0214 14.727 20.0427C14.727 20.0639 14.7338 20.0792 14.765 20.1104L17.9137 23.2587C17.9558 23.3012 17.9847 23.3329 17.9847 23.3658C17.9847 23.3986 17.9386 23.4199 17.8849 23.4199H15.0364C14.9446 23.4302 14.8516 23.4218 14.763 23.3952C14.6745 23.3686 14.5923 23.3244 14.5213 23.2652L12.612 21.3567C12.6054 21.3481 12.597 21.341 12.5875 21.3358C12.578 21.3305 12.5675 21.3273 12.5567 21.3262C12.5358 21.3278 12.5156 21.3349 12.4982 21.3467L9.30179 23.266C9.14983 23.3686 8.97008 23.4224 8.78669 23.4199H5.84843C5.7797 23.424 5.71088 23.4136 5.6465 23.3891C5.58212 23.3647 5.52366 23.3269 5.47498 23.2782C5.42629 23.2296 5.38849 23.1711 5.36407 23.1067C5.33966 23.0423 5.32918 22.9735 5.33333 22.9048V19.1368C5.3089 18.9409 5.34529 18.7423 5.43758 18.5678C5.52987 18.3933 5.67358 18.2515 5.84923 18.1615L8.29965 16.6887C8.31948 16.675 8.34288 16.6673 8.367 16.6667C8.40468 16.6667 8.42472 16.7068 8.42472 16.791V21.8261C8.42472 21.879 8.43955 21.9031 8.47403 21.9031C8.50048 21.8995 8.52551 21.889 8.54658 21.8726L16.8322 16.894C16.9928 16.7846 17.1845 16.7303 17.3786 16.7392H21.8377C21.9064 16.7351 21.9753 16.7456 22.0396 16.77C22.104 16.7944 22.1625 16.8322 22.2112 16.8809C22.2598 16.9296 22.2976 16.988 22.3221 17.0524C22.3465 17.1168 22.357 17.1856 22.3528 17.2543V22.7781Z" fill="#AC1B27"/>
</g>
</g>
<defs>
<clipPath id="clip0_1128_6160">
<rect width="29.3333" height="6.89791" fill="white" transform="translate(5.33337 16.6667)"/>
</clipPath>
</defs>
</svg>
