<svg width="40" height="40" viewBox="0 0 40 40" fill="none" xmlns="http://www.w3.org/2000/svg">
<circle cx="20" cy="20" r="20" fill="#D6E5EF"/>
<g clip-path="url(#clip0_1128_6175)">
<path d="M20 7.33331C13.0046 7.33331 7.33337 13.0046 7.33337 20C7.33337 26.9954 13.0046 32.6666 20 32.6666C26.9955 32.6666 32.6667 26.9954 32.6667 20C32.6667 13.0046 26.9955 7.33331 20 7.33331ZM31.843 20C31.843 26.5404 26.5412 31.843 20 31.843C13.4589 31.843 8.15706 26.5404 8.15706 20C8.15706 13.4596 13.4597 8.157 20 8.157C26.5404 8.157 31.843 13.4596 31.843 20Z" fill="#6F6F6F"/>
<path d="M20 12.4885V12.9003C23.9144 12.9003 27.0997 16.0849 27.0997 20H27.5116C27.5116 15.8517 24.1483 12.4885 20 12.4885ZM20 27.0997C16.0857 27.0997 12.9004 23.9151 12.9004 20H12.4885C12.4885 24.1482 15.8518 27.5115 20 27.5115" fill="#6F6F6F"/>
<path d="M26.1389 14.6259C26.3109 14.8106 26.5589 15.1085 26.6982 15.2895L29.2631 13.6614C29.135 13.4939 28.931 13.2392 28.7783 13.0597L27.154 14.1336L27.043 14.2289L27.1257 14.1083L27.8429 12.6769L27.3357 12.1697L25.9036 12.8869L25.7829 12.9696L25.879 12.8586L26.9537 11.2351C26.7645 11.0742 26.5828 10.9267 26.3512 10.748L24.7231 13.3107C24.9294 13.4693 25.2013 13.7024 25.3748 13.861L26.9075 13.0656L27.0058 12.9934L26.9336 13.0917L26.1389 14.6259Z" fill="#6F6F6F"/>
<path d="M20.3188 11.378L21.0196 9.80812L21.0643 9.66885L21.0516 9.81407L21.1254 11.912C21.3711 11.9351 21.6251 11.9694 21.8753 12.0111L21.7614 8.90399C21.4113 8.86527 21.0628 8.83771 20.7143 8.82281L20.0239 10.5365L19.9993 10.6638L19.9747 10.5365L19.2851 8.82281C18.9365 8.83771 18.588 8.86527 18.238 8.90399L18.124 12.0111C18.3743 11.9694 18.6282 11.9359 18.874 11.912L18.9477 9.81407L18.9351 9.66885L18.9797 9.80812L19.6805 11.378H20.3188Z" fill="#6F6F6F"/>
<path d="M14.6505 13.8543C15.0556 13.4276 15.285 12.9345 14.8799 12.4639C14.6594 12.2084 14.2893 12.1526 13.9824 12.2784L13.9519 12.2903L13.9616 12.2635C14.007 12.1421 14.0361 11.7549 13.7061 11.4875C13.5453 11.3572 13.3434 11.3088 13.1394 11.3296C12.7588 11.3683 12.4661 11.6283 11.6693 12.5167C11.4287 12.7849 11.0787 13.2079 10.8687 13.4819L13.0575 15.5583C13.7828 14.7555 14.0785 14.4568 14.6505 13.8543ZM11.7944 13.3464C12.2353 12.8072 12.7037 12.3179 12.916 12.1243C12.983 12.0632 13.056 12.0021 13.1446 11.9783C13.2883 11.9388 13.4365 12.0409 13.4701 12.1883C13.5036 12.3365 13.4105 12.4773 13.307 12.5935C13.0738 12.8564 12.2189 13.7508 12.2189 13.7508L11.7944 13.3464ZM12.6516 14.1597C12.6516 14.1597 13.4842 13.2794 13.756 12.9979C13.864 12.8861 13.9333 12.8184 14.0078 12.7819C14.1038 12.735 14.2088 12.7253 14.3027 12.7878C14.395 12.8496 14.4375 12.9561 14.4144 13.0619C14.3868 13.1878 14.2841 13.3077 14.1992 13.3993C14.0845 13.5222 13.0969 14.579 13.0954 14.5804L12.6516 14.1597Z" fill="#6F6F6F"/>
<path d="M20 12.4885V20H12.4885C12.4885 15.8488 15.8488 12.4885 20 12.4885Z" fill="#0066B1"/>
<path d="M27.5115 20C27.5115 24.1512 24.1512 27.5115 20 27.5115V20H27.5115Z" fill="#0066B1"/>
</g>
<defs>
<clipPath id="clip0_1128_6175">
<rect width="25.3333" height="25.3333" fill="white" transform="translate(7.33337 7.33331)"/>
</clipPath>
</defs>
</svg>
