<svg width="40" height="40" viewBox="0 0 40 40" fill="none" xmlns="http://www.w3.org/2000/svg">
<circle cx="20" cy="20" r="20" fill="#D8E0E6"/>
<g clip-path="url(#clip0_1128_6172)">
<mask id="mask0_1128_6172" style="mask-type:luminance" maskUnits="userSpaceOnUse" x="7" y="13" width="26" height="14">
<path d="M32.6207 13.3333H7.33337V26.2813H32.6207V13.3333Z" fill="white"/>
</mask>
<g mask="url(#mask0_1128_6172)">
<path d="M15.3427 14.8153C15.6094 14.7646 15.78 14.7646 15.8427 14.8313C15.8639 14.8603 15.8754 14.8954 15.8754 14.9313C15.8754 14.9673 15.8639 15.0023 15.8427 15.0313C15.8103 15.0842 15.7738 15.1343 15.7334 15.1813C13.4967 17.818 11.8 21.706 11.312 22.8286C11.2747 22.9053 11.238 22.9806 11.2074 23.0286C11.1897 23.0707 11.1609 23.1071 11.124 23.1339C11.0871 23.1607 11.0435 23.1769 10.998 23.1806C10.9026 23.1811 10.8093 23.1518 10.7314 23.0966C9.24871 22.18 8.36604 21.0406 8.36604 19.8033C8.36604 17.5706 11.2374 15.6506 15.3434 14.8133M17.6374 16.4933C17.846 16.0066 18.2094 14.96 19.044 14.546C19.3088 14.4232 19.5963 14.3574 19.888 14.3526C19.95 14.3526 19.994 14.3526 20.0127 14.3526C22.1526 14.3363 24.2834 14.633 26.3374 15.2333C26.3514 15.2373 26.394 15.2533 26.404 15.258C26.5714 15.3153 26.6587 15.3913 26.6587 15.4866C26.6562 15.5265 26.6456 15.5653 26.6274 15.6009C26.6093 15.6364 26.5841 15.6679 26.5534 15.6933C26.5274 15.718 26.4867 15.7513 26.438 15.7946C25.2047 16.7285 23.8325 17.463 22.3714 17.9713C21.407 18.3641 20.4136 18.6813 19.4 18.92C18.7554 19.0533 16.376 19.4186 17.634 16.4953M28.9747 16.57C28.9921 16.5303 29.0198 16.496 29.055 16.4708C29.0902 16.4456 29.1316 16.4303 29.1747 16.4266C29.2618 16.4268 29.3463 16.4556 29.4154 16.5086C30.7794 17.3713 31.5874 18.4486 31.5874 19.6166C31.5874 21.7246 28.952 23.536 25.1827 24.3293C24.9407 24.3766 24.7827 24.376 24.7254 24.3133C24.7038 24.2864 24.692 24.2528 24.692 24.2183C24.692 24.1838 24.7038 24.1503 24.7254 24.1233C24.7544 24.0726 24.7878 24.0247 24.8254 23.98C26.878 21.492 28.4414 17.8226 28.886 16.7633C28.9194 16.69 28.9527 16.618 28.978 16.57M22.358 23.1033C22.148 23.594 21.7854 24.6366 20.9507 25.0526C20.6862 25.1755 20.399 25.2418 20.1074 25.2473C20.0407 25.2473 19.9994 25.2473 19.9814 25.2473C17.8419 25.2636 15.7116 24.968 13.6574 24.37C13.6414 24.366 13.6 24.348 13.5907 24.3426C13.4227 24.288 13.3374 24.2093 13.3374 24.114C13.339 24.0744 13.3492 24.0357 13.3671 24.0003C13.3851 23.965 13.4104 23.934 13.4414 23.9093C13.4776 23.8732 13.5157 23.8389 13.5554 23.8066C14.7882 22.8721 16.1606 22.1375 17.622 21.63C18.5871 21.2364 19.5815 20.919 20.596 20.6806C21.2387 20.5473 23.6194 20.1826 22.3614 23.1033M19.982 26.2806C26.9654 26.2806 32.6254 23.382 32.6254 19.806C32.6254 16.23 26.9614 13.3333 19.978 13.3333C12.9947 13.3333 7.33337 16.232 7.33337 19.8066C7.33337 23.3813 12.9947 26.2813 19.978 26.2813" fill="#002361"/>
</g>
</g>
<defs>
<clipPath id="clip0_1128_6172">
<rect width="25.2873" height="12.948" fill="white" transform="translate(7.33337 13.3333)"/>
</clipPath>
</defs>
</svg>
