<svg width="72" height="54" viewBox="0 0 72 54" fill="none" xmlns="http://www.w3.org/2000/svg">
<path d="M3.19552 40.0691V38.5491H5.43552V40.0691H8.42752V41.5091H6.85952C7.21152 41.9357 7.48885 42.4424 7.69152 43.0291C7.90485 43.6157 8.01685 44.2557 8.02752 44.9491C8.01685 45.6317 7.92085 46.2611 7.73952 46.8371C7.55818 47.4131 7.30218 47.9091 6.97152 48.3251C6.64085 48.7517 6.25152 49.0824 5.80352 49.3171C5.35552 49.5517 4.85952 49.6691 4.31552 49.6691C3.75018 49.6797 3.23818 49.5677 2.77952 49.3331C2.32085 49.0877 1.93152 48.7571 1.61152 48.3411C1.28085 47.9144 1.02485 47.4131 0.843517 46.8371C0.67285 46.2611 0.587517 45.6317 0.587517 44.9491C0.587517 44.2557 0.68885 43.6157 0.891517 43.0291C1.10485 42.4424 1.38752 41.9357 1.73952 41.5091H0.267517V40.0691H3.19552ZM4.31552 41.5411C3.86752 41.5411 3.48885 41.8557 3.17952 42.4851C2.88085 43.1037 2.73685 43.9251 2.74752 44.9491C2.73685 45.9411 2.88085 46.7357 3.17952 47.3331C3.47818 47.9304 3.85152 48.2291 4.29952 48.2291C4.74752 48.2291 5.12085 47.9357 5.41952 47.3491C5.71818 46.7517 5.86752 45.9517 5.86752 44.9491C5.86752 43.8717 5.71818 43.0344 5.41952 42.4371C5.13152 41.8397 4.76352 41.5411 4.31552 41.5411ZM12.0275 44.3891V53.0291H9.86752V38.5491H12.0275V42.9491H14.1075V44.3891H12.0275Z" fill="#231F20"/>
<path d="M18.0178 47.4291H21.6498C21.8844 47.4291 22.1084 47.4291 22.3218 47.4291C22.5458 47.4291 22.7644 47.4184 22.9778 47.3971C23.1911 47.3757 23.3991 47.3384 23.6018 47.2851C23.8151 47.2211 24.0391 47.1251 24.2738 46.9971V38.5491H26.4338V42.9491H28.5138V44.3891H26.4338V53.0291H24.2738V48.4371C23.8898 48.6077 23.4578 48.7251 22.9778 48.7891C22.5084 48.8424 22.0498 48.8691 21.6018 48.8691H16.8178C16.3378 48.8691 15.9378 48.6771 15.6178 48.2931C15.3084 47.8984 15.1538 47.4291 15.1538 46.8851V39.1891H17.3138V46.8371C17.3138 47.0291 17.3724 47.1784 17.4898 47.2851C17.6071 47.3811 17.7831 47.4291 18.0178 47.4291Z" fill="#231F20"/>
<path d="M32.44 44.3891H29.4V42.9491H32.856C32.8987 42.6931 32.9307 42.4371 32.952 42.1811C32.984 41.9251 33 41.6584 33 41.3811V40.7891H29.4V39.3491H35.24V40.9651C35.2294 41.9571 35.0907 42.9064 34.824 43.8131C34.5573 44.7197 34.168 45.5411 33.656 46.2771C33.144 47.0131 32.5147 47.6424 31.768 48.1651C31.032 48.6771 30.1894 49.0397 29.24 49.2531V47.7971C29.9867 47.4771 30.6267 47.0237 31.16 46.4371C31.704 45.8397 32.1307 45.1571 32.44 44.3891ZM38.68 44.4691V53.0291H36.6V38.5491H38.68V43.0291H39.72V38.5491H41.8V53.0291H39.72V44.4691H38.68Z" fill="#231F20"/>
<path d="M43.8063 40.7891V39.3491H51.7263V40.7891H50.5263V44.6451C50.5263 45.2424 50.4996 45.7917 50.4463 46.2931C50.3929 46.7944 50.3236 47.1731 50.2383 47.4291H50.6863V48.8691H43.7263V47.4291H45.0063V40.7891H43.8063ZM47.1663 47.4291H48.0783C48.1849 47.1517 48.2596 46.7731 48.3023 46.2931C48.3449 45.8024 48.3663 45.2531 48.3663 44.6451V40.7891H47.1663V47.4291ZM49.1663 47.4291H50.2863C50.6276 47.4291 50.9476 47.4291 51.2463 47.4291C51.5556 47.4184 51.8543 47.3864 52.1423 47.3331C52.4196 47.2797 52.6916 47.1997 52.9583 47.0931C53.2249 46.9757 53.4916 46.8051 53.7583 46.5811V47.9891C53.3849 48.3411 52.8783 48.5757 52.2383 48.6931C51.6089 48.8104 50.9689 48.8691 50.3183 48.8691H49.1663V47.4291ZM55.4063 38.5491V53.0291H53.2463V38.5491H55.4063Z" fill="#231F20"/>
<path d="M69.8285 53.1891H61.8925C61.6685 53.1891 61.4552 53.1357 61.2525 53.0291C61.0499 52.9331 60.8739 52.7944 60.7245 52.6131C60.5752 52.4317 60.4525 52.2237 60.3565 51.9891C60.2712 51.7544 60.2285 51.5037 60.2285 51.2371V49.3171H67.4925V48.3731H60.2285V46.9331H69.6685V49.3971C69.6685 49.7597 69.5619 50.0797 69.3485 50.3571C69.1352 50.6237 68.8899 50.7571 68.6125 50.7571H62.3885V51.1891C62.3885 51.3597 62.4419 51.4931 62.5485 51.5891C62.6659 51.6957 62.8312 51.7491 63.0445 51.7491H69.8285V53.1891ZM58.3725 38.8691H65.1725V40.3091H60.5325V41.5091H65.0125V42.9491H60.5325V43.6371C60.5325 43.8291 60.5912 43.9784 60.7085 44.0851C60.8259 44.1811 61.0019 44.2291 61.2365 44.2291H65.0285C65.4979 44.2291 65.9192 44.2131 66.2925 44.1811C66.6765 44.1491 67.0765 44.0264 67.4925 43.8131V38.5491H69.6525V41.1891H71.7325V42.6291H69.6525V46.1491H67.4925V45.2051C67.1085 45.3864 66.7085 45.5091 66.2925 45.5731C65.8872 45.6371 65.4498 45.6691 64.9805 45.6691H60.0365C59.5565 45.6691 59.1565 45.4771 58.8365 45.0931C58.5272 44.6984 58.3725 44.2291 58.3725 43.6851V38.8691Z" fill="#231F20"/>
<path d="M40.523 19.1917C40.4484 18.725 40.3156 18.2695 40.1277 17.836C39.5802 16.5477 38.6452 15.4632 37.4536 14.7344C36.5145 14.1751 35.4416 13.8829 34.3497 13.889C33.2578 13.8952 32.1882 14.1994 31.2555 14.7693C30.3845 15.2959 29.6779 16.057 29.2161 16.9663C29.0626 17.2753 28.9334 17.5959 28.8298 17.9252C28.5471 18.7842 28.4389 19.6914 28.5117 20.5931C28.5844 21.4948 28.8367 22.3727 29.2534 23.1748C29.5426 23.6661 29.9826 24.0501 30.5074 24.2695C30.769 24.3759 31.0518 24.4196 31.3331 24.3972C31.6145 24.3748 31.8868 24.2868 32.1284 24.1402C32.3966 23.9308 32.5971 23.6464 32.7045 23.3228C32.812 22.9992 32.8216 22.6509 32.7323 22.3219C32.5225 21.4857 32.5426 20.608 32.7902 19.7824C32.8861 19.5117 33.0394 19.2652 33.2395 19.0599C33.3664 18.9394 33.5115 18.8399 33.6696 18.7653C33.999 18.5984 34.3716 18.537 34.7369 18.5895C35.0522 18.6583 35.3468 18.8009 35.5968 19.0058C35.8467 19.2106 36.0448 19.4718 36.1751 19.7681C36.4293 20.3618 36.5607 21.0011 36.5613 21.6472C36.5678 24.4984 36.1464 27.3342 35.3111 30.0593C35.2373 30.3376 35.1605 30.615 35.0807 30.8915C35.0215 31.1048 34.912 31.3762 35.0472 31.5843C35.1097 31.6712 35.1967 31.7373 35.297 31.7742C35.4855 31.8286 35.6862 31.8222 35.8709 31.7562C36.0557 31.6901 36.2152 31.5676 36.327 31.4059C37.9141 29.7035 39.0844 27.6535 39.7453 25.4184C40.0188 24.5987 40.2369 23.7615 40.3981 22.9125C40.6516 21.6886 40.6952 20.4303 40.5269 19.1917" fill="#00B2A6"/>
<path d="M52.2676 6.21394C52.2643 6.11715 52.2414 6.02206 52.2003 5.93447C52.1591 5.84688 52.1006 5.76864 52.0283 5.70452C51.956 5.64041 51.8714 5.59177 51.7797 5.56159C51.6881 5.53141 51.5912 5.52031 51.4951 5.52898C51.0936 5.58558 50.7042 5.70874 50.3428 5.89343C42.9929 8.53668 35.0994 9.28501 27.3864 8.06978C26.0847 7.88109 24.7689 7.61874 23.4595 7.41455C22.6419 7.28531 21.8334 7.09921 21.0055 7.03718C20.2639 6.89492 19.4961 7.04239 18.8592 7.44944C18.5317 7.80998 18.3283 8.26669 18.2791 8.75213C18.23 9.23757 18.3377 9.72601 18.5863 10.1453C19.1445 11.0999 19.9527 11.8825 20.9231 12.4083C21.8193 13.0496 22.8825 13.4143 23.9822 13.4577C26.8877 13.2707 29.7859 12.9894 32.6768 12.6137C37.6016 11.9676 42.7645 11.3653 47.3918 9.44873C48.9269 8.83765 50.3736 8.02312 51.6934 7.02684C51.9264 6.85107 52.2663 6.55512 52.2663 6.21135" fill="#00B2A6"/>
<path d="M31.5732 3.73373C31.5732 4.489 31.8721 5.21333 32.4041 5.74738C32.9362 6.28144 33.6578 6.58146 34.4102 6.58146C35.1626 6.58146 35.8843 6.28144 36.4163 5.74738C36.9484 5.21333 37.2473 4.489 37.2473 3.73373C37.2468 3.49732 37.1945 3.2639 37.094 3.05007C36.8507 2.53312 36.579 2.28111 36.6061 1.66077C36.6434 0.82461 35.5748 0.812978 34.9993 0.812978C34.3589 0.792211 33.7223 0.919561 33.1388 1.18518C32.6774 1.41666 32.2876 1.77024 32.0117 2.20776C31.7358 2.64528 31.5842 3.15013 31.5732 3.66782V3.73373Z" fill="#EF4567"/>
</svg>
