<svg width="40" height="40" viewBox="0 0 40 40" fill="none" xmlns="http://www.w3.org/2000/svg">
<circle cx="20" cy="20" r="20" fill="#DFE5EF"/>
<g clip-path="url(#clip0_1137_6832)">
<path d="M20.0142 30.8255C14.0683 30.8255 9.19702 25.9303 9.19702 19.9844C9.19702 18.6472 9.43581 17.3816 9.88951 16.1877L16.2175 28.9152C16.2891 29.0823 16.4085 29.2256 16.5995 29.2256C16.7906 29.2256 16.9099 29.0823 16.9816 28.9152L19.8948 22.3962C19.9187 22.3246 19.9665 22.2529 20.0381 22.2529C20.1097 22.2529 20.1336 22.3246 20.1814 22.3962L23.0946 28.9152C23.1663 29.0823 23.2857 29.2256 23.4767 29.2256C23.6677 29.2256 23.7871 29.0823 23.8587 28.9152L30.1867 16.1877C30.6404 17.3816 30.8792 18.6472 30.8792 19.9844C30.8314 25.9303 25.9601 30.8255 20.0142 30.8255ZM20.0142 17.5249C19.9426 17.5249 19.9187 17.4533 19.8709 17.3816L16.4801 9.74033C17.5786 9.33439 18.7725 9.11948 20.0142 9.11948C21.2559 9.11948 22.4499 9.33439 23.5483 9.74033L20.1575 17.3816C20.1097 17.4771 20.0859 17.5249 20.0142 17.5249ZM16.5518 25.3811C16.4801 25.3811 16.4562 25.3095 16.4085 25.2378L10.9163 14.158C11.8954 12.6536 13.2087 11.388 14.8086 10.5045L18.7725 19.3158C18.8203 19.4591 18.9397 19.5069 19.0591 19.5069H20.9694C21.1127 19.5069 21.2082 19.483 21.2798 19.3158L25.2437 10.5045C26.8197 11.388 28.157 12.6536 29.136 14.158L23.5961 25.2378C23.5722 25.3095 23.5244 25.3811 23.4528 25.3811C23.3812 25.3811 23.3573 25.3095 23.3095 25.2378L21.2321 20.5098C21.1604 20.3426 21.0649 20.3187 20.9216 20.3187H19.0113C18.868 20.3187 18.7725 20.3426 18.7009 20.5098L16.695 25.2378C16.6712 25.3095 16.6234 25.3811 16.5518 25.3811ZM20.0142 31.924C26.6287 31.924 31.9537 26.5989 31.9537 19.9844C31.9537 13.3699 26.6287 8.04492 20.0142 8.04492C13.3997 8.04492 8.07471 13.3699 8.07471 19.9844C8.07471 26.5989 13.3997 31.924 20.0142 31.924Z" fill="#001E50"/>
</g>
<defs>
<clipPath id="clip0_1137_6832">
<rect width="24" height="24" fill="white" transform="translate(8 8)"/>
</clipPath>
</defs>
</svg>
