<svg width="40" height="40" viewBox="0 0 40 40" fill="none" xmlns="http://www.w3.org/2000/svg">
<circle cx="20" cy="20" r="20" fill="#E2E4EF"/>
<g clip-path="url(#clip0_1137_6861)">
<path d="M30.2779 14.6666C29.0023 14.6666 27.8178 15.0871 26.8519 15.8C25.8861 15.0871 24.7016 14.6666 23.426 14.6666C22.1503 14.6666 20.9658 15.0871 20 15.8C19.0342 15.0871 17.8679 14.6666 16.574 14.6666C15.2984 14.6666 14.1139 15.0871 13.1481 15.8C12.2005 15.0871 11.0159 14.6666 9.72209 14.6666C6.56947 14.6666 4 17.2075 4 20.3333C4 23.4591 6.56947 26 9.72209 26C10.9977 26 12.1822 25.5795 13.1481 24.8666C14.1139 25.5795 15.2984 26 16.574 26C17.8497 26 19.0342 25.5795 20 24.8666C20.9476 25.5795 22.1321 26 23.426 26C24.7016 26 25.8861 25.5795 26.8519 24.8666C27.7995 25.5795 28.9841 26 30.2779 26C33.4305 26 36 23.4591 36 20.3333C36 17.2075 33.4305 14.6666 30.2779 14.6666ZM26.8519 23.258C26.1595 22.472 25.7403 21.4483 25.7403 20.3333C25.7403 19.2182 26.1595 18.1946 26.8519 17.4086C27.5444 18.1946 27.9636 19.2182 27.9636 20.3333C27.9636 21.4483 27.5444 22.472 26.8519 23.258ZM20 23.258C19.3075 22.472 18.8884 21.4483 18.8884 20.3333C18.8884 19.2182 19.3075 18.1946 20 17.4086C20.6925 18.1946 21.1116 19.2182 21.1116 20.3333C21.1116 21.4483 20.6925 22.472 20 23.258ZM13.1481 23.258C12.4556 22.472 12.0364 21.4483 12.0364 20.3333C12.0364 19.2182 12.4556 18.1946 13.1481 17.4086C13.8405 18.1946 14.2597 19.2182 14.2597 20.3333C14.2779 21.4483 13.8405 22.472 13.1481 23.258ZM5.18451 20.3333C5.18451 17.8656 7.22551 15.8548 9.72209 15.8548C10.6515 15.8548 11.5262 16.129 12.2551 16.6225C11.3804 17.6096 10.8519 18.9075 10.8519 20.3333C10.8519 21.7591 11.3804 23.057 12.2551 24.044C11.5262 24.5193 10.6697 24.8118 9.72209 24.8118C7.22551 24.8118 5.18451 22.801 5.18451 20.3333ZM14.041 24.044C14.9157 23.057 15.4442 21.7591 15.4442 20.3333C15.4442 18.9075 14.9157 17.6096 14.041 16.6225C14.7699 16.1473 15.6264 15.8548 16.574 15.8548C17.5216 15.8548 18.3781 16.129 19.1071 16.6225C18.2323 17.6096 17.6856 18.9075 17.6856 20.3333C17.6856 21.7591 18.2141 23.057 19.1071 24.044C18.3781 24.5193 17.5216 24.8118 16.574 24.8118C15.6446 24.8118 14.7699 24.5193 14.041 24.044ZM20.8929 24.044C21.7677 23.057 22.3143 21.7591 22.3143 20.3333C22.3143 18.9075 21.7859 17.6096 20.8929 16.6225C21.6219 16.1473 22.4784 15.8548 23.426 15.8548C24.3736 15.8548 25.2301 16.129 25.959 16.6225C25.0843 17.6096 24.5376 18.9075 24.5376 20.3333C24.5376 21.7591 25.0661 23.057 25.959 24.044C25.2301 24.5193 24.3736 24.8118 23.426 24.8118C22.4784 24.8118 21.6219 24.5193 20.8929 24.044ZM30.2779 24.8118C29.3485 24.8118 28.4738 24.5376 27.7449 24.044C28.6196 23.057 29.1663 21.7591 29.1663 20.3333C29.1663 18.9075 28.6378 17.6096 27.7449 16.6225C28.4738 16.1473 29.3303 15.8548 30.2779 15.8548C32.7745 15.8548 34.8155 17.8656 34.8155 20.3333C34.8155 22.801 32.7745 24.8118 30.2779 24.8118Z" fill="black"/>
</g>
<defs>
<clipPath id="clip0_1137_6861">
<rect width="32" height="11.3333" fill="white" transform="translate(4 14.6667)"/>
</clipPath>
</defs>
</svg>
