<svg width="36" height="36" viewBox="0 0 36 36" fill="none" xmlns="http://www.w3.org/2000/svg">
<path d="M2.25 21.75V14.4382H2.98009V21.0804H5.48558V21.7496L2.25 21.75ZM7.24991 14.8043C7.86878 14.4458 8.57687 14.2544 9.29956 14.25C10.0467 14.2479 10.7806 14.4393 11.4238 14.8043C12.0184 15.1059 12.5125 15.5621 12.8496 16.1208C13.1868 16.6794 13.3534 17.3179 13.3304 17.9632C13.3607 18.5937 13.2127 19.2203 12.902 19.7765C12.5912 20.3327 12.1295 20.7977 11.5657 21.1222C10.9043 21.5345 10.132 21.7526 9.34343 21.7496C8.59891 21.7583 7.86677 21.5663 7.23024 21.1954C6.65387 20.8646 6.17707 20.3955 5.84669 19.8342C5.51631 19.2729 5.34374 18.6386 5.34593 17.9939C5.34812 17.3491 5.52501 16.716 5.85919 16.1568C6.19338 15.5975 6.67336 15.1314 7.25196 14.8043H7.24991ZM6.139 17.9845C6.13536 18.4931 6.25848 18.9952 6.4981 19.4488C6.77531 19.9394 7.18527 20.3489 7.68473 20.6344C8.18419 20.9198 8.75463 21.0704 9.33584 21.0704C9.91706 21.0704 10.4875 20.9198 10.987 20.6344C11.4864 20.3489 11.8964 19.9394 12.1736 19.4488C12.4142 18.9917 12.5375 18.486 12.5331 17.9738C12.5378 17.5524 12.4542 17.1343 12.2871 16.7445C12.1347 16.3839 11.9074 16.057 11.6189 15.7836C11.3305 15.5103 10.9871 15.2963 10.6097 15.1546C10.2051 15.0019 9.77362 14.9256 9.33892 14.9298C8.76648 14.8929 8.19543 15.0191 7.69741 15.2927C7.19939 15.5662 6.79658 15.9749 6.53951 16.4674C6.27919 16.9342 6.1417 17.455 6.139 17.9845ZM13.4251 21.7386L14.8955 14.448H14.939L17.5314 20.1164H17.5424C17.5498 20.1164 17.5605 20.1093 17.5756 20.0952L20.0701 14.4783C20.0844 14.4571 20.0951 14.4468 20.1024 14.4468C20.1172 14.4468 20.1246 14.4504 20.1246 14.4571L21.6061 21.7374H20.876L19.8958 16.6327H19.8737L17.5424 21.748H17.5314L15.1681 16.6855H15.146L14.1982 21.7386H13.4251ZM28.9659 14.4488H31.0566C31.8674 14.4696 32.6423 14.7747 33.235 15.3065C33.6434 15.6474 33.9658 16.0731 34.1778 16.5512C34.3909 17.0269 34.5002 17.5395 34.4992 18.0573C34.5288 18.6446 34.4036 19.2296 34.1351 19.7581C33.8666 20.2866 33.4635 20.7414 32.9632 21.0804C32.3951 21.4959 31.7056 21.7299 30.9918 21.7496H28.9655L28.9659 14.4488ZM29.7174 15.1392V21.0596H31.0701C31.6404 21.0277 32.1822 20.81 32.6061 20.4423C32.9666 20.1591 33.253 19.7987 33.4421 19.3899C33.6313 18.9812 33.718 18.5355 33.6953 18.0888C33.7014 17.5402 33.5589 16.9995 33.2817 16.5197C33.0531 16.1293 32.7321 15.796 32.3446 15.5467C32.15 15.4219 31.9395 15.3217 31.7182 15.2487C31.4992 15.1759 31.2691 15.1387 31.0373 15.1389L29.7174 15.1392ZM27.6263 21.7496H28.4216L25.2917 14.4067L25.2696 14.4173L22.1505 21.7496H22.9019L23.4266 20.4475H27.1012L27.6263 21.7496ZM23.6721 19.8397L25.259 15.9033H25.27L26.8569 19.8397H23.6721Z" fill="black"/>
</svg>
