<svg width="36" height="36" viewBox="0 0 36 36" fill="none" xmlns="http://www.w3.org/2000/svg">
<g clip-path="url(#clip0_6660_159150)">
<path d="M10.2962 16.625C9.6366 16.625 9.16489 16.8235 8.78084 17.3276C8.53455 16.8866 8.03363 16.625 7.33442 16.625C6.80218 16.625 6.17393 16.877 5.92764 17.2723V16.7586H4.5V21.2344H5.99652V18.6585C5.99652 18.2537 6.28247 17.8833 6.80427 17.8833C7.32607 17.8833 7.59114 18.2174 7.59114 18.6394V21.2325H9.06679V18.649C9.06679 18.2537 9.35274 17.8833 9.88288 17.8833C10.413 17.8833 10.6593 18.2174 10.6593 18.6394V21.2325H12.1058V18.3339C12.1058 17.1176 11.2208 16.623 10.2941 16.623L10.2962 16.625Z" fill="#EF3B24"/>
<path d="M19.5011 17.3621V16.7588H18.0547V21.2345H19.5512V19.2811C19.5512 18.3894 20.0918 18.0648 20.6929 18.0648C20.8411 18.0648 20.9976 18.0744 21.1646 18.1106V16.7607C21.0665 16.7339 20.9183 16.7148 20.7701 16.7148C20.3757 16.7148 19.7558 16.8581 19.5011 17.3641V17.3621Z" fill="#EF3B24"/>
<path d="M23.1762 16.7588H21.6797V21.2345H23.1762V16.7588Z" fill="#EF3B24"/>
<path d="M25.8809 15.455H24.543V16.0317C24.543 16.446 24.2967 16.7611 23.7854 16.7611H23.5391V17.9583H24.4053V19.8754C24.4053 20.7671 25.0251 21.3151 26.0395 21.3151C26.5112 21.3151 26.7575 21.2158 26.8181 21.1891V20.0549C26.7283 20.0721 26.5822 20.0988 26.4236 20.0988C26.098 20.0988 25.883 19.9995 25.883 19.631V17.9564H26.8368V16.7592H25.883V15.4531L25.8809 15.455Z" fill="#EF3B24"/>
<path d="M22.4148 14.25C21.8951 14.25 21.4609 14.6472 21.4609 15.1322C21.4609 15.6172 21.8951 16.0143 22.4148 16.0143C22.9345 16.0143 23.3895 15.6172 23.3895 15.1322C23.3895 14.6472 22.9554 14.25 22.4148 14.25Z" fill="#EF3B24"/>
<path d="M15.0629 16.5986C13.7793 16.5986 12.5938 17.5266 12.5938 18.9835C12.5938 20.4404 13.8085 21.3971 15.1714 21.3971C16.2923 21.3971 17.0395 20.872 17.3546 20.2018L16.1169 19.7721C15.9541 20.0471 15.6619 20.2228 15.1902 20.2228C14.6037 20.2228 14.0965 19.8581 14.0652 19.3482H17.5091C17.5195 19.3215 17.5383 19.1115 17.5383 18.9205C17.5383 17.4636 16.5928 16.5986 15.0608 16.5986H15.0629ZM14.0986 18.4565C14.1278 18.1205 14.4472 17.6908 15.0838 17.6908C15.7997 17.6908 16.0585 18.109 16.0794 18.4565H14.0986Z" fill="#EF3B24"/>
<path d="M29.2289 20.0373L31.4622 17.8854V16.7588H27.4569V17.9312V17.9579H29.5253L27.3984 20.0278V21.2345H31.5019V20.0545V20.0373H29.2289Z" fill="#EF3B24"/>
</g>
<defs>
<clipPath id="clip0_6660_159150">
<rect width="27" height="7.14706" fill="white" transform="translate(4.5 14.25)"/>
</clipPath>
</defs>
</svg>
