<svg width="36" height="36" viewBox="0 0 36 36" fill="none" xmlns="http://www.w3.org/2000/svg">
<path d="M5.68757 22.6035H6.20613L5.58968 25.4893H5.07031L5.68757 22.6035Z" fill="#898989"/>
<path d="M7.55947 22.6035H8.34985L8.6969 24.6241L9.91685 22.6035H10.7L10.0827 25.4893H9.5876L10.1013 23.0921H10.0924L8.69286 25.4893H8.33043L7.95749 23.0921H7.9494L7.4357 25.4893H6.94141L7.55947 22.6035Z" fill="#898989"/>
<path d="M12.004 22.6043H12.9861C13.5499 22.6043 14.02 22.7994 13.8824 23.4399C13.7279 24.1644 13.1519 24.2947 12.5322 24.2947H12.1617L11.9069 25.4901H11.3867L12.004 22.6035M12.5703 23.8549C12.8672 23.8549 13.2539 23.8381 13.3364 23.4463C13.4124 23.0921 13.0807 23.0433 12.8 23.0433H12.4295L12.2556 23.8549H12.5686H12.5703Z" fill="#898989"/>
<path d="M15.05 22.6035H15.5694L15.0517 25.0231H16.2926L16.1939 25.4893H14.4336L15.05 22.6035Z" fill="#898989"/>
<path d="M18.778 22.6035H19.227L19.8669 25.4901H19.2723L19.142 24.828H17.876L17.4707 25.4901H16.8906L18.7772 22.6035M19.0547 24.3874L18.8565 23.2136L18.147 24.3874H19.0547Z" fill="#898989"/>
<path d="M21.2813 22.6035H21.969L22.9252 24.7457L22.9316 24.7545H22.9228L22.9333 24.7457L23.3912 22.6035H23.9113L23.2941 25.4893H22.6348L21.6648 23.276H21.6567L21.1834 25.4893H20.6641L21.2813 22.6035Z" fill="#898989"/>
<path d="M25.5315 23.0681H24.6367L24.737 22.6035H27.0451L26.9456 23.0681H26.0508L25.5331 25.4893H25.0137L25.5315 23.0681Z" fill="#898989"/>
<path d="M15.377 15.0875C15.3527 15.0708 14.7711 14.6533 13.6499 14.6533C13.0707 14.6533 11.6655 14.8085 11.3719 16.2414C11.24 16.8883 11.5693 17.4521 12.2536 17.8767C12.6832 18.143 13.4606 18.6212 13.3085 19.1961C13.1961 19.6223 12.6953 19.7878 12.1315 19.8014C11.5426 19.8158 10.6924 19.4544 10.656 18.9706C10.6616 18.9002 10.6705 18.7579 10.6705 18.6771C10.6705 18.063 10.2984 17.4465 9.52747 16.9739C8.69506 16.4637 8.4459 16.2238 8.4459 15.8656C8.4459 15.8232 8.44995 15.7776 8.45561 15.7321C8.51224 15.3242 8.90053 15.0132 9.48217 15.0084C10.2887 15.002 10.9019 15.477 10.9059 15.481L11.3322 14.3687C11.3322 14.3687 10.6309 13.8457 9.41098 13.8457C8.33912 13.8457 7.00759 14.3631 6.85469 15.8184C6.78593 16.4749 7.1176 17.0643 7.74292 17.4761C8.21131 17.7855 9.13675 18.3621 8.90862 19.037C8.76625 19.4592 8.35207 19.7239 7.68711 19.7239C7.02215 19.7239 6.64437 19.4872 6.42757 19.3073C6.19944 19.1169 6.09994 18.8491 6.07891 18.7875C6.11369 18.6627 6.2229 18.4484 6.29086 17.7951C6.30703 17.6376 6.3224 17.4833 6.3224 17.3329C6.3224 16.6724 6.11855 16.0847 5.72135 15.6129C5.22385 15.0228 4.45615 14.6781 3.61484 14.6685C1.77529 14.6605 0.492289 15.7153 0.093476 17.5608C-0.119278 18.5484 0.0328046 19.4024 0.532737 20.0293C1.03914 20.6642 1.71462 20.9745 2.5988 20.9793C3.28398 20.9873 4.49822 20.8298 5.40748 19.9142C5.9066 20.6235 7.03671 20.9441 7.68144 20.9729C8.43539 21.0065 9.32281 20.9433 10.1471 20.1325C10.3291 20.3652 10.9634 20.9393 12.2197 20.9777C13.717 21.0233 14.7606 20.378 14.9167 19.2577C15.0267 18.4668 14.6716 17.7735 13.7324 17.2466C12.9793 16.8236 12.832 16.6524 12.9194 16.2942C13.006 15.9392 13.4646 15.8216 13.8327 15.808C14.547 15.7816 15.0502 16.2046 15.055 16.2086L15.1092 16.2494L15.4013 15.1051L15.3762 15.0875M2.71286 19.8454C2.37068 19.8318 2.10857 19.7135 1.93384 19.4944C1.5504 19.0122 1.65394 18.155 1.7494 17.6872C1.97833 16.5685 2.67969 15.8168 3.49431 15.8168C3.8551 15.8168 4.13338 15.9232 4.31782 16.1335C4.60015 16.4525 4.68266 17.0059 4.57021 17.8223C4.50307 18.3109 4.16978 19.9006 2.71286 19.8462V19.8454Z" fill="#EB6100"/>
<path d="M15.8954 15.0547L15.6641 16.2653H17.329C17.3071 16.3716 16.3695 20.8167 16.3695 20.8167H17.9899C17.9899 20.8167 18.9364 16.3349 18.9518 16.2653H20.5875L20.823 15.0547H15.8946H15.8954Z" fill="#EB6100"/>
<path d="M30.2145 15.0586C30.2145 15.0586 28.6111 17.7325 28.5019 17.906C28.4566 17.7093 27.8045 15.0586 27.8045 15.0586H26.2828L25.0977 20.8166H26.2852C26.2852 20.8166 26.926 17.6477 27.002 17.2695C27.0829 17.6421 27.7843 20.4344 27.7843 20.4344L28.175 20.4304C28.175 20.4304 29.7833 17.7421 30.0211 17.3439C29.9281 17.7949 29.3036 20.8166 29.3036 20.8166H30.7258L31.9101 15.0586H30.2145Z" fill="#EB6100"/>
<path d="M25.127 16.2269L25.3721 15.0547H21.3782L20.1914 20.8167H24.1926L24.4232 19.6508H21.9445C21.9647 19.5541 22.1912 18.461 22.2042 18.3955H24.4887L24.7185 17.244H22.4388C22.4582 17.1505 22.637 16.2909 22.6499 16.2269H25.127Z" fill="#EB6100"/>
<path d="M35.9368 14.0399C35.8842 13.8512 35.724 13.6193 35.5719 13.4754C35.1958 13.1187 34.5874 13.0428 34.0907 13.3754C33.9289 13.4841 33.8027 13.6457 33.7776 13.7224C33.759 13.7784 33.7897 13.7904 33.8148 13.7688C33.8617 13.7272 33.9006 13.6848 33.9532 13.6473C34.2735 13.4194 34.7581 13.4993 34.9959 13.8496C35.233 14.199 35.1432 14.6588 34.7735 14.8675C34.3496 15.1074 33.7566 14.9682 33.5236 14.4397C33.3569 14.0607 33.3998 13.4833 33.8634 13.0955C34.1773 12.8341 34.5599 12.7637 34.915 12.8133C35.0712 12.8349 35.2597 12.906 35.343 12.9556C35.449 13.0188 35.4587 12.8988 35.1844 12.7653C34.6626 12.5102 33.9483 12.5462 33.4192 12.8972C32.6491 13.4082 32.4444 14.4381 32.9605 15.1993C33.4767 15.9613 34.5195 16.1636 35.2896 15.6527C35.8769 15.2633 36.1245 14.7044 35.9368 14.0399Z" fill="#EB6100"/>
</svg>
