<svg width="60" height="60" viewBox="0 0 60 60" fill="none" xmlns="http://www.w3.org/2000/svg">
<g clip-path="url(#clip0_5058_40351)">
<path d="M5.80679 32.1324C5.77555 32.0426 5.73315 31.9102 5.69893 31.8211C5.57916 31.5083 5.45791 31.1954 5.33665 30.8833C5.21837 30.578 5.08894 30.2764 4.98182 29.9665C4.85163 29.5908 4.72889 29.2121 4.62475 28.8282C4.55557 28.573 4.52953 28.3066 4.47671 28.0461C4.42836 27.8104 4.42613 27.5724 4.43431 27.3351C4.45514 26.7342 4.68723 26.2387 5.16332 25.8563C5.42815 25.643 5.71306 25.4828 6.04632 25.4177C6.40265 25.3481 6.6883 25.4484 6.84377 25.7994C7.00669 26.1669 7.02008 26.5545 6.99255 26.946C6.97619 27.1795 6.94866 27.413 6.91296 27.6442C6.8646 27.9586 6.8103 28.2729 6.74632 28.5842C6.53357 29.614 6.25461 30.6266 5.94887 31.6317C5.9035 31.7807 5.82018 32.1302 5.80753 32.1324H5.80679Z" fill="url(#paint0_linear_5058_40351)"/>
<path d="M2.17592 31.3165C2.04351 31.208 1.90292 31.1077 1.78017 30.9887C1.63586 30.8472 1.55701 30.6586 1.53692 30.4633C1.51386 30.2373 1.51386 30.0045 1.53618 29.7785C1.56965 29.441 1.71322 29.1386 1.90366 28.8617C2.03979 28.6641 2.20122 28.483 2.42364 28.385C2.70037 28.2622 2.98751 28.278 3.23076 28.5092C3.41896 28.6888 3.53427 28.9178 3.6466 29.1431C3.86827 29.5877 4.07284 30.0405 4.26849 30.4962C4.54596 31.1421 5.11875 32.5544 5.15892 32.618C5.10313 32.6135 4.43958 32.3351 4.13979 32.2266C3.84373 32.1188 3.53873 32.032 3.24861 31.9107C2.9942 31.8045 2.75393 31.663 2.50919 31.535C2.4095 31.4826 2.18336 31.3262 2.17592 31.3172V31.3165Z" fill="url(#paint1_linear_5058_40351)"/>
<path d="M10.323 30.8795C10.1608 30.9678 9.99788 31.0561 9.83571 31.1444C9.66536 31.238 9.49427 31.3323 9.32391 31.4258C9.16993 31.5179 9.01594 31.6107 8.86196 31.7027C8.68491 31.8053 8.50787 31.9078 8.33008 32.0111C8.30702 32.0223 8.28321 32.032 8.26164 32.0448C7.91499 32.2528 7.56759 32.4601 7.22242 32.6697C7.11233 32.7363 7.00669 32.8096 6.88916 32.886C6.92338 32.9054 6.94049 32.9197 6.96057 32.9264C7.21945 33.0095 7.47832 33.0918 7.7372 33.1749C8.00128 33.2587 8.26536 33.3433 8.52944 33.4271C8.72136 33.4914 8.91403 33.5551 9.10595 33.6194C9.14464 33.6291 9.18332 33.6374 9.222 33.6486C9.38268 33.6965 9.54336 33.7459 9.70404 33.7945C9.71074 33.7983 9.71743 33.802 9.72413 33.8058C9.73157 33.811 9.73901 33.8162 9.74644 33.8215C9.78587 33.8305 9.8253 33.838 9.86398 33.8492C9.9949 33.8866 10.1251 33.9248 10.256 33.9629C10.4405 34.0138 10.625 34.0655 10.8102 34.1164C10.8176 34.1223 10.8251 34.1283 10.8318 34.1343C10.9575 34.1628 11.0832 34.1912 11.2089 34.2189C11.3711 34.2593 11.5333 34.2997 11.6947 34.3401C11.8725 34.382 12.0495 34.4247 12.2273 34.4666C12.292 34.4734 12.3568 34.4778 12.4207 34.4883C12.5926 34.5168 12.7644 34.5474 12.9362 34.5781C13.1274 34.5953 13.7887 34.6664 13.9286 34.6687C14.093 34.6709 14.2581 34.6612 14.4218 34.6447C14.5758 34.629 14.7305 34.5998 14.88 34.5691C15.2341 34.4973 15.371 34.412 15.6143 34.302C15.9326 34.1575 16.2012 33.8978 16.4236 33.6284C16.8692 33.0895 17.1125 32.4901 17.015 31.7731C16.9652 31.4049 16.8476 31.0673 16.6289 30.7717C16.4132 30.4798 16.1677 30.2112 15.8419 30.039C15.6567 29.941 15.464 29.8422 15.2624 29.7928C14.9574 29.7187 14.6427 29.6738 14.3296 29.6431C14.1652 29.6267 13.3179 29.7479 13.0701 29.819C12.8492 29.8804 12.6275 29.9425 12.4066 30.0039C12.1775 30.0839 11.9491 30.1648 11.72 30.2448C11.5281 30.3227 11.3354 30.4013 11.1435 30.4791C11.0326 30.5322 10.9225 30.5854 10.8117 30.6385C10.8028 30.6437 10.7938 30.649 10.7849 30.6535C10.7849 30.6535 10.7849 30.6527 10.7849 30.652C10.6317 30.7283 10.4784 30.8054 10.3252 30.8817" fill="url(#paint2_linear_5058_40351)"/>
<path d="M7.14278 31.8054C7.42695 31.6063 7.7126 31.4087 7.99751 31.2104C8.25639 31.0345 8.51601 30.8586 8.77488 30.6828C9.08434 30.4665 9.3938 30.2502 9.70326 30.0346C10.1384 29.6904 10.5825 29.3566 11.0066 28.9981C11.3435 28.7129 11.6612 28.4039 11.9215 28.0424C12.0525 27.8613 12.199 27.6899 12.3143 27.499C12.504 27.184 12.5769 26.8344 12.562 26.4662C12.5434 26.0262 12.3589 25.6654 12.0294 25.3863C11.6284 25.0465 11.1561 24.9544 10.6406 25.0218C10.1042 25.0921 9.64969 25.3279 9.25915 25.6871C8.93333 25.9872 8.68338 26.3555 8.46914 26.7401C8.2735 27.0919 8.11207 27.4624 7.94246 27.8283C7.87775 27.9683 7.83163 28.1172 7.77658 28.2617C7.7126 28.4413 7.64268 28.6187 7.58465 28.8005C7.49167 29.0931 6.93077 31.0637 6.85267 31.3346C6.7753 31.6003 6.69942 31.8667 6.6228 32.1332" fill="url(#paint3_linear_5058_40351)"/>
<path d="M4.7066 33.3583C4.53848 33.3 4.37259 33.2334 4.20447 33.1757C4.07503 33.1308 3.74772 33.0186 3.7135 33.0073C3.3728 32.8898 3.03284 32.7678 2.68917 32.6586C2.22349 32.5111 1.75112 32.3929 1.25643 32.4311C0.897132 32.4588 0.57354 32.5635 0.347397 32.8726C0.12423 33.178 0.0185973 33.5207 0 33.8942V33.9384C0 33.9533 0 33.9683 0 33.9825C0 34.1157 0 34.2489 0 34.3814C0.0126461 34.6808 0.0773646 34.9584 0.31541 35.1665C0.320617 35.171 0.325824 35.1755 0.330288 35.1807C0.425506 35.2294 0.511797 35.2877 0.628588 35.2937C0.968546 35.3094 1.28247 35.2264 1.58672 35.0842C1.91477 34.9307 2.24878 34.79 2.57386 34.6314C3.01871 34.4143 3.45835 34.1846 3.90022 33.9601C4.2186 33.7842 4.53699 33.6083 4.85537 33.4324C4.85166 33.413 4.749 33.3726 4.70585 33.3576L4.7066 33.3583Z" fill="url(#paint4_linear_5058_40351)"/>
<path d="M19.9951 27.0259C19.9914 27.0693 19.9877 27.1127 19.984 27.1561C19.9453 27.1067 19.9498 27.0543 19.9951 27.0259Z" fill="#CBC8DC"/>
<path d="M19.9949 30.4485C19.9905 30.4859 19.986 30.5233 19.9815 30.5607C19.9444 30.5181 19.9243 30.4784 19.9949 30.4485Z" fill="#CBC8DC"/>
<path d="M19.6975 33.4248C19.6937 33.4428 19.6908 33.4615 19.687 33.4794C19.6595 33.4555 19.6372 33.4323 19.6975 33.4248Z" fill="#CBC8DC"/>
<path d="M19.6872 34.239C19.6872 34.2532 19.6857 34.2667 19.6857 34.2809C19.6775 34.275 19.6693 34.269 19.6611 34.263C19.6701 34.2547 19.679 34.2465 19.6879 34.2383L19.6872 34.239Z" fill="#CBC8DC"/>
<path d="M19.984 27.8396C19.984 27.8471 19.9825 27.8553 19.9825 27.8628C19.9758 27.8583 19.9684 27.8546 19.9617 27.8501C19.9691 27.8463 19.9765 27.8426 19.9847 27.8396H19.984Z" fill="#CBC8DC"/>
<path d="M19.9855 31.2627C19.9855 31.2702 19.9855 31.2777 19.9855 31.2851C19.978 31.2814 19.9706 31.2777 19.9631 31.2739C19.9706 31.2702 19.978 31.2664 19.9855 31.2627Z" fill="#CBC8DC"/>
<path d="M20.8818 27.9419C20.8878 27.9464 20.8937 27.9501 20.8989 27.9546C20.893 27.9501 20.887 27.9464 20.8818 27.9419Z" fill="#CBC8DC"/>
<path d="M0.31543 35.168C0.320637 35.1725 0.325844 35.1769 0.330308 35.1822C0.323613 35.1792 0.319149 35.174 0.31543 35.168Z" fill="#FEFEFE"/>
<path d="M19.6842 33.5146C19.6842 33.5214 19.6842 33.5281 19.6842 33.5349C19.6819 33.5304 19.6797 33.5259 19.6782 33.5206C19.6782 33.5191 19.6819 33.5169 19.6834 33.5146H19.6842Z" fill="#CBC8DC"/>
<path d="M19.6938 34.3313C19.6991 34.3328 19.7043 34.3343 19.7087 34.3365H19.7005L19.6938 34.3313Z" fill="#CBC8DC"/>
<path d="M10.8102 30.6362C10.8013 30.6415 10.7924 30.6467 10.7827 30.6519C10.7916 30.6467 10.8006 30.6415 10.8102 30.6362Z" fill="#EF5447"/>
<path d="M59.9256 30.7756C59.8281 30.7405 59.7299 30.7075 59.6332 30.6694C59.0656 30.4441 58.5345 30.1634 58.0941 29.7264C57.8003 29.4345 57.563 29.1074 57.3785 28.737C57.2305 28.4391 57.1405 28.124 57.0854 27.7992C57.0549 27.6188 57.0452 27.4347 57.0281 27.2521C57.0177 27.1466 57.011 27.0403 57.0028 26.9355H55.7933C55.7836 27.0837 55.768 27.2267 55.7657 27.3704C55.7605 27.7049 55.6653 28.0222 55.5783 28.3388C55.5054 28.6045 55.3737 28.8462 55.2175 29.0723C55.1148 29.2204 55.0003 29.3604 54.8857 29.4996C54.7972 29.6074 54.7124 29.7219 54.606 29.8094C54.4327 29.9524 54.2489 30.0849 54.0607 30.2068C53.7267 30.4231 53.3719 30.602 53 30.7442C52.9449 30.7652 52.8921 30.7936 52.8289 30.8228C52.9888 31.0608 53.1428 31.2913 53.3012 31.5188C53.3131 31.536 53.3615 31.5465 53.3808 31.5368C53.6003 31.429 53.8443 31.3863 54.063 31.2718C54.3293 31.1319 54.6157 31.0301 54.8775 30.8819C55.1133 30.7487 55.3328 30.5825 55.55 30.4179C55.8691 30.1754 56.1295 29.8768 56.3445 29.5385C56.378 29.4861 56.3995 29.4831 56.4382 29.5303C56.5855 29.7106 56.7313 29.8925 56.8846 30.0676C57.1546 30.376 57.4834 30.6155 57.833 30.8198C58.1016 30.977 58.385 31.1102 58.6684 31.2374C58.9131 31.3467 59.1683 31.4342 59.4197 31.5285C59.442 31.5368 59.4852 31.5375 59.4956 31.524C59.6131 31.3721 59.7232 31.2142 59.8408 31.0623C59.8876 31.0009 59.9464 30.9493 60 30.8931V30.8003C59.9754 30.7921 59.9501 30.7846 59.9256 30.7764V30.7756Z" fill="#122B85"/>
<path d="M51.1804 31.8413C51.1559 31.8428 51.1306 31.8413 51.106 31.8413C49.1563 31.8413 47.2065 31.8413 45.2568 31.8413H45.1415C45.1415 32.101 45.1415 32.351 45.1415 32.6017C45.1415 32.6324 45.1452 32.666 45.1341 32.693C45.108 32.7574 45.1378 32.7731 45.1921 32.7708C45.2962 32.7663 45.4011 32.7559 45.5053 32.7551C46.8822 32.7536 48.2599 32.7536 49.6368 32.7536C49.7789 32.7536 49.9217 32.7559 50.0638 32.7566C50.0713 32.7603 50.078 32.7641 50.0854 32.7678C50.0839 32.7738 50.0832 32.7798 50.0817 32.7858C50.0869 32.8621 50.0973 32.9377 50.0973 33.0141C50.1003 33.627 50.101 34.2399 50.1018 34.8536C50.0951 34.8664 50.0884 34.8791 50.0817 34.8918H51.3076C51.3121 34.8798 51.3173 34.8679 51.3217 34.8559C51.2853 34.8507 51.2488 34.8424 51.2124 34.8357C51.2488 34.8424 51.2853 34.8499 51.3217 34.8559C51.324 34.704 51.3284 34.552 51.3292 34.4009C51.3299 33.5978 51.3292 32.7955 51.3299 31.9925C51.3299 31.8338 51.3322 31.8338 51.1804 31.8413Z" fill="#122B85"/>
<path d="M26.6246 33.4235C25.7431 33.4227 24.8608 33.4212 23.9793 33.4249C23.8916 33.4249 23.8715 33.3995 23.8722 33.3157C23.8759 32.705 23.8737 32.095 23.8744 31.4843C23.8744 31.3631 23.8774 31.3616 24.0002 31.3616C24.7954 31.3616 25.5906 31.3608 26.3858 31.3631C26.4543 31.3631 26.4781 31.3459 26.4766 31.2748C26.4729 31.0922 26.4766 30.9095 26.4781 30.7262C26.4803 30.7247 26.484 30.7217 26.484 30.7209C26.4825 30.7165 26.4803 30.712 26.4781 30.7075C26.4781 30.6641 26.4781 30.6207 26.4781 30.5773C26.4781 30.5773 26.484 30.5728 26.484 30.572C26.4825 30.5675 26.4803 30.563 26.4781 30.5585L26.4795 30.5024C26.4795 30.5024 26.4855 30.4987 26.4855 30.4979C26.4855 30.4934 26.4825 30.4889 26.481 30.4845C26.4662 30.471 26.4513 30.4568 26.4364 30.4433C26.4305 30.4433 26.4238 30.4433 26.4178 30.4433C26.1641 30.4448 25.9112 30.4463 25.6575 30.4463C25.5951 30.4463 25.5445 30.4366 25.5445 30.3512C25.5467 29.5774 25.5467 28.8035 25.5475 28.0297C25.5475 28.0042 25.5564 27.978 25.5616 27.9526C25.5683 27.9503 25.575 27.9473 25.5824 27.9451C25.8502 27.9429 26.118 27.9391 26.3858 27.9376C26.4312 27.9376 26.4751 27.9414 26.4788 27.8785C26.4803 27.877 26.4848 27.874 26.484 27.8733C26.4825 27.8688 26.4803 27.865 26.4781 27.8613C26.4781 27.6255 26.4781 27.389 26.4781 27.1533C26.4803 27.1518 26.484 27.1495 26.4833 27.148C26.4825 27.1436 26.4795 27.1398 26.4781 27.1353C26.4781 27.1159 26.4781 27.0972 26.4788 27.0777C26.4766 27.0597 26.4743 27.0425 26.4721 27.0246C26.4595 27.0223 26.4476 27.0201 26.4349 27.0178C26.429 27.0178 26.423 27.0178 26.4178 27.0178C26.3992 27.0186 26.3806 27.0208 26.362 27.0208C25.18 27.0208 23.9979 27.0208 22.8159 27.0216C21.8749 27.0216 20.9346 27.0231 19.9936 27.0238C19.9898 27.0672 19.9861 27.1106 19.9824 27.154C19.9824 27.3815 19.9824 27.6098 19.9824 27.8373C19.9824 27.8448 19.9809 27.853 19.9809 27.8605C19.9742 27.9241 20.0084 27.9376 20.065 27.9369C20.3365 27.9361 20.6088 27.9384 20.8803 27.9391C20.8862 27.9436 20.8922 27.9473 20.8974 27.9518C20.9041 27.987 20.9175 28.0222 20.9175 28.0574C20.919 28.817 20.9167 29.5766 20.9205 30.3355C20.9205 30.4253 20.8914 30.4455 20.8096 30.4448C20.5373 30.4418 20.2651 30.4448 19.9928 30.4455C19.9884 30.483 19.9839 30.5204 19.9794 30.5578C19.9809 30.792 19.9824 31.0263 19.9839 31.2598C19.9839 31.2673 19.9839 31.2748 19.9839 31.2823C19.9846 31.3025 19.9854 31.3234 19.9869 31.3436C20.0003 31.3489 20.0144 31.3541 20.0278 31.3593C20.0836 31.3593 20.1394 31.3586 20.1952 31.3586C20.9874 31.3586 21.7796 31.3593 22.5719 31.3601C22.5905 31.3646 22.6091 31.3698 22.6269 31.3743C22.6307 31.393 22.6344 31.411 22.6381 31.4289C22.6344 31.5981 22.6284 31.7672 22.6284 31.9364C22.6284 32.1519 22.6374 32.3674 22.6374 32.5822C22.6374 32.8397 22.6299 33.0971 22.6292 33.3546C22.6292 33.4137 22.6002 33.4197 22.554 33.4197C22.3807 33.419 22.2074 33.4197 22.0348 33.4197C21.2552 33.4197 20.4763 33.4212 19.6968 33.422C19.693 33.4399 19.6901 33.4586 19.6863 33.4766C19.6849 33.4886 19.6841 33.5005 19.6826 33.5125C19.6826 33.5192 19.6826 33.526 19.6826 33.5327C19.6834 33.767 19.6841 34.002 19.6848 34.2362C19.6848 34.2504 19.6834 34.2639 19.6834 34.2781L19.6923 34.3283C19.6975 34.3298 19.7027 34.3313 19.7072 34.3335C19.7392 34.335 19.7711 34.3358 19.8031 34.3373C19.8098 34.3373 19.8165 34.3373 19.824 34.3373C19.8582 34.3365 19.8916 34.335 19.9259 34.335C22.0891 34.335 24.2523 34.335 26.4156 34.335C26.4833 34.335 26.5517 34.3373 26.6194 34.3388C26.6261 34.3388 26.6328 34.3388 26.6402 34.338C26.6581 34.3388 26.6759 34.3395 26.6945 34.341C26.7012 34.341 26.7079 34.341 26.7146 34.3403C26.7213 34.3051 26.7325 34.2699 26.7332 34.2347C26.7377 33.9758 26.7392 33.7161 26.7421 33.4571C26.7436 33.4549 26.7466 33.4519 26.7459 33.4511C26.7436 33.4467 26.7399 33.4437 26.7369 33.4399C26.699 33.4339 26.6603 33.422 26.6224 33.422L26.6246 33.4235ZM22.1843 30.4433C22.1672 30.4253 22.1501 30.4074 22.133 30.3894C22.133 29.5841 22.133 28.7781 22.133 27.9728C22.1375 27.9661 22.1419 27.9601 22.1464 27.9533C22.1732 27.9481 24.2397 27.9406 24.2642 27.9414C24.2821 27.9631 24.3156 27.984 24.3156 28.0057C24.3185 28.7916 24.3171 29.5781 24.3193 30.364C24.3193 30.4313 24.2947 30.4478 24.2323 30.447C23.5494 30.4448 22.8665 30.444 22.1836 30.4433H22.1843Z" fill="#122B85"/>
<path d="M36.6856 28.0371C36.6819 28.3693 36.6722 28.7016 36.673 29.0339C36.6737 29.4096 36.6804 29.7853 36.6908 30.1603C36.6968 30.3796 36.6581 30.6011 36.7444 30.8166C36.8404 31.0546 37.0055 31.2268 37.245 31.2926C37.4325 31.3443 37.6356 31.357 37.832 31.3577C39.534 31.3622 41.2367 31.3592 42.9388 31.3615C43.0079 31.3615 43.0295 31.3443 43.0288 31.2739C43.0258 31.0232 43.0288 30.7717 43.0288 30.521C43.0288 30.521 43.0355 30.5173 43.0355 30.5158C43.0347 30.5105 43.0325 30.5061 43.0303 30.5008C43.0057 30.4881 42.9819 30.4656 42.9566 30.4649C42.8703 30.4604 42.7833 30.4626 42.697 30.4626C41.1438 30.4626 39.5898 30.4626 38.0365 30.4634C37.9703 30.4634 37.9078 30.4671 37.9205 30.3713C37.9227 30.3691 37.9264 30.3668 37.9264 30.3661C37.9249 30.3616 37.922 30.3571 37.9197 30.3526C37.9197 30.1543 37.9205 29.956 37.9212 29.7569C37.9212 29.7449 37.9212 29.7322 37.9212 29.7202C37.9212 29.6955 37.9212 29.6708 37.9205 29.6454C37.9257 29.6349 37.9309 29.6244 37.9361 29.6147C37.9733 29.6125 38.0097 29.6087 38.0469 29.6087C39.5109 29.6087 40.9742 29.6087 42.4381 29.6087C42.5668 29.6087 42.6955 29.6214 42.8235 29.6252C42.8555 29.6259 42.8874 29.6147 42.9194 29.6087C42.9261 29.6087 42.9313 29.6065 42.9336 29.6005C42.9365 29.584 42.9395 29.5683 42.9425 29.5518C42.944 29.5496 42.9477 29.5466 42.947 29.5458C42.9455 29.5414 42.9425 29.5369 42.9395 29.5324C42.941 29.2794 42.9425 29.0264 42.944 28.7735C42.9336 28.7473 42.9239 28.7218 42.9135 28.6957C42.8547 28.7024 42.7952 28.7136 42.7364 28.7136C41.1653 28.7144 39.5935 28.7144 38.0224 28.7144H37.9168C37.9168 28.4734 37.922 28.2414 37.9145 28.0101C37.9108 27.9121 37.9428 27.8934 38.0343 27.8934C39.6337 27.8964 41.233 27.8956 42.8324 27.8956H42.9589C42.9589 27.609 42.9589 27.3343 42.9589 27.0589C42.9589 27.0462 42.9596 27.0334 42.9603 27.0207C42.9269 27.0087 42.8934 26.9878 42.8592 26.9863C42.8086 26.984 42.7573 27.0013 42.7059 27.0013C40.7346 27.002 38.7626 27.0013 36.7913 27.0013H36.6648C36.6737 27.142 36.6871 27.2677 36.6886 27.3934C36.6916 27.6067 36.6893 27.8208 36.6871 28.0341L36.6856 28.0371Z" fill="#122B85"/>
<path d="M51.2639 26.8555C50.8771 26.8577 50.4902 26.8577 50.1034 26.8585C50.0997 26.8704 50.096 26.8824 50.093 26.8944C50.0945 26.9064 50.0967 26.9191 50.0967 26.9311C50.0915 27.904 50.0856 28.8777 50.0796 29.8506C50.0618 29.8551 50.0439 29.8588 50.026 29.8633C48.8581 29.8648 47.691 29.8663 46.5231 29.8678C46.4212 29.8678 46.3192 29.8648 46.2173 29.8633C46.1987 29.8588 46.1801 29.8551 46.1623 29.8506C46.1571 29.7997 46.1481 29.7488 46.1481 29.6979C46.1474 28.7953 46.1474 27.892 46.1481 26.9894C46.1481 26.9415 46.1385 26.9109 46.0864 26.9071C46.0805 26.9071 46.0745 26.9071 46.0685 26.9079H44.9163C44.9163 26.9602 44.9163 26.9909 44.9163 27.0216C44.9222 27.2895 44.9334 27.5582 44.9341 27.8262C44.9378 28.5042 44.9363 29.183 44.9378 29.8611C44.9378 30.0444 44.9535 30.2233 45.0464 30.3895C45.193 30.6499 45.4132 30.7681 45.7085 30.7674C46.8809 30.7652 48.0525 30.7659 49.2249 30.7659C49.4785 30.7659 49.7322 30.7674 49.9859 30.7681C50.0551 30.7577 50.1205 30.7509 50.0937 30.8572V31.4402H51.2111C51.2178 31.4402 51.2245 31.4402 51.2319 31.4402C51.2497 31.4402 51.2676 31.4402 51.2855 31.441C51.2921 31.441 51.2988 31.4395 51.3055 31.4395C51.3115 31.4133 51.3219 31.3871 51.3219 31.3609C51.3249 29.8828 51.3271 28.4047 51.3308 26.9266C51.3308 26.8742 51.313 26.8562 51.2609 26.857L51.2639 26.8555Z" fill="#122B85"/>
<path d="M28.9806 30.9917C29.2038 31.1729 29.4515 31.318 29.7312 31.3921C30.002 31.4632 30.2824 31.4662 30.5606 31.4632C30.5666 31.4632 30.5725 31.4632 30.5777 31.4632C30.5971 31.4632 30.6164 31.4625 30.635 31.4617C30.641 31.4617 30.6469 31.4617 30.6521 31.4617C30.6767 31.4602 30.7005 31.4595 30.725 31.458C30.7325 31.4572 30.7399 31.4565 30.7473 31.4557C30.8441 31.4415 30.9415 31.4311 31.0367 31.4123C31.2829 31.3637 31.515 31.2679 31.7174 31.1257C31.8818 31.0104 32.0283 30.8615 32.1585 30.7066C32.4977 30.3032 32.6644 29.8287 32.6748 29.3033C32.6777 29.123 32.6569 28.9418 32.6398 28.7615C32.5967 28.3117 32.4375 27.9075 32.1444 27.5625C31.6817 27.0169 31.0724 26.8126 30.3784 26.8224C30.2207 26.8246 30.063 26.853 29.9067 26.8755C29.5088 26.9316 29.1681 27.1082 28.8779 27.3814C28.7091 27.5408 28.5782 27.7309 28.471 27.9375C28.2895 28.2877 28.1891 28.6567 28.2018 29.0534C28.2077 29.2337 28.2174 29.4148 28.2256 29.5952L28.2352 29.6274C28.2427 29.6603 28.2516 29.6932 28.2561 29.7269C28.2895 29.95 28.3535 30.1588 28.4733 30.3556C28.6161 30.5913 28.7664 30.8174 28.9806 30.991V30.9917ZM29.5207 28.498C29.5965 28.2608 29.7185 28.049 29.9253 27.9023C30.3315 27.6142 30.8984 27.7287 31.1721 28.1455C31.3581 28.4284 31.4384 28.7405 31.4496 29.0002C31.4473 29.4515 31.4012 29.8175 31.1825 30.1423C30.9787 30.4446 30.6923 30.5883 30.3382 30.5539C30.0012 30.521 29.7595 30.3242 29.6122 30.0181C29.5058 29.798 29.4478 29.5675 29.4225 29.3213C29.3935 29.0354 29.4359 28.766 29.5214 28.498H29.5207Z" fill="#122B85"/>
<path d="M34.7455 33.9052C33.2414 33.9075 31.738 33.906 30.2338 33.9052C30.1624 33.9052 30.0918 33.9022 30.0203 33.9007L29.9742 33.8685C29.972 33.8438 29.9683 33.8199 29.9683 33.7952C29.9683 33.3439 29.9683 32.8926 29.9675 32.4406C29.9675 32.3672 29.9675 32.2939 29.9675 32.2168H28.7163C28.723 32.3425 28.7297 32.4638 28.7364 32.585C28.7342 32.5865 28.7304 32.5888 28.7312 32.5903C28.7327 32.5947 28.7349 32.5985 28.7371 32.603C28.7386 32.8103 28.7379 33.0183 28.7416 33.2257C28.7468 33.5564 28.7498 33.888 28.7639 34.2188C28.7706 34.3722 28.8569 34.4994 28.9663 34.599C29.1433 34.7591 29.3694 34.8138 29.5978 34.8145C31.3155 34.8198 33.0331 34.8168 34.75 34.8183C34.8244 34.8183 34.8549 34.7981 34.8534 34.718C34.8497 34.4822 34.8489 34.2465 34.8564 34.0115C34.8594 33.9217 34.8303 33.9037 34.747 33.9045L34.7455 33.9052Z" fill="#122B85"/>
<path d="M33.5801 32.6218C33.5801 32.6285 33.5801 32.6353 33.5801 32.642C33.6121 32.648 33.6441 32.6585 33.676 32.6592C33.9528 32.6607 34.2302 32.66 34.507 32.6592C34.6022 32.6592 34.6974 32.6592 34.7934 32.6585C34.7971 32.6525 34.8001 32.6473 34.8038 32.6413C34.8038 32.6285 34.8038 32.6158 34.8038 32.6031C34.8053 32.6016 34.809 32.5986 34.809 32.5979C34.8075 32.5934 34.8045 32.5896 34.8023 32.5851C34.8008 32.5477 34.7971 32.511 34.7971 32.4736C34.7971 30.67 34.7971 28.8656 34.7971 27.0619C34.7971 26.9953 34.7971 26.9279 34.7971 26.8621H33.5853C33.5853 27.0417 33.5853 27.2138 33.5853 27.3867C33.5853 28.5647 33.5853 29.7427 33.5853 30.9199C33.5853 31.4378 33.5823 31.955 33.5801 32.4729C33.5801 32.5043 33.5808 32.5357 33.5816 32.5672C33.5816 32.5851 33.5808 32.6031 33.5801 32.6218Z" fill="#122B85"/>
<path d="M36.2998 33.4092C36.2998 33.6397 36.3012 33.865 36.299 34.091C36.299 34.1321 36.273 34.3342 36.3563 34.3342C36.4418 34.3342 36.5281 34.3192 36.6137 34.3192C38.7546 34.3185 40.8963 34.3192 43.0372 34.3192C43.1168 34.3192 43.1986 34.3207 43.2745 34.3417C43.3451 34.3612 43.3585 34.3357 43.3585 34.2796C43.3585 33.9914 43.3585 33.7041 43.3585 33.4092H36.3005H36.2998Z" fill="#122B85"/>
<path d="M59.7717 33.4227C58.4394 33.4227 57.1063 33.4219 55.774 33.4227C54.8189 33.4227 53.863 33.4242 52.9078 33.4249C52.8952 33.4339 52.8818 33.4429 52.8691 33.4519C52.8788 33.4616 52.8885 33.4713 52.8981 33.4803C52.8981 33.7333 52.8974 33.9862 52.8967 34.2385C52.8892 34.2422 52.8818 34.2459 52.8743 34.2497C52.8818 34.2542 52.8885 34.2579 52.8959 34.2624C52.8959 34.2624 52.8959 34.2624 52.8959 34.2617C52.8959 34.2617 52.8959 34.2617 52.8959 34.2624C52.8959 34.2811 52.8952 34.2998 52.8944 34.3185L52.8922 34.3432C52.9026 34.3417 52.9123 34.3402 52.9227 34.3387C55.0621 34.3387 57.2016 34.3387 59.341 34.3387C59.486 34.3387 59.6319 34.3402 59.7769 34.3417C59.8022 34.3417 59.8275 34.3425 59.852 34.3432C59.8639 34.3432 59.8751 34.3425 59.887 34.3417L59.8989 34.3634C59.9026 34.356 59.9056 34.3477 59.9093 34.3402C59.9212 34.338 59.9331 34.3365 59.9443 34.3343C59.9629 34.341 59.9815 34.3477 60.0008 34.3545V33.4242C59.974 33.4257 59.9473 33.4272 59.9212 33.4287C59.8721 33.4272 59.8223 33.4242 59.7732 33.4242L59.7717 33.4227Z" fill="#122B85"/>
<path d="M42.9128 28.6973C42.9233 28.7235 42.9329 28.7489 42.9433 28.7751C42.9984 28.7235 42.9575 28.71 42.9128 28.6973Z" fill="#122B85"/>
</g>
<defs>
<linearGradient id="paint0_linear_5058_40351" x1="5.85797" y1="25.1777" x2="3.34523" y2="31.2361" gradientUnits="userSpaceOnUse">
<stop stop-color="#FDD100"/>
<stop offset="1" stop-color="#F8E404"/>
</linearGradient>
<linearGradient id="paint1_linear_5058_40351" x1="1.77523" y1="28.7277" x2="4.45226" y2="33.0627" gradientUnits="userSpaceOnUse">
<stop stop-color="#159343"/>
<stop offset="1" stop-color="#14923E"/>
</linearGradient>
<linearGradient id="paint2_linear_5058_40351" x1="17.0414" y1="32.1006" x2="6.21299" y2="32.9882" gradientUnits="userSpaceOnUse">
<stop offset="0.213542" stop-color="#E40C1A"/>
<stop offset="0.880208" stop-color="#F37F71"/>
</linearGradient>
<linearGradient id="paint3_linear_5058_40351" x1="12.426" y1="25.0002" x2="5.58901" y2="30.9817" gradientUnits="userSpaceOnUse">
<stop stop-color="#EF8200"/>
<stop offset="1" stop-color="#F8C600"/>
</linearGradient>
<linearGradient id="paint4_linear_5058_40351" x1="-1.71144e-09" y1="33.8758" x2="4.97652" y2="33.6651" gradientUnits="userSpaceOnUse">
<stop offset="0.614583" stop-color="#159AD6"/>
<stop offset="1" stop-color="#99CEED"/>
</linearGradient>
<clipPath id="clip0_5058_40351">
<rect width="60" height="10.2959" fill="white" transform="translate(0 25)"/>
</clipPath>
</defs>
</svg>
