<svg width="60" height="60" viewBox="0 0 60 60" fill="none" xmlns="http://www.w3.org/2000/svg">
<g clip-path="url(#clip0_5058_40352)">
<path d="M21.4685 31.7909C21.2177 31.7889 20.9669 31.7859 20.716 31.7869C20.6679 31.7869 20.6198 31.7999 20.5717 31.808C20.5164 31.825 20.4355 31.7678 20.416 31.8812C20.3577 32.2195 20.2911 32.5569 20.2246 32.8942C20.1734 33.1501 20.115 33.4061 20.0618 33.6621C19.986 34.0235 19.9123 34.3849 19.8376 34.7463C19.7915 34.9702 19.7485 35.194 19.7035 35.4169C19.6646 35.6076 19.6256 35.7984 19.5857 35.9901H19.5437C19.47 35.7843 19.3963 35.5785 19.3216 35.3727C19.2008 35.0415 19.0769 34.7102 18.9561 34.3779C18.6489 33.5306 18.3428 32.6823 18.0357 31.8341C18.0295 31.823 18.0223 31.813 18.0162 31.8019C17.9927 31.7969 17.9681 31.7869 17.9445 31.7879C17.4726 31.7959 16.9995 31.8049 16.5276 31.813H16.3484C15.9153 33.8037 15.4833 35.7904 15.0471 37.7971C15.4996 37.7971 15.9174 37.7991 16.3341 37.7931C16.3627 37.7931 16.4098 37.7419 16.417 37.7088C16.4825 37.4197 16.5429 37.1305 16.6003 36.8404C16.6811 36.4248 16.7549 36.0082 16.8378 35.5936C16.9719 34.928 17.1101 34.2624 17.2483 33.5969C17.2647 33.5166 17.2924 33.4383 17.32 33.3429C17.3405 33.374 17.3528 33.3861 17.3589 33.4011C17.493 33.7595 17.6282 34.1169 17.7582 34.4763C18.1503 35.5544 18.5414 36.6326 18.9356 37.7098C18.9489 37.7459 19.0032 37.7921 19.04 37.7921C19.4915 37.7971 19.9441 37.7961 20.3956 37.7891C20.4283 37.7891 20.4785 37.7369 20.4877 37.7017C20.5276 37.5522 20.5543 37.3986 20.587 37.247C20.7242 36.6176 20.8645 35.9891 20.9996 35.3597C21.1081 34.8537 21.2095 34.3458 21.3201 33.8398C21.4501 33.2425 21.5893 32.6462 21.7194 32.0489C21.7777 31.7829 21.7593 31.7688 21.4675 31.7909H21.4685Z" fill="#636363"/>
<path d="M46.9359 31.7908C46.2152 31.7898 45.4944 31.7878 44.7736 31.7878C44.5566 31.7878 44.3385 31.7918 44.1214 31.7948C43.975 31.8079 43.8266 31.8119 43.6822 31.836C42.8591 31.9715 42.1772 32.3349 41.6796 33.0045C41.394 33.39 41.1933 33.8146 41.0602 34.2664C40.8626 34.937 40.6722 35.6096 40.8176 36.3213C40.9251 36.8484 41.1954 37.256 41.6929 37.5069C42.167 37.7448 42.6779 37.7981 43.2 37.7991C44.0447 37.7991 44.8883 37.7991 45.7329 37.7991C45.7841 37.7991 45.8384 37.8081 45.8855 37.793C45.9244 37.781 45.9746 37.7438 45.9828 37.7097C46.0258 37.535 46.0544 37.3573 46.0913 37.1807C46.1691 36.7982 46.2459 36.4157 46.3288 36.0342C46.4343 35.5473 46.5459 35.0625 46.6554 34.5766C46.68 34.4652 46.7045 34.3547 46.7332 34.2293H46.5786C46.5786 34.2293 46.5704 34.2272 46.5663 34.2272C45.6316 34.2262 44.6968 34.2252 43.7621 34.2232C43.6597 34.2232 43.6546 34.2804 43.6628 34.3537C43.6403 34.433 43.6136 34.5113 43.5972 34.5917C43.5491 34.8276 43.5041 35.0635 43.458 35.2994C43.4662 35.3044 43.4734 35.3094 43.4816 35.3144C43.9996 35.3124 44.5187 35.3114 45.0367 35.3084C45.1279 35.3084 45.1545 35.3375 45.133 35.4299C45.0367 35.8324 44.9466 36.237 44.8525 36.6516H44.5842C44.5238 36.6516 44.4634 36.6496 44.403 36.6516C44.1563 36.6596 43.9085 36.6687 43.6618 36.6767C43.5338 36.6757 43.4048 36.6817 43.2778 36.6707C43.0352 36.6506 42.7997 36.6024 42.6093 36.4378C42.3144 36.1818 42.2417 35.8545 42.2775 35.4871C42.3216 35.0233 42.424 34.5736 42.5867 34.1369C42.7116 33.8026 42.8693 33.4874 43.1417 33.2384C43.4898 32.9202 43.9126 32.8258 44.3764 32.8339C45.2067 32.8479 46.038 32.8489 46.8684 32.859C46.9953 32.861 47.0486 32.8108 47.069 32.6893C47.1018 32.4925 47.153 32.2988 47.195 32.104C47.2687 31.7617 47.3188 31.7768 46.937 31.7918L46.9359 31.7908Z" fill="#636363"/>
<path d="M6.29036 31.7909C5.20203 31.7899 4.11371 31.7878 3.02539 31.7888C2.90253 31.7888 2.77967 31.8039 2.65682 31.8119C2.14695 31.8571 1.67292 32.0027 1.30844 32.3631C0.767866 32.8961 0.549792 33.5617 0.590745 34.2996C0.610197 34.6499 0.787318 34.933 1.12108 35.1117C1.42721 35.2743 1.75688 35.3396 2.09576 35.3466C2.69674 35.3587 3.29773 35.3466 3.89871 35.3526C4.04921 35.3546 4.20279 35.3757 4.35021 35.4078C4.56624 35.454 4.68705 35.6307 4.64508 35.8365C4.61846 35.966 4.57443 36.0925 4.52426 36.215C4.44338 36.4107 4.29698 36.5452 4.08709 36.6035C3.954 36.6406 3.8168 36.6657 3.68166 36.6958C3.01822 36.6948 2.35581 36.6918 1.69238 36.6918C1.29718 36.6918 0.901986 36.6948 0.506791 36.6968H0.220121C0.144359 37.0723 0.0726913 37.4266 0 37.786C0.0542625 37.7941 0.0706436 37.7981 0.0870248 37.7981C1.09754 37.7981 2.10805 37.7981 3.11958 37.7981C3.53832 37.7981 3.95604 37.8061 4.36864 37.6997C4.95836 37.5471 5.44877 37.272 5.72828 36.7199C5.96376 36.2561 6.09276 35.7672 6.06307 35.2432C6.05181 35.0434 5.99038 34.8698 5.86137 34.7192C5.5788 34.3899 5.18258 34.3407 4.78022 34.3076C4.73824 34.3046 4.69524 34.3006 4.65327 34.3006C3.9284 34.2975 3.20251 34.2945 2.47765 34.2915C2.44591 34.2815 2.41519 34.2704 2.38346 34.2614C2.20326 34.2082 2.0415 34.1279 2.01488 33.9251C2.00055 33.8197 2.00874 33.7063 2.03126 33.6009C2.09167 33.3137 2.26367 33.11 2.5401 32.9865C2.79503 32.873 3.06532 32.86 3.33766 32.86C4.21609 32.858 5.09556 32.858 5.97399 32.86C6.04873 32.86 6.12654 32.8861 6.19924 32.8761C6.26476 32.867 6.37226 32.8379 6.3825 32.7977C6.46748 32.4785 6.533 32.1543 6.61286 31.7929H6.28933L6.29036 31.7909Z" fill="#636363"/>
<path d="M12.7106 31.7848C12.296 31.7848 11.8957 31.7838 11.4953 31.7878C11.4667 31.7878 11.4196 31.8279 11.4134 31.8561C11.3387 32.2094 11.2742 32.5638 11.1995 32.9172C11.1186 33.3006 11.0254 33.6811 10.9476 34.0646C10.923 34.1871 10.8565 34.2192 10.7459 34.2112C10.0825 34.2092 9.41904 34.2081 8.75458 34.2041C8.69315 34.2041 8.63172 34.1871 8.56927 34.178C8.73206 33.4141 8.89382 32.6491 9.05661 31.8852C9.10268 31.7968 9.05661 31.7828 8.9788 31.7938C8.9532 31.7938 8.92658 31.7938 8.90099 31.7938C8.56005 31.7938 8.21912 31.7938 7.87819 31.7938C7.80959 31.7778 7.76352 31.7898 7.75021 31.8701C7.72564 32.0197 7.69595 32.1683 7.66523 32.3158C7.5434 32.887 7.42054 33.4572 7.29666 34.0275C7.22294 34.3648 7.14616 34.7011 7.07039 35.0374C6.97313 35.467 6.87484 35.8967 6.77861 36.3263C6.67622 36.7861 6.57486 37.2459 6.47658 37.7057C6.47044 37.7338 6.48886 37.7659 6.49501 37.796C6.50422 37.796 6.51241 37.798 6.52163 37.799C6.85437 37.799 7.18711 37.798 7.51985 37.798C7.78195 37.798 7.77683 37.797 7.83007 37.542C7.91505 37.1415 8.00924 36.743 8.09729 36.3424C8.15462 36.0784 8.20888 35.8144 8.26315 35.5503C8.29796 35.3817 8.40512 35.2974 8.58463 35.2974C9.22042 35.2974 9.85519 35.2974 10.491 35.2964C10.5401 35.2964 10.5893 35.2964 10.6681 35.2964C10.4869 36.1416 10.3108 36.9618 10.1326 37.79C10.1746 37.792 10.2115 37.795 10.2494 37.795C10.5432 37.796 10.8381 37.796 11.1319 37.798C11.3367 37.7994 11.4551 37.701 11.4872 37.5029C11.4872 37.5029 11.4872 37.4949 11.4872 37.4908C11.5711 37.1244 11.6602 36.759 11.739 36.3906C11.8639 35.8103 11.9786 35.2271 12.1035 34.6468C12.2028 34.1851 12.3124 33.7243 12.4147 33.2635C12.5141 32.8178 12.6113 32.371 12.7076 31.9243C12.7168 31.8832 12.7086 31.838 12.7086 31.7858L12.7106 31.7848Z" fill="#636363"/>
<path d="M15.1936 31.8592C15.1721 31.8351 15.1506 31.7899 15.1291 31.7899C14.7329 31.7869 14.3356 31.7869 13.9394 31.7919C13.9077 31.7919 13.876 31.8361 13.8442 31.8592C13.4152 33.8318 12.9863 35.8044 12.5542 37.7961C12.9924 37.7961 13.4091 37.7921 13.8258 37.7991C13.9292 37.8011 13.9538 37.759 13.9691 37.6736C14.0357 37.3102 14.1032 36.9468 14.181 36.5864C14.3039 36.0203 14.438 35.4571 14.5629 34.8919C14.6858 34.3377 14.8035 33.7816 14.9243 33.2265C15.0063 32.847 15.0912 32.4685 15.1711 32.088C15.1864 32.0128 15.1875 31.9355 15.1946 31.8592H15.1936Z" fill="#636363"/>
<path d="M40.7328 31.789C40.3714 31.791 40.0089 31.787 39.6475 31.79C39.494 31.791 39.4847 31.806 39.4929 31.9586C39.2104 33.3028 38.9288 34.646 38.6462 35.9902C38.5633 35.8386 38.509 35.688 38.4538 35.5375C38.1599 34.7293 37.8661 33.9202 37.5702 33.1131C37.4258 32.7196 37.2774 32.327 37.13 31.9345C37.1003 31.8743 37.1218 31.7829 37.002 31.7849C36.6109 31.791 36.2198 31.789 35.8277 31.791C35.7253 31.79 35.6229 31.791 35.5215 31.787C35.4396 31.7839 35.3956 31.808 35.3905 31.8974C35.3854 31.9867 35.3649 32.0761 35.3454 32.1644C35.2175 32.7286 35.0844 33.2918 34.9605 33.857C34.8765 34.2394 34.809 34.6249 34.727 35.0074C34.6564 35.3337 34.5704 35.6559 34.4998 35.9822C34.4179 36.3606 34.3493 36.7421 34.2704 37.1226C34.2254 37.3394 34.1721 37.5543 34.1189 37.7882C34.1783 37.7922 34.2274 37.7972 34.2766 37.7972C34.6308 37.7972 34.985 37.7922 35.3383 37.8002C35.4458 37.8022 35.4785 37.7641 35.4949 37.6697C35.5359 37.4368 35.583 37.2059 35.6321 36.975C35.7027 36.6477 35.7836 36.3225 35.8492 35.9942C35.9413 35.5314 36.0181 35.0646 36.1133 34.6028C36.1973 34.1963 36.2976 33.7927 36.3959 33.361C36.4245 33.4042 36.4532 33.4333 36.4655 33.4685C36.5064 33.5859 36.5361 33.7064 36.5791 33.8228C36.8668 34.6069 37.1566 35.3899 37.4453 36.1739C37.6326 36.6809 37.82 37.1878 38.0043 37.6958C38.033 37.7751 38.077 37.8012 38.164 37.8002C38.5909 37.7952 39.0169 37.7952 39.4438 37.7992C39.5318 37.7992 39.5728 37.7751 39.5666 37.6878C39.5646 37.6627 39.5636 37.6376 39.5687 37.6135C39.6434 37.2782 39.7233 36.9439 39.795 36.6076C39.926 35.9972 40.0509 35.3849 40.1809 34.7745C40.2895 34.2655 40.4031 33.7586 40.5137 33.2506C40.613 32.7959 40.7133 32.3411 40.8137 31.8863C40.8372 31.8131 40.8044 31.791 40.7318 31.791L40.7328 31.789Z" fill="#636363"/>
<path d="M34.297 31.7859C33.8752 31.7859 33.4728 31.7849 33.0694 31.7889C33.0428 31.7889 33.0172 31.8351 32.9916 31.8592C32.9824 31.8863 32.9701 31.9124 32.965 31.9405C32.879 32.3491 32.7981 32.7587 32.709 33.1673C32.6077 33.6351 32.5032 34.1029 32.3927 34.5687C32.2841 35.0234 32.1787 35.4792 32.0507 35.9289C31.8685 36.5674 31.3688 36.8204 30.7443 36.8927C30.4638 36.9248 30.1874 36.8716 29.9201 36.7883C29.6396 36.7009 29.3816 36.4218 29.4082 36.0916C29.4338 35.7743 29.4768 35.4561 29.5393 35.1429C29.6437 34.6179 29.7707 34.0969 29.8874 33.5738C29.9468 33.3078 30.0031 33.0418 30.0594 32.7757C30.1229 32.4786 30.1843 32.1804 30.2467 31.8833C30.2211 31.8512 30.1966 31.7899 30.171 31.7899C29.7778 31.7919 29.3847 31.801 28.9926 31.812C28.9782 31.812 28.9649 31.8421 28.9506 31.8582C28.8666 32.2497 28.7847 32.6422 28.6977 33.0337C28.6117 33.4192 28.5175 33.8017 28.4335 34.1872C28.3394 34.6219 28.2585 35.0586 28.1612 35.4922C28.068 35.9068 28.0312 36.3255 28.1018 36.7441C28.1592 37.0884 28.3342 37.3675 28.6619 37.5442C28.9905 37.7209 29.3447 37.8213 29.7133 37.8363C30.1495 37.8544 30.5887 37.8313 31.0259 37.8172C31.4088 37.8052 31.7712 37.6998 32.1173 37.5452C32.5483 37.3524 32.882 37.0533 33.1063 36.6417C33.3704 36.1558 33.4789 35.6238 33.5997 35.0947C33.6561 34.8457 33.7062 34.5958 33.7584 34.3468C33.8096 34.1059 33.8577 33.864 33.91 33.624C33.9714 33.3389 34.0359 33.0548 34.0963 32.7697C34.1557 32.4916 34.212 32.2126 34.2693 31.9335C34.2775 31.8893 34.2857 31.8451 34.297 31.7849V31.7859Z" fill="#636363"/>
<path d="M26.8957 31.7899C26.824 31.7879 26.7503 31.7899 26.6796 31.7829C26.566 31.7698 26.5302 31.8371 26.5128 31.9254C26.4564 32.1985 26.4032 32.4725 26.3438 32.7446C26.2568 33.1431 26.1636 33.5407 26.0787 33.9402C26.0244 34.1942 26.0295 34.1952 25.794 34.2093C25.1122 34.2093 24.4293 34.2093 23.7474 34.2093C23.7321 34.1701 23.6962 34.1269 23.7044 34.0928C23.8263 33.5256 23.9553 32.9604 24.0802 32.3942C24.117 32.2256 24.1457 32.0559 24.1774 31.8863C24.1969 31.823 24.1918 31.7859 24.1047 31.7869C23.73 31.7899 23.3553 31.7859 22.9806 31.7899C22.9499 31.7899 22.9191 31.8351 22.8884 31.8592C22.4543 33.8328 22.0213 35.8064 21.5872 37.7811C21.622 37.7911 21.6343 37.7971 21.6465 37.7971C22.0305 37.8001 22.4144 37.8052 22.7983 37.8001C22.8413 37.8001 22.9099 37.7479 22.9222 37.7078C22.955 37.5974 22.9581 37.4799 22.9836 37.3675C23.0563 37.0422 23.1372 36.719 23.2099 36.3937C23.2918 36.0333 23.3686 35.6719 23.4495 35.3035H25.7869C25.6077 36.1377 25.4306 36.9599 25.2535 37.7841C25.278 37.7901 25.2893 37.7961 25.3016 37.7961C25.6937 37.7981 26.0858 37.8011 26.479 37.7961C26.5138 37.7961 26.567 37.7399 26.5783 37.7008C26.6141 37.5833 26.6325 37.4608 26.6581 37.3394C26.7738 36.7943 26.8885 36.2491 27.0062 35.705C27.1209 35.18 27.2417 34.656 27.3564 34.1299C27.4537 33.6842 27.5448 33.2385 27.6379 32.7928C27.6973 32.5077 27.7567 32.2226 27.8161 31.9375C27.8263 31.8923 27.8355 31.8471 27.8478 31.7929H26.8957V31.7899Z" fill="#636363"/>
<path d="M41.4596 27.3278C41.6122 27.365 41.7647 27.4011 41.9183 27.4383C41.9439 27.4433 41.9705 27.4483 41.9961 27.4533M41.9961 27.4533C42.2531 27.5226 42.5111 27.5899 42.7681 27.6601C43.0568 27.7394 43.3455 27.8218 43.6342 27.9031C43.6833 27.9241 43.7325 27.9472 43.7827 27.9663C44.3673 28.1882 44.9662 28.3819 45.5344 28.6389C46.1118 28.8999 46.6719 29.2041 47.2176 29.5243C47.6363 29.7693 48.0213 30.0694 48.4206 30.3445C48.5547 30.4519 48.6888 30.5593 48.8229 30.6658C49.2253 31.0633 49.6389 31.4508 50.0249 31.8624C50.2839 32.1394 50.504 32.4517 50.7416 32.7478C50.761 32.7799 50.7815 32.811 50.7989 32.8442C51.0897 33.3732 51.3948 33.8952 51.6661 34.4333C51.8299 34.7566 51.9415 35.1049 52.0777 35.4422C52.0879 35.4824 52.0971 35.5225 52.1073 35.5617C52.1923 35.8859 52.2773 36.2102 52.3623 36.5344C52.3623 36.5425 52.3643 36.5515 52.3653 36.5595C52.3613 36.5676 52.3623 36.5756 52.3684 36.5826C52.3766 36.6248 52.3838 36.667 52.392 36.7091C52.392 36.7332 52.393 36.7573 52.394 36.7814C52.394 36.7904 52.392 36.7995 52.392 36.8085C52.3981 36.8175 52.4053 36.8256 52.4114 36.8346C52.4145 36.8577 52.4176 36.8818 52.4196 36.9059C52.4247 36.9149 52.4288 36.925 52.4339 36.934C52.438 36.941 52.4411 36.949 52.4452 36.9561C52.4534 36.9892 52.4606 37.0233 52.4688 37.0565C52.4688 37.1016 52.4636 37.1478 52.4688 37.192C52.4995 37.4249 52.5394 37.6578 52.5629 37.8917C52.5701 37.966 52.5916 37.9981 52.6653 37.9951C52.6766 37.9951 52.6879 37.9951 52.7001 37.9951C52.8179 37.9911 52.9356 37.9861 53.0534 37.982C53.3861 37.982 53.7188 37.982 54.0516 37.982C54.4611 37.982 54.8706 37.982 55.2802 37.982C55.5453 37.982 55.8095 37.984 56.0747 37.9851C56.347 37.9871 56.6203 37.9881 56.8927 37.9901C57.292 37.9921 57.6913 37.9941 58.0906 37.9961C58.1028 37.9961 58.1141 37.9961 58.1264 37.9961C58.1479 37.9961 58.1694 37.9961 58.1919 37.9961C58.2124 37.9961 58.2339 37.9961 58.2544 37.9961C58.2759 37.9961 58.2984 37.9961 58.3199 37.9961C58.3322 37.9961 58.3445 37.9961 58.3567 37.9961C58.8656 37.9931 59.3754 37.9901 59.8843 37.9871C59.8955 37.9871 59.9058 37.9891 59.917 37.9891C59.9314 37.9921 59.9457 37.9951 59.9601 37.9981C59.9734 37.984 59.9856 37.971 59.999 37.9569C59.8597 37.705 59.7205 37.454 59.5812 37.202C59.5669 37.1197 59.5741 37.0263 59.4655 36.9942L59.4645 36.9922C59.4481 36.94 59.4338 36.8868 59.4154 36.8356C59.4051 36.8065 59.3785 36.7794 59.3755 36.7503C59.3652 36.6429 59.2956 36.5997 59.1973 36.5836C59.0837 36.428 58.969 36.2744 58.8584 36.1178C58.7693 35.9923 58.6864 35.8628 58.6004 35.7354C58.5933 35.7273 58.5871 35.7203 58.5799 35.7123C58.5717 35.7032 58.5646 35.6942 58.5564 35.6862C58.5441 35.6691 58.5328 35.652 58.5206 35.634C58.5154 35.6269 58.5103 35.6199 58.5052 35.6129C58.4837 35.5868 58.4622 35.5607 58.4407 35.5356V35.5255L58.4294 35.5245C58.4192 35.5125 58.4079 35.5004 58.3977 35.4874C58.3834 35.4683 58.369 35.4482 58.3547 35.4292C58.3311 35.4001 58.3076 35.3709 58.2841 35.3418C58.0097 35.0226 57.7363 34.7034 57.4619 34.3841C57.3319 34.2335 57.2009 34.082 57.0708 33.9314C56.9234 33.7768 56.7801 33.6192 56.6285 33.4686C56.5323 33.3722 56.4268 33.2839 56.3255 33.1925C56.0962 32.9827 55.8668 32.7719 55.6354 32.5641C55.4941 32.4366 55.3477 32.3141 55.2034 32.1886C54.9321 31.9768 54.6618 31.765 54.3905 31.5532C54.3557 31.5241 54.3219 31.4919 54.284 31.4668C53.9789 31.259 53.6738 31.0522 53.3677 30.8444C53.2018 30.739 53.037 30.6346 52.8711 30.5292C52.868 30.5212 52.8619 30.5192 52.8537 30.5202C52.8087 30.4891 52.7667 30.4549 52.7186 30.4288C52.1944 30.1387 51.6702 29.8486 51.1429 29.5625C51.06 29.5173 50.9648 29.4912 50.8757 29.4571C50.8583 29.449 50.8409 29.441 50.8245 29.432C50.7917 29.4129 50.759 29.3938 50.7262 29.3758C50.415 29.2382 50.1058 29.0977 49.7925 28.9662C49.6553 28.909 49.5089 28.8708 49.3676 28.8236C49.2222 28.7674 49.0758 28.7112 48.9304 28.655C48.9079 28.6459 48.8864 28.6339 48.8639 28.6269C48.611 28.5425 48.3581 28.4572 48.1042 28.3739C47.9547 28.3247 47.8052 28.2735 47.6527 28.2343C47.4684 28.1872 47.2811 28.153 47.0957 28.1089C46.937 28.0707 46.7825 28.0205 46.6227 27.9854C46.2736 27.9091 45.9224 27.8368 45.5723 27.7655C45.3358 27.7184 45.0993 27.6752 44.8628 27.631C44.8218 27.616 44.7809 27.5979 44.7389 27.5858C44.1574 27.4262 43.5738 27.2716 42.9933 27.107C42.7097 27.0267 42.4302 26.9293 42.1497 26.839C42.0135 26.7948 41.8773 26.7496 41.7412 26.7054C41.7248 26.6964 41.7084 26.6864 41.692 26.6773C41.4187 26.5629 41.1453 26.4484 40.8719 26.334C40.7521 26.2768 40.6324 26.2196 40.5136 26.1633C40.4071 26.1091 40.3006 26.0559 40.1952 25.9997C39.9587 25.8722 39.7232 25.7427 39.4877 25.6132C39.4734 25.6042 39.458 25.5951 39.4437 25.5851C39.4161 25.568 39.3894 25.55 39.3618 25.5329C39.3526 25.5259 39.3423 25.5199 39.3331 25.5128C39.326 25.5068 39.3178 25.5008 39.3106 25.4948C39.2932 25.4837 39.2748 25.4737 39.2574 25.4626C39.2164 25.4345 39.1755 25.4054 39.1345 25.3773C39.0833 25.3392 39.0311 25.3 38.9799 25.2619L38.7721 25.1133C38.7639 25.1063 38.7547 25.0982 38.7465 25.0912H38.7444C38.7199 25.0731 38.6953 25.0561 38.6707 25.039C38.6605 25.031 38.6513 25.0219 38.641 25.0139C38.6339 25.0069 38.6267 24.9998 38.6185 24.9928L38.6144 24.9888C38.5561 24.9316 38.4967 24.8744 38.4383 24.8171C38.4219 24.7991 38.4055 24.781 38.3892 24.7619C38.3728 24.7459 38.3564 24.7298 38.339 24.7137C38.3216 24.6967 38.3032 24.6796 38.2858 24.6615C38.2694 24.6455 38.253 24.6294 38.2356 24.6133C38.2264 24.6043 38.2172 24.5953 38.208 24.5862C38.165 24.5381 38.122 24.4909 38.0779 24.4427C38.0605 24.4025 38.0493 24.3594 38.0247 24.3242C37.9336 24.1967 37.8353 24.0753 37.7442 23.9478C37.6664 23.8384 37.5957 23.7229 37.522 23.6105C37.5118 23.5954 37.5025 23.5793 37.4923 23.5643L37.3715 23.3103C37.3715 23.3103 37.3694 23.3113 37.3674 23.3133C37.3694 23.3123 37.3715 23.3103 37.3715 23.3103C37.3531 23.2702 37.3357 23.231 37.3172 23.1908C37.2957 23.1256 37.2732 23.0613 37.2507 22.9961H36.1849C35.7754 22.9961 35.3658 22.9961 34.9563 22.9961H33.7789C33.2711 22.9961 32.7633 22.9961 32.2483 22.9961C32.4121 23.2651 33.269 23.9779 33.7277 24.2349C34.0246 24.4176 34.3195 24.6033 34.6195 24.781C34.7935 24.8844 34.9768 24.9737 35.1559 25.0691C35.1744 25.0822 35.1938 25.0952 35.2123 25.1093C35.287 25.1464 35.3607 25.1846 35.4365 25.2197C35.5819 25.2859 35.7283 25.3492 35.8747 25.4134C36.2228 25.564 36.5709 25.7146 36.919 25.8662C36.919 25.8521 36.9159 25.8361 36.9138 25.821C36.9159 25.8371 36.9179 25.8521 36.919 25.8662L36.9507 25.8893C36.9681 25.8973 36.9845 25.9053 37.0019 25.9134C37.0132 25.8983 37.0234 25.8823 37.0336 25.8652C37.0234 25.8823 37.0132 25.8993 37.0019 25.9134C37.0449 25.9304 37.0869 25.9465 37.1299 25.9636C37.2793 26.0208 37.4278 26.08 37.5783 26.1352C37.8906 26.2497 38.2039 26.3631 38.5182 26.4735C38.5673 26.4906 38.6595 26.5167 38.7096 26.5328C38.8468 26.5779 38.9492 26.592 39.0843 26.6432C39.2052 26.6844 39.3249 26.7285 39.4468 26.7657C39.7232 26.849 40.0017 26.9283 40.2791 27.0086C40.2914 27.0166 40.3027 27.0297 40.317 27.0327C40.6969 27.1311 41.0777 27.2275 41.4576 27.3248M40.8556 26.3199C40.8556 26.3199 40.8463 26.3199 40.8422 26.321C40.8422 26.321 40.8515 26.321 40.8556 26.3199Z" fill="url(#paint0_linear_5058_40352)"/>
</g>
<defs>
<linearGradient id="paint0_linear_5058_40352" x1="46.1236" y1="22.9961" x2="46.1236" y2="37.9981" gradientUnits="userSpaceOnUse">
<stop offset="0.145833" stop-color="#DB0A0D"/>
<stop offset="0.494792" stop-color="#FD0B1A"/>
<stop offset="0.833333" stop-color="#DB0A0D"/>
</linearGradient>
<clipPath id="clip0_5058_40352">
<rect width="60" height="15" fill="white" transform="translate(0 23)"/>
</clipPath>
</defs>
</svg>
