<svg width="36" height="36" viewBox="0 0 36 36" fill="none" xmlns="http://www.w3.org/2000/svg">
<path d="M11.391 11.482L8.69531 14.5096V18.9717L11.391 21.2028L15.3553 24.5491L18.3681 22.7963L19.3196 17.0594V12.7569L15.3553 9.25098H12.3441L11.391 11.482Z" fill="white"/>
<path d="M17.9978 6.75113C15.4895 6.75194 13.0779 7.72413 11.2644 9.46561C9.45086 11.2071 8.37492 13.5839 8.26021 16.102C8.1455 18.6201 9.00084 21.0857 10.6484 22.9864C12.296 24.8871 14.6091 26.0767 17.1069 26.3078V28.5873C17.107 28.6721 17.1266 28.7557 17.1643 28.8316C17.2021 28.9074 17.2568 28.9735 17.3243 29.0244C17.3917 29.0754 17.4701 29.1098 17.5531 29.1251C17.6361 29.1404 17.7215 29.1362 17.8026 29.1126C19.5809 28.5281 21.245 27.6381 22.7208 26.4823C25.1445 24.6712 26.8194 22.0263 27.4254 19.0528C27.8056 17.6024 27.8496 16.0836 27.554 14.6133C27.2583 13.1431 26.631 11.7606 25.7202 10.5722C24.8095 9.38389 23.6395 8.42137 22.3005 7.75872C20.9614 7.09608 19.4889 6.75098 17.9963 6.75L17.9978 6.75113ZM20.0313 23.4929C18.9066 23.4916 17.8284 23.042 17.0331 22.2429C16.2379 21.4437 15.7905 20.3601 15.7893 19.2299V15.3561C15.4017 15.4941 14.9936 15.5644 14.5825 15.564H13.4578C13.1428 15.564 12.8406 15.4382 12.6179 15.2144C12.3951 14.9905 12.2699 14.6868 12.2699 14.3702C12.2699 14.0536 12.3951 13.75 12.6179 13.5261C12.8406 13.3022 13.1428 13.1765 13.4578 13.1765H14.5843C14.9128 13.1767 15.2278 13.0458 15.4602 12.8126C15.6926 12.5794 15.8233 12.263 15.8236 11.933V10.6606C15.8236 10.5038 15.8543 10.3486 15.914 10.2037C15.9737 10.0589 16.0612 9.92732 16.1715 9.81647C16.2819 9.70561 16.4128 9.61768 16.5569 9.55769C16.7011 9.49769 16.8555 9.46681 17.0115 9.46681C17.1675 9.46681 17.322 9.49769 17.4661 9.55769C17.6103 9.61768 17.7412 9.70561 17.8515 9.81647C17.9618 9.92732 18.0493 10.0589 18.109 10.2037C18.1687 10.3486 18.1995 10.5038 18.1995 10.6606V11.933C18.1986 12.1017 18.1861 12.2702 18.1621 12.4373V19.2247C18.1626 19.7232 18.3599 20.2012 18.7107 20.5537C19.0615 20.9062 19.5371 21.1044 20.0332 21.1049H20.0309C20.346 21.1049 20.6481 21.2307 20.8709 21.4546C21.0937 21.6785 21.2188 21.9821 21.2188 22.2987C21.2188 22.6153 21.0937 22.919 20.8709 23.1428C20.6481 23.3667 20.346 23.4925 20.0309 23.4925L20.0313 23.4929ZM20.1579 15.5595C19.9233 15.5595 19.694 15.4896 19.499 15.3587C19.304 15.2277 19.152 15.0416 19.0623 14.8239C18.9725 14.6061 18.949 14.3665 18.9948 14.1353C19.0405 13.9041 19.1535 13.6918 19.3193 13.5251C19.4852 13.3585 19.6965 13.245 19.9265 13.199C20.1566 13.153 20.395 13.1766 20.6117 13.2668C20.8284 13.357 21.0136 13.5097 21.1439 13.7057C21.2742 13.9017 21.3437 14.1321 21.3437 14.3678C21.3437 14.6839 21.2188 14.987 20.9964 15.2105C20.774 15.434 20.4724 15.5595 20.1579 15.5595Z" fill="#F81414"/>
</svg>
