<svg width="24" height="24" viewBox="0 0 24 24" fill="none" xmlns="http://www.w3.org/2000/svg">
<path d="M2.47754 16.1912H6.28646V19.0479C6.28646 19.5738 5.86013 20.0001 5.33423 20.0001H3.42977C2.90387 20.0001 2.47754 19.5738 2.47754 19.0479V16.1912Z" fill="#0168FE"/>
<path d="M17.7136 16.1912H21.5225V19.0479C21.5225 19.5738 21.0962 20.0001 20.5703 20.0001H18.6659C18.14 20.0001 17.7136 19.5738 17.7136 19.0479V16.1912Z" fill="#0168FE"/>
<path fill-rule="evenodd" clip-rule="evenodd" d="M2.93847 11.1586L4.38709 9.31854C4.89304 7.86283 6.32602 4.95142 8.01035 4.95142H8.05931H10.1647H13.8839H16.0383H16.2342C16.7238 4.95142 17.1534 5.19238 17.3959 5.55488C18.4612 6.48645 19.2992 8.27589 19.6616 9.31854L21.166 11.2295C21.166 11.2295 21.5222 11.617 21.5222 12.5693V17.1529C21.5222 17.356 21.5222 17.5206 21.5222 17.5206H2.47754C2.47754 17.5206 2.47754 17.356 2.47754 17.1529V12.5693C2.47754 11.617 2.91037 11.2004 2.93847 11.1586Z" fill="#428FFF"/>
<path d="M5.13178 6.25085C5.41648 4.93672 6.57908 3.99902 7.9237 3.99902H16.0757C17.4203 3.99902 18.5829 4.93672 18.8676 6.25085L19.6175 9.71241H4.38184L5.13178 6.25085Z" fill="#428FFF"/>
<path fill-rule="evenodd" clip-rule="evenodd" d="M2.95377 7.80811C2.05811 7.80811 1.33203 8.78257 1.33203 9.98463C1.33203 10.3603 1.55893 10.6648 1.83883 10.6648H3.76594H4.66217H5.33433V9.61233H4.66217V8.40951C4.66217 8.07737 4.46154 7.80811 4.21405 7.80811H2.95377Z" fill="#428FFF"/>
<path fill-rule="evenodd" clip-rule="evenodd" d="M21.0462 7.80811C21.9419 7.80811 22.668 8.78258 22.668 9.98466C22.668 10.3603 22.4411 10.6648 22.1612 10.6648H20.2341H19.3379H18.6657V9.61236H19.3379V8.40952C19.3379 8.07737 19.5385 7.80811 19.786 7.80811H21.0462Z" fill="#428FFF"/>
<path fill-rule="evenodd" clip-rule="evenodd" d="M9.16719 8.52882C9.42749 8.43664 9.71323 8.57291 9.80542 8.8332L10.7508 11.5024L11.6961 8.8332C11.7668 8.63357 11.9556 8.50014 12.1674 8.50014C12.3792 8.50014 12.568 8.63357 12.6387 8.8332L13.584 11.5024L14.5294 8.8332C14.6216 8.57291 14.9073 8.43664 15.1676 8.52882C15.4279 8.62101 15.5642 8.90675 15.472 9.16704L14.0554 13.1669C13.9846 13.3666 13.7958 13.5 13.584 13.5C13.3723 13.5 13.1834 13.3666 13.1127 13.1669L12.1674 10.4978L11.2221 13.1669C11.1514 13.3666 10.9625 13.5 10.7508 13.5C10.539 13.5 10.3502 13.3666 10.2795 13.1669L8.86281 9.16704C8.77062 8.90675 8.9069 8.62101 9.16719 8.52882Z" fill="white"/>
<path fill-rule="evenodd" clip-rule="evenodd" d="M8 10.8323C8 10.5561 8.22385 10.3323 8.49999 10.3323L9.49998 10.3323C9.77611 10.3323 9.99997 10.5561 9.99997 10.8323C9.99997 11.1084 9.77611 11.3322 9.49998 11.3322L8.49999 11.3322C8.22385 11.3322 8 11.1084 8 10.8323Z" fill="white"/>
<path fill-rule="evenodd" clip-rule="evenodd" d="M14.332 10.832C14.332 10.5559 14.5559 10.332 14.832 10.332L15.832 10.332C16.1081 10.332 16.332 10.5559 16.332 10.832C16.332 11.1082 16.1081 11.332 15.832 11.332L14.832 11.332C14.5559 11.332 14.332 11.1082 14.332 10.832Z" fill="white"/>
<path fill-rule="evenodd" clip-rule="evenodd" d="M21.25 14.75C21.25 16.4069 19.9069 17.75 18.25 17.75C16.5931 17.75 15.25 16.4069 15.25 14.75C15.25 13.0931 16.5931 11.75 18.25 11.75C19.9069 11.75 21.25 13.0931 21.25 14.75ZM20.8312 18.1267C20.1156 18.6745 19.2208 19 18.25 19C15.9028 19 14 17.0972 14 14.75C14 12.4028 15.9028 10.5 18.25 10.5C20.5972 10.5 22.5 12.4028 22.5 14.75C22.5 15.6755 22.2042 16.5318 21.702 17.2297L23.4579 18.9856C23.7019 19.2297 23.7019 19.6254 23.4579 19.8695C23.2138 20.1136 22.8181 20.1136 22.574 19.8695L20.8312 18.1267Z" fill="#09203E"/>
</svg>
