<svg width="36" height="37" viewBox="0 0 36 37" fill="none" xmlns="http://www.w3.org/2000/svg">
<path d="M4.5 11.5C4.5 9.84315 5.84315 8.5 7.5 8.5H28.5C30.1569 8.5 31.5 9.84315 31.5 11.5V25.5C31.5 27.1569 30.1569 28.5 28.5 28.5H7.5C5.84315 28.5 4.5 27.1569 4.5 25.5V11.5Z" fill="#FFC737"/>
<path d="M8.5 17.25C8.5 16.6977 8.94772 16.25 9.5 16.25H12C12.5523 16.25 13 16.6977 13 17.25V19.75C13 20.3023 12.5523 20.75 12 20.75H9.5C8.94772 20.75 8.5 20.3023 8.5 19.75V17.25Z" fill="white"/>
<path d="M35.4998 25.7499C35.4998 29.4778 32.4778 32.4998 28.7499 32.4998C25.022 32.4998 22 29.4778 22 25.7499C22 22.022 25.022 19 28.7499 19C32.4778 19 35.4998 22.022 35.4998 25.7499Z" fill="#0168FE"/>
<path d="M30.6618 22.5H28.5869C28.4256 22.5 28.2743 22.5778 28.1804 22.7089L25.5631 26.3641C25.3262 26.695 25.5627 27.1552 25.9696 27.1552H27.3771C27.7802 27.1552 28.0176 27.6076 27.7886 27.9393L27.143 28.8743C26.8189 29.3436 27.4072 29.9024 27.8593 29.5547L31.8312 26.4998C32.2097 26.2087 32.0038 25.6034 31.5264 25.6034H30.3315C29.9192 25.6034 29.684 25.1325 29.9318 24.803L31.0615 23.3005C31.3092 22.9709 31.0741 22.5 30.6618 22.5Z" fill="white"/>
</svg>
