<svg width="36" height="36" viewBox="0 0 36 36" fill="none" xmlns="http://www.w3.org/2000/svg">
<path d="M2 11C2 9.34315 3.34315 8 5 8H27C28.6569 8 30 9.34315 30 11V26C30 27.6569 28.6569 29 27 29H5C3.34315 29 2 27.6569 2 26V11Z" fill="#FFC737"/>
<path d="M6.00024 17C6.00024 16.4477 6.44796 16 7.00024 16H10.0002C10.5525 16 11.0002 16.4477 11.0002 17V20C11.0002 20.5523 10.5525 21 10.0002 21H7.00024C6.44796 21 6.00024 20.5523 6.00024 20V17Z" fill="white"/>
<path d="M35 26C35 29.866 31.866 33 28 33C24.134 33 21 29.866 21 26C21 22.134 24.134 19 28 19C31.866 19 35 22.134 35 26Z" fill="#074093"/>
<path d="M29.913 22.5H27.8381C27.6769 22.5 27.5255 22.5778 27.4316 22.7089L24.8143 26.3641C24.5774 26.695 24.8139 27.1552 25.2209 27.1552H26.6283C27.0314 27.1552 27.2688 27.6076 27.0398 27.9393L26.3942 28.8743C26.0702 29.3436 26.6584 29.9024 27.1105 29.5547L31.0825 26.4998C31.4609 26.2087 31.2551 25.6034 30.7776 25.6034H29.5827C29.1704 25.6034 28.9353 25.1325 29.183 24.803L30.3127 23.3005C30.5605 22.9709 30.3253 22.5 29.913 22.5Z" fill="white"/>
</svg>
