<svg width="36" height="36" viewBox="0 0 36 36" fill="none" xmlns="http://www.w3.org/2000/svg">
<path d="M25.3799 17.3834C25.3932 16.3468 25.6687 15.3303 26.1805 14.4287C26.6923 13.5272 27.424 12.7697 28.3072 12.2269C27.746 11.4256 27.0057 10.7662 26.1451 10.3009C25.2846 9.83558 24.3274 9.57726 23.3496 9.54642C21.2645 9.32693 19.2411 10.7947 18.1794 10.7947C17.0956 10.7947 15.4605 9.56837 13.6963 9.60403C12.5565 9.64077 11.4456 9.9722 10.4719 10.566C9.49829 11.1598 8.69509 11.9958 8.14062 12.9923C5.73863 17.1516 7.53018 23.2629 9.83204 26.6251C10.983 28.2713 12.3287 30.1095 14.0846 30.045C15.8075 29.9751 16.4509 28.9476 18.5305 28.9476C20.6102 28.9476 21.1945 30.045 22.9902 30.0039C24.8394 29.975 26.0081 28.3495 27.1138 26.6882C27.9414 25.5156 28.5781 24.2192 29 22.8473C27.9275 22.3915 27.0126 21.6307 26.369 20.6593C25.7254 19.6878 25.3814 18.5487 25.3799 17.3834Z" fill="#0F0F0F"/>
<path d="M23.3606 7.33484C24.3686 6.12517 24.8652 4.57003 24.7447 3C23.2075 3.16264 21.7875 3.89709 20.7665 5.05768C20.267 5.62625 19.8843 6.28766 19.6405 7.00415C19.3966 7.72063 19.2963 8.47814 19.3453 9.23339C20.1146 9.24087 20.8755 9.07393 21.5709 8.7451C22.2663 8.41627 22.8782 7.93411 23.3606 7.33484Z" fill="#0F0F0F"/>
</svg>
