<svg width="24" height="24" viewBox="0 0 24 24" fill="none" xmlns="http://www.w3.org/2000/svg">
<path d="M4.5 5C4.5 3.89543 5.39543 3 6.5 3H17.5C18.6046 3 19.5 3.89543 19.5 5V21H4.5V5Z" fill="#AFC3DC"/>
<path d="M8.5 7C8.5 6.72386 8.72386 6.5 9 6.5H10.5C10.7761 6.5 11 6.72386 11 7V8.5C11 8.77614 10.7761 9 10.5 9H9C8.72386 9 8.5 8.77614 8.5 8.5V7Z" fill="white"/>
<path d="M8.5 11.5C8.5 11.2239 8.72386 11 9 11H10.5C10.7761 11 11 11.2239 11 11.5V13C11 13.2761 10.7761 13.5 10.5 13.5H9C8.72386 13.5 8.5 13.2761 8.5 13V11.5Z" fill="white"/>
<path d="M10 17.5C10 17.2239 10.2239 17 10.5 17H13.5C13.7761 17 14 17.2239 14 17.5V21H10V17.5Z" fill="#82A3D2"/>
<path d="M13 7C13 6.72386 13.2239 6.5 13.5 6.5H15C15.2761 6.5 15.5 6.72386 15.5 7V8.5C15.5 8.77614 15.2761 9 15 9H13.5C13.2239 9 13 8.77614 13 8.5V7Z" fill="white"/>
<path d="M13 11.5C13 11.2239 13.2239 11 13.5 11H15C15.2761 11 15.5 11.2239 15.5 11.5V13C15.5 13.2761 15.2761 13.5 15 13.5H13.5C13.2239 13.5 13 13.2761 13 13V11.5Z" fill="white"/>
</svg>
