<svg width="24" height="24" viewBox="0 0 24 24" fill="none" xmlns="http://www.w3.org/2000/svg">
<path d="M5.33398 4C5.33398 2.89543 6.22941 2 7.33398 2H16.6673C17.7719 2 18.6673 2.89543 18.6673 4V20C18.6673 21.1046 17.7719 22 16.6673 22H7.33398C6.22941 22 5.33398 21.1046 5.33398 20V4Z" fill="#99ABC1"/>
<path d="M5.33398 4.66797H18.6673V19.3346H5.33398V4.66797Z" fill="#DCEAFC"/>
<path d="M13.5906 15.4867C13.5764 15.4836 13.5618 15.4803 13.5476 15.4771C12.258 15.0736 11.1472 14.2005 10.4142 13.0144C9.6812 11.8283 9.37385 10.4066 9.54722 9.00395C9.55748 8.92463 9.58305 8.84834 9.62238 8.77979C9.66171 8.71123 9.71397 8.65186 9.77593 8.60532C9.83639 8.55988 9.90516 8.52813 9.9779 8.51207C10.0506 8.496 10.1257 8.49598 10.1985 8.51199L11.3121 8.75214C11.4313 8.77815 11.5387 8.84535 11.6174 8.94303C11.696 9.04071 11.7412 9.16325 11.7459 9.29111L11.7818 10.3113C11.7859 10.4238 11.758 10.5351 11.7017 10.631C11.6454 10.7269 11.5632 10.803 11.4656 10.8496L10.9496 11.0974C11.1889 11.9342 11.6481 12.6829 12.2744 13.2575L12.7165 12.8531C12.7974 12.7792 12.8972 12.732 13.0034 12.7174C13.1097 12.7028 13.2177 12.7214 13.314 12.7709L14.1922 13.2204C14.3022 13.2759 14.3911 13.3687 14.4448 13.4838C14.4984 13.5989 14.5135 13.7297 14.4878 13.855L14.2461 15.0497C14.231 15.1261 14.2009 15.1983 14.1576 15.2617C14.1143 15.3252 14.0589 15.3783 13.9949 15.4179C13.8732 15.4935 13.7288 15.5181 13.5906 15.4867Z" fill="#00CBC1"/>
</svg>
