<svg width="24" height="24" viewBox="0 0 24 24" fill="none" xmlns="http://www.w3.org/2000/svg">
<path d="M2.47754 16.1914H6.28646V19.0481C6.28646 19.574 5.86013 20.0003 5.33423 20.0003H3.42977C2.90387 20.0003 2.47754 19.574 2.47754 19.0481V16.1914Z" fill="#F3A735"/>
<path d="M17.7136 16.1914H21.5225V19.0481C21.5225 19.574 21.0962 20.0003 20.5703 20.0003H18.6659C18.14 20.0003 17.7136 19.574 17.7136 19.0481V16.1914Z" fill="#F3A735"/>
<path fill-rule="evenodd" clip-rule="evenodd" d="M2.93847 11.1584L4.38709 9.3183C4.89304 7.86259 6.32602 4.95117 8.01035 4.95117H8.05931H10.1647H13.8839H16.0383H16.2342C16.7238 4.95117 17.1534 5.19213 17.3959 5.55464C18.4612 6.4862 19.2992 8.27565 19.6616 9.3183L21.166 11.2293C21.166 11.2293 21.5222 11.6168 21.5222 12.569V17.1526C21.5222 17.3557 21.5222 17.5204 21.5222 17.5204H2.47754C2.47754 17.5204 2.47754 17.3557 2.47754 17.1526V12.569C2.47754 11.6168 2.91037 11.2002 2.93847 11.1584Z" fill="#FFC737"/>
<path d="M5.13178 6.25085C5.41648 4.93672 6.57908 3.99902 7.9237 3.99902H16.0757C17.4203 3.99902 18.5829 4.93672 18.8676 6.25085L19.6175 9.71241H4.38184L5.13178 6.25085Z" fill="#FFC737"/>
<path fill-rule="evenodd" clip-rule="evenodd" d="M2.95377 7.80762C2.05811 7.80762 1.33203 8.78208 1.33203 9.98414C1.33203 10.3598 1.55893 10.6643 1.83883 10.6643H3.76594H4.66217H5.33433V9.61184H4.66217V8.40903C4.66217 8.07688 4.46154 7.80762 4.21405 7.80762H2.95377Z" fill="#FFC737"/>
<path fill-rule="evenodd" clip-rule="evenodd" d="M21.0462 7.80762C21.9419 7.80762 22.668 8.7821 22.668 9.98418C22.668 10.3598 22.4411 10.6644 22.1612 10.6644H20.2341H19.3379H18.6657V9.61187H19.3379V8.40903C19.3379 8.07688 19.5385 7.80762 19.786 7.80762H21.0462Z" fill="#FFC737"/>
<path d="M16.8528 10.7875C17.0491 10.6514 17.0491 10.3484 16.8528 10.2123L13.7446 8.05735C13.5271 7.90653 13.2375 8.07077 13.2375 8.34497V9.88259L8.65482 9.8773C8.29344 9.87702 8.00027 10.1852 8 10.5656C7.99973 10.946 8.29247 11.2546 8.65385 11.2548L13.2375 11.2601V12.6551C13.2375 12.9292 13.5271 13.0935 13.7446 12.9426L16.8528 10.7875Z" fill="white"/>
</svg>
