<svg width="36" height="37" viewBox="0 0 36 37" fill="none" xmlns="http://www.w3.org/2000/svg">
<path d="M5 11C5 10.1716 5.67157 9.5 6.5 9.5H11.5C12.3284 9.5 13 10.1716 13 11V27C13 27.8284 12.3284 28.5 11.5 28.5H6.5C5.67157 28.5 5 27.8284 5 27V11Z" fill="#143B75"/>
<path d="M25 11C25 10.1716 25.6716 9.5 26.5 9.5H28.5C29.3284 9.5 30 10.1716 30 11V27C30 27.8284 29.3284 28.5 28.5 28.5H26.5C25.6716 28.5 25 27.8284 25 27V11Z" fill="#143B75"/>
<path d="M21 10.5C21 9.94771 21.4477 9.5 22 9.5C22.5523 9.5 23 9.94772 23 10.5V27.5C23 28.0523 22.5523 28.5 22 28.5C21.4477 28.5 21 28.0523 21 27.5V10.5Z" fill="#143B75"/>
<path d="M15 11C15 10.1716 15.6716 9.5 16.5 9.5H17.5C18.3284 9.5 19 10.1716 19 11V27C19 27.8284 18.3284 28.5 17.5 28.5H16.5C15.6716 28.5 15 27.8284 15 27V11Z" fill="#143B75"/>
</svg>
