<svg width="36" height="36" viewBox="0 0 36 36" fill="none" xmlns="http://www.w3.org/2000/svg">
<g clip-path="url(#clip0_4925_40078)">
<path fill-rule="evenodd" clip-rule="evenodd" d="M13.9496 5.12013C15.608 3.62662 18.1196 3.62662 19.7781 5.12015L21.7066 6.85686C22.1664 7.2709 22.7083 7.58227 23.2967 7.7704L25.6851 8.53412C27.7751 9.20244 29.0473 11.3248 28.6577 13.4934L28.0961 16.6195C27.9959 17.1769 28.0042 17.7485 28.1203 18.3027L28.5812 20.5013C29.019 22.5901 27.8968 24.6922 25.9227 25.4812L23.0051 26.6474C22.6066 26.8067 22.2337 27.024 21.8983 27.2925L19.5846 29.1446C17.9925 30.419 15.7351 30.419 14.143 29.1446L11.8293 27.2925C11.4939 27.024 11.121 26.8067 10.7226 26.6474L7.80494 25.4812C5.83087 24.6922 4.70866 22.5901 5.14644 20.5014L5.60728 18.3026C5.72343 17.7484 5.73167 17.1769 5.63155 16.6196L5.06992 13.4934C4.68034 11.3248 5.9525 9.20244 8.04252 8.53413L10.4309 7.7704C11.0193 7.58227 11.5612 7.27091 12.021 6.85688L13.9496 5.12013ZM16.8639 21.7953C19.4848 21.7953 21.6095 19.6706 21.6095 17.0497C21.6095 14.4288 19.4848 12.3042 16.8639 12.3042C14.2431 12.3042 12.1184 14.4288 12.1184 17.0497C12.1184 19.6706 14.2431 21.7953 16.8639 21.7953Z" fill="#20C7BF"/>
<path fill-rule="evenodd" clip-rule="evenodd" d="M28.6752 18.4419C30.0552 18.1484 31.4301 18.9423 31.866 20.2841L32.3728 21.8444C32.4937 22.2164 32.692 22.5581 32.9546 22.8471L34.0207 24.02C34.9537 25.0465 34.9793 26.6105 34.0806 27.6745L32.7851 29.2084C32.5541 29.4818 32.3779 29.7974 32.2664 30.1375L31.8237 31.4868C31.4032 32.7686 30.1245 33.5647 28.7944 33.3727L26.8285 33.089C26.5601 33.0502 26.2872 33.0514 26.0188 33.0923L24.1668 33.3749C22.8924 33.5694 21.6566 32.8559 21.1878 31.6551L20.5066 29.9098C20.4078 29.6569 20.2724 29.42 20.1046 29.2069L18.8759 27.6463C18.0446 26.5904 18.0947 25.0849 18.9945 24.0799L19.9417 23.0218C20.1805 22.7551 20.3657 22.4449 20.487 22.1081L21.1676 20.2192C21.6398 18.9089 23.007 18.1491 24.3624 18.4438L25.9113 18.7806C26.2929 18.8636 26.6879 18.8644 27.0705 18.7831L28.6752 18.4419ZM25.0012 28.492C26.436 29.3204 28.2706 28.8288 29.099 27.394C29.9274 25.9592 29.4358 24.1245 28.001 23.2962C26.5662 22.4678 24.7316 22.9594 23.9032 24.3942C23.0748 25.829 23.5664 27.6636 25.0012 28.492Z" fill="#4E627D"/>
</g>
<defs>
<clipPath id="clip0_4925_40078">
<rect width="36" height="36" fill="white"/>
</clipPath>
</defs>
</svg>
