<svg width="36" height="36" viewBox="0 0 36 36" fill="none" xmlns="http://www.w3.org/2000/svg">
<path fill-rule="evenodd" clip-rule="evenodd" d="M13.9496 5.12013C15.608 3.62662 18.1196 3.62662 19.7781 5.12015L21.7066 6.85686C22.1664 7.2709 22.7083 7.58227 23.2967 7.7704L25.6851 8.53412C27.7751 9.20244 29.0473 11.3248 28.6577 13.4934L28.0961 16.6195C27.9959 17.1769 28.0042 17.7485 28.1203 18.3027L28.5812 20.5013C29.019 22.5901 27.8968 24.6922 25.9227 25.4812L23.0051 26.6474C22.6066 26.8067 22.2337 27.024 21.8983 27.2925L19.5846 29.1446C17.9925 30.419 15.7351 30.419 14.143 29.1446L11.8293 27.2925C11.4939 27.024 11.121 26.8067 10.7226 26.6474L7.80494 25.4812C5.83087 24.6922 4.70866 22.5901 5.14644 20.5014L5.60728 18.3026C5.72343 17.7484 5.73167 17.1769 5.63155 16.6196L5.06992 13.4934C4.68034 11.3248 5.9525 9.20244 8.04252 8.53413L10.4309 7.7704C11.0193 7.58227 11.5612 7.27091 12.021 6.85688L13.9496 5.12013ZM16.8647 21.7967C19.4855 21.7967 21.6102 19.6721 21.6102 17.0512C21.6102 14.4303 19.4855 12.3057 16.8647 12.3057C14.2438 12.3057 12.1191 14.4303 12.1191 17.0512C12.1191 19.6721 14.2438 21.7967 16.8647 21.7967Z" fill="#20C7BF"/>
<path fill-rule="evenodd" clip-rule="evenodd" d="M28.6782 18.4419C30.0581 18.1484 31.4331 18.9423 31.8689 20.2841L32.3758 21.8444C32.4966 22.2164 32.6949 22.5581 32.9575 22.8471L34.0237 24.02C34.9566 25.0465 34.9822 26.6105 34.0835 27.6745L32.788 29.2084C32.557 29.4818 32.3809 29.7974 32.2693 30.1375L31.8267 31.4868C31.4062 32.7686 30.1274 33.5647 28.7973 33.3727L26.8315 33.089C26.563 33.0502 26.2901 33.0514 26.0217 33.0923L24.1697 33.3749C22.8953 33.5694 21.6595 32.8559 21.1907 31.6551L20.5095 29.9098C20.4107 29.6569 20.2753 29.42 20.1075 29.2069L18.8789 27.6463C18.0476 26.5904 18.0976 25.0849 18.9974 24.0799L19.9447 23.0218C20.1834 22.7551 20.3686 22.4449 20.4899 22.1081L21.1706 20.2192C21.6427 18.9089 23.0099 18.1491 24.3653 18.4438L25.9142 18.7806C26.2958 18.8636 26.6909 18.8644 27.0734 18.7831L28.6782 18.4419ZM25.0024 28.4926C26.4372 29.321 28.2718 28.8294 29.1002 27.3946C29.9286 25.9598 29.437 24.1251 28.0022 23.2968C26.5674 22.4684 24.7328 22.96 23.9044 24.3948C23.076 25.8296 23.5676 27.6642 25.0024 28.4926Z" fill="#4E627D"/>
</svg>
