<svg width="36" height="36" viewBox="0 0 36 36" fill="none" xmlns="http://www.w3.org/2000/svg">
<g clip-path="url(#clip0_5363_40253)">
<path d="M27.5432 21.8325C27.5432 21.8325 28.2786 20.337 30.529 18.7417C32.7795 17.1465 33.6491 17.4179 34.0357 17.9426C34.3416 18.3578 33.9867 19.4423 32.5745 19.9765C32.5745 19.9765 35.7684 18.9637 35.9902 20.4381C36.212 21.9126 32.6479 22.0613 32.6479 22.0613C32.6479 22.0613 34.7263 21.8099 34.7412 22.8423C34.7561 23.8747 29.5795 23.8174 28.3784 23.498L27.5432 21.8325Z" fill="#7BC1C3"/>
<path d="M12.5012 18.5184C13.367 17.264 11.4932 14.1396 9.13338 12.2835C6.77355 10.4274 1.42791 6.78245 0.159092 8.02966C-1.10973 9.27687 5.61601 13.0064 5.61601 13.0064C5.61601 13.0064 1.01721 10.7079 0.351824 12.8237C-0.161364 14.4575 4.71774 15.5676 4.71774 15.5676C4.71774 15.5676 1.53384 14.9995 1.01568 16.3453C0.274196 18.2704 9.98882 22.1585 12.5012 18.5184Z" fill="#F6BFBA"/>
<path d="M0.159578 8.02979C0.159578 8.02979 8.64247 11.007 12.7151 17.8074C12.7107 17.9616 12.6827 18.1144 12.6321 18.2604C9.59934 13.7271 5.17094 10.2759 0.000114799 8.41595C-0.0034512 8.3443 0.00882912 8.27275 0.0361025 8.20626C0.0633758 8.13976 0.104988 8.07993 0.158048 8.03092" fill="#F8CDCC"/>
<path d="M0.443961 12.6059C0.443961 12.6059 5.71197 12.4847 12.5012 18.5196C12.5012 18.5196 12.3918 18.6736 12.3222 18.7521C12.3222 18.7521 6.56588 13.459 0.328857 12.9162C0.350824 12.8076 0.389513 12.7029 0.443579 12.6059" fill="#F8CDCC"/>
<path d="M1.02644 16.8363C4.53062 17.4417 7.97692 18.3374 11.3288 19.5138C11.4149 19.4737 11.4983 19.4283 11.5785 19.3779C11.5785 19.3779 8.39845 17.868 0.977492 16.509C0.977492 16.509 0.916689 16.5332 1.02644 16.8374" fill="#F8CDCC"/>
<path d="M14.3846 8.98667C16.7723 8.92288 19.7222 8.97837 21.0644 12.4773C22.4067 15.9762 23.3665 19.2591 25.9156 19.9514C28.4648 20.6438 29.4812 21.6026 29.2364 22.803C28.9917 24.0034 27.1302 26.8522 21.2365 26.7665C15.3429 26.6809 11.2451 24.4137 9.47069 19.3003C7.69633 14.1869 10.8986 9.08029 14.3846 8.98667Z" fill="#7EC9CC"/>
<path d="M16.7995 12.592C16.782 12.6937 16.7954 12.7982 16.8381 12.8924C16.8808 12.9866 16.9508 13.0662 17.0393 13.1211C17.1278 13.176 17.2308 13.2037 17.3353 13.2008C17.4398 13.1979 17.541 13.1645 17.6263 13.1048C17.7115 13.0451 17.7769 12.9618 17.8142 12.8654C17.8515 12.769 17.859 12.6639 17.8357 12.5633C17.8125 12.4627 17.7595 12.3711 17.6835 12.3003C17.6076 12.2294 17.5121 12.1823 17.409 12.165C17.2708 12.142 17.129 12.174 17.0148 12.254C16.9005 12.3341 16.823 12.4556 16.7995 12.592Z" fill="#9A6D49"/>
<path d="M17.9953 13.5961C17.9559 13.825 17.9863 14.0603 18.0824 14.2722C18.1785 14.4841 18.3361 14.6631 18.5352 14.7865C18.7344 14.91 18.9662 14.9724 19.2013 14.9659C19.4364 14.9594 19.6642 14.8842 19.856 14.7498C20.0478 14.6155 20.195 14.428 20.2789 14.2111C20.3627 13.9942 20.3796 13.7576 20.3273 13.5313C20.275 13.3049 20.1559 13.099 19.985 12.9395C19.8141 12.7799 19.5992 12.674 19.3673 12.635C19.2133 12.6092 19.0556 12.6135 18.9033 12.6478C18.751 12.6821 18.607 12.7457 18.4796 12.835C18.3521 12.9242 18.2438 13.0374 18.1607 13.168C18.0776 13.2986 18.0214 13.4441 17.9953 13.5961Z" fill="#EF8E8A"/>
<path d="M10.7074 12.1004C10.6899 12.202 10.7034 12.3065 10.7461 12.4005C10.7887 12.4946 10.8587 12.5741 10.947 12.629C11.0354 12.6839 11.1383 12.7117 11.2427 12.7089C11.347 12.7061 11.4482 12.6729 11.5335 12.6134C11.6187 12.5539 11.6842 12.4708 11.7217 12.3746C11.7592 12.2784 11.7669 12.1734 11.744 12.0729C11.7211 11.9723 11.6685 11.8807 11.5929 11.8096C11.5173 11.7385 11.4221 11.6912 11.3192 11.6735C11.2506 11.6617 11.1804 11.6634 11.1124 11.6786C11.0445 11.6937 10.9803 11.7219 10.9235 11.7615C10.8666 11.8012 10.8183 11.8515 10.7812 11.9097C10.7441 11.9678 10.719 12.0327 10.7074 12.1004Z" fill="#9A6D49"/>
<path d="M28.0761 24.6782C26.1157 24.6925 24.2059 24.0644 22.646 22.8924C20.1221 20.9453 17.2426 16.166 13.1788 17.0602C9.11494 17.9545 11.2667 22.6595 11.2667 22.6595C11.2667 22.6595 13.1023 26.249 20.285 26.7318C25.9538 27.1134 28.0761 24.6782 28.0761 24.6782Z" fill="#B4DEE1"/>
<path d="M25.363 28.466C25.656 28.4652 25.9489 28.4493 26.2402 28.4184C26.2766 28.4147 26.31 28.3968 26.333 28.3688C26.356 28.3408 26.3668 28.3048 26.363 28.2689C26.3592 28.2331 26.3411 28.2001 26.3127 28.1774C26.2843 28.1547 26.2479 28.144 26.2116 28.1478C24.651 28.309 23.4884 28.0474 22.7565 27.3705C22.5051 27.129 22.3045 26.8408 22.1661 26.5226C22.0277 26.2043 21.9543 25.8623 21.95 25.516C21.9504 25.4806 21.9367 25.4465 21.9121 25.4208C21.8874 25.3952 21.8535 25.38 21.8177 25.3785C21.7819 25.3771 21.7469 25.3894 21.7202 25.4129C21.6934 25.4365 21.677 25.4693 21.6743 25.5046C21.6748 25.8893 21.7537 26.2699 21.9063 26.6238C22.0589 26.9777 22.2821 27.2976 22.5626 27.5646C23.2078 28.1633 24.1469 28.4645 25.3611 28.4645" fill="#81593D"/>
<path d="M26.3282 28.3799C26.3592 28.3798 26.3894 28.3695 26.4137 28.3504C26.4381 28.3314 26.4552 28.3048 26.4624 28.2749C26.4685 28.2492 26.6215 27.6445 27.1446 27.5917C27.1626 27.5899 27.1801 27.5846 27.196 27.5761C27.2119 27.5676 27.226 27.5561 27.2374 27.5423C27.2489 27.5284 27.2574 27.5125 27.2626 27.4954C27.2678 27.4783 27.2696 27.4603 27.2677 27.4426C27.2659 27.4248 27.2605 27.4075 27.2519 27.3918C27.2434 27.3761 27.2317 27.3622 27.2177 27.3509C27.2037 27.3396 27.1875 27.3312 27.1702 27.326C27.1529 27.3209 27.1347 27.3192 27.1167 27.321C26.3966 27.3939 26.2016 28.1794 26.1939 28.2126C26.1897 28.23 26.1891 28.248 26.1919 28.2657C26.1948 28.2833 26.2012 28.3002 26.2107 28.3154C26.2203 28.3306 26.2327 28.3438 26.2474 28.3542C26.2621 28.3646 26.2788 28.372 26.2964 28.3761C26.3068 28.3786 26.3175 28.3799 26.3282 28.3799Z" fill="#81593D"/>
<path d="M26.4541 29.5864C26.4844 29.5863 26.5137 29.5764 26.5377 29.5582C26.5617 29.54 26.579 29.5146 26.5869 29.4858C26.5948 29.457 26.5929 29.4264 26.5815 29.3987C26.5701 29.3711 26.5498 29.3479 26.5237 29.3327C26.1482 29.1172 26.4323 28.4219 26.435 28.4147C26.449 28.3814 26.4489 28.3439 26.4349 28.3106C26.4209 28.2773 26.394 28.2509 26.3603 28.2371C26.3265 28.2233 26.2885 28.2234 26.2548 28.2372C26.2211 28.2511 26.1943 28.2776 26.1803 28.3109C26.1647 28.3486 25.8018 29.2331 26.3849 29.5679C26.4059 29.58 26.4298 29.5864 26.4541 29.5864Z" fill="#81593D"/>
<path d="M27.3332 29.2529C27.4099 29.2527 27.4866 29.2475 27.5626 29.2374C27.5986 29.2321 27.6309 29.213 27.6527 29.1842C27.6744 29.1554 27.6838 29.1194 27.6788 29.0838C27.6737 29.0483 27.6547 29.0161 27.6258 28.9944C27.5969 28.9726 27.5604 28.9629 27.5244 28.9675C27.4044 28.9921 27.2807 28.9925 27.1606 28.9688C27.0405 28.945 26.9265 28.8976 26.8254 28.8294C26.6826 28.7117 26.5868 28.5479 26.555 28.367C26.5529 28.3492 26.5473 28.332 26.5385 28.3164C26.5297 28.3008 26.5179 28.2871 26.5037 28.276C26.4895 28.2649 26.4732 28.2567 26.4558 28.2518C26.4384 28.2469 26.4202 28.2454 26.4022 28.2475C26.3842 28.2495 26.3669 28.2551 26.351 28.2638C26.3352 28.2725 26.3213 28.2841 26.3101 28.2981C26.2988 28.3121 26.2905 28.3282 26.2855 28.3454C26.2806 28.3626 26.2791 28.3805 26.2812 28.3983C26.3208 28.6519 26.4545 28.882 26.6563 29.0438C26.851 29.1874 27.0895 29.2612 27.3324 29.2529" fill="#81593D"/>
<path d="M27.1156 28.57C27.3479 28.5707 27.5779 28.5244 27.7913 28.4338C27.8249 28.4195 27.8514 28.3926 27.8649 28.3591C27.8784 28.3256 27.8779 28.2882 27.8634 28.255C27.849 28.2219 27.8218 28.1958 27.7878 28.1824C27.7539 28.1691 27.7159 28.1696 27.6824 28.1839C27.4756 28.2641 27.2542 28.3009 27.0323 28.292C26.8103 28.283 26.5927 28.2284 26.3933 28.1318C26.3612 28.1152 26.3239 28.1117 26.2893 28.122C26.2547 28.1324 26.2255 28.1557 26.2082 28.187C26.1908 28.2183 26.1865 28.2551 26.1963 28.2894C26.2061 28.3238 26.2292 28.353 26.2606 28.3707C26.5262 28.5013 26.8189 28.5695 27.1156 28.57Z" fill="#81593D"/>
<path d="M19.916 29.7059C19.9485 29.7058 19.98 29.6945 20.0048 29.6737C20.0296 29.653 20.0462 29.6242 20.0516 29.5926C20.057 29.5609 20.0509 29.5284 20.0343 29.5008C20.0178 29.4731 19.9918 29.4522 19.9611 29.4416C18.4789 28.9339 17.5386 28.2103 17.1665 27.29C16.9176 26.636 16.9421 25.9112 17.2346 25.275C17.2498 25.2431 17.2519 25.2067 17.2405 25.1733C17.2291 25.1399 17.2051 25.1122 17.1734 25.096C17.1418 25.0797 17.105 25.0762 17.0708 25.0861C17.0365 25.096 17.0075 25.1187 16.9898 25.1493C16.8249 25.4977 16.7327 25.8754 16.7189 26.2598C16.705 26.6442 16.7697 27.0274 16.9091 27.3866C17.3107 28.3847 18.3072 29.1608 19.8709 29.6979C19.8854 29.703 19.9006 29.7059 19.916 29.7059Z" fill="#81593D"/>
<path d="M20.0254 29.7148C20.0463 29.7148 20.0668 29.7102 20.0856 29.7012C20.1043 29.6923 20.1208 29.6792 20.1337 29.6631C20.2375 29.5274 20.3786 29.424 20.5402 29.3651C20.7018 29.3062 20.8771 29.2942 21.0453 29.3305C21.0793 29.3403 21.1158 29.3368 21.1472 29.3208C21.1787 29.3048 21.2027 29.2775 21.2144 29.2445C21.226 29.2115 21.2244 29.1753 21.2098 29.1435C21.1952 29.1117 21.1687 29.0866 21.1359 29.0734C20.9134 29.0183 20.6794 29.0287 20.4628 29.1036C20.2463 29.1784 20.0567 29.3142 19.9176 29.4943C19.9063 29.5083 19.898 29.5244 19.893 29.5416C19.888 29.5587 19.8865 29.5767 19.8886 29.5945C19.8907 29.6122 19.8964 29.6294 19.9052 29.645C19.914 29.6606 19.9259 29.6743 19.9402 29.6853C19.9644 29.7045 19.9944 29.7149 20.0254 29.7148Z" fill="#81593D"/>
<path d="M19.6213 30.8595C19.6466 30.8598 19.6715 30.8533 19.6933 30.8405C19.7151 30.8278 19.7329 30.8094 19.7447 30.7873C19.7566 30.7652 19.762 30.7403 19.7605 30.7153C19.759 30.6904 19.7505 30.6664 19.736 30.6459C19.4889 30.2937 20.045 29.7829 20.0507 29.7776C20.0758 29.7528 20.0902 29.7194 20.0909 29.6843C20.0917 29.6493 20.0787 29.6153 20.0547 29.5894C20.0308 29.5636 19.9976 29.5478 19.9622 29.5455C19.9267 29.5431 19.8917 29.5544 19.8645 29.5768C19.8343 29.6044 19.1253 30.2533 19.5092 30.801C19.5221 30.8192 19.5392 30.8341 19.5592 30.8443C19.5792 30.8545 19.6014 30.8597 19.6239 30.8595" fill="#81593D"/>
<path d="M20.7574 31C20.7896 30.9992 20.8205 30.9873 20.8448 30.9662C20.869 30.9452 20.885 30.9165 20.8899 30.885C20.8949 30.8536 20.8885 30.8214 20.8719 30.7941C20.8553 30.7668 20.8295 30.7462 20.799 30.7358C20.6799 30.7077 20.5677 30.6563 20.4691 30.5845C20.3706 30.5127 20.2877 30.422 20.2254 30.3179C20.1466 30.1515 20.1302 29.9629 20.1792 29.7856C20.1849 29.7687 20.1872 29.7508 20.1859 29.733C20.1846 29.7152 20.1798 29.6978 20.1717 29.6819C20.1637 29.6659 20.1525 29.6517 20.1388 29.64C20.1252 29.6283 20.1093 29.6193 20.0922 29.6137C20.075 29.608 20.0569 29.6058 20.0389 29.607C20.0208 29.6083 20.0032 29.613 19.9871 29.621C19.9709 29.629 19.9565 29.64 19.9446 29.6535C19.9327 29.667 19.9237 29.6826 19.918 29.6996C19.8448 29.9458 19.8667 30.2101 19.9795 30.4413C20.0578 30.5781 20.1634 30.6977 20.2899 30.7929C20.4165 30.8881 20.5613 30.9569 20.7157 30.9951C20.7291 30.9994 20.7432 31.0016 20.7574 31.0015" fill="#81593D"/>
<path d="M21.2732 30.3635C21.3086 30.3622 21.3422 30.3476 21.367 30.3227C21.3918 30.2977 21.4059 30.2643 21.4064 30.2293C21.407 30.1944 21.3939 30.1606 21.3699 30.1349C21.3459 30.1092 21.3128 30.0936 21.2774 30.0913C21.0559 30.0767 20.8397 30.017 20.6427 29.9159C20.4456 29.8149 20.2718 29.6748 20.1321 29.5043C20.1105 29.4752 20.0781 29.4558 20.042 29.4503C20.0059 29.4448 19.9691 29.4537 19.9396 29.475C19.9101 29.4964 19.8905 29.5284 19.8849 29.564C19.8793 29.5997 19.8884 29.636 19.91 29.6651C20.0733 29.87 20.2789 30.0382 20.5132 30.1586C20.7474 30.279 21.005 30.3489 21.2686 30.3635H21.2732Z" fill="#81593D"/>
<path d="M20.9481 18.0825C19.9324 16.9429 21.402 13.6153 23.5121 11.486C25.6222 9.35657 30.473 5.08987 31.8875 6.17363C33.302 7.25739 27.0929 11.7755 27.0929 11.7755C27.0929 11.7755 31.3701 8.93492 32.2936 10.9541C33.0068 12.5127 28.3032 14.2076 28.3032 14.2076C28.3032 14.2076 31.3923 13.2571 32.0741 14.5292C33.0504 16.3506 23.8949 21.3892 20.9462 18.0825" fill="#F6BFBA"/>
<path d="M31.8873 6.17334C31.8873 6.17334 23.8388 10.1592 20.6472 17.4027C20.6708 17.5557 20.7177 17.7042 20.7864 17.8433C23.2298 12.9754 27.1932 9.01144 32.0922 6.5361C32.0867 6.46458 32.0656 6.39509 32.0302 6.33245C31.9948 6.26981 31.946 6.21551 31.8873 6.17334Z" fill="#F8CDCC"/>
<path d="M32.1757 10.7483C32.1757 10.7483 26.9325 11.2685 20.9482 18.0828C20.9482 18.0828 21.0756 18.2221 21.1547 18.2919C21.1547 18.2919 26.2067 12.339 32.3286 11.0442C32.2932 10.9391 32.2416 10.8399 32.1757 10.7502" fill="#F8CDCC"/>
<path d="M32.126 15.0181C28.7237 16.0445 25.4152 17.3521 22.2354 18.9269C22.1453 18.8972 22.057 18.8622 21.9712 18.822C21.9712 18.822 24.9379 16.9346 32.1332 14.6863C32.1332 14.6863 32.1967 14.7029 32.126 15.0181Z" fill="#F8CDCC"/>
<path d="M10.0673 12.0557C10.0673 12.0557 10.7556 12.3493 10.4573 13.2579C10.43 13.3839 10.3776 13.5032 10.3031 13.609C10.2286 13.7147 10.1335 13.8048 10.0234 13.8739C9.91322 13.9429 9.79025 13.9897 9.66163 14.0114C9.533 14.033 9.40128 14.0292 9.27417 14.0001C9.44819 13.3195 9.715 12.6654 10.0673 12.0557Z" fill="#EF8E8A"/>
<path d="M17.5119 8.92652C17.5907 8.22931 17.6041 7.01343 16.6576 7.35883C15.7261 7.69857 16.6576 8.68531 17.1624 9.14282C16.4794 8.99636 15.1938 8.83404 15.4366 9.76303C15.6882 10.7256 16.6874 10.0273 17.2228 9.56371C17.1524 10.2696 17.1846 11.3126 18.074 10.9982C18.9042 10.7048 18.2752 9.88873 17.7731 9.38441C18.4763 9.51955 19.5149 9.58825 19.3027 8.74269C19.0622 7.7752 18.0507 8.46863 17.5104 8.92463" fill="#6DAC72"/>
<path d="M14.9956 18.0006C15.0569 18.167 15.151 18.3199 15.2725 18.4502C15.3792 18.5645 15.5075 18.6571 15.6503 18.7227C15.7182 18.758 15.7966 18.768 15.8713 18.751C15.9446 18.7311 16.0069 18.6832 16.0445 18.618C16.0821 18.5527 16.0919 18.4754 16.0717 18.403C16.0622 18.3675 16.0457 18.3343 16.023 18.3053C16.0004 18.2762 15.9721 18.252 15.9398 18.2339C15.8699 18.2022 15.8038 18.1628 15.7428 18.1165L15.8006 18.1606C15.7332 18.1087 15.6726 18.0487 15.6201 17.9821L15.6648 18.0395C15.6126 17.9725 15.5692 17.8994 15.5356 17.8217C15.5451 17.8443 15.5547 17.8666 15.5646 17.8892C15.5589 17.8764 15.5535 17.8632 15.5486 17.8515C15.5267 17.7814 15.48 17.7214 15.417 17.6824C15.35 17.6445 15.2706 17.6342 15.196 17.6537C15.124 17.6737 15.0626 17.7203 15.0247 17.7839C15.005 17.8164 14.9923 17.8525 14.9873 17.89C14.9823 17.9276 14.9851 17.9657 14.9956 18.0021" fill="#F6C667"/>
<path d="M13.7333 18.8696C13.7778 18.9908 13.8395 19.1052 13.9165 19.2093C14.0042 19.3317 14.1132 19.4378 14.2384 19.5226C14.2702 19.5431 14.3069 19.5547 14.3448 19.5562C14.3827 19.5648 14.4224 19.5631 14.4595 19.5513C14.5313 19.5311 14.5926 19.4845 14.6308 19.4211C14.65 19.3884 14.6624 19.3523 14.6674 19.3149C14.6723 19.2774 14.6696 19.2393 14.6595 19.2029L14.6308 19.1353C14.6056 19.0935 14.5703 19.0586 14.5279 19.0338L14.5088 19.0198L14.5669 19.064C14.4921 19.0066 14.4249 18.9402 14.3669 18.8662L14.4117 18.9236C14.3543 18.8493 14.3065 18.7683 14.2694 18.6824L14.2981 18.7499C14.2943 18.7401 14.2901 18.7307 14.2862 18.7209C14.2635 18.6512 14.217 18.5914 14.1547 18.5518C14.0877 18.5139 14.0083 18.5036 13.9337 18.5231C13.8617 18.543 13.8003 18.5897 13.7623 18.6533C13.7426 18.6857 13.7298 18.7219 13.7248 18.7594C13.7198 18.7969 13.7227 18.8351 13.7333 18.8715" fill="#F6C667"/>
<path d="M12.6033 18.1719C12.5871 18.2397 12.5812 18.3095 12.5857 18.3791C12.5898 18.4486 12.6037 18.5172 12.627 18.5829C12.6495 18.6469 12.6807 18.7076 12.7195 18.7634C12.7461 18.8008 12.7755 18.8361 12.8075 18.8691C12.8413 18.9002 12.8774 18.929 12.9153 18.9551C12.9472 18.9756 12.984 18.9872 13.022 18.9887C13.06 18.9974 13.0996 18.9957 13.1367 18.9838C13.2087 18.9637 13.2702 18.9171 13.3084 18.8536C13.3276 18.8209 13.3401 18.7848 13.345 18.7473C13.3499 18.7099 13.3472 18.6718 13.3371 18.6354L13.3084 18.5678C13.2832 18.5259 13.2477 18.491 13.2052 18.4663L13.1929 18.4569L13.2507 18.501C13.2224 18.4788 13.1968 18.4534 13.1742 18.4255L13.219 18.4829C13.1938 18.4504 13.1728 18.4151 13.1562 18.3776C13.1662 18.4002 13.1757 18.4225 13.1853 18.4452C13.1685 18.4052 13.1569 18.3634 13.1509 18.3206L13.1612 18.3961C13.1564 18.3577 13.1564 18.3189 13.1612 18.2806L13.1509 18.3561C13.1509 18.3447 13.1543 18.3334 13.1566 18.3225C13.1752 18.2488 13.165 18.1709 13.1279 18.1043C13.0897 18.0409 13.0285 17.9943 12.9566 17.9741C12.9197 17.9642 12.8811 17.9616 12.8432 17.9665C12.8053 17.9715 12.7687 17.9838 12.7356 18.0027C12.6708 18.0398 12.623 18.1006 12.6033 18.1719Z" fill="#F6C667"/>
<path d="M11.7639 18.8538C11.7366 18.978 11.7353 19.1065 11.7601 19.2312C11.7774 19.3329 11.811 19.4311 11.8595 19.5223C11.888 19.5703 11.9302 19.609 11.9808 19.6334C12.0315 19.6579 12.0883 19.6671 12.1442 19.6599C12.2001 19.6527 12.2526 19.6294 12.2951 19.5929C12.3377 19.5564 12.3684 19.5083 12.3834 19.4547L12.3938 19.3792C12.3943 19.329 12.381 19.2796 12.3555 19.2362C12.3483 19.2222 12.3418 19.2078 12.3356 19.1935L12.3643 19.2611C12.339 19.2006 12.3218 19.1372 12.3131 19.0723L12.323 19.1478C12.3151 19.0852 12.3151 19.0217 12.323 18.9591L12.3127 19.0346L12.3173 19.0036C12.3345 18.9299 12.3243 18.8524 12.2886 18.7854C12.2504 18.722 12.1891 18.6755 12.1173 18.6552C12.0803 18.6453 12.0418 18.6428 12.0039 18.6477C11.9659 18.6526 11.9293 18.6649 11.8963 18.6839C11.864 18.702 11.8357 18.7263 11.8131 18.7553C11.7904 18.7844 11.7738 18.8176 11.7643 18.853" fill="#F6C667"/>
<path d="M11.1281 19.3406C11.0634 19.5804 11.0597 19.8322 11.1174 20.0737C11.1376 20.1461 11.1862 20.2076 11.2525 20.2447C11.3187 20.2818 11.3971 20.2913 11.4705 20.2713C11.5439 20.2513 11.6062 20.2033 11.6437 20.1379C11.6813 20.0726 11.691 19.9951 11.6707 19.9227C11.6615 19.885 11.6542 19.8442 11.6489 19.8045C11.6523 19.8298 11.6558 19.8548 11.6588 19.88C11.6453 19.7753 11.6453 19.6692 11.6588 19.5645L11.6485 19.64C11.6557 19.5891 11.666 19.5386 11.6795 19.489C11.699 19.4153 11.6887 19.3371 11.6508 19.2708C11.6126 19.2074 11.5513 19.1608 11.4795 19.1406C11.4426 19.1307 11.404 19.1281 11.3661 19.1331C11.3281 19.138 11.2916 19.1503 11.2585 19.1692C11.1946 19.2073 11.1475 19.2676 11.1265 19.3384" fill="#F6C667"/>
<path d="M12.603 20.6938C12.6222 20.7572 12.6469 20.8189 12.6768 20.878C12.6968 20.9185 12.7205 20.957 12.7476 20.9932C12.8237 21.1031 12.922 21.1964 13.0363 21.2672C13.0682 21.2877 13.105 21.2993 13.143 21.3008C13.181 21.3093 13.2206 21.3076 13.2577 21.2959C13.3296 21.2756 13.391 21.2291 13.4294 21.1657C13.4486 21.133 13.461 21.0969 13.466 21.0594C13.4709 21.022 13.4682 20.9839 13.4581 20.9475C13.4359 20.8775 13.3893 20.8176 13.3265 20.7784C13.3105 20.7682 13.2948 20.7572 13.2799 20.7459L13.338 20.7901C13.2896 20.7529 13.2459 20.7101 13.208 20.6625L13.2527 20.7195C13.2141 20.6699 13.1818 20.6158 13.1567 20.5583C13.1667 20.5809 13.1763 20.6032 13.1858 20.6259C13.1744 20.5989 13.1646 20.5713 13.1564 20.5432C13.1355 20.4726 13.0885 20.4123 13.0248 20.3741C12.9929 20.3538 12.9561 20.3422 12.9181 20.3405C12.8801 20.332 12.8405 20.3337 12.8034 20.3454C12.7314 20.3654 12.67 20.412 12.6321 20.4756C12.5941 20.5419 12.5837 20.6201 12.603 20.6938Z" fill="#F6C667"/>
<path d="M11.7753 21.2331C11.8404 21.4991 11.9807 21.7414 12.1799 21.9318C12.2343 21.9839 12.3068 22.0134 12.3826 22.0145C12.4585 22.0141 12.5313 21.9844 12.5853 21.9318C12.6391 21.8786 12.6693 21.8065 12.6694 21.7313C12.6686 21.6564 12.6384 21.5848 12.5853 21.5313C12.544 21.4921 12.5056 21.4499 12.4706 21.4052L12.5153 21.4626C12.4536 21.3826 12.4022 21.2954 12.3623 21.2029C12.3723 21.2255 12.3818 21.2482 12.3914 21.2704C12.3655 21.2093 12.3448 21.1462 12.3295 21.0817C12.3092 21.0093 12.2606 20.9479 12.1944 20.9108C12.1282 20.8738 12.0498 20.8643 11.9765 20.8843C11.9032 20.9043 11.8409 20.9523 11.8034 21.0176C11.7659 21.0829 11.7562 21.1603 11.7765 21.2327" fill="#F6C667"/>
<path d="M14.1647 20.6353C14.3702 20.8562 14.6329 21.0175 14.9245 21.1019C14.9978 21.1219 15.0762 21.1124 15.1424 21.0753C15.2086 21.0383 15.2572 20.9768 15.2775 20.9045C15.2977 20.8321 15.2881 20.7547 15.2506 20.6894C15.2131 20.624 15.1508 20.5761 15.0775 20.556C15.0275 20.5414 14.9783 20.5241 14.9302 20.5043L14.9991 20.533C14.8901 20.4875 14.7873 20.4286 14.6931 20.3579L14.7509 20.402C14.6854 20.3516 14.6245 20.2956 14.5689 20.2348C14.5151 20.1817 14.4421 20.1519 14.366 20.1519C14.2899 20.1519 14.2169 20.1817 14.1631 20.2348C14.1093 20.2879 14.0791 20.3599 14.0791 20.4351C14.0791 20.5102 14.1093 20.5822 14.1631 20.6353" fill="#F6C667"/>
<path d="M15.3701 20.0542C15.5403 20.2121 15.7425 20.3326 15.9632 20.4079C16.0003 20.4196 16.0399 20.4213 16.0779 20.4128C16.1159 20.4113 16.1528 20.3997 16.1846 20.3792C16.2172 20.3605 16.2457 20.3356 16.2685 20.306C16.2913 20.2764 16.3079 20.2426 16.3175 20.2066C16.327 20.1707 16.3293 20.1332 16.3242 20.0963C16.319 20.0595 16.3066 20.024 16.2875 19.9919L16.2428 19.9345C16.2076 19.8999 16.164 19.8748 16.1162 19.8617C16.0936 19.8538 16.0714 19.8451 16.0493 19.836L16.1177 19.8643C16.0077 19.8178 15.904 19.7578 15.8091 19.6858L15.8672 19.7299C15.8359 19.7058 15.8053 19.6805 15.7762 19.6544C15.7214 19.6027 15.649 19.5732 15.5732 19.5718C15.5165 19.5718 15.4611 19.5885 15.414 19.6196C15.3668 19.6507 15.3301 19.6949 15.3084 19.7466C15.2868 19.7983 15.2811 19.8552 15.2921 19.9101C15.3032 19.9649 15.3304 20.0154 15.3705 20.055" fill="#F6C667"/>
<path d="M16.5172 20.0424C16.7201 20.2571 16.987 20.4026 17.2793 20.4576C17.354 20.4757 17.4328 20.4656 17.5003 20.4293C17.5329 20.4106 17.5614 20.3857 17.5842 20.3561C17.607 20.3265 17.6236 20.2927 17.6332 20.2567C17.6427 20.2207 17.645 20.1832 17.6399 20.1464C17.6347 20.1096 17.6223 20.0741 17.6032 20.042C17.5848 20.0102 17.5602 19.9822 17.5308 19.9599C17.5014 19.9375 17.4678 19.9212 17.4319 19.9118C17.3478 19.8966 17.2656 19.8724 17.1868 19.8397L17.2552 19.8683C17.1674 19.8307 17.0844 19.7828 17.0082 19.7257L17.0663 19.7702C17.0149 19.7309 16.967 19.6875 16.9229 19.6403C16.8687 19.5879 16.7959 19.5586 16.72 19.5586C16.6442 19.5586 16.5713 19.5879 16.5172 19.6403C16.4648 19.6942 16.4355 19.766 16.4355 19.8406C16.4355 19.9153 16.4648 19.987 16.5172 20.0409" fill="#F6C667"/>
<path d="M17.8399 20.1609C18.0862 20.4499 18.4162 20.6575 18.7856 20.7558C18.8219 20.7657 18.8598 20.7685 18.8972 20.7639C18.9346 20.7594 18.9707 20.7476 19.0035 20.7293C19.0362 20.7109 19.065 20.6864 19.0882 20.6571C19.1114 20.6278 19.1285 20.5942 19.1385 20.5584C19.1486 20.5226 19.1514 20.4851 19.1468 20.4482C19.1421 20.4113 19.1302 20.3757 19.1116 20.3433C19.0931 20.311 19.0682 20.2825 19.0385 20.2597C19.0088 20.2368 18.9748 20.2199 18.9385 20.21C18.8702 20.1917 18.8032 20.1691 18.7378 20.1424L18.8062 20.1711C18.6763 20.1167 18.554 20.0462 18.4422 19.9612L18.5003 20.0054C18.4064 19.9333 18.3208 19.8511 18.2452 19.7604C18.1912 19.7075 18.1183 19.6778 18.0422 19.6777C18.0045 19.6777 17.9672 19.685 17.9324 19.6992C17.8975 19.7134 17.8659 19.7342 17.8393 19.7605C17.8126 19.7868 17.7915 19.8181 17.7771 19.8524C17.7627 19.8868 17.7553 19.9237 17.7554 19.9608C17.7593 20.0351 17.7894 20.1058 17.8399 20.1609Z" fill="#F6C667"/>
<path d="M15.8048 21.1829C15.8899 21.2833 15.9915 21.3688 16.1054 21.4358C16.1714 21.4739 16.2407 21.5065 16.3123 21.5332C16.3644 21.5538 16.4183 21.5699 16.4732 21.5811C16.548 21.5994 16.6269 21.5891 16.6943 21.5524C16.7599 21.5145 16.8075 21.4524 16.8268 21.3798C16.8461 21.3072 16.8354 21.23 16.7971 21.1651C16.7593 21.1013 16.6977 21.0545 16.6254 21.0349C16.5664 21.0227 16.5087 21.0051 16.453 20.9824L16.5214 21.0108C16.4445 20.9787 16.3722 20.937 16.3061 20.8866C16.3253 20.9017 16.3444 20.9164 16.3643 20.9311C16.3078 20.8874 16.2565 20.8375 16.2113 20.7824C16.1573 20.7295 16.0843 20.6997 16.0082 20.6997C15.9706 20.6997 15.9332 20.7069 15.8984 20.7212C15.8636 20.7354 15.832 20.7562 15.8053 20.7825C15.7787 20.8088 15.7576 20.84 15.7432 20.8744C15.7288 20.9088 15.7214 20.9456 15.7214 20.9828L15.7318 21.0583C15.7451 21.1055 15.7705 21.1486 15.8056 21.1833" fill="#F6C667"/>
<path d="M14.0288 21.2625C14.1786 21.4719 14.3674 21.6512 14.5852 21.7909C14.6171 21.8114 14.6539 21.823 14.6919 21.8245C14.7299 21.833 14.7695 21.8313 14.8066 21.8196C14.8784 21.7993 14.9397 21.7528 14.9779 21.6894C14.9971 21.6567 15.0096 21.6206 15.0145 21.5832C15.0195 21.5457 15.017 21.5077 15.007 21.4712C14.9844 21.4013 14.9377 21.3415 14.8751 21.3021C14.8407 21.2794 14.807 21.2553 14.7741 21.2304L14.8319 21.2749C14.7087 21.1806 14.5982 21.0713 14.503 20.9495L14.5477 21.0069L14.5244 20.9763C14.5071 20.944 14.4817 20.9166 14.4506 20.8967C14.4231 20.8717 14.3895 20.8543 14.3531 20.8461C14.2785 20.8266 14.199 20.8369 14.1321 20.8748C14.0677 20.9123 14.0204 20.9729 14.0001 21.0439C13.9895 21.0803 13.9866 21.1184 13.9916 21.156C13.9966 21.1935 14.0094 21.2296 14.0292 21.2621" fill="#F6C667"/>
<path d="M13.3773 21.9841C13.4261 22.1283 13.5081 22.2594 13.6167 22.3672C13.7254 22.475 13.8578 22.5565 14.0037 22.6054C14.0784 22.6224 14.1569 22.6124 14.2247 22.5771C14.2903 22.539 14.3379 22.4768 14.3572 22.4042C14.3764 22.3316 14.3658 22.2543 14.3276 22.1894L14.2825 22.1324C14.2476 22.0975 14.2039 22.0724 14.1559 22.0596L14.1261 22.0479L14.1945 22.0765C14.1374 22.0524 14.0835 22.0212 14.0343 21.9837L14.092 22.0278C14.043 21.9898 13.999 21.946 13.9609 21.8972L14.006 21.9546C13.9694 21.9075 13.9389 21.856 13.9154 21.8014C13.9249 21.824 13.9349 21.8467 13.9444 21.8689C13.9395 21.8572 13.9349 21.8455 13.9303 21.8334C13.9085 21.7633 13.8618 21.7032 13.7987 21.6643C13.7669 21.6441 13.7302 21.6325 13.6924 21.6307C13.6544 21.6223 13.6148 21.624 13.5777 21.6356C13.5057 21.6556 13.4443 21.7023 13.4064 21.7659C13.3868 21.7984 13.3741 21.8345 13.3691 21.872C13.3641 21.9095 13.3669 21.9476 13.3773 21.9841Z" fill="#F6C667"/>
<path d="M12.4423 22.5553C12.5335 22.7866 12.6755 22.995 12.8579 23.1657C12.9125 23.2179 12.9851 23.2476 13.061 23.2488C13.1369 23.2482 13.2096 23.2184 13.2637 23.1657C13.3173 23.1126 13.3475 23.0407 13.3478 22.9656C13.3471 22.8907 13.3169 22.819 13.2637 22.7656C13.2075 22.7132 13.1554 22.6567 13.108 22.5965L13.1528 22.6538C13.0789 22.5587 13.0174 22.4549 12.9696 22.3447C12.9792 22.3673 12.9891 22.3896 12.9987 22.4123L12.9952 22.4047C12.9725 22.335 12.926 22.2752 12.8637 22.2356C12.7967 22.1977 12.7173 22.1874 12.6426 22.2069C12.5707 22.2269 12.5093 22.2735 12.4713 22.3371C12.4614 22.3598 12.4518 22.3824 12.4423 22.4047C12.4284 22.4541 12.4284 22.5063 12.4423 22.5557" fill="#F6C667"/>
<path d="M11.456 22.0028C11.4531 22.0418 11.454 22.0809 11.4587 22.1198C11.4684 22.2445 11.5059 22.3655 11.5685 22.4742C11.6003 22.528 11.6375 22.5786 11.6794 22.6252C11.7349 22.6756 11.8067 22.7051 11.882 22.7083C11.9581 22.7082 12.031 22.6783 12.0847 22.6252C12.1385 22.5722 12.1687 22.5002 12.1688 22.4252L12.1585 22.3497C12.1453 22.3024 12.1199 22.2594 12.0847 22.2247L12.0671 22.2032C12.0817 22.2225 12.097 22.2409 12.1119 22.2606C12.0808 22.2205 12.0551 22.1766 12.0354 22.13C12.0453 22.1526 12.0545 22.1749 12.0644 22.1975C12.0449 22.1508 12.0312 22.1019 12.0239 22.0518L12.0342 22.1273C12.0286 22.0863 12.0273 22.0448 12.0304 22.0035C12.0267 21.9292 11.9969 21.8585 11.9463 21.8034C11.9197 21.7771 11.888 21.7563 11.8532 21.742C11.8184 21.7278 11.7811 21.7205 11.7434 21.7205C11.7057 21.7205 11.6684 21.7278 11.6336 21.742C11.5988 21.7563 11.5672 21.7771 11.5406 21.8034L11.4954 21.8604C11.4703 21.904 11.4571 21.9533 11.4572 22.0035" fill="#F6C667"/>
<path d="M12.3299 23.4572C12.353 23.5019 12.3802 23.5445 12.411 23.5844C12.4544 23.6441 12.5036 23.6994 12.5578 23.7497C12.6122 23.7981 12.6708 23.8416 12.733 23.8796C12.7973 23.9169 12.865 23.9481 12.9353 23.9728C13.01 23.9898 13.0884 23.9798 13.1563 23.9445C13.1889 23.9258 13.2174 23.9009 13.2401 23.8713C13.2629 23.8417 13.2796 23.8079 13.2892 23.7719C13.2987 23.736 13.301 23.6985 13.2958 23.6616C13.2907 23.6248 13.2782 23.5893 13.2592 23.5572L13.2144 23.4998C13.1793 23.4652 13.1357 23.4401 13.0879 23.427L13.0569 23.4149L13.1253 23.4432C13.0623 23.4165 13.0029 23.382 12.9487 23.3405L13.0068 23.3847C12.9526 23.3429 12.9038 23.2948 12.8615 23.2413C12.8764 23.2605 12.8913 23.279 12.9066 23.2986C12.8754 23.2589 12.8481 23.2163 12.8251 23.1714C12.7871 23.1079 12.7258 23.0612 12.6538 23.0412C12.6167 23.0295 12.5771 23.0278 12.5391 23.0363C12.5011 23.0378 12.4643 23.0494 12.4324 23.0699C12.368 23.1074 12.3208 23.168 12.3005 23.239L12.2905 23.3145C12.29 23.3647 12.3033 23.4141 12.3288 23.4576" fill="#F6C667"/>
<path d="M15.2901 23.3748C15.4563 23.5145 15.6577 23.6071 15.8729 23.6428C15.9476 23.6598 16.0261 23.6498 16.0939 23.6145C16.1265 23.5957 16.155 23.5708 16.1778 23.5412C16.2006 23.5115 16.2173 23.4777 16.2268 23.4417C16.2364 23.4057 16.2386 23.3682 16.2335 23.3313C16.2283 23.2944 16.2159 23.2589 16.1968 23.2268L16.1521 23.1698C16.117 23.1351 16.0734 23.11 16.0255 23.097C15.9467 23.0858 15.8696 23.0649 15.7961 23.0347L15.8645 23.0634C15.7907 23.0324 15.7211 22.9924 15.6572 22.9445L15.7154 22.9886L15.6974 22.9743C15.6721 22.9473 15.6402 22.9272 15.6048 22.9158C15.5709 22.8981 15.5327 22.8898 15.4943 22.8916C15.4567 22.8916 15.4193 22.8989 15.3845 22.9131C15.3497 22.9273 15.3181 22.9481 15.2914 22.9744C15.2648 23.0007 15.2437 23.032 15.2293 23.0663C15.2149 23.1007 15.2075 23.1375 15.2075 23.1747C15.2072 23.2119 15.2145 23.2489 15.2289 23.2832C15.2434 23.3176 15.2647 23.3488 15.2917 23.3748" fill="#F6C667"/>
<path d="M13.915 23.1532C14.0499 23.3608 14.2309 23.5353 14.4442 23.6636C14.5099 23.7014 14.5881 23.7119 14.6617 23.6929C14.7352 23.6738 14.7981 23.6268 14.8366 23.562C14.8557 23.5294 14.8682 23.4933 14.8732 23.4558C14.8782 23.4184 14.8756 23.3803 14.8656 23.3439C14.8441 23.2734 14.7971 23.2131 14.7337 23.1744C14.6913 23.1493 14.6504 23.1219 14.6113 23.0921L14.6695 23.1366C14.5801 23.0683 14.4998 22.9892 14.4305 22.9011L14.4752 22.9584C14.4522 22.929 14.4308 22.8988 14.4102 22.8675C14.3712 22.8048 14.3102 22.7584 14.2389 22.7372C14.2017 22.7256 14.1622 22.7239 14.1241 22.7323C14.0862 22.7338 14.0493 22.7454 14.0175 22.7659C13.9849 22.7847 13.9564 22.8095 13.9336 22.8392C13.9108 22.8688 13.8942 22.9025 13.8846 22.9385C13.8751 22.9745 13.8728 23.012 13.8779 23.0488C13.8831 23.0857 13.8959 23.1211 13.915 23.1532Z" fill="#F6C667"/>
<path d="M14.0041 24.2144C14.1871 24.4327 14.4393 24.5837 14.7199 24.6432C14.7946 24.6614 14.8735 24.6512 14.9409 24.6145C14.9735 24.5958 15.002 24.5709 15.0248 24.5413C15.0476 24.5117 15.0642 24.4779 15.0738 24.4419C15.0833 24.406 15.0856 24.3685 15.0805 24.3316C15.0753 24.2948 15.0629 24.2593 15.0438 24.2272C15.0062 24.1634 14.9446 24.1168 14.8725 24.0974C14.8058 24.0838 14.7406 24.0638 14.6778 24.0377L14.7463 24.066C14.6667 24.0322 14.5917 23.9887 14.523 23.9366L14.5807 23.9807C14.5172 23.932 14.4598 23.876 14.4098 23.8139C14.3558 23.7609 14.2828 23.7312 14.2067 23.7312C14.169 23.7312 14.1317 23.7384 14.0969 23.7527C14.0621 23.7669 14.0305 23.7877 14.0038 23.814C13.9772 23.8403 13.956 23.8715 13.9417 23.9059C13.9273 23.9403 13.9199 23.9771 13.9199 24.0143L13.9302 24.0898C13.9436 24.137 13.969 24.1797 14.0041 24.2144Z" fill="#F6C667"/>
<path d="M17.2997 22.5266C17.4081 22.6138 17.5275 22.6867 17.655 22.7433C17.7826 22.8003 17.9174 22.8403 18.0557 22.8622C18.0929 22.8739 18.1325 22.8756 18.1705 22.8671C18.2084 22.8656 18.2453 22.854 18.2772 22.8335C18.3427 22.7956 18.3904 22.7335 18.4097 22.6609C18.429 22.5883 18.4183 22.5111 18.38 22.4462C18.3618 22.4142 18.3371 22.3862 18.3076 22.3638C18.2781 22.3415 18.2443 22.3252 18.2083 22.316C18.0959 22.3004 17.9859 22.2707 17.881 22.2277L17.9498 22.2564C17.8451 22.2129 17.7464 22.1565 17.6561 22.0884L17.7143 22.1326L17.7055 22.1261C17.6802 22.0992 17.6483 22.0791 17.6129 22.0676C17.5789 22.05 17.5408 22.0416 17.5024 22.0435C17.4647 22.0434 17.4274 22.0507 17.3926 22.0649C17.3578 22.0791 17.3261 22.1 17.2995 22.1263C17.2728 22.1526 17.2517 22.1838 17.2373 22.2182C17.2229 22.2526 17.2156 22.2894 17.2156 22.3266C17.2151 22.3638 17.2223 22.4008 17.2368 22.4352C17.2512 22.4696 17.2727 22.5007 17.2997 22.5266Z" fill="#F6C667"/>
<path d="M18.4052 22.0858C18.4785 22.23 18.5896 22.3523 18.7269 22.44C18.8642 22.5276 19.0227 22.5775 19.186 22.5844C19.2428 22.5844 19.2982 22.5679 19.3454 22.5368C19.3926 22.5057 19.4293 22.4615 19.4511 22.4098C19.4728 22.3581 19.4785 22.3012 19.4675 22.2462C19.4565 22.1913 19.4292 22.1409 19.3891 22.1012C19.3337 22.0503 19.2616 22.0209 19.186 22.0182C19.1704 22.0182 19.1547 22.0159 19.139 22.014L19.2155 22.0242C19.1608 22.0166 19.1073 22.002 19.0564 21.9808L19.1252 22.0091C19.0744 21.9876 19.0265 21.96 18.9826 21.9268L19.0407 21.971C18.9979 21.9381 18.9594 21.9 18.926 21.8578L18.9707 21.9148C18.9438 21.8795 18.9207 21.8416 18.9019 21.8015C18.8641 21.7378 18.8026 21.6911 18.7306 21.6713C18.656 21.6518 18.5765 21.6621 18.5096 21.7C18.4452 21.7375 18.3979 21.798 18.3776 21.8691L18.3677 21.9446C18.3672 21.9948 18.3804 22.0442 18.4059 22.0877" fill="#F6C667"/>
<path d="M19.7651 22.1253C19.9859 22.3636 20.2712 22.5346 20.5872 22.6179C20.6618 22.6372 20.7411 22.627 20.8083 22.5896C20.8569 22.5614 20.896 22.5197 20.9207 22.4697C20.9455 22.4196 20.9547 22.3635 20.9474 22.3083C20.9401 22.2532 20.9164 22.2013 20.8794 22.1593C20.8425 22.1173 20.7938 22.087 20.7394 22.0721C20.6743 22.0546 20.6104 22.0328 20.5482 22.0068L20.6167 22.0355C20.5052 21.9879 20.4 21.927 20.3035 21.8543L20.3616 21.8984C20.2928 21.8459 20.2288 21.7874 20.1704 21.7237C20.1163 21.6711 20.0435 21.6416 19.9675 21.6416C19.8916 21.6416 19.8188 21.6711 19.7647 21.7237C19.7125 21.7776 19.6833 21.8493 19.6833 21.9239C19.6833 21.9985 19.7125 22.0702 19.7647 22.1242" fill="#F6C667"/>
<path d="M16.9428 23.4574C16.9679 23.5265 16.9988 23.5934 17.035 23.6575C17.0723 23.719 17.1146 23.7775 17.1615 23.8323C17.2415 23.9268 17.3366 24.0079 17.443 24.0723C17.4755 24.0912 17.5115 24.1035 17.5489 24.1086C17.5862 24.1136 17.6242 24.1114 17.6607 24.102C17.6972 24.0925 17.7314 24.0761 17.7614 24.0536C17.7915 24.0311 17.8167 24.0029 17.8357 23.9708C17.8549 23.9381 17.8674 23.902 17.8723 23.8646C17.8772 23.8271 17.8745 23.789 17.8644 23.7526C17.8427 23.6824 17.796 23.6223 17.7329 23.5835C17.7069 23.5673 17.6816 23.5503 17.6564 23.5318L17.7145 23.576C17.6551 23.53 17.6016 23.4771 17.555 23.4185L17.5998 23.4755C17.5509 23.413 17.5102 23.3445 17.4789 23.2717L17.5076 23.3393C17.5034 23.3287 17.4988 23.3178 17.4946 23.3068C17.4719 23.2371 17.4254 23.1773 17.3631 23.1377C17.2961 23.0998 17.2167 23.0895 17.142 23.109C17.0701 23.129 17.0087 23.1756 16.9707 23.2392C16.951 23.2717 16.9383 23.3078 16.9333 23.3454C16.9283 23.3829 16.9311 23.421 16.9417 23.4574" fill="#F6C667"/>
<path d="M15.6787 22.1749C15.7967 22.3596 15.9734 22.5005 16.1811 22.5754C16.2291 22.5947 16.2789 22.609 16.3299 22.6181C16.367 22.6297 16.4066 22.6314 16.4446 22.623C16.4826 22.6215 16.5195 22.6099 16.5513 22.5894C16.5839 22.5707 16.6123 22.5458 16.6351 22.5162C16.6579 22.4866 16.6746 22.4528 16.6841 22.4168C16.6937 22.3808 16.696 22.3434 16.6908 22.3065C16.6857 22.2697 16.6732 22.2342 16.6542 22.2021C16.6357 22.1703 16.611 22.1425 16.5816 22.1201C16.5522 22.0978 16.5187 22.0814 16.4828 22.0719C16.4294 22.0625 16.3772 22.0473 16.3272 22.0266L16.3957 22.0553C16.339 22.0311 16.2856 22.0002 16.2366 21.9631L16.2943 22.0077C16.2456 21.9703 16.2017 21.9272 16.1635 21.8793L16.2087 21.9367C16.1964 21.9211 16.185 21.9053 16.1742 21.8892C16.1353 21.8264 16.0743 21.7801 16.0029 21.7589C15.9283 21.7394 15.8489 21.7497 15.7819 21.7876C15.7493 21.8063 15.7208 21.8312 15.698 21.8608C15.6751 21.8904 15.6584 21.9241 15.6488 21.9601C15.6392 21.9961 15.6369 22.0336 15.6421 22.0704C15.6472 22.1073 15.6596 22.1428 15.6787 22.1749Z" fill="#F6C667"/>
<path d="M12.9434 19.4196C12.9663 19.5338 13.0049 19.6443 13.0581 19.7481C13.0675 19.7654 13.0781 19.782 13.0898 19.7979C13.1141 19.833 13.1409 19.8663 13.1701 19.8975C13.2001 19.9265 13.2324 19.9529 13.2669 19.9764C13.2842 19.9893 13.3028 20.0006 13.3223 20.01C13.3542 20.0305 13.391 20.0421 13.429 20.0436C13.467 20.0521 13.5066 20.0504 13.5437 20.0387C13.6156 20.0184 13.6768 19.9719 13.715 19.9085C13.7342 19.8758 13.7467 19.8397 13.7516 19.8023C13.7566 19.7648 13.7541 19.7268 13.7441 19.6903C13.7244 19.619 13.677 19.5583 13.6122 19.5212C13.5927 19.5117 13.5741 19.5005 13.5567 19.4876L13.6149 19.5318C13.5909 19.513 13.5692 19.4916 13.5502 19.468C13.5651 19.4868 13.5801 19.5057 13.5954 19.525C13.5692 19.4909 13.5474 19.4538 13.5307 19.4144L13.5594 19.4819C13.5326 19.4128 13.5116 19.3416 13.4967 19.269C13.4764 19.1981 13.4293 19.1376 13.3651 19.0999C13.3332 19.0796 13.2964 19.068 13.2585 19.0663C13.2205 19.0579 13.1809 19.0596 13.1437 19.0712C13.0717 19.0912 13.0104 19.1379 12.9724 19.2015C12.9355 19.2681 12.9251 19.3459 12.9434 19.4196Z" fill="#F6C667"/>
<path d="M18.4874 23.6334C18.5116 23.6802 18.5397 23.7249 18.5715 23.767C18.6156 23.8274 18.6647 23.884 18.7184 23.9361C18.8109 24.0246 18.9182 24.0967 19.0354 24.1494C19.0672 24.1699 19.1041 24.1815 19.1421 24.183C19.1801 24.1917 19.2197 24.19 19.2568 24.1781C19.3301 24.158 19.3923 24.1101 19.4299 24.0448C19.4674 23.9795 19.4773 23.9021 19.4572 23.8297C19.4476 23.8074 19.4381 23.7848 19.4281 23.7621C19.4032 23.7202 19.3678 23.6852 19.3252 23.6606C19.2572 23.6311 19.193 23.5938 19.134 23.5492L19.1922 23.5938C19.13 23.546 19.0741 23.4907 19.0258 23.4292L19.0709 23.4866C19.0372 23.443 19.0075 23.3965 18.9822 23.3476C18.9537 23.2997 18.9114 23.261 18.8608 23.2366C18.8102 23.2121 18.7533 23.2029 18.6974 23.2101C18.6415 23.2174 18.589 23.2406 18.5464 23.2771C18.5038 23.3136 18.4731 23.3616 18.458 23.4152C18.4545 23.4405 18.4515 23.4654 18.448 23.4907C18.4475 23.5409 18.4607 23.5903 18.4863 23.6338" fill="#F6C667"/>
<path d="M15.882 24.4923C15.9614 24.5807 16.0536 24.6571 16.1558 24.7187C16.2582 24.7811 16.3694 24.8282 16.4858 24.8584C16.5605 24.8775 16.6397 24.8672 16.7068 24.8297C16.7724 24.7918 16.8201 24.7297 16.8394 24.6571C16.8587 24.5845 16.848 24.5073 16.8097 24.4424C16.7711 24.3794 16.71 24.333 16.6384 24.3122C16.5935 24.3005 16.5496 24.2858 16.5068 24.268L16.5753 24.2967C16.502 24.2654 16.4329 24.2254 16.3695 24.1774L16.4273 24.222C16.3765 24.183 16.3297 24.1391 16.2877 24.091C16.2476 24.0513 16.1965 24.0242 16.1407 24.0133C16.085 24.0023 16.0273 24.0079 15.9748 24.0294C15.9224 24.0509 15.8775 24.0872 15.846 24.1339C15.8145 24.1805 15.7978 24.2354 15.7979 24.2914L15.8082 24.3669C15.8215 24.4141 15.8469 24.4576 15.882 24.4923Z" fill="#F6C667"/>
<path d="M15.2443 24.7452C15.3204 24.8261 15.4054 24.8984 15.4978 24.9607C15.5911 25.0221 15.6912 25.0727 15.7961 25.1117C15.8708 25.1287 15.9493 25.1187 16.0171 25.0834C16.0497 25.0646 16.0782 25.0397 16.101 25.0101C16.1238 24.9804 16.1404 24.9466 16.15 24.9106C16.1596 24.8746 16.1618 24.8371 16.1567 24.8002C16.1515 24.7633 16.1391 24.7278 16.12 24.6957L16.0753 24.6387C16.0402 24.604 15.9966 24.5789 15.9487 24.5659L15.9292 24.5579L15.9976 24.5862C15.9085 24.5486 15.8245 24.5002 15.7475 24.4421L15.8057 24.4866C15.7496 24.4437 15.6975 24.396 15.65 24.3439C15.5961 24.291 15.5232 24.2612 15.4472 24.2612C15.3711 24.2612 15.2982 24.291 15.2443 24.3439C15.1906 24.3972 15.1604 24.4692 15.1602 24.5443C15.163 24.6188 15.1928 24.6898 15.2443 24.7444" fill="#F6C667"/>
<path d="M17.5693 25.1689C17.6042 25.2401 17.6478 25.3068 17.6993 25.3675C17.7358 25.414 17.7776 25.4562 17.824 25.4932C17.8849 25.5447 17.9517 25.5891 18.0228 25.6257C18.0957 25.6623 18.1727 25.6903 18.2523 25.7091C18.3269 25.7274 18.4058 25.7173 18.4733 25.6808C18.5375 25.643 18.5846 25.5823 18.6048 25.5113C18.625 25.439 18.6153 25.3617 18.5778 25.2964C18.5403 25.2312 18.4781 25.1833 18.4048 25.1633C18.3627 25.1543 18.3215 25.1417 18.2817 25.1255L18.3502 25.1542C18.2896 25.1286 18.2326 25.0957 18.1804 25.0561L18.2385 25.1002C18.1886 25.0616 18.1438 25.0169 18.105 24.9674L18.1498 25.0247C18.1161 24.981 18.0875 24.9336 18.0645 24.8835C18.0268 24.8198 17.9653 24.773 17.8932 24.7533C17.8186 24.7338 17.7391 24.7441 17.6722 24.782C17.6078 24.8195 17.5605 24.8801 17.5402 24.9511L17.5303 25.0266C17.5298 25.0768 17.543 25.1262 17.5685 25.1697" fill="#F6C667"/>
<path d="M14.3654 24.8871C14.4031 24.9513 14.4475 25.0114 14.4981 25.0664C14.549 25.1193 14.6053 25.167 14.666 25.2087C14.708 25.2385 14.7531 25.2638 14.8006 25.2842C14.8686 25.3165 14.9402 25.3409 15.0139 25.3571C15.0886 25.3751 15.1674 25.365 15.235 25.3288C15.2675 25.31 15.296 25.2851 15.3188 25.2555C15.3416 25.2259 15.3583 25.1922 15.3678 25.1562C15.3774 25.1202 15.3796 25.0827 15.3745 25.0459C15.3694 25.009 15.3569 24.9735 15.3378 24.9415C15.3194 24.9097 15.2947 24.8818 15.2653 24.8595C15.2359 24.8372 15.2023 24.8207 15.1665 24.8112C15.1192 24.8022 15.0729 24.7882 15.0285 24.7697L15.0969 24.798C15.0414 24.7747 14.9891 24.7445 14.9413 24.7082L14.999 24.7523C14.9515 24.7157 14.9086 24.6735 14.8713 24.6266L14.9164 24.684C14.8959 24.6575 14.8772 24.6296 14.8606 24.6006C14.8416 24.5685 14.8164 24.5403 14.7864 24.5178C14.7564 24.4953 14.7222 24.4789 14.6858 24.4694C14.6493 24.46 14.6114 24.4578 14.574 24.4629C14.5367 24.4679 14.5008 24.4802 14.4683 24.499C14.4039 24.5365 14.3566 24.5971 14.3363 24.6682C14.3179 24.7419 14.3282 24.8198 14.3654 24.8863" fill="#F6C667"/>
<path d="M19.4579 24.8709C19.6717 24.9847 19.9015 25.0663 20.1397 25.1129C20.2143 25.131 20.2931 25.1208 20.3604 25.0842C20.3929 25.0655 20.4214 25.0406 20.4442 25.011C20.467 24.9814 20.4837 24.9476 20.4933 24.9117C20.5029 24.8757 20.5052 24.8382 20.5001 24.8014C20.495 24.7645 20.4826 24.729 20.4636 24.6969C20.4261 24.6327 20.3644 24.5859 20.2919 24.5667C20.1433 24.5388 19.9981 24.4956 19.8586 24.4379L19.9271 24.4666C19.8659 24.4415 19.806 24.4133 19.7474 24.3821C19.6801 24.3449 19.601 24.3347 19.5263 24.3534C19.4545 24.3737 19.3932 24.4202 19.355 24.4836C19.336 24.5157 19.3235 24.5512 19.3184 24.588C19.3132 24.6249 19.3155 24.6624 19.325 24.6983C19.3346 24.7343 19.3512 24.7681 19.374 24.7977C19.3968 24.8273 19.4253 24.8522 19.4579 24.8709Z" fill="#F6C667"/>
<path d="M20.6117 24.2102C20.7383 24.322 20.8895 24.403 21.0534 24.4469C21.2008 24.4836 21.3511 24.5077 21.5027 24.519C21.5594 24.5189 21.6149 24.5023 21.662 24.4711C21.7091 24.44 21.7459 24.3958 21.7676 24.3441C21.7893 24.2924 21.795 24.2354 21.784 24.1805C21.773 24.1256 21.7458 24.0751 21.7058 24.0355C21.6498 23.9856 21.578 23.9564 21.5027 23.9528C21.4591 23.9483 21.4155 23.9433 21.3719 23.9377L21.4484 23.9479C21.3251 23.9345 21.2041 23.9051 21.0886 23.8607L21.157 23.889C21.1014 23.8656 21.0489 23.8357 21.0006 23.7999L21.0584 23.8441C21.0442 23.8331 21.0308 23.8218 21.0174 23.8097C20.9627 23.758 20.8902 23.7284 20.8144 23.7271C20.7577 23.7271 20.7023 23.7437 20.6552 23.7748C20.6081 23.806 20.5713 23.8502 20.5496 23.9019C20.528 23.9536 20.5223 24.0104 20.5333 24.0653C20.5444 24.1202 20.5717 24.1706 20.6117 24.2102Z" fill="#F6C667"/>
<path d="M19.0602 25.4314C19.2206 25.6 19.4141 25.7346 19.6288 25.827C19.6967 25.8623 19.7751 25.8723 19.8499 25.8553C19.9232 25.8354 19.9855 25.7875 20.0231 25.7223C20.0606 25.657 20.0704 25.5797 20.0502 25.5073C20.041 25.4718 20.0245 25.4385 20.0019 25.4094C19.9792 25.3803 19.9508 25.3561 19.9183 25.3382C19.7998 25.288 19.6881 25.2234 19.5856 25.1461L19.6438 25.1902C19.5803 25.1419 19.5208 25.0886 19.4659 25.0309C19.412 24.978 19.3391 24.9482 19.2631 24.9482C19.187 24.9482 19.1141 24.978 19.0602 25.0309C19.0066 25.0842 18.9763 25.1562 18.9761 25.2314C18.9781 25.306 19.0081 25.3773 19.0602 25.4314Z" fill="#F6C667"/>
<path d="M13.0566 26.5209L16.0864 24.98L13.8432 20.3067L7.86235 19.061L3.90063 22.4456L6.0421 25.063L13.0566 26.5209Z" fill="#E03E32"/>
<path d="M8.32737 14.3502L6.04126 25.0618L13.0566 26.5207L15.3427 15.8092L8.32737 14.3502Z" fill="#F76A52"/>
<path d="M8.10698 25.4914L8.02706 25.4747L8.16855 24.8104C8.1939 24.6916 8.17044 24.5678 8.10331 24.4662C8.03619 24.3645 7.9309 24.2933 7.81062 24.2683C7.69033 24.2433 7.5649 24.2664 7.46192 24.3327C7.35894 24.399 7.28684 24.5029 7.26148 24.6216L7.11961 25.286L7.03931 25.2694L7.18118 24.605C7.21376 24.468 7.29935 24.3491 7.41964 24.2736C7.53994 24.1981 7.68539 24.172 7.82489 24.201C7.96438 24.23 8.08684 24.3117 8.16607 24.4287C8.2453 24.5457 8.27501 24.6887 8.24885 24.827L8.10698 25.4914Z" fill="#EA432D"/>
<path d="M7.89447 25.4472L7.81454 25.4306L7.94839 24.8025C7.96006 24.7402 7.94661 24.6759 7.9109 24.6233C7.8752 24.5706 7.82007 24.5339 7.75729 24.5208C7.6945 24.5078 7.62904 24.5195 7.57486 24.5534C7.52068 24.5873 7.48209 24.6408 7.46732 24.7025L7.33348 25.3306L7.25317 25.314L7.3874 24.6858C7.39626 24.6443 7.41333 24.6049 7.43762 24.5699C7.46191 24.5348 7.49296 24.5049 7.52898 24.4817C7.56501 24.4585 7.60531 24.4425 7.64758 24.4347C7.68985 24.4269 7.73327 24.4274 7.77535 24.4361C7.81743 24.4449 7.85736 24.4617 7.89284 24.4857C7.92833 24.5097 7.95869 24.5403 7.98218 24.5759C8.00567 24.6115 8.02183 24.6512 8.02975 24.693C8.03766 24.7347 8.03717 24.7776 8.02831 24.8191L7.89447 25.4472Z" fill="#EA432D"/>
<path d="M7.66306 24.7652L7.53369 25.3721L7.61377 25.3887L7.74314 24.7818L7.66306 24.7652Z" fill="#EA432D"/>
<path d="M6.81405 24.3042L6.73413 24.2876L6.81597 23.9026C6.83025 23.8332 6.85825 23.7672 6.89835 23.7085C6.93846 23.6498 6.98988 23.5995 7.0497 23.5604C7.10952 23.5213 7.17655 23.4942 7.24697 23.4806C7.31739 23.4671 7.38982 23.4674 7.46013 23.4815C7.53043 23.4956 7.59724 23.5232 7.65672 23.5628C7.71621 23.6024 7.76721 23.6532 7.80682 23.7122C7.84643 23.7713 7.87388 23.8374 7.88758 23.907C7.90129 23.9765 7.90099 24.048 7.8867 24.1174L7.86108 24.237L7.78116 24.2204L7.80678 24.1008C7.82064 24.0412 7.82227 23.9795 7.81157 23.9192C7.80088 23.859 7.77808 23.8015 7.74452 23.7502C7.71096 23.6988 7.66732 23.6546 7.61616 23.6201C7.56501 23.5856 7.50738 23.5616 7.44668 23.5495C7.38598 23.5374 7.32344 23.5374 7.26274 23.5495C7.20203 23.5616 7.1444 23.5856 7.09325 23.6201C7.04209 23.6545 6.99844 23.6987 6.96487 23.7501C6.93131 23.8015 6.9085 23.859 6.8978 23.9192L6.81405 24.3042Z" fill="#EA432D"/>
<path d="M7.01718 24.396L6.93726 24.3794L7.0233 23.9759C7.0412 23.892 7.09213 23.8185 7.16488 23.7717C7.23764 23.7249 7.32626 23.7085 7.41125 23.7262C7.49624 23.7439 7.57063 23.7941 7.61807 23.8659C7.66551 23.9378 7.68211 24.0252 7.66421 24.1091L7.63629 24.2401L7.55637 24.2235L7.58429 24.0925C7.59596 24.0302 7.58251 23.9659 7.5468 23.9133C7.5111 23.8607 7.45597 23.8239 7.39319 23.8109C7.3304 23.7978 7.26493 23.8095 7.21076 23.8434C7.15658 23.8774 7.11799 23.9309 7.10322 23.9925L7.01718 24.396Z" fill="#EA432D"/>
<path d="M7.29897 24.0548L7.04004 25.2695L7.12016 25.2862L7.37909 24.0714L7.29897 24.0548Z" fill="#EA432D"/>
<path d="M7.11992 25.2861L7.04 25.2695L7.12336 24.8773C7.13774 24.8178 7.13991 24.7562 7.12974 24.6959C7.11958 24.6356 7.09728 24.578 7.06418 24.5263C7.03107 24.4747 6.98783 24.4301 6.93699 24.3953C6.88616 24.3604 6.82876 24.336 6.76819 24.3234C6.70763 24.3107 6.64511 24.3102 6.58435 24.3219C6.52358 24.3335 6.46579 24.357 6.41438 24.3911C6.36297 24.4251 6.319 24.469 6.28504 24.52C6.25109 24.5711 6.22784 24.6284 6.21668 24.6885L6.13255 25.0807L6.05225 25.0641L6.13599 24.6719C6.16857 24.5349 6.25416 24.4159 6.37446 24.3404C6.49476 24.2649 6.64021 24.2389 6.7797 24.2679C6.91919 24.2969 7.04165 24.3786 7.12089 24.4956C7.20012 24.6126 7.22983 24.7555 7.20367 24.8939L7.11992 25.2861Z" fill="#EA432D"/>
<path d="M6.90702 25.2418L6.8271 25.2252L6.90358 24.8696C6.91113 24.8381 6.91222 24.8054 6.90678 24.7735C6.90135 24.7416 6.88949 24.711 6.87192 24.6837C6.85434 24.6564 6.8314 24.6328 6.80445 24.6143C6.7775 24.5959 6.74708 24.5829 6.71498 24.5762C6.68289 24.5696 6.64976 24.5693 6.61756 24.5755C6.58536 24.5816 6.55473 24.5941 6.52747 24.6121C6.50022 24.6301 6.47689 24.6533 6.45887 24.6804C6.44084 24.7074 6.42848 24.7378 6.42252 24.7696L6.34604 25.1252L6.26611 25.1086L6.34259 24.753C6.35146 24.7114 6.36852 24.672 6.39282 24.637C6.41711 24.602 6.44816 24.572 6.48418 24.5488C6.5202 24.5256 6.5605 24.5097 6.60277 24.5019C6.64505 24.494 6.68846 24.4945 6.73054 24.5033C6.77263 24.512 6.81255 24.5289 6.84804 24.5529C6.88353 24.5768 6.91388 24.6075 6.93737 24.643C6.96086 24.6786 6.97703 24.7184 6.98494 24.7601C6.99286 24.8018 6.99237 24.8447 6.98351 24.8862L6.90702 25.2418Z" fill="#EA432D"/>
<path d="M6.61773 24.8321L6.54639 25.1667L6.62647 25.1834L6.69781 24.8487L6.61773 24.8321Z" fill="#EA432D"/>
<path d="M12.0577 26.3127L11.9777 26.2961L12.1234 25.6128C12.1451 25.4955 12.1196 25.3744 12.0522 25.2754C11.9848 25.1764 11.881 25.1072 11.7628 25.0826C11.6445 25.058 11.5212 25.0799 11.4191 25.1437C11.317 25.2075 11.2441 25.3081 11.216 25.4241L11.0703 26.1073L10.99 26.0907L11.1361 25.4075C11.1508 25.3383 11.1792 25.2727 11.2196 25.2143C11.2601 25.156 11.3118 25.1061 11.3717 25.0675C11.4317 25.0288 11.4988 25.0022 11.5692 24.9892C11.6396 24.9762 11.7119 24.977 11.782 24.9915C11.852 25.0061 11.9185 25.0341 11.9776 25.074C12.0367 25.1139 12.0873 25.1649 12.1264 25.2241C12.1656 25.2833 12.1925 25.3496 12.2057 25.4191C12.2189 25.4885 12.2181 25.5599 12.2034 25.6291L12.0577 26.3127Z" fill="#EA432D"/>
<path d="M11.8442 26.2685L11.7643 26.2519L11.9023 25.6049C11.914 25.5426 11.9005 25.4783 11.8648 25.4257C11.8291 25.3731 11.774 25.3363 11.7112 25.3233C11.6484 25.3102 11.5829 25.3219 11.5288 25.3558C11.4746 25.3898 11.436 25.4433 11.4212 25.5049L11.2832 26.1519L11.2029 26.1353L11.3409 25.4883C11.3601 25.4056 11.4114 25.3336 11.4837 25.2879C11.5561 25.2421 11.6438 25.2263 11.7279 25.2438C11.812 25.2612 11.8858 25.3106 11.9334 25.3813C11.9809 25.4519 11.9985 25.5382 11.9822 25.6215L11.8442 26.2685Z" fill="#EA432D"/>
<path d="M11.6173 25.5678L11.4839 26.1936L11.564 26.2102L11.6974 25.5845L11.6173 25.5678Z" fill="#EA432D"/>
<path d="M12.8011 25.2449L12.7212 25.2283L12.7514 25.0867C12.7731 24.9694 12.7475 24.8483 12.6801 24.7493C12.6128 24.6503 12.5089 24.5811 12.3907 24.5565C12.2724 24.5319 12.1491 24.5538 12.047 24.6176C11.9449 24.6814 11.872 24.782 11.8439 24.898L11.8137 25.0396L11.7334 25.0229L11.7636 24.8814C11.7962 24.7444 11.8818 24.6254 12.0021 24.5499C12.1224 24.4744 12.2678 24.4484 12.4073 24.4774C12.5468 24.5064 12.6693 24.5881 12.7485 24.7051C12.8277 24.8221 12.8574 24.965 12.8313 25.1033L12.8011 25.2449Z" fill="#EA432D"/>
<path d="M12.5769 25.2518L12.497 25.2352L12.5303 25.0781C12.5369 25.047 12.5373 25.0148 12.5314 24.9836C12.5255 24.9523 12.5133 24.9224 12.4957 24.8957C12.4781 24.8691 12.4554 24.8461 12.4287 24.8281C12.4021 24.8101 12.3722 24.7975 12.3406 24.7909C12.3091 24.7843 12.2765 24.7839 12.2448 24.7898C12.2131 24.7957 12.1829 24.8076 12.1558 24.825C12.1288 24.8424 12.1055 24.8649 12.0873 24.8911C12.0691 24.9174 12.0563 24.947 12.0496 24.9781L12.016 25.1351L11.936 25.1185L11.9693 24.9615C11.9775 24.9193 11.9942 24.8792 12.0183 24.8435C12.0424 24.8077 12.0735 24.777 12.1097 24.7533C12.146 24.7295 12.1866 24.7131 12.2294 24.705C12.2721 24.6969 12.316 24.6973 12.3586 24.7062C12.4012 24.715 12.4415 24.7321 12.4773 24.7565C12.5131 24.7809 12.5437 24.8121 12.5671 24.8483C12.5906 24.8845 12.6065 24.9249 12.614 24.9672C12.6214 25.0095 12.6203 25.0529 12.6106 25.0948L12.5769 25.2518Z" fill="#EA432D"/>
<path d="M12.2452 25.0417L12.1401 25.5344L12.2202 25.5511L12.3253 25.0583L12.2452 25.0417Z" fill="#EA432D"/>
<path d="M13.045 26.5181L12.965 26.5015L13.1107 25.8183C13.1324 25.7009 13.1069 25.5798 13.0395 25.4808C12.9722 25.3818 12.8683 25.3126 12.7501 25.288C12.6318 25.2634 12.5085 25.2854 12.4064 25.3491C12.3043 25.4129 12.2314 25.5135 12.2033 25.6295L12.0576 26.3128L11.9773 26.2962L12.1234 25.6129C12.1532 25.4732 12.238 25.3509 12.3592 25.2729C12.4803 25.195 12.6279 25.1677 12.7694 25.1971C12.911 25.2265 13.0349 25.3103 13.1139 25.4299C13.1929 25.5495 13.2205 25.6952 13.1907 25.8349L13.045 26.5181Z" fill="#EA432D"/>
<path d="M12.8321 26.4739L12.7522 26.4573L12.8902 25.8103C12.9019 25.748 12.8884 25.6837 12.8527 25.631C12.817 25.5784 12.7619 25.5416 12.6991 25.5286C12.6363 25.5155 12.5708 25.5272 12.5167 25.5612C12.4625 25.5951 12.4239 25.6486 12.4091 25.7102L12.2711 26.3572L12.1912 26.3406L12.3288 25.6936C12.348 25.6109 12.3993 25.5389 12.4716 25.4932C12.544 25.4474 12.6317 25.4316 12.7158 25.4491C12.7999 25.4666 12.8737 25.5159 12.9213 25.5866C12.9688 25.6573 12.9864 25.7436 12.9701 25.8269L12.8321 26.4739Z" fill="#EA432D"/>
<path d="M12.6048 25.7732L12.4714 26.3989L12.5515 26.4156L12.6849 25.7898L12.6048 25.7732Z" fill="#EA432D"/>
<path d="M10.0824 25.902L10.0025 25.8854L10.2319 24.805C10.2445 24.7462 10.2452 24.6856 10.234 24.6265C10.2228 24.5674 10.1999 24.5111 10.1667 24.4608C10.1335 24.4105 10.0905 24.3671 10.0403 24.3331C9.99008 24.2992 9.93358 24.2753 9.87402 24.2629C9.81446 24.2505 9.75301 24.2499 9.69318 24.2609C9.63335 24.2719 9.57631 24.2945 9.52532 24.3273C9.47433 24.3601 9.43038 24.4025 9.39599 24.4521C9.3616 24.5017 9.33744 24.5575 9.32488 24.6163L9.09544 25.6966L9.01514 25.68L9.24458 24.5997C9.27716 24.4627 9.36275 24.3437 9.48305 24.2682C9.60334 24.1927 9.74879 24.1666 9.88829 24.1956C10.0278 24.2246 10.1502 24.3064 10.2295 24.4234C10.3087 24.5403 10.3384 24.6833 10.3123 24.8216L10.0824 25.902Z" fill="#EA432D"/>
<path d="M9.86943 25.8579L9.7895 25.8413L10.0121 24.7972C10.0187 24.766 10.0191 24.7339 10.0132 24.7026C10.0072 24.6713 9.99511 24.6414 9.9775 24.6147C9.95988 24.5881 9.93712 24.5651 9.91051 24.5471C9.8839 24.5291 9.85395 24.5165 9.82239 24.5099C9.79083 24.5033 9.75827 24.503 9.72656 24.5088C9.69485 24.5147 9.66463 24.5266 9.6376 24.544C9.61058 24.5614 9.58729 24.5839 9.56907 24.6101C9.55084 24.6364 9.53803 24.666 9.53138 24.6971L9.30844 25.7424L9.22852 25.7258L9.45108 24.6816C9.47021 24.5989 9.5215 24.527 9.59389 24.4812C9.66628 24.4355 9.75397 24.4196 9.83807 24.4371C9.92218 24.4546 9.99596 24.504 10.0435 24.5746C10.0911 24.6453 10.1086 24.7316 10.0924 24.8149L9.86943 25.8579Z" fill="#EA432D"/>
<path d="M9.72692 24.7594L9.50879 25.7827L9.58891 25.7994L9.80703 24.7761L9.72692 24.7594Z" fill="#EA432D"/>
<path d="M11.0704 26.1074L10.9904 26.0908L11.0738 25.6986C11.0992 25.5798 11.0757 25.456 11.0086 25.3543C10.9414 25.2527 10.8362 25.1815 10.7159 25.1565C10.5956 25.1315 10.4702 25.1546 10.3672 25.2209C10.2642 25.2871 10.1921 25.3911 10.1667 25.5098L10.083 25.902L10.0027 25.8854L10.0864 25.4932C10.119 25.3562 10.2046 25.2372 10.3249 25.1617C10.4452 25.0862 10.5906 25.0602 10.7301 25.0892C10.8696 25.1182 10.9921 25.1999 11.0713 25.3169C11.1506 25.4339 11.1803 25.5768 11.1541 25.7152L11.0704 26.1074Z" fill="#EA432D"/>
<path d="M10.857 26.0634L10.7771 26.0467L10.8535 25.6912C10.8611 25.6597 10.8622 25.627 10.8567 25.595C10.8513 25.5631 10.8394 25.5326 10.8219 25.5052C10.8043 25.4779 10.7814 25.4543 10.7544 25.4358C10.7275 25.4174 10.697 25.4044 10.6649 25.3978C10.6328 25.3911 10.5997 25.3908 10.5675 25.397C10.5353 25.4031 10.5047 25.4156 10.4774 25.4336C10.4502 25.4516 10.4268 25.4748 10.4088 25.5019C10.3908 25.5289 10.3784 25.5593 10.3725 25.5911L10.296 25.9467L10.2161 25.9301L10.2925 25.5745C10.3014 25.533 10.3185 25.4936 10.3428 25.4585C10.3671 25.4235 10.3981 25.3935 10.4341 25.3704C10.4702 25.3472 10.5105 25.3312 10.5527 25.3234C10.595 25.3156 10.6384 25.3161 10.6805 25.3248C10.7226 25.3336 10.7625 25.3504 10.798 25.3744C10.8335 25.3984 10.8638 25.429 10.8873 25.4646C10.9108 25.5001 10.927 25.5399 10.9349 25.5816C10.9428 25.6234 10.9423 25.6662 10.9335 25.7078L10.857 26.0634Z" fill="#EA432D"/>
<path d="M10.5677 25.6534L10.4963 25.988L10.5764 26.0047L10.6478 25.67L10.5677 25.6534Z" fill="#EA432D"/>
<path d="M9.09505 25.6966L9.01513 25.68L9.12526 25.1632C9.13968 25.1037 9.14188 25.042 9.13172 24.9816C9.12156 24.9213 9.09926 24.8636 9.06612 24.8119C9.03298 24.7602 8.98968 24.7155 8.93878 24.6806C8.88789 24.6457 8.83042 24.6212 8.76977 24.6086C8.70913 24.596 8.64654 24.5955 8.5857 24.6072C8.52486 24.6189 8.46701 24.6424 8.41556 24.6765C8.3641 24.7106 8.3201 24.7546 8.28613 24.8058C8.25217 24.8569 8.22894 24.9143 8.21781 24.9745L8.10692 25.4913L8.02661 25.4747L8.13713 24.9579C8.16694 24.8182 8.25176 24.6959 8.37293 24.6179C8.43292 24.5793 8.50003 24.5527 8.57042 24.5397C8.64082 24.5267 8.71312 24.5275 8.7832 24.5421C8.85328 24.5567 8.91976 24.5847 8.97886 24.6246C9.03795 24.6646 9.0885 24.7156 9.12762 24.7748C9.16673 24.8341 9.19364 24.9003 9.20682 24.9698C9.22 25.0393 9.21918 25.1107 9.20442 25.1798L9.09505 25.6966Z" fill="#EA432D"/>
<path d="M8.88163 25.6526L8.80171 25.6359L8.9042 25.1554C8.91763 25.0925 8.9052 25.0269 8.86963 24.973C8.83406 24.9191 8.77827 24.8814 8.71452 24.8681C8.65078 24.8549 8.58431 24.8672 8.52974 24.9023C8.47516 24.9374 8.43695 24.9925 8.42351 25.0554L8.32065 25.5359L8.24072 25.5193L8.34359 25.0388C8.35188 24.9967 8.36857 24.9567 8.39268 24.921C8.41678 24.8854 8.44783 24.8548 8.48402 24.8312C8.5202 24.8075 8.5608 24.7911 8.60344 24.7831C8.64609 24.775 8.68993 24.7755 8.73241 24.7843C8.77489 24.7931 8.81517 24.8102 8.85089 24.8346C8.88662 24.8589 8.91708 24.89 8.94051 24.9261C8.96393 24.9622 8.97985 25.0025 8.98734 25.0447C8.99483 25.087 8.99373 25.1302 8.98412 25.172L8.88163 25.6526Z" fill="#EA432D"/>
<path d="M8.61944 25.1179L8.52148 25.5774L8.60157 25.594L8.69952 25.1345L8.61944 25.1179Z" fill="#EA432D"/>
<path d="M10.3655 18.6628C10.355 18.6604 10.3457 18.6542 10.3395 18.6454C10.3366 18.641 10.3346 18.636 10.3337 18.6308C10.3327 18.6255 10.3328 18.6202 10.3339 18.615C10.3351 18.6098 10.3372 18.6049 10.3403 18.6005C10.3434 18.5961 10.3473 18.5924 10.3518 18.5896L11.107 18.1034C11.1115 18.0999 11.1167 18.0975 11.1221 18.0962C11.1276 18.0948 11.1333 18.0946 11.1389 18.0956C11.1445 18.0965 11.1498 18.0986 11.1545 18.1016C11.1592 18.1047 11.1633 18.1087 11.1663 18.1134C11.1694 18.1181 11.1715 18.1233 11.1724 18.1288C11.1733 18.1343 11.173 18.14 11.1716 18.1454C11.1702 18.1508 11.1677 18.1559 11.1642 18.1602C11.1607 18.1646 11.1564 18.1683 11.1514 18.1709L10.3961 18.6571C10.3917 18.6601 10.3867 18.6622 10.3815 18.6632C10.3762 18.6641 10.3708 18.664 10.3655 18.6628Z" fill="#FCC8CE"/>
<path d="M10.4374 18.9703C10.4269 18.9679 10.4176 18.9617 10.4114 18.9529C10.4085 18.9485 10.4065 18.9435 10.4055 18.9383C10.4045 18.9331 10.4046 18.9278 10.4057 18.9226C10.4068 18.9174 10.409 18.9125 10.4121 18.9082C10.4152 18.9039 10.4191 18.9002 10.4237 18.8974L11.3629 18.2934C11.3719 18.2876 11.383 18.2855 11.3936 18.2877C11.4042 18.2899 11.4135 18.2962 11.4195 18.3051C11.4225 18.3095 11.4246 18.3145 11.4257 18.3197C11.4267 18.325 11.4267 18.3303 11.4256 18.3356C11.4245 18.3408 11.4223 18.3457 11.4192 18.3501C11.4161 18.3545 11.4122 18.3582 11.4076 18.361L10.468 18.965C10.4636 18.968 10.4586 18.97 10.4534 18.971C10.4481 18.972 10.4427 18.9715 10.4374 18.9703Z" fill="#FCC8CE"/>
<path d="M10.6014 19.2192C10.5908 19.2168 10.5815 19.2106 10.5754 19.2018C10.5725 19.1973 10.5705 19.1924 10.5695 19.1871C10.5685 19.1819 10.5686 19.1766 10.5698 19.1714C10.5709 19.1662 10.5731 19.1613 10.5761 19.1569C10.5792 19.1525 10.5831 19.1488 10.5876 19.1459L11.5268 18.542C11.5359 18.5361 11.5469 18.5341 11.5576 18.5363C11.5682 18.5385 11.5775 18.5447 11.5834 18.5537C11.5864 18.5581 11.5885 18.5631 11.5895 18.5683C11.5905 18.5735 11.5904 18.5789 11.5893 18.5841C11.5882 18.5893 11.5861 18.5942 11.583 18.5986C11.58 18.6029 11.5761 18.6067 11.5716 18.6095L10.6308 19.212C10.6264 19.215 10.6214 19.2171 10.6161 19.218C10.6109 19.219 10.6055 19.2189 10.6002 19.2177" fill="#FCC8CE"/>
<path d="M10.8575 19.4081C10.847 19.4058 10.8377 19.3996 10.8315 19.3908C10.8286 19.3863 10.8266 19.3813 10.8256 19.3761C10.8246 19.3708 10.8247 19.3654 10.8259 19.3602C10.8271 19.355 10.8293 19.3501 10.8324 19.3458C10.8356 19.3414 10.8396 19.3377 10.8441 19.3349L11.599 18.8487C11.6035 18.8453 11.6086 18.8429 11.6141 18.8415C11.6196 18.8402 11.6253 18.84 11.6309 18.8409C11.6365 18.8419 11.6418 18.8439 11.6465 18.847C11.6512 18.8501 11.6552 18.8541 11.6583 18.8588C11.6614 18.8634 11.6634 18.8687 11.6643 18.8742C11.6653 18.8797 11.665 18.8853 11.6636 18.8907C11.6622 18.8962 11.6597 18.9012 11.6562 18.9056C11.6527 18.91 11.6483 18.9136 11.6434 18.9163L10.8885 19.4025C10.884 19.4054 10.8789 19.4074 10.8736 19.4084C10.8683 19.4093 10.8628 19.4093 10.8575 19.4081Z" fill="#FCC8CE"/>
<path d="M11.6179 18.9291C11.6073 18.9267 11.598 18.9205 11.5919 18.9117L11.0948 18.159C11.0888 18.15 11.0868 18.1391 11.089 18.1285C11.0913 18.118 11.0977 18.1088 11.1068 18.103C11.1159 18.0971 11.1271 18.0951 11.1377 18.0973C11.1484 18.0995 11.1577 18.1059 11.1636 18.1149L11.6607 18.868C11.665 18.8747 11.6672 18.8824 11.6671 18.8904C11.6669 18.8983 11.6644 18.906 11.6598 18.9125C11.6552 18.919 11.6488 18.9241 11.6414 18.927C11.6339 18.93 11.6258 18.9307 11.6179 18.9291Z" fill="#FCC8CE"/>
<path d="M11.4214 19.1742C11.4108 19.1718 11.4015 19.1657 11.3954 19.1568L10.7839 18.2305C10.7809 18.2261 10.7789 18.2211 10.7778 18.2159C10.7768 18.2107 10.7769 18.2053 10.778 18.2001C10.7791 18.1949 10.7812 18.19 10.7843 18.1856C10.7873 18.1812 10.7912 18.1775 10.7958 18.1746C10.8049 18.1689 10.8159 18.1669 10.8265 18.1691C10.8371 18.1713 10.8463 18.1775 10.8524 18.1863L11.4642 19.1138C11.4686 19.1205 11.4709 19.1284 11.4708 19.1364C11.4707 19.1443 11.4682 19.1521 11.4636 19.1587C11.459 19.1653 11.4526 19.1704 11.4451 19.1734C11.4375 19.1763 11.4293 19.177 11.4214 19.1753" fill="#FCC8CE"/>
<path d="M11.1696 19.3372C11.159 19.3348 11.1497 19.3286 11.1436 19.3198L10.5317 18.3924C10.5287 18.3879 10.5267 18.383 10.5256 18.3778C10.5246 18.3725 10.5247 18.3672 10.5258 18.362C10.5269 18.3568 10.529 18.3518 10.5321 18.3475C10.5351 18.3431 10.539 18.3394 10.5436 18.3365C10.5527 18.3308 10.5637 18.3288 10.5743 18.3309C10.5849 18.3331 10.5941 18.3393 10.6002 18.3482L11.212 19.2757C11.2149 19.2801 11.2169 19.2851 11.2179 19.2903C11.2188 19.2956 11.2188 19.3009 11.2176 19.3061C11.2165 19.3113 11.2143 19.3162 11.2113 19.3206C11.2082 19.325 11.2043 19.3287 11.1998 19.3315C11.1954 19.3346 11.1903 19.3366 11.1851 19.3376C11.1798 19.3386 11.1748 19.3384 11.1696 19.3372Z" fill="#FCC8CE"/>
<path d="M10.8577 19.4082C10.8472 19.4058 10.8379 19.3996 10.8317 19.3908L10.3396 18.6457C10.3341 18.6367 10.3324 18.626 10.3348 18.6158C10.3371 18.6057 10.3434 18.5968 10.3523 18.5911C10.3611 18.5853 10.3719 18.5832 10.3823 18.5852C10.3927 18.5871 10.4019 18.593 10.408 18.6015L10.8987 19.3466C10.9031 19.3534 10.9054 19.3612 10.9053 19.3692C10.9052 19.3772 10.9027 19.385 10.8981 19.3916C10.8935 19.3981 10.887 19.4032 10.8795 19.4062C10.872 19.4092 10.8637 19.4098 10.8558 19.4082" fill="#FCC8CE"/>
<path d="M11.9777 19.1813C11.8306 19.1486 11.6995 19.0666 11.6067 18.9492C11.5983 18.9408 11.592 18.9306 11.5883 18.9194C11.5846 18.9082 11.5835 18.8963 11.5853 18.8846C11.5881 18.8724 11.5934 18.8609 11.601 18.8509C11.6086 18.8409 11.6182 18.8326 11.6293 18.8265C11.7103 18.7739 11.8014 18.7385 11.897 18.7223C11.9674 18.7061 12.0405 18.7049 12.1114 18.7189C12.1823 18.7328 12.2493 18.7615 12.3081 18.8031C12.3343 18.8285 12.3539 18.8597 12.3654 18.8941C12.3768 18.9285 12.3797 18.9651 12.3739 19.0009C12.3667 19.0444 12.3463 19.0848 12.3152 19.1165C12.2842 19.1482 12.2441 19.1698 12.2002 19.1783C12.1278 19.1969 12.0518 19.1979 11.9788 19.1813M11.6706 18.8971C11.7267 18.9751 11.8042 19.0357 11.8939 19.0716C11.9837 19.1076 12.082 19.1175 12.1773 19.1002C12.2054 19.0957 12.2314 19.0828 12.2519 19.0633C12.2724 19.0438 12.2864 19.0186 12.292 18.9911C12.2966 18.9677 12.2953 18.9436 12.2882 18.9209C12.281 18.8981 12.2683 18.8775 12.2511 18.8608C12.2012 18.8288 12.1453 18.807 12.0867 18.7968C12.0281 18.7866 11.968 18.7882 11.91 18.8016C11.8264 18.8163 11.7467 18.8475 11.6756 18.8933L11.671 18.8963" fill="#FCC8CE"/>
<path d="M9.92904 18.7552C9.85541 18.7414 9.78626 18.7102 9.72751 18.6643C9.69089 18.639 9.66299 18.6033 9.64754 18.5619C9.63209 18.5206 9.62984 18.4755 9.64109 18.4329C9.6503 18.3977 9.66792 18.3653 9.69248 18.3383C9.71703 18.3113 9.7478 18.2905 9.78219 18.2777C9.85297 18.2631 9.9261 18.2636 9.99667 18.2791C10.0672 18.2947 10.1336 18.325 10.1914 18.3679C10.2719 18.4206 10.3404 18.4892 10.3925 18.5695C10.4002 18.5794 10.4057 18.5907 10.4086 18.6028C10.4115 18.6149 10.4117 18.6275 10.4093 18.6397C10.4062 18.6511 10.4004 18.6617 10.3923 18.6705C10.3843 18.6792 10.3743 18.686 10.3631 18.6903C10.2304 18.761 10.077 18.7839 9.92904 18.7552ZM9.94701 18.3509C9.90194 18.3397 9.85462 18.3407 9.81011 18.354C9.78762 18.3624 9.76759 18.3762 9.75178 18.3941C9.73597 18.412 9.72488 18.4335 9.71948 18.4566C9.71352 18.4841 9.71609 18.5126 9.72688 18.5386C9.73766 18.5645 9.75615 18.5866 9.7799 18.602C9.86001 18.6558 9.95404 18.686 10.0509 18.6889C10.1478 18.6917 10.2435 18.6672 10.3267 18.6182L10.3248 18.6125C10.2785 18.5423 10.2183 18.4821 10.1478 18.4355C10.0868 18.3959 10.0192 18.3673 9.94816 18.3509" fill="#FCC8CE"/>
<path d="M10.731 20.11C10.6907 20.0998 10.6541 20.0785 10.6255 20.0488C10.5968 20.019 10.5772 19.9819 10.5688 19.9417C10.547 19.8325 10.5572 19.7194 10.5983 19.6158C10.6395 19.5122 10.7098 19.4224 10.8009 19.3569C10.8094 19.3486 10.8197 19.3424 10.8311 19.3387C10.8425 19.335 10.8545 19.334 10.8663 19.3358C10.8786 19.3385 10.8901 19.3438 10.9002 19.3512C10.9103 19.3586 10.9187 19.368 10.9248 19.3788C10.9781 19.4588 11.014 19.5488 11.0304 19.6431C11.0469 19.7125 11.0481 19.7847 11.0341 19.8547C11.02 19.9247 10.991 19.9909 10.9489 20.0489C10.9232 20.0748 10.8915 20.0942 10.8566 20.1055C10.8216 20.1168 10.7845 20.1197 10.7482 20.1138L10.731 20.1108M10.8533 19.4192C10.7744 19.4747 10.7131 19.5513 10.6767 19.6399C10.6402 19.7286 10.6301 19.8257 10.6476 19.9198C10.6523 19.9474 10.6654 19.9731 10.6851 19.9933C10.7048 20.0135 10.7303 20.0273 10.7581 20.033C10.7818 20.0374 10.8062 20.036 10.8292 20.029C10.8522 20.022 10.8731 20.0095 10.89 19.9926C10.9227 19.9434 10.9449 19.8881 10.9552 19.8302C10.9655 19.7722 10.9638 19.7128 10.9501 19.6555C10.9354 19.5731 10.9038 19.4944 10.8572 19.4245L10.8545 19.42" fill="#FCC8CE"/>
<path d="M11.1139 18.1686H11.1112C11.0996 18.1656 11.0889 18.1599 11.08 18.1521C11.071 18.1442 11.064 18.1343 11.0596 18.1233C11.0031 18.027 10.9755 17.9168 10.9803 17.8056C10.985 17.6944 11.0218 17.5868 11.0864 17.4956C11.112 17.4595 11.1482 17.432 11.1901 17.4168C11.232 17.4016 11.2776 17.3994 11.3208 17.4106C11.3563 17.4198 11.3891 17.4372 11.4164 17.4614C11.4437 17.4857 11.4646 17.516 11.4776 17.5499C11.4925 17.6197 11.492 17.6918 11.4763 17.7614C11.4606 17.831 11.43 17.8965 11.3866 17.9535C11.3331 18.0329 11.2636 18.1007 11.1824 18.1524C11.1727 18.1596 11.1617 18.1648 11.1499 18.1677C11.1381 18.1706 11.1259 18.1706 11.1139 18.1686ZM11.2891 17.4861C11.2625 17.4828 11.2355 17.4869 11.2112 17.4978C11.1868 17.5087 11.166 17.5261 11.151 17.548C11.0965 17.6271 11.0659 17.7199 11.063 17.8156C11.0601 17.9112 11.0849 18.0057 11.1346 18.0878L11.1392 18.0848C11.2103 18.0391 11.2713 17.9797 11.3185 17.9101C11.3543 17.8632 11.3801 17.8096 11.3943 17.7525C11.4085 17.6955 11.4108 17.6362 11.4011 17.5782C11.3926 17.556 11.3787 17.5361 11.3605 17.5204C11.3424 17.5047 11.3206 17.4937 11.2971 17.4884L11.2879 17.4861" fill="#FCC8CE"/>
<path d="M11.3843 18.3648C11.3748 18.3629 11.3659 18.3589 11.3583 18.3531C11.3504 18.3469 11.344 18.339 11.3397 18.3301C11.3354 18.3211 11.3333 18.3113 11.3334 18.3013C11.3245 18.2236 11.3384 18.145 11.3734 18.0748C11.4083 18.0047 11.463 17.9458 11.5307 17.9054C11.559 17.8887 11.5917 17.8809 11.6245 17.8829C11.6573 17.8849 11.6888 17.8967 11.7147 17.9167C11.7359 17.9333 11.7528 17.9547 11.7639 17.979C11.775 18.0034 11.78 18.0301 11.7785 18.0567C11.7684 18.1062 11.7476 18.153 11.7176 18.1939C11.6876 18.2348 11.649 18.2689 11.6046 18.2938C11.5476 18.3298 11.4839 18.3539 11.4172 18.3648C11.4063 18.3669 11.3951 18.3669 11.3843 18.3648ZM11.6344 17.965C11.6113 17.9618 11.5878 17.9662 11.5675 17.9775C11.5162 18.0099 11.4749 18.0555 11.448 18.1094C11.421 18.1632 11.4094 18.2233 11.4145 18.2832C11.466 18.2735 11.5152 18.2541 11.5594 18.2262C11.5931 18.2077 11.6226 18.1827 11.6463 18.1527C11.6699 18.1226 11.6872 18.0882 11.6971 18.0514C11.6976 18.0373 11.6946 18.0232 11.6883 18.0104C11.6821 17.9977 11.6727 17.9866 11.6611 17.9782C11.6536 17.9715 11.6444 17.9669 11.6344 17.965Z" fill="#FCC8CE"/>
<path d="M11.5921 18.6355C11.5791 18.6329 11.5703 18.6302 11.5661 18.6291C11.556 18.6271 11.5464 18.623 11.538 18.617C11.5295 18.6111 11.5224 18.6035 11.5172 18.5947C11.5128 18.5858 11.5105 18.576 11.5105 18.566C11.5105 18.5561 11.5128 18.5463 11.5172 18.5374C11.5416 18.4631 11.5869 18.3973 11.6479 18.3476C11.7088 18.2979 11.7829 18.2665 11.8613 18.2569C11.894 18.2532 11.927 18.2594 11.956 18.2746C11.985 18.2899 12.0087 18.3134 12.0239 18.3422C12.0363 18.3659 12.0428 18.3923 12.0428 18.419C12.0428 18.4457 12.0363 18.4721 12.0239 18.4958C11.9938 18.5367 11.9553 18.5708 11.9109 18.5958C11.8664 18.6208 11.8171 18.6361 11.7661 18.6408C11.7081 18.6493 11.6495 18.6475 11.5921 18.6355ZM11.5971 18.5528C11.6482 18.5648 11.7011 18.5673 11.7531 18.56C11.7916 18.5569 11.829 18.5462 11.8632 18.5285C11.8974 18.5108 11.9276 18.4865 11.952 18.457C11.9587 18.4445 11.9623 18.4305 11.9623 18.4164C11.9623 18.4022 11.9587 18.3883 11.952 18.3758C11.9431 18.362 11.9302 18.351 11.9151 18.3443C11.8999 18.3376 11.8831 18.3354 11.8667 18.338C11.8063 18.3466 11.7495 18.3712 11.7023 18.4093C11.6551 18.4475 11.6194 18.4976 11.599 18.5543" fill="#FCC8CE"/>
<path d="M10.8155 18.2468C10.8047 18.2443 10.7944 18.2398 10.7853 18.2336C10.7289 18.1971 10.6805 18.1497 10.6431 18.0943C10.6126 18.0537 10.5913 18.0071 10.5805 17.9577C10.5698 17.9083 10.5698 17.8572 10.5807 17.8078C10.5902 17.7829 10.6055 17.7606 10.6255 17.7428C10.6454 17.725 10.6694 17.7122 10.6954 17.7055C10.7273 17.6974 10.7609 17.6991 10.7918 17.7102C10.8227 17.7213 10.8495 17.7414 10.8687 17.7678C10.914 17.8319 10.9398 17.9076 10.9431 17.9858C10.9463 18.0639 10.9269 18.1414 10.887 18.209C10.8833 18.2183 10.8774 18.2265 10.8698 18.233C10.8622 18.2396 10.8532 18.2443 10.8434 18.2468C10.834 18.249 10.8242 18.249 10.8148 18.2468M10.7494 17.7813C10.7394 17.7789 10.7291 17.7789 10.7191 17.7813C10.7052 17.7845 10.6922 17.791 10.6814 17.8002C10.6705 17.8094 10.6621 17.8211 10.6568 17.8342C10.6507 17.8718 10.6524 17.9102 10.6618 17.9471C10.6711 17.984 10.6879 18.0186 10.7111 18.049C10.7401 18.0922 10.7772 18.1295 10.8205 18.1588C10.8494 18.1062 10.8634 18.0468 10.8607 17.9869C10.8581 17.9271 10.839 17.8691 10.8056 17.8191C10.7914 17.8009 10.7717 17.7877 10.7494 17.7813Z" fill="#FCC8CE"/>
<path d="M10.5163 18.4113C10.4589 18.3992 10.4042 18.3774 10.3545 18.3468C10.3097 18.3222 10.2708 18.2885 10.2403 18.2478C10.2099 18.2072 10.1886 18.1606 10.1778 18.1112C10.1761 18.0845 10.1809 18.0579 10.1919 18.0334C10.2028 18.009 10.2195 17.9875 10.2405 17.9708C10.2662 17.9505 10.2975 17.9383 10.3302 17.936C10.363 17.9336 10.3957 17.9411 10.4241 17.9576C10.4922 17.9975 10.5474 18.0558 10.5831 18.1256C10.6188 18.1954 10.6336 18.2738 10.6256 18.3517C10.6258 18.3616 10.6238 18.3714 10.6196 18.3804C10.6154 18.3894 10.6092 18.3974 10.6015 18.4038C10.593 18.4096 10.5833 18.4137 10.5732 18.4158C10.563 18.4179 10.5524 18.4179 10.5423 18.4158C10.5384 18.4158 10.5293 18.4158 10.5163 18.4113ZM10.356 18.0187C10.3455 18.0158 10.3344 18.0155 10.3237 18.0177C10.3129 18.02 10.3029 18.0247 10.2945 18.0316C10.2827 18.0402 10.2733 18.0517 10.2672 18.0649C10.2611 18.0781 10.2585 18.0926 10.2597 18.107C10.2698 18.1438 10.2873 18.1781 10.3113 18.2079C10.3352 18.2378 10.365 18.2625 10.3989 18.2807C10.4434 18.308 10.4927 18.3268 10.5442 18.3362C10.5486 18.2763 10.5364 18.2164 10.509 18.1628C10.4816 18.1092 10.44 18.064 10.3885 18.0319C10.3782 18.0269 10.3673 18.0231 10.356 18.0206" fill="#FCC8CE"/>
<path d="M11.2344 19.8034C11.1936 19.7934 11.1573 19.7703 11.1311 19.7378C11.0858 19.6736 11.06 19.5981 11.0567 19.52C11.0535 19.4418 11.0729 19.3644 11.1128 19.2969C11.1167 19.2877 11.1226 19.2795 11.1301 19.273C11.1377 19.2664 11.1467 19.2617 11.1564 19.2591C11.1666 19.257 11.1772 19.2571 11.1874 19.2593C11.1976 19.2615 11.2073 19.2658 11.2157 19.2719C11.2721 19.3084 11.3205 19.3558 11.3579 19.4112C11.3884 19.4518 11.4097 19.4984 11.4205 19.5478C11.4312 19.5972 11.4312 19.6484 11.4202 19.6977C11.4108 19.7226 11.3955 19.7449 11.3755 19.7627C11.3555 19.7805 11.3315 19.7933 11.3055 19.8C11.2827 19.807 11.2585 19.8081 11.2352 19.8031M11.1801 19.3456C11.1511 19.3982 11.1372 19.4577 11.1399 19.5175C11.1426 19.5774 11.1618 19.6354 11.1954 19.6853C11.2045 19.6992 11.2175 19.7102 11.2329 19.7169C11.2482 19.7236 11.2653 19.7258 11.2818 19.723C11.2958 19.72 11.3088 19.7136 11.3197 19.7044C11.3306 19.6951 11.339 19.6834 11.3441 19.6702C11.3501 19.6327 11.3484 19.5944 11.339 19.5575C11.3297 19.5207 11.313 19.4861 11.2898 19.4558C11.2607 19.4126 11.2234 19.375 11.1801 19.3456Z" fill="#FCC8CE"/>
<path d="M11.6285 19.5657C11.611 19.5621 11.594 19.5562 11.5781 19.5483C11.5099 19.5084 11.4548 19.4501 11.4191 19.3803C11.3835 19.3104 11.3688 19.232 11.3769 19.1542C11.3765 19.1443 11.3785 19.1344 11.3827 19.1253C11.3869 19.1163 11.3932 19.1083 11.401 19.1021C11.4094 19.0961 11.419 19.092 11.4292 19.0899C11.4393 19.0878 11.4498 19.0879 11.4599 19.09C11.5266 19.1001 11.5906 19.1236 11.6477 19.1591C11.6925 19.1836 11.7315 19.2173 11.7619 19.2579C11.7924 19.2986 11.8137 19.3452 11.8243 19.3947C11.826 19.4213 11.8212 19.448 11.8103 19.4724C11.7994 19.4968 11.7827 19.5183 11.7616 19.5351C11.7435 19.5502 11.722 19.5609 11.6988 19.5662C11.6757 19.5715 11.6516 19.5713 11.6285 19.5657ZM11.458 19.1716C11.4535 19.2315 11.4657 19.2915 11.4932 19.3451C11.5207 19.3987 11.5625 19.4439 11.614 19.4758C11.6279 19.4848 11.6442 19.4896 11.6609 19.4896C11.6775 19.4896 11.6938 19.4848 11.7077 19.4758C11.7192 19.4673 11.7284 19.4562 11.7345 19.4433C11.7405 19.4305 11.7433 19.4164 11.7425 19.4022C11.7324 19.3655 11.7148 19.3312 11.6909 19.3013C11.667 19.2715 11.6372 19.2467 11.6033 19.2286C11.5588 19.2013 11.5095 19.1825 11.458 19.1731" fill="#FCC8CE"/>
<path d="M10.3491 19.6197C10.3261 19.6149 10.3047 19.6045 10.2868 19.5895C10.2656 19.5729 10.2487 19.5515 10.2376 19.5271C10.2265 19.5028 10.2214 19.4761 10.2229 19.4494C10.233 19.3999 10.2537 19.3531 10.2836 19.3121C10.3136 19.2712 10.3521 19.237 10.3965 19.212C10.4533 19.1761 10.5169 19.1519 10.5835 19.141C10.5937 19.1389 10.6042 19.1389 10.6144 19.1409C10.6246 19.1429 10.6342 19.1469 10.6428 19.1527C10.6505 19.159 10.6568 19.1669 10.661 19.1758C10.6652 19.1848 10.6674 19.1946 10.6673 19.2045C10.6761 19.2822 10.6623 19.3608 10.6273 19.431C10.5923 19.5011 10.5377 19.56 10.4699 19.6004C10.433 19.6202 10.3904 19.627 10.3491 19.6197ZM10.5862 19.2226C10.5347 19.2323 10.4855 19.2517 10.4413 19.2796C10.4076 19.298 10.3781 19.323 10.3545 19.3531C10.3309 19.3831 10.3137 19.4176 10.304 19.4544C10.3033 19.4685 10.3062 19.4826 10.3124 19.4954C10.3186 19.5082 10.3279 19.5193 10.3395 19.5276C10.3535 19.5366 10.3699 19.5415 10.3866 19.5415C10.4033 19.5415 10.4196 19.5366 10.4336 19.5276C10.4848 19.4951 10.5261 19.4495 10.553 19.3956C10.58 19.3418 10.5916 19.2817 10.5866 19.2218" fill="#FCC8CE"/>
<path d="M10.0854 19.2447C10.062 19.2407 10.0399 19.2313 10.021 19.2172C10.002 19.2031 9.98673 19.1847 9.97645 19.1635C9.96401 19.1399 9.95752 19.1136 9.95752 19.0869C9.95752 19.0602 9.96401 19.0339 9.97645 19.0103C10.0064 18.9692 10.0449 18.935 10.0893 18.91C10.1338 18.8849 10.1832 18.8695 10.2342 18.8649C10.301 18.855 10.3691 18.859 10.4342 18.8766C10.4444 18.8787 10.4541 18.8828 10.4626 18.8888C10.4711 18.8948 10.4782 18.9025 10.4835 18.9114C10.4879 18.9202 10.4902 18.93 10.4902 18.9399C10.4902 18.9497 10.4879 18.9595 10.4835 18.9684C10.4591 19.0426 10.4137 19.1083 10.3528 19.158C10.2918 19.2077 10.2178 19.2392 10.1394 19.2488C10.1214 19.2496 10.103 19.2482 10.0854 19.2447ZM10.3917 18.9495C10.344 18.9395 10.2948 18.938 10.2464 18.945C10.2081 18.948 10.1707 18.9587 10.1367 18.9764C10.1026 18.9942 10.0726 19.0185 10.0483 19.048C10.0419 19.0607 10.0387 19.0747 10.039 19.0888C10.0393 19.103 10.0432 19.1168 10.0503 19.1292C10.0592 19.143 10.072 19.154 10.0872 19.1607C10.1023 19.1674 10.1191 19.1696 10.1355 19.1669C10.1959 19.1584 10.2527 19.1337 10.2999 19.0956C10.3471 19.0575 10.3828 19.0073 10.4032 18.9506L10.3925 18.9484" fill="#FCC8CE"/>
<path d="M14.3758 12.606C11.7854 13.7573 11.3208 17.4113 11.3208 17.4113" stroke="#FCC8CE" stroke-width="0.2" stroke-miterlimit="10" stroke-linecap="round"/>
<path d="M15.17 12.4248C15.17 12.4248 13.1646 12.1168 12.9207 11.6245C12.9207 11.6245 13.3436 13.071 15.17 12.4248Z" fill="#F9D78E"/>
<path d="M15.1712 12.4172C15.1712 12.4172 13.2358 13.0212 12.7957 12.6856C12.7957 12.6856 14.1513 13.692 15.1712 12.4172Z" fill="#F7D473"/>
</g>
<defs>
<clipPath id="clip0_5363_40253">
<rect width="36" height="36" fill="white"/>
</clipPath>
</defs>
</svg>
