<svg width="52" height="52" viewBox="0 0 52 52" fill="none" xmlns="http://www.w3.org/2000/svg">
<g filter="url(#filter0_d_7764_284698)">
<circle cx="26" cy="24" r="18" fill="white" fill-opacity="0.6" shape-rendering="crispEdges"/>
</g>
<path d="M19.5781 22.9224C19.9035 23.2479 20.4311 23.2479 20.7566 22.9224L26.0007 17.6783L31.2447 22.9224C31.5702 23.2479 32.0978 23.2479 32.4232 22.9224C32.7487 22.597 32.7487 22.0694 32.4232 21.7439L26.5899 15.9106C26.4336 15.7543 26.2217 15.6665 26.0007 15.6665C25.7796 15.6665 25.5677 15.7543 25.4114 15.9106L19.5781 21.7439C19.2526 22.0694 19.2526 22.597 19.5781 22.9224Z" fill="#15181F"/>
<path d="M25.166 17.3333C25.166 16.8731 25.5391 16.5 25.9993 16.5C26.4596 16.5 26.8327 16.8731 26.8327 17.3333V31.5C26.8327 31.9602 26.4596 32.3333 25.9993 32.3333C25.5391 32.3333 25.166 31.9602 25.166 31.5V17.3333Z" fill="#15181F"/>
<defs>
<filter id="filter0_d_7764_284698" x="0" y="0" width="52" height="52" filterUnits="userSpaceOnUse" color-interpolation-filters="sRGB">
<feFlood flood-opacity="0" result="BackgroundImageFix"/>
<feColorMatrix in="SourceAlpha" type="matrix" values="0 0 0 0 0 0 0 0 0 0 0 0 0 0 0 0 0 0 127 0" result="hardAlpha"/>
<feOffset dy="2"/>
<feGaussianBlur stdDeviation="4"/>
<feComposite in2="hardAlpha" operator="out"/>
<feColorMatrix type="matrix" values="0 0 0 0 0.560784 0 0 0 0 0.560784 0 0 0 0 0.560784 0 0 0 0.36 0"/>
<feBlend mode="normal" in2="BackgroundImageFix" result="effect1_dropShadow_7764_284698"/>
<feBlend mode="normal" in="SourceGraphic" in2="effect1_dropShadow_7764_284698" result="shape"/>
</filter>
</defs>
</svg>
