<svg width="24" height="25" viewBox="0 0 24 25" fill="none" xmlns="http://www.w3.org/2000/svg">
<path d="M10.6658 3.42955C11.2237 2.34349 12.7763 2.34349 13.3342 3.42955L15.265 7.18772C15.4828 7.61166 15.8891 7.90686 16.3596 7.983L20.5305 8.65792C21.7358 8.85296 22.2155 10.3295 21.3551 11.1958L18.3775 14.1934C18.0416 14.5315 17.8864 15.0092 17.9594 15.4802L18.6063 19.6554C18.7933 20.862 17.5373 21.7746 16.4475 21.2239L12.6765 19.3184C12.2511 19.1034 11.7489 19.1034 11.3235 19.3184L7.55248 21.2239C6.46271 21.7746 5.2067 20.862 5.39366 19.6554L6.04064 15.4802C6.11363 15.0092 5.95843 14.5315 5.62254 14.1934L2.64495 11.1958C1.78446 10.3295 2.26422 8.85296 3.46954 8.65792L7.64041 7.983C8.1109 7.90686 8.51722 7.61166 8.73502 7.18772L10.6658 3.42955Z" fill="#FFC737"/>
</svg>
