<svg width="24" height="24" viewBox="0 0 24 24" fill="none" xmlns="http://www.w3.org/2000/svg">
<path d="M2.47754 16.1912H6.28646V19.0479C6.28646 19.5738 5.86013 20.0001 5.33423 20.0001H3.42977C2.90387 20.0001 2.47754 19.5738 2.47754 19.0479V16.1912Z" fill="#047C77"/>
<path d="M17.7136 16.1912H21.5225V19.0479C21.5225 19.5738 21.0962 20.0001 20.5703 20.0001H18.6659C18.14 20.0001 17.7136 19.5738 17.7136 19.0479V16.1912Z" fill="#047C77"/>
<path fill-rule="evenodd" clip-rule="evenodd" d="M2.93847 11.1586L4.38709 9.31854C4.89304 7.86283 6.32602 4.95142 8.01035 4.95142H8.05931H10.1647H13.8839H16.0383H16.2342C16.7238 4.95142 17.1534 5.19238 17.3959 5.55488C18.4612 6.48645 19.2992 8.27589 19.6616 9.31854L21.166 11.2295C21.166 11.2295 21.5222 11.617 21.5222 12.5693V17.1529C21.5222 17.356 21.5222 17.5206 21.5222 17.5206H2.47754C2.47754 17.5206 2.47754 17.356 2.47754 17.1529V12.5693C2.47754 11.617 2.91037 11.2004 2.93847 11.1586Z" fill="#00CBC1"/>
<path d="M9.35557 16.2058C9.3945 16.0793 9.51142 15.9929 9.64382 15.9929H14.3565C14.4889 15.9929 14.6058 16.0793 14.6447 16.2058L15.0482 17.5169H8.95215L9.35557 16.2058Z" fill="#9BEDE9"/>
<path d="M4.38013 13.1431C4.38013 12.7223 4.72129 12.3811 5.14213 12.3811H7.42813C7.84897 12.3811 8.19013 12.7223 8.19013 13.1431V13.9051C8.19013 14.3259 7.84897 14.6671 7.42813 14.6671H5.14213C4.72129 14.6671 4.38013 14.3259 4.38013 13.9051V13.1431Z" fill="white"/>
<path d="M15.8101 13.1431C15.8101 12.7223 16.1512 12.3811 16.5721 12.3811H18.8581C19.2789 12.3811 19.6201 12.7223 19.6201 13.1431V13.9051C19.6201 14.3259 19.2789 14.6671 18.8581 14.6671H16.5721C16.1512 14.6671 15.8101 14.3259 15.8101 13.9051V13.1431Z" fill="white"/>
<path d="M5.13178 6.25085C5.41648 4.93672 6.57908 3.99902 7.9237 3.99902H16.0757C17.4203 3.99902 18.5829 4.93672 18.8676 6.25085L19.6175 9.71241H4.38184L5.13178 6.25085Z" fill="#00CBC1"/>
<path d="M6.2923 6.43211C6.45306 5.46777 7.28743 4.76099 8.26507 4.76099H15.7351C16.7127 4.76099 17.5471 5.46777 17.7078 6.43211L18.0961 8.76099H5.90405L6.2923 6.43211Z" fill="#11A69F"/>
<path fill-rule="evenodd" clip-rule="evenodd" d="M2.95377 7.80811C2.05811 7.80811 1.33203 8.78257 1.33203 9.98463C1.33203 10.3603 1.55893 10.6648 1.83883 10.6648H3.76594H4.66217H5.33433V9.61233H4.66217V8.40951C4.66217 8.07737 4.46154 7.80811 4.21405 7.80811H2.95377Z" fill="#00CBC1"/>
<path fill-rule="evenodd" clip-rule="evenodd" d="M21.0462 7.80811C21.9419 7.80811 22.668 8.78258 22.668 9.98466C22.668 10.3603 22.4411 10.6648 22.1612 10.6648H20.2341H19.3379H18.6657V9.61236H19.3379V8.40952C19.3379 8.07737 19.5385 7.80811 19.786 7.80811H21.0462Z" fill="#00CBC1"/>
<path d="M23 16.8008C23 19.2861 20.9853 21.3008 18.5 21.3008C16.0147 21.3008 14 19.2861 14 16.8008C14 14.3155 16.0147 12.3008 18.5 12.3008C20.9853 12.3008 23 14.3155 23 16.8008Z" fill="#0168FE"/>
<path d="M20.0397 14.8278C20.1715 14.696 20.3852 14.696 20.517 14.8278C20.6488 14.9596 20.6488 15.1733 20.517 15.3051L17.176 18.6464C17.0442 18.7782 16.8305 18.7782 16.6987 18.6464C16.5669 18.5146 16.5669 18.3009 16.6987 18.1691L20.0397 14.8278Z" fill="white"/>
<path fill-rule="evenodd" clip-rule="evenodd" d="M17.2418 15.6251C17.366 15.6251 17.4668 15.5243 17.4668 15.4001C17.4668 15.2758 17.366 15.175 17.2418 15.175C17.1175 15.175 17.0168 15.2758 17.0168 15.4001C17.0168 15.5243 17.1175 15.6251 17.2418 15.6251ZM17.2418 16.3001C17.7388 16.3001 18.1417 15.8972 18.1417 15.4001C18.1417 14.903 17.7388 14.5 17.2418 14.5C16.7447 14.5 16.3418 14.903 16.3418 15.4001C16.3418 15.8972 16.7447 16.3001 17.2418 16.3001Z" fill="white"/>
<path fill-rule="evenodd" clip-rule="evenodd" d="M19.9417 18.325C20.066 18.325 20.1667 18.2243 20.1667 18.1C20.1667 17.9757 20.066 17.875 19.9417 17.875C19.8175 17.875 19.7167 17.9757 19.7167 18.1C19.7167 18.2243 19.8175 18.325 19.9417 18.325ZM19.9417 19.0001C20.4388 19.0001 20.8417 18.5971 20.8417 18.1C20.8417 17.6029 20.4388 17.2 19.9417 17.2C19.4447 17.2 19.0417 17.6029 19.0417 18.1C19.0417 18.5971 19.4447 19.0001 19.9417 19.0001Z" fill="white"/>
</svg>
