<svg width="24" height="25" viewBox="0 0 24 25" fill="none" xmlns="http://www.w3.org/2000/svg">
<path d="M2.47754 16.6912H6.28646V19.5479C6.28646 20.0738 5.86013 20.5001 5.33423 20.5001H3.42977C2.90387 20.5001 2.47754 20.0738 2.47754 19.5479V16.6912Z" fill="#047C77"/>
<path d="M17.7136 16.6912H21.5225V19.5479C21.5225 20.0738 21.0962 20.5001 20.5703 20.5001H18.6659C18.14 20.5001 17.7136 20.0738 17.7136 19.5479V16.6912Z" fill="#047C77"/>
<path fill-rule="evenodd" clip-rule="evenodd" d="M2.93847 11.6586L4.38709 9.81854C4.89304 8.36283 6.32602 5.45142 8.01035 5.45142H8.05931H10.1647H13.8839H16.0383H16.2342C16.7238 5.45142 17.1534 5.69238 17.3959 6.05488C18.4612 6.98645 19.2992 8.77589 19.6616 9.81854L21.166 11.7295C21.166 11.7295 21.5222 12.117 21.5222 13.0693V17.6529C21.5222 17.856 21.5222 18.0206 21.5222 18.0206H2.47754C2.47754 18.0206 2.47754 17.856 2.47754 17.6529V13.0693C2.47754 12.117 2.91037 11.7004 2.93847 11.6586Z" fill="#00CBC1"/>
<path d="M9.35557 16.7058C9.3945 16.5793 9.51142 16.4929 9.64382 16.4929H14.3565C14.4889 16.4929 14.6058 16.5793 14.6447 16.7058L15.0482 18.0169H8.95215L9.35557 16.7058Z" fill="#9BEDE9"/>
<path d="M4.38013 13.6431C4.38013 13.2223 4.72129 12.8811 5.14213 12.8811H7.42813C7.84897 12.8811 8.19013 13.2223 8.19013 13.6431V14.4051C8.19013 14.8259 7.84897 15.1671 7.42813 15.1671H5.14213C4.72129 15.1671 4.38013 14.8259 4.38013 14.4051V13.6431Z" fill="white"/>
<path d="M15.8101 13.6431C15.8101 13.2223 16.1512 12.8811 16.5721 12.8811H18.8581C19.2789 12.8811 19.6201 13.2223 19.6201 13.6431V14.4051C19.6201 14.8259 19.2789 15.1671 18.8581 15.1671H16.5721C16.1512 15.1671 15.8101 14.8259 15.8101 14.4051V13.6431Z" fill="white"/>
<path d="M5.13178 6.75085C5.41648 5.43672 6.57908 4.49902 7.9237 4.49902H16.0757C17.4203 4.49902 18.5829 5.43672 18.8676 6.75085L19.6175 10.2124H4.38184L5.13178 6.75085Z" fill="#00CBC1"/>
<path d="M6.2923 6.93211C6.45306 5.96777 7.28743 5.26099 8.26507 5.26099H15.7351C16.7127 5.26099 17.5471 5.96777 17.7078 6.93211L18.0961 9.26099H5.90405L6.2923 6.93211Z" fill="#11A69F"/>
<path fill-rule="evenodd" clip-rule="evenodd" d="M2.95377 8.30811C2.05811 8.30811 1.33203 9.28257 1.33203 10.4846C1.33203 10.8603 1.55893 11.1648 1.83883 11.1648H3.76594H4.66217H5.33433V10.1123H4.66217V8.90951C4.66217 8.57737 4.46154 8.30811 4.21405 8.30811H2.95377Z" fill="#00CBC1"/>
<path fill-rule="evenodd" clip-rule="evenodd" d="M21.0462 8.30811C21.9419 8.30811 22.668 9.28258 22.668 10.4847C22.668 10.8603 22.4411 11.1648 22.1612 11.1648H20.2341H19.3379H18.6657V10.1124H19.3379V8.90952C19.3379 8.57737 19.5385 8.30811 19.786 8.30811H21.0462Z" fill="#00CBC1"/>
<path d="M23 17.3008C23 19.7861 20.9853 21.8008 18.5 21.8008C16.0147 21.8008 14 19.7861 14 17.3008C14 14.8155 16.0147 12.8008 18.5 12.8008C20.9853 12.8008 23 14.8155 23 17.3008Z" fill="#0168FE"/>
<path d="M20.0397 15.3278C20.1715 15.196 20.3852 15.196 20.517 15.3278C20.6488 15.4596 20.6488 15.6733 20.517 15.8051L17.176 19.1464C17.0442 19.2782 16.8305 19.2782 16.6987 19.1464C16.5669 19.0146 16.5669 18.8009 16.6987 18.6691L20.0397 15.3278Z" fill="white"/>
<path fill-rule="evenodd" clip-rule="evenodd" d="M17.2418 16.1251C17.366 16.1251 17.4668 16.0243 17.4668 15.9001C17.4668 15.7758 17.366 15.675 17.2418 15.675C17.1175 15.675 17.0168 15.7758 17.0168 15.9001C17.0168 16.0243 17.1175 16.1251 17.2418 16.1251ZM17.2418 16.8001C17.7388 16.8001 18.1417 16.3972 18.1417 15.9001C18.1417 15.403 17.7388 15 17.2418 15C16.7447 15 16.3418 15.403 16.3418 15.9001C16.3418 16.3972 16.7447 16.8001 17.2418 16.8001Z" fill="white"/>
<path fill-rule="evenodd" clip-rule="evenodd" d="M19.9417 18.825C20.066 18.825 20.1667 18.7243 20.1667 18.6C20.1667 18.4757 20.066 18.375 19.9417 18.375C19.8175 18.375 19.7167 18.4757 19.7167 18.6C19.7167 18.7243 19.8175 18.825 19.9417 18.825ZM19.9417 19.5001C20.4388 19.5001 20.8417 19.0971 20.8417 18.6C20.8417 18.1029 20.4388 17.7 19.9417 17.7C19.4447 17.7 19.0417 18.1029 19.0417 18.6C19.0417 19.0971 19.4447 19.5001 19.9417 19.5001Z" fill="white"/>
</svg>
