<svg width="24" height="25" viewBox="0 0 24 25" fill="none" xmlns="http://www.w3.org/2000/svg">
<path d="M2.47754 18.6921H6.28646V21.5488C6.28646 22.0747 5.86013 22.5011 5.33423 22.5011H3.42977C2.90387 22.5011 2.47754 22.0747 2.47754 21.5488V18.6921Z" fill="#143B75"/>
<path d="M17.7136 18.6921H21.5225V21.5488C21.5225 22.0747 21.0962 22.5011 20.5703 22.5011H18.6659C18.14 22.5011 17.7136 22.0747 17.7136 21.5488V18.6921Z" fill="#143B75"/>
<path fill-rule="evenodd" clip-rule="evenodd" d="M2.93847 13.6596L4.38709 11.8195C4.89304 10.3638 6.32602 7.45239 8.01035 7.45239H8.05931H10.1647H13.8839H16.0383H16.2342C16.7238 7.45239 17.1534 7.69335 17.3959 8.05586C18.4612 8.98742 19.2992 10.7769 19.6616 11.8195L21.166 13.7305C21.166 13.7305 21.5222 14.118 21.5222 15.0702V19.6539C21.5222 19.857 21.5222 20.0216 21.5222 20.0216H2.47754C2.47754 20.0216 2.47754 19.857 2.47754 19.6539V15.0702C2.47754 14.118 2.91037 13.7014 2.93847 13.6596Z" fill="#0168FE"/>
<path d="M9.35557 18.7068C9.3945 18.5802 9.51142 18.4939 9.64382 18.4939H14.3565C14.4889 18.4939 14.6058 18.5802 14.6447 18.7068L15.0482 20.0179H8.95215L9.35557 18.7068Z" fill="#A2C7FF"/>
<path d="M4.38013 15.6441C4.38013 15.2232 4.72129 14.8821 5.14213 14.8821H7.42813C7.84897 14.8821 8.19013 15.2232 8.19013 15.6441V16.4061C8.19013 16.8269 7.84897 17.1681 7.42813 17.1681H5.14213C4.72129 17.1681 4.38013 16.8269 4.38013 16.4061V15.6441Z" fill="white"/>
<path d="M15.8101 15.6441C15.8101 15.2232 16.1512 14.8821 16.5721 14.8821H18.8581C19.2789 14.8821 19.6201 15.2232 19.6201 15.6441V16.4061C19.6201 16.8269 19.2789 17.1681 18.8581 17.1681H16.5721C16.1512 17.1681 15.8101 16.8269 15.8101 16.4061V15.6441Z" fill="white"/>
<path d="M5.13178 8.75183C5.41648 7.4377 6.57908 6.5 7.9237 6.5H16.0757C17.4203 6.5 18.5829 7.43769 18.8676 8.75183L19.6175 12.2134H4.38184L5.13178 8.75183Z" fill="#0168FE"/>
<path d="M6.2923 8.93308C6.45306 7.96874 7.28743 7.26196 8.26507 7.26196H15.7351C16.7127 7.26196 17.5471 7.96875 17.7078 8.93308L18.0961 11.262H5.90405L6.2923 8.93308Z" fill="#203CCF"/>
<path fill-rule="evenodd" clip-rule="evenodd" d="M2.95377 10.3091C2.05811 10.3091 1.33203 11.2835 1.33203 12.4856C1.33203 12.8613 1.55893 13.1658 1.83883 13.1658H3.76594H4.66217H5.33433V12.1133H4.66217V10.9105C4.66217 10.5783 4.46154 10.3091 4.21405 10.3091H2.95377Z" fill="#0168FE"/>
<path fill-rule="evenodd" clip-rule="evenodd" d="M21.0462 10.3091C21.9419 10.3091 22.668 11.2836 22.668 12.4856C22.668 12.8613 22.4411 13.1658 22.1612 13.1658H20.2341H19.3379H18.6657V12.1133H19.3379V10.9105C19.3379 10.5783 19.5385 10.3091 19.786 10.3091H21.0462Z" fill="#0168FE"/>
<path d="M16.0652 6.79297C15.587 6.51683 15.4231 5.90524 15.6992 5.42694L15.9492 4.99393C16.2254 4.51564 16.837 4.35176 17.3152 4.62791L22.5993 7.67866C22.8812 7.8414 23.0662 8.13117 23.0953 8.45536L23.1226 8.7598C23.1603 9.1801 22.9301 9.57883 22.5473 9.75634L22.27 9.88492C21.9747 10.0218 21.6312 10.0065 21.3493 9.84372L16.0652 6.79297Z" fill="#FFC737"/>
<path fill-rule="evenodd" clip-rule="evenodd" d="M18.8122 7.03141C19.7787 5.35739 19.2051 3.21682 17.5311 2.25032C15.8571 1.28382 13.7165 1.85739 12.75 3.53141C11.7835 5.20544 12.3571 7.346 14.0311 8.3125C15.7051 9.279 17.8457 8.70543 18.8122 7.03141ZM15.7786 5.28085C16.0202 4.86234 15.8769 4.3272 15.4584 4.08557C15.0398 3.84395 14.5047 3.98734 14.2631 4.40585C14.0215 4.82435 14.1648 5.35949 14.5834 5.60112C15.0019 5.84274 15.537 5.69935 15.7786 5.28085Z" fill="#FFC737"/>
</svg>
