<svg width="36" height="36" viewBox="0 0 36 36" fill="none" xmlns="http://www.w3.org/2000/svg">
<path fill-rule="evenodd" clip-rule="evenodd" d="M25 15.25H28.5C29.8807 15.25 31 16.3693 31 17.75V31.25H25V15.25ZM27 18.75C27 18.4739 27.2239 18.25 27.5 18.25H28.5C28.7761 18.25 29 18.4739 29 18.75V19.75C29 20.0261 28.7761 20.25 28.5 20.25H27.5C27.2239 20.25 27 20.0261 27 19.75V18.75ZM27.5 22.25C27.2239 22.25 27 22.4739 27 22.75V23.75C27 24.0261 27.2239 24.25 27.5 24.25H28.5C28.7761 24.25 29 24.0261 29 23.75V22.75C29 22.4739 28.7761 22.25 28.5 22.25H27.5Z" fill="#B2C2D6"/>
<path fill-rule="evenodd" clip-rule="evenodd" d="M7.5 4.75C6.11929 4.75 5 5.86929 5 7.25V28.75C5 30.1307 6.11929 31.25 7.5 31.25H12V25.75C12 25.1977 12.4477 24.75 13 24.75H17C17.5523 24.75 18 25.1977 18 25.75V31.25H25V7.25C25 5.86929 23.8807 4.75 22.5 4.75H7.5ZM10 9.75C9.44772 9.75 9 10.1977 9 10.75V12.75C9 13.3023 9.44772 13.75 10 13.75H12C12.5523 13.75 13 13.3023 13 12.75V10.75C13 10.1977 12.5523 9.75 12 9.75H10ZM9 17.75C9 17.1977 9.44772 16.75 10 16.75H12C12.5523 16.75 13 17.1977 13 17.75V19.75C13 20.3023 12.5523 20.75 12 20.75H10C9.44772 20.75 9 20.3023 9 19.75V17.75ZM17 10.75C17 10.1977 17.4477 9.75 18 9.75H20C20.5523 9.75 21 10.1977 21 10.75V12.75C21 13.3023 20.5523 13.75 20 13.75H18C17.4477 13.75 17 13.3023 17 12.75V10.75ZM18 16.75C17.4477 16.75 17 17.1977 17 17.75V19.75C17 20.3023 17.4477 20.75 18 20.75H20C20.5523 20.75 21 20.3023 21 19.75V17.75C21 17.1977 20.5523 16.75 20 16.75H18Z" fill="#074093"/>
</svg>
