<svg width="24" height="25" viewBox="0 0 24 25" fill="none" xmlns="http://www.w3.org/2000/svg">
<path d="M2.47754 16.6912H6.28646V19.5479C6.28646 20.0738 5.86013 20.5001 5.33423 20.5001H3.42977C2.90387 20.5001 2.47754 20.0738 2.47754 19.5479V16.6912Z" fill="#203CCF"/>
<path d="M17.7136 16.6912H21.5225V19.5479C21.5225 20.0738 21.0962 20.5001 20.5703 20.5001H18.6659C18.14 20.5001 17.7136 20.0738 17.7136 19.5479V16.6912Z" fill="#203CCF"/>
<path fill-rule="evenodd" clip-rule="evenodd" d="M2.93847 11.6586L4.38709 9.81854C4.89304 8.36283 6.32602 5.45142 8.01035 5.45142H8.05931H10.1647H13.8839H16.0383H16.2342C16.7238 5.45142 17.1534 5.69238 17.3959 6.05488C18.4612 6.98645 19.2992 8.77589 19.6616 9.81854L21.166 11.7295C21.166 11.7295 21.5222 12.117 21.5222 13.0693V17.6529C21.5222 17.856 21.5222 18.0206 21.5222 18.0206H2.47754C2.47754 18.0206 2.47754 17.856 2.47754 17.6529V13.0693C2.47754 12.117 2.91037 11.7004 2.93847 11.6586Z" fill="#0168FE"/>
<path d="M5.13178 6.75085C5.41648 5.43672 6.57908 4.49902 7.9237 4.49902H16.0757C17.4203 4.49902 18.5829 5.43672 18.8676 6.75085L19.6175 10.2124H4.38184L5.13178 6.75085Z" fill="#0168FE"/>
<path fill-rule="evenodd" clip-rule="evenodd" d="M2.95377 8.30811C2.05811 8.30811 1.33203 9.28257 1.33203 10.4846C1.33203 10.8603 1.55893 11.1648 1.83883 11.1648H3.76594H4.66217H5.33433V10.1123H4.66217V8.90951C4.66217 8.57737 4.46154 8.30811 4.21405 8.30811H2.95377Z" fill="#0168FE"/>
<path fill-rule="evenodd" clip-rule="evenodd" d="M21.0462 8.30811C21.9419 8.30811 22.668 9.28258 22.668 10.4847C22.668 10.8603 22.4411 11.1648 22.1612 11.1648H20.2341H19.3379H18.6657V10.1124H19.3379V8.90952C19.3379 8.57737 19.5385 8.30811 19.786 8.30811H21.0462Z" fill="#0168FE"/>
<path fill-rule="evenodd" clip-rule="evenodd" d="M10.7679 7.75125C11.496 7.46338 12.2983 7.42165 13.0523 7.63243C13.8063 7.84321 14.4707 8.29493 14.9439 8.91863L14.5593 9.21048L14.9439 8.91863C15.4172 9.54233 15.6734 10.3038 15.6734 11.0867H14.7077C14.7077 10.5145 14.5205 9.95812 14.1747 9.50234C13.8288 9.04656 13.3434 8.71646 12.7923 8.56242C12.2413 8.40839 11.655 8.43888 11.123 8.64925C10.5909 8.85962 10.1423 9.2383 9.8456 9.72751C9.54891 10.2167 9.42044 10.7896 9.47979 11.3586C9.53915 11.9277 9.78308 12.4617 10.1743 12.8791C10.5656 13.2966 11.0827 13.5745 11.6467 13.6705C12.2108 13.7666 12.7907 13.6754 13.2981 13.411C13.5345 13.2878 13.8262 13.3795 13.9494 13.616C14.0726 13.8525 13.9809 14.1441 13.7444 14.2673C13.0501 14.6292 12.2565 14.7539 11.4846 14.6225C10.7128 14.4911 10.0052 14.1107 9.46979 13.5395C8.93438 12.9682 8.60058 12.2375 8.51936 11.4588C8.43813 10.6801 8.61394 9.89619 9.01994 9.22675C9.42594 8.55732 10.0398 8.03912 10.7679 7.75125Z" fill="white"/>
<path d="M15.5942 11.6891C15.5582 11.8104 15.4099 11.8552 15.3127 11.7743L13.7737 10.492C13.666 10.4022 13.7013 10.2287 13.8354 10.1882L15.9449 9.55023C16.0791 9.50965 16.2046 9.63453 16.1646 9.76892L15.5942 11.6891Z" fill="white"/>
</svg>
