<svg width="24" height="25" viewBox="0 0 24 25" fill="none" xmlns="http://www.w3.org/2000/svg">
<path d="M7.66944 11.7173C7.21383 11.2617 7.21383 10.523 7.66944 10.0674L9.31936 8.41746C9.77497 7.96185 10.5137 7.96185 10.9693 8.41746L20.4563 17.9045C20.7159 18.1641 20.8382 18.5309 20.7863 18.8944L20.58 20.3381C20.5067 20.8514 20.1034 21.2547 19.5901 21.3281L18.1464 21.5343C17.7829 21.5862 17.4161 21.464 17.1565 21.2043L7.66944 11.7173Z" fill="#FFC737"/>
<path fill-rule="evenodd" clip-rule="evenodd" d="M13.4432 14.1912C16.1769 11.4575 16.1769 7.02538 13.4432 4.29171C10.7096 1.55804 6.27741 1.55804 3.54374 4.29171C0.810072 7.02538 0.810072 11.4575 3.54374 14.1912C6.27741 16.9249 10.7096 16.9249 13.4432 14.1912ZM8.01893 8.76574C8.57122 8.21345 8.57122 7.31802 8.01893 6.76574C7.46665 6.21345 6.57122 6.21345 6.01893 6.76574C5.46665 7.31802 5.46665 8.21345 6.01893 8.76574C6.57122 9.31802 7.46665 9.31802 8.01893 8.76574Z" fill="#FFC737"/>
</svg>
