<svg width="24" height="25" viewBox="0 0 24 25" fill="none" xmlns="http://www.w3.org/2000/svg">
<path d="M2.47754 16.6912H6.28646V19.5479C6.28646 20.0738 5.86013 20.5001 5.33423 20.5001H3.42977C2.90387 20.5001 2.47754 20.0738 2.47754 19.5479V16.6912Z" fill="#00A69E"/>
<path d="M17.7136 16.6912H21.5225V19.5479C21.5225 20.0738 21.0962 20.5001 20.5703 20.5001H18.6659C18.14 20.5001 17.7136 20.0738 17.7136 19.5479V16.6912Z" fill="#00A69E"/>
<path fill-rule="evenodd" clip-rule="evenodd" d="M2.93847 11.6586L4.38709 9.81854C4.89304 8.36283 6.32602 5.45142 8.01035 5.45142H8.05931H10.1647H13.8839H16.0383H16.2342C16.7238 5.45142 17.1534 5.69238 17.3959 6.05488C18.4612 6.98645 19.2992 8.77589 19.6616 9.81854L21.166 11.7295C21.166 11.7295 21.5222 12.117 21.5222 13.0693V17.6529C21.5222 17.856 21.5222 18.0206 21.5222 18.0206H2.47754C2.47754 18.0206 2.47754 17.856 2.47754 17.6529V13.0693C2.47754 12.117 2.91037 11.7004 2.93847 11.6586Z" fill="#00CBC1"/>
<path d="M5.13178 6.75085C5.41648 5.43672 6.57908 4.49902 7.9237 4.49902H16.0757C17.4203 4.49902 18.5829 5.43672 18.8676 6.75085L19.6175 10.2124H4.38184L5.13178 6.75085Z" fill="#00CBC1"/>
<path fill-rule="evenodd" clip-rule="evenodd" d="M2.95377 8.30811C2.05811 8.30811 1.33203 9.28257 1.33203 10.4846C1.33203 10.8603 1.55893 11.1648 1.83883 11.1648H3.76594H4.66217H5.33433V10.1123H4.66217V8.90951C4.66217 8.57737 4.46154 8.30811 4.21405 8.30811H2.95377Z" fill="#00CBC1"/>
<path fill-rule="evenodd" clip-rule="evenodd" d="M21.0462 8.30811C21.9419 8.30811 22.668 9.28258 22.668 10.4847C22.668 10.8603 22.4411 11.1648 22.1612 11.1648H20.2341H19.3379H18.6657V10.1124H19.3379V8.90952C19.3379 8.57737 19.5385 8.30811 19.786 8.30811H21.0462Z" fill="#00CBC1"/>
<path fill-rule="evenodd" clip-rule="evenodd" d="M9.16719 9.02882C9.42749 8.93664 9.71323 9.07291 9.80542 9.3332L10.7508 12.0024L11.6961 9.3332C11.7668 9.13357 11.9556 9.00014 12.1674 9.00014C12.3792 9.00014 12.568 9.13357 12.6387 9.3332L13.584 12.0024L14.5294 9.3332C14.6216 9.07291 14.9073 8.93664 15.1676 9.02882C15.4279 9.12101 15.5642 9.40675 15.472 9.66704L14.0554 13.6669C13.9846 13.8666 13.7958 14 13.584 14C13.3723 14 13.1834 13.8666 13.1127 13.6669L12.1674 10.9978L11.2221 13.6669C11.1514 13.8666 10.9625 14 10.7508 14C10.539 14 10.3502 13.8666 10.2795 13.6669L8.86281 9.66704C8.77062 9.40675 8.9069 9.12101 9.16719 9.02882Z" fill="white"/>
<path fill-rule="evenodd" clip-rule="evenodd" d="M8 11.3323C8 11.0561 8.22385 10.8323 8.49999 10.8323L9.49998 10.8323C9.77611 10.8323 9.99997 11.0561 9.99997 11.3323C9.99997 11.6084 9.77611 11.8322 9.49998 11.8322L8.49999 11.8322C8.22385 11.8322 8 11.6084 8 11.3323Z" fill="white"/>
<path fill-rule="evenodd" clip-rule="evenodd" d="M14.332 11.332C14.332 11.0559 14.5559 10.832 14.832 10.832L15.832 10.832C16.1081 10.832 16.332 11.0559 16.332 11.332C16.332 11.6082 16.1081 11.832 15.832 11.832L14.832 11.832C14.5559 11.832 14.332 11.6082 14.332 11.332Z" fill="white"/>
</svg>
