<svg width="24" height="24" viewBox="0 0 24 24" fill="none" xmlns="http://www.w3.org/2000/svg">
<path d="M11.1105 2.48126C11.4825 1.75722 12.5175 1.75722 12.8894 2.48126L15.3804 7.32984C15.5256 7.61247 15.7965 7.80927 16.1101 7.86003L21.4912 8.73077C22.2947 8.8608 22.6145 9.84516 22.0409 10.4227L18.1994 14.29C17.9754 14.5154 17.872 14.8339 17.9206 15.1479L18.7553 20.5346C18.88 21.339 18.0426 21.9474 17.3161 21.5802L12.451 19.1218C12.1674 18.9785 11.8326 18.9785 11.549 19.1218L6.68381 21.5802C5.95729 21.9474 5.11995 21.339 5.2446 20.5346L6.07929 15.1479C6.12795 14.8339 6.02448 14.5154 5.80056 14.29L1.95903 10.4227C1.38538 9.84516 1.70521 8.8608 2.50876 8.73077L7.88978 7.86003C8.20345 7.80927 8.47432 7.61247 8.61952 7.32984L11.1105 2.48126Z" fill="#FFC737"/>
</svg>
