<svg width="24" height="24" viewBox="0 0 24 24" fill="none" xmlns="http://www.w3.org/2000/svg">
<path d="M7.66944 11.2173C7.21383 10.7617 7.21383 10.023 7.66944 9.56738L9.31936 7.91746C9.77497 7.46185 10.5137 7.46185 10.9693 7.91746L20.4563 17.4045C20.7159 17.6641 20.8382 18.0309 20.7863 18.3944L20.58 19.8381C20.5067 20.3514 20.1034 20.7547 19.5901 20.8281L18.1464 21.0343C17.7829 21.0862 17.4161 20.964 17.1565 20.7043L7.66944 11.2173Z" fill="#FFC737"/>
<path fill-rule="evenodd" clip-rule="evenodd" d="M13.4432 13.6912C16.1769 10.9575 16.1769 6.52538 13.4432 3.79171C10.7096 1.05804 6.27741 1.05804 3.54374 3.79171C0.810072 6.52538 0.810072 10.9575 3.54374 13.6912C6.27741 16.4249 10.7096 16.4249 13.4432 13.6912ZM8.01893 8.26574C8.57122 7.71345 8.57122 6.81802 8.01893 6.26574C7.46665 5.71345 6.57122 5.71345 6.01893 6.26574C5.46665 6.81802 5.46665 7.71345 6.01893 8.26574C6.57122 8.81802 7.46665 8.81802 8.01893 8.26574Z" fill="#FFC737"/>
</svg>
