<svg width="24" height="24" viewBox="0 0 24 24" fill="none" xmlns="http://www.w3.org/2000/svg">
<path d="M2.47754 18.1921H6.28646V21.0488C6.28646 21.5747 5.86013 22.0011 5.33423 22.0011H3.42977C2.90387 22.0011 2.47754 21.5747 2.47754 21.0488V18.1921Z" fill="#047C77"/>
<path d="M17.7136 18.1921H21.5225V21.0488C21.5225 21.5747 21.0962 22.0011 20.5703 22.0011H18.6659C18.14 22.0011 17.7136 21.5747 17.7136 21.0488V18.1921Z" fill="#047C77"/>
<path fill-rule="evenodd" clip-rule="evenodd" d="M2.93847 13.1596L4.38709 11.3195C4.89304 9.86381 6.32602 6.95239 8.01035 6.95239H8.05931H10.1647H13.8839H16.0383H16.2342C16.7238 6.95239 17.1534 7.19335 17.3959 7.55586C18.4612 8.48742 19.2992 10.2769 19.6616 11.3195L21.166 13.2305C21.166 13.2305 21.5222 13.618 21.5222 14.5702V19.1539C21.5222 19.357 21.5222 19.5216 21.5222 19.5216H2.47754C2.47754 19.5216 2.47754 19.357 2.47754 19.1539V14.5702C2.47754 13.618 2.91037 13.2014 2.93847 13.1596Z" fill="#00CBC1"/>
<path d="M9.35557 18.2068C9.3945 18.0802 9.51142 17.9939 9.64382 17.9939H14.3565C14.4889 17.9939 14.6058 18.0802 14.6447 18.2068L15.0482 19.5179H8.95215L9.35557 18.2068Z" fill="#9BEDE9"/>
<path d="M4.38013 15.1441C4.38013 14.7232 4.72129 14.3821 5.14213 14.3821H7.42813C7.84897 14.3821 8.19013 14.7232 8.19013 15.1441V15.9061C8.19013 16.3269 7.84897 16.6681 7.42813 16.6681H5.14213C4.72129 16.6681 4.38013 16.3269 4.38013 15.9061V15.1441Z" fill="white"/>
<path d="M15.8101 15.1441C15.8101 14.7232 16.1512 14.3821 16.5721 14.3821H18.8581C19.2789 14.3821 19.6201 14.7232 19.6201 15.1441V15.9061C19.6201 16.3269 19.2789 16.6681 18.8581 16.6681H16.5721C16.1512 16.6681 15.8101 16.3269 15.8101 15.9061V15.1441Z" fill="white"/>
<path d="M5.13178 8.25183C5.41648 6.9377 6.57908 6 7.9237 6H16.0757C17.4203 6 18.5829 6.93769 18.8676 8.25183L19.6175 11.7134H4.38184L5.13178 8.25183Z" fill="#00CBC1"/>
<path d="M6.2923 8.43308C6.45306 7.46874 7.28743 6.76196 8.26507 6.76196H15.7351C16.7127 6.76196 17.5471 7.46875 17.7078 8.43308L18.0961 10.762H5.90405L6.2923 8.43308Z" fill="#11A69F"/>
<path fill-rule="evenodd" clip-rule="evenodd" d="M2.95377 9.80908C2.05811 9.80908 1.33203 10.7835 1.33203 11.9856C1.33203 12.3613 1.55893 12.6658 1.83883 12.6658H3.76594H4.66217H5.33433V11.6133H4.66217V10.4105C4.66217 10.0783 4.46154 9.80908 4.21405 9.80908H2.95377Z" fill="#00CBC1"/>
<path fill-rule="evenodd" clip-rule="evenodd" d="M21.0462 9.80908C21.9419 9.80908 22.668 10.7836 22.668 11.9856C22.668 12.3613 22.4411 12.6658 22.1612 12.6658H20.2341H19.3379H18.6657V11.6133H19.3379V10.4105C19.3379 10.0783 19.5385 9.80908 19.786 9.80908H21.0462Z" fill="#00CBC1"/>
<path d="M13 3.57106C13 3.02389 13.4749 2.58032 14.0606 2.58032L21.4851 2.58032C22.0709 2.58032 22.5457 3.02389 22.5457 3.57106V10.0109C22.5457 10.558 22.0709 11.0016 21.4851 11.0016H14.0606C13.4749 11.0016 13 10.558 13 10.0109V3.57106Z" fill="#DCEAFC"/>
<path d="M14.2571 1.70177C14.2571 1.31419 14.5945 1 15.0107 1C15.4269 1 15.7643 1.31419 15.7643 1.70177V3.45621C15.7643 3.84379 15.4269 4.15798 15.0107 4.15798C14.5945 4.15798 14.2571 3.84379 14.2571 3.45621V1.70177Z" fill="#09203E"/>
<path d="M19.783 1.70177C19.783 1.31419 20.1204 1 20.5366 1C20.9528 1 21.2902 1.31419 21.2902 1.70177V3.45621C21.2902 3.84379 20.9528 4.15798 20.5366 4.15798C20.1204 4.15798 19.783 3.84379 19.783 3.45621V1.70177Z" fill="#09203E"/>
<path fill-rule="evenodd" clip-rule="evenodd" d="M15.767 5.23868C15.9388 5.17494 16.1274 5.26917 16.1883 5.44915L16.8122 7.29477L17.4362 5.44915C17.4828 5.31111 17.6075 5.21884 17.7473 5.21884C17.887 5.21884 18.0117 5.31111 18.0583 5.44915L18.6823 7.29477L19.3062 5.44915C19.3671 5.26917 19.5557 5.17494 19.7275 5.23868C19.8993 5.30242 19.9892 5.5 19.9284 5.67998L18.9933 8.44575C18.9467 8.58379 18.8221 8.67605 18.6823 8.67605C18.5425 8.67605 18.4179 8.58379 18.3712 8.44575L17.7473 6.60013L17.1233 8.44575C17.0766 8.58379 16.952 8.67605 16.8122 8.67605C16.6724 8.67605 16.5478 8.58379 16.5012 8.44575L15.5661 5.67998C15.5053 5.5 15.5952 5.30242 15.767 5.23868Z" fill="#0168FE"/>
<path fill-rule="evenodd" clip-rule="evenodd" d="M15 6.834C15 6.64307 15.1477 6.48828 15.33 6.48828L15.99 6.48828C16.1723 6.48828 16.32 6.64307 16.32 6.834C16.32 7.02494 16.1723 7.17972 15.99 7.17972L15.33 7.17972C15.1477 7.17972 15 7.02494 15 6.834Z" fill="#0168FE"/>
<path fill-rule="evenodd" clip-rule="evenodd" d="M19.1797 6.834C19.1797 6.64307 19.3274 6.48828 19.5097 6.48828L20.1697 6.48828C20.352 6.48828 20.4997 6.64307 20.4997 6.834C20.4997 7.02494 20.352 7.17972 20.1697 7.17972L19.5097 7.17972C19.3274 7.17972 19.1797 7.02494 19.1797 6.834Z" fill="#0168FE"/>
</svg>
