<svg width="24" height="25" viewBox="0 0 24 25" fill="none" xmlns="http://www.w3.org/2000/svg">
<path d="M2.47754 16.6912H6.28646V19.5479C6.28646 20.0738 5.86013 20.5001 5.33423 20.5001H3.42977C2.90387 20.5001 2.47754 20.0738 2.47754 19.5479V16.6912Z" fill="#F3A735"/>
<path d="M17.7136 16.6912H21.5225V19.5479C21.5225 20.0738 21.0962 20.5001 20.5703 20.5001H18.6659C18.14 20.5001 17.7136 20.0738 17.7136 19.5479V16.6912Z" fill="#F3A735"/>
<path fill-rule="evenodd" clip-rule="evenodd" d="M2.93847 11.6586L4.38709 9.81854C4.89304 8.36283 6.32602 5.45142 8.01035 5.45142H8.05931H10.1647H13.8839H16.0383H16.2342C16.7238 5.45142 17.1534 5.69238 17.3959 6.05488C18.4612 6.98645 19.2992 8.77589 19.6616 9.81854L21.166 11.7295C21.166 11.7295 21.5222 12.117 21.5222 13.0693V17.6529C21.5222 17.856 21.5222 18.0206 21.5222 18.0206H2.47754C2.47754 18.0206 2.47754 17.856 2.47754 17.6529V13.0693C2.47754 12.117 2.91037 11.7004 2.93847 11.6586Z" fill="#FFC737"/>
<path d="M5.13178 6.75085C5.41648 5.43672 6.57908 4.49902 7.9237 4.49902H16.0757C17.4203 4.49902 18.5829 5.43672 18.8676 6.75085L19.6175 10.2124H4.38184L5.13178 6.75085Z" fill="#FFC737"/>
<path fill-rule="evenodd" clip-rule="evenodd" d="M2.95377 8.30811C2.05811 8.30811 1.33203 9.28257 1.33203 10.4846C1.33203 10.8603 1.55893 11.1648 1.83883 11.1648H3.76594H4.66217H5.33433V10.1123H4.66217V8.90951C4.66217 8.57737 4.46154 8.30811 4.21405 8.30811H2.95377Z" fill="#FFC737"/>
<path fill-rule="evenodd" clip-rule="evenodd" d="M21.0462 8.30811C21.9419 8.30811 22.668 9.28258 22.668 10.4847C22.668 10.8603 22.4411 11.1648 22.1612 11.1648H20.2341H19.3379H18.6657V10.1124H19.3379V8.90952C19.3379 8.57737 19.5385 8.30811 19.786 8.30811H21.0462Z" fill="#FFC737"/>
<path d="M16.8528 11.2875C17.0491 11.1514 17.0491 10.8484 16.8528 10.7123L13.7446 8.55735C13.5271 8.40653 13.2375 8.57077 13.2375 8.84497V10.3826L8.65482 10.3773C8.29344 10.377 8.00027 10.6852 8 11.0656C7.99973 11.446 8.29247 11.7546 8.65385 11.7548L13.2375 11.7601V13.1551C13.2375 13.4292 13.5271 13.5935 13.7446 13.4426L16.8528 11.2875Z" fill="white"/>
</svg>
