<svg width="24" height="24" viewBox="0 0 24 24" fill="none" xmlns="http://www.w3.org/2000/svg">
<path d="M2.47754 16.1912H6.28646V19.0479C6.28646 19.5738 5.86013 20.0001 5.33423 20.0001H3.42977C2.90387 20.0001 2.47754 19.5738 2.47754 19.0479V16.1912Z" fill="#203CCF"/>
<path d="M17.7136 16.1912H21.5225V19.0479C21.5225 19.5738 21.0962 20.0001 20.5703 20.0001H18.6659C18.14 20.0001 17.7136 19.5738 17.7136 19.0479V16.1912Z" fill="#203CCF"/>
<path fill-rule="evenodd" clip-rule="evenodd" d="M2.93847 11.1586L4.38709 9.31854C4.89304 7.86283 6.32602 4.95142 8.01035 4.95142H8.05931H10.1647H13.8839H16.0383H16.2342C16.7238 4.95142 17.1534 5.19238 17.3959 5.55488C18.4612 6.48645 19.2992 8.27589 19.6616 9.31854L21.166 11.2295C21.166 11.2295 21.5222 11.617 21.5222 12.5693V17.1529C21.5222 17.356 21.5222 17.5206 21.5222 17.5206H2.47754C2.47754 17.5206 2.47754 17.356 2.47754 17.1529V12.5693C2.47754 11.617 2.91037 11.2004 2.93847 11.1586Z" fill="#0168FE"/>
<path d="M5.13178 6.25085C5.41648 4.93672 6.57908 3.99902 7.9237 3.99902H16.0757C17.4203 3.99902 18.5829 4.93672 18.8676 6.25085L19.6175 9.71241H4.38184L5.13178 6.25085Z" fill="#0168FE"/>
<path fill-rule="evenodd" clip-rule="evenodd" d="M2.95377 7.80811C2.05811 7.80811 1.33203 8.78257 1.33203 9.98463C1.33203 10.3603 1.55893 10.6648 1.83883 10.6648H3.76594H4.66217H5.33433V9.61233H4.66217V8.40951C4.66217 8.07737 4.46154 7.80811 4.21405 7.80811H2.95377Z" fill="#0168FE"/>
<path fill-rule="evenodd" clip-rule="evenodd" d="M21.0462 7.80811C21.9419 7.80811 22.668 8.78258 22.668 9.98466C22.668 10.3603 22.4411 10.6648 22.1612 10.6648H20.2341H19.3379H18.6657V9.61236H19.3379V8.40952C19.3379 8.07737 19.5385 7.80811 19.786 7.80811H21.0462Z" fill="#0168FE"/>
<path fill-rule="evenodd" clip-rule="evenodd" d="M10.7679 7.25125C11.496 6.96338 12.2983 6.92165 13.0523 7.13243C13.8063 7.34321 14.4707 7.79493 14.9439 8.41863L14.5593 8.71048L14.9439 8.41863C15.4172 9.04233 15.6734 9.80376 15.6734 10.5867H14.7077C14.7077 10.0145 14.5205 9.45812 14.1747 9.00234C13.8288 8.54656 13.3434 8.21646 12.7923 8.06242C12.2413 7.90839 11.655 7.93888 11.123 8.14925C10.5909 8.35962 10.1423 8.7383 9.8456 9.22751C9.54891 9.71671 9.42044 10.2896 9.47979 10.8586C9.53915 11.4277 9.78308 11.9617 10.1743 12.3791C10.5656 12.7966 11.0827 13.0745 11.6467 13.1705C12.2108 13.2666 12.7907 13.1754 13.2981 12.911C13.5345 12.7878 13.8262 12.8795 13.9494 13.116C14.0726 13.3525 13.9809 13.6441 13.7444 13.7673C13.0501 14.1292 12.2565 14.2539 11.4846 14.1225C10.7128 13.9911 10.0052 13.6107 9.46979 13.0395C8.93438 12.4682 8.60058 11.7375 8.51936 10.9588C8.43813 10.1801 8.61394 9.39619 9.01994 8.72675C9.42594 8.05732 10.0398 7.53912 10.7679 7.25125Z" fill="white"/>
<path d="M15.5942 11.1891C15.5582 11.3104 15.4099 11.3552 15.3127 11.2743L13.7737 9.99199C13.666 9.90225 13.7013 9.72875 13.8354 9.68816L15.9449 9.05023C16.0791 9.00965 16.2046 9.13453 16.1646 9.26892L15.5942 11.1891Z" fill="white"/>
</svg>
