<svg width="36" height="36" viewBox="0 0 36 36" fill="none" xmlns="http://www.w3.org/2000/svg">
<path d="M5 7C5 5.89543 5.89543 5 7 5H18V18H5V7Z" fill="#5A92F4"/>
<path d="M5 18H18V31H7C5.89543 31 5 30.1046 5 29V18Z" fill="#0168FE"/>
<path d="M18 5H29C30.1046 5 31 5.89543 31 7V18H18V5Z" fill="white"/>
<path d="M18 18H31V29C31 30.1046 30.1046 31 29 31H18V18Z" fill="#5A92F4"/>
<path d="M7.97949 11.5C7.97949 11.0513 8.34326 10.6875 8.79199 10.6875H14.2087C14.6574 10.6875 15.0212 11.0513 15.0212 11.5C15.0212 11.9487 14.6574 12.3125 14.2087 12.3125H8.79199C8.34326 12.3125 7.97949 11.9487 7.97949 11.5Z" fill="white"/>
<path d="M11.5 7.97949C11.9487 7.97949 12.3125 8.34326 12.3125 8.79199L12.3125 14.2087C12.3125 14.6574 11.9487 15.0212 11.5 15.0212C11.0513 15.0212 10.6875 14.6574 10.6875 14.2087L10.6875 8.79199C10.6875 8.34326 11.0513 7.97949 11.5 7.97949Z" fill="white"/>
<path d="M8.89227 21.8997C9.20957 21.5824 9.72402 21.5824 10.0413 21.8997L14.1013 25.9597C14.4186 26.277 14.4186 26.7914 14.1013 27.1087C13.784 27.426 13.2695 27.426 12.9522 27.1087L8.89227 23.0488C8.57497 22.7315 8.57497 22.217 8.89227 21.8997Z" fill="white"/>
<path d="M14.1091 21.8893C14.4264 22.2066 14.4264 22.7211 14.1091 23.0384L10.0491 27.0984C9.7318 27.4157 9.21735 27.4157 8.90005 27.0984C8.58275 26.7811 8.58275 26.2666 8.90005 25.9493L12.96 21.8893C13.2773 21.572 13.7918 21.572 14.1091 21.8893Z" fill="white"/>
<path d="M21.25 11.5C21.25 11.0513 21.6138 10.6875 22.0625 10.6875H26.9375C27.3862 10.6875 27.75 11.0513 27.75 11.5C27.75 11.9487 27.3862 12.3125 26.9375 12.3125H22.0625C21.6138 12.3125 21.25 11.9487 21.25 11.5Z" fill="#5A92F4"/>
<path d="M21.25 22.875C21.25 22.4263 21.6138 22.0625 22.0625 22.0625H26.9375C27.3862 22.0625 27.75 22.4263 27.75 22.875C27.75 23.3237 27.3862 23.6875 26.9375 23.6875H22.0625C21.6138 23.6875 21.25 23.3237 21.25 22.875Z" fill="white"/>
<path d="M21.25 26.125C21.25 25.6763 21.6138 25.3125 22.0625 25.3125H26.9375C27.3862 25.3125 27.75 25.6763 27.75 26.125C27.75 26.5737 27.3862 26.9375 26.9375 26.9375H22.0625C21.6138 26.9375 21.25 26.5737 21.25 26.125Z" fill="white"/>
</svg>
