<svg width="24" height="25" viewBox="0 0 24 25" fill="none" xmlns="http://www.w3.org/2000/svg">
<path fill-rule="evenodd" clip-rule="evenodd" d="M17 8.5H7C6.44772 8.5 6 8.94772 6 9.5V17.5C6 18.0523 6.44772 18.5 7 18.5H17C17.5523 18.5 18 18.0523 18 17.5V9.5C18 8.94772 17.5523 8.5 17 8.5ZM7 6.5C5.34315 6.5 4 7.84315 4 9.5V17.5C4 19.1569 5.34315 20.5 7 20.5H17C18.6569 20.5 20 19.1569 20 17.5V9.5C20 7.84315 18.6569 6.5 17 6.5H7Z" fill="#9E9E9E"/>
<path fill-rule="evenodd" clip-rule="evenodd" d="M5 10.5C4.44772 10.5 4 10.9477 4 11.5C4 12.0523 4.44772 12.5 5 12.5H19C19.5523 12.5 20 12.0523 20 11.5C20 10.9477 19.5523 10.5 19 10.5H5Z" fill="#9E9E9E"/>
<path d="M7 5C7 4.44772 7.44772 4 8 4C8.55228 4 9 4.44772 9 5V7C9 7.55228 8.55228 8 8 8C7.44772 8 7 7.55228 7 7V5Z" fill="#9E9E9E"/>
<path d="M15 5C15 4.44772 15.4477 4 16 4C16.5523 4 17 4.44772 17 5V7C17 7.55228 16.5523 8 16 8C15.4477 8 15 7.55228 15 7V5Z" fill="#9E9E9E"/>
</svg>
