<svg width="36" height="37" viewBox="0 0 36 37" fill="none" xmlns="http://www.w3.org/2000/svg">
<path d="M18.3624 34.0858C18.3057 34.0738 18.2472 34.0613 18.1905 34.0493C13.0321 32.5136 8.58891 29.1916 5.65685 24.6782C2.72478 20.1648 1.4954 14.7549 2.1889 9.41764C2.2299 9.11579 2.33221 8.82551 2.48953 8.56465C2.64685 8.30378 2.85586 8.07785 3.10371 7.90074C3.34556 7.72786 3.62066 7.60704 3.9116 7.54591C4.20253 7.48479 4.50299 7.4847 4.79397 7.54564L9.24839 8.45944C9.72512 8.55841 10.155 8.81412 10.4695 9.18582C10.784 9.55752 10.965 10.0238 10.9836 10.5103L11.1273 14.3922C11.1435 14.8206 11.0319 15.2441 10.8066 15.6089C10.5814 15.9737 10.2528 16.2632 9.86252 16.4407L7.79854 17.3835C8.75568 20.5677 10.5925 23.4168 13.0976 25.6031L14.8659 24.0644C15.1894 23.7832 15.5887 23.6036 16.0137 23.5479C16.4387 23.4923 16.8708 23.5631 17.2558 23.7515L20.769 25.462C21.2087 25.6731 21.5645 26.0262 21.779 26.4643C21.9935 26.9025 22.0541 27.4001 21.951 27.8769L20.9842 32.4227C20.924 32.7135 20.8035 32.9884 20.6305 33.2297C20.4574 33.4711 20.2357 33.6734 19.9796 33.8237C19.4927 34.1115 18.9152 34.205 18.3624 34.0858Z" fill="#00A69E"/>
<path fill-rule="evenodd" clip-rule="evenodd" d="M25.5001 3C22.1864 3 19.5001 5.68629 19.5001 9V12.5001L17.8537 14.1464C17.5388 14.4614 17.7618 15 18.2073 15H19.5001H23.7931H25.5001C28.8138 15 31.5001 12.3137 31.5001 9C31.5001 5.68629 28.8138 3 25.5001 3Z" fill="#0168FE"/>
<path d="M24.5 9C24.5 9.55228 24.0523 10 23.5 10C22.9477 10 22.5 9.55228 22.5 9C22.5 8.44772 22.9477 8 23.5 8C24.0523 8 24.5 8.44772 24.5 9Z" fill="white"/>
<path d="M28.5 9C28.5 9.55228 28.0523 10 27.5 10C26.9477 10 26.5 9.55228 26.5 9C26.5 8.44772 26.9477 8 27.5 8C28.0523 8 28.5 8.44772 28.5 9Z" fill="white"/>
</svg>
