<svg width="36" height="36" viewBox="0 0 36 36" fill="none" xmlns="http://www.w3.org/2000/svg">
<path d="M4.5 13C4.5 10.7909 6.29086 9 8.5 9H27.5C29.7091 9 31.5 10.7909 31.5 13V26C31.5 28.2091 29.7091 30 27.5 30H8.5C6.29086 30 4.5 28.2091 4.5 26V13Z" fill="#293547"/>
<path d="M10.75 9C10.75 6.79086 12.5409 5 14.75 5H20.75C22.9591 5 24.75 6.79086 24.75 9V11C24.75 13.2091 22.9591 15 20.75 15H14.75C12.5409 15 10.75 13.2091 10.75 11V9Z" fill="#293547"/>
<path d="M24.5 19C24.5 22.5899 21.5899 25.5 18 25.5C14.4101 25.5 11.5 22.5899 11.5 19C11.5 15.4101 14.4101 12.5 18 12.5C21.5899 12.5 24.5 15.4101 24.5 19Z" fill="#293547"/>
<path fill-rule="evenodd" clip-rule="evenodd" d="M18 23.5C20.4853 23.5 22.5 21.4853 22.5 19C22.5 16.5147 20.4853 14.5 18 14.5C15.5147 14.5 13.5 16.5147 13.5 19C13.5 21.4853 15.5147 23.5 18 23.5ZM18 25.5C21.5899 25.5 24.5 22.5899 24.5 19C24.5 15.4101 21.5899 12.5 18 12.5C14.4101 12.5 11.5 15.4101 11.5 19C11.5 22.5899 14.4101 25.5 18 25.5Z" fill="white"/>
</svg>
