<svg width="36" height="37" viewBox="0 0 36 37" fill="none" xmlns="http://www.w3.org/2000/svg">
<path d="M4.5 13.5C4.5 11.2909 6.29086 9.5 8.5 9.5H27.5C29.7091 9.5 31.5 11.2909 31.5 13.5V26.5C31.5 28.7091 29.7091 30.5 27.5 30.5H8.5C6.29086 30.5 4.5 28.7091 4.5 26.5V13.5Z" fill="#293547"/>
<path d="M10.75 9.5C10.75 7.29086 12.5409 5.5 14.75 5.5H20.75C22.9591 5.5 24.75 7.29086 24.75 9.5V11.5C24.75 13.7091 22.9591 15.5 20.75 15.5H14.75C12.5409 15.5 10.75 13.7091 10.75 11.5V9.5Z" fill="#293547"/>
<path d="M24.5 19.5C24.5 23.0899 21.5899 26 18 26C14.4101 26 11.5 23.0899 11.5 19.5C11.5 15.9101 14.4101 13 18 13C21.5899 13 24.5 15.9101 24.5 19.5Z" fill="#293547"/>
<path fill-rule="evenodd" clip-rule="evenodd" d="M18 24C20.4853 24 22.5 21.9853 22.5 19.5C22.5 17.0147 20.4853 15 18 15C15.5147 15 13.5 17.0147 13.5 19.5C13.5 21.9853 15.5147 24 18 24ZM18 26C21.5899 26 24.5 23.0899 24.5 19.5C24.5 15.9101 21.5899 13 18 13C14.4101 13 11.5 15.9101 11.5 19.5C11.5 23.0899 14.4101 26 18 26Z" fill="white"/>
</svg>
