<svg width="40" height="41" viewBox="0 0 40 41" fill="none" xmlns="http://www.w3.org/2000/svg">
<path d="M5.82275 24.9961H11.3278V29.3108C11.3278 29.9682 10.7949 30.5011 10.1375 30.5011H7.01304C6.35566 30.5011 5.82275 29.9682 5.82275 29.3108V24.9961Z" fill="#4E627D"/>
<path d="M27.8428 24.9961H33.3478V29.3108C33.3478 29.9682 32.8149 30.5011 32.1575 30.5011H29.0331C28.3757 30.5011 27.8428 29.9682 27.8428 29.3108V24.9961Z" fill="#4E627D"/>
<path fill-rule="evenodd" clip-rule="evenodd" d="M13.2439 7.375C11.5631 7.375 10.1099 8.54712 9.75398 10.1898L8.85446 14.3418C8.74988 14.6004 8.65883 14.8433 8.58241 15.0631L8.56446 15.0859V13.6227C8.56446 13.213 8.2995 12.8809 7.97266 12.8809H6.30827C5.1254 12.8809 4.1665 14.0829 4.1665 15.5657C4.1665 16.0291 4.46616 16.4047 4.8358 16.4047H7.38085H7.52626L6.48872 17.7226C6.48516 17.7279 6.4771 17.7374 6.46534 17.7512C6.34316 17.8946 5.82254 18.5059 5.82254 19.7614V26.3861V26.9176H33.3477V26.3861V19.7614C33.3477 18.3851 32.8329 17.8251 32.8329 17.8251L31.7147 16.4046H31.7854H34.3304C34.7001 16.4046 34.9997 16.029 34.9997 15.5656C34.9997 14.0829 34.0408 12.8809 32.8579 12.8809H31.1936C30.8667 12.8809 30.6018 13.213 30.6018 13.6227V14.9031C30.501 14.6243 30.3791 14.3143 30.2382 13.9859L29.4158 10.1898C29.0599 8.54712 27.6066 7.375 25.9258 7.375H13.2439Z" fill="#00CBC1"/>
<path d="M15.775 24.9758C15.8237 24.8177 15.9699 24.7097 16.1354 24.7097H23.0336C23.1991 24.7097 23.3452 24.8177 23.3939 24.9758L23.9897 26.9124H15.1792L15.775 24.9758Z" fill="#00A69E"/>
<path d="M8.57227 20.442C8.57227 19.916 8.99872 19.4895 9.52477 19.4895H13.1264C13.6524 19.4895 14.0789 19.916 14.0789 20.442V21.841C14.0789 22.367 13.6524 22.7935 13.1264 22.7935H9.52477C8.99872 22.7935 8.57227 22.367 8.57227 21.841V20.442Z" fill="white"/>
<path d="M25.0918 20.442C25.0918 19.916 25.5182 19.4895 26.0443 19.4895H29.6459C30.1719 19.4895 30.5984 19.916 30.5984 20.442V21.841C30.5984 22.367 30.1719 22.7935 29.6459 22.7935H26.0443C25.5182 22.7935 25.0918 22.367 25.0918 21.841V20.442Z" fill="white"/>
<path d="M11.39 10.5652C11.5909 9.35979 12.6339 8.47632 13.8559 8.47632H25.314C26.5361 8.47632 27.579 9.3598 27.78 10.5652L28.3955 14.2575H10.7744L11.39 10.5652Z" fill="#00A69E"/>
<path d="M38.3335 28C38.3335 32.1421 34.9756 35.5 30.8335 35.5C26.6914 35.5 23.3335 32.1421 23.3335 28C23.3335 23.8579 26.6914 20.5 30.8335 20.5C34.9756 20.5 38.3335 23.8579 38.3335 28Z" fill="#0168FE"/>
<path fill-rule="evenodd" clip-rule="evenodd" d="M27.6575 25.7384C27.9862 25.6328 28.3382 25.8135 28.4438 26.1422L29.2533 28.6604L30.356 26.0872C30.4545 25.8574 30.6805 25.7084 30.9305 25.7084C31.1805 25.7084 31.4065 25.8574 31.505 26.0872L32.6078 28.6604L33.4172 26.1422C33.5228 25.8135 33.8749 25.6328 34.2035 25.7384C34.5321 25.844 34.7129 26.1961 34.6072 26.5247L33.2865 30.6336C33.2067 30.8818 32.9812 31.0544 32.7208 31.0667C32.4604 31.0789 32.2197 30.9282 32.117 30.6886L30.9305 27.92L29.744 30.6886C29.6413 30.9282 29.4006 31.0789 29.1402 31.0667C28.8798 31.0544 28.6543 30.8818 28.5745 30.6336L27.2538 26.5247C27.1482 26.1961 27.3289 25.844 27.6575 25.7384Z" fill="white"/>
<path d="M26 28.2245C26 27.8609 26.2948 27.5662 26.6584 27.5662H27.807C28.1706 27.5662 28.4654 27.8609 28.4654 28.2245C28.4654 28.5881 28.1706 28.8829 27.807 28.8829H26.6584C26.2948 28.8829 26 28.5881 26 28.2245Z" fill="white"/>
<path d="M33.1904 28.2245C33.1904 27.8609 33.4852 27.5662 33.8488 27.5662H34.9974C35.361 27.5662 35.6558 27.8609 35.6558 28.2245C35.6558 28.5881 35.361 28.8829 34.9974 28.8829H33.8488C33.4852 28.8829 33.1904 28.5881 33.1904 28.2245Z" fill="white"/>
</svg>
