<svg width="36" height="36" viewBox="0 0 36 36" fill="none" xmlns="http://www.w3.org/2000/svg">
<path d="M3.71631 24.2866H9.42969V28.5717C9.42969 29.3605 8.7902 30 8.00135 30H5.14466C4.3558 30 3.71631 29.3605 3.71631 28.5717V24.2866Z" fill="#0168FE"/>
<path d="M26.5703 24.2866H32.2837V28.5717C32.2837 29.3605 31.6442 30 30.8554 30H27.9987C27.2098 30 26.5703 29.3605 26.5703 28.5717V24.2866Z" fill="#0168FE"/>
<path fill-rule="evenodd" clip-rule="evenodd" d="M4.40771 16.7381L6.58064 13.9779C7.33956 11.7944 9.48904 7.42725 12.0155 7.42725H12.089H15.2471H20.8259H24.0575H24.3512C25.0857 7.42725 25.7301 7.78869 26.0939 8.33244C27.6918 9.72979 28.9488 12.414 29.4923 13.9779L31.749 16.8444C31.749 16.8444 32.2832 17.4257 32.2832 18.854V25.7295C32.2832 26.0341 32.2832 26.2811 32.2832 26.2811H3.71631C3.71631 26.2811 3.71631 26.0341 3.71631 25.7295V18.854C3.71631 17.4257 4.36556 16.8008 4.40771 16.7381Z" fill="#428FFF"/>
<path d="M7.69766 9.37628C8.12472 7.40508 9.86862 5.99854 11.8855 5.99854H24.1135C26.1304 5.99854 27.8743 7.40508 28.3014 9.37628L29.4263 14.5686H6.57275L7.69766 9.37628Z" fill="#428FFF"/>
<path fill-rule="evenodd" clip-rule="evenodd" d="M4.43066 11.7122C3.08717 11.7122 1.99805 13.1739 1.99805 14.9769C1.99805 15.5404 2.3384 15.9972 2.75824 15.9972H5.64891H6.99325H8.0015V14.4185H6.99325V12.6143C6.99325 12.116 6.69231 11.7122 6.32108 11.7122H4.43066Z" fill="#428FFF"/>
<path fill-rule="evenodd" clip-rule="evenodd" d="M31.5693 11.7122C32.9128 11.7122 34.002 13.1739 34.002 14.977C34.002 15.5405 33.6616 15.9973 33.2418 15.9973H30.3512H29.0068H27.9986V14.4185H29.0068V12.6143C29.0068 12.1161 29.3078 11.7122 29.679 11.7122H31.5693Z" fill="#428FFF"/>
<path fill-rule="evenodd" clip-rule="evenodd" d="M13.7508 12.7932C14.1412 12.655 14.5698 12.8594 14.7081 13.2498L16.1261 17.2535L17.5441 13.2498C17.6502 12.9504 17.9334 12.7502 18.2511 12.7502C18.5688 12.7502 18.852 12.9504 18.9581 13.2498L20.3761 17.2535L21.7941 13.2498C21.9324 12.8594 22.361 12.655 22.7514 12.7932C23.1419 12.9315 23.3463 13.3601 23.208 13.7506L21.083 19.7504C20.977 20.0499 20.6937 20.25 20.3761 20.25C20.0584 20.25 19.7752 20.0499 19.6691 19.7504L18.2511 15.7467L16.8331 19.7504C16.727 20.0499 16.4438 20.25 16.1261 20.25C15.8085 20.25 15.5252 20.0499 15.4192 19.7504L13.2942 13.7506C13.1559 13.3601 13.3603 12.9315 13.7508 12.7932Z" fill="white"/>
<path fill-rule="evenodd" clip-rule="evenodd" d="M12 16.2485C12 15.8343 12.3358 15.4985 12.75 15.4985L14.25 15.4985C14.6642 15.4985 15 15.8343 15 16.2485C15 16.6627 14.6642 16.9985 14.25 16.9985L12.75 16.9985C12.3358 16.9985 12 16.6627 12 16.2485Z" fill="white"/>
<path fill-rule="evenodd" clip-rule="evenodd" d="M21.498 16.248C21.498 15.8338 21.8338 15.498 22.248 15.498L23.748 15.498C24.1622 15.498 24.498 15.8338 24.498 16.248C24.498 16.6622 24.1622 16.998 23.748 16.998L22.248 16.998C21.8338 16.998 21.498 16.6622 21.498 16.248Z" fill="white"/>
</svg>
