<svg width="40" height="41" viewBox="0 0 40 41" fill="none" xmlns="http://www.w3.org/2000/svg">
<path d="M5.82227 24.9961H11.3273V29.3108C11.3273 29.9682 10.7944 30.5011 10.137 30.5011H7.01255C6.35518 30.5011 5.82227 29.9682 5.82227 29.3108V24.9961Z" fill="#4E627D"/>
<path d="M27.8418 24.9961H33.3468V29.3108C33.3468 29.9682 32.8139 30.5011 32.1565 30.5011H29.0321C28.3747 30.5011 27.8418 29.9682 27.8418 29.3108V24.9961Z" fill="#4E627D"/>
<path fill-rule="evenodd" clip-rule="evenodd" d="M13.2434 7.375C11.5626 7.375 10.1094 8.54712 9.75349 10.1898L8.85397 14.3418C8.7494 14.6004 8.65834 14.8433 8.58192 15.0631L8.56397 15.0859V13.6227C8.56397 13.213 8.29901 12.8809 7.97217 12.8809H6.30778C5.12492 12.8809 4.16602 14.0829 4.16602 15.5657C4.16602 16.0291 4.46567 16.4047 4.83532 16.4047H7.38037H7.52578L6.48824 17.7226C6.48467 17.7279 6.47661 17.7374 6.46486 17.7512C6.34267 17.8946 5.82205 18.5059 5.82205 19.7614V26.3861V26.9176H33.3472V26.3861V19.7614C33.3472 18.3851 32.8324 17.8251 32.8324 17.8251L31.7142 16.4046H31.7849H34.3299C34.6996 16.4046 34.9992 16.029 34.9992 15.5656C34.9992 14.0829 34.0403 12.8809 32.8575 12.8809H31.1931C30.8663 12.8809 30.6013 13.213 30.6013 13.6227V14.9031C30.5005 14.6243 30.3786 14.3143 30.2377 13.9859L29.4153 10.1898C29.0594 8.54712 27.6061 7.375 25.9254 7.375H13.2434Z" fill="#00CBC1"/>
<path d="M15.7755 24.9771C15.8242 24.8189 15.9704 24.7109 16.1359 24.7109H23.0341C23.1996 24.7109 23.3457 24.8189 23.3944 24.9771L23.9902 26.9136H15.1797L15.7755 24.9771Z" fill="#00A69E"/>
<path d="M8.57227 20.4408C8.57227 19.9147 8.99872 19.4883 9.52477 19.4883H13.1264C13.6524 19.4883 14.0789 19.9147 14.0789 20.4408V21.8397C14.0789 22.3658 13.6524 22.7922 13.1264 22.7922H9.52477C8.99872 22.7922 8.57227 22.3658 8.57227 21.8397V20.4408Z" fill="white"/>
<path d="M25.0918 20.4408C25.0918 19.9147 25.5182 19.4883 26.0443 19.4883H29.6459C30.1719 19.4883 30.5984 19.9147 30.5984 20.4408V21.8397C30.5984 22.3658 30.1719 22.7922 29.6459 22.7922H26.0443C25.5182 22.7922 25.0918 22.3658 25.0918 21.8397V20.4408Z" fill="white"/>
<path d="M11.389 10.5655C11.5899 9.36004 12.6329 8.47656 13.8549 8.47656H25.313C26.5351 8.47656 27.578 9.36004 27.779 10.5655L28.3945 14.2577H10.7734L11.389 10.5655Z" fill="#00A69E"/>
<path d="M38.334 28.5C38.334 32.6421 34.9761 36 30.834 36C26.6918 36 23.334 32.6421 23.334 28.5C23.334 24.3579 26.6918 21 30.834 21C34.9761 21 38.334 24.3579 38.334 28.5Z" fill="#0168FE"/>
<path fill-rule="evenodd" clip-rule="evenodd" d="M34.5637 26.0536C34.88 26.3879 34.8654 26.9153 34.5311 27.2316L30.5677 30.9816C30.2418 31.29 29.7302 31.285 29.4104 30.9703L27.1238 28.7203C26.7958 28.3975 26.7915 27.8699 27.1143 27.5418C27.4371 27.2138 27.9648 27.2095 28.2928 27.5323L30.0063 29.2183L33.3856 26.021C33.7199 25.7047 34.2473 25.7193 34.5637 26.0536Z" fill="white"/>
</svg>
