<svg width="36" height="36" viewBox="0 0 36 36" fill="none" xmlns="http://www.w3.org/2000/svg">
<path d="M6.75 10.75C6.75 8.40279 8.65279 6.5 11 6.5C13.3472 6.5 15.25 8.40279 15.25 10.75C15.25 13.0972 13.3472 15 11 15C8.65279 15 6.75 13.0972 6.75 10.75Z" fill="#074093"/>
<path d="M1 27C1 21.4772 5.47715 17 11 17C16.5228 17 21 21.4772 21 27V27.8333C21 29.03 20.03 30 18.8333 30H3.16667C1.97005 30 1 29.03 1 27.8333V27Z" fill="#074093"/>
<path d="M20.75 10.75C20.75 8.40279 22.6528 6.5 25 6.5C27.3472 6.5 29.25 8.40279 29.25 10.75C29.25 13.0972 27.3472 15 25 15C22.6528 15 20.75 13.0972 20.75 10.75Z" fill="#AFC3DC"/>
<path d="M15 27C15 21.4772 19.4772 17 25 17C30.5228 17 35 21.4772 35 27V27.8333C35 29.03 34.03 30 32.8333 30H17.1667C15.97 30 15 29.03 15 27.8333V27Z" fill="#AFC3DC"/>
<path d="M25 28C25 31.866 21.866 35 18 35C14.134 35 11 31.866 11 28C11 24.134 14.134 21 18 21C21.866 21 25 24.134 25 28Z" fill="#00CBC1"/>
<path fill-rule="evenodd" clip-rule="evenodd" d="M14.25 28C14.25 27.5858 14.5858 27.25 15 27.25H20C20.4142 27.25 20.75 27.5858 20.75 28C20.75 28.4142 20.4142 28.75 20 28.75H15C14.5858 28.75 14.25 28.4142 14.25 28Z" fill="white"/>
<path fill-rule="evenodd" clip-rule="evenodd" d="M18.2197 25.2197C18.5126 24.9268 18.9874 24.9268 19.2803 25.2197L21.5303 27.4697C21.671 27.6103 21.75 27.8011 21.75 28C21.75 28.1989 21.671 28.3897 21.5303 28.5303L19.2803 30.7803C18.9874 31.0732 18.5126 31.0732 18.2197 30.7803C17.9268 30.4874 17.9268 30.0126 18.2197 29.7197L19.9393 28L18.2197 26.2803C17.9268 25.9874 17.9268 25.5126 18.2197 25.2197Z" fill="white"/>
</svg>
