<svg width="48" height="48" viewBox="0 0 48 48" fill="none" xmlns="http://www.w3.org/2000/svg">
<path d="M6.9873 29.3951H13.5933V34.5728C13.5933 35.3617 12.9538 36.0012 12.165 36.0012H8.41565C7.6268 36.0012 6.9873 35.3617 6.9873 34.5728V29.3951Z" fill="#4E627D"/>
<path d="M33.4119 29.3951H40.0179V34.5728C40.0179 35.3617 39.3784 36.0012 38.5895 36.0012H34.8402C34.0514 36.0012 33.4119 35.3617 33.4119 34.5728V29.3951Z" fill="#4E627D"/>
<path fill-rule="evenodd" clip-rule="evenodd" d="M15.8929 8.24994C13.8759 8.24994 12.132 9.65648 11.705 11.6277L10.6255 16.6101C10.5001 16.9204 10.3908 17.2119 10.2991 17.4757L10.2775 17.5031V15.7472C10.2775 15.2556 9.9596 14.857 9.56738 14.857H7.57011C6.15068 14.857 5 16.2994 5 18.0788C5 18.6348 5.35959 19.0856 5.80316 19.0856H8.85722H9.03171L7.78666 20.6671C7.78239 20.6734 7.77271 20.6848 7.75861 20.7013C7.61198 20.8735 6.98724 21.607 6.98724 23.1136V31.0632V31.7011H40.0174V31.0632V23.1136C40.0174 21.4621 39.3997 20.79 39.3997 20.79L38.0578 19.0855H38.1427H41.1967C41.6403 19.0855 41.9999 18.6347 41.9999 18.0787C41.9999 16.2994 40.8492 14.857 39.4297 14.857H37.4325C37.0403 14.857 36.7223 15.2556 36.7223 15.7472V17.2836C36.6014 16.9491 36.4551 16.5771 36.286 16.1831L35.2991 11.6277C34.872 9.65648 33.1281 8.24994 31.1112 8.24994H15.8929Z" fill="#00CBC1"/>
<path d="M18.9304 29.3709C18.9888 29.1811 19.1641 29.0516 19.3627 29.0516H27.6406C27.8392 29.0516 28.0146 29.1811 28.073 29.3709L28.788 31.6947H18.2153L18.9304 29.3709Z" fill="#00A69E"/>
<path d="M10.2869 23.9304C10.2869 23.2991 10.7986 22.7874 11.4299 22.7874H15.7518C16.383 22.7874 16.8948 23.2991 16.8948 23.9304V25.6091C16.8948 26.2404 16.383 26.7521 15.7518 26.7521H11.4299C10.7986 26.7521 10.2869 26.2404 10.2869 25.6091V23.9304Z" fill="white"/>
<path d="M30.1104 23.9304C30.1104 23.2991 30.6221 22.7874 31.2534 22.7874H35.5753C36.2065 22.7874 36.7183 23.2991 36.7183 23.9304V25.6091C36.7183 26.2404 36.2065 26.7521 35.5753 26.7521H31.2534C30.6221 26.7521 30.1104 26.2404 30.1104 25.6091V23.9304Z" fill="white"/>
<path d="M13.6683 12.0782C13.9095 10.6316 15.161 9.57147 16.6275 9.57147H30.3772C31.8437 9.57147 33.0952 10.6316 33.3364 12.0782L34.075 16.5089H12.9297L13.6683 12.0782Z" fill="#00A69E"/>
<path d="M46 33C46 37.9706 41.9706 42 37 42C32.0294 42 28 37.9706 28 33C28 28.0294 32.0294 24 37 24C41.9706 24 46 28.0294 46 33Z" fill="#0168FE"/>
<path fill-rule="evenodd" clip-rule="evenodd" d="M33.1892 30.286C33.5835 30.1592 34.0059 30.3762 34.1327 30.7705L35.104 33.7924L36.4273 30.7046C36.5455 30.4288 36.8167 30.25 37.1167 30.25C37.4167 30.25 37.6879 30.4288 37.8061 30.7046L39.1294 33.7924L40.1007 30.7705C40.2275 30.3762 40.6499 30.1592 41.0443 30.286C41.4386 30.4128 41.6555 30.8352 41.5288 31.2295L39.9439 36.1603C39.8482 36.4581 39.5776 36.6652 39.2651 36.6799C38.9526 36.6946 38.6638 36.5138 38.5405 36.2262L37.1167 32.904L35.6929 36.2262C35.5697 36.5138 35.2809 36.6946 34.9683 36.6799C34.6558 36.6652 34.3853 36.4581 34.2895 36.1603L32.7046 31.2295C32.5779 30.8352 32.7948 30.4128 33.1892 30.286Z" fill="white"/>
<path d="M31.2002 33.2693C31.2002 32.833 31.5539 32.4793 31.9902 32.4793H33.3686C33.8049 32.4793 34.1586 32.833 34.1586 33.2693C34.1586 33.7057 33.8049 34.0594 33.3686 34.0594H31.9902C31.5539 34.0594 31.2002 33.7057 31.2002 33.2693Z" fill="white"/>
<path d="M39.8289 33.2693C39.8289 32.833 40.1826 32.4793 40.6189 32.4793H41.9973C42.4336 32.4793 42.7873 32.833 42.7873 33.2693C42.7873 33.7057 42.4336 34.0594 41.9973 34.0594H40.6189C40.1826 34.0594 39.8289 33.7057 39.8289 33.2693Z" fill="white"/>
</svg>
