<svg width="36" height="36" viewBox="0 0 36 36" fill="none" xmlns="http://www.w3.org/2000/svg">
<path d="M5.24023 22.0459H10.1948V25.9292C10.1948 26.5208 9.71514 27.0004 9.1235 27.0004H6.31149C5.71985 27.0004 5.24023 26.5208 5.24023 25.9292V22.0459Z" fill="#003582"/>
<path d="M25.0586 22.0459H30.0131V25.9292C30.0131 26.5208 29.5335 27.0004 28.9419 27.0004H26.1299C25.5382 27.0004 25.0586 26.5208 25.0586 25.9292V22.0459Z" fill="#003582"/>
<path fill-rule="evenodd" clip-rule="evenodd" d="M11.9196 6.1875C10.4069 6.1875 9.09902 7.24241 8.77873 8.72081L7.96916 12.4576C7.87504 12.6904 7.79309 12.9089 7.72431 13.1068L7.70816 13.1273V11.8105C7.70816 11.4417 7.4697 11.1428 7.17554 11.1428H5.67759C4.61301 11.1428 3.75 12.2246 3.75 13.5591C3.75 13.9761 4.01969 14.3142 4.35237 14.3142H6.64292H6.77378L5.84 15.5003C5.83679 15.5051 5.82953 15.5136 5.81896 15.5261C5.70899 15.6552 5.24043 16.2053 5.24043 17.3353V23.2975V23.7758H30.013V23.2975V17.3353C30.013 16.0966 29.5498 15.5926 29.5498 15.5926L28.5433 14.3142H28.607H30.8975C31.2302 14.3142 31.4999 13.9761 31.4999 13.5591C31.4999 12.2246 30.6369 11.1428 29.5723 11.1428H28.0744C27.7802 11.1428 27.5417 11.4417 27.5417 11.8105V12.9628C27.451 12.7118 27.3414 12.4329 27.2145 12.1374L26.4743 8.72081C26.154 7.24241 24.8461 6.1875 23.3334 6.1875H11.9196Z" fill="#0168FE"/>
<path d="M14.1984 22.0286C14.2422 21.8862 14.3737 21.7891 14.5227 21.7891H20.731C20.88 21.7891 21.0115 21.8862 21.0553 22.0286L21.5916 23.7714H13.6621L14.1984 22.0286Z" fill="#A3C6F9"/>
<path d="M7.71484 17.9481C7.71484 17.4746 8.09865 17.0908 8.5721 17.0908H11.8135C12.287 17.0908 12.6708 17.4746 12.6708 17.9481V19.2071C12.6708 19.6806 12.287 20.0644 11.8135 20.0644H8.5721C8.09865 20.0644 7.71484 19.6806 7.71484 19.2071V17.9481Z" fill="white"/>
<path d="M22.582 17.9481C22.582 17.4746 22.9658 17.0908 23.4393 17.0908H26.6807C27.1542 17.0908 27.538 17.4746 27.538 17.9481V19.2071C27.538 19.6806 27.1542 20.0644 26.6807 20.0644H23.4393C22.9658 20.0644 22.582 19.6806 22.582 19.2071V17.9481Z" fill="white"/>
<path d="M10.2512 9.05872C10.4321 7.97384 11.3708 7.17871 12.4706 7.17871H22.7829C23.8828 7.17871 24.8214 7.97384 25.0023 9.05872L25.5562 12.3818H9.69727L10.2512 9.05872Z" fill="#004DBE"/>
<rect x="22.1113" y="19.6875" width="9.5625" height="7.3125" rx="2" fill="#E0E0E0"/>
<path d="M22.1113 21.375C22.1113 20.443 22.8668 19.6875 23.7988 19.6875H29.9863C30.9183 19.6875 31.6738 20.443 31.6738 21.375H22.1113Z" fill="#06316E"/>
<path d="M23.2363 18.8438C23.2363 18.3778 23.6141 18 24.0801 18C24.5461 18 24.9238 18.3778 24.9238 18.8438V20.25H23.2363V18.8438Z" fill="#06316E"/>
<path d="M28.8613 18.8438C28.8613 18.3778 29.2391 18 29.7051 18C30.1711 18 30.5488 18.3778 30.5488 18.8438V20.25H28.8613V18.8438Z" fill="#06316E"/>
<rect x="23.2363" y="23.0625" width="2.0075" height="2.0075" rx="0.5" fill="#8F8F8F"/>
<rect x="25.9121" y="23.0625" width="2.0075" height="2.0075" rx="0.5" fill="#8F8F8F"/>
<rect x="28.5879" y="23.0625" width="2.0075" height="2.0075" rx="0.5" fill="#8F8F8F"/>
</svg>
