<svg width="36" height="36" viewBox="0 0 36 36" fill="none" xmlns="http://www.w3.org/2000/svg">
<path d="M3.7168 24.2871H9.43018V28.5721C9.43018 29.361 8.79069 30.0005 8.00184 30.0005H5.14514C4.35629 30.0005 3.7168 29.361 3.7168 28.5721V24.2871Z" fill="#003582"/>
<path d="M26.5703 24.2871H32.2837V28.5721C32.2837 29.361 31.6442 30.0005 30.8554 30.0005H27.9987C27.2098 30.0005 26.5703 29.361 26.5703 28.5721V24.2871Z" fill="#003582"/>
<path fill-rule="evenodd" clip-rule="evenodd" d="M4.4082 16.7386L6.58113 13.9784C7.34005 11.7949 9.48952 7.42773 12.016 7.42773H12.0895H15.2476H20.8264H24.058H24.3517C25.0861 7.42773 25.7306 7.78918 26.0944 8.33293C27.6923 9.73028 28.9493 12.4145 29.4928 13.9784L31.7495 16.8449C31.7495 16.8449 32.2837 17.4262 32.2837 18.8545V25.7299C32.2837 26.0346 32.2837 26.2816 32.2837 26.2816H3.7168C3.7168 26.2816 3.7168 26.0346 3.7168 25.7299V18.8545C3.7168 17.4262 4.36605 16.8013 4.4082 16.7386Z" fill="#0168FE"/>
<path d="M14.0329 24.3096C14.0913 24.1198 14.2666 23.9902 14.4652 23.9902H21.5342C21.7328 23.9902 21.9082 24.1198 21.9666 24.3096L22.5718 26.2762H13.4277L14.0329 24.3096Z" fill="#A3C6F9"/>
<path d="M6.57031 19.7153C6.57031 19.084 7.08205 18.5723 7.71331 18.5723H11.1423C11.7736 18.5723 12.2853 19.084 12.2853 19.7153V20.8583C12.2853 21.4895 11.7736 22.0013 11.1423 22.0013H7.71332C7.08205 22.0013 6.57031 21.4895 6.57031 20.8583V19.7153Z" fill="white"/>
<path d="M23.7148 19.7153C23.7148 19.084 24.2266 18.5723 24.8578 18.5723H28.2869C28.9181 18.5723 29.4299 19.084 29.4299 19.7153V20.8583C29.4299 21.4895 28.9181 22.0013 28.2869 22.0013H24.8578C24.2266 22.0013 23.7148 21.4895 23.7148 20.8583V19.7153Z" fill="white"/>
<path d="M7.69815 9.37677C8.12521 7.40557 9.86911 5.99902 11.886 5.99902H24.114C26.1309 5.99902 27.8748 7.40556 28.3019 9.37676L29.4268 14.5691H6.57324L7.69815 9.37677Z" fill="#0168FE"/>
<path d="M9.43881 9.64828C9.67996 8.20177 10.9315 7.1416 12.398 7.1416H23.603C25.0694 7.1416 26.321 8.20178 26.5621 9.64828L27.1445 13.1416H8.85645L9.43881 9.64828Z" fill="#004DBE"/>
<path fill-rule="evenodd" clip-rule="evenodd" d="M4.43066 11.7129C3.08717 11.7129 1.99805 13.1746 1.99805 14.9777C1.99805 15.5411 2.3384 15.9979 2.75824 15.9979H5.64891H6.99325H8.0015V14.4192H6.99325V12.615C6.99325 12.1168 6.69231 11.7129 6.32108 11.7129H4.43066Z" fill="#0168FE"/>
<path fill-rule="evenodd" clip-rule="evenodd" d="M31.5693 11.7129C32.9128 11.7129 34.002 13.1746 34.002 14.9777C34.002 15.5412 33.6616 15.998 33.2418 15.998H30.3512H29.0068H27.9986V14.4193H29.0068V12.615C29.0068 12.1168 29.3078 11.7129 29.679 11.7129H31.5693Z" fill="#0168FE"/>
</svg>
