<svg width="16" height="16" viewBox="0 0 16 16" fill="none" xmlns="http://www.w3.org/2000/svg">
<path fill-rule="evenodd" clip-rule="evenodd" d="M4.90457 3C4.20209 3 3.62011 3.54504 3.5741 4.24601L3.09277 11.5793C3.04228 12.3484 3.65249 13 4.42324 13H11.2423C12.013 13 12.6233 12.3484 12.5728 11.5793L12.0914 4.24601C12.0454 3.54504 11.4634 3 10.761 3H4.90457ZM6.76905 4.76465C6.76905 4.48851 6.54519 4.26465 6.26905 4.26465C5.99291 4.26465 5.76905 4.48851 5.76905 4.76465C5.76905 5.95686 6.63788 7.02935 7.83275 7.02935C9.02762 7.02935 9.89645 5.95686 9.89645 4.76465C9.89645 4.48851 9.67259 4.26465 9.39645 4.26465C9.12031 4.26465 8.89645 4.48851 8.89645 4.76465C8.89645 5.52167 8.36509 6.02935 7.83275 6.02935C7.3004 6.02935 6.76905 5.52167 6.76905 4.76465Z" fill="#143B75"/>
</svg>
