<svg width="48" height="48" viewBox="0 0 48 48" fill="none" xmlns="http://www.w3.org/2000/svg">
<path d="M31 15C31 18.866 27.866 22 24 22C20.134 22 17 18.866 17 15C17 11.134 20.134 8 24 8C27.866 8 31 11.134 31 15Z" fill="#2AD6CE"/>
<path d="M9 36.5777C9 30.1835 14.6547 25 21.6302 25H26.3698C33.3453 25 39 30.1835 39 36.5777C39 37.1586 38.6982 37.6993 38.1262 37.9492C36.4797 38.6689 32.3107 40 24 40C15.6893 40 11.5203 38.6689 9.87377 37.9492C9.30179 37.6993 9 37.1586 9 36.5777Z" fill="#05B0A8"/>
<path d="M29.0198 29.1574C29.0488 28.3819 29.5695 27.73 30.3034 27.4774L36.5253 25.336C37.158 25.1183 37.8453 25.1183 38.4779 25.336L44.6967 27.4763C45.4322 27.7294 45.9534 28.3835 45.9814 29.1608C46.061 31.3681 45.9637 35.9493 44.0647 38.7957C42.2858 41.4619 38.5516 44 37.5016 44C36.4516 44 32.6334 41.3467 30.9387 38.7957C29.0309 35.9237 28.9374 31.3571 29.0198 29.1574Z" fill="#074093"/>
<path d="M34 34L36.5 36.5L41 32" stroke="white" stroke-width="2" stroke-linecap="round" stroke-linejoin="round"/>
</svg>
