<svg width="48" height="48" viewBox="0 0 48 48" fill="none" xmlns="http://www.w3.org/2000/svg">
<path d="M30.5 14C30.5 17.5899 27.5899 20.5 24 20.5C20.4101 20.5 17.5 17.5899 17.5 14C17.5 10.4101 20.4101 7.5 24 7.5C27.5899 7.5 30.5 10.4101 30.5 14Z" fill="#2AD6CE"/>
<path d="M9 34.5777C9 28.1835 14.6547 23 21.6302 23H26.3698C33.3453 23 39 28.1835 39 34.5777C39 35.1586 38.6982 35.6993 38.1262 35.9492C36.4797 36.6689 32.3107 38 24 38C15.6893 38 11.5203 36.6689 9.87377 35.9492C9.30179 35.6993 9 35.1586 9 34.5777Z" fill="#05B0A8"/>
<path d="M29.0198 29.1573C29.0488 28.3818 29.5695 27.7299 30.3034 27.4773L36.5253 25.3359C37.158 25.1182 37.8453 25.1182 38.4779 25.3359L44.6967 27.4762C45.4322 27.7293 45.9534 28.3834 45.9814 29.1607C46.061 31.368 45.9637 35.9492 44.0647 38.7956C42.2858 41.4618 38.5516 43.9999 37.5016 43.9999C36.4516 43.9999 32.6334 41.3466 30.9387 38.7956C29.0309 35.9236 28.9374 31.357 29.0198 29.1573Z" fill="#074093"/>
<path fill-rule="evenodd" clip-rule="evenodd" d="M41.7071 31.2929C42.0976 31.6834 42.0976 32.3166 41.7071 32.7071L37.2071 37.2071C36.8166 37.5976 36.1834 37.5976 35.7929 37.2071L33.2929 34.7071C32.9024 34.3166 32.9024 33.6834 33.2929 33.2929C33.6834 32.9024 34.3166 32.9024 34.7071 33.2929L36.5 35.0858L40.2929 31.2929C40.6834 30.9024 41.3166 30.9024 41.7071 31.2929Z" fill="white"/>
</svg>
