<svg width="36" height="36" viewBox="0 0 36 36" fill="none" xmlns="http://www.w3.org/2000/svg">
<path fill-rule="evenodd" clip-rule="evenodd" d="M9.99927 4C8.34241 4 6.99927 5.34315 6.99927 7V29C6.99927 30.6569 8.34241 32 9.99927 32H25.9993C27.6561 32 28.9993 30.6569 28.9993 29V12L20.9993 4H9.99927Z" fill="#DCEAFC"/>
<path fill-rule="evenodd" clip-rule="evenodd" d="M22.9993 12H28.9993L20.9993 4V10C20.9993 11.1046 21.8947 12 22.9993 12Z" fill="#B8CAE1"/>
<path d="M10.9993 18C10.9993 17.4477 11.447 17 11.9993 17H19.4993C20.0516 17 20.4993 17.4477 20.4993 18C20.4993 18.5523 20.0516 19 19.4993 19H11.9993C11.447 19 10.9993 18.5523 10.9993 18Z" fill="#A1B3C9"/>
<path d="M10.9993 13C10.9993 12.4477 11.447 12 11.9993 12H17.9993C18.5516 12 18.9993 12.4477 18.9993 13C18.9993 13.5523 18.5516 14 17.9993 14H11.9993C11.447 14 10.9993 13.5523 10.9993 13Z" fill="#A1B3C9"/>
<path d="M23.2493 25.2C23.2493 25.0895 23.3388 25 23.4493 25H30.5493C30.6597 25 30.7493 25.0895 30.7493 25.2V35.5839C30.7493 35.7516 30.5553 35.8448 30.4243 35.74L27.1242 33.1C27.0512 33.0415 26.9474 33.0415 26.8743 33.1L23.5742 35.74C23.4433 35.8448 23.2493 35.7516 23.2493 35.5839V25.2Z" fill="#F64A4A"/>
<path d="M20.9993 23.5C20.9993 20.1863 23.6856 17.5 26.9993 17.5C30.313 17.5 32.9993 20.1863 32.9993 23.5C32.9993 26.8137 30.313 29.5 26.9993 29.5C23.6856 29.5 20.9993 26.8137 20.9993 23.5Z" fill="#FED84A"/>
</svg>
