<svg width="40" height="41" viewBox="0 0 40 41" fill="none" xmlns="http://www.w3.org/2000/svg">
<path d="M25.5564 12.7235C25.5564 15.7918 23.0691 18.2791 20.0009 18.2791C16.9326 18.2791 14.4453 15.7918 14.4453 12.7235C14.4453 9.65528 16.9326 7.16797 20.0009 7.16797C23.0691 7.16797 25.5564 9.65528 25.5564 12.7235Z" fill="#5A92F4"/>
<path d="M7.77734 29.9337C7.77734 24.7236 12.3849 20.5 18.0686 20.5H21.9305C27.6142 20.5 32.2218 24.7236 32.2218 29.9337C32.2218 30.407 31.9759 30.8475 31.5098 31.0512C30.1682 31.6376 26.7712 32.7222 19.9996 32.7222C13.2279 32.7222 9.83095 31.6376 8.4893 31.0512C8.02325 30.8475 7.77734 30.407 7.77734 29.9337Z" fill="#0168FE"/>
<path d="M23.332 26.6892C23.332 25.5888 24.1249 24.6485 25.2094 24.4626L28.6705 23.8692C28.8142 23.8446 28.961 23.8446 29.1047 23.8692L32.5658 24.4626C33.6503 24.6485 34.4431 25.5888 34.4431 26.6892V30.6219C34.4431 33.8518 32.1159 36.6119 28.9324 37.1577C28.9027 37.1628 28.8724 37.1628 28.8428 37.1577C25.6592 36.6119 23.332 33.8518 23.332 30.6219V26.6892Z" fill="#00CBC1"/>
<path fill-rule="evenodd" clip-rule="evenodd" d="M32.0327 28.4697C32.2893 28.7211 32.2834 29.1231 32.0194 29.3675L28.5908 32.5421C28.3321 32.7817 27.9201 32.7817 27.6614 32.5421L25.7566 30.7784C25.4926 30.534 25.4867 30.132 25.7434 29.8806C26 29.6292 26.4221 29.6235 26.6861 29.868L28.1261 31.2013L31.09 28.457C31.354 28.2126 31.776 28.2183 32.0327 28.4697Z" fill="white"/>
</svg>
