<svg width="36" height="36" viewBox="0 0 36 36" fill="none" xmlns="http://www.w3.org/2000/svg">
<path d="M6.5 7C6.5 5.34315 7.84315 4 9.5 4H26.5C28.1569 4 29.5 5.34315 29.5 7V29C29.5 30.6569 28.1569 32 26.5 32H9.5C7.84315 32 6.5 30.6569 6.5 29V7Z" fill="#DCEAFC"/>
<path d="M11 11C11 10.4477 11.4477 10 12 10H21C21.5523 10 22 10.4477 22 11C22 11.5523 21.5523 12 21 12H12C11.4477 12 11 11.5523 11 11Z" fill="#AFC3DC"/>
<path d="M11 16C11 15.4477 11.4477 15 12 15H17C17.5523 15 18 15.4477 18 16C18 16.5523 17.5523 17 17 17H12C11.4477 17 11 16.5523 11 16Z" fill="#AFC3DC"/>
<path d="M22 24.2C22 24.0895 22.0895 24 22.2 24H29.8C29.9105 24 30 24.0895 30 24.2V34.6C30 34.7648 29.8118 34.8589 29.68 34.76L26.12 32.09C26.0489 32.0367 25.9511 32.0367 25.88 32.09L22.32 34.76C22.1882 34.8589 22 34.7648 22 34.6V24.2Z" fill="#F64A4A"/>
<path d="M19 21C19 17.134 22.134 14 26 14C29.866 14 33 17.134 33 21C33 24.866 29.866 28 26 28C22.134 28 19 24.866 19 21Z" fill="#FED84A"/>
</svg>
