<svg width="37" height="36" viewBox="0 0 37 36" fill="none" xmlns="http://www.w3.org/2000/svg">
<path d="M6.16406 6C6.16406 4.34315 7.50721 3 9.16406 3H27.1641C28.8209 3 30.1641 4.34315 30.1641 6V30C30.1641 31.6569 28.8209 33 27.1641 33H9.16406C7.50721 33 6.16406 31.6569 6.16406 30V6Z" fill="white"/>
<rect x="10.1641" y="24" width="16" height="2.5" rx="1.25" fill="#8DADFF"/>
<path d="M14.1641 15.2222L17.0212 18L22.1641 13" stroke="#0168FE" stroke-width="2" stroke-linecap="round" stroke-linejoin="round"/>
<path fill-rule="evenodd" clip-rule="evenodd" d="M32.0391 19.375C32.0391 21.8603 30.0243 23.875 27.5391 23.875C25.0538 23.875 23.0391 21.8603 23.0391 19.375C23.0391 16.8897 25.0538 14.875 27.5391 14.875C30.0243 14.875 32.0391 16.8897 32.0391 19.375ZM31.4108 24.44C30.3374 25.2618 28.9953 25.75 27.5391 25.75C24.0182 25.75 21.1641 22.8958 21.1641 19.375C21.1641 15.8542 24.0182 13 27.5391 13C31.0599 13 33.9141 15.8542 33.9141 19.375C33.9141 20.7632 33.4704 22.0478 32.717 23.0946L35.3509 25.7285C35.717 26.0946 35.717 26.6882 35.3509 27.0543C34.9847 27.4204 34.3912 27.4204 34.025 27.0543L31.4108 24.44Z" fill="#4E627D"/>
</svg>
