<svg width="24" height="24" viewBox="0 0 24 24" fill="none" xmlns="http://www.w3.org/2000/svg">
<path fill-rule="evenodd" clip-rule="evenodd" d="M8.41399 1.46472C8.85209 1.14409 9.35531 1 9.8783 1C11.0864 1 11.7922 1.81708 12.1421 2.5813C12.4841 3.32812 12.5886 4.19787 12.5886 4.85049L12.8182 9.19203C13.3239 9.25838 13.725 9.26202 14.4758 9.25144C14.5479 9.25043 14.6212 9.24927 14.6957 9.24809C15.6608 9.23286 16.8076 9.21476 17.7381 9.46525C20.1353 10.1105 20.9999 12.4046 20.9999 13.8272V19.388C20.9999 20.5917 20.4453 21.4712 19.6291 22.006C18.8672 22.5052 17.9406 22.6684 17.1494 22.6684H11.5886C10.3081 22.6684 9.27042 21.9046 8.88614 21.5203C8.87672 21.5109 8.86749 21.5013 8.85846 21.4915C7.71632 20.2542 5.10702 17.4563 3.75513 16.1044C2.83088 15.1802 2.24949 14.269 2.06379 13.3802C1.86606 12.4338 2.13774 11.5906 2.74362 10.9846C3.55316 10.1749 4.58959 10.2571 5.29904 10.4936C5.93253 10.7047 6.5022 11.0887 6.88284 11.4351V6.56078C6.88284 4.95618 7.04742 3.64363 7.46719 2.69862C7.68321 2.21229 7.98688 1.77731 8.41399 1.46472ZM9.29498 3.51051C9.05001 4.06201 8.88284 5.02984 8.88284 6.56078V13.687C8.88284 14.082 8.6503 14.44 8.2894 14.6006C7.9285 14.7612 7.50688 14.6943 7.21342 14.4299L5.63177 13.0046C5.6189 12.993 5.60634 12.9811 5.59409 12.9689C5.39786 12.7726 5.02803 12.5114 4.66659 12.3909C4.30711 12.2711 4.20339 12.3533 4.15797 12.3987C4.03719 12.5195 3.95943 12.674 4.02152 12.9712C4.09564 13.3259 4.3833 13.9042 5.16934 14.6902C6.54723 16.0681 9.16417 18.8744 10.3114 20.1169C10.386 20.1882 10.5652 20.3319 10.8102 20.4569C11.0662 20.5875 11.3364 20.6684 11.5886 20.6684H17.1494C17.7087 20.6684 18.2074 20.5465 18.533 20.3331C18.8045 20.1552 18.9999 19.8945 18.9999 19.388V13.8272C18.9999 12.9694 18.4527 11.7288 17.2183 11.3965C16.5694 11.2218 15.6872 11.2344 14.5988 11.2499C14.5674 11.2503 14.5358 11.2508 14.504 11.2512C13.4856 11.2656 12.4585 11.2815 11.4738 10.9202C11.08 10.7757 10.8182 10.4008 10.8182 9.98137L10.6946 4.85049C10.6946 4.36292 10.6099 3.80742 10.4297 3.41404C10.2575 3.03807 10.0022 3 9.8783 3C9.73531 3 9.65611 3.03407 9.59518 3.07865C9.52327 3.13128 9.41132 3.24859 9.29498 3.51051Z" fill="#15181F"/>
</svg>
