<svg width="24" height="24" viewBox="0 0 24 24" fill="none" xmlns="http://www.w3.org/2000/svg">
<path d="M16.4655 6.49751C16.7407 6.22274 17.187 6.22274 17.4622 6.49751C17.7375 6.77227 17.7375 7.21776 17.4622 7.49252L7.49491 17.4427C7.21967 17.7174 6.77342 17.7174 6.49818 17.4427C6.22294 17.1679 6.22294 16.7224 6.49818 16.4477L16.4655 6.49751Z" fill="#15181F"/>
<path d="M6.53743 7.55232C6.26219 7.27755 6.26219 6.83207 6.53743 6.5573C6.81267 6.28254 7.25892 6.28254 7.53416 6.5573L17.5015 16.5075C17.7767 16.7822 17.7767 17.2277 17.5015 17.5025C17.2262 17.7772 16.78 17.7772 16.5048 17.5025L6.53743 7.55232Z" fill="#15181F"/>
</svg>
