<svg width="36" height="36" viewBox="0 0 36 36" fill="none" xmlns="http://www.w3.org/2000/svg">
<path fill-rule="evenodd" clip-rule="evenodd" d="M17.9628 18.2696C18.5129 18.3187 18.919 18.8045 18.8699 19.3546C18.8026 20.1084 18.6971 20.8861 18.5965 21.6285C18.5547 21.9364 18.5138 22.2383 18.4768 22.5298C18.3466 23.5545 18.2592 24.484 18.2968 25.3117C18.3342 26.1367 18.4937 26.7895 18.8013 27.2973C19.0968 27.7851 19.5769 28.219 20.4131 28.5326C20.9302 28.7265 21.1922 29.3029 20.9983 29.8201C20.8044 30.3372 20.228 30.5992 19.7109 30.4053C18.5065 29.9536 17.6462 29.2507 17.0906 28.3334C16.5471 27.4362 16.3448 26.4156 16.2988 25.4023C16.253 24.3918 16.3606 23.318 16.4927 22.2778C16.5344 21.9497 16.5781 21.6272 16.6214 21.3082C16.7193 20.5864 16.8147 19.883 16.8778 19.1767C16.9269 18.6266 17.4127 18.2205 17.9628 18.2696Z" fill="#0EA7A0"/>
<path d="M7.62417 20.9275C7.62417 20.9275 7.62417 20.9275 7.62351 20.9277C7.62368 20.9284 7.62385 20.929 7.62468 20.9295L7.62399 20.9269L7.62417 20.9275Z" fill="#FF6767"/>
<path d="M17.8739 7.85697C17.7991 7.75666 17.7224 7.64576 17.6386 7.54243C16.5375 6.18594 15.1524 5.70202 13.5461 6.17888C11.9969 6.64012 11.0638 7.80153 10.7528 9.49071C10.5125 10.7938 10.954 11.931 11.6172 12.989C12.5327 14.3788 13.681 15.5982 15.0114 16.5937C15.8733 17.2738 16.7893 17.8771 17.6913 18.4992C17.7545 18.538 17.8257 18.5577 17.898 18.5587V7.84891C17.8909 7.85093 17.8824 7.85345 17.8739 7.85697Z" fill="#20C7BF"/>
<path d="M17.8682 7.85615C17.8682 7.85615 17.8682 7.85615 17.8682 7.85547C17.8676 7.85547 17.8669 7.85547 17.8662 7.85615H17.8689H17.8682Z" fill="#FF6767"/>
<path d="M21.9997 6.10045C20.4822 5.73902 18.9015 6.37265 18.0482 7.68428C18.0136 7.73166 17.9799 7.78056 17.9428 7.82542C17.9343 7.8355 17.9182 7.83852 17.8896 7.8476V18.5574C17.9468 18.5584 18.005 18.5478 18.0592 18.5246C20.0418 17.3289 21.8282 15.8323 23.3557 14.0881C24.1428 13.2302 24.7077 12.1913 25.0012 11.0621C25.4983 8.8477 24.0977 6.51883 22.0003 6.09994L21.9997 6.10045Z" fill="#11A69F"/>
<path d="M28.2921 21.4045C28.4097 21.3582 28.5383 21.3128 28.6612 21.2586C30.276 20.5458 31.112 19.3329 31.0668 17.6577C31.0218 16.0417 30.1308 14.8397 28.5609 14.1021C27.35 13.5328 26.1225 13.665 24.9143 14.0319C23.3157 14.5567 21.8226 15.3506 20.5007 16.3782C19.6101 17.0349 18.7801 17.7637 17.9356 18.4741C17.8811 18.5251 17.8432 18.5889 17.8233 18.6584L28.2937 21.4298C28.2935 21.4225 28.2933 21.4136 28.2921 21.4045Z" fill="#20C7BF"/>
<path d="M28.9173 25.851C29.6683 24.4784 29.4631 22.7873 28.4044 21.6235C28.3671 21.5778 28.3281 21.5327 28.294 21.4852C28.2864 21.4744 28.2876 21.4581 28.2862 21.4281L17.8159 18.6567C17.7999 18.7117 17.795 18.7707 17.8035 18.829C18.4529 21.0537 19.448 23.1669 20.7528 25.0939C21.3853 26.0764 22.253 26.8909 23.28 27.4666C25.3147 28.52 27.9585 27.7695 28.9177 25.8516L28.9173 25.851Z" fill="#11A69F"/>
<path d="M7.62779 21.4509C7.55095 21.549 7.46448 21.6519 7.38705 21.7595C6.37104 23.1744 6.26319 24.6377 7.13185 26.0661C7.97088 27.4434 9.3221 28.0443 11.0189 27.9076C12.328 27.8026 13.3034 27.0818 14.1461 26.1673C15.2416 24.9232 16.1142 23.4983 16.7259 21.9554C17.1557 20.9468 17.4983 19.9057 17.8623 18.8733C17.8832 18.8022 17.8838 18.7283 17.8662 18.6582L7.6139 21.4297C7.61763 21.4359 7.62223 21.4435 7.62779 21.4509Z" fill="#20C7BF"/>
<path d="M4.89213 17.9095C4.93552 19.4691 5.94769 20.8323 7.42225 21.3173C7.47649 21.3384 7.53192 21.3582 7.58439 21.3825C7.59623 21.3881 7.60325 21.4029 7.61927 21.4281L17.8716 18.6567C17.8579 18.6012 17.8328 18.5477 17.7967 18.5014C16.1434 16.8955 14.2523 15.5569 12.1907 14.5325C11.1675 13.9941 10.028 13.7173 8.87177 13.7259C6.62435 13.8187 4.75434 15.7745 4.89152 17.9092L4.89213 17.9095Z" fill="#11A69F"/>
</svg>
