<svg width="36" height="36" viewBox="0 0 36 36" fill="none" xmlns="http://www.w3.org/2000/svg">
<path fill-rule="evenodd" clip-rule="evenodd" d="M17.5483 18.5416C18.2002 18.5999 18.6816 19.1756 18.6233 19.8275C18.5436 20.7209 18.4186 21.6426 18.2993 22.5225C18.2498 22.8875 18.2013 23.2452 18.1574 23.5907C18.0031 24.8051 17.8996 25.9067 17.9441 26.8877C17.9885 27.8654 18.1775 28.6391 18.542 29.2409C18.8922 29.8191 19.4612 30.3333 20.4523 30.705C21.0652 30.9348 21.3757 31.618 21.1459 32.2308C20.916 32.8437 20.2329 33.1542 19.62 32.9244C18.1926 32.3891 17.173 31.556 16.5146 30.4689C15.8705 29.4056 15.6307 28.196 15.5762 26.9951C15.5219 25.7974 15.6494 24.5248 15.806 23.292C15.8554 22.9032 15.9072 22.5209 15.9585 22.1429C16.0746 21.2874 16.1877 20.4538 16.2624 19.6167C16.3206 18.9647 16.8963 18.4834 17.5483 18.5416Z" fill="#05B0A8"/>
<path d="M5.29531 21.692C5.29531 21.692 5.29531 21.692 5.29465 21.6921C5.29482 21.6928 5.29499 21.6934 5.29582 21.6939L5.29514 21.6913L5.29531 21.692Z" fill="#FF6767"/>
<path d="M17.4428 6.20082C17.3542 6.08193 17.2632 5.9505 17.1639 5.82803C15.8589 4.22037 14.2173 3.64684 12.3136 4.212C10.4776 4.75864 9.37175 6.1351 9.00313 8.13706C8.71834 9.68139 9.24155 11.0292 10.0275 12.2832C11.1126 13.9302 12.4735 15.3754 14.0503 16.5553C15.0717 17.3612 16.1573 18.0763 17.2263 18.8136C17.3013 18.8596 17.3857 18.8829 17.4713 18.8841V6.19126C17.463 6.19365 17.4529 6.19664 17.4428 6.20082Z" fill="#2AD6CE"/>
<path d="M17.4359 6.19965C17.4359 6.19965 17.4359 6.19965 17.4359 6.19897C17.4352 6.19897 17.4345 6.19897 17.4338 6.19965H17.4366H17.4359Z" fill="#FF6767"/>
<path d="M22.3326 4.11904C20.5341 3.69069 18.6606 4.44165 17.6493 5.99614C17.6083 6.0523 17.5684 6.11025 17.5244 6.16342C17.5143 6.17537 17.4953 6.17895 17.4614 6.18971V18.8825C17.5292 18.8837 17.5982 18.8712 17.6624 18.8437C20.012 17.4266 22.1292 15.6529 23.9396 13.5858C24.8725 12.569 25.5419 11.3377 25.8898 9.99946C26.479 7.37499 24.819 4.6149 22.3332 4.11845L22.3326 4.11904Z" fill="#05B0A8"/>
<path d="M29.79 22.2567C29.9295 22.2019 30.0818 22.148 30.2276 22.0838C32.1413 21.239 33.1321 19.8016 33.0785 17.8161C33.0252 15.901 31.9693 14.4764 30.1087 13.6023C28.6735 12.9275 27.2187 13.0842 25.7868 13.519C23.8922 14.141 22.1227 15.0818 20.556 16.2998C19.5004 17.078 18.5168 17.9418 17.5159 18.7838C17.4513 18.8442 17.4064 18.9198 17.3828 19.0022L29.7919 22.2868C29.7918 22.2781 29.7915 22.2676 29.79 22.2567Z" fill="#2AD6CE"/>
<path d="M30.531 27.5265C31.421 25.8998 31.1778 23.8956 29.9231 22.5163C29.8789 22.4621 29.8327 22.4086 29.7923 22.3524C29.7832 22.3395 29.7847 22.3202 29.7831 22.2847L17.374 19.0001C17.3551 19.0652 17.3492 19.1351 17.3593 19.2043C18.129 21.8409 19.3083 24.3453 20.8547 26.6293C21.6044 27.7936 22.6327 28.759 23.8499 29.4413C26.2613 30.6897 29.3946 29.8002 30.5314 27.5272L30.531 27.5265Z" fill="#05B0A8"/>
<path d="M5.29956 22.3118C5.20848 22.4281 5.106 22.55 5.01424 22.6776C3.8101 24.3544 3.68228 26.0887 4.71178 27.7816C5.70616 29.4139 7.30758 30.1261 9.31862 29.9641C10.8701 29.8396 12.026 28.9854 13.0248 27.9015C14.3231 26.4271 15.3573 24.7383 16.0823 22.9097C16.5917 21.7144 16.9977 20.4805 17.4291 19.257C17.4539 19.1727 17.4546 19.0851 17.4338 19.0021L5.28308 22.2867C5.28751 22.2941 5.29296 22.3031 5.29956 22.3118Z" fill="#2AD6CE"/>
<path d="M2.05744 18.1148C2.10886 19.9632 3.30844 21.5787 5.05604 22.1535C5.12032 22.1786 5.18602 22.2021 5.2482 22.2308C5.26224 22.2375 5.27055 22.255 5.28954 22.2849L17.4402 19.0003C17.424 18.9345 17.3943 18.8712 17.3515 18.8162C15.392 16.913 13.1508 15.3266 10.7075 14.1125C9.49473 13.4744 8.14426 13.1463 6.77395 13.1566C4.11039 13.2665 1.89413 15.5844 2.05671 18.1144L2.05744 18.1148Z" fill="#05B0A8"/>
</svg>
