<svg width="37" height="36" viewBox="0 0 37 36" fill="none" xmlns="http://www.w3.org/2000/svg">
<path d="M8.33203 9.25C8.33203 8.00736 9.40655 7 10.732 7H29.932C31.2575 7 32.332 8.00736 32.332 9.25V22.75C32.332 23.9926 31.2575 25 29.932 25H10.732C9.40655 25 8.33203 23.9926 8.33203 22.75V9.25Z" fill="#11A69F"/>
<path d="M4.33203 13.25C4.33203 12.0074 5.40655 11 6.73203 11H25.932C27.2575 11 28.332 12.0074 28.332 13.25V26.75C28.332 27.9926 27.2575 29 25.932 29H6.73203C5.40655 29 4.33203 27.9926 4.33203 26.75V13.25Z" fill="#20C7BF"/>
<path fill-rule="evenodd" clip-rule="evenodd" d="M11.3432 15.4598C11.8004 15.2979 12.3024 15.5373 12.4644 15.9945L14.1251 20.6836L15.7858 15.9945C15.91 15.6438 16.2417 15.4094 16.6138 15.4094C16.9858 15.4094 17.3175 15.6438 17.4417 15.9945L19.1025 20.6836L20.7632 15.9945C20.9251 15.5373 21.4271 15.2979 21.8844 15.4598C22.3417 15.6218 22.5811 16.1237 22.4191 16.581L19.9304 23.6079C19.8062 23.9586 19.4745 24.193 19.1025 24.193C18.7304 24.193 18.3987 23.9586 18.2745 23.6079L16.6138 18.9188L14.9531 23.6079C14.8289 23.9586 14.4972 24.193 14.1251 24.193C13.753 24.193 13.4213 23.9586 13.2971 23.6079L10.8084 16.581C10.6465 16.1237 10.8859 15.6218 11.3432 15.4598Z" fill="white"/>
<path fill-rule="evenodd" clip-rule="evenodd" d="M9.29297 19.5082C9.29297 19.0231 9.68622 18.6299 10.1713 18.6299L11.928 18.6299C12.4132 18.6299 12.8064 19.0231 12.8064 19.5082C12.8064 19.9933 12.4132 20.3866 11.928 20.3866L10.1713 20.3866C9.68622 20.3866 9.29297 19.9933 9.29297 19.5082Z" fill="white"/>
<path fill-rule="evenodd" clip-rule="evenodd" d="M20.4219 19.5082C20.4219 19.0231 20.8151 18.6299 21.3002 18.6299L23.057 18.6299C23.5421 18.6299 23.9353 19.0231 23.9353 19.5082C23.9353 19.9933 23.5421 20.3866 23.057 20.3866L21.3002 20.3866C20.8151 20.3866 20.4219 19.9933 20.4219 19.5082Z" fill="white"/>
<path d="M34.832 25.75C34.832 29.4779 31.81 32.5 28.082 32.5C24.3541 32.5 21.332 29.4779 21.332 25.75C21.332 22.0221 24.3541 19 28.082 19C31.81 19 34.832 22.0221 34.832 25.75Z" fill="#0168FE"/>
<path fill-rule="evenodd" clip-rule="evenodd" d="M31.9843 25.3868C31.9811 25.2143 31.9095 25.0502 31.7852 24.9306L29.0581 22.3045C28.7995 22.0555 28.388 22.0632 28.139 22.3218C27.89 22.5804 27.8978 22.9919 28.1564 23.2409L30.415 25.4158L28.1393 27.7758C27.8902 28.0342 27.8976 28.4457 28.1561 28.6949C28.4145 28.944 28.826 28.9366 29.0751 28.6781L31.8023 25.85C31.922 25.7259 31.9875 25.5592 31.9843 25.3868Z" fill="white"/>
<path fill-rule="evenodd" clip-rule="evenodd" d="M31.4375 25.5004C31.4375 25.1414 31.1465 24.8504 30.7875 24.8504L25.3332 24.8504C24.9742 24.8504 24.6832 25.1414 24.6832 25.5004C24.6832 25.8594 24.9742 26.1504 25.3332 26.1504L30.7875 26.1504C31.1465 26.1504 31.4375 25.8594 31.4375 25.5004Z" fill="white"/>
</svg>
