<svg width="36" height="36" viewBox="0 0 36 36" fill="none" xmlns="http://www.w3.org/2000/svg">
<path d="M6.5 9.5C6.5 7.84315 7.84315 6.5 9.5 6.5H29.5C31.1569 6.5 32.5 7.84315 32.5 9.5V23.5C32.5 25.1569 31.1569 26.5 29.5 26.5H9.5C7.84315 26.5 6.5 25.1569 6.5 23.5V9.5Z" fill="#019992"/>
<path d="M3.5 12.5C3.5 10.8431 4.84315 9.5 6.5 9.5H26.5C28.1569 9.5 29.5 10.8431 29.5 12.5V26.5C29.5 28.1569 28.1569 29.5 26.5 29.5H6.5C4.84315 29.5 3.5 28.1569 3.5 26.5V12.5Z" fill="#00CBC1"/>
<path fill-rule="evenodd" clip-rule="evenodd" d="M9 19.5C9 18.9477 9.44772 18.5 10 18.5L12 18.5C12.5523 18.5 13 18.9477 13 19.5C13 20.0523 12.5523 20.5 12 20.5L10 20.5C9.44772 20.5 9 20.0523 9 19.5Z" fill="white"/>
<path fill-rule="evenodd" clip-rule="evenodd" d="M20 19.5C20 18.9477 20.4477 18.5 21 18.5L23 18.5C23.5523 18.5 24 18.9477 24 19.5C24 20.0523 23.5523 20.5 23 20.5L21 20.5C20.4477 20.5 20 20.0523 20 19.5Z" fill="white"/>
<path fill-rule="evenodd" clip-rule="evenodd" d="M11.2073 15.0438C11.7354 14.8822 12.2946 15.1792 12.4562 15.7073L13.7776 20.0238L15.5742 15.6221C15.7277 15.2459 16.0937 15 16.5 15C16.9064 15 17.2723 15.2459 17.4259 15.6221L19.2225 20.0238L20.5438 15.7073C20.7055 15.1792 21.2646 14.8822 21.7927 15.0438C22.3208 15.2055 22.6179 15.7646 22.4562 16.2927L20.3134 23.2927C20.1896 23.6971 19.8248 23.9799 19.4024 23.999C18.9799 24.0181 18.5911 23.7694 18.4313 23.3779L16.5 18.6462L14.5687 23.3779C14.4089 23.7694 14.0201 24.0181 13.5977 23.999C13.1752 23.9799 12.8105 23.6971 12.6867 23.2927L10.5438 16.2927C10.3822 15.7646 10.6792 15.2055 11.2073 15.0438Z" fill="white"/>
<path d="M35 27.5C35 31.366 31.866 34.5 28 34.5C24.134 34.5 21 31.366 21 27.5C21 23.634 24.134 20.5 28 20.5C31.866 20.5 35 23.634 35 27.5Z" fill="#074093"/>
<path fill-rule="evenodd" clip-rule="evenodd" d="M24.25 27.5C24.25 27.0858 24.5858 26.75 25 26.75H30C30.4142 26.75 30.75 27.0858 30.75 27.5C30.75 27.9142 30.4142 28.25 30 28.25H25C24.5858 28.25 24.25 27.9142 24.25 27.5Z" fill="white"/>
<path fill-rule="evenodd" clip-rule="evenodd" d="M28.2197 24.7197C28.5126 24.4268 28.9874 24.4268 29.2803 24.7197L31.5303 26.9697C31.671 27.1103 31.75 27.3011 31.75 27.5C31.75 27.6989 31.671 27.8897 31.5303 28.0303L29.2803 30.2803C28.9874 30.5732 28.5126 30.5732 28.2197 30.2803C27.9268 29.9874 27.9268 29.5126 28.2197 29.2197L29.9393 27.5L28.2197 25.7803C27.9268 25.4874 27.9268 25.0126 28.2197 24.7197Z" fill="white"/>
</svg>
