<svg width="36" height="36" viewBox="0 0 36 36" fill="none" xmlns="http://www.w3.org/2000/svg">
<path d="M8 9.25C8 8.00736 9.07452 7 10.4 7H29.6C30.9255 7 32 8.00736 32 9.25V22.75C32 23.9926 30.9255 25 29.6 25H10.4C9.07452 25 8 23.9926 8 22.75V9.25Z" fill="#11A69F"/>
<path d="M4 13.25C4 12.0074 5.07452 11 6.4 11H25.6C26.9255 11 28 12.0074 28 13.25V26.75C28 27.9926 26.9255 29 25.6 29H6.4C5.07452 29 4 27.9926 4 26.75V13.25Z" fill="#20C7BF"/>
<path fill-rule="evenodd" clip-rule="evenodd" d="M11.0092 15.4598C11.4665 15.2979 11.9684 15.5373 12.1304 15.9945L13.7911 20.6836L15.4518 15.9945C15.576 15.6438 15.9077 15.4094 16.2798 15.4094C16.6519 15.4094 16.9836 15.6438 17.1078 15.9945L18.7685 20.6836L20.4292 15.9945C20.5912 15.5373 21.0931 15.2979 21.5504 15.4598C22.0077 15.6218 22.2471 16.1237 22.0851 16.581L19.5964 23.6079C19.4722 23.9586 19.1405 24.193 18.7685 24.193C18.3964 24.193 18.0647 23.9586 17.9405 23.6079L16.2798 18.9188L14.6191 23.6079C14.4949 23.9586 14.1632 24.193 13.7911 24.193C13.4191 24.193 13.0874 23.9586 12.9631 23.6079L10.4745 16.581C10.3125 16.1237 10.5519 15.6218 11.0092 15.4598Z" fill="white"/>
<path fill-rule="evenodd" clip-rule="evenodd" d="M8.95996 19.5082C8.95996 19.0231 9.35322 18.6299 9.83832 18.6299L11.595 18.6299C12.0801 18.6299 12.4734 19.0231 12.4734 19.5082C12.4734 19.9933 12.0801 20.3866 11.595 20.3866L9.83832 20.3866C9.35322 20.3866 8.95996 19.9933 8.95996 19.5082Z" fill="white"/>
<path fill-rule="evenodd" clip-rule="evenodd" d="M20.0869 19.5082C20.0869 19.0231 20.4802 18.6299 20.9653 18.6299L22.722 18.6299C23.2071 18.6299 23.6004 19.0231 23.6004 19.5082C23.6004 19.9933 23.2071 20.3866 22.722 20.3866L20.9653 20.3866C20.4802 20.3866 20.0869 19.9933 20.0869 19.5082Z" fill="white"/>
</svg>
