<svg width="24" height="24" viewBox="0 0 24 24" fill="none" xmlns="http://www.w3.org/2000/svg">
<path d="M2 6C2 4.89543 2.89543 4 4 4H20C21.1046 4 22 4.89543 22 6V18C22 19.1046 21.1046 20 20 20H4C2.89543 20 2 19.1046 2 18V6Z" fill="#20C7BF"/>
<path fill-rule="evenodd" clip-rule="evenodd" d="M7.49982 8.54323C7.89027 8.40495 8.31889 8.60937 8.45717 8.99982L9.8752 13.0037L11.2932 8.99982C11.3993 8.70036 11.6825 8.5002 12.0002 8.5002C12.3179 8.5002 12.6011 8.70036 12.7072 8.99982L14.1252 13.0037L15.5432 8.99982C15.6815 8.60937 16.1101 8.40495 16.5006 8.54323C16.891 8.68152 17.0955 9.11014 16.9572 9.50059L14.8322 15.5006C14.7261 15.8001 14.4429 16.0002 14.1252 16.0002C13.8075 16.0002 13.5243 15.8001 13.4182 15.5006L12.0002 11.4967L10.5822 15.5006C10.4761 15.8001 10.1929 16.0002 9.8752 16.0002C9.55752 16.0002 9.27429 15.8001 9.16823 15.5006L7.04323 9.50059C6.90495 9.11014 7.10937 8.68152 7.49982 8.54323Z" fill="white"/>
<path fill-rule="evenodd" clip-rule="evenodd" d="M5.75 12C5.75 11.5858 6.08579 11.25 6.5 11.25L8 11.25C8.41421 11.25 8.75 11.5858 8.75 12C8.75 12.4142 8.41421 12.75 8 12.75L6.5 12.75C6.08579 12.75 5.75 12.4142 5.75 12Z" fill="white"/>
<path fill-rule="evenodd" clip-rule="evenodd" d="M15.25 12C15.25 11.5858 15.5858 11.25 16 11.25L17.5 11.25C17.9142 11.25 18.25 11.5858 18.25 12C18.25 12.4142 17.9142 12.75 17.5 12.75L16 12.75C15.5858 12.75 15.25 12.4142 15.25 12Z" fill="white"/>
</svg>
