<svg width="36" height="36" viewBox="0 0 36 36" fill="none" xmlns="http://www.w3.org/2000/svg">
<path d="M7 9.75C7 8.09315 8.34315 6.75 10 6.75H29C30.6569 6.75 32 8.09315 32 9.75V23.25C32 24.9069 30.6569 26.25 29 26.25H10C8.34315 26.25 7 24.9069 7 23.25V9.75Z" fill="#019992"/>
<path d="M4 12.75C4 11.0931 5.34315 9.75 7 9.75H26C27.6569 9.75 29 11.0931 29 12.75V26.25C29 27.9069 27.6569 29.25 26 29.25H7C5.34315 29.25 4 27.9069 4 26.25V12.75Z" fill="#00CBC1"/>
<path fill-rule="evenodd" clip-rule="evenodd" d="M9.5 19.75C9.5 19.1977 9.94772 18.75 10.5 18.75L12.5 18.75C13.0523 18.75 13.5 19.1977 13.5 19.75C13.5 20.3023 13.0523 20.75 12.5 20.75L10.5 20.75C9.94772 20.75 9.5 20.3023 9.5 19.75Z" fill="white"/>
<path fill-rule="evenodd" clip-rule="evenodd" d="M20.5 19.75C20.5 19.1977 20.9477 18.75 21.5 18.75L23.5 18.75C24.0523 18.75 24.5 19.1977 24.5 19.75C24.5 20.3023 24.0523 20.75 23.5 20.75L21.5 20.75C20.9477 20.75 20.5 20.3023 20.5 19.75Z" fill="white"/>
<path fill-rule="evenodd" clip-rule="evenodd" d="M11.7073 15.2938C12.2354 15.1322 12.7946 15.4292 12.9562 15.9573L14.2776 20.2738L16.0742 15.8721C16.2277 15.4959 16.5937 15.25 17 15.25C17.4064 15.25 17.7723 15.4959 17.9259 15.8721L19.7225 20.2738L21.0438 15.9573C21.2055 15.4292 21.7646 15.1322 22.2927 15.2938C22.8208 15.4555 23.1179 16.0146 22.9562 16.5427L20.8134 23.5427C20.6896 23.9471 20.3248 24.2299 19.9024 24.249C19.4799 24.2681 19.0911 24.0194 18.9313 23.6279L17 18.8962L15.0687 23.6279C14.9089 24.0194 14.5201 24.2681 14.0977 24.249C13.6752 24.2299 13.3105 23.9471 13.1867 23.5427L11.0438 16.5427C10.8822 16.0146 11.1792 15.4555 11.7073 15.2938Z" fill="white"/>
</svg>
