<svg width="36" height="36" viewBox="0 0 36 36" fill="none" xmlns="http://www.w3.org/2000/svg">
<path d="M8 9.25C8 8.00736 9.07452 7 10.4 7H29.6C30.9255 7 32 8.00736 32 9.25V22.75C32 23.9926 30.9255 25 29.6 25H10.4C9.07452 25 8 23.9926 8 22.75V9.25Z" fill="#11A69F"/>
<path d="M4 13.25C4 12.0074 5.07452 11 6.4 11H25.6C26.9255 11 28 12.0074 28 13.25V26.75C28 27.9926 26.9255 29 25.6 29H6.4C5.07452 29 4 27.9926 4 26.75V13.25Z" fill="#20C7BF"/>
<path fill-rule="evenodd" clip-rule="evenodd" d="M11.0094 15.4596C11.4667 15.2977 11.9687 15.5371 12.1306 15.9944L13.7914 20.6834L15.4521 15.9944C15.5763 15.6436 15.908 15.4092 16.28 15.4092C16.6521 15.4092 16.9838 15.6436 17.108 15.9944L18.7687 20.6834L20.4294 15.9944C20.5914 15.5371 21.0934 15.2977 21.5506 15.4596C22.0079 15.6216 22.2473 16.1236 22.0854 16.5808L19.5967 23.6077C19.4725 23.9584 19.1408 24.1928 18.7687 24.1928C18.3967 24.1928 18.065 23.9584 17.9408 23.6077L16.28 18.9186L14.6193 23.6077C14.4951 23.9584 14.1634 24.1928 13.7914 24.1928C13.4193 24.1928 13.0876 23.9584 12.9634 23.6077L10.4747 16.5808C10.3128 16.1236 10.5522 15.6216 11.0094 15.4596Z" fill="white"/>
<path fill-rule="evenodd" clip-rule="evenodd" d="M8.96021 19.5082C8.96021 19.0231 9.35346 18.6299 9.83856 18.6299L11.5953 18.6299C12.0804 18.6299 12.4736 19.0231 12.4736 19.5082C12.4736 19.9933 12.0804 20.3866 11.5953 20.3866L9.83856 20.3866C9.35346 20.3866 8.9602 19.9933 8.96021 19.5082Z" fill="white"/>
<path fill-rule="evenodd" clip-rule="evenodd" d="M20.0874 19.5082C20.0874 19.0231 20.4807 18.6299 20.9658 18.6299L22.7225 18.6299C23.2076 18.6299 23.6008 19.0231 23.6008 19.5082C23.6008 19.9933 23.2076 20.3866 22.7225 20.3866L20.9658 20.3866C20.4807 20.3866 20.0874 19.9933 20.0874 19.5082Z" fill="white"/>
</svg>
