<svg width="48" height="48" viewBox="0 0 48 48" fill="none" xmlns="http://www.w3.org/2000/svg">
<path d="M9 10C9 7.79086 10.7909 6 13 6H35C37.2091 6 39 7.79086 39 10V42H9V10Z" fill="#AFC3DC"/>
<path d="M17 14C17 13.4477 17.4477 13 18 13H21C21.5523 13 22 13.4477 22 14V17C22 17.5523 21.5523 18 21 18H18C17.4477 18 17 17.5523 17 17V14Z" fill="white"/>
<path d="M17 23C17 22.4477 17.4477 22 18 22H21C21.5523 22 22 22.4477 22 23V26C22 26.5523 21.5523 27 21 27H18C17.4477 27 17 26.5523 17 26V23Z" fill="white"/>
<path d="M20 35C20 34.4477 20.4477 34 21 34H27C27.5523 34 28 34.4477 28 35V42H20V35Z" fill="#82A3D2"/>
<path d="M26 14C26 13.4477 26.4477 13 27 13H30C30.5523 13 31 13.4477 31 14V17C31 17.5523 30.5523 18 30 18H27C26.4477 18 26 17.5523 26 17V14Z" fill="white"/>
<path d="M26 23C26 22.4477 26.4477 22 27 22H30C30.5523 22 31 22.4477 31 23V26C31 26.5523 30.5523 27 30 27H27C26.4477 27 26 26.5523 26 26V23Z" fill="white"/>
<path d="M48 37C48 41.9706 43.9706 46 39 46C34.0294 46 30 41.9706 30 37C30 32.0294 34.0294 28 39 28C43.9706 28 48 32.0294 48 37Z" fill="#00CBC1"/>
<path d="M38 36.2C38 35.6477 38.4477 35.2 39 35.2C39.5523 35.2 40 35.6477 40 36.2V40.2C40 40.7522 39.5523 41.2 39 41.2C38.4477 41.2 38 40.7522 38 40.2V36.2Z" fill="white"/>
<path d="M38 33.2C38 32.6477 38.4477 32.2 39 32.2C39.5523 32.2 40 32.6477 40 33.2C40 33.7522 39.5523 34.2 39 34.2C38.4477 34.2 38 33.7522 38 33.2Z" fill="white"/>
</svg>
