<svg width="14" height="14" viewBox="0 0 14 14" fill="none" xmlns="http://www.w3.org/2000/svg">
<path d="M12.8334 6.99984C12.8334 10.2215 10.2217 12.8332 7.00008 12.8332C3.77842 12.8332 1.16675 10.2215 1.16675 6.99984C1.16675 3.77818 3.77842 1.1665 7.00008 1.1665C10.2217 1.1665 12.8334 3.77818 12.8334 6.99984Z" fill="#143B75"/>
<path fill-rule="evenodd" clip-rule="evenodd" d="M10.0379 4.98372C10.2655 5.21173 10.2652 5.58108 10.0372 5.80868L6.61859 9.22118C6.50904 9.33053 6.36052 9.39186 6.20573 9.39167C6.05094 9.39147 5.90258 9.32976 5.79331 9.22013L3.96192 7.38263C3.73449 7.15444 3.7351 6.78509 3.96329 6.55767C4.19147 6.33024 4.56082 6.33086 4.78825 6.55904L6.20753 7.98306L9.21297 4.98299C9.44098 4.75538 9.81033 4.75571 10.0379 4.98372Z" fill="white"/>
</svg>
