<svg width="24" height="24" viewBox="0 0 24 24" fill="none" xmlns="http://www.w3.org/2000/svg">
<path fill-rule="evenodd" clip-rule="evenodd" d="M10 4V16H19V4H10ZM9.5 2C8.67157 2 8 2.67157 8 3.5V16.5C8 17.3284 8.67157 18 9.5 18H19.5C20.3284 18 21 17.3284 21 16.5V3.5C21 2.67157 20.3284 2 19.5 2H9.5Z" fill="#8F8F8F"/>
<path fill-rule="evenodd" clip-rule="evenodd" d="M3 8.5C3 7.39543 3.89543 6.5 5 6.5H6.96616V8.5H5V20C5 20.2761 5.22386 20.5 5.5 20.5H14V18.6749L16 18.6749V20.5C16 21.6046 15.1046 22.5 14 22.5H5.5C4.11929 22.5 3 21.3807 3 20V8.5Z" fill="#8F8F8F"/>
</svg>
