<svg width="36" height="36" viewBox="0 0 36 36" fill="none" xmlns="http://www.w3.org/2000/svg">
<path d="M16.9992 7.46005C17.3927 6.84665 18.2891 6.84665 18.6826 7.46005L25.5132 18.108C25.9402 18.7736 25.4623 19.648 24.6715 19.648H11.0102C10.2194 19.648 9.74152 18.7736 10.1685 18.108L16.9992 7.46005Z" fill="#FF8C5A"/>
<path d="M6.00281 12.3886C5.94041 11.5249 6.93062 10.9955 7.61415 11.5272L21.5403 22.3586C22.2919 22.9432 21.8786 24.148 20.9264 24.148H7.78277C7.25845 24.148 6.82316 23.743 6.78537 23.22L6.00281 12.3886Z" fill="#FFC14F"/>
<path d="M29.6775 12.36C29.741 11.5008 28.761 10.9688 28.0751 11.49L13.7833 22.3518C13.0208 22.9313 13.4306 24.148 14.3884 24.148H27.8771C28.4008 24.148 28.8358 23.7439 28.8744 23.2217L29.6775 12.36Z" fill="#FFC835"/>
<path d="M6.84082 26.6479C6.84082 26.0957 7.28854 25.6479 7.84082 25.6479H27.8408C28.3931 25.6479 28.8408 26.0957 28.8408 26.6479V27.6479C28.8408 28.2002 28.3931 28.6479 27.8408 28.6479H7.84082C7.28854 28.6479 6.84082 28.2002 6.84082 27.6479V26.6479Z" fill="#FDA921"/>
</svg>
