<svg width="48" height="48" viewBox="0 0 48 48" fill="none" xmlns="http://www.w3.org/2000/svg">
<path d="M15 13C15 9.68629 17.6863 7 21 7C24.3137 7 27 9.68629 27 13C27 16.3137 24.3137 19 21 19C17.6863 19 15 16.3137 15 13Z" fill="#AFC3DC"/>
<path d="M8 34C8 26.8203 13.8203 21 21 21C28.1797 21 34 26.8203 34 34V34.4211C34 36.3977 32.3977 38 30.4211 38H11.5789C9.60235 38 8 36.3977 8 34.4211V34Z" fill="#AFC3DC"/>
<path fill-rule="evenodd" clip-rule="evenodd" d="M26 26.8005C26 22.4924 29.4924 19 33.8005 19H34.1995C38.5076 19 42 22.4924 42 26.8005C42 28.4602 41.4817 29.9988 40.598 31.2633C40.1676 31.9767 39.7225 32.622 39.3444 33.1702C39.1237 33.4901 38.9259 33.7769 38.7671 34.0248C38.7528 34.0473 38.7383 34.0697 38.7238 34.0921L35.2906 39.8754C34.7094 40.8545 33.2922 40.8545 32.7109 39.8755L30.8654 36.767C30.6531 36.444 30.3229 35.9569 29.9446 35.399C29.0681 34.1064 27.9337 32.4335 27.4116 31.5396C27.1742 31.1332 26.9636 30.6684 26.7839 30.2126C26.4659 29.56 26.2364 28.8564 26.1107 28.1175" fill="#00CBC1"/>
<path d="M38 27.1484C38 29.3576 36.2091 31.1484 34 31.1484C31.7909 31.1484 30 29.3576 30 27.1484C30 24.9393 31.7909 23.1484 34 23.1484C36.2091 23.1484 38 24.9393 38 27.1484Z" fill="white"/>
<path fill-rule="evenodd" clip-rule="evenodd" d="M34 29.1484C35.1046 29.1484 36 28.253 36 27.1484C36 26.0439 35.1046 25.1484 34 25.1484C32.8954 25.1484 32 26.0439 32 27.1484C32 28.253 32.8954 29.1484 34 29.1484ZM34 31.1484C36.2091 31.1484 38 29.3576 38 27.1484C38 24.9393 36.2091 23.1484 34 23.1484C31.7909 23.1484 30 24.9393 30 27.1484C30 29.3576 31.7909 31.1484 34 31.1484Z" fill="white"/>
</svg>
