<svg width="36" height="36" viewBox="0 0 36 36" fill="none" xmlns="http://www.w3.org/2000/svg">
<path d="M4.49829 9.5C4.49829 7.84315 5.84144 6.5 7.49829 6.5H28.4983C30.1551 6.5 31.4983 7.84315 31.4983 9.5V28.5C31.4983 30.1569 30.1551 31.5 28.4983 31.5H7.49829C5.84144 31.5 4.49829 30.1569 4.49829 28.5V9.5Z" fill="#DCEAFC"/>
<path d="M4.5 9.5C4.5 7.84315 5.84315 6.5 7.5 6.5H28.5C30.1569 6.5 31.5 7.84315 31.5 9.5V13.5H4.5V9.5Z" fill="#F64A4A"/>
<path d="M10 5.25C10 4.55964 10.5596 4 11.25 4C11.9404 4 12.5 4.55964 12.5 5.25V8.75C12.5 9.44036 11.9404 10 11.25 10C10.5596 10 10 9.44036 10 8.75V5.25Z" fill="#09203E"/>
<path d="M23.5 5.25C23.5 4.55964 24.0596 4 24.75 4C25.4404 4 26 4.55964 26 5.25V8.75C26 9.44036 25.4404 10 24.75 10C24.0596 10 23.5 9.44036 23.5 8.75V5.25Z" fill="#09203E"/>
<path d="M14 22C14 23.1046 13.1046 24 12 24C10.8954 24 10 23.1046 10 22C10 20.8954 10.8954 20 12 20C13.1046 20 14 20.8954 14 22Z" fill="#A1B3C9"/>
<path d="M20 22C20 23.1046 19.1046 24 18 24C16.8954 24 16 23.1046 16 22C16 20.8954 16.8954 20 18 20C19.1046 20 20 20.8954 20 22Z" fill="#A1B3C9"/>
<path d="M26 22C26 23.1046 25.1046 24 24 24C22.8954 24 22 23.1046 22 22C22 20.8954 22.8954 20 24 20C25.1046 20 26 20.8954 26 22Z" fill="#A1B3C9"/>
<path d="M34 27C34 30.866 30.866 34 27 34C23.134 34 20 30.866 20 27C20 23.134 23.134 20 27 20C30.866 20 34 23.134 34 27Z" fill="#FFC737"/>
<path d="M23 27C23 26.5858 23.3358 26.25 23.75 26.25H30.25C30.6642 26.25 31 26.5858 31 27C31 27.4142 30.6642 27.75 30.25 27.75H23.75C23.3358 27.75 23 27.4142 23 27Z" fill="white"/>
<path d="M26.25 23.75C26.25 23.3358 26.5858 23 27 23C27.4142 23 27.75 23.3358 27.75 23.75V30.25C27.75 30.6642 27.4142 31 27 31C26.5858 31 26.25 30.6642 26.25 30.25V23.75Z" fill="white"/>
</svg>
