<svg width="36" height="36" viewBox="0 0 36 36" fill="none" xmlns="http://www.w3.org/2000/svg">
<path d="M4.5 9.75C4.5 8.09315 5.84315 6.75 7.5 6.75L28.5 6.75C30.1569 6.75 31.5 8.09315 31.5 9.75V29.25C31.5 30.9069 30.1569 32.25 28.5 32.25H7.5C5.84315 32.25 4.5 30.9069 4.5 29.25L4.5 9.75Z" fill="white"/>
<path d="M9 6C9 5.17157 9.67157 4.5 10.5 4.5C11.3284 4.5 12 5.17157 12 6V9.75C12 10.5784 11.3284 11.25 10.5 11.25C9.67157 11.25 9 10.5784 9 9.75V6Z" fill="#09203E"/>
<path d="M24 6C24 5.17157 24.6716 4.5 25.5 4.5C26.3284 4.5 27 5.17157 27 6V9.75C27 10.5784 26.3284 11.25 25.5 11.25C24.6716 11.25 24 10.5784 24 9.75V6Z" fill="#09203E"/>
<path fill-rule="evenodd" clip-rule="evenodd" d="M25.0755 16.2044C25.653 16.7984 25.6396 17.748 25.0456 18.3255L17.3313 25.8255C16.7492 26.3915 15.8223 26.3915 15.2401 25.8255L10.9544 21.6588C10.3604 21.0813 10.347 20.1317 10.9245 19.5377C11.502 18.9437 12.4516 18.9304 13.0456 19.5078L16.2857 22.6579L22.9544 16.1745C23.5484 15.597 24.498 15.6104 25.0755 16.2044Z" fill="#F64A4A"/>
</svg>
