<svg width="36" height="36" viewBox="0 0 36 36" fill="none" xmlns="http://www.w3.org/2000/svg">
<rect x="5.25" y="9" width="25.5" height="19.5" rx="4" fill="#757575"/>
<path fill-rule="evenodd" clip-rule="evenodd" d="M16.5 5.25C14.8431 5.25 13.5 6.59315 13.5 8.25V10.5H15V7.75C15 7.19772 15.4477 6.75 16 6.75H20C20.5523 6.75 21 7.19772 21 7.75V10.5H22.5V8.25C22.5 6.59315 21.1569 5.25 19.5 5.25H16.5Z" fill="#757575"/>
<rect x="9" y="9" width="18" height="19.5" fill="white"/>
<rect x="18" y="9" width="9" height="19.5" fill="white"/>
<rect x="16.125" y="14.25" width="3.75" height="9.75" rx="1" fill="#F64A4A"/>
<rect x="13.125" y="17.25" width="9.75" height="3.75" rx="1" fill="#F64A4A"/>
<path d="M24.9982 30.8436L22.907 25.2093C22.3623 23.7418 22.7418 22.0911 23.8726 21.0088L24.0548 20.8344C25.2904 19.6519 27.1802 19.498 28.5882 20.4516C29.9963 19.498 31.8861 19.6519 33.1217 20.8344L33.3038 21.0088C34.4346 22.0911 34.8141 23.7418 34.2695 25.2093L32.1782 30.8436C31.7555 31.9826 30.1433 31.979 29.7256 30.8382L29.5273 30.2965C29.2069 29.4216 27.9695 29.4216 27.6492 30.2965L27.4509 30.8382C27.0332 31.979 25.421 31.9826 24.9982 30.8436Z" fill="#AFC3DC"/>
<mask id="mask0_5058_40115" style="mask-type:alpha" maskUnits="userSpaceOnUse" x="22" y="19" width="13" height="13">
<path d="M24.9982 30.8439L22.907 25.2095C22.3623 23.7421 22.7418 22.0913 23.8726 21.009L24.0548 20.8347C25.2904 19.6522 27.1802 19.4982 28.5882 20.4519C29.9963 19.4982 31.8861 19.6522 33.1217 20.8347L33.3038 21.009C34.4346 22.0913 34.8141 23.7421 34.2695 25.2095L32.1782 30.8439C31.7555 31.9828 30.1433 31.9793 29.7256 30.8384L29.5273 30.2967C29.2069 29.4218 27.9695 29.4218 27.6492 30.2967L27.4509 30.8384C27.0332 31.9793 25.421 31.9828 24.9982 30.8439Z" fill="#DCEAFC"/>
</mask>
<g mask="url(#mask0_5058_40115)">
<path d="M28.5 24H35.5V32C35.5 33.6569 34.1569 35 32.5 35H28.5V24Z" fill="#AFC3DC"/>
</g>
<mask id="mask1_5058_40115" style="mask-type:alpha" maskUnits="userSpaceOnUse" x="22" y="19" width="13" height="13">
<path d="M24.9982 30.8436L22.907 25.2093C22.3623 23.7418 22.7418 22.0911 23.8726 21.0088L24.0548 20.8344C25.2904 19.6519 27.1802 19.498 28.5882 20.4516C29.9963 19.498 31.8861 19.6519 33.1217 20.8344L33.3038 21.0088C34.4346 22.0911 34.8141 23.7418 34.2695 25.2093L32.1782 30.8436C31.7555 31.9826 30.1433 31.979 29.7256 30.8382L29.5273 30.2965C29.2069 29.4216 27.9695 29.4216 27.6492 30.2965L27.4509 30.8382C27.0332 31.979 25.421 31.9826 24.9982 30.8436Z" fill="#DCEAFC"/>
</mask>
<g mask="url(#mask1_5058_40115)">
<path d="M22 13.9998H29V24.9998H25C23.3431 24.9998 22 23.6566 22 21.9998V13.9998Z" fill="#DCEAFC"/>
<path d="M28.5 13.9998H35.5V21.9998C35.5 23.6566 34.1569 24.9998 32.5 24.9998H28.5V13.9998Z" fill="white"/>
</g>
</svg>
