<svg width="40" height="41" viewBox="0 0 40 41" fill="none" xmlns="http://www.w3.org/2000/svg">
<path d="M6.66699 8.83333C6.66699 6.99238 8.15938 5.5 10.0003 5.5H28.3337C30.1746 5.5 31.667 6.99238 31.667 8.83333V21.3333H6.66699V8.83333Z" fill="white"/>
<path d="M10 14.0417C10 13.4664 10.4664 13 11.0417 13H22.2917C22.867 13 23.3333 13.4664 23.3333 14.0417C23.3333 14.617 22.867 15.0833 22.2917 15.0833H11.0417C10.4664 15.0833 10 14.617 10 14.0417Z" fill="#AFC3DC"/>
<path d="M10 18.2083C10 17.633 10.4664 17.1667 11.0417 17.1667H19.7917C20.367 17.1667 20.8333 17.633 20.8333 18.2083C20.8333 18.7836 20.367 19.25 19.7917 19.25H11.0417C10.4664 19.25 10 18.7836 10 18.2083Z" fill="#AFC3DC"/>
<path d="M6.66699 8.83333C6.66699 6.99238 8.15938 5.5 10.0003 5.5H28.3337C30.1746 5.5 31.667 6.99238 31.667 8.83333H6.66699Z" fill="#0168FE"/>
<path d="M6.8891 21.3333H31.4447L32.7076 29.1339C33.0358 31.1611 31.4707 33 29.4171 33H8.91664C6.86309 33 5.29795 31.1611 5.62615 29.1339L6.8891 21.3333Z" fill="url(#paint0_linear_769_6753)"/>
<path d="M6.66691 21.3333H31.6669L32.8304 30.0594C33.0968 32.0577 31.5423 33.8333 29.5263 33.8333H8.80752C6.79156 33.8333 5.23699 32.0577 5.50343 30.0594L6.66691 21.3333Z" fill="#F5FAFF"/>
<path d="M5.53391 30.0833H32.8169C33.09 32.066 31.5494 33.8333 29.548 33.8333H8.78787C6.78835 33.8333 5.2521 32.0629 5.53391 30.0833Z" fill="#0168FE"/>
<path d="M20 25.9167C20 24.9962 20.7462 24.25 21.6667 24.25H36.6667C37.5871 24.25 38.3333 24.9962 38.3333 25.9167V35.9167C38.3333 36.8371 37.5871 37.5833 36.6667 37.5833H21.6667C20.7462 37.5833 20 36.8371 20 35.9167V25.9167Z" fill="#00CBC1"/>
<path fill-rule="evenodd" clip-rule="evenodd" d="M25.162 27.6233C25.6002 27.4825 26.0696 27.7235 26.2104 28.1617L27.1358 31.0407L28.4011 28.0884C28.5324 27.782 28.8337 27.5833 29.1671 27.5833C29.5004 27.5833 29.8017 27.782 29.933 28.0884L31.1983 31.0407L32.1237 28.1617C32.2645 27.7235 32.7339 27.4825 33.1721 27.6233C33.6102 27.7642 33.8512 28.2335 33.7104 28.6717L32.1033 33.6717C31.9969 34.0026 31.6963 34.2328 31.349 34.2491C31.0018 34.2654 30.6809 34.0645 30.544 33.7449L29.1671 30.5322L27.7902 33.7449C27.6532 34.0645 27.3323 34.2654 26.9851 34.2491C26.6378 34.2328 26.3372 34.0026 26.2308 33.6717L24.6237 28.6717C24.4829 28.2335 24.7239 27.7642 25.162 27.6233Z" fill="white"/>
<path d="M23.3335 30.5C23.3335 30.0398 23.7066 29.6667 24.1668 29.6667H25.4168C25.8771 29.6667 26.2502 30.0398 26.2502 30.5C26.2502 30.9602 25.8771 31.3333 25.4168 31.3333H24.1668C23.7066 31.3333 23.3335 30.9602 23.3335 30.5Z" fill="white"/>
<path d="M32.0835 30.5C32.0835 30.0398 32.4566 29.6667 32.9168 29.6667H34.1668C34.6271 29.6667 35.0002 30.0398 35.0002 30.5C35.0002 30.9602 34.6271 31.3333 34.1668 31.3333H32.9168C32.4566 31.3333 32.0835 30.9602 32.0835 30.5Z" fill="white"/>
<defs>
<linearGradient id="paint0_linear_769_6753" x1="15.2317" y1="21.3333" x2="15.9126" y2="33.1869" gradientUnits="userSpaceOnUse">
<stop stop-color="#FBFBFB"/>
<stop offset="1" stop-color="#DFE3E3"/>
</linearGradient>
</defs>
</svg>
