<svg width="24" height="24" viewBox="0 0 24 24" fill="none" xmlns="http://www.w3.org/2000/svg">
<path d="M2.47754 18.1924H6.28646V21.0491C6.28646 21.575 5.86013 22.0013 5.33423 22.0013H3.42977C2.90387 22.0013 2.47754 21.575 2.47754 21.0491V18.1924Z" fill="#143B75"/>
<path d="M17.7136 18.1924H21.5225V21.0491C21.5225 21.575 21.0962 22.0013 20.5703 22.0013H18.6659C18.14 22.0013 17.7136 21.575 17.7136 21.0491V18.1924Z" fill="#143B75"/>
<path fill-rule="evenodd" clip-rule="evenodd" d="M2.93847 13.1594L4.38709 11.3193C4.89304 9.86357 6.32602 6.95215 8.01035 6.95215H8.05931H10.1647H13.8839H16.0383H16.2342C16.7238 6.95215 17.1534 7.19311 17.3959 7.55561C18.4612 8.48718 19.2992 10.2766 19.6616 11.3193L21.166 13.2303C21.166 13.2303 21.5222 13.6178 21.5222 14.57V19.1536C21.5222 19.3567 21.5222 19.5214 21.5222 19.5214H2.47754C2.47754 19.5214 2.47754 19.3567 2.47754 19.1536V14.57C2.47754 13.6178 2.91037 13.2012 2.93847 13.1594Z" fill="#0168FE"/>
<path d="M9.35557 18.207C9.3945 18.0805 9.51142 17.9941 9.64382 17.9941H14.3565C14.4889 17.9941 14.6058 18.0805 14.6447 18.207L15.0482 19.5181H8.95215L9.35557 18.207Z" fill="#A2C7FF"/>
<path d="M4.38013 15.1438C4.38013 14.723 4.72129 14.3818 5.14213 14.3818H7.42813C7.84897 14.3818 8.19013 14.723 8.19013 15.1438V15.9058C8.19013 16.3267 7.84897 16.6678 7.42813 16.6678H5.14213C4.72129 16.6678 4.38013 16.3267 4.38013 15.9058V15.1438Z" fill="white"/>
<path d="M15.8101 15.1438C15.8101 14.723 16.1512 14.3818 16.5721 14.3818H18.8581C19.2789 14.3818 19.6201 14.723 19.6201 15.1438V15.9058C19.6201 16.3267 19.2789 16.6678 18.8581 16.6678H16.5721C16.1512 16.6678 15.8101 16.3267 15.8101 15.9058V15.1438Z" fill="white"/>
<path d="M5.13178 8.25183C5.41648 6.9377 6.57908 6 7.9237 6H16.0757C17.4203 6 18.5829 6.93769 18.8676 8.25183L19.6175 11.7134H4.38184L5.13178 8.25183Z" fill="#0168FE"/>
<path d="M6.2923 8.43284C6.45306 7.4685 7.28743 6.76172 8.26507 6.76172H15.7351C16.7127 6.76172 17.5471 7.4685 17.7078 8.43284L18.0961 10.7617H5.90405L6.2923 8.43284Z" fill="#203CCF"/>
<path fill-rule="evenodd" clip-rule="evenodd" d="M2.95377 9.80859C2.05811 9.80859 1.33203 10.7831 1.33203 11.9851C1.33203 12.3608 1.55893 12.6653 1.83883 12.6653H3.76594H4.66217H5.33433V11.6128H4.66217V10.41C4.66217 10.0779 4.46154 9.80859 4.21405 9.80859H2.95377Z" fill="#0168FE"/>
<path fill-rule="evenodd" clip-rule="evenodd" d="M21.0462 9.80859C21.9419 9.80859 22.668 10.7831 22.668 11.9852C22.668 12.3608 22.4411 12.6653 22.1612 12.6653H20.2341H19.3379H18.6657V11.6128H19.3379V10.41C19.3379 10.0779 19.5385 9.80859 19.786 9.80859H21.0462Z" fill="#0168FE"/>
<path d="M16.0652 6.29297C15.587 6.01683 15.4231 5.40524 15.6992 4.92694L15.9492 4.49393C16.2254 4.01564 16.837 3.85176 17.3152 4.12791L22.5993 7.17866C22.8812 7.3414 23.0662 7.63117 23.0953 7.95536L23.1226 8.2598C23.1603 8.6801 22.9301 9.07883 22.5473 9.25634L22.27 9.38492C21.9747 9.52184 21.6312 9.50647 21.3493 9.34372L16.0652 6.29297Z" fill="#FFC737"/>
<path fill-rule="evenodd" clip-rule="evenodd" d="M18.8122 6.53141C19.7787 4.85739 19.2051 2.71682 17.5311 1.75032C15.8571 0.783823 13.7165 1.35739 12.75 3.03141C11.7835 4.70544 12.3571 6.846 14.0311 7.8125C15.7051 8.779 17.8457 8.20543 18.8122 6.53141ZM15.7786 4.78085C16.0202 4.36234 15.8769 3.8272 15.4584 3.58557C15.0398 3.34395 14.5047 3.48734 14.2631 3.90585C14.0215 4.32435 14.1648 4.85949 14.5834 5.10112C15.0019 5.34274 15.537 5.19935 15.7786 4.78085Z" fill="#FFC737"/>
</svg>
