<svg width="40" height="40" viewBox="0 0 40 40" fill="none" xmlns="http://www.w3.org/2000/svg">
<path d="M7.5 8.33333C7.5 6.49238 8.99238 5 10.8333 5H29.1667C31.0076 5 32.5 6.49238 32.5 8.33333V31.6667C32.5 33.5076 31.0076 35 29.1667 35H10.8333C8.99238 35 7.5 33.5076 7.5 31.6667V8.33333Z" fill="white"/>
<path d="M12.5 12.7083C12.5 12.133 12.9664 11.6666 13.5417 11.6666H26.4583C27.0336 11.6666 27.5 12.133 27.5 12.7083C27.5 13.2836 27.0336 13.75 26.4583 13.75H13.5417C12.9664 13.75 12.5 13.2836 12.5 12.7083Z" fill="#AFC3DC"/>
<path d="M12.5 17.7083C12.5 17.133 12.9664 16.6666 13.5417 16.6666H22.2917C22.867 16.6666 23.3333 17.133 23.3333 17.7083C23.3333 18.2836 22.867 18.75 22.2917 18.75H13.5417C12.9664 18.75 12.5 18.2836 12.5 17.7083Z" fill="#AFC3DC"/>
<path d="M38.3335 30.8334C38.3335 34.9755 34.9756 38.3334 30.8335 38.3334C26.6914 38.3334 23.3335 34.9755 23.3335 30.8334C23.3335 26.6912 26.6914 23.3334 30.8335 23.3334C34.9756 23.3334 38.3335 26.6912 38.3335 30.8334Z" fill="#0168FE"/>
<path fill-rule="evenodd" clip-rule="evenodd" d="M34.5637 28.3856C34.88 28.7199 34.8654 29.2474 34.5311 29.5637L30.5677 33.3137C30.2418 33.622 29.7302 33.617 29.4104 33.3023L27.1238 31.0523C26.7958 30.7295 26.7915 30.2019 27.1143 29.8739C27.4371 29.5458 27.9648 29.5415 28.2928 29.8643L30.0063 31.5504L33.3856 28.353C33.7199 28.0367 34.2473 28.0513 34.5637 28.3856Z" fill="white"/>
</svg>
