<svg width="37" height="36" viewBox="0 0 37 36" fill="none" xmlns="http://www.w3.org/2000/svg">
<path d="M6.5 6C6.5 4.34315 7.84315 3 9.5 3H27.5C29.1569 3 30.5 4.34315 30.5 6V30C30.5 31.6569 29.1569 33 27.5 33H9.5C7.84315 33 6.5 31.6569 6.5 30V6Z" fill="white"/>
<path d="M10.5 11C10.5 10.4477 10.9477 10 11.5 10H25.5C26.0523 10 26.5 10.4477 26.5 11C26.5 11.5523 26.0523 12 25.5 12H11.5C10.9477 12 10.5 11.5523 10.5 11Z" fill="#AFC3DC"/>
<path d="M10.5 16C10.5 15.4477 10.9477 15 11.5 15H25.5C26.0523 15 26.5 15.4477 26.5 16C26.5 16.5523 26.0523 17 25.5 17H11.5C10.9477 17 10.5 16.5523 10.5 16Z" fill="#AFC3DC"/>
<path d="M10.5 21C10.5 20.4477 10.9477 20 11.5 20H19.5C20.0523 20 20.5 20.4477 20.5 21C20.5 21.5523 20.0523 22 19.5 22H11.5C10.9477 22 10.5 21.5523 10.5 21Z" fill="#AFC3DC"/>
<path d="M35 27.75C35 31.4779 31.9779 34.5 28.25 34.5C24.5221 34.5 21.5 31.4779 21.5 27.75C21.5 24.0221 24.5221 21 28.25 21C31.9779 21 35 24.0221 35 27.75Z" fill="#0168FE"/>
<path d="M27.5469 24.7031C27.5469 24.3148 27.8617 24 28.25 24C28.6383 24 28.9531 24.3148 28.9531 24.7031V30.7969C28.9531 31.1852 28.6383 31.5 28.25 31.5C27.8617 31.5 27.5469 31.1852 27.5469 30.7969V24.7031Z" fill="white"/>
<path d="M31.2969 27.0469C31.6852 27.0469 32 27.3617 32 27.75C32 28.1383 31.6852 28.4531 31.2969 28.4531L25.2031 28.4531C24.8148 28.4531 24.5 28.1383 24.5 27.75C24.5 27.3617 24.8148 27.0469 25.2031 27.0469L31.2969 27.0469Z" fill="white"/>
</svg>
