<svg width="36" height="36" viewBox="0 0 36 36" fill="none" xmlns="http://www.w3.org/2000/svg">
<path fill-rule="evenodd" clip-rule="evenodd" d="M9 3C7.34315 3 6 4.34315 6 6V30C6 31.6569 7.34315 33 9 33H27C28.6569 33 30 31.6569 30 30V11L22 3H9Z" fill="#DCEAFC"/>
<path fill-rule="evenodd" clip-rule="evenodd" d="M24 11H30L22 3V9C22 10.1046 22.8954 11 24 11Z" fill="#B8CAE1"/>
<path d="M10 21C10 20.4477 10.4477 20 11 20H25C25.5523 20 26 20.4477 26 21C26 21.5523 25.5523 22 25 22H11C10.4477 22 10 21.5523 10 21Z" fill="#A1B3C9"/>
<path d="M10 26C10 25.4477 10.4477 25 11 25H19C19.5523 25 20 25.4477 20 26C20 26.5523 19.5523 27 19 27H11C10.4477 27 10 26.5523 10 26Z" fill="#A1B3C9"/>
</svg>
