<svg width="40" height="40" viewBox="0 0 40 40" fill="none" xmlns="http://www.w3.org/2000/svg">
<path d="M6.66602 6.66537C6.66602 4.82442 8.1584 3.33203 9.99935 3.33203H29.9993C31.8403 3.33203 33.3327 4.82442 33.3327 6.66536V33.332C33.3327 35.173 31.8403 36.6654 29.9993 36.6654H9.99935C8.1584 36.6654 6.66602 35.173 6.66602 33.332V6.66537Z" fill="white"/>
<path d="M11.1113 12.2205C11.1113 11.6068 11.6088 11.1094 12.2224 11.1094H27.778C28.3916 11.1094 28.8891 11.6068 28.8891 12.2205C28.8891 12.8341 28.3916 13.3316 27.778 13.3316H12.2224C11.6088 13.3316 11.1113 12.8341 11.1113 12.2205Z" fill="#AFC3DC"/>
<path d="M11.1113 17.7791C11.1113 17.1654 11.6088 16.668 12.2224 16.668H27.778C28.3916 16.668 28.8891 17.1654 28.8891 17.7791C28.8891 18.3927 28.3916 18.8902 27.778 18.8902H12.2224C11.6088 18.8902 11.1113 18.3927 11.1113 17.7791Z" fill="#AFC3DC"/>
<path d="M11.1113 23.3338C11.1113 22.7201 11.6088 22.2227 12.2224 22.2227H21.1113C21.725 22.2227 22.2224 22.7201 22.2224 23.3338C22.2224 23.9474 21.725 24.4449 21.1113 24.4449H12.2224C11.6088 24.4449 11.1113 23.9474 11.1113 23.3338Z" fill="#AFC3DC"/>
<path fill-rule="evenodd" clip-rule="evenodd" d="M35.4154 24.5833C35.4154 27.3448 33.1768 29.5833 30.4154 29.5833C27.6539 29.5833 25.4154 27.3448 25.4154 24.5833C25.4154 21.8219 27.6539 19.5833 30.4154 19.5833C33.1768 19.5833 35.4154 21.8219 35.4154 24.5833ZM34.7173 30.2111C33.5247 31.1242 32.0334 31.6667 30.4154 31.6667C26.5033 31.6667 23.332 28.4954 23.332 24.5833C23.332 20.6713 26.5033 17.5 30.4154 17.5C34.3274 17.5 37.4987 20.6713 37.4987 24.5833C37.4987 26.1258 37.0057 27.5531 36.1687 28.7162L39.0951 31.6427C39.5019 32.0495 39.5019 32.7091 39.0951 33.1159C38.6883 33.5227 38.0288 33.5227 37.622 33.1159L34.7173 30.2111Z" fill="#4E627D"/>
</svg>
