<svg width="36" height="36" viewBox="0 0 36 36" fill="none" xmlns="http://www.w3.org/2000/svg">
<path d="M6 6C6 4.34315 7.34315 3 9 3H27C28.6569 3 30 4.34315 30 6V30C30 31.6569 28.6569 33 27 33H9C7.34315 33 6 31.6569 6 30V6Z" fill="#DCEAFC"/>
<path d="M10 11C10 10.4477 10.4477 10 11 10H25C25.5523 10 26 10.4477 26 11C26 11.5523 25.5523 12 25 12H11C10.4477 12 10 11.5523 10 11Z" fill="#AFC3DC"/>
<path d="M10 16C10 15.4477 10.4477 15 11 15H25C25.5523 15 26 15.4477 26 16C26 16.5523 25.5523 17 25 17H11C10.4477 17 10 16.5523 10 16Z" fill="#AFC3DC"/>
<path d="M10 21C10 20.4477 10.4477 20 11 20H19C19.5523 20 20 20.4477 20 21C20 21.5523 19.5523 22 19 22H11C10.4477 22 10 21.5523 10 21Z" fill="#AFC3DC"/>
</svg>
