<svg width="36" height="36" viewBox="0 0 36 36" fill="none" xmlns="http://www.w3.org/2000/svg">
<path fill-rule="evenodd" clip-rule="evenodd" d="M11 7C9.89543 7 9 7.89543 9 9V27C9 28.1046 9.89543 29 11 29H25C26.1046 29 27 28.1046 27 27V13L21 7H11Z" fill="#DCEAFC"/>
<path fill-rule="evenodd" clip-rule="evenodd" d="M22.5 13H27L21 7V11.5C21 12.3284 21.6716 13 22.5 13Z" fill="#B8CAE1"/>
<path d="M12.5 19.75C12.5 19.3358 12.8358 19 13.25 19H21.75C22.1642 19 22.5 19.3358 22.5 19.75C22.5 20.1642 22.1642 20.5 21.75 20.5H13.25C12.8358 20.5 12.5 20.1642 12.5 19.75Z" fill="#A1B3C9"/>
<path d="M12.5 23.25C12.5 22.8358 12.8358 22.5 13.25 22.5H17.75C18.1642 22.5 18.5 22.8358 18.5 23.25C18.5 23.6642 18.1642 24 17.75 24H13.25C12.8358 24 12.5 23.6642 12.5 23.25Z" fill="#A1B3C9"/>
<path d="M30 26C30 28.7614 27.7614 31 25 31C22.2386 31 20 28.7614 20 26C20 23.2386 22.2386 21 25 21C27.7614 21 30 23.2386 30 26Z" fill="#2AD6CE"/>
<path fill-rule="evenodd" clip-rule="evenodd" d="M25 23.2251C25.3452 23.2251 25.625 23.5049 25.625 23.8501V28.3501C25.625 28.6953 25.3452 28.9751 25 28.9751C24.6548 28.9751 24.375 28.6953 24.375 28.3501V23.8501C24.375 23.5049 24.6548 23.2251 25 23.2251Z" fill="white"/>
<path fill-rule="evenodd" clip-rule="evenodd" d="M24.5581 23.4082C24.8021 23.1641 25.1979 23.1641 25.4419 23.4082L27.1919 25.1582C27.436 25.4022 27.436 25.798 27.1919 26.042C26.9479 26.2861 26.5521 26.2861 26.3081 26.042L25 24.734L23.6919 26.042C23.4479 26.2861 23.0521 26.2861 22.8081 26.042C22.564 25.798 22.564 25.4022 22.8081 25.1582L24.5581 23.4082Z" fill="white"/>
</svg>
