<svg width="36" height="37" viewBox="0 0 36 37" fill="none" xmlns="http://www.w3.org/2000/svg">
<path d="M6 6.5C6 4.84315 7.34315 3.5 9 3.5H27C28.6569 3.5 30 4.84315 30 6.5V30.5C30 32.1569 28.6569 33.5 27 33.5H9C7.34315 33.5 6 32.1569 6 30.5V6.5Z" fill="#DCEAFC"/>
<path d="M10 11.5C10 10.9477 10.4477 10.5 11 10.5H25C25.5523 10.5 26 10.9477 26 11.5C26 12.0523 25.5523 12.5 25 12.5H11C10.4477 12.5 10 12.0523 10 11.5Z" fill="#AFC3DC"/>
<path d="M10 16.5C10 15.9477 10.4477 15.5 11 15.5H25C25.5523 15.5 26 15.9477 26 16.5C26 17.0523 25.5523 17.5 25 17.5H11C10.4477 17.5 10 17.0523 10 16.5Z" fill="#AFC3DC"/>
<path d="M10 21.5C10 20.9477 10.4477 20.5 11 20.5H19C19.5523 20.5 20 20.9477 20 21.5C20 22.0523 19.5523 22.5 19 22.5H11C10.4477 22.5 10 22.0523 10 21.5Z" fill="#AFC3DC"/>
</svg>
