<svg width="36" height="36" viewBox="0 0 36 36" fill="none" xmlns="http://www.w3.org/2000/svg">
<g clip-path="url(#clip0_5495_41700)">
<path d="M0 12C0 5.37258 5.37258 0 12 0H24C30.6274 0 36 5.37258 36 12V24C36 30.6274 30.6274 36 24 36H12C5.37258 36 0 30.6274 0 24V12Z" fill="white"/>
<path d="M9 8.62963C9 7.72961 9.73263 7 10.6364 7H25.3636C26.2674 7 27 7.72961 27 8.62963V27.3704C27 28.2704 26.2674 29 25.3636 29H10.6364C9.73262 29 9 28.2704 9 27.3704V8.62963Z" fill="#DCEAFC"/>
<path d="M12.2729 20.8519C12.2729 20.4019 12.6393 20.0371 13.0911 20.0371H23.7275C24.1794 20.0371 24.5457 20.4019 24.5457 20.8519C24.5457 21.3019 24.1794 21.6667 23.7275 21.6667H13.0911C12.6393 21.6667 12.2729 21.3019 12.2729 20.8519Z" fill="#AFC3DC"/>
<path d="M12.2729 24.1112C12.2729 23.6612 12.6393 23.2964 13.0911 23.2964H18.8184C19.2703 23.2964 19.6366 23.6612 19.6366 24.1112C19.6366 24.5612 19.2703 24.926 18.8184 24.926H13.0911C12.6393 24.926 12.2729 24.5612 12.2729 24.1112Z" fill="#AFC3DC"/>
<path fill-rule="evenodd" clip-rule="evenodd" d="M21.8886 11.7597C22.1861 12.0984 22.1517 12.6131 21.8116 12.9095L17.6038 16.5761C17.2953 16.845 16.8347 16.845 16.5263 16.5761L14.1886 14.5391C13.8485 14.2428 13.8141 13.728 14.1116 13.3893C14.4092 13.0507 14.9261 13.0164 15.2661 13.3127L17.065 14.8802L20.7341 11.6831C21.0741 11.3867 21.591 11.421 21.8886 11.7597Z" fill="#00A69E"/>
</g>
<defs>
<clipPath id="clip0_5495_41700">
<rect width="36" height="36" fill="white"/>
</clipPath>
</defs>
</svg>
