<svg width="18" height="18" viewBox="0 0 18 18" fill="none" xmlns="http://www.w3.org/2000/svg">
<path fill-rule="evenodd" clip-rule="evenodd" d="M9.15278 12.7499C9.35175 12.7462 9.54109 12.6636 9.67913 12.5202L13.2902 8.77023C13.5776 8.47186 13.5686 7.99708 13.2702 7.70976C12.9719 7.42244 12.4971 7.4314 12.2098 7.72977L9.11924 10.9392L5.7706 7.71012C5.47243 7.4226 4.99764 7.43123 4.71012 7.7294C4.4226 8.02757 4.43123 8.50236 4.7294 8.78988L8.61829 12.5399C8.76154 12.678 8.95381 12.7536 9.15278 12.7499Z" fill="#15181F"/>
<path fill-rule="evenodd" clip-rule="evenodd" d="M9 12C9.41421 12 9.75 11.6642 9.75 11.25L9.75 3.75C9.75 3.33579 9.41421 3 9 3C8.58579 3 8.25 3.33579 8.25 3.75L8.25 11.25C8.25 11.6642 8.58579 12 9 12Z" fill="#15181F"/>
<path fill-rule="evenodd" clip-rule="evenodd" d="M3 15C3 14.5858 3.33579 14.25 3.75 14.25H14.25C14.6642 14.25 15 14.5858 15 15C15 15.4142 14.6642 15.75 14.25 15.75H3.75C3.33579 15.75 3 15.4142 3 15Z" fill="#15181F"/>
</svg>
