<svg width="36" height="36" viewBox="0 0 36 36" fill="none" xmlns="http://www.w3.org/2000/svg">
<path fill-rule="evenodd" clip-rule="evenodd" d="M18 26.75C22.8325 26.75 26.75 22.8325 26.75 18C26.75 13.1675 22.8325 9.25 18 9.25C13.1675 9.25 9.25 13.1675 9.25 18C9.25 22.8325 13.1675 26.75 18 26.75ZM18 32C25.732 32 32 25.732 32 18C32 10.268 25.732 4 18 4C10.268 4 4 10.268 4 18C4 25.732 10.268 32 18 32Z" fill="#293547"/>
<path fill-rule="evenodd" clip-rule="evenodd" d="M29.375 14.5H6.625V19.75H13.1046C14.0528 20.2646 14.9201 21.3173 15.3187 21.924L15.3187 29.8611H20.6812L20.6812 21.9242C21.0797 21.3175 21.9471 20.2646 22.8954 19.75H29.375V14.5Z" fill="#293547"/>
<path d="M20.1875 18.4375C20.1875 19.6456 19.2081 20.625 18 20.625C16.7919 20.625 15.8125 19.6456 15.8125 18.4375C15.8125 17.2294 16.7919 16.25 18 16.25C19.2081 16.25 20.1875 17.2294 20.1875 18.4375Z" fill="white"/>
</svg>
