<svg width="36" height="37" viewBox="0 0 36 37" fill="none" xmlns="http://www.w3.org/2000/svg">
<path fill-rule="evenodd" clip-rule="evenodd" d="M20.8657 5.73047C13.6118 5.73047 7.73135 11.611 7.73135 18.865V26.527L4.12746 30.1309C3.43795 30.8205 3.92629 31.9994 4.90141 31.9994H7.73135H17.129H20.8657C28.1196 31.9994 34 26.1189 34 18.865C34 11.611 28.1196 5.73047 20.8657 5.73047Z" fill="#FFC737"/>
<ellipse cx="20.5" cy="14.2502" rx="1.75" ry="1.75025" fill="white"/>
<path fill-rule="evenodd" clip-rule="evenodd" d="M14 19.25C14 18.5596 14.582 18 15.3 18H25.7C26.418 18 27 18.5596 27 19.25C27 19.9404 26.418 20.5 25.7 20.5H15.3C14.582 20.5 14 19.9404 14 19.25Z" fill="white"/>
<ellipse cx="20.5" cy="24.2502" rx="1.75" ry="1.75025" fill="white"/>
</svg>
