<svg width="36" height="36" viewBox="0 0 36 36" fill="none" xmlns="http://www.w3.org/2000/svg">
<path fill-rule="evenodd" clip-rule="evenodd" d="M20.061 4.23071C12.8071 4.23071 6.92667 10.1112 6.92667 17.3652V25.0272L3.32277 28.6312C2.63326 29.3207 3.1216 30.4997 4.09672 30.4997H6.92667H16.3243H20.061C27.3149 30.4997 33.1953 24.6192 33.1953 17.3652C33.1953 10.1112 27.3149 4.23071 20.061 4.23071Z" fill="#FFC737"/>
<path d="M13.5 17.5C13.5 16.9477 13.9477 16.5 14.5 16.5H25.5C26.0523 16.5 26.5 16.9477 26.5 17.5C26.5 18.0523 26.0523 18.5 25.5 18.5H14.5C13.9477 18.5 13.5 18.0523 13.5 17.5Z" fill="white"/>
<path d="M18.5 13C18.5 12.1716 19.1716 11.5 20 11.5C20.8284 11.5 21.5 12.1716 21.5 13C21.5 13.8284 20.8284 14.5 20 14.5C19.1716 14.5 18.5 13.8284 18.5 13Z" fill="white"/>
<path d="M18.5 22C18.5 21.1716 19.1716 20.5 20 20.5C20.8284 20.5 21.5 21.1716 21.5 22C21.5 22.8284 20.8284 23.5 20 23.5C19.1716 23.5 18.5 22.8284 18.5 22Z" fill="white"/>
</svg>
