<svg width="36" height="36" viewBox="0 0 36 36" fill="none" xmlns="http://www.w3.org/2000/svg">
<path d="M6.00147 10.9281C6.01679 9.07575 7.25478 7.50595 9.00097 6.88757L15.5988 4.55109C17.1538 4.00042 18.8508 4.00042 20.4058 4.5511L26.9964 6.88506C28.7463 7.50473 29.9854 9.0797 29.9989 10.936C30.024 14.4021 29.6501 20.0659 27.2678 23.74C24.7565 27.613 19.4846 31.2999 18.0023 31.2999C16.52 31.2999 11.1295 27.4457 8.73706 23.74C6.34394 20.0332 5.97288 14.3833 6.00147 10.9281Z" fill="#0168FE"/>
<path fill-rule="evenodd" clip-rule="evenodd" d="M23.6444 13.0974C24.1153 13.5638 24.1189 14.3236 23.6526 14.7945L17.7097 20.7944C17.2636 21.2449 16.5441 21.2705 16.0669 20.8531L12.4098 17.6531C11.911 17.2167 11.8605 16.4585 12.2969 15.9598C12.7333 15.461 13.4915 15.4105 13.9902 15.8469L16.7984 18.3041L21.9474 13.1055C22.4138 12.6347 23.1736 12.631 23.6444 13.0974Z" fill="white"/>
</svg>
