<svg width="36" height="36" viewBox="0 0 36 36" fill="none" xmlns="http://www.w3.org/2000/svg">
<path d="M5.75951 10.7862C5.79198 9.24089 6.82463 7.93375 8.28258 7.42066L16.6744 4.46732C17.5339 4.16486 18.4708 4.16486 19.3302 4.46732L27.7161 7.41856C29.1771 7.93274 30.2107 9.24399 30.2414 10.7925C30.3096 14.2322 30.0238 20.4023 27.4609 24.3304C24.8972 28.2596 19.5155 32 18.0023 32C16.4891 32 10.9864 28.0898 8.54408 24.3304C5.96942 20.3673 5.68748 14.2145 5.75951 10.7862Z" fill="#074093"/>
<path fill-rule="evenodd" clip-rule="evenodd" d="M23.6417 13.624C24.1255 14.1164 24.1185 14.9079 23.626 15.3917L17.5189 21.3917C17.0326 21.8694 16.2531 21.8694 15.7668 21.3917L12.374 18.0583C11.8815 17.5745 11.8745 16.7831 12.3583 16.2906C12.8421 15.7982 13.6336 15.7912 14.126 16.275L16.6429 18.7477L21.874 13.6083C22.3664 13.1245 23.1579 13.1315 23.6417 13.624Z" fill="white"/>
</svg>
