<svg width="36" height="37" viewBox="0 0 36 37" fill="none" xmlns="http://www.w3.org/2000/svg">
<path fill-rule="evenodd" clip-rule="evenodd" d="M6 13.75C6.69036 13.75 7.25 14.3096 7.25 15L7.25 27C7.25 27.6904 6.69036 28.25 6 28.25C5.30964 28.25 4.75 27.6904 4.75 27L4.75 15C4.75 14.3096 5.30964 13.75 6 13.75Z" fill="#FFC737"/>
<path d="M8.5 18.5C8.5 16.8431 9.84315 15.5 11.5 15.5H24.5C26.1569 15.5 27.5 16.8431 27.5 18.5V28.5C27.5 30.1569 26.1569 31.5 24.5 31.5H11.5C9.84315 31.5 8.5 30.1569 8.5 28.5V18.5Z" fill="#15181F"/>
<path d="M17.281 6.27589C17.7431 6.09814 18.2548 6.09814 18.7169 6.27589L32.6456 11.6331C34.3549 12.2905 34.3549 14.709 32.6456 15.3664L18.7169 20.7236C18.2548 20.9014 17.7431 20.9014 17.281 20.7236L3.35235 15.3664C1.64297 14.709 1.64296 12.2905 3.35235 11.6331L17.281 6.27589Z" fill="#424242"/>
</svg>
