<svg width="24" height="24" viewBox="0 0 24 24" fill="none" xmlns="http://www.w3.org/2000/svg">
<path d="M5 8.77274C5 7.79368 5.75216 7 6.67999 7H17.32C18.2478 7 19 7.79368 19 8.77274V18.2273C19 19.2063 18.2478 20 17.32 20H6.67999C5.75216 20 5 19.2063 5 18.2273V8.77274Z" fill="#FFC737"/>
<path d="M4 8.71429C4 7.76752 4.79593 7 5.77777 7H18.2222C19.2041 7 20 7.76752 20 8.7143V10.4286C20 10.7442 19.7347 11 19.4074 11H4.59259C4.26531 11 4 10.7442 4 10.4286V8.71429Z" fill="#FFA514"/>
<path d="M8.19041 4C8.08525 4 8 4.07675 8 4.17143V7H11.9987C11.9987 5.34315 10.5068 4 8.66649 4H8.19041Z" fill="#20C7BF"/>
<path d="M15.8096 4C15.9147 4 16 4.07675 16 4.17143V7H12.0013C12.0013 5.34315 13.4932 4 15.3335 4H15.8096Z" fill="#20C7BF"/>
<rect x="11" y="7" width="2" height="13" fill="#20C7BF"/>
</svg>
