<svg width="36" height="36" viewBox="0 0 36 36" fill="none" xmlns="http://www.w3.org/2000/svg">
<path fill-rule="evenodd" clip-rule="evenodd" d="M8 4.00195C6.34315 4.00195 5 5.3451 5 7.00195V29.002C5 30.6588 6.34315 32.002 8 32.002H24C25.6569 32.002 27 30.6588 27 29.002V12.002L19 4.00195H8Z" fill="#DCEAFC"/>
<path fill-rule="evenodd" clip-rule="evenodd" d="M21 12.002H27L19 4.00195V10.002C19 11.1065 19.8954 12.002 21 12.002Z" fill="#B8CAE1"/>
<path fill-rule="evenodd" clip-rule="evenodd" d="M21.2071 14.7948C21.5976 15.1854 21.5976 15.8185 21.2071 16.2091L12.2071 25.2091C11.8166 25.5996 11.1834 25.5996 10.7929 25.2091C10.4024 24.8185 10.4024 24.1854 10.7929 23.7948L19.7929 14.7948C20.1834 14.4043 20.8166 14.4043 21.2071 14.7948Z" fill="#A1B3C9"/>
<path fill-rule="evenodd" clip-rule="evenodd" d="M12.25 15.502C11.8358 15.502 11.5 15.8377 11.5 16.252C11.5 16.6662 11.8358 17.002 12.25 17.002C12.6642 17.002 13 16.6662 13 16.252C13 15.8377 12.6642 15.502 12.25 15.502ZM9.5 16.252C9.5 14.7332 10.7312 13.502 12.25 13.502C13.7688 13.502 15 14.7332 15 16.252C15 17.7707 13.7688 19.002 12.25 19.002C10.7312 19.002 9.5 17.7707 9.5 16.252Z" fill="#A1B3C9"/>
<path fill-rule="evenodd" clip-rule="evenodd" d="M19.75 23.002C19.3358 23.002 19 23.3377 19 23.752C19 24.1662 19.3358 24.502 19.75 24.502C20.1642 24.502 20.5 24.1662 20.5 23.752C20.5 23.3377 20.1642 23.002 19.75 23.002ZM17 23.752C17 22.2332 18.2312 21.002 19.75 21.002C21.2688 21.002 22.5 22.2332 22.5 23.752C22.5 25.2707 21.2688 26.502 19.75 26.502C18.2312 26.502 17 25.2707 17 23.752Z" fill="#A1B3C9"/>
<path fill-rule="evenodd" clip-rule="evenodd" d="M31 24.002C31 26.2111 29.2091 28.002 27 28.002C24.7909 28.002 23 26.2111 23 24.002C23 21.7928 24.7909 20.002 27 20.002C29.2091 20.002 31 21.7928 31 24.002ZM30.1237 29.1257C29.2138 29.6816 28.1443 30.002 27 30.002C23.6863 30.002 21 27.3157 21 24.002C21 20.6882 23.6863 18.002 27 18.002C30.3137 18.002 33 20.6882 33 24.002C33 25.4478 32.4886 26.7743 31.6367 27.8102L33.9497 30.1233C34.3403 30.5138 34.3403 31.147 33.9497 31.5375C33.5592 31.928 32.9261 31.928 32.5355 31.5375L30.1237 29.1257Z" fill="#3E4C60"/>
</svg>
