<svg width="36" height="36" viewBox="0 0 36 36" fill="none" xmlns="http://www.w3.org/2000/svg">
<path d="M22.6673 12.1667C22.6673 14.744 20.578 16.8333 18.0007 16.8333C15.4233 16.8333 13.334 14.744 13.334 12.1667C13.334 9.58934 15.4233 7.5 18.0007 7.5C20.578 7.5 22.6673 9.58934 22.6673 12.1667Z" fill="#5A92F4"/>
<path d="M7.88867 26.4933C7.88867 22.0174 11.7004 18.3889 16.4024 18.3889H19.5972C24.2992 18.3889 28.1109 22.0174 28.1109 26.4933C28.1109 26.8999 27.9075 27.2784 27.5219 27.4534C26.412 27.9571 23.6018 28.8889 17.9998 28.8889C12.3978 28.8889 9.58757 27.9571 8.47766 27.4534C8.0921 27.2784 7.88867 26.8999 7.88867 26.4933Z" fill="#0168FE"/>
<path d="M27.5 3.5H30.5C31.6046 3.5 32.5 4.39543 32.5 5.5V8.5" stroke="#666666" stroke-width="1.5" stroke-linecap="round" stroke-linejoin="round"/>
<path d="M27.5 32.5H30.5C31.6046 32.5 32.5 31.6046 32.5 30.5V27.5" stroke="#666666" stroke-width="1.5" stroke-linecap="round" stroke-linejoin="round"/>
<path d="M8.5 3.5H5.5C4.39543 3.5 3.5 4.39543 3.5 5.5V8.5" stroke="#666666" stroke-width="1.5" stroke-linecap="round" stroke-linejoin="round"/>
<path d="M8.5 32.5H5.5C4.39543 32.5 3.5 31.6046 3.5 30.5V27.5" stroke="#666666" stroke-width="1.5" stroke-linecap="round" stroke-linejoin="round"/>
</svg>
