<svg width="36" height="36" viewBox="0 0 36 36" fill="none" xmlns="http://www.w3.org/2000/svg">
<path d="M21.5 13.4609C21.5 15.3939 19.933 16.9609 18 16.9609C16.067 16.9609 14.5 15.3939 14.5 13.4609C14.5 11.5279 16.067 9.96094 18 9.96094C19.933 9.96094 21.5 11.5279 21.5 13.4609Z" fill="#2AD6CE"/>
<path d="M10 24.612C10 21.2149 12.7539 18.4609 16.151 18.4609H19.849C23.2461 18.4609 26 21.2149 26 24.612C26 24.9349 25.8395 25.233 25.5438 25.3629C24.6725 25.7457 22.449 26.4609 18 26.4609C13.551 26.4609 11.3275 25.7457 10.4562 25.3629C10.1605 25.233 10 24.9349 10 24.612Z" fill="#05B0A8"/>
<path d="M10 5H8C6.34315 5 5 6.34315 5 8V10" stroke="#00CBC1" stroke-width="2" stroke-linecap="round" stroke-linejoin="round"/>
<path d="M10 31H8C6.34315 31 5 29.6569 5 28V26" stroke="#00CBC1" stroke-width="2" stroke-linecap="round" stroke-linejoin="round"/>
<path d="M26 5H28C29.6569 5 31 6.34315 31 8V10" stroke="#00CBC1" stroke-width="2" stroke-linecap="round" stroke-linejoin="round"/>
<path d="M26 31H28C29.6569 31 31 29.6569 31 28V26" stroke="#00CBC1" stroke-width="2" stroke-linecap="round" stroke-linejoin="round"/>
</svg>
