<svg width="36" height="36" viewBox="0 0 36 36" fill="none" xmlns="http://www.w3.org/2000/svg">
<rect x="11" y="11.9609" width="1" height="4" rx="0.5" stroke="#424242"/>
<rect x="24" y="11.9609" width="1" height="4" rx="0.5" stroke="#424242"/>
<path d="M16 19.9609C18 19.9609 18 18.4609 18 18.4609V12.4609" stroke="#424242" stroke-width="2" stroke-linecap="round" stroke-linejoin="round"/>
<path d="M14.5 23.9609C15.5 25.4609 18.5 26.9609 21 23.9609" stroke="#424242" stroke-width="2" stroke-linecap="round" stroke-linejoin="round"/>
<path d="M10 5H8C6.34315 5 5 6.34315 5 8V10" stroke="#424242" stroke-width="2" stroke-linecap="round" stroke-linejoin="round"/>
<path d="M10 31H8C6.34315 31 5 29.6569 5 28V26" stroke="#424242" stroke-width="2" stroke-linecap="round" stroke-linejoin="round"/>
<path d="M26 5H28C29.6569 5 31 6.34315 31 8V10" stroke="#424242" stroke-width="2" stroke-linecap="round" stroke-linejoin="round"/>
<path d="M26 31H28C29.6569 31 31 29.6569 31 28V26" stroke="#424242" stroke-width="2" stroke-linecap="round" stroke-linejoin="round"/>
</svg>
