<svg width="36" height="36" viewBox="0 0 36 36" fill="none" xmlns="http://www.w3.org/2000/svg">
<path d="M25.5 5.5H28.5C29.6046 5.5 30.5 6.39543 30.5 7.5V10.5" stroke="#424242" stroke-width="1.5" stroke-linecap="round" stroke-linejoin="round"/>
<path d="M25.5 30.5H28.5C29.6046 30.5 30.5 29.6046 30.5 28.5V25.5" stroke="#424242" stroke-width="1.5" stroke-linecap="round" stroke-linejoin="round"/>
<path d="M10.5 5.5H7.5C6.39543 5.5 5.5 6.39543 5.5 7.5V10.5" stroke="#424242" stroke-width="1.5" stroke-linecap="round" stroke-linejoin="round"/>
<path d="M10.5 30.5H7.5C6.39543 30.5 5.5 29.6046 5.5 28.5V25.5" stroke="#424242" stroke-width="1.5" stroke-linecap="round" stroke-linejoin="round"/>
<rect x="13.375" y="11.375" width="0.75" height="4.25" rx="0.375" stroke="#424242" stroke-width="0.75"/>
<rect x="22.375" y="11.375" width="0.75" height="4.25" rx="0.375" stroke="#424242" stroke-width="0.75"/>
<path d="M16.5 19.5C18.5 19.5 18.5 18 18.5 18V12" stroke="#424242" stroke-width="1.5" stroke-linecap="round" stroke-linejoin="round"/>
<path d="M15 23C16 24.5 19 26 21.5 23" stroke="#424242" stroke-width="1.5" stroke-linecap="round" stroke-linejoin="round"/>
</svg>
