<svg width="24" height="24" viewBox="0 0 24 24" fill="none" xmlns="http://www.w3.org/2000/svg">
<path fill-rule="evenodd" clip-rule="evenodd" d="M4.31462 4C2.89809 4 1.74976 5.14833 1.74976 6.56487V18.1068L1.75032 20.6716L4.31462 18.1068H19.7038C21.1204 18.1068 22.2687 16.9584 22.2687 15.5419V6.56487C22.2687 5.14833 21.1204 4 19.7038 4H4.31462Z" fill="#DCEAFC"/>
<path d="M8.80193 11.093C8.80193 11.8012 8.22776 12.3754 7.51949 12.3754C6.81123 12.3754 6.23706 11.8012 6.23706 11.093C6.23706 10.3847 6.81123 9.81055 7.51949 9.81055C8.22776 9.81055 8.80193 10.3847 8.80193 11.093Z" fill="#AFC3DC"/>
<path d="M13.2919 11.093C13.2919 11.8012 12.7178 12.3754 12.0095 12.3754C11.3012 12.3754 10.7271 11.8012 10.7271 11.093C10.7271 10.3847 11.3012 9.81055 12.0095 9.81055C12.7178 9.81055 13.2919 10.3847 13.2919 11.093Z" fill="#AFC3DC"/>
<path d="M17.7778 11.093C17.7778 11.8012 17.2036 12.3754 16.4953 12.3754C15.7871 12.3754 15.2129 11.8012 15.2129 11.093C15.2129 10.3847 15.7871 9.81055 16.4953 9.81055C17.2036 9.81055 17.7778 10.3847 17.7778 11.093Z" fill="#AFC3DC"/>
</svg>
