<svg width="36" height="36" viewBox="0 0 36 36" fill="none" xmlns="http://www.w3.org/2000/svg">
<path d="M5 8.875C5 7.83947 5.83303 7 6.86063 7H14.719C15.3422 7 15.9239 7.31435 16.2688 7.83739L23.686 19.0874C24.5077 20.3336 23.621 22 22.1362 22H6.86063C5.83303 22 5 21.1605 5 20.125V8.875Z" fill="#F3A735"/>
<path d="M26 17C26 16.4477 25.5025 16 24.8889 16H11.1111C10.4975 16 10 16.4477 10 17C10 17.5523 10.4975 18 11.1111 18H24.8889C25.5025 18 26 17.5523 26 17Z" fill="#AFC3DC"/>
<path d="M5 13C5 11.8954 5.89543 11 7 11H27C28.1046 11 29 11.8954 29 13V28C29 29.1046 28.1046 30 27 30H9C6.79086 30 5 28.2091 5 26V13Z" fill="#F3A735"/>
<path d="M13.0192 16.3115C13.308 15.5237 14.0579 15 14.8969 15H32.6365C34.0267 15 34.9928 16.3833 34.5142 17.6885L30.7214 28.0328C30.2881 29.2144 29.1633 30 27.9047 30H10.8636C9.47338 30 8.50724 28.6167 8.98582 27.3115L13.0192 16.3115Z" fill="#FFC737"/>
<path d="M8.61626 28.24L12.0203 19L14.9994 21.64V30H9.0418C8.02051 30 7.5 30 6.35938 29C7.38067 29.352 8.47442 28.68 8.61626 28.24Z" fill="#FFC737"/>
</svg>
