<svg width="36" height="36" viewBox="0 0 36 36" fill="none" xmlns="http://www.w3.org/2000/svg">
<path d="M5 20.25C5 18.0409 6.79086 16.25 9 16.25H29C30.1046 16.25 31 17.1454 31 18.25V28.25C31 30.4591 29.2091 32.25 27 32.25H9C6.79086 32.25 5 30.4591 5 28.25V20.25Z" fill="#F3A735"/>
<path d="M8.5 7.75C8.5 6.09315 9.84315 4.75 11.5 4.75H26.5C28.1569 4.75 29.5 6.09315 29.5 7.75V26.75C29.5 28.4069 28.1569 29.75 26.5 29.75H11.5C9.84315 29.75 8.5 28.4069 8.5 26.75V7.75Z" fill="#DCEAFC"/>
<path d="M5 22.25C5 20.0409 6.79086 18.25 9 18.25H26C27.1046 18.25 28 19.1454 28 20.25V28.25C28 30.4591 26.2091 32.25 24 32.25H9C6.79086 32.25 5 30.4591 5 28.25V22.25Z" fill="#FFC737"/>
<path fill-rule="evenodd" clip-rule="evenodd" d="M28 20.25H9C6.79086 20.25 5 22.0409 5 24.25V28.25C5 30.4591 6.79086 32.25 9 32.25H27C28.0187 32.25 28.9485 31.8692 29.6547 31.2421C29.6039 31.2473 29.5522 31.25 29.5 31.25C28.6716 31.25 28 30.5784 28 29.75V20.25Z" fill="#FFC737"/>
<path d="M5 16.25C5 15.1454 5.89543 14.25 7 14.25H13.2972C13.967 14.25 14.5924 14.5853 14.9631 15.1432L22.9359 27.1432C23.819 28.4725 22.866 30.25 21.27 30.25H7C5.89543 30.25 5 29.3546 5 28.25V16.25Z" fill="#FFC737"/>
<path d="M17 10.75C17 10.1977 17.4477 9.75 18 9.75H25C25.5523 9.75 26 10.1977 26 10.75C26 11.3023 25.5523 11.75 25 11.75H18C17.4477 11.75 17 11.3023 17 10.75Z" fill="#A1B3C9"/>
<path d="M17 14.75C17 14.1977 17.4477 13.75 18 13.75H25C25.5523 13.75 26 14.1977 26 14.75C26 15.3023 25.5523 15.75 25 15.75H18C17.4477 15.75 17 15.3023 17 14.75Z" fill="#A1B3C9"/>
</svg>
