<svg width="36" height="36" viewBox="0 0 36 36" fill="none" xmlns="http://www.w3.org/2000/svg">
<path d="M8 18.25C8 17.5596 8.55964 17 9.25 17H24.75C25.4404 17 26 17.5596 26 18.25C26 18.9404 25.4404 19.5 24.75 19.5H9.25C8.55964 19.5 8 18.9404 8 18.25Z" fill="#AFC3DC"/>
<path d="M5 19C5 16.7909 6.79086 15 9 15H29C30.1046 15 31 15.8954 31 17V27C31 29.2091 29.2091 31 27 31H9C6.79086 31 5 29.2091 5 27V19Z" fill="#F3A735"/>
<path d="M8 8C8 6.34315 9.34315 5 11 5H26C27.6569 5 29 6.34315 29 8V27C29 28.6569 27.6569 30 26 30H11C9.34315 30 8 28.6569 8 27V8Z" fill="#DCEAFC"/>
<path d="M5 21C5 18.7909 6.79086 17 9 17H26C27.1046 17 28 17.8954 28 19V27C28 29.2091 26.2091 31 24 31H9C6.79086 31 5 29.2091 5 27V21Z" fill="#FFC737"/>
<path fill-rule="evenodd" clip-rule="evenodd" d="M28 19H9C6.79086 19 5 20.7909 5 23V27C5 29.2091 6.79086 31 9 31H27C28.0187 31 28.9485 30.6192 29.6547 29.9921C29.6039 29.9973 29.5522 30 29.5 30C28.6716 30 28 29.3284 28 28.5V19Z" fill="#FFC737"/>
<path d="M5 15C5 13.8954 5.89543 13 7 13H13.2972C13.967 13 14.5924 13.3353 14.9631 13.8932L22.9359 25.8932C23.819 27.2225 22.866 29 21.27 29H7C5.89543 29 5 28.1046 5 27V15Z" fill="#FFC737"/>
<path d="M17 9.5C17 8.94772 17.4477 8.5 18 8.5H25C25.5523 8.5 26 8.94772 26 9.5C26 10.0523 25.5523 10.5 25 10.5H18C17.4477 10.5 17 10.0523 17 9.5Z" fill="#AFC3DC"/>
<path d="M17 13.5C17 12.9477 17.4477 12.5 18 12.5H25C25.5523 12.5 26 12.9477 26 13.5C26 14.0523 25.5523 14.5 25 14.5H18C17.4477 14.5 17 14.0523 17 13.5Z" fill="#AFC3DC"/>
</svg>
