<svg width="36" height="36" viewBox="0 0 36 36" fill="none" xmlns="http://www.w3.org/2000/svg">
<path d="M6 8.875C6 7.83947 6.83303 7 7.86063 7H15.719C16.3422 7 16.9239 7.31435 17.2688 7.83739L24.686 19.0874C25.5077 20.3336 24.621 22 23.1362 22H7.86063C6.83303 22 6 21.1605 6 20.125V8.875Z" fill="#F3A735"/>
<path d="M27 17C27 16.4477 26.5025 16 25.8889 16H12.1111C11.4975 16 11 16.4477 11 17C11 17.5523 11.4975 18 12.1111 18H25.8889C26.5025 18 27 17.5523 27 17Z" fill="#AFC3DC"/>
<path d="M30 15.5C30 13.0147 28.3469 11 26.3077 11H7.84615C6.82655 11 6 12.0074 6 13.25V24.5C6 26.9853 7.6531 29 9.69231 29H26.3077C28.3469 29 30 26.9853 30 24.5V15.5Z" fill="#F3A735"/>
<path d="M34.0455 18.6727C34.5106 17.3702 33.5451 16 32.162 16H15.0523C14.2071 16 13.4531 16.5313 13.1688 17.3273L10.9091 23.6547C9.9787 26.2596 11.9099 29 14.676 29H27.5383C29.2287 29 30.7367 27.9373 31.3052 26.3453L34.0455 18.6727Z" fill="#FFC737"/>
<path d="M9.61626 27.24L13.0203 18L15.9994 20.64V29H10.0418C9.02051 29 8.5 29 7.35938 28C8.38067 28.352 9.47442 27.68 9.61626 27.24Z" fill="#FFC737"/>
</svg>
