<svg width="24" height="24" viewBox="0 0 24 24" fill="none" xmlns="http://www.w3.org/2000/svg">
<path fill-rule="evenodd" clip-rule="evenodd" d="M3.00195 8.00107C3.00195 8.55335 3.44967 9.00107 4.00195 9.00107H12.1727C12.0621 8.68829 12.002 8.3517 12.002 8.00107C12.002 7.65043 12.0621 7.31385 12.1727 7.00107H4.00195C3.44967 7.00107 3.00195 7.44878 3.00195 8.00107ZM17.8312 7.00107C17.9418 7.31385 18.002 7.65043 18.002 8.00107C18.002 8.3517 17.9418 8.68829 17.8312 9.00107L20.002 9.00107C20.5542 9.00107 21.002 8.55335 21.002 8.00107C21.002 7.44878 20.5542 7.00107 20.002 7.00107H17.8312Z" fill="#757575"/>
<path fill-rule="evenodd" clip-rule="evenodd" d="M12.3436 16.9989C12.4451 16.6842 12.5 16.3485 12.5 16C12.5 15.6507 12.4449 15.3143 12.3429 14.9989H19.9978C20.5501 14.9989 20.9978 15.4466 20.9978 15.9989C20.9978 16.5512 20.5501 16.9989 19.9978 16.9989H12.3436ZM6.1564 16.9989H3.9978C3.44552 16.9989 2.9978 16.5512 2.9978 15.9989C2.9978 15.4466 3.44552 14.9989 3.9978 14.9989H6.15709C6.0551 15.3143 6 15.6507 6 16C6 16.3485 6.05486 16.6842 6.1564 16.9989Z" fill="#757575"/>
<circle cx="9.49854" cy="16" r="2.5" transform="rotate(-90 9.49854 16)" stroke="#757575" stroke-width="2"/>
<circle cx="14.5" cy="8" r="2.5" transform="rotate(-90 14.5 8)" stroke="#757575" stroke-width="2"/>
</svg>
