<svg width="24" height="24" viewBox="0 0 24 24" fill="none" xmlns="http://www.w3.org/2000/svg">
<path fill-rule="evenodd" clip-rule="evenodd" d="M3.00195 8.00107C3.00195 8.55335 3.44967 9.00107 4.00195 9.00107H12.1727C12.0621 8.68829 12.002 8.3517 12.002 8.00107C12.002 7.65043 12.0621 7.31385 12.1727 7.00107H4.00195C3.44967 7.00107 3.00195 7.44878 3.00195 8.00107ZM17.8312 7.00107C17.9418 7.31385 18.002 7.65043 18.002 8.00107C18.002 8.3517 17.9418 8.68829 17.8312 9.00107L20.002 9.00107C20.5542 9.00107 21.002 8.55335 21.002 8.00107C21.002 7.44878 20.5542 7.00107 20.002 7.00107H17.8312Z" fill="#757575"/>
<path fill-rule="evenodd" clip-rule="evenodd" d="M12.3436 16.9989C12.4451 16.6842 12.5 16.3485 12.5 16C12.5 15.6507 12.4449 15.3143 12.3429 14.9989H19.9978C20.5501 14.9989 20.9978 15.4466 20.9978 15.9989C20.9978 16.5512 20.5501 16.9989 19.9978 16.9989H12.3436ZM6.1564 16.9989H3.9978C3.44552 16.9989 2.9978 16.5512 2.9978 15.9989C2.9978 15.4466 3.44552 14.9989 3.9978 14.9989H6.15709C6.0551 15.3143 6 15.6507 6 16C6 16.3485 6.05486 16.6842 6.1564 16.9989Z" fill="#757575"/>
<path fill-rule="evenodd" clip-rule="evenodd" d="M10.9985 16C10.9985 15.1716 10.327 14.5 9.49854 14.5C8.67011 14.5 7.99854 15.1716 7.99854 16C7.99854 16.8284 8.67011 17.5 9.49854 17.5C10.327 17.5 10.9985 16.8284 10.9985 16ZM12.9985 16C12.9985 14.067 11.4315 12.5 9.49854 12.5C7.56554 12.5 5.99854 14.067 5.99854 16C5.99854 17.933 7.56554 19.5 9.49854 19.5C11.4315 19.5 12.9985 17.933 12.9985 16Z" fill="#757575"/>
<path fill-rule="evenodd" clip-rule="evenodd" d="M16 8C16 7.17157 15.3284 6.5 14.5 6.5C13.6716 6.5 13 7.17157 13 8C13 8.82843 13.6716 9.5 14.5 9.5C15.3284 9.5 16 8.82843 16 8ZM18 8C18 6.067 16.433 4.5 14.5 4.5C12.567 4.5 11 6.067 11 8C11 9.933 12.567 11.5 14.5 11.5C16.433 11.5 18 9.933 18 8Z" fill="#757575"/>
</svg>
