<svg width="36" height="36" viewBox="0 0 36 36" fill="none" xmlns="http://www.w3.org/2000/svg">
<path fill-rule="evenodd" clip-rule="evenodd" d="M4.14575 23.1661C4.7604 22.2102 5.28991 21.1978 5.72608 20.1399C6.22225 18.9558 6.52608 17.6999 6.62609 16.4199C6.65393 13.0901 8.0034 9.90778 10.3776 7.57295C12.7518 5.23812 15.9563 3.94207 19.2861 3.96992C22.6159 3.99777 25.7982 5.34723 28.1331 7.72144C30.4679 10.0957 31.7639 13.3001 31.7361 16.6299C31.6104 20.1868 30.9566 23.7053 29.7961 27.0699C29.7474 27.218 29.6979 27.3657 29.6476 27.5131C28.9774 28.0048 28.2741 28.4493 27.543 28.8435C27.835 28.1016 28.1062 27.3501 28.3561 26.5899C29.4559 23.3739 30.0857 20.0159 30.2261 16.6199C30.236 15.1678 29.9594 13.728 29.4122 12.3828C28.865 11.0377 28.0579 9.8137 27.0371 8.78085C26.0163 7.74799 24.8019 6.92657 23.4633 6.36359C22.1247 5.80061 20.6882 5.50712 19.2361 5.49992H19.1761C16.2554 5.49856 13.4531 6.65409 11.3822 8.71369C9.3114 10.7733 8.14063 13.5693 8.12609 16.4899C8.0227 17.9424 7.68149 19.368 7.11609 20.7099C6.57369 22.024 5.89812 23.2734 5.10281 24.4396C4.76548 24.0298 4.44611 23.6049 4.14575 23.1661ZM6.10773 25.5613C7.10971 24.1386 7.93998 22.5944 8.57608 20.9599C9.14391 19.5352 9.48472 18.0303 9.58608 16.4999C9.60245 16.3022 9.69508 16.1186 9.84438 15.988C9.99368 15.8573 10.188 15.7899 10.3861 15.7999C10.4846 15.8064 10.5809 15.8322 10.6694 15.876C10.7579 15.9197 10.837 15.9805 10.902 16.0548C10.967 16.1291 11.0167 16.2155 11.0483 16.309C11.0799 16.4026 11.0927 16.5014 11.0861 16.5999C10.9787 18.2851 10.604 19.9424 9.97608 21.5099C9.2702 23.3247 8.34076 25.0355 7.21452 26.6052C6.83074 26.2727 6.4615 25.9244 6.10773 25.5613ZM25.6292 29.7348C26.1267 28.6007 26.5731 27.4413 26.9661 26.2599C28.0465 23.1582 28.6566 19.9123 28.7761 16.6299C28.7771 15.7442 28.656 14.8625 28.4161 14.0099C28.3617 13.8176 28.2332 13.6548 28.0588 13.5573C27.8844 13.4598 27.6784 13.4356 27.4861 13.4899C27.2938 13.5443 27.131 13.6728 27.0335 13.8472C26.936 14.0216 26.9117 14.2276 26.9661 14.4199C27.1739 15.1381 27.2783 15.8823 27.2761 16.6299C27.1505 19.7514 26.5677 22.8376 25.5461 25.7899C25.0223 27.363 24.4004 28.8955 23.6859 30.3794C24.3474 30.201 24.9962 29.9856 25.6292 29.7348ZM21.8571 30.7718C22.7462 29.0654 23.5058 27.2867 24.1261 25.4499C24.1576 25.3567 24.1704 25.2582 24.1639 25.1599C24.1573 25.0617 24.1315 24.9658 24.0878 24.8776C24.0442 24.7894 23.9836 24.7106 23.9095 24.6458C23.8354 24.581 23.7493 24.5314 23.6561 24.4999C23.5628 24.4684 23.4643 24.4556 23.3661 24.4621C23.2679 24.4687 23.172 24.4945 23.0837 24.5382C22.9955 24.5818 22.9168 24.6424 22.852 24.7165C22.7872 24.7906 22.7376 24.8767 22.7061 24.9699C22.0013 27.0552 21.1097 29.0626 20.0468 30.9695C20.6512 30.9343 21.2554 30.8685 21.8571 30.7718ZM9.57114 28.3328C10.9047 26.4751 11.9914 24.4409 12.7961 22.2799C12.9861 21.7699 13.1361 21.2899 13.2661 20.8499C13.6934 19.4635 13.9454 18.029 14.0161 16.5799C14.0201 15.2162 14.5642 13.9096 15.5295 12.9462C16.4947 11.9829 17.8024 11.4412 19.1661 11.4399H19.1861C20.5498 11.4439 21.8564 11.9881 22.8198 12.9533C23.7831 13.9185 24.3248 15.2262 24.3261 16.5899C24.2655 18.4388 24.0074 20.2759 23.5561 22.0699C23.507 22.2622 23.5363 22.4661 23.6376 22.6368C23.7389 22.8074 23.9038 22.9309 24.0961 22.9799C24.2884 23.029 24.4923 22.9997 24.6629 22.8984C24.8336 22.7971 24.957 22.6322 25.0061 22.4399C25.4956 20.5366 25.7706 18.5844 25.8261 16.6199C25.8299 15.7463 25.6613 14.8805 25.33 14.0722C24.9986 13.2638 24.511 12.5288 23.8951 11.9092C23.2793 11.2896 22.5472 10.7976 21.7408 10.4614C20.9345 10.1252 20.0697 9.95136 19.1961 9.94992C18.3211 9.935 17.4522 10.0984 16.6425 10.4302C15.8327 10.7621 15.099 11.2553 14.4861 11.8799C13.8673 12.4883 13.3754 13.2135 13.0389 14.0134C12.7025 14.8134 12.5282 15.6721 12.5261 16.5399C12.4555 17.8566 12.2238 19.1596 11.8361 20.4199C11.7161 20.8399 11.5661 21.2899 11.3961 21.7599C10.63 23.8081 9.59601 25.7356 8.32764 27.4948C8.72931 27.7905 9.1441 28.0702 9.57114 28.3328ZM13.6286 30.1798C18.343 23.1845 18.4261 16.7047 18.4261 16.6199C18.4274 16.4214 18.5068 16.2314 18.6472 16.091C18.7876 15.9507 18.9776 15.8712 19.1761 15.8699C19.3746 15.8712 19.5646 15.9507 19.705 16.091C19.8453 16.2314 19.9248 16.4214 19.9261 16.6199C19.9261 16.975 19.8576 23.4489 15.1841 30.5908C14.6604 30.4772 14.1413 30.3401 13.6286 30.1798ZM16.7342 30.8568C18.0384 28.7574 19.108 26.5088 19.9161 24.1499C20.7793 21.7278 21.2715 19.1891 21.3761 16.6199C21.3799 16.182 21.2509 15.7531 21.0061 15.3899C20.767 15.0247 20.4214 14.7419 20.0161 14.5799C19.6147 14.4128 19.173 14.3676 18.7461 14.4499C18.3173 14.5307 17.9232 14.74 17.6161 15.0499C17.5474 15.1236 17.4646 15.1827 17.3726 15.2237C17.2806 15.2647 17.1813 15.2867 17.0806 15.2885C16.9799 15.2903 16.8799 15.2718 16.7865 15.234C16.6931 15.1963 16.6083 15.1402 16.537 15.069C16.4658 14.9977 16.4097 14.9129 16.372 14.8195C16.3342 14.7261 16.3157 14.6261 16.3175 14.5254C16.3193 14.4247 16.3413 14.3254 16.3823 14.2334C16.4233 14.1414 16.4824 14.0586 16.5561 13.9899C17.0745 13.4712 17.7362 13.1195 18.4561 12.9799C19.1748 12.8357 19.9202 12.909 20.597 13.1904C21.2739 13.4718 21.8515 13.9486 22.2561 14.5599C22.6627 15.1698 22.8786 15.8869 22.8761 16.6199C22.774 19.3528 22.2547 22.054 21.3361 24.6299C20.5655 26.8527 19.5755 28.9823 18.3861 30.9895C17.8333 30.9706 17.2821 30.9263 16.7342 30.8568ZM25.139 11.0532C25.23 11.091 25.3276 11.1103 25.4261 11.1099V11.1199C25.5246 11.1203 25.6222 11.101 25.7132 11.0632C25.8042 11.0255 25.8868 10.9699 25.9561 10.8999C26.0956 10.7588 26.1738 10.5684 26.1738 10.3699C26.1738 10.1715 26.0956 9.98106 25.9561 9.83992C25.0687 8.95058 24.0155 8.24391 22.8561 7.75992C21.6945 7.27061 20.4466 7.01899 19.1861 7.01992H19.1661C16.632 7.01724 14.2006 8.02075 12.4061 9.80992C12.3324 9.87858 12.2733 9.96138 12.2323 10.0534C12.1913 10.1454 12.1693 10.2447 12.1675 10.3454C12.1657 10.4461 12.1842 10.5461 12.222 10.6395C12.2597 10.7329 12.3158 10.8177 12.387 10.889C12.4583 10.9602 12.5431 11.0163 12.6365 11.054C12.7299 11.0918 12.8299 11.1103 12.9306 11.1085C13.0313 11.1067 13.1306 11.0847 13.2226 11.0437C13.3146 11.0027 13.3974 10.9436 13.4661 10.8699C14.2181 10.118 15.1121 9.52315 16.0961 9.11992C17.0734 8.71844 18.1195 8.51124 19.1761 8.50992H19.1861C20.2476 8.51142 21.2984 8.72243 22.2783 9.13084C23.2581 9.53925 24.1477 10.137 24.8961 10.8899C24.9654 10.9599 25.048 11.0155 25.139 11.0532ZM12.3976 28.0812C12.5128 28.1471 12.6434 28.1811 12.7761 28.1799C12.9074 28.1809 13.0367 28.1472 13.1508 28.0823C13.2649 28.0173 13.3599 27.9234 13.4261 27.8099C14.3185 26.2954 15.062 24.6979 15.6461 23.0399C16.4085 20.9722 16.8536 18.8009 16.9661 16.5999C16.9675 16.5014 16.9495 16.4035 16.9131 16.312C16.8767 16.2204 16.8225 16.137 16.7538 16.0664C16.6851 15.9958 16.6031 15.9394 16.5125 15.9006C16.4219 15.8617 16.3246 15.8411 16.2261 15.8399C16.0291 15.8438 15.841 15.9224 15.6999 16.0598C15.5588 16.1972 15.4752 16.3832 15.4661 16.5799C15.3538 18.6175 14.9358 20.6266 14.2261 22.5399C13.6717 24.1069 12.9685 25.6171 12.1261 27.0499C12.0583 27.164 12.0221 27.294 12.0212 27.4267C12.0203 27.5594 12.0546 27.6899 12.1208 27.8049C12.1869 27.9199 12.2825 28.0153 12.3976 28.0812Z" fill="#5478AC"/>
</svg>
