<svg width="36" height="36" viewBox="0 0 36 36" fill="none" xmlns="http://www.w3.org/2000/svg">
<path fill-rule="evenodd" clip-rule="evenodd" d="M17.5828 21.1449C18.0318 21.0079 18.5068 21.2607 18.6439 21.7097C19.1673 23.4241 20.0623 24.7794 21.5785 26.1251C22.8968 27.295 24.693 27.7427 26.4413 28.0442C26.9039 28.1239 27.2142 28.5636 27.1345 29.0262C27.0547 29.4888 26.615 29.7992 26.1524 29.7194C24.3848 29.4147 22.1573 28.9117 20.4501 27.3965C18.7277 25.8679 17.6429 24.2534 17.018 22.2061C16.8809 21.7571 17.1338 21.282 17.5828 21.1449Z" fill="#143B75"/>
<path fill-rule="evenodd" clip-rule="evenodd" d="M10.3168 20.1193C10.7407 17.9999 12.9767 14.198 17.6491 14.198C22.3406 14.198 25.0339 18.1666 26.2306 21.5566C26.3868 21.9993 26.1547 22.4848 25.712 22.6411C25.2693 22.7973 24.7838 22.5652 24.6275 22.1225C23.4952 18.9148 21.2061 15.898 17.6491 15.898C14.073 15.898 12.3125 18.8093 11.9838 20.4527C11.7198 21.7727 11.7138 22.8636 11.9238 23.9075C12.1354 24.9597 12.5751 26.0091 13.2617 27.2392C14.0684 28.6846 15.1185 29.6748 16.2949 30.6017C16.6637 30.8922 16.7271 31.4266 16.4366 31.7954C16.1461 32.1641 15.6116 32.2275 15.2429 31.937C13.986 30.9468 12.7401 29.7929 11.7773 28.0677C11.0437 26.7535 10.5164 25.5318 10.2571 24.2427C9.99624 22.9453 10.0158 21.6246 10.3168 20.1193Z" fill="#143B75"/>
<path fill-rule="evenodd" clip-rule="evenodd" d="M21.9367 13.4203C18.9434 11.8509 14.8318 11.4887 11.3544 15.1027C9.63665 16.888 8.80848 19.4909 8.65638 22.0482C8.50307 24.626 9.04713 26.9589 9.84916 28.1619C10.1096 28.5525 10.004 29.0803 9.61341 29.3407C9.22281 29.6011 8.69508 29.4955 8.43468 29.1049C7.35319 27.4827 6.79364 24.734 6.95938 21.9473C7.12635 19.1401 8.03993 16.0956 10.1294 13.924C14.2664 9.62444 19.2539 10.0943 22.7261 11.9147C26.1755 13.7232 28.3094 16.5885 29.2129 19.9442C29.5852 21.3272 29.6828 22.6025 29.3145 23.682C28.9284 24.8137 28.0785 25.5945 26.8651 26.0449C25.4944 26.5537 24.191 26.1616 23.0992 25.2828C22.0345 24.4259 21.1125 23.0722 20.3457 21.4674C19.7076 20.1322 19.003 19.5679 18.4218 19.3654C17.8437 19.164 17.2209 19.2622 16.6177 19.5998C15.7557 20.0823 15.3998 20.9671 15.4178 22.0795C15.436 23.2057 15.8489 24.3925 16.3157 25.1338C17.3025 26.7011 18.7483 28.394 20.9477 29.1736C21.3901 29.3304 21.6217 29.8163 21.4648 30.2587C21.308 30.7012 20.8222 30.9327 20.3797 30.7759C17.6576 29.8111 15.9513 27.7456 14.8771 26.0396C14.2583 25.0568 13.7416 23.5692 13.718 22.107C13.6941 20.6311 14.184 19.0137 15.7874 18.1163C16.7008 17.6052 17.8331 17.3601 18.981 17.7601C20.1257 18.1588 21.1178 19.1404 21.8796 20.7345C22.5939 22.2294 23.3812 23.3275 24.165 23.9584C24.9217 24.5674 25.606 24.699 26.2735 24.4512C27.0981 24.1451 27.5131 23.6973 27.7056 23.133C27.9159 22.5166 27.9058 21.6287 27.5713 20.3862C26.7872 17.4739 24.953 15.0017 21.9367 13.4203Z" fill="#143B75"/>
<path fill-rule="evenodd" clip-rule="evenodd" d="M12.1243 10.3728C10.3247 11.4351 8.83532 12.8614 8.12211 14.3473C7.91896 14.7705 7.4112 14.9489 6.98799 14.7458C6.56478 14.5426 6.38637 14.0349 6.58952 13.6117C7.49658 11.7219 9.28391 10.0754 11.2601 8.90886C13.2386 7.74089 15.5247 6.98389 17.5256 6.98389C22.3368 6.98389 26.8894 9.41095 29.3881 13.9281C29.6154 14.3389 29.4666 14.8561 29.0558 15.0833C28.645 15.3106 28.1278 15.1618 27.9006 14.751C25.7187 10.8067 21.7553 8.68389 17.5256 8.68389C15.9102 8.68389 13.9215 9.31189 12.1243 10.3728Z" fill="#143B75"/>
<path fill-rule="evenodd" clip-rule="evenodd" d="M17.8012 5.44536C13.5464 5.44536 11.1959 7.05505 9.60285 8.46955C9.25181 8.78124 8.71457 8.74934 8.40288 8.3983C8.09119 8.04727 8.12309 7.51002 8.47412 7.19834C10.2797 5.59519 13.0151 3.74536 17.8012 3.74536C22.5302 3.74536 26.0392 5.6045 27.6496 7.23703C27.9793 7.57124 27.9756 8.10941 27.6414 8.43908C27.3072 8.76875 26.769 8.76507 26.4393 8.43086C25.1739 7.14803 22.113 5.44536 17.8012 5.44536Z" fill="#143B75"/>
</svg>
