<svg width="36" height="36" viewBox="0 0 36 36" fill="none" xmlns="http://www.w3.org/2000/svg">
<path d="M4.5 13C4.5 10.7909 6.29086 9 8.5 9H29.5C30.6046 9 31.5 9.89543 31.5 11V25C31.5 27.2091 29.7091 29 27.5 29H8.5C6.29086 29 4.5 27.2091 4.5 25V13Z" fill="#F3A735"/>
<path d="M4.5 15C4.5 12.7909 6.29086 11 8.5 11H29.5C30.6046 11 31.5 11.8954 31.5 13V26C31.5 28.2091 29.7091 30 27.5 30H8.5C6.29086 30 4.5 28.2091 4.5 26V15Z" fill="#FFC737"/>
<path d="M4.5 8C4.5 6.89543 5.39543 6 6.5 6H13.1784C13.9292 6 14.6168 6.42054 14.9588 7.08896L24.146 25.0435C24.827 26.3743 23.8605 27.9546 22.3656 27.9546H6.5C5.39543 27.9546 4.5 27.0591 4.5 25.9546V8Z" fill="#FFC737"/>
</svg>
