<svg width="36" height="37" viewBox="0 0 36 37" fill="none" xmlns="http://www.w3.org/2000/svg">
<path d="M4.5 13.5C4.5 11.2909 6.29086 9.5 8.5 9.5H29.5C30.6046 9.5 31.5 10.3954 31.5 11.5V25.5C31.5 27.7091 29.7091 29.5 27.5 29.5H8.5C6.29086 29.5 4.5 27.7091 4.5 25.5V13.5Z" fill="#F3A735"/>
<path d="M4.5 15.5C4.5 13.2909 6.29086 11.5 8.5 11.5H29.5C30.6046 11.5 31.5 12.3954 31.5 13.5V26.5C31.5 28.7091 29.7091 30.5 27.5 30.5H8.5C6.29086 30.5 4.5 28.7091 4.5 26.5V15.5Z" fill="#FFC737"/>
<path d="M4.5 8.5C4.5 7.39543 5.39543 6.5 6.5 6.5H13.1784C13.9292 6.5 14.6168 6.92054 14.9588 7.58896L24.146 25.5435C24.827 26.8743 23.8605 28.4546 22.3656 28.4546H6.5C5.39543 28.4546 4.5 27.5591 4.5 26.4546V8.5Z" fill="#FFC737"/>
</svg>
