<svg width="36" height="36" viewBox="0 0 36 36" fill="none" xmlns="http://www.w3.org/2000/svg">
<path d="M21.0303 14.4855C21.0303 12.9519 22.0679 11.461 22.6357 11.7445C23.2808 12.0679 22.1524 13.5133 21.0303 14.4855ZM13.9612 15.046C13.9612 13.8122 15.1795 11.4655 15.9245 11.7127C16.8031 12.0052 15.1959 14.3719 13.9612 15.046ZM12.7275 23.8722C12.1669 23.8976 11.7935 23.5388 11.7935 22.941C11.7935 21.3329 14.0221 19.7984 15.7056 18.9744C15.4067 21.2184 14.649 23.7841 12.7275 23.8722ZM23.0118 18.6364C21.7417 18.6364 20.7678 19.5722 20.7678 20.6933C20.7678 21.6291 21.3283 22.3759 22.0769 22.3759C22.3395 22.3759 22.5993 22.2269 22.5993 21.8898C22.5993 21.4038 21.9552 21.2856 22.0052 20.558C22.0369 20.0783 22.4885 19.7576 22.9364 19.7576C23.834 19.7576 24.2537 20.627 24.2537 21.5246C24.2156 22.9082 23.1981 23.8712 22.0016 23.8712C20.4307 23.8712 19.4223 22.375 19.4223 20.766C19.4223 18.373 20.9922 17.4381 21.8144 17.2137C21.8225 17.2137 23.9657 17.5962 23.8985 16.6513C23.8695 16.2371 23.2516 16.0781 22.8038 16.059C22.3068 16.039 21.808 16.218 21.808 16.218C21.5464 16.0863 21.3656 15.8291 21.2548 15.5311C22.7874 14.3709 23.8722 13.2499 23.8722 11.9779C23.8722 11.3047 23.4233 10.706 22.563 10.706C21.0303 10.706 19.8702 12.6502 19.8702 14.4082C19.8702 14.7071 19.8702 15.0069 19.9455 15.2686C18.9735 15.979 18.2503 16.4196 16.9411 17.2055C16.9411 17.0411 16.9757 16.6205 17.0856 16.0717C17.5344 15.5857 18.1504 14.8579 18.1504 14.2964C18.1504 14.0348 18.0014 13.8104 17.7016 13.8104C16.9538 13.8104 16.3933 14.9316 16.2434 15.7174C15.9064 16.129 15.2341 16.6531 14.6726 16.6531C14.2238 16.6531 14.0748 16.2407 14.0366 16.0917C15.4584 15.6047 17.2155 13.6605 17.2155 11.9025C17.2155 11.5282 17.0656 10.7051 15.9445 10.7051C14.261 10.7051 12.8401 13.2108 12.8401 15.1559C12.2414 15.1559 12.0179 14.52 12.0179 14.0339C12.0179 13.5478 12.2051 13.0609 12.2051 12.9119C12.2051 12.7629 12.1297 12.5748 11.9053 12.5748C11.3438 12.5748 11.0077 13.3226 11.0077 14.1829C11.0458 15.3794 11.8308 16.128 12.8783 16.2025C13.0282 16.913 13.6641 17.5862 14.4491 17.5862C14.936 17.5862 15.5338 17.4372 15.9454 17.0629C15.9072 17.3254 15.8709 17.549 15.8328 17.7733C14.1874 18.6337 12.9909 19.2324 11.9062 20.2036C11.0467 20.9895 10.5598 22.0361 10.5598 22.8601C10.5598 23.9821 11.2702 25.0278 12.7284 25.0278C14.4491 25.0278 15.7574 23.645 16.3933 21.7371C16.6931 20.8395 16.813 19.534 16.8875 18.3366C18.6082 17.3645 19.4241 16.8012 20.3199 16.1652C20.4326 16.3524 20.5461 16.5023 20.6942 16.6141C19.9093 17.0256 18.0395 18.1849 18.0395 20.914C18.0395 22.8592 19.3487 25.0278 21.9288 25.0278C24.0602 25.0278 25.5193 23.2716 25.5193 21.5882C25.5193 20.0546 24.6589 18.6337 23.0127 18.6337L23.0118 18.6364ZM29.4413 21.848C29.4349 21.8598 29.4132 21.877 29.3722 21.8625C29.3405 21.8507 29.3305 21.8343 29.3314 21.8144C29.3333 21.7926 29.7838 20.4625 29.7811 18.9353C29.7757 17.2891 29.107 16.2797 28.2485 16.2797C27.7243 16.2797 27.3509 16.654 27.3509 17.2146C27.3509 18.2248 28.5846 18.2993 28.5846 20.5062C28.5846 21.4038 28.3974 22.2623 28.0986 23.199C26.7149 27.8733 22.3014 30.0419 18.0014 30.0419C16.019 30.0419 14.6099 29.6348 14.1902 29.4468C14.1729 29.4387 14.1592 29.405 14.172 29.3723C14.182 29.3459 14.2111 29.3268 14.2265 29.3341C14.3973 29.4014 15.6066 29.7811 17.1019 29.7811C18.7473 29.7811 19.7203 29.1088 19.7203 28.2839C19.7203 27.7615 19.3087 27.35 18.7845 27.35C17.7752 27.35 17.6997 28.6209 15.5311 28.6209C14.5962 28.6209 13.7741 28.4347 12.8011 28.1349C8.16402 26.714 5.95361 22.3377 5.95725 17.9995C5.95907 15.8873 6.55051 14.2047 6.5605 14.1884C6.56776 14.1775 6.59412 14.1657 6.62682 14.1775C6.66044 14.1884 6.66952 14.2175 6.66589 14.2256C6.61138 14.401 6.2189 15.6066 6.2189 17.1019C6.2189 18.7481 6.89211 19.7203 7.75156 19.7203C8.23761 19.7203 8.64917 19.346 8.64917 18.8236C8.64917 17.8133 7.41541 17.7016 7.41541 15.5321C7.41541 14.5962 7.60257 13.7741 7.90146 12.802C9.32237 8.16493 13.6978 5.99086 17.9995 5.95816C19.9983 5.94272 21.7481 6.54051 21.8135 6.5932C21.8253 6.6032 21.838 6.62955 21.8253 6.66044C21.8116 6.69496 21.788 6.6995 21.7762 6.69769C21.7554 6.69496 20.6179 6.21981 18.8962 6.21981C17.2891 6.21981 16.2797 6.89211 16.2797 7.75338C16.2797 8.23943 16.6531 8.65008 17.2137 8.65008C18.224 8.65008 18.2993 7.41632 20.4671 7.41632C21.4028 7.41632 22.2241 7.60347 23.1971 7.90237C27.8733 9.32328 30.0009 13.7368 30.0409 17.9995C30.0619 20.1836 29.4459 21.8371 29.4404 21.848H29.4413ZM18.0014 5.13414C10.8959 5.13414 5.13505 10.8941 5.13505 17.9986C5.13505 25.1032 10.895 30.8631 18.0014 30.8631C25.1077 30.8631 30.865 25.105 30.865 17.9986C30.865 10.8923 25.1069 5.13414 18.0014 5.13414ZM18.0014 31.5C10.5589 31.5 4.5 25.4793 4.5 17.9995C4.5 10.5198 10.557 4.5 17.9995 4.5C25.4421 4.5 31.5 10.5579 31.5 18.0005C31.5 25.443 25.4402 31.5009 17.9995 31.5009L18.0014 31.5Z" fill="#640ACD"/>
</svg>
