<svg width="36" height="37" viewBox="0 0 36 37" fill="none" xmlns="http://www.w3.org/2000/svg">
<path d="M5.5 12.5C5.5 10.8432 6.84314 9.5 8.49998 9.5H27.5C29.1569 9.5 30.5 10.8432 30.5 12.5V28.5C30.5 30.1569 29.1569 31.5 27.5 31.5H8.49998C6.84314 31.5 5.5 30.1569 5.5 28.5V12.5Z" fill="#FFC737"/>
<path d="M4.5 12.5C4.5 10.8431 5.84314 9.5 7.49998 9.5H28.5C30.1569 9.5 31.5 10.8431 31.5 12.5V15.4999C31.5 16.0522 31.0523 16.4999 30.5 16.4999H5.49999C4.94771 16.4999 4.5 16.0522 4.5 15.4999V12.5Z" fill="#FFA514"/>
<path d="M12.2857 4.49609C12.1279 4.49609 12 4.62401 12 4.78181V9.49604H18C18 6.73464 15.7614 4.49609 13.0001 4.49609H12.2857Z" fill="#20C7BF"/>
<path d="M23.7182 4.49609C23.876 4.49609 24.0039 4.62401 24.0039 4.78181V9.49604H18.0039C18.0039 6.73464 20.2425 4.49609 23.0038 4.49609H23.7182Z" fill="#20C7BF"/>
<rect x="16" y="9.5" width="4" height="22" fill="#20C7BF"/>
</svg>
