<svg width="36" height="36" viewBox="0 0 36 36" fill="none" xmlns="http://www.w3.org/2000/svg">
<path d="M31.3813 18.9727C32.9582 24.8578 28.6317 27.5295 22.3263 29.219C19.166 30.0658 15.0473 29.2957 12.4781 27.8188C9.92122 26.3489 8.98703 23.8802 8.20047 20.9447C6.62357 15.0596 12.0499 17.7611 18.3553 16.0716C24.6607 14.3821 29.8044 13.0876 31.3813 18.9727Z" fill="#757575"/>
<circle cx="24.25" cy="22.5" r="5.25" fill="white"/>
<circle cx="22.75" cy="19.5" r="0.75" fill="#BDBDBD"/>
<circle cx="24.25" cy="21.75" r="0.75" fill="#BDBDBD"/>
<circle cx="21.25" cy="21.75" r="0.75" fill="#BDBDBD"/>
<rect x="20.5" y="27" width="7.5" height="1.5" rx="0.75" fill="#088E88"/>
<path d="M22.75 28.5H25.75L25.1233 32.2602C25.0521 32.6871 24.6828 33 24.25 33C23.8172 33 23.4479 32.6871 23.3767 32.2602L22.75 28.5Z" fill="#088E88"/>
<rect x="4.47461" y="4.44727" width="3.22831" height="20.4295" rx="1" transform="rotate(-15 4.47461 4.44727)" fill="#BDBDBD"/>
<rect x="6.32715" y="13.3738" width="4.34476" height="11.5633" rx="1" transform="rotate(-15 6.32715 13.3738)" fill="#757575"/>
</svg>
