<svg width="36" height="36" viewBox="0 0 36 36" fill="none" xmlns="http://www.w3.org/2000/svg">
<path d="M31.7125 18.7913C33.3334 24.8407 28.4471 26.6612 21.9656 28.3979C15.4841 30.1346 8.91574 26.6385 7.29481 20.5891C5.67387 14.5397 11.8413 17.546 18.3228 15.8092C24.8043 14.0725 30.0916 12.7419 31.7125 18.7913Z" fill="#666666"/>
<circle cx="23.25" cy="22.5" r="5.25" fill="#F5F6F6"/>
<circle cx="21.75" cy="19.5" r="0.75" fill="#BDBDBD"/>
<circle cx="23.25" cy="21.75" r="0.75" fill="#BDBDBD"/>
<circle cx="20.25" cy="21.75" r="0.75" fill="#BDBDBD"/>
<rect x="19.5" y="27" width="7.5" height="1.5" rx="0.75" fill="#088E88"/>
<path d="M21.75 28.5H24.75L24.1233 32.2602C24.0521 32.6871 23.6828 33 23.25 33C22.8172 33 22.4479 32.6871 22.3767 32.2602L21.75 28.5Z" fill="#088E88"/>
<rect x="4.05469" y="3.85938" width="3.31846" height="21" rx="1" transform="rotate(-15 4.05469 3.85938)" fill="#BDBDBD"/>
<rect x="5.96094" y="13.0352" width="4.46608" height="11.8862" rx="1" transform="rotate(-15 5.96094 13.0352)" fill="#666666"/>
</svg>
