<svg width="36" height="36" viewBox="0 0 36 36" fill="none" xmlns="http://www.w3.org/2000/svg">
<path d="M31.3813 18.9727C32.9582 24.8578 28.6317 27.5295 22.3263 29.219C19.166 30.0658 15.0473 29.2957 12.4781 27.8188C9.92122 26.3489 8.98703 23.8802 8.20047 20.9447C6.62357 15.0596 12.0499 17.7611 18.3553 16.0716C24.6607 14.3821 29.8044 13.0876 31.3813 18.9727Z" fill="#757575"/>
<path d="M29.5 22.5C29.5 25.3995 27.1495 27.75 24.25 27.75C21.3505 27.75 19 25.3995 19 22.5C19 19.6005 21.3505 17.25 24.25 17.25C27.1495 17.25 29.5 19.6005 29.5 22.5Z" fill="white"/>
<path d="M23.5 19.5C23.5 19.9142 23.1642 20.25 22.75 20.25C22.3358 20.25 22 19.9142 22 19.5C22 19.0858 22.3358 18.75 22.75 18.75C23.1642 18.75 23.5 19.0858 23.5 19.5Z" fill="#BDBDBD"/>
<path d="M25 21.75C25 22.1642 24.6642 22.5 24.25 22.5C23.8358 22.5 23.5 22.1642 23.5 21.75C23.5 21.3358 23.8358 21 24.25 21C24.6642 21 25 21.3358 25 21.75Z" fill="#BDBDBD"/>
<path d="M22 21.75C22 22.1642 21.6642 22.5 21.25 22.5C20.8358 22.5 20.5 22.1642 20.5 21.75C20.5 21.3358 20.8358 21 21.25 21C21.6642 21 22 21.3358 22 21.75Z" fill="#BDBDBD"/>
<path d="M20.5 27.75C20.5 27.3358 20.8358 27 21.25 27H27.25C27.6642 27 28 27.3358 28 27.75C28 28.1642 27.6642 28.5 27.25 28.5H21.25C20.8358 28.5 20.5 28.1642 20.5 27.75Z" fill="#00A69E"/>
<path d="M22.75 28.5H25.75L25.1233 32.2602C25.0521 32.6871 24.6828 33 24.25 33C23.8172 33 23.4479 32.6871 23.3767 32.2602L22.75 28.5Z" fill="#00A69E"/>
<path d="M4.73343 5.41319C4.59049 4.87973 4.90707 4.33139 5.44054 4.18845L6.62699 3.87054C7.16046 3.72759 7.70879 4.04418 7.85174 4.57764L12.6216 22.3792C12.7646 22.9127 12.448 23.461 11.9145 23.604L10.7281 23.9219C10.1946 24.0648 9.64628 23.7482 9.50334 23.2148L4.73343 5.41319Z" fill="#BDBDBD"/>
<path d="M6.58597 14.3397C6.44303 13.8062 6.75961 13.2579 7.29307 13.115L9.55794 12.5081C10.0914 12.3652 10.6397 12.6817 10.7827 13.2152L13.2579 22.4527C13.4008 22.9861 13.0842 23.5345 12.5507 23.6774L10.2859 24.2843C9.75242 24.4272 9.20408 24.1106 9.06114 23.5772L6.58597 14.3397Z" fill="#757575"/>
</svg>
