<svg width="24" height="24" viewBox="0 0 24 24" fill="none" xmlns="http://www.w3.org/2000/svg">
<rect x="4.17188" y="17.999" width="5.25" height="2.25" rx="1.125" fill="#435062"/>
<rect x="3" y="3.99805" width="18" height="15" rx="2" fill="#99ABC1"/>
<rect x="4.99951" y="5.99805" width="11" height="11" rx="1.5" fill="#435062"/>
<circle cx="18.5005" cy="10.6895" r="1" fill="#DCEAFC"/>
<circle cx="18.5005" cy="6.99805" r="1" fill="#DCEAFC"/>
<path d="M23.002 18.166C23.002 20.6513 20.9872 22.666 18.502 22.666C16.0167 22.666 14.002 20.6513 14.002 18.166C14.002 15.6807 16.0167 13.666 18.502 13.666C20.9872 13.666 23.002 15.6807 23.002 18.166Z" fill="#0168FE"/>
<path d="M20.0455 16.1918C20.1773 16.06 20.391 16.06 20.5228 16.1918C20.6546 16.3236 20.6546 16.5373 20.5228 16.6691L17.1818 20.0104C17.0501 20.1422 16.8364 20.1422 16.7046 20.0104C16.5728 19.8786 16.5728 19.6649 16.7046 19.5331L20.0455 16.1918Z" fill="white"/>
<path fill-rule="evenodd" clip-rule="evenodd" d="M17.2467 16.9884C17.3709 16.9884 17.4716 16.8876 17.4716 16.7633C17.4716 16.6391 17.3709 16.5383 17.2467 16.5383C17.1224 16.5383 17.0217 16.6391 17.0217 16.7633C17.0217 16.8876 17.1224 16.9884 17.2467 16.9884ZM17.2467 17.6634C17.7437 17.6634 18.1466 17.2604 18.1466 16.7633C18.1466 16.2663 17.7437 15.8633 17.2467 15.8633C16.7496 15.8633 16.3467 16.2663 16.3467 16.7633C16.3467 17.2604 16.7496 17.6634 17.2467 17.6634Z" fill="white"/>
<path fill-rule="evenodd" clip-rule="evenodd" d="M19.9464 19.6876C20.0706 19.6876 20.1714 19.5868 20.1714 19.4626C20.1714 19.3383 20.0706 19.2375 19.9464 19.2375C19.8221 19.2375 19.7214 19.3383 19.7214 19.4626C19.7214 19.5868 19.8221 19.6876 19.9464 19.6876ZM19.9464 20.3626C20.4434 20.3626 20.8463 19.9597 20.8463 19.4626C20.8463 18.9655 20.4434 18.5625 19.9464 18.5625C19.4493 18.5625 19.0464 18.9655 19.0464 19.4626C19.0464 19.9597 19.4493 20.3626 19.9464 20.3626Z" fill="white"/>
</svg>
