<svg width="36" height="36" viewBox="0 0 36 36" fill="none" xmlns="http://www.w3.org/2000/svg">
<path d="M4 19C4 18.4477 4.44772 18 5 18H10C10.5523 18 11 18.4477 11 19V31C11 31.5523 10.5523 32 10 32H5C4.44772 32 4 31.5523 4 31V19Z" fill="#FBB7B7"/>
<path d="M25 5C25 4.44771 25.4477 4 26 4H31C31.5523 4 32 4.44772 32 5V31C32 31.5523 31.5523 32 31 32H26C25.4477 32 25 31.5523 25 31V5Z" fill="#F64A4A"/>
<path d="M14 13C14 12.4477 14.4477 12 15 12H20C20.5523 12 21 12.4477 21 13V31C21 31.5523 20.5523 32 20 32H15C14.4477 32 14 31.5523 14 31V13Z" fill="#F98080"/>
<path fill-rule="evenodd" clip-rule="evenodd" d="M31.5 24C31.5 25.933 29.933 27.5 28 27.5C26.067 27.5 24.5 25.933 24.5 24C24.5 22.067 26.067 20.5 28 20.5C29.933 20.5 31.5 22.067 31.5 24ZM31.1237 29.1237C30.2138 29.6796 29.1443 30 28 30C24.6863 30 22 27.3137 22 24C22 20.6863 24.6863 18 28 18C31.3137 18 34 20.6863 34 24C34 25.2646 33.6088 26.4378 32.9408 27.4052L35.4801 29.9445C35.9682 30.4327 35.9682 31.2242 35.4801 31.7123C34.9919 32.2005 34.2005 32.2005 33.7123 31.7123L31.1237 29.1237Z" fill="#3E4C60"/>
</svg>
