<svg width="36" height="36" viewBox="0 0 36 36" fill="none" xmlns="http://www.w3.org/2000/svg">
<path d="M5 21C5 20.4477 5.44772 20 6 20H10C10.5523 20 11 20.4477 11 21V30C11 30.5523 10.5523 31 10 31H6C5.44772 31 5 30.5523 5 30V21Z" fill="#0168FE"/>
<path d="M13.5 16C13.5 15.4477 13.9477 15 14.5 15H18.5C19.0523 15 19.5 15.4477 19.5 16V30C19.5 30.5523 19.0523 31 18.5 31H14.5C13.9477 31 13.5 30.5523 13.5 30V16Z" fill="#0168FE"/>
<path d="M22 8C22 7.44772 22.4477 7 23 7H27C27.5523 7 28 7.44772 28 8V30C28 30.5523 27.5523 31 27 31H23C22.4477 31 22 30.5523 22 30V8Z" fill="#5A92F4"/>
<path fill-rule="evenodd" clip-rule="evenodd" d="M31.875 21.375C31.875 23.8603 29.8603 25.875 27.375 25.875C24.8897 25.875 22.875 23.8603 22.875 21.375C22.875 18.8897 24.8897 16.875 27.375 16.875C29.8603 16.875 31.875 18.8897 31.875 21.375ZM31.2467 26.44C30.1734 27.2618 28.8312 27.75 27.375 27.75C23.8542 27.75 21 24.8958 21 21.375C21 17.8542 23.8542 15 27.375 15C30.8958 15 33.75 17.8542 33.75 21.375C33.75 22.7632 33.3063 24.0478 32.553 25.0946L35.1868 27.7285C35.5529 28.0946 35.5529 28.6882 35.1868 29.0543C34.8207 29.4204 34.2271 29.4204 33.861 29.0543L31.2467 26.44Z" fill="#4E627D"/>
</svg>
