<svg width="36" height="36" viewBox="0 0 36 36" fill="none" xmlns="http://www.w3.org/2000/svg">
<path fill-rule="evenodd" clip-rule="evenodd" d="M28.8031 5.40407C29.1322 5.84757 29.0395 6.47391 28.596 6.80303L20.5109 12.803C20.1747 13.0525 19.7188 13.0662 19.3683 12.8374L16.1628 10.7449C15.0239 11.6975 13.3441 13.0457 11.8671 14.2202C10.9879 14.9193 10.1755 15.5609 9.58292 16.0277C9.2866 16.2612 9.04518 16.4509 8.87777 16.5824L8.61698 16.787C8.61693 16.787 8.61668 16.7872 8.00002 16L7.38342 15.2127L7.64255 15.0094C7.80926 14.8785 8.04988 14.6894 8.34532 14.4566C8.93625 13.9911 9.74617 13.3515 10.6223 12.6548C12.3809 11.2564 14.3862 9.6439 15.4324 8.74244C15.7698 8.45171 16.2588 8.41916 16.6318 8.66262L19.8783 10.7819L27.4041 5.19697C27.8476 4.86784 28.4739 4.96056 28.8031 5.40407ZM8.00002 16L7.38342 15.2127C6.94864 15.5533 6.87222 16.1819 7.21279 16.6167C7.55337 17.0514 8.18221 17.1276 8.61698 16.787L8.00002 16Z" fill="#0168FE"/>
<path d="M6 24C6 23.4477 6.44772 23 7 23H12C12.5523 23 13 23.4477 13 24V29C13 29.5523 12.5523 30 12 30H7C6.44772 30 6 29.5523 6 29V24Z" fill="#5A92F4"/>
<path d="M14.5 20C14.5 19.4477 14.9477 19 15.5 19H20.5C21.0523 19 21.5 19.4477 21.5 20V29C21.5 29.5523 21.0523 30 20.5 30H15.5C14.9477 30 14.5 29.5523 14.5 29V20Z" fill="#5A92F4"/>
<path d="M23 16C23 15.4477 23.4477 15 24 15H29C29.5523 15 30 15.4477 30 16V29C30 29.5523 29.5523 30 29 30H24C23.4477 30 23 29.5523 23 29V16Z" fill="#5A92F4"/>
</svg>
