<svg width="37" height="36" viewBox="0 0 37 36" fill="none" xmlns="http://www.w3.org/2000/svg">
<g clip-path="url(#clip0_4906_40152)">
<path d="M4.81201 19C4.81201 18.4477 5.25973 18 5.81201 18H10.812C11.3643 18 11.812 18.4477 11.812 19V31C11.812 31.5523 11.3643 32 10.812 32H5.81201C5.25973 32 4.81201 31.5523 4.81201 31V19Z" fill="#FBB7B7"/>
<path d="M25.812 5C25.812 4.44771 26.2597 4 26.812 4H31.812C32.3643 4 32.812 4.44772 32.812 5V31C32.812 31.5523 32.3643 32 31.812 32H26.812C26.2597 32 25.812 31.5523 25.812 31V5Z" fill="#F64A4A"/>
<path d="M14.812 13C14.812 12.4477 15.2597 12 15.812 12H20.812C21.3643 12 21.812 12.4477 21.812 13V31C21.812 31.5523 21.3643 32 20.812 32H15.812C15.2597 32 14.812 31.5523 14.812 31V13Z" fill="#F98080"/>
<path fill-rule="evenodd" clip-rule="evenodd" d="M32.312 24C32.312 25.933 30.745 27.5 28.812 27.5C26.879 27.5 25.312 25.933 25.312 24C25.312 22.067 26.879 20.5 28.812 20.5C30.745 20.5 32.312 22.067 32.312 24ZM31.9357 29.1237C31.0258 29.6796 29.9563 30 28.812 30C25.4983 30 22.812 27.3137 22.812 24C22.812 20.6863 25.4983 18 28.812 18C32.1257 18 34.812 20.6863 34.812 24C34.812 25.2646 34.4208 26.4378 33.7528 27.4052L36.2921 29.9445C36.7802 30.4327 36.7802 31.2242 36.2921 31.7123C35.8039 32.2005 35.0125 32.2005 34.5243 31.7123L31.9357 29.1237Z" fill="#3E4C60"/>
</g>
<defs>
<clipPath id="clip0_4906_40152">
<rect width="36" height="36" fill="white" transform="translate(0.812012)"/>
</clipPath>
</defs>
</svg>
