<svg width="36" height="36" viewBox="0 0 36 36" fill="none" xmlns="http://www.w3.org/2000/svg">
<path d="M5 24C5 23.4477 5.44772 23 6 23H11C11.5523 23 12 23.4477 12 24V31C12 31.5523 11.5523 32 11 32H6C5.44772 32 5 31.5523 5 31V24Z" fill="#00CBC1"/>
<path d="M14.5 20C14.5 19.4477 14.9477 19 15.5 19H20.5C21.0523 19 21.5 19.4477 21.5 20V31C21.5 31.5523 21.0523 32 20.5 32H15.5C14.9477 32 14.5 31.5523 14.5 31V20Z" fill="#00CBC1"/>
<path d="M24 16C24 15.4477 24.4477 15 25 15H30C30.5523 15 31 15.4477 31 16V31C31 31.5523 30.5523 32 30 32H25C24.4477 32 24 31.5523 24 31V16Z" fill="#00CBC1"/>
<path fill-rule="evenodd" clip-rule="evenodd" d="M31.1916 4.0889C31.6949 4.74697 31.5693 5.68839 30.9113 6.19161L22.4113 12.6916C21.9537 13.0415 21.3362 13.0985 20.8223 12.8382L15.6488 10.2178L6.8931 16.7053C6.22748 17.1985 5.28808 17.0587 4.79488 16.3931C4.30169 15.7275 4.44147 14.7881 5.10709 14.2949L14.6071 7.2558C15.0633 6.91776 15.6713 6.8663 16.1779 7.12288L21.3374 9.73621L29.0889 3.80854C29.747 3.30531 30.6884 3.43084 31.1916 4.0889Z" fill="#074093"/>
</svg>
