<svg width="36" height="36" viewBox="0 0 36 36" fill="none" xmlns="http://www.w3.org/2000/svg">
<g clip-path="url(#clip0_1684_274376)">
<path d="M0 12C0 5.37258 5.37258 0 12 0H24C30.6274 0 36 5.37258 36 12V24C36 30.6274 30.6274 36 24 36H12C5.37258 36 0 30.6274 0 24V12Z" fill="#F5F6F6"/>
<path d="M21.6086 20.2811C21.5582 19.9832 21.4699 19.6928 21.3458 19.4169C20.9933 18.5899 20.387 17.8937 19.6129 17.4269C19.0044 17.0694 18.3091 16.8827 17.6015 16.8868C16.894 16.8909 16.201 17.0857 15.5967 17.4503C15.032 17.7877 14.573 18.2739 14.2711 18.8546C14.1729 19.0534 14.0899 19.2591 14.0228 19.4702C13.8386 20.0192 13.7679 20.5993 13.8149 21.176C13.8618 21.7526 14.0255 22.314 14.2961 22.8267C14.4844 23.1407 14.7694 23.3866 15.1093 23.5282C15.2787 23.5964 15.4618 23.6247 15.6442 23.6109C15.8266 23.5972 16.0033 23.5417 16.1603 23.4488C16.3364 23.3147 16.468 23.1316 16.5382 22.9229C16.6084 22.7142 16.6141 22.4894 16.5545 22.2775C16.4182 21.7426 16.4318 21.181 16.5939 20.6532C16.6551 20.4798 16.7537 20.3217 16.8829 20.1899C16.967 20.1142 17.0611 20.0503 17.1628 19.9999C17.3771 19.8936 17.6192 19.8549 17.8564 19.8893C18.0601 19.9341 18.2504 20.0257 18.4119 20.1565C18.5735 20.2874 18.7018 20.454 18.7866 20.6428C18.9522 21.023 19.038 21.4326 19.0388 21.8467C19.0443 23.6712 18.771 25.4861 18.2282 27.2296C18.1822 27.4066 18.1323 27.5836 18.0824 27.7593C18.043 27.8894 17.972 28.0703 18.0587 28.2018C18.0994 28.2576 18.1556 28.3005 18.2203 28.3254C18.4831 28.4321 18.7091 28.2695 18.8891 28.0886C19.9169 26.9983 20.6736 25.6854 21.0989 24.2544C21.2777 23.7311 21.4199 23.1963 21.5245 22.6536C21.6883 21.8701 21.7163 21.0647 21.6073 20.2719" fill="#00857E"/>
<path d="M29.1992 11.9623C29.1971 11.9008 29.1824 11.8403 29.156 11.7846C29.1296 11.7289 29.092 11.6791 29.0456 11.6382C28.9991 11.5973 28.9448 11.5662 28.8858 11.5467C28.8268 11.5273 28.7645 11.5199 28.7026 11.525C28.4427 11.5626 28.1907 11.6417 27.9564 11.7593C23.2007 13.4512 18.0916 13.9297 13.1001 13.1506C12.258 13.0321 11.404 12.8629 10.5579 12.7315C10.0324 12.6495 9.50689 12.5324 8.96955 12.4894C8.49052 12.3958 7.99351 12.4891 7.5822 12.7497C7.37033 12.9803 7.23873 13.2721 7.2068 13.5823C7.17488 13.8925 7.24429 14.2047 7.40483 14.4729C7.76673 15.0835 8.28943 15.5851 8.91699 15.924C9.49676 16.3348 10.1858 16.5675 10.8982 16.593C12.7786 16.4758 14.6534 16.2962 16.5225 16.0542C19.7726 15.7924 22.9742 15.1111 26.0461 14.0278C27.0402 13.6388 27.9763 13.1178 28.8287 12.479C28.9824 12.3658 29.1992 12.1784 29.1992 11.9584" fill="#00857E"/>
<path d="M15.8054 10.3715C15.8054 10.8547 15.9992 11.3182 16.3441 11.6599C16.689 12.0016 17.1569 12.1935 17.6447 12.1935C18.1325 12.1935 18.6004 12.0016 18.9453 11.6599C19.2902 11.3182 19.484 10.8547 19.484 10.3715C19.4834 10.2207 19.4493 10.0718 19.3842 9.93551C19.2265 9.60363 19.0505 9.44222 19.0662 9.04528C19.0899 8.50907 18.3962 8.50126 18.0231 8.50126C17.6078 8.48865 17.1952 8.57061 16.817 8.74076C16.5237 8.88855 16.275 9.11029 16.0958 9.38367C15.9133 9.66576 15.8128 9.99226 15.8054 10.3272C15.8044 10.342 15.8044 10.3568 15.8054 10.3715Z" fill="#E4003F"/>
</g>
<defs>
<clipPath id="clip0_1684_274376">
<rect width="36" height="36" fill="white"/>
</clipPath>
</defs>
</svg>
