<svg width="36" height="36" viewBox="0 0 36 36" fill="none" xmlns="http://www.w3.org/2000/svg">
<g clip-path="url(#clip0_4608_42399)">
<path d="M0 12C0 5.37258 5.37258 0 12 0H24C30.6274 0 36 5.37258 36 12V24C36 30.6274 30.6274 36 24 36H12C5.37258 36 0 30.6274 0 24V12Z" fill="#00A69E"/>
<path d="M16.2057 18.174C16.2057 18.263 16.2027 18.3521 16.2084 18.4408C16.2132 18.697 16.3048 18.9439 16.4682 19.1412C16.6317 19.3385 16.8572 19.4745 17.108 19.5269C17.3788 19.5825 17.659 19.574 17.926 19.5021C19.5529 19.0944 21.1815 18.6925 22.8072 18.2795C22.882 18.2458 22.9667 18.2411 23.0449 18.2662C23.123 18.2913 23.1891 18.3445 23.2303 18.4155C23.4171 18.6854 23.6317 18.936 23.8366 19.1934C23.9781 19.3667 24.1726 19.4887 24.3902 19.5406C24.6079 19.5924 24.8365 19.5712 25.0409 19.4803C25.2144 19.3973 25.3573 19.2618 25.4495 19.0931C25.5416 18.9243 25.5783 18.7308 25.5544 18.54C25.5321 18.3087 25.4377 18.0903 25.2844 17.9156C24.1742 16.4712 23.0644 15.0266 21.955 13.5816C21.847 13.4282 21.6966 13.3096 21.5221 13.2404C21.3121 13.1618 21.082 13.1548 20.8677 13.2205C20.6533 13.2862 20.4666 13.4209 20.3367 13.6036C20.2039 13.7789 20.1345 13.9941 20.1399 14.2139C20.1453 14.4337 20.2251 14.6452 20.3663 14.8138C20.7648 15.3254 21.1733 15.8302 21.576 16.3386C21.7589 16.5693 21.7583 16.5744 21.4592 16.6373C20.6515 16.8074 19.8405 16.9626 19.0367 17.1503C18.7922 17.2074 18.7641 17.1478 18.7641 16.9244C18.7711 14.2118 18.7711 11.4992 18.7641 8.78656C18.7641 8.56046 18.8039 8.50404 19.0348 8.55354C20.3191 8.82829 21.6055 9.09396 22.894 9.35054C23.0941 9.3906 23.1612 9.4638 23.16 9.67753C23.1491 11.2338 23.1539 12.7903 23.1543 14.3467C23.1371 14.4525 23.1582 14.561 23.2137 14.6527C23.7783 15.383 24.3417 16.1143 24.9038 16.8466L24.9581 16.8275V16.5658C24.9581 14.1111 24.9581 11.6564 24.9581 9.20163C24.9581 9.11291 24.9595 9.02356 24.9522 8.93505C24.9441 8.65721 24.8491 8.38889 24.6806 8.16782C24.5121 7.94676 24.2786 7.78407 24.0128 7.70263C21.9573 7.14829 19.9019 6.5887 17.8402 6.06016C17.0627 5.86091 16.1849 6.12162 16.1954 7.33957C16.2254 10.9521 16.2055 14.563 16.2057 18.174Z" fill="white"/>
<path d="M10.6612 10.8516C10.8634 10.9673 11.0973 11.0151 11.3287 10.988C11.56 10.9609 11.7765 10.8603 11.9465 10.701C12.1619 10.506 12.3767 10.3105 12.6407 10.0718V10.4303C12.6407 12.9471 12.6398 15.4636 12.638 17.9796C12.6327 18.1666 12.6686 18.3524 12.7432 18.524C12.8178 18.6955 12.9293 18.8485 13.0697 18.9721C13.3325 19.2137 13.6468 19.3924 13.9887 19.4948C14.7138 19.7133 15.1784 19.3704 15.1784 18.6162C15.1784 14.7749 15.1784 10.9334 15.1784 7.09186C15.1784 7.01195 15.1813 6.93183 15.1763 6.85192C15.1797 6.65319 15.1045 6.46114 14.967 6.3176C14.8295 6.17406 14.6409 6.09065 14.4422 6.08554C14.1885 6.06698 13.9338 6.10319 13.6954 6.19171C13.457 6.28022 13.2403 6.41898 13.0602 6.59856C12.2452 7.31461 11.4402 8.04177 10.6214 8.7532C10.3332 8.99591 10.1462 9.33756 10.097 9.71108C10.0578 9.93647 10.0913 10.1685 10.1927 10.3736C10.2942 10.5786 10.4583 10.7461 10.6612 10.8516Z" fill="white"/>
<path d="M9.76134 25.252H8.32673V24.5725H9.95766C9.97779 24.4517 9.99289 24.3309 10.003 24.21C10.0181 24.0892 10.0256 23.9634 10.0256 23.8325V23.5531H8.32673V22.8736H11.0827V23.6362C11.0777 24.1043 11.0122 24.5523 10.8864 24.9802C10.7605 25.4081 10.5768 25.7957 10.3352 26.143C10.0936 26.4903 9.79658 26.7873 9.44421 27.034C9.09689 27.2756 8.69922 27.4467 8.25122 27.5474V26.8603C8.60358 26.7093 8.90561 26.4954 9.15729 26.2185C9.41401 25.9366 9.61536 25.6145 9.76134 25.252ZM12.7061 25.2898V29.3293H11.7245V22.4961H12.7061V24.6102H13.1969V22.4961H14.1784V29.3293H13.1969V25.2898H12.7061Z" fill="white"/>
<path d="M20.1992 22.481V29.3293H19.1799V27.1246C18.9936 27.2202 18.7772 27.2857 18.5305 27.3209C18.2839 27.3511 18.0347 27.3662 17.783 27.3662H14.6722V26.6866H15.2762V23.538H14.7099V22.8585H18.4626V23.538H17.8812V25.3577C17.8812 25.6396 17.8686 25.9014 17.8434 26.143C17.8183 26.3846 17.7855 26.5658 17.7453 26.6866H17.9567C18.1882 26.6866 18.4022 26.6766 18.5985 26.6564C18.7998 26.6313 18.9936 26.5658 19.1799 26.4601V22.481H20.1992ZM16.2956 26.6866H16.7259C16.7763 26.5558 16.8115 26.3745 16.8316 26.143C16.8518 25.9064 16.8618 25.6447 16.8618 25.3577V23.538H16.2956V26.6866Z" fill="white"/>
<path d="M26.8527 29.4049H23.1076C23.0019 29.4049 22.9012 29.3797 22.8056 29.3293C22.7099 29.284 22.6269 29.2186 22.5564 29.133C22.4859 29.0475 22.4281 28.9493 22.3827 28.8386C22.3425 28.7278 22.3223 28.6095 22.3223 28.4837V27.5776H25.7503V27.1321H22.3223V26.4526H26.7772V27.6154C26.7772 27.7865 26.7269 27.9375 26.6262 28.0684C26.5255 28.1942 26.4097 28.2572 26.2789 28.2572H23.3417V28.461C23.3417 28.5416 23.3668 28.6045 23.4172 28.6498C23.4726 28.7001 23.5506 28.7253 23.6512 28.7253H26.8527V29.4049ZM21.4465 22.6471H24.6555V23.3266H22.4658V23.8929H24.58V24.5725H22.4658V24.8971C22.4658 24.9878 22.4935 25.0582 22.5489 25.1086C22.6042 25.1539 22.6873 25.1765 22.798 25.1765H24.5875C24.809 25.1765 25.0078 25.169 25.184 25.1539C25.3652 25.1388 25.554 25.0809 25.7503 24.9802V22.4961H26.7696V23.7419H27.7512V24.4215H26.7696V26.0826H25.7503V25.6371C25.5691 25.7227 25.3803 25.7806 25.184 25.8108C24.9927 25.841 24.7864 25.8561 24.5649 25.8561H22.2317C22.0052 25.8561 21.8165 25.7655 21.6654 25.5843C21.5195 25.398 21.4465 25.1765 21.4465 24.9198V22.6471Z" fill="white"/>
</g>
<defs>
<clipPath id="clip0_4608_42399">
<rect width="36" height="36" fill="white"/>
</clipPath>
</defs>
</svg>
