<svg width="36" height="36" viewBox="0 0 36 36" fill="none" xmlns="http://www.w3.org/2000/svg">
<path d="M7 17.5391C7 11.4639 11.9249 6.53906 18 6.53906C24.0751 6.53906 29 11.4639 29 17.5391C29 23.6142 24.0751 28.5391 18 28.5391C11.9249 28.5391 7 23.6142 7 17.5391Z" fill="#9BEDE9"/>
<path fill-rule="evenodd" clip-rule="evenodd" d="M4 7.53906C4 5.32992 5.79086 3.53906 8 3.53906H10C10.5523 3.53906 11 3.98678 11 4.53906C11 5.09135 10.5523 5.53906 10 5.53906H8C6.89543 5.53906 6 6.43449 6 7.53906V9.53906C6 10.0913 5.55228 10.5391 5 10.5391C4.44772 10.5391 4 10.0913 4 9.53906V7.53906Z" fill="#00CBC1"/>
<path fill-rule="evenodd" clip-rule="evenodd" d="M4 27.5391C4 29.7482 5.79086 31.5391 8 31.5391H10C10.5523 31.5391 11 31.0913 11 30.5391C11 29.9868 10.5523 29.5391 10 29.5391H8C6.89543 29.5391 6 28.6436 6 27.5391V25.5391C6 24.9868 5.55228 24.5391 5 24.5391C4.44772 24.5391 4 24.9868 4 25.5391V27.5391Z" fill="#00CBC1"/>
<path fill-rule="evenodd" clip-rule="evenodd" d="M32 7.53906C32 5.32992 30.2091 3.53906 28 3.53906H26C25.4477 3.53906 25 3.98678 25 4.53906C25 5.09135 25.4477 5.53906 26 5.53906H28C29.1046 5.53906 30 6.43449 30 7.53906V9.53906C30 10.0913 30.4477 10.5391 31 10.5391C31.5523 10.5391 32 10.0913 32 9.53906V7.53906Z" fill="#00CBC1"/>
<path fill-rule="evenodd" clip-rule="evenodd" d="M32 27.5391C32 29.7482 30.2091 31.5391 28 31.5391H26C25.4477 31.5391 25 31.0913 25 30.5391C25 29.9868 25.4477 29.5391 26 29.5391H28C29.1046 29.5391 30 28.6436 30 27.5391V25.5391C30 24.9868 30.4477 24.5391 31 24.5391C31.5523 24.5391 32 24.9868 32 25.5391V27.5391Z" fill="#00CBC1"/>
<path fill-rule="evenodd" clip-rule="evenodd" d="M14 13.0391C14.5523 13.0391 15 13.4868 15 14.0391V16.0391C15 16.5913 14.5523 17.0391 14 17.0391C13.4477 17.0391 13 16.5913 13 16.0391V14.0391C13 13.4868 13.4477 13.0391 14 13.0391Z" fill="#00B6AD"/>
<path fill-rule="evenodd" clip-rule="evenodd" d="M22 13.0391C22.5523 13.0391 23 13.4868 23 14.0391V16.0391C23 16.5913 22.5523 17.0391 22 17.0391C21.4477 17.0391 21 16.5913 21 16.0391V14.0391C21 13.4868 21.4477 13.0391 22 13.0391Z" fill="#00B6AD"/>
<path fill-rule="evenodd" clip-rule="evenodd" d="M21.8246 20.4735C22.1371 20.9289 22.0211 21.5513 21.5657 21.8638C18.456 23.9971 15.4992 22.7627 14.3575 21.8054C13.9343 21.4506 13.8789 20.8199 14.2337 20.3967C14.5886 19.9734 15.2193 19.918 15.6425 20.2729C16.3008 20.8248 18.2641 21.7034 20.4343 20.2145C20.8897 19.9021 21.5122 20.018 21.8246 20.4735Z" fill="#00B6AD"/>
</svg>
