<svg width="36" height="36" viewBox="0 0 36 36" fill="none" xmlns="http://www.w3.org/2000/svg">
<path d="M7 18C7 11.9249 11.9249 7 18 7V7C24.0751 7 29 11.9249 29 18V18C29 24.0751 24.0751 29 18 29V29C11.9249 29 7 24.0751 7 18V18Z" fill="#9BEDE9"/>
<path fill-rule="evenodd" clip-rule="evenodd" d="M4 8C4 5.79086 5.79086 4 8 4H10C10.5523 4 11 4.44772 11 5C11 5.55228 10.5523 6 10 6H8C6.89543 6 6 6.89543 6 8V10C6 10.5523 5.55228 11 5 11C4.44772 11 4 10.5523 4 10V8Z" fill="#00CBC1"/>
<path fill-rule="evenodd" clip-rule="evenodd" d="M4 28C4 30.2091 5.79086 32 8 32H10C10.5523 32 11 31.5523 11 31C11 30.4477 10.5523 30 10 30H8C6.89543 30 6 29.1046 6 28V26C6 25.4477 5.55228 25 5 25C4.44772 25 4 25.4477 4 26V28Z" fill="#00CBC1"/>
<path fill-rule="evenodd" clip-rule="evenodd" d="M32 8C32 5.79086 30.2091 4 28 4H26C25.4477 4 25 4.44772 25 5C25 5.55228 25.4477 6 26 6H28C29.1046 6 30 6.89543 30 8V10C30 10.5523 30.4477 11 31 11C31.5523 11 32 10.5523 32 10V8Z" fill="#00CBC1"/>
<path fill-rule="evenodd" clip-rule="evenodd" d="M32 28C32 30.2091 30.2091 32 28 32H26C25.4477 32 25 31.5523 25 31C25 30.4477 25.4477 30 26 30H28C29.1046 30 30 29.1046 30 28V26C30 25.4477 30.4477 25 31 25C31.5523 25 32 25.4477 32 26V28Z" fill="#00CBC1"/>
<path fill-rule="evenodd" clip-rule="evenodd" d="M14.5 13.5C15.0523 13.5 15.5 13.9477 15.5 14.5V16.5C15.5 17.0523 15.0523 17.5 14.5 17.5C13.9477 17.5 13.5 17.0523 13.5 16.5V14.5C13.5 13.9477 13.9477 13.5 14.5 13.5Z" fill="#00B6AD"/>
<path fill-rule="evenodd" clip-rule="evenodd" d="M21.5 13.5C22.0523 13.5 22.5 13.9477 22.5 14.5V16.5C22.5 17.0523 22.0523 17.5 21.5 17.5C20.9477 17.5 20.5 17.0523 20.5 16.5V14.5C20.5 13.9477 20.9477 13.5 21.5 13.5Z" fill="#00B6AD"/>
<path fill-rule="evenodd" clip-rule="evenodd" d="M21.8246 20.4343C22.1371 20.8897 22.0211 21.5122 21.5657 21.8246C18.456 23.9579 15.4992 22.7235 14.3575 21.7663C13.9343 21.4114 13.8789 20.7807 14.2337 20.3575C14.5886 19.9343 15.2193 19.8788 15.6425 20.2337C16.3008 20.7856 18.2641 21.6642 20.4343 20.1754C20.8897 19.8629 21.5122 19.9789 21.8246 20.4343Z" fill="#00B6AD"/>
</svg>
