<svg width="24" height="24" viewBox="0 0 24 24" fill="none" xmlns="http://www.w3.org/2000/svg">
<path d="M2 8.66667C2 4.98477 4.98477 2 8.66667 2H15.3333C19.0152 2 22 4.98477 22 8.66667V15.3333C22 19.0152 19.0152 22 15.3333 22H8.66667C4.98477 22 2 19.0152 2 15.3333V8.66667Z" fill="url(#paint0_linear_4922_54972)"/>
<path fill-rule="evenodd" clip-rule="evenodd" d="M9.28728 11.6909L8.82958 16.2678C8.77463 16.8174 8.28459 17.2183 7.73504 17.1634C7.1855 17.1084 6.78456 16.6184 6.83951 16.0688L7.64154 8.04853C7.75215 6.94243 9.25797 6.7005 9.70946 7.71634L12.0012 12.8728L14.293 7.71635C14.7444 6.70053 16.2503 6.94239 16.3609 8.04853L17.1629 16.0688C17.2179 16.6184 16.8169 17.1084 16.2674 17.1634C15.7178 17.2183 15.2278 16.8174 15.1728 16.2678L14.7151 11.6909L12.9912 15.5698C12.6099 16.4276 11.3925 16.4276 11.0113 15.5698L9.28728 11.6909Z" fill="white"/>
<defs>
<linearGradient id="paint0_linear_4922_54972" x1="4.5" y1="3.66667" x2="20.3333" y2="19.5" gradientUnits="userSpaceOnUse">
<stop stop-color="#2BC9C3"/>
<stop offset="1" stop-color="#BC4C9C"/>
</linearGradient>
</defs>
</svg>
