<svg width="36" height="37" viewBox="0 0 36 37" fill="none" xmlns="http://www.w3.org/2000/svg">
<path d="M6.01456 10.6666C6.05086 9.27778 6.97663 8.10469 8.28627 7.64091L16.1997 4.83855C17.3659 4.42555 18.6386 4.42555 19.8049 4.83855L27.7129 7.63903C29.0253 8.10378 29.9519 9.28069 29.9866 10.6725C30.0698 14.0133 29.8345 20.2816 27.2678 24.2402C24.7565 28.1133 19.4846 31.8002 18.0023 31.8002C16.52 31.8002 11.1295 27.9459 8.73706 24.2402C6.1585 20.2462 5.92752 13.9962 6.01456 10.6666Z" fill="#F64A4A"/>
<path d="M19.5 13C19.5 12.1716 18.8284 11.5 18 11.5C17.1716 11.5 16.5 12.1716 16.5 13V16H13.5C12.6716 16 12 16.6716 12 17.5C12 18.3284 12.6716 19 13.5 19H16.5V22C16.5 22.8284 17.1716 23.5 18 23.5C18.8284 23.5 19.5 22.8284 19.5 22V19H22.5C23.3284 19 24 18.3284 24 17.5C24 16.6716 23.3284 16 22.5 16H19.5V13Z" fill="white"/>
</svg>
