<svg width="40" height="40" viewBox="0 0 40 40" fill="none" xmlns="http://www.w3.org/2000/svg">
<path d="M7.5 8.33327C7.5 6.49232 8.99238 4.99994 10.8333 4.99994H29.1667C31.0076 4.99994 32.5 6.49232 32.5 8.33327V34.9999H7.5V8.33327Z" fill="#AFC3DC"/>
<path d="M14.1667 11.6666C14.1667 11.2063 14.5398 10.8333 15.0001 10.8333H17.5001C17.9603 10.8333 18.3334 11.2063 18.3334 11.6666V14.1666C18.3334 14.6268 17.9603 14.9999 17.5001 14.9999H15.0001C14.5398 14.9999 14.1667 14.6268 14.1667 14.1666V11.6666Z" fill="white"/>
<path d="M14.1667 19.1666C14.1667 18.7063 14.5398 18.3333 15.0001 18.3333H17.5001C17.9603 18.3333 18.3334 18.7063 18.3334 19.1666V21.6666C18.3334 22.1268 17.9603 22.4999 17.5001 22.4999H15.0001C14.5398 22.4999 14.1667 22.1268 14.1667 21.6666V19.1666Z" fill="white"/>
<path d="M16.6667 29.1666C16.6667 28.7063 17.0398 28.3333 17.5001 28.3333H22.5001C22.9603 28.3333 23.3334 28.7063 23.3334 29.1666V34.9999H16.6667V29.1666Z" fill="#82A3D2"/>
<path d="M21.6667 11.6666C21.6667 11.2063 22.0398 10.8333 22.5001 10.8333H25.0001C25.4603 10.8333 25.8334 11.2063 25.8334 11.6666V14.1666C25.8334 14.6268 25.4603 14.9999 25.0001 14.9999H22.5001C22.0398 14.9999 21.6667 14.6268 21.6667 14.1666V11.6666Z" fill="white"/>
<path d="M21.6667 19.1666C21.6667 18.7063 22.0398 18.3333 22.5001 18.3333H25.0001C25.4603 18.3333 25.8334 18.7063 25.8334 19.1666V21.6666C25.8334 22.1268 25.4603 22.4999 25.0001 22.4999H22.5001C22.0398 22.4999 21.6667 22.1268 21.6667 21.6666V19.1666Z" fill="white"/>
<path d="M40 30.8333C40 34.9754 36.6421 38.3333 32.5 38.3333C28.3579 38.3333 25 34.9754 25 30.8333C25 26.6911 28.3579 23.3333 32.5 23.3333C36.6421 23.3333 40 26.6911 40 30.8333Z" fill="white"/>
<path d="M32.4974 26.6666C32.0372 26.6666 31.6641 27.0397 31.6641 27.4999V30.0829H29.0819C28.6216 30.0829 28.2485 30.456 28.2485 30.9162C28.2485 31.3765 28.6216 31.7496 29.0819 31.7496H31.6641V34.3334C31.6641 34.7936 32.0372 35.1667 32.4974 35.1667C32.9576 35.1667 33.3307 34.7936 33.3307 34.3334V31.7496H35.9154C36.3756 31.7496 36.7487 31.3765 36.7487 30.9162C36.7487 30.456 36.3756 30.0829 35.9154 30.0829H33.3307V27.4999C33.3307 27.0397 32.9576 26.6666 32.4974 26.6666Z" fill="#F64A4A"/>
</svg>
