<svg width="24" height="24" viewBox="0 0 24 24" fill="none" xmlns="http://www.w3.org/2000/svg">
<path d="M4.5 12.999C4.5 8.85689 7.85786 5.49902 12 5.49902C16.1421 5.49902 19.5 8.85689 19.5 12.999V18.4157C19.5 19.8424 18.3434 20.999 16.9167 20.999H7.08333C5.6566 20.999 4.5 19.8424 4.5 18.4157V12.999Z" fill="#DCEAFC"/>
<path d="M10 18.499C10 17.3945 10.8954 16.499 12 16.499C13.1046 16.499 14 17.3945 14 18.499V20.999H10V18.499Z" fill="#AFC3DC"/>
<path d="M10.8327 5.06258C10.247 4.47679 10.247 3.52705 10.8327 2.94126C11.4185 2.35547 12.3683 2.35547 12.9541 2.94126L21.4393 11.4265C22.0251 12.0123 22.0251 12.9621 21.4393 13.5479C20.8536 14.1336 19.9038 14.1336 19.318 13.5479L10.8327 5.06258Z" fill="#295697"/>
<path d="M12.9539 5.06171C13.5397 4.47592 13.5397 3.52617 12.9539 2.94039C12.3681 2.3546 11.4183 2.3546 10.8326 2.94039L2.34728 11.4257C1.76149 12.0115 1.7615 12.9612 2.34728 13.547C2.93307 14.1328 3.88282 14.1328 4.4686 13.547L12.9539 5.06171Z" fill="#295697"/>
</svg>
