<svg width="36" height="36" viewBox="0 0 36 36" fill="none" xmlns="http://www.w3.org/2000/svg">
<path d="M6.5 18.4922C6.5 12.279 11.5368 7.24219 17.75 7.24219H18.25C24.4632 7.24219 29.5 12.279 29.5 18.4922V28.2422C29.5 29.4848 28.4926 30.4922 27.25 30.4922H8.75C7.50736 30.4922 6.5 29.4848 6.5 28.2422V18.4922Z" fill="#C0D2E9"/>
<path d="M16.2489 6.59094C15.3702 5.71226 15.3702 4.28764 16.2489 3.40896C17.1275 2.53028 18.5522 2.53028 19.4308 3.40896L32.1588 16.1369C33.0374 17.0156 33.0374 18.4402 32.1588 19.3189C31.2801 20.1975 29.8555 20.1975 28.9768 19.3189L16.2489 6.59094Z" fill="#295697"/>
<path d="M19.4306 6.58963C20.3093 5.71095 20.3093 4.28633 19.4306 3.40765C18.5519 2.52897 17.1273 2.52897 16.2486 3.40765L3.52068 16.1356C2.642 17.0143 2.642 18.4389 3.52068 19.3176C4.39936 20.1962 5.82398 20.1962 6.70266 19.3176L19.4306 6.58963Z" fill="#295697"/>
<circle cx="18" cy="18" r="3" fill="#9EB5D1"/>
<path fill-rule="evenodd" clip-rule="evenodd" d="M24.8743 19.6609C25.8528 18.7797 27.3347 18.7797 28.3133 19.6609L29.4511 20.6856C29.7224 20.9299 30.0422 21.1136 30.3893 21.2246L31.7986 21.6753C33.0318 22.0696 33.7824 23.3219 33.5525 24.6014L33.2211 26.4459C33.162 26.7747 33.1669 27.112 33.2354 27.439L33.5073 28.7363C33.7657 29.9687 33.1035 31.209 31.9387 31.6746L30.2173 32.3626C29.9822 32.4566 29.7621 32.5849 29.5642 32.7433L28.1991 33.836C27.2597 34.588 25.9278 34.588 24.9884 33.836L23.6232 32.7433C23.4254 32.5849 23.2053 32.4566 22.9702 32.3626L21.2487 31.6746C20.084 31.209 19.4219 29.9687 19.6802 28.7363L19.9521 27.439C20.0206 27.112 20.0255 26.7748 19.9664 26.4459L19.635 24.6014C19.4051 23.3219 20.1558 22.0696 21.3889 21.6753L22.7982 21.2246C23.1453 21.1136 23.4651 20.9299 23.7363 20.6856L24.8743 19.6609ZM26.5949 29.5014C28.1413 29.5014 29.3949 28.2478 29.3949 26.7014C29.3949 25.155 28.1413 23.9014 26.5949 23.9014C25.0485 23.9014 23.7949 25.155 23.7949 26.7014C23.7949 28.2478 25.0485 29.5014 26.5949 29.5014Z" fill="#4E627D"/>
</svg>
