<svg width="36" height="36" viewBox="0 0 36 36" fill="none" xmlns="http://www.w3.org/2000/svg">
<path d="M9.18392 10.0158C9.28837 10.6851 9.91231 12.055 10.2112 12.6563C10.8123 13.8146 11.6751 14.4394 11.9555 12.6398C12.3642 10.0163 14.503 3.36026 18.325 1C18.917 8.59906 22.7038 10.3586 25.5371 11.9469C27.0182 10.8876 26.6697 10.0158 27.0182 10.4015C30.5493 14.3305 31.3 18.8779 31.075 22.6363C30.7476 28.1056 25.3413 35 17.7454 35C10.2045 35 4.42771 28.7452 4.45518 21.8892C4.48383 14.7365 9.05336 9.17922 9.18392 10.0158Z" fill="url(#paint0_linear_6399_36345)"/>
<path fill-rule="evenodd" clip-rule="evenodd" d="M10.997 19.5431H9.31396V26.2581H10.997V23.5381H12.952V26.2581H14.6265V19.5431H12.952V22.0166H10.997V19.5431ZM15.2626 22.8751C15.2626 23.9339 15.5607 24.81 16.097 25.4246C16.6356 26.0418 17.3992 26.3771 18.2886 26.3771C19.1781 26.3771 19.9416 26.0418 20.4803 25.4246C21.0166 24.81 21.3147 23.9339 21.3147 22.8751C21.3147 21.8161 21.0165 20.9517 20.4787 20.3493C19.9388 19.7446 19.1753 19.4241 18.2886 19.4241C17.4025 19.4241 16.6388 19.7422 16.0987 20.346C15.5607 20.9475 15.2626 21.8121 15.2626 22.8751ZM19.6061 22.8751C19.6061 23.5141 19.4633 24.0179 19.2296 24.3553C19.0005 24.686 18.6811 24.8641 18.2886 24.8641C17.8961 24.8641 17.5767 24.686 17.3477 24.3553C17.114 24.0179 16.9711 23.5141 16.9711 22.8751C16.9711 22.2162 17.1088 21.7255 17.3366 21.4056C17.5578 21.0948 17.8748 20.9286 18.2886 20.9286C18.7024 20.9286 19.0194 21.0948 19.2407 21.4056C19.4684 21.7255 19.6061 22.2162 19.6061 22.8751ZM21.4297 19.5431V21.0136H23.1977V26.2581H24.8807V21.0136H26.6657V19.5431H21.4297Z" fill="#F2D749"/>
<defs>
<linearGradient id="paint0_linear_6399_36345" x1="17.7649" y1="1" x2="17.7649" y2="35" gradientUnits="userSpaceOnUse">
<stop stop-color="#DA0101"/>
<stop offset="1" stop-color="#F6544A"/>
</linearGradient>
</defs>
</svg>
