<svg width="36" height="37" viewBox="0 0 36 37" fill="none" xmlns="http://www.w3.org/2000/svg">
<path d="M11.6572 15.4395C11.8461 14.9205 12.4199 14.6529 12.9389 14.8418L18.5771 16.894C19.096 17.0828 19.3636 17.6567 19.1747 18.1757L13.6514 33.351C13.3281 34.2392 12.0667 34.2245 11.7642 33.3289L11.0276 31.1476C10.8226 30.5404 10.1074 30.2801 9.56006 30.6134L7.59365 31.8109C6.78629 32.3026 5.81053 31.5031 6.13384 30.6148L11.6572 15.4395Z" fill="#00A69E"/>
<path d="M14.5013 19.3664C14.2252 18.8881 14.3891 18.2765 14.8674 18.0004L20.0635 15.0004C20.5418 14.7242 21.1534 14.8881 21.4295 15.3664L29.5041 29.352C29.9768 30.1706 29.1547 31.1274 28.2742 30.7834L26.1297 29.9456C25.5328 29.7124 24.8737 30.093 24.7772 30.7265L24.4306 33.0026C24.2882 33.9371 23.0486 34.1706 22.5759 33.352L14.5013 19.3664Z" fill="#00A69E"/>
<path d="M15.404 3.7114C16.899 2.43735 19.0979 2.43735 20.5929 3.7114L21.299 4.3131C21.9396 4.85906 22.7362 5.189 23.5753 5.25596L24.5 5.32976C26.458 5.48601 28.0129 7.04085 28.1691 8.99889L28.2429 9.92361C28.3099 10.7627 28.6398 11.5592 29.1858 12.1999L29.7875 12.9059C31.0615 14.401 31.0615 16.5999 29.7875 18.0949L29.1858 18.8009C28.6398 19.4416 28.3099 20.2381 28.2429 21.0772L28.1691 22.0019C28.0129 23.96 26.458 25.5148 24.5 25.6711L23.5753 25.7449C22.7362 25.8118 21.9396 26.1418 21.299 26.6877L20.5929 27.2894C19.0979 28.5635 16.899 28.5635 15.404 27.2894L14.6979 26.6877C14.0573 26.1418 13.2607 25.8118 12.4217 25.7449L11.4969 25.6711C9.5389 25.5148 7.98405 23.96 7.8278 22.0019L7.75401 21.0772C7.68705 20.2381 7.35711 19.4416 6.81114 18.8009L6.20945 18.0949C4.93539 16.5998 4.93539 14.401 6.20945 12.9059L6.81114 12.1999C7.35711 11.5592 7.68705 10.7627 7.75401 9.92361L7.8278 8.99889C7.98405 7.04085 9.5389 5.48601 11.4969 5.32976L12.4217 5.25596C13.2607 5.189 14.0573 4.85906 14.6979 4.3131L15.404 3.7114Z" fill="#D1E1F1"/>
<circle cx="18" cy="15.5" r="8" fill="#AFC3DC"/>
<path fill-rule="evenodd" clip-rule="evenodd" d="M15.2227 12.0919C15.2227 11.6118 15.6118 11.2227 16.0919 11.2227H18.5749C20.16 11.2227 21.4449 12.5076 21.4449 14.0926C21.4449 15.6776 20.16 16.9626 18.5749 16.9626H16.7782V19.0004C16.7782 19.43 16.43 19.7782 16.0004 19.7782C15.5709 19.7782 15.2227 19.43 15.2227 19.0004V12.0919ZM16.7782 15.407H18.5749C19.3008 15.407 19.8893 14.8185 19.8893 14.0926C19.8893 13.3667 19.3008 12.7782 18.5749 12.7782H16.7782V15.407Z" fill="white"/>
</svg>
