<svg width="36" height="36" viewBox="0 0 36 36" fill="none" xmlns="http://www.w3.org/2000/svg">
<path d="M12.75 4.82143C12.75 4.22969 13.2297 3.75 13.8214 3.75H22.1786C22.7703 3.75 23.25 4.22969 23.25 4.82143V6C23.25 8.8995 20.8995 11.25 18 11.25C15.1005 11.25 12.75 8.8995 12.75 6V4.82143Z" fill="#FF9E00"/>
<path d="M5.5 22.25C5.5 15.3464 11.0964 9.75 18 9.75C24.9036 9.75 30.5 15.3464 30.5 22.25V27.75C30.5 30.2353 28.4853 32.25 26 32.25H10C7.51472 32.25 5.5 30.2353 5.5 27.75V22.25Z" fill="#FFBB37"/>
<path fill-rule="evenodd" clip-rule="evenodd" d="M10.5 21.75C10.5 21.1977 10.9477 20.75 11.5 20.75L13.5 20.75C14.0523 20.75 14.5 21.1977 14.5 21.75C14.5 22.3023 14.0523 22.75 13.5 22.75L11.5 22.75C10.9477 22.75 10.5 22.3023 10.5 21.75Z" fill="white"/>
<path fill-rule="evenodd" clip-rule="evenodd" d="M21.5 21.75C21.5 21.1977 21.9477 20.75 22.5 20.75L24.5 20.75C25.0523 20.75 25.5 21.1977 25.5 21.75C25.5 22.3023 25.0523 22.75 24.5 22.75L22.5 22.75C21.9477 22.75 21.5 22.3023 21.5 21.75Z" fill="white"/>
<path d="M13 18.25L15.1429 25.25L18 18.25L20.8571 25.25L23 18.25" stroke="white" stroke-width="2" stroke-linecap="round" stroke-linejoin="round"/>
<path d="M35 28C35 31.866 31.866 35 28 35C24.134 35 21 31.866 21 28C21 24.134 24.134 21 28 21C31.866 21 35 24.134 35 28Z" fill="#00CBC1"/>
<path d="M28 31.2V26.7" stroke="white" stroke-width="1.5" stroke-linecap="round" stroke-linejoin="round"/>
<path d="M25.5 27.5L28 25L30.5 27.5" stroke="white" stroke-width="1.5" stroke-linecap="round" stroke-linejoin="round"/>
</svg>
