<svg width="36" height="36" viewBox="0 0 36 36" fill="none" xmlns="http://www.w3.org/2000/svg">
<rect x="7" y="4" width="22" height="27" rx="3" fill="#DCEAFC"/>
<rect x="11" y="10" width="14" height="2" rx="1" fill="#AFC3DC"/>
<rect x="11" y="15.4219" width="10" height="2" rx="1" fill="#AFC3DC"/>
<circle cx="27.3721" cy="27.4219" r="6" fill="#2AD6CE"/>
<path fill-rule="evenodd" clip-rule="evenodd" d="M30.356 25.4663C30.6091 25.7337 30.5974 26.1557 30.3299 26.4087L27.1592 29.4087C26.8985 29.6554 26.4893 29.6514 26.2334 29.3997L24.4042 27.5997C24.1417 27.3414 24.1383 26.9193 24.3966 26.6569C24.6548 26.3945 25.0769 26.391 25.3393 26.6493L26.7101 27.9981L29.4136 25.4402C29.681 25.1872 30.103 25.1988 30.356 25.4663Z" fill="white"/>
</svg>
