<svg width="70" height="70" viewBox="0 0 70 70" fill="none" xmlns="http://www.w3.org/2000/svg">
<g filter="url(#filter0_f_2186_233240)">
<ellipse cx="35" cy="60" rx="25" ry="3" fill="#AFAFAF"/>
</g>
<g filter="url(#filter1_ii_2186_233240)">
<g clip-path="url(#clip0_2186_233240)">
<rect x="5" width="60" height="60" rx="20" fill="url(#paint0_linear_2186_233240)"/>
<g filter="url(#filter2_dii_2186_233240)">
<path d="M55.9249 27.7852H54.8202C54.9184 28.4904 54.9404 29.2042 54.8859 29.9142C54.1962 30.4871 53.3113 30.7703 52.4172 30.7042C51.56 30.6752 50.9413 30.4764 50.6556 29.8497C50.4632 29.1797 50.4236 28.4751 50.5397 27.7878H49.427C49.3055 28.4717 49.3171 29.1728 49.4612 29.8523C49.4612 29.8523 49.6877 31.7905 52.3961 31.7905C53.2022 31.8189 54.0028 31.646 54.7254 31.2875C54.572 32.2563 54.2912 33.2006 53.8905 34.096H55.0756C55.8564 32.0903 56.1472 29.9272 55.9236 27.7865" fill="white"/>
<path d="M47.5774 28.536C47.1468 28.1136 46.6335 27.7849 46.0697 27.5705C45.506 27.3562 44.904 27.2608 44.3016 27.2904C43.5203 27.2882 42.754 27.5049 42.0895 27.9159C41.7465 28.1172 41.4633 28.4064 41.2691 28.7535C41.075 29.1006 40.9769 29.4932 40.9848 29.8909C41.1731 32.195 44.2014 32.0673 44.2014 32.0673C44.8467 32.0772 45.4867 31.9491 46.0784 31.6916C46.6702 31.4341 47.2 31.0531 47.6326 30.5742C47.8219 30.9641 47.9839 31.3666 48.1172 31.779H49.2455C48.954 30.5804 48.3823 29.4681 47.5774 28.5334M44.2146 30.9798C43.3812 30.9877 42.2646 30.7243 42.1856 29.8277C42.1264 29.1693 42.844 28.3556 44.399 28.3543C44.9034 28.3424 45.4033 28.4501 45.8581 28.6687C46.3128 28.8872 46.7093 29.2104 47.0151 29.6117C46.6851 30.0395 46.2609 30.3855 45.7754 30.6228C45.29 30.86 44.7563 30.9822 44.2159 30.9798" fill="white"/>
<path d="M14 29.6772C14 31.2954 15.6669 32.1275 17.8183 32.1275C18.8801 32.1342 19.933 31.9334 20.9178 31.5363L20.5557 30.5515C19.6781 30.866 18.7519 31.0234 17.8197 31.0162C16.3358 31.0162 15.1969 30.5528 15.1969 29.6759C15.1969 28.8003 16.3358 28.3368 17.8197 28.3368C18.7473 28.328 19.669 28.4854 20.5412 28.8016L20.9033 27.8167C19.9236 27.4202 18.8752 27.221 17.8183 27.2308C15.6616 27.2308 14 28.0629 14 29.6811V29.6772Z" fill="white"/>
<path d="M25.049 32.0952C22.9503 32.0952 21.3281 31.2828 21.3281 29.6804C21.3281 28.0793 22.9503 27.2656 25.049 27.2656C27.0662 27.2656 28.77 28.0793 28.77 29.6804C28.77 31.2828 27.1478 32.0952 25.049 32.0952ZM25.049 31.0129C26.4631 31.0129 27.5507 30.5468 27.5507 29.6791C27.5507 28.8114 26.4026 28.3466 25.049 28.3466C23.6336 28.3466 22.5474 28.8127 22.5474 29.6791C22.5474 30.5468 23.6323 31.0129 25.049 31.0129Z" fill="white"/>
<path d="M34.9026 29.8234C35.7321 29.8234 36.3193 31.8339 37.7993 31.8339C38.6775 31.8339 39.7743 31.0979 40.696 27.7852H39.4359C39.3147 28.4343 38.5866 30.5752 37.8348 30.5752C36.7907 30.5752 36.3864 28.5265 34.9104 28.5251C33.4331 28.5251 33.0303 30.5752 31.9862 30.5752C31.2344 30.5752 30.5062 28.4343 30.3851 27.7852H29.125C30.0401 31.0966 31.1395 31.8339 32.0217 31.8339C33.4977 31.8339 34.0849 29.8234 34.9184 29.8234" fill="white"/>
</g>
<g filter="url(#filter3_d_2186_233240)">
<rect x="5" width="60" height="60" rx="11.1429" fill="white"/>
<g clip-path="url(#clip1_2186_233240)">
<path d="M51.2837 33.4589L43.6692 23.5427C43.3169 23.0729 42.7297 22.8052 42.0627 22.8052C41.546 22.8052 41.048 22.9696 40.6957 23.2561C39.7281 24.05 39.5214 25.2478 40.1884 26.2437L43.3779 30.2647L36.7828 31.6551V12.5272L46.4454 14.5189V25.8914L50.3818 31.0021V13.6076C50.3818 12.3205 49.5034 11.0757 48.3807 10.7798L34.7159 7.1299C34.4106 7.06413 34.1052 7.03125 33.7999 7.03125C32.5222 7.03125 31.1553 7.6701 31.1553 9.45512V34.2575C31.1553 35.7888 32.2827 36.8551 33.8892 36.8551C34.1522 36.8551 34.4247 36.8269 34.7112 36.7706L46.2434 33.8911L48.1411 36.2867C48.423 36.6343 48.9679 36.841 49.602 36.841C50.2737 36.841 50.8985 36.6109 51.1944 36.2492C51.8709 35.4224 51.9084 34.3044 51.2837 33.4589Z" fill="#00A7A0"/>
<path d="M27.031 36.8313C25.9647 36.8313 23.3248 35.5771 23.3248 33.6794V15.9138L21.6055 17.4921C21.2344 17.8068 20.7318 17.9806 20.1775 17.9806C19.3601 17.9806 18.5945 17.6095 18.1294 16.9848C17.2886 15.8527 17.7536 14.0019 18.6978 13.2268L24.2267 8.32744C25.0487 7.59464 26.0399 7.17188 26.9418 7.17188C28.1255 7.17188 28.863 7.8483 28.863 8.9381V35.2436C28.863 36.1925 28.1255 36.8313 27.031 36.8313Z" fill="#E83A5F"/>
</g>
<path d="M19.2728 47.4809H17.0145V46.4112H19.5818C19.6135 46.221 19.6373 46.0309 19.6531 45.8407C19.6769 45.6505 19.6888 45.4524 19.6888 45.2464V44.8066H17.0145V43.7369H21.3528V44.9374C21.3449 45.6743 21.2418 46.3795 21.0437 47.053C20.8457 47.7266 20.5564 48.3367 20.1761 48.8834C19.7957 49.4302 19.3282 49.8977 18.7736 50.286C18.2268 50.6663 17.6009 50.9357 16.8956 51.0942V50.0126C17.4503 49.7749 17.9257 49.4381 18.3219 49.0023C18.726 48.5586 19.043 48.0514 19.2728 47.4809ZM23.9082 47.5404V53.8992H22.3631V43.1426H23.9082V46.4706H24.6808V43.1426H26.2259V53.8992H24.6808V47.5404H23.9082ZM35.7035 43.1189V53.8992H34.0989V50.4286C33.8057 50.5791 33.465 50.6821 33.0767 50.7376C32.6885 50.7852 32.2962 50.8089 31.9 50.8089H27.0031V49.7392H27.954V44.7829H27.0626V43.7132H32.9698V44.7829H32.0546V47.6473C32.0546 48.0911 32.0348 48.5031 31.9951 48.8834C31.9555 49.2638 31.904 49.549 31.8406 49.7392H32.1734C32.5379 49.7392 32.8747 49.7234 33.1837 49.6917C33.5007 49.652 33.8057 49.549 34.0989 49.3826V43.1189H35.7035ZM29.5586 49.7392H30.236C30.3153 49.5332 30.3708 49.2479 30.4024 48.8834C30.4341 48.511 30.45 48.099 30.45 47.6473V44.7829H29.5586V49.7392ZM46.177 54.0181H40.2817C40.1153 54.0181 39.9568 53.9784 39.8063 53.8992C39.6557 53.8279 39.525 53.7249 39.414 53.5902C39.3031 53.4555 39.212 53.301 39.1407 53.1266C39.0773 52.9523 39.0456 52.7661 39.0456 52.568V51.1417H44.4417V50.4405H39.0456V49.3708H46.0582V51.2012C46.0582 51.4706 45.9789 51.7083 45.8204 51.9143C45.662 52.1124 45.4797 52.2114 45.2737 52.2114H40.6502V52.5324C40.6502 52.6591 40.6898 52.7582 40.769 52.8295C40.8562 52.9087 40.979 52.9484 41.1375 52.9484H46.177V54.0181ZM37.6668 43.3804H42.7183V44.4501H39.2714V45.3415H42.5994V46.4112H39.2714V46.9223C39.2714 47.0649 39.315 47.1759 39.4022 47.2551C39.4893 47.3264 39.6201 47.3621 39.7944 47.3621H42.6113C42.96 47.3621 43.2729 47.3502 43.5503 47.3264C43.8355 47.3026 44.1327 47.2115 44.4417 47.053V43.1426H46.0463V45.1038H47.5914V46.1735H46.0463V48.7884H44.4417V48.0871C44.1564 48.2218 43.8593 48.3129 43.5503 48.3605C43.2492 48.408 42.9243 48.4318 42.5756 48.4318H38.903C38.5464 48.4318 38.2492 48.2892 38.0115 48.0039C37.7817 47.7107 37.6668 47.3621 37.6668 46.958V43.3804Z" fill="#00A7A0"/>
</g>
</g>
</g>
<defs>
<filter id="filter0_f_2186_233240" x="4" y="51" width="62" height="18" filterUnits="userSpaceOnUse" color-interpolation-filters="sRGB">
<feFlood flood-opacity="0" result="BackgroundImageFix"/>
<feBlend mode="normal" in="SourceGraphic" in2="BackgroundImageFix" result="shape"/>
<feGaussianBlur stdDeviation="3" result="effect1_foregroundBlur_2186_233240"/>
</filter>
<filter id="filter1_ii_2186_233240" x="3" y="-2" width="64" height="64" filterUnits="userSpaceOnUse" color-interpolation-filters="sRGB">
<feFlood flood-opacity="0" result="BackgroundImageFix"/>
<feBlend mode="normal" in="SourceGraphic" in2="BackgroundImageFix" result="shape"/>
<feColorMatrix in="SourceAlpha" type="matrix" values="0 0 0 0 0 0 0 0 0 0 0 0 0 0 0 0 0 0 127 0" result="hardAlpha"/>
<feOffset dx="-2" dy="-2"/>
<feGaussianBlur stdDeviation="2"/>
<feComposite in2="hardAlpha" operator="arithmetic" k2="-1" k3="1"/>
<feColorMatrix type="matrix" values="0 0 0 0 0 0 0 0 0 0 0 0 0 0 0 0 0 0 0.2 0"/>
<feBlend mode="normal" in2="shape" result="effect1_innerShadow_2186_233240"/>
<feColorMatrix in="SourceAlpha" type="matrix" values="0 0 0 0 0 0 0 0 0 0 0 0 0 0 0 0 0 0 127 0" result="hardAlpha"/>
<feOffset dx="2" dy="2"/>
<feGaussianBlur stdDeviation="2"/>
<feComposite in2="hardAlpha" operator="arithmetic" k2="-1" k3="1"/>
<feColorMatrix type="matrix" values="0 0 0 0 1 0 0 0 0 1 0 0 0 0 1 0 0 0 0.5 0"/>
<feBlend mode="normal" in2="effect1_innerShadow_2186_233240" result="effect2_innerShadow_2186_233240"/>
</filter>
<filter id="filter2_dii_2186_233240" x="13.9" y="27.1305" width="42.6968" height="7.56548" filterUnits="userSpaceOnUse" color-interpolation-filters="sRGB">
<feFlood flood-opacity="0" result="BackgroundImageFix"/>
<feColorMatrix in="SourceAlpha" type="matrix" values="0 0 0 0 0 0 0 0 0 0 0 0 0 0 0 0 0 0 127 0" result="hardAlpha"/>
<feOffset dx="0.3" dy="0.3"/>
<feGaussianBlur stdDeviation="0.15"/>
<feComposite in2="hardAlpha" operator="out"/>
<feColorMatrix type="matrix" values="0 0 0 0 0 0 0 0 0 0 0 0 0 0 0 0 0 0 0.25 0"/>
<feBlend mode="normal" in2="BackgroundImageFix" result="effect1_dropShadow_2186_233240"/>
<feBlend mode="normal" in="SourceGraphic" in2="effect1_dropShadow_2186_233240" result="shape"/>
<feColorMatrix in="SourceAlpha" type="matrix" values="0 0 0 0 0 0 0 0 0 0 0 0 0 0 0 0 0 0 127 0" result="hardAlpha"/>
<feOffset dx="-0.1" dy="-0.1"/>
<feGaussianBlur stdDeviation="0.1"/>
<feComposite in2="hardAlpha" operator="arithmetic" k2="-1" k3="1"/>
<feColorMatrix type="matrix" values="0 0 0 0 0 0 0 0 0 0 0 0 0 0 0 0 0 0 0.25 0"/>
<feBlend mode="normal" in2="shape" result="effect2_innerShadow_2186_233240"/>
<feColorMatrix in="SourceAlpha" type="matrix" values="0 0 0 0 0 0 0 0 0 0 0 0 0 0 0 0 0 0 127 0" result="hardAlpha"/>
<feOffset dx="0.1" dy="0.1"/>
<feGaussianBlur stdDeviation="0.1"/>
<feComposite in2="hardAlpha" operator="arithmetic" k2="-1" k3="1"/>
<feColorMatrix type="matrix" values="0 0 0 0 1 0 0 0 0 1 0 0 0 0 1 0 0 0 1 0"/>
<feBlend mode="normal" in2="effect2_innerShadow_2186_233240" result="effect3_innerShadow_2186_233240"/>
</filter>
<filter id="filter3_d_2186_233240" x="-15" y="-15" width="100" height="100" filterUnits="userSpaceOnUse" color-interpolation-filters="sRGB">
<feFlood flood-opacity="0" result="BackgroundImageFix"/>
<feColorMatrix in="SourceAlpha" type="matrix" values="0 0 0 0 0 0 0 0 0 0 0 0 0 0 0 0 0 0 127 0" result="hardAlpha"/>
<feOffset dy="5"/>
<feGaussianBlur stdDeviation="10"/>
<feComposite in2="hardAlpha" operator="out"/>
<feColorMatrix type="matrix" values="0 0 0 0 0 0 0 0 0 0 0 0 0 0 0 0 0 0 0.1 0"/>
<feBlend mode="normal" in2="BackgroundImageFix" result="effect1_dropShadow_2186_233240"/>
<feBlend mode="normal" in="SourceGraphic" in2="effect1_dropShadow_2186_233240" result="shape"/>
</filter>
<linearGradient id="paint0_linear_2186_233240" x1="25.4167" y1="3.49544e-06" x2="47.5" y2="57.5" gradientUnits="userSpaceOnUse">
<stop stop-color="#37C6F8"/>
<stop offset="1" stop-color="#0FAAE0"/>
</linearGradient>
<clipPath id="clip0_2186_233240">
<rect x="5" width="60" height="60" rx="20" fill="white"/>
</clipPath>
<clipPath id="clip1_2186_233240">
<rect width="34.0328" height="29.8286" fill="white" transform="translate(17.6934 7.03125)"/>
</clipPath>
</defs>
</svg>
