<svg width="80" height="80" viewBox="0 0 80 80" fill="none" xmlns="http://www.w3.org/2000/svg">
<path d="M49.3263 58.337C49.2481 58.3204 49.1672 58.3032 49.089 58.2866C41.9666 56.1662 35.8317 51.5794 31.7833 45.3476C27.7349 39.1158 26.0374 31.6462 26.995 24.2768C27.0516 23.86 27.1928 23.4592 27.4101 23.099C27.6273 22.7389 27.9159 22.4269 28.2581 22.1824C28.592 21.9437 28.9718 21.7768 29.3736 21.6924C29.7753 21.608 30.1901 21.6079 30.5919 21.6921L36.7423 22.9538C37.4005 23.0904 37.994 23.4435 38.4283 23.9567C38.8625 24.4699 39.1124 25.1137 39.1382 25.7855L39.3365 31.1453C39.3589 31.7368 39.2048 32.3216 38.8938 32.8253C38.5828 33.329 38.1291 33.7287 37.5902 33.9737L34.7404 35.2755C36.062 39.672 38.5981 43.606 42.057 46.6246L44.4985 44.5001C44.9453 44.1119 45.4965 43.8639 46.0834 43.787C46.6702 43.7102 47.2667 43.8079 47.7984 44.068L52.6491 46.4298C53.2563 46.7213 53.7476 47.2088 54.0437 47.8138C54.3399 48.4187 54.4235 49.1058 54.2813 49.7641L52.9464 56.0407C52.8632 56.4422 52.6968 56.8218 52.4579 57.155C52.219 57.4882 51.9128 57.7676 51.5592 57.9752C50.8869 58.3724 50.0896 58.5017 49.3263 58.337Z" fill="white"/>
</svg>
