<svg width="71" height="71" viewBox="0 0 71 71" fill="none" xmlns="http://www.w3.org/2000/svg">
<g clip-path="url(#clip0_4608_45035)">
<g filter="url(#filter0_f_4608_45035)">
<ellipse cx="35.5" cy="63.3311" rx="37" ry="1.68359" fill="url(#paint0_radial_4608_45035)" fill-opacity="0.2"/>
</g>
<g filter="url(#filter1_f_4608_45035)">
<ellipse cx="36" cy="64.1499" rx="29.5" ry="1.86475" fill="url(#paint1_radial_4608_45035)" fill-opacity="0.2"/>
</g>
<g filter="url(#filter2_f_4608_45035)">
<ellipse cx="35.5" cy="63.3311" rx="25" ry="1.68359" fill="url(#paint2_radial_4608_45035)" fill-opacity="0.1"/>
</g>
<g clip-path="url(#clip1_4608_45035)" filter="url(#filter3_ii_4608_45035)">
<path d="M48.9062 4.5H23.0938C13.9293 4.5 6.5 11.9293 6.5 21.0938V46.9062C6.5 56.0707 13.9293 63.5 23.0938 63.5H48.9062C58.0707 63.5 65.5 56.0707 65.5 46.9062V21.0938C65.5 11.9293 58.0707 4.5 48.9062 4.5Z" fill="#00A69E"/>
<path d="M43.2297 44.1348H46.5403" stroke="url(#paint3_linear_4608_45035)" stroke-width="0.1"/>
<g filter="url(#filter4_dii_4608_45035)">
<path d="M33.0495 34.6104C33.0495 34.7565 33.0447 34.9029 33.054 35.0486C33.0619 35.4693 33.2123 35.8749 33.4807 36.1989C33.7492 36.523 34.1196 36.7463 34.5315 36.8324C34.9764 36.9237 35.4365 36.9098 35.875 36.7917C38.5473 36.1221 41.2223 35.462 43.8925 34.7837C44.0154 34.7283 44.1544 34.7205 44.2828 34.7617C44.4111 34.8029 44.5196 34.8903 44.5873 35.0069C44.8942 35.4503 45.2467 35.862 45.5832 36.2847C45.8156 36.5694 46.1351 36.7697 46.4925 36.8549C46.85 36.9401 47.2256 36.9053 47.5613 36.7559C47.8462 36.6196 48.0809 36.3971 48.2323 36.1199C48.3837 35.8427 48.444 35.5249 48.4046 35.2116C48.3681 34.8317 48.213 34.4729 47.9613 34.186C46.1377 31.8136 44.3149 29.4407 42.4928 27.0674C42.3153 26.8154 42.0682 26.6206 41.7817 26.5069C41.4368 26.3778 41.0589 26.3663 40.7068 26.4742C40.3546 26.5821 40.048 26.8034 39.8347 27.1035C39.6165 27.3914 39.5026 27.7448 39.5114 28.1059C39.5202 28.467 39.6513 28.8144 39.8832 29.0913C40.5378 29.9315 41.2088 30.7607 41.8703 31.5957C42.1707 31.9747 42.1696 31.983 41.6784 32.0863C40.3517 32.3657 39.0196 32.6206 37.6995 32.9289C37.2978 33.0226 37.2516 32.9248 37.2516 32.5579C37.2631 28.1025 37.2631 23.647 37.2516 19.1916C37.2516 18.8202 37.3171 18.7275 37.6964 18.8088C39.8058 19.2601 41.9187 19.6965 44.0351 20.1179C44.3637 20.1837 44.474 20.3039 44.4719 20.655C44.454 23.2111 44.4619 25.7676 44.4626 28.3241C44.4343 28.4979 44.4689 28.6761 44.5601 28.8267C45.4875 30.0262 46.4128 31.2274 47.336 32.4301L47.4252 32.3988V31.9688C47.4252 27.9371 47.4252 23.9053 47.4252 19.8733C47.4252 19.7276 47.4276 19.5808 47.4156 19.4355C47.4023 18.9791 47.2463 18.5384 46.9695 18.1753C46.6927 17.8122 46.3091 17.545 45.8726 17.4112C42.4966 16.5007 39.1205 15.5816 35.7341 14.7135C34.4571 14.3862 33.0154 14.8144 33.0326 16.8149C33.0819 22.7485 33.0492 28.6793 33.0495 34.6104Z" fill="#EFF6F5"/>
<path d="M23.9439 22.5802C24.276 22.7701 24.6602 22.8486 25.0402 22.8041C25.4201 22.7596 25.7758 22.5944 26.055 22.3328C26.4088 22.0125 26.7615 21.6914 27.1952 21.2994V21.8881C27.1952 26.022 27.1937 30.1553 27.1908 34.2878C27.182 34.5949 27.241 34.9002 27.3635 35.1819C27.4861 35.4637 27.6691 35.715 27.8997 35.918C28.3314 36.3147 28.8476 36.6083 29.4093 36.7764C30.6002 37.1354 31.3633 36.5722 31.3633 35.3334C31.3633 29.0241 31.3633 22.7145 31.3633 16.4048C31.3633 16.2735 31.3681 16.1419 31.3598 16.0107C31.3655 15.6843 31.2419 15.3688 31.0161 15.1331C30.7903 14.8973 30.4805 14.7603 30.1541 14.7519C29.7375 14.7214 29.3191 14.7809 28.9275 14.9263C28.5359 15.0717 28.1801 15.2996 27.8842 15.5945C26.5455 16.7706 25.2234 17.965 23.8785 19.1335C23.4052 19.5322 23.098 20.0933 23.0172 20.7068C22.9527 21.077 23.0078 21.4581 23.1744 21.795C23.341 22.1318 23.6105 22.4068 23.9439 22.5802Z" fill="#EFF6F5"/>
<g filter="url(#filter5_f_4608_45035)">
<path d="M33.5447 16.8506V33.7941" stroke="url(#paint4_linear_4608_45035)" stroke-width="0.5"/>
</g>
<g filter="url(#filter6_f_4608_45035)">
<path d="M27.6292 21.5342V34.3322" stroke="url(#paint5_linear_4608_45035)" stroke-width="0.5"/>
</g>
</g>
<g filter="url(#filter7_dii_4608_45035)">
<path fill-rule="evenodd" clip-rule="evenodd" d="M19.9148 44.9571V46.2783H22.2365C22.005 46.8116 21.6973 47.2888 21.3134 47.7103C20.9072 48.1572 20.4197 48.5026 19.85 48.7467L19.79 48.7724V50.0971L19.9107 50.07C20.6626 49.901 21.3322 49.6131 21.9177 49.2058C22.5095 48.7916 23.0087 48.2924 23.4149 47.7086C23.8206 47.1253 24.1288 46.4748 24.3397 45.758C24.5504 45.0416 24.6598 44.292 24.6682 43.5096V42.149H19.9148V43.4702H22.723V43.833C22.723 44.0455 22.7106 44.2494 22.6862 44.4447L22.6859 44.4488C22.6718 44.6182 22.6516 44.7876 22.6253 44.9571H19.9148ZM22.3851 46.1794C22.1438 46.7785 21.8111 47.311 21.3868 47.7769C20.9707 48.2346 20.4715 48.5882 19.8891 48.8378V49.9734C19.8891 49.9734 19.8891 49.9734 19.8891 49.9734V48.8378C20.4715 48.5882 20.9707 48.2346 21.3868 47.7769C21.7876 47.3368 22.1067 46.8372 22.3442 46.2783C22.3581 46.2455 22.3717 46.2126 22.3851 46.1794Z" fill="#EFF7F5"/>
<path fill-rule="evenodd" clip-rule="evenodd" d="M25.5311 53.0178H27.3515V46.3407H27.9648V53.0178H29.7852V41.525H27.9648V45.0195H27.3515V41.525H25.5311V53.0178Z" fill="#EFF7F5"/>
<path fill-rule="evenodd" clip-rule="evenodd" d="M39.7371 53.0178V41.5H37.8543V48.1179C37.573 48.2701 37.282 48.3646 36.9811 48.4024C36.6608 48.4352 36.3109 48.4517 35.9314 48.4517H35.7141C35.7663 48.2514 35.8088 47.9874 35.8426 47.6623C35.8846 47.259 35.9056 46.8229 35.9056 46.3541V43.4452H36.8666V42.124H30.4658V43.4452H31.4019V48.4517H30.4034V49.7729H35.6444C36.0644 49.7729 36.4802 49.7477 36.892 49.6973L36.8939 49.697C37.2492 49.6462 37.5696 49.5581 37.8543 49.4315V53.0178H39.7371ZM35.9315 48.5507H35.5821C35.5821 48.5508 35.5821 48.5507 35.5821 48.5507H35.9315ZM37.9533 49.2747C37.9532 49.2747 37.9533 49.2746 37.9533 49.2747V49.2747ZM33.9732 47.6437C33.9436 47.9846 33.8943 48.2528 33.8275 48.4517H33.2847V43.4452H34.0228V46.3541C34.0228 46.8261 34.0062 47.2559 33.9732 47.6437Z" fill="#EFF7F5"/>
<path fill-rule="evenodd" clip-rule="evenodd" d="M44.4455 53.1426H50.7349V51.8214H45.3441C45.1937 51.8214 45.0916 51.784 45.0238 51.7224L45.0234 51.722C44.965 51.6695 44.9314 51.5945 44.9314 51.4836V51.2456H49.6874C49.9407 51.2456 50.1584 51.1219 50.3388 50.8964L50.3399 50.8949C50.5201 50.6606 50.61 50.3896 50.61 50.0858V48.0648H43.0486V49.386H48.7148V49.9244H43.0486V51.521C43.0486 51.7398 43.0835 51.9469 43.1543 52.1415L43.1558 52.1451C43.2341 52.3366 43.3348 52.5076 43.4581 52.6573C43.5829 52.8088 43.731 52.926 43.9021 53.0074C44.0735 53.0973 44.255 53.1426 44.4455 53.1426ZM44.9572 51.7956C44.9572 51.7956 44.9573 51.7956 44.9572 51.7956V51.7956Z" fill="#EFF7F5"/>
<path fill-rule="evenodd" clip-rule="evenodd" d="M47.103 41.7746H41.6008V45.6302C41.6008 46.0747 41.7277 46.4628 41.9838 46.7896L41.9857 46.7918C42.2532 47.1129 42.5926 47.2767 42.9978 47.2767H46.8543C47.2247 47.2767 47.571 47.2515 47.8929 47.2007C48.1761 47.1571 48.4501 47.0796 48.7148 46.9683V47.6512H50.5976V44.9054H52.22V43.5843H50.5976V41.525H48.7148V45.669C48.4191 45.8139 48.1372 45.8962 47.8692 45.9185C47.5814 45.9432 47.2557 45.9556 46.8917 45.9556H43.9338C43.7634 45.9556 43.6532 45.9207 43.5866 45.8672C43.5212 45.8067 43.4836 45.7198 43.4836 45.5927V45.155H46.9782V43.8339H43.4836V43.0957H47.103V41.7746ZM42.0617 46.7285C42.0617 46.7284 42.0618 46.7285 42.0617 46.7285V46.7285ZM48.8137 46.816C48.8137 46.816 48.8138 46.816 48.8137 46.816V46.816ZM48.8138 41.624V45.7301C48.4893 45.8965 48.1773 45.9922 47.8778 46.0172C47.5866 46.0421 47.2579 46.0546 46.8918 46.0546H43.9339C43.7509 46.0546 43.6136 46.0172 43.5221 45.9423C43.522 45.9423 43.5221 45.9423 43.5221 45.9423C43.6136 46.0172 43.7509 46.0546 43.9339 46.0546H46.8918C47.2579 46.0546 47.5866 46.0421 47.8778 46.0172C48.1773 45.9922 48.4893 45.8965 48.8138 45.7301V41.624Z" fill="#EFF7F5"/>
</g>
<g filter="url(#filter8_f_4608_45035)">
<path fill-rule="evenodd" clip-rule="evenodd" d="M43.1694 48.2554H50.1165V48.452H43.3661V49.061H43.1694V48.2554Z" fill="url(#paint6_linear_4608_45035)"/>
</g>
<g filter="url(#filter9_f_4608_45035)">
<path fill-rule="evenodd" clip-rule="evenodd" d="M49.0611 49.6006V50.4247H43.4594V51.9082H43.2627V50.2281H48.8644V49.6006H49.0611Z" fill="url(#paint7_linear_4608_45035)"/>
</g>
<g filter="url(#filter10_f_4608_45035)">
<path fill-rule="evenodd" clip-rule="evenodd" d="M50.3213 52.1742H45.1663V51.9775H50.3213V52.1742Z" fill="url(#paint8_linear_4608_45035)"/>
</g>
<g filter="url(#filter11_f_4608_45035)">
<path fill-rule="evenodd" clip-rule="evenodd" d="M50.1189 43.6455H50.3156V43.7978H51.8686V43.9945H50.1189V43.6455Z" fill="url(#paint9_linear_4608_45035)"/>
</g>
<g filter="url(#filter12_f_4608_45035)">
<path fill-rule="evenodd" clip-rule="evenodd" d="M22.3838 47.1138C22.2237 47.3526 22.0179 47.5993 21.7911 47.8667C21.6895 47.9867 21.4357 48.247 21.1335 48.4981C20.8565 48.7282 20.5269 48.9608 20.2299 49.0639L20.2299 49.5971L20.0332 49.5977L20.0332 48.9169L20.1052 48.8969C20.3767 48.8214 20.7104 48.594 21.0078 48.3468C21.3025 48.102 21.5478 47.8496 21.6411 47.7396C21.8688 47.471 22.0675 47.2324 22.2204 47.0043C22.3731 46.7765 22.4761 46.5648 22.5167 46.3516L22.7099 46.3884C22.6624 46.6378 22.5441 46.8747 22.3838 47.1138Z" fill="url(#paint10_linear_4608_45035)"/>
</g>
<g filter="url(#filter13_f_4608_45035)">
<path fill-rule="evenodd" clip-rule="evenodd" d="M23.1497 44.4149C23.1081 44.7543 23.0381 45.1199 22.9862 45.3533L22.9691 45.4303H20.389V46.0369H20.1924V45.2337H22.8109C22.8594 45.0058 22.9182 44.6873 22.9545 44.391C22.9748 44.2251 22.9879 44.0684 22.9885 43.9394C22.9888 43.8749 22.986 43.819 22.9799 43.7734C22.9737 43.7266 22.9648 43.6965 22.9564 43.6797L23.1323 43.5918C23.1548 43.6367 23.1674 43.6915 23.1749 43.7476C23.1825 43.805 23.1855 43.8704 23.1851 43.9403C23.1845 44.0802 23.1705 44.2454 23.1497 44.4149Z" fill="url(#paint11_linear_4608_45035)"/>
</g>
<g filter="url(#filter14_f_4608_45035)">
<path fill-rule="evenodd" clip-rule="evenodd" d="M20.1924 42.436H24.234V42.6327H20.389V43.214H20.1924V42.436Z" fill="url(#paint12_linear_4608_45035)"/>
</g>
<g filter="url(#filter15_f_4608_45035)">
<path fill-rule="evenodd" clip-rule="evenodd" d="M25.7524 41.7627H26.982V41.9594H25.9491V52.7393H25.7524V41.7627Z" fill="url(#paint13_linear_4608_45035)"/>
</g>
<g filter="url(#filter16_f_4608_45035)">
<path fill-rule="evenodd" clip-rule="evenodd" d="M28.1317 41.7627H29.3612V41.9594H28.3283V45.3588H27.3713V45.1622H28.1317V41.7627Z" fill="url(#paint14_linear_4608_45035)"/>
</g>
<g filter="url(#filter17_f_4608_45035)">
<path fill-rule="evenodd" clip-rule="evenodd" d="M30.6558 42.3296H36.5026V42.5263H30.8524V43.223H30.6558V42.3296Z" fill="url(#paint15_linear_4608_45035)"/>
</g>
<g filter="url(#filter18_f_4608_45035)">
<path fill-rule="evenodd" clip-rule="evenodd" d="M31.6417 48.5537V43.334H31.8384V48.7504H30.7413V49.5684H30.5447V48.5537H31.6417Z" fill="url(#paint16_linear_4608_45035)"/>
</g>
<g filter="url(#filter19_f_4608_45035)">
<path fill-rule="evenodd" clip-rule="evenodd" d="M37.9594 41.7222H39.488V41.9188H38.1561V48.4477L38.1214 48.4772C37.9944 48.5852 37.8118 48.6626 37.6097 48.7194C37.4056 48.7768 37.1725 48.8156 36.9367 48.8412C36.4652 48.8925 35.9738 48.8917 35.6643 48.8752L35.6747 48.6788C35.9761 48.6948 36.4567 48.6956 36.9155 48.6457C37.1449 48.6208 37.3665 48.5835 37.5564 48.5301C37.7264 48.4823 37.8641 48.4235 37.9594 48.3545V41.7222Z" fill="url(#paint17_linear_4608_45035)"/>
</g>
<g filter="url(#filter20_f_4608_45035)">
<path fill-rule="evenodd" clip-rule="evenodd" d="M41.8071 42.0996H46.6229V42.2963H42.0038V45.614C41.9908 45.8159 42.0255 46.1201 42.1678 46.3731C42.3067 46.62 42.5486 46.8215 42.9676 46.8337L42.9619 47.0302C42.4672 47.0159 42.1657 46.7705 41.9964 46.4695C41.8314 46.176 41.793 45.8331 41.8071 45.6046V42.0996Z" fill="url(#paint18_linear_4608_45035)"/>
</g>
<g filter="url(#filter21_f_4608_45035)">
<path fill-rule="evenodd" clip-rule="evenodd" d="M46.4077 44.266H43.2461V44.0693H46.4077V44.266Z" fill="url(#paint19_linear_4608_45035)"/>
</g>
<g filter="url(#filter22_f_4608_45035)">
<path fill-rule="evenodd" clip-rule="evenodd" d="M34.1979 15.4017C33.9431 15.6388 33.8663 15.9864 33.8781 16.2379L33.6325 16.2493C33.6186 15.9506 33.7069 15.5228 34.0305 15.2217C34.3601 14.9152 34.9038 14.7669 35.7426 14.9726C37.3712 15.372 42.357 16.6997 44.6488 17.3142C44.9702 17.3801 45.4573 17.5231 45.883 17.7411C46.0968 17.8505 46.2998 17.9812 46.459 18.1343C46.618 18.2872 46.7398 18.4689 46.7764 18.6798L46.5342 18.7219C46.5095 18.5796 46.4246 18.4423 46.2886 18.3115C46.1526 18.1808 45.9722 18.0629 45.771 17.9599C45.3684 17.7538 44.9017 17.6167 44.5959 17.5543L44.5923 17.5536L44.5887 17.5526C42.2973 16.9382 37.3103 15.6102 35.684 15.2113C34.8949 15.0178 34.4468 15.1702 34.1979 15.4017Z" fill="url(#paint20_linear_4608_45035)"/>
</g>
<g filter="url(#filter23_f_4608_45035)">
<path fill-rule="evenodd" clip-rule="evenodd" d="M25.5692 6.58736C22.632 6.68862 19.3729 7.16749 16.7301 8.65185C11.7113 11.4706 9.77323 17.2786 9.24625 20.5909L8.66357 20.4982C9.20033 17.1245 11.1851 11.0895 16.4411 8.13743C19.2064 6.58433 22.5779 6.10014 25.5489 5.99771C27.0377 5.94639 28.4336 5.99079 29.612 6.04769C29.9992 6.06638 30.3606 6.08626 30.6934 6.10456C31.3816 6.14241 31.9474 6.17353 32.3655 6.17353V6.76353C31.9308 6.76353 31.338 6.73094 30.6375 6.69244C30.3082 6.67435 29.9552 6.65494 29.5836 6.637C28.4122 6.58044 27.0346 6.53684 25.5692 6.58736Z" fill="url(#paint21_linear_4608_45035)"/>
</g>
<g filter="url(#filter24_f_4608_45035)">
<path fill-rule="evenodd" clip-rule="evenodd" d="M25.5692 6.58687C22.632 6.68814 19.3729 7.167 16.7301 8.65136C11.7113 11.4701 9.77323 17.2782 9.24625 20.5904L8.66357 20.4977C9.20033 17.124 11.1851 11.089 16.4411 8.13694C19.2064 6.58384 22.5779 6.09965 25.5489 5.99722C27.0377 5.9459 28.4336 5.9903 29.612 6.0472C29.9992 6.06589 30.3606 6.08577 30.6934 6.10407C31.3816 6.14192 31.9474 6.17304 32.3655 6.17304V6.76304C31.9308 6.76304 31.338 6.73046 30.6375 6.69196C30.3082 6.67386 29.9552 6.65445 29.5836 6.63651C28.4122 6.57995 27.0346 6.53636 25.5692 6.58687Z" fill="url(#paint22_linear_4608_45035)"/>
</g>
<g filter="url(#filter25_f_4608_45035)">
<path fill-rule="evenodd" clip-rule="evenodd" d="M57.3981 9.89396C60.8076 12.6088 63.3241 16.5417 62.9645 20.965L63.5526 21.0128C63.9338 16.3236 61.2644 12.2183 57.7656 9.43241C54.2742 6.65242 49.8758 5.12128 46.6887 5.6589L46.7868 6.24069C49.7487 5.74107 53.9811 7.17322 57.3981 9.89396Z" fill="url(#paint23_linear_4608_45035)"/>
</g>
<g filter="url(#filter26_f_4608_45035)">
<path fill-rule="evenodd" clip-rule="evenodd" d="M57.3981 9.89396C60.8076 12.6088 63.3241 16.5417 62.9645 20.965L63.5526 21.0128C63.9338 16.3236 61.2644 12.2183 57.7656 9.43241C54.2742 6.65242 49.8758 5.12128 46.6887 5.6589L46.7868 6.24069C49.7487 5.74107 53.9811 7.17322 57.3981 9.89396Z" fill="url(#paint24_linear_4608_45035)"/>
</g>
<g style="mix-blend-mode:hard-light" filter="url(#filter27_f_4608_45035)">
<path fill-rule="evenodd" clip-rule="evenodd" d="M29.8647 15.1278C29.4069 15.1668 28.8522 15.4515 28.3578 15.8797L28.3578 15.8797C27.1321 16.9411 24.5576 19.1966 24.0185 19.7656C23.5052 20.3072 23.4498 20.9906 23.4841 21.2532L23.2403 21.285C23.1989 20.9677 23.2642 20.2041 23.84 19.5965C24.3899 19.0162 26.9776 16.7497 28.1969 15.6938C28.7115 15.2482 29.3138 14.928 29.8439 14.8829C30.1114 14.8601 30.3672 14.9072 30.5808 15.0516C30.7951 15.1965 30.9534 15.43 31.0425 15.7542L30.8055 15.8193C30.7283 15.5386 30.5987 15.3604 30.4432 15.2553C30.2871 15.1498 30.0911 15.1086 29.8647 15.1278Z" fill="url(#paint25_linear_4608_45035)"/>
</g>
<g filter="url(#filter28_f_4608_45035)">
<path fill-rule="evenodd" clip-rule="evenodd" d="M36.5707 32.3415C36.571 32.3185 36.5712 32.2979 36.5712 32.2798L36.8171 32.2798C36.8171 32.3006 36.8169 32.3231 36.8167 32.347C36.8151 32.5391 36.8127 32.8225 36.9026 33.0512C36.9513 33.1754 37.0236 33.2722 37.1295 33.3294C37.2354 33.3867 37.3933 33.414 37.6328 33.3632C38.6672 33.1439 41.1729 32.5926 42.2968 32.3443L42.3498 32.5843C41.2262 32.8326 38.7194 33.3841 37.6838 33.6037C37.4059 33.6627 37.1845 33.6385 37.0127 33.5457C36.8408 33.4529 36.7366 33.3012 36.6738 33.1411C36.5648 32.8638 36.5686 32.528 36.5707 32.3415Z" fill="url(#paint26_linear_4608_45035)"/>
</g>
<g filter="url(#filter29_f_4608_45035)">
<path fill-rule="evenodd" clip-rule="evenodd" d="M12.1997 55.1199C11.6706 54.3866 11.3096 53.7519 11.167 53.3757L11.7186 53.1665C11.8342 53.4711 12.1602 54.0568 12.6782 54.7747C13.1923 55.4871 13.8839 56.3138 14.7182 57.1015C16.3934 58.683 18.6087 60.0754 21.0948 60.1294C26.2702 60.2419 41.9155 60.1764 49.1038 60.1294C50.5266 60.0364 52.7027 59.5868 54.5987 58.5461C56.4949 57.5054 58.0772 55.895 58.3986 53.4845L58.9835 53.5625C58.6289 56.222 56.8781 57.9681 54.8826 59.0633C52.8907 60.1566 50.6213 60.6227 49.1333 60.7187L49.1248 60.7193L49.1163 60.7193C41.9357 60.7663 26.2699 60.832 21.082 60.7193C18.3854 60.6607 16.0361 59.1571 14.3132 57.5305C13.4486 56.7142 12.7328 55.8588 12.1997 55.1199Z" fill="url(#paint27_linear_4608_45035)"/>
</g>
<g filter="url(#filter30_f_4608_45035)">
<path fill-rule="evenodd" clip-rule="evenodd" d="M51.7354 6.52867C45.4374 6.48175 31.6946 6.41595 27.1426 6.52875L27.1572 7.11857C31.6973 7.00606 45.4285 7.0717 51.731 7.11865L51.7354 6.52867Z" fill="url(#paint28_linear_4608_45035)"/>
</g>
<g filter="url(#filter31_f_4608_45035)">
<path fill-rule="evenodd" clip-rule="evenodd" d="M41.6126 26.9416C41.2645 26.8151 40.8512 26.8098 40.4331 27.1539C40.0548 27.4651 39.9646 27.8244 39.99 28.1479C40.016 28.4785 40.1641 28.7752 40.2684 28.9376L40.0615 29.0704C39.9453 28.8893 39.7753 28.5532 39.7449 28.1671C39.714 27.7738 39.8291 27.3324 40.2769 26.964C40.7738 26.5553 41.2819 26.5598 41.6966 26.7105C42.1037 26.8585 42.422 27.1463 42.5704 27.3139L42.3863 27.4769C42.2542 27.3277 41.9683 27.0709 41.6126 26.9416Z" fill="url(#paint29_linear_4608_45035)"/>
</g>
<g filter="url(#filter32_f_4608_45035)">
<path fill-rule="evenodd" clip-rule="evenodd" d="M34.4073 43.4307C34.4119 44.5084 34.4184 46.8194 34.4072 47.4318C34.3959 48.0573 34.223 48.6023 34.1351 48.8024L34.1093 48.8612H33.2397V48.6646H33.9791C34.0634 48.4465 34.2008 47.969 34.2106 47.4282C34.2217 46.8187 34.2152 44.5106 34.2106 43.4315L34.4073 43.4307Z" fill="url(#paint30_linear_4608_45035)"/>
</g>
<g filter="url(#filter33_f_4608_45035)">
<path fill-rule="evenodd" clip-rule="evenodd" d="M48.7713 41.8247H50.0707V42.0214H48.968V45.8472L48.9464 45.8742C48.8437 46.0026 48.6516 46.1021 48.4053 46.1771C48.1548 46.2532 47.8322 46.3087 47.4498 46.3379L47.446 46.3382H43.7346V46.1416H47.4385C47.8101 46.1129 48.1163 46.0594 48.3481 45.9889C48.5612 45.9241 48.699 45.8485 48.7713 45.7754V41.8247Z" fill="url(#paint31_linear_4608_45035)"/>
</g>
</g>
</g>
<defs>
<filter id="filter0_f_4608_45035" x="-3.5" y="59.6475" width="78" height="7.36719" filterUnits="userSpaceOnUse" color-interpolation-filters="sRGB">
<feFlood flood-opacity="0" result="BackgroundImageFix"/>
<feBlend mode="normal" in="SourceGraphic" in2="BackgroundImageFix" result="shape"/>
<feGaussianBlur stdDeviation="1" result="effect1_foregroundBlur_4608_45035"/>
</filter>
<filter id="filter1_f_4608_45035" x="4.5" y="60.2852" width="63" height="7.72949" filterUnits="userSpaceOnUse" color-interpolation-filters="sRGB">
<feFlood flood-opacity="0" result="BackgroundImageFix"/>
<feBlend mode="normal" in="SourceGraphic" in2="BackgroundImageFix" result="shape"/>
<feGaussianBlur stdDeviation="1" result="effect1_foregroundBlur_4608_45035"/>
</filter>
<filter id="filter2_f_4608_45035" x="8.5" y="59.6475" width="54" height="7.36719" filterUnits="userSpaceOnUse" color-interpolation-filters="sRGB">
<feFlood flood-opacity="0" result="BackgroundImageFix"/>
<feBlend mode="normal" in="SourceGraphic" in2="BackgroundImageFix" result="shape"/>
<feGaussianBlur stdDeviation="1" result="effect1_foregroundBlur_4608_45035"/>
</filter>
<filter id="filter3_ii_4608_45035" x="4.5" y="2.5" width="63" height="63" filterUnits="userSpaceOnUse" color-interpolation-filters="sRGB">
<feFlood flood-opacity="0" result="BackgroundImageFix"/>
<feBlend mode="normal" in="SourceGraphic" in2="BackgroundImageFix" result="shape"/>
<feColorMatrix in="SourceAlpha" type="matrix" values="0 0 0 0 0 0 0 0 0 0 0 0 0 0 0 0 0 0 127 0" result="hardAlpha"/>
<feOffset dx="2" dy="2"/>
<feGaussianBlur stdDeviation="5"/>
<feComposite in2="hardAlpha" operator="arithmetic" k2="-1" k3="1"/>
<feColorMatrix type="matrix" values="0 0 0 0 1 0 0 0 0 1 0 0 0 0 1 0 0 0 0.5 0"/>
<feBlend mode="normal" in2="shape" result="effect1_innerShadow_4608_45035"/>
<feColorMatrix in="SourceAlpha" type="matrix" values="0 0 0 0 0 0 0 0 0 0 0 0 0 0 0 0 0 0 127 0" result="hardAlpha"/>
<feOffset dx="-2" dy="-2"/>
<feGaussianBlur stdDeviation="5"/>
<feComposite in2="hardAlpha" operator="arithmetic" k2="-1" k3="1"/>
<feColorMatrix type="matrix" values="0 0 0 0 0 0 0 0 0 0 0 0 0 0 0 0 0 0 0.16 0"/>
<feBlend mode="normal" in2="effect1_innerShadow_4608_45035" result="effect2_innerShadow_4608_45035"/>
</filter>
<filter id="filter4_dii_4608_45035" x="22.491" y="14.1143" width="26.9253" height="23.7861" filterUnits="userSpaceOnUse" color-interpolation-filters="sRGB">
<feFlood flood-opacity="0" result="BackgroundImageFix"/>
<feColorMatrix in="SourceAlpha" type="matrix" values="0 0 0 0 0 0 0 0 0 0 0 0 0 0 0 0 0 0 127 0" result="hardAlpha"/>
<feOffset dx="0.4" dy="0.4"/>
<feGaussianBlur stdDeviation="0.2"/>
<feComposite in2="hardAlpha" operator="out"/>
<feColorMatrix type="matrix" values="0 0 0 0 0 0 0 0 0 0 0 0 0 0 0 0 0 0 0.1 0"/>
<feBlend mode="normal" in2="BackgroundImageFix" result="effect1_dropShadow_4608_45035"/>
<feBlend mode="normal" in="SourceGraphic" in2="effect1_dropShadow_4608_45035" result="shape"/>
<feColorMatrix in="SourceAlpha" type="matrix" values="0 0 0 0 0 0 0 0 0 0 0 0 0 0 0 0 0 0 127 0" result="hardAlpha"/>
<feOffset dx="1" dy="1"/>
<feGaussianBlur stdDeviation="0.5"/>
<feComposite in2="hardAlpha" operator="arithmetic" k2="-1" k3="1"/>
<feColorMatrix type="matrix" values="0 0 0 0 1 0 0 0 0 1 0 0 0 0 1 0 0 0 0.25 0"/>
<feBlend mode="normal" in2="shape" result="effect2_innerShadow_4608_45035"/>
<feColorMatrix in="SourceAlpha" type="matrix" values="0 0 0 0 0 0 0 0 0 0 0 0 0 0 0 0 0 0 127 0" result="hardAlpha"/>
<feOffset dx="-0.5" dy="-0.5"/>
<feGaussianBlur stdDeviation="0.5"/>
<feComposite in2="hardAlpha" operator="arithmetic" k2="-1" k3="1"/>
<feColorMatrix type="matrix" values="0 0 0 0 0 0 0 0 0 0 0 0 0 0 0 0 0 0 0.25 0"/>
<feBlend mode="normal" in2="effect2_innerShadow_4608_45035" result="effect3_innerShadow_4608_45035"/>
</filter>
<filter id="filter5_f_4608_45035" x="33.0947" y="16.6506" width="0.9" height="17.3434" filterUnits="userSpaceOnUse" color-interpolation-filters="sRGB">
<feFlood flood-opacity="0" result="BackgroundImageFix"/>
<feBlend mode="normal" in="SourceGraphic" in2="BackgroundImageFix" result="shape"/>
<feGaussianBlur stdDeviation="0.1" result="effect1_foregroundBlur_4608_45035"/>
</filter>
<filter id="filter6_f_4608_45035" x="27.1792" y="21.3342" width="0.9" height="13.1979" filterUnits="userSpaceOnUse" color-interpolation-filters="sRGB">
<feFlood flood-opacity="0" result="BackgroundImageFix"/>
<feBlend mode="normal" in="SourceGraphic" in2="BackgroundImageFix" result="shape"/>
<feGaussianBlur stdDeviation="0.1" result="effect1_foregroundBlur_4608_45035"/>
</filter>
<filter id="filter7_dii_4608_45035" x="19.49" y="41.2" width="33.2799" height="12.4926" filterUnits="userSpaceOnUse" color-interpolation-filters="sRGB">
<feFlood flood-opacity="0" result="BackgroundImageFix"/>
<feColorMatrix in="SourceAlpha" type="matrix" values="0 0 0 0 0 0 0 0 0 0 0 0 0 0 0 0 0 0 127 0" result="hardAlpha"/>
<feOffset dx="0.25" dy="0.25"/>
<feGaussianBlur stdDeviation="0.15"/>
<feComposite in2="hardAlpha" operator="out"/>
<feColorMatrix type="matrix" values="0 0 0 0 0 0 0 0 0 0 0 0 0 0 0 0 0 0 0.1 0"/>
<feBlend mode="normal" in2="BackgroundImageFix" result="effect1_dropShadow_4608_45035"/>
<feBlend mode="normal" in="SourceGraphic" in2="effect1_dropShadow_4608_45035" result="shape"/>
<feColorMatrix in="SourceAlpha" type="matrix" values="0 0 0 0 0 0 0 0 0 0 0 0 0 0 0 0 0 0 127 0" result="hardAlpha"/>
<feOffset dx="0.3" dy="0.3"/>
<feGaussianBlur stdDeviation="0.2"/>
<feComposite in2="hardAlpha" operator="arithmetic" k2="-1" k3="1"/>
<feColorMatrix type="matrix" values="0 0 0 0 1 0 0 0 0 1 0 0 0 0 1 0 0 0 0.25 0"/>
<feBlend mode="normal" in2="shape" result="effect2_innerShadow_4608_45035"/>
<feColorMatrix in="SourceAlpha" type="matrix" values="0 0 0 0 0 0 0 0 0 0 0 0 0 0 0 0 0 0 127 0" result="hardAlpha"/>
<feOffset dx="-0.3" dy="-0.3"/>
<feGaussianBlur stdDeviation="0.2"/>
<feComposite in2="hardAlpha" operator="arithmetic" k2="-1" k3="1"/>
<feColorMatrix type="matrix" values="0 0 0 0 0 0 0 0 0 0 0 0 0 0 0 0 0 0 0.25 0"/>
<feBlend mode="normal" in2="effect2_innerShadow_4608_45035" result="effect3_innerShadow_4608_45035"/>
</filter>
<filter id="filter8_f_4608_45035" x="42.8694" y="47.9554" width="7.54702" height="1.40566" filterUnits="userSpaceOnUse" color-interpolation-filters="sRGB">
<feFlood flood-opacity="0" result="BackgroundImageFix"/>
<feBlend mode="normal" in="SourceGraphic" in2="BackgroundImageFix" result="shape"/>
<feGaussianBlur stdDeviation="0.15" result="effect1_foregroundBlur_4608_45035"/>
</filter>
<filter id="filter9_f_4608_45035" x="42.9627" y="49.3006" width="6.39834" height="2.90762" filterUnits="userSpaceOnUse" color-interpolation-filters="sRGB">
<feFlood flood-opacity="0" result="BackgroundImageFix"/>
<feBlend mode="normal" in="SourceGraphic" in2="BackgroundImageFix" result="shape"/>
<feGaussianBlur stdDeviation="0.15" result="effect1_foregroundBlur_4608_45035"/>
</filter>
<filter id="filter10_f_4608_45035" x="44.8663" y="51.6775" width="5.75503" height="0.796777" filterUnits="userSpaceOnUse" color-interpolation-filters="sRGB">
<feFlood flood-opacity="0" result="BackgroundImageFix"/>
<feBlend mode="normal" in="SourceGraphic" in2="BackgroundImageFix" result="shape"/>
<feGaussianBlur stdDeviation="0.15" result="effect1_foregroundBlur_4608_45035"/>
</filter>
<filter id="filter11_f_4608_45035" x="49.8189" y="43.3455" width="2.34976" height="0.949121" filterUnits="userSpaceOnUse" color-interpolation-filters="sRGB">
<feFlood flood-opacity="0" result="BackgroundImageFix"/>
<feBlend mode="normal" in="SourceGraphic" in2="BackgroundImageFix" result="shape"/>
<feGaussianBlur stdDeviation="0.15" result="effect1_foregroundBlur_4608_45035"/>
</filter>
<filter id="filter12_f_4608_45035" x="19.7332" y="46.0516" width="3.27676" height="3.84609" filterUnits="userSpaceOnUse" color-interpolation-filters="sRGB">
<feFlood flood-opacity="0" result="BackgroundImageFix"/>
<feBlend mode="normal" in="SourceGraphic" in2="BackgroundImageFix" result="shape"/>
<feGaussianBlur stdDeviation="0.15" result="effect1_foregroundBlur_4608_45035"/>
</filter>
<filter id="filter13_f_4608_45035" x="19.8924" y="43.2918" width="3.59268" height="3.04531" filterUnits="userSpaceOnUse" color-interpolation-filters="sRGB">
<feFlood flood-opacity="0" result="BackgroundImageFix"/>
<feBlend mode="normal" in="SourceGraphic" in2="BackgroundImageFix" result="shape"/>
<feGaussianBlur stdDeviation="0.15" result="effect1_foregroundBlur_4608_45035"/>
</filter>
<filter id="filter14_f_4608_45035" x="19.8924" y="42.136" width="4.6415" height="1.37783" filterUnits="userSpaceOnUse" color-interpolation-filters="sRGB">
<feFlood flood-opacity="0" result="BackgroundImageFix"/>
<feBlend mode="normal" in="SourceGraphic" in2="BackgroundImageFix" result="shape"/>
<feGaussianBlur stdDeviation="0.15" result="effect1_foregroundBlur_4608_45035"/>
</filter>
<filter id="filter15_f_4608_45035" x="25.4524" y="41.4627" width="1.82949" height="11.5766" filterUnits="userSpaceOnUse" color-interpolation-filters="sRGB">
<feFlood flood-opacity="0" result="BackgroundImageFix"/>
<feBlend mode="normal" in="SourceGraphic" in2="BackgroundImageFix" result="shape"/>
<feGaussianBlur stdDeviation="0.15" result="effect1_foregroundBlur_4608_45035"/>
</filter>
<filter id="filter16_f_4608_45035" x="27.0713" y="41.4627" width="2.58999" height="4.19619" filterUnits="userSpaceOnUse" color-interpolation-filters="sRGB">
<feFlood flood-opacity="0" result="BackgroundImageFix"/>
<feBlend mode="normal" in="SourceGraphic" in2="BackgroundImageFix" result="shape"/>
<feGaussianBlur stdDeviation="0.15" result="effect1_foregroundBlur_4608_45035"/>
</filter>
<filter id="filter17_f_4608_45035" x="30.3558" y="42.0296" width="6.44692" height="1.49355" filterUnits="userSpaceOnUse" color-interpolation-filters="sRGB">
<feFlood flood-opacity="0" result="BackgroundImageFix"/>
<feBlend mode="normal" in="SourceGraphic" in2="BackgroundImageFix" result="shape"/>
<feGaussianBlur stdDeviation="0.15" result="effect1_foregroundBlur_4608_45035"/>
</filter>
<filter id="filter18_f_4608_45035" x="30.2447" y="43.034" width="1.8937" height="6.83438" filterUnits="userSpaceOnUse" color-interpolation-filters="sRGB">
<feFlood flood-opacity="0" result="BackgroundImageFix"/>
<feBlend mode="normal" in="SourceGraphic" in2="BackgroundImageFix" result="shape"/>
<feGaussianBlur stdDeviation="0.15" result="effect1_foregroundBlur_4608_45035"/>
</filter>
<filter id="filter19_f_4608_45035" x="35.3643" y="41.4222" width="4.42373" height="7.76309" filterUnits="userSpaceOnUse" color-interpolation-filters="sRGB">
<feFlood flood-opacity="0" result="BackgroundImageFix"/>
<feBlend mode="normal" in="SourceGraphic" in2="BackgroundImageFix" result="shape"/>
<feGaussianBlur stdDeviation="0.15" result="effect1_foregroundBlur_4608_45035"/>
</filter>
<filter id="filter20_f_4608_45035" x="41.5044" y="41.7996" width="5.41836" height="5.53066" filterUnits="userSpaceOnUse" color-interpolation-filters="sRGB">
<feFlood flood-opacity="0" result="BackgroundImageFix"/>
<feBlend mode="normal" in="SourceGraphic" in2="BackgroundImageFix" result="shape"/>
<feGaussianBlur stdDeviation="0.15" result="effect1_foregroundBlur_4608_45035"/>
</filter>
<filter id="filter21_f_4608_45035" x="42.9461" y="43.7693" width="3.76162" height="0.796777" filterUnits="userSpaceOnUse" color-interpolation-filters="sRGB">
<feFlood flood-opacity="0" result="BackgroundImageFix"/>
<feBlend mode="normal" in="SourceGraphic" in2="BackgroundImageFix" result="shape"/>
<feGaussianBlur stdDeviation="0.15" result="effect1_foregroundBlur_4608_45035"/>
</filter>
<filter id="filter22_f_4608_45035" x="33.4311" y="14.6774" width="13.5453" height="4.24473" filterUnits="userSpaceOnUse" color-interpolation-filters="sRGB">
<feFlood flood-opacity="0" result="BackgroundImageFix"/>
<feBlend mode="normal" in="SourceGraphic" in2="BackgroundImageFix" result="shape"/>
<feGaussianBlur stdDeviation="0.1" result="effect1_foregroundBlur_4608_45035"/>
</filter>
<filter id="filter23_f_4608_45035" x="7.66357" y="4.9751" width="25.7019" height="16.6157" filterUnits="userSpaceOnUse" color-interpolation-filters="sRGB">
<feFlood flood-opacity="0" result="BackgroundImageFix"/>
<feBlend mode="normal" in="SourceGraphic" in2="BackgroundImageFix" result="shape"/>
<feGaussianBlur stdDeviation="0.5" result="effect1_foregroundBlur_4608_45035"/>
</filter>
<filter id="filter24_f_4608_45035" x="7.66357" y="4.97461" width="25.7019" height="16.6157" filterUnits="userSpaceOnUse" color-interpolation-filters="sRGB">
<feFlood flood-opacity="0" result="BackgroundImageFix"/>
<feBlend mode="normal" in="SourceGraphic" in2="BackgroundImageFix" result="shape"/>
<feGaussianBlur stdDeviation="0.5" result="effect1_foregroundBlur_4608_45035"/>
</filter>
<filter id="filter25_f_4608_45035" x="45.6887" y="4.55225" width="18.9001" height="17.4604" filterUnits="userSpaceOnUse" color-interpolation-filters="sRGB">
<feFlood flood-opacity="0" result="BackgroundImageFix"/>
<feBlend mode="normal" in="SourceGraphic" in2="BackgroundImageFix" result="shape"/>
<feGaussianBlur stdDeviation="0.5" result="effect1_foregroundBlur_4608_45035"/>
</filter>
<filter id="filter26_f_4608_45035" x="45.6887" y="4.55225" width="18.9001" height="17.4604" filterUnits="userSpaceOnUse" color-interpolation-filters="sRGB">
<feFlood flood-opacity="0" result="BackgroundImageFix"/>
<feBlend mode="normal" in="SourceGraphic" in2="BackgroundImageFix" result="shape"/>
<feGaussianBlur stdDeviation="0.5" result="effect1_foregroundBlur_4608_45035"/>
</filter>
<filter id="filter27_f_4608_45035" x="22.9302" y="14.5774" width="8.41226" height="7.00771" filterUnits="userSpaceOnUse" color-interpolation-filters="sRGB">
<feFlood flood-opacity="0" result="BackgroundImageFix"/>
<feBlend mode="normal" in="SourceGraphic" in2="BackgroundImageFix" result="shape"/>
<feGaussianBlur stdDeviation="0.15" result="effect1_foregroundBlur_4608_45035"/>
</filter>
<filter id="filter28_f_4608_45035" x="36.3701" y="32.0798" width="6.17979" height="1.75596" filterUnits="userSpaceOnUse" color-interpolation-filters="sRGB">
<feFlood flood-opacity="0" result="BackgroundImageFix"/>
<feBlend mode="normal" in="SourceGraphic" in2="BackgroundImageFix" result="shape"/>
<feGaussianBlur stdDeviation="0.1" result="effect1_foregroundBlur_4608_45035"/>
</filter>
<filter id="filter29_f_4608_45035" x="10.167" y="52.1665" width="49.8164" height="9.61523" filterUnits="userSpaceOnUse" color-interpolation-filters="sRGB">
<feFlood flood-opacity="0" result="BackgroundImageFix"/>
<feBlend mode="normal" in="SourceGraphic" in2="BackgroundImageFix" result="shape"/>
<feGaussianBlur stdDeviation="0.5" result="effect1_foregroundBlur_4608_45035"/>
</filter>
<filter id="filter30_f_4608_45035" x="26.1426" y="5.46631" width="26.5928" height="2.65234" filterUnits="userSpaceOnUse" color-interpolation-filters="sRGB">
<feFlood flood-opacity="0" result="BackgroundImageFix"/>
<feBlend mode="normal" in="SourceGraphic" in2="BackgroundImageFix" result="shape"/>
<feGaussianBlur stdDeviation="0.5" result="effect1_foregroundBlur_4608_45035"/>
</filter>
<filter id="filter31_f_4608_45035" x="39.5402" y="26.4167" width="3.23008" height="2.85361" filterUnits="userSpaceOnUse" color-interpolation-filters="sRGB">
<feFlood flood-opacity="0" result="BackgroundImageFix"/>
<feBlend mode="normal" in="SourceGraphic" in2="BackgroundImageFix" result="shape"/>
<feGaussianBlur stdDeviation="0.1" result="effect1_foregroundBlur_4608_45035"/>
</filter>
<filter id="filter32_f_4608_45035" x="32.9397" y="43.1307" width="1.77358" height="6.03066" filterUnits="userSpaceOnUse" color-interpolation-filters="sRGB">
<feFlood flood-opacity="0" result="BackgroundImageFix"/>
<feBlend mode="normal" in="SourceGraphic" in2="BackgroundImageFix" result="shape"/>
<feGaussianBlur stdDeviation="0.15" result="effect1_foregroundBlur_4608_45035"/>
</filter>
<filter id="filter33_f_4608_45035" x="43.4346" y="41.5247" width="6.93618" height="5.11367" filterUnits="userSpaceOnUse" color-interpolation-filters="sRGB">
<feFlood flood-opacity="0" result="BackgroundImageFix"/>
<feBlend mode="normal" in="SourceGraphic" in2="BackgroundImageFix" result="shape"/>
<feGaussianBlur stdDeviation="0.15" result="effect1_foregroundBlur_4608_45035"/>
</filter>
<radialGradient id="paint0_radial_4608_45035" cx="0" cy="0" r="1" gradientUnits="userSpaceOnUse" gradientTransform="translate(35.5 63.8722) rotate(90) scale(1.14247 25.1079)">
<stop stop-color="#02423F"/>
<stop offset="1" stop-color="#02423F" stop-opacity="0"/>
</radialGradient>
<radialGradient id="paint1_radial_4608_45035" cx="0" cy="0" r="1" gradientUnits="userSpaceOnUse" gradientTransform="translate(36 64.15) rotate(90) scale(1.86457 29.4972)">
<stop stop-color="#02423F"/>
<stop offset="1" stop-color="#02423F" stop-opacity="0"/>
</radialGradient>
<radialGradient id="paint2_radial_4608_45035" cx="0" cy="0" r="1" gradientUnits="userSpaceOnUse" gradientTransform="translate(35.5 63.8722) rotate(90) scale(1.14247 16.9648)">
<stop stop-color="#02423F"/>
<stop offset="1" stop-color="#02423F" stop-opacity="0"/>
</radialGradient>
<linearGradient id="paint3_linear_4608_45035" x1="43.1781" y1="44.5986" x2="46.4448" y2="44.6039" gradientUnits="userSpaceOnUse">
<stop offset="0.234375" stop-color="white"/>
<stop offset="0.367135" stop-color="white"/>
<stop offset="1" stop-color="white" stop-opacity="0"/>
</linearGradient>
<linearGradient id="paint4_linear_4608_45035" x1="33.5447" y1="32.8589" x2="35.4745" y2="32.6166" gradientUnits="userSpaceOnUse">
<stop stop-color="white" stop-opacity="0"/>
<stop offset="0.223958" stop-color="white"/>
<stop offset="0.859375" stop-color="white"/>
<stop offset="1" stop-color="white" stop-opacity="0"/>
</linearGradient>
<linearGradient id="paint5_linear_4608_45035" x1="27.6292" y1="33.6258" x2="29.5367" y2="33.3087" gradientUnits="userSpaceOnUse">
<stop stop-color="white" stop-opacity="0"/>
<stop offset="0.223958" stop-color="white"/>
<stop offset="0.859375" stop-color="white"/>
<stop offset="1" stop-color="white" stop-opacity="0"/>
</linearGradient>
<linearGradient id="paint6_linear_4608_45035" x1="43.2678" y1="49.061" x2="49.9393" y2="48.7091" gradientUnits="userSpaceOnUse">
<stop stop-color="white" stop-opacity="0"/>
<stop offset="0.134571" stop-color="white"/>
<stop offset="0.877348" stop-color="white"/>
<stop offset="1" stop-color="white" stop-opacity="0"/>
</linearGradient>
<linearGradient id="paint7_linear_4608_45035" x1="43.361" y1="51.8024" x2="49.2045" y2="50.9029" gradientUnits="userSpaceOnUse">
<stop stop-color="white" stop-opacity="0"/>
<stop offset="0.0697452" stop-color="white"/>
<stop offset="0.905392" stop-color="white"/>
<stop offset="1" stop-color="white" stop-opacity="0"/>
</linearGradient>
<linearGradient id="paint8_linear_4608_45035" x1="45.2267" y1="52.0759" x2="50.1615" y2="52.3224" gradientUnits="userSpaceOnUse">
<stop stop-color="white" stop-opacity="0"/>
<stop offset="0.0621366" stop-color="white"/>
<stop offset="0.911336" stop-color="white" stop-opacity="0.0945379"/>
<stop offset="1" stop-color="white" stop-opacity="0"/>
</linearGradient>
<linearGradient id="paint9_linear_4608_45035" x1="50.2172" y1="43.6886" x2="51.8406" y2="44.0292" gradientUnits="userSpaceOnUse">
<stop stop-color="white" stop-opacity="0"/>
<stop offset="0.302077" stop-color="white"/>
<stop offset="0.714011" stop-color="white"/>
<stop offset="1" stop-color="white" stop-opacity="0"/>
</linearGradient>
<linearGradient id="paint10_linear_4608_45035" x1="20.1315" y1="49.5975" x2="23.2567" y2="48.8024" gradientUnits="userSpaceOnUse">
<stop stop-color="white" stop-opacity="0"/>
<stop offset="0.104167" stop-color="white"/>
<stop offset="0.848958" stop-color="white"/>
<stop offset="1" stop-color="white" stop-opacity="0"/>
</linearGradient>
<linearGradient id="paint11_linear_4608_45035" x1="20.1995" y1="46.4847" x2="23.3376" y2="46.1748" gradientUnits="userSpaceOnUse">
<stop stop-color="white" stop-opacity="0"/>
<stop offset="0.0781217" stop-color="white" stop-opacity="0.921878"/>
<stop offset="0.872746" stop-color="white"/>
<stop offset="1" stop-color="white" stop-opacity="0"/>
</linearGradient>
<linearGradient id="paint12_linear_4608_45035" x1="20.6008" y1="46.341" x2="24.376" y2="45.5145" gradientUnits="userSpaceOnUse">
<stop offset="0.0909346" stop-color="white" stop-opacity="0"/>
<stop offset="0.160127" stop-color="white"/>
<stop offset="0.848958" stop-color="white"/>
<stop offset="1" stop-color="white" stop-opacity="0"/>
</linearGradient>
<linearGradient id="paint13_linear_4608_45035" x1="25.8508" y1="52.3977" x2="28.1144" y2="52.0561" gradientUnits="userSpaceOnUse">
<stop stop-color="white" stop-opacity="0"/>
<stop offset="0.170781" stop-color="white"/>
<stop offset="0.91187" stop-color="white"/>
<stop offset="1" stop-color="white" stop-opacity="0"/>
</linearGradient>
<linearGradient id="paint14_linear_4608_45035" x1="27.4925" y1="45.4913" x2="28.3172" y2="45.5752" gradientUnits="userSpaceOnUse">
<stop stop-color="white" stop-opacity="0"/>
<stop offset="0.253994" stop-color="white"/>
<stop offset="0.788957" stop-color="white"/>
<stop offset="1" stop-color="white" stop-opacity="0"/>
</linearGradient>
<linearGradient id="paint15_linear_4608_45035" x1="31.1005" y1="44.9673" x2="36.5067" y2="42.7973" gradientUnits="userSpaceOnUse">
<stop offset="0.0386209" stop-color="white" stop-opacity="0"/>
<stop offset="0.186807" stop-color="white"/>
<stop offset="0.870357" stop-color="white"/>
<stop offset="1" stop-color="white" stop-opacity="0"/>
</linearGradient>
<linearGradient id="paint16_linear_4608_45035" x1="30.643" y1="49.5684" x2="32.594" y2="49.2803" gradientUnits="userSpaceOnUse">
<stop stop-color="white" stop-opacity="0"/>
<stop offset="0.123781" stop-color="white"/>
<stop offset="0.90081" stop-color="white"/>
<stop offset="1" stop-color="white" stop-opacity="0"/>
</linearGradient>
<linearGradient id="paint17_linear_4608_45035" x1="35.6695" y1="48.6359" x2="41.2385" y2="46.4413" gradientUnits="userSpaceOnUse">
<stop stop-color="white" stop-opacity="0"/>
<stop offset="0.154661" stop-color="white"/>
<stop offset="0.857477" stop-color="white"/>
<stop offset="1" stop-color="white" stop-opacity="0"/>
</linearGradient>
<linearGradient id="paint18_linear_4608_45035" x1="43.2015" y1="47.4992" x2="47.9353" y2="44.4319" gradientUnits="userSpaceOnUse">
<stop stop-color="white" stop-opacity="0"/>
<stop offset="0.0877961" stop-color="white"/>
<stop offset="0.790344" stop-color="white"/>
<stop offset="1" stop-color="white" stop-opacity="0"/>
</linearGradient>
<linearGradient id="paint19_linear_4608_45035" x1="43.2461" y1="44.1677" x2="46.2995" y2="44.4005" gradientUnits="userSpaceOnUse">
<stop stop-color="white" stop-opacity="0"/>
<stop offset="0.234004" stop-color="white"/>
<stop offset="0.796866" stop-color="white"/>
<stop offset="1" stop-color="white" stop-opacity="0"/>
</linearGradient>
<linearGradient id="paint20_linear_4608_45035" x1="33.754" y1="15.8982" x2="46.6553" y2="18.3553" gradientUnits="userSpaceOnUse">
<stop stop-color="white" stop-opacity="0"/>
<stop offset="0.229167" stop-color="white"/>
<stop offset="0.510417" stop-color="white"/>
<stop offset="0.75" stop-color="white"/>
<stop offset="0.8125" stop-color="white" stop-opacity="0.75"/>
<stop offset="1" stop-color="white" stop-opacity="0"/>
</linearGradient>
<linearGradient id="paint21_linear_4608_45035" x1="26.2166" y1="6.2701" x2="10.1403" y2="17.1367" gradientUnits="userSpaceOnUse">
<stop stop-color="white" stop-opacity="0"/>
<stop offset="0.22205" stop-color="white"/>
<stop offset="0.479167" stop-color="white"/>
<stop offset="0.804385" stop-color="white"/>
<stop offset="1" stop-color="white" stop-opacity="0"/>
</linearGradient>
<linearGradient id="paint22_linear_4608_45035" x1="26.2166" y1="6.26961" x2="10.1403" y2="17.1362" gradientUnits="userSpaceOnUse">
<stop stop-color="white" stop-opacity="0"/>
<stop offset="0.22205" stop-color="white"/>
<stop offset="0.479167" stop-color="white"/>
<stop offset="0.804385" stop-color="white"/>
<stop offset="1" stop-color="white" stop-opacity="0"/>
</linearGradient>
<linearGradient id="paint23_linear_4608_45035" x1="50.5277" y1="6.68889" x2="62.5225" y2="17.0664" gradientUnits="userSpaceOnUse">
<stop stop-color="white" stop-opacity="0"/>
<stop offset="0.23419" stop-color="white"/>
<stop offset="0.479167" stop-color="white"/>
<stop offset="0.74664" stop-color="white"/>
<stop offset="1" stop-color="white" stop-opacity="0"/>
</linearGradient>
<linearGradient id="paint24_linear_4608_45035" x1="50.5277" y1="6.68889" x2="62.5225" y2="17.0664" gradientUnits="userSpaceOnUse">
<stop stop-color="white" stop-opacity="0"/>
<stop offset="0.23419" stop-color="white"/>
<stop offset="0.479167" stop-color="white"/>
<stop offset="0.74664" stop-color="white"/>
<stop offset="1" stop-color="white" stop-opacity="0"/>
</linearGradient>
<linearGradient id="paint25_linear_4608_45035" x1="30.0828" y1="14.8459" x2="23.5568" y2="20.8475" gradientUnits="userSpaceOnUse">
<stop stop-color="white" stop-opacity="0"/>
<stop offset="0.114583" stop-color="white"/>
<stop offset="0.541667" stop-color="white"/>
<stop offset="0.854167" stop-color="white"/>
<stop offset="1" stop-color="white" stop-opacity="0"/>
</linearGradient>
<linearGradient id="paint26_linear_4608_45035" x1="36.7721" y1="33.0024" x2="42.3233" y2="31.9155" gradientUnits="userSpaceOnUse">
<stop stop-color="white" stop-opacity="0"/>
<stop offset="0.177083" stop-color="white"/>
<stop offset="0.5" stop-color="white"/>
<stop offset="0.807292" stop-color="white" stop-opacity="0.385417"/>
<stop offset="1" stop-color="white" stop-opacity="0"/>
</linearGradient>
<linearGradient id="paint27_linear_4608_45035" x1="13.0609" y1="57.0047" x2="58.3923" y2="60.6848" gradientUnits="userSpaceOnUse">
<stop stop-color="white" stop-opacity="0"/>
<stop offset="0.166667" stop-color="white"/>
<stop offset="0.510417" stop-color="white"/>
<stop offset="0.854167" stop-color="white"/>
<stop offset="0.984375" stop-color="white" stop-opacity="0"/>
<stop offset="0.984475" stop-color="white" stop-opacity="0"/>
</linearGradient>
<linearGradient id="paint28_linear_4608_45035" x1="27.4939" y1="10.1556" x2="50.2639" y2="8.08637" gradientUnits="userSpaceOnUse">
<stop stop-color="white" stop-opacity="0"/>
<stop offset="0.166667" stop-color="white"/>
<stop offset="0.510417" stop-color="white"/>
<stop offset="0.854167" stop-color="white"/>
<stop offset="0.984375" stop-color="white" stop-opacity="0"/>
<stop offset="0.984475" stop-color="white" stop-opacity="0"/>
</linearGradient>
<linearGradient id="paint29_linear_4608_45035" x1="41.0755" y1="29.873" x2="43.0521" y2="27.9253" gradientUnits="userSpaceOnUse">
<stop stop-color="white" stop-opacity="0"/>
<stop offset="0.196566" stop-color="white"/>
<stop offset="0.751856" stop-color="white"/>
<stop offset="0.989583" stop-color="white" stop-opacity="0"/>
</linearGradient>
<linearGradient id="paint30_linear_4608_45035" x1="33.2397" y1="48.7628" x2="35.3405" y2="48.3097" gradientUnits="userSpaceOnUse">
<stop stop-color="white" stop-opacity="0"/>
<stop offset="0.235806" stop-color="white"/>
<stop offset="0.860466" stop-color="white"/>
<stop offset="1" stop-color="white" stop-opacity="0"/>
</linearGradient>
<linearGradient id="paint31_linear_4608_45035" x1="43.8421" y1="46.1312" x2="50.5491" y2="44.0757" gradientUnits="userSpaceOnUse">
<stop stop-color="white" stop-opacity="0"/>
<stop offset="0.151709" stop-color="white"/>
<stop offset="0.846356" stop-color="white"/>
<stop offset="1" stop-color="white" stop-opacity="0"/>
</linearGradient>
<clipPath id="clip0_4608_45035">
<rect width="70" height="70" fill="white" transform="translate(0.5 0.5)"/>
</clipPath>
<clipPath id="clip1_4608_45035">
<rect width="59" height="59" fill="white" transform="translate(6.5 4.5)"/>
</clipPath>
</defs>
</svg>
