<svg width="70" height="70" viewBox="0 0 70 70" fill="none" xmlns="http://www.w3.org/2000/svg">
<g clip-path="url(#clip0_4608_45035)">
<g filter="url(#filter0_f_4608_45035)">
<ellipse cx="35" cy="62.8311" rx="37" ry="1.68359" fill="url(#paint0_radial_4608_45035)" fill-opacity="0.2"/>
</g>
<g filter="url(#filter1_f_4608_45035)">
<ellipse cx="35.5" cy="63.6499" rx="29.5" ry="1.86475" fill="url(#paint1_radial_4608_45035)" fill-opacity="0.2"/>
</g>
<g filter="url(#filter2_f_4608_45035)">
<ellipse cx="35" cy="62.8311" rx="25" ry="1.68359" fill="url(#paint2_radial_4608_45035)" fill-opacity="0.1"/>
</g>
<g clip-path="url(#clip1_4608_45035)" filter="url(#filter3_ii_4608_45035)">
<path d="M48.4062 4H22.5938C13.4293 4 6 11.4293 6 20.5938V46.4062C6 55.5707 13.4293 63 22.5938 63H48.4062C57.5707 63 65 55.5707 65 46.4062V20.5938C65 11.4293 57.5707 4 48.4062 4Z" fill="#F3F3F3"/>
<path d="M42.7297 43.6348H46.0403" stroke="url(#paint3_linear_4608_45035)" stroke-width="0.1"/>
<g filter="url(#filter4_dii_4608_45035)">
<path d="M32.5495 34.1104C32.5495 34.2565 32.5447 34.4029 32.554 34.5486C32.5619 34.9693 32.7123 35.3749 32.9807 35.6989C33.2492 36.023 33.6196 36.2463 34.0315 36.3324C34.4764 36.4237 34.9365 36.4098 35.375 36.2917C38.0473 35.6221 40.7223 34.962 43.3925 34.2837C43.5154 34.2283 43.6544 34.2205 43.7828 34.2617C43.9111 34.3029 44.0196 34.3903 44.0873 34.5069C44.3942 34.9503 44.7467 35.362 45.0832 35.7847C45.3156 36.0694 45.6351 36.2697 45.9925 36.3549C46.35 36.4401 46.7256 36.4053 47.0613 36.2559C47.3462 36.1196 47.5809 35.8971 47.7323 35.6199C47.8837 35.3427 47.944 35.0249 47.9046 34.7116C47.8681 34.3317 47.713 33.9729 47.4613 33.686C45.6377 31.3136 43.8149 28.9407 41.9928 26.5674C41.8153 26.3154 41.5682 26.1206 41.2817 26.0069C40.9368 25.8778 40.5589 25.8663 40.2068 25.9742C39.8546 26.0821 39.548 26.3034 39.3347 26.6035C39.1165 26.8914 39.0026 27.2448 39.0114 27.6059C39.0202 27.967 39.1513 28.3144 39.3832 28.5913C40.0378 29.4315 40.7088 30.2607 41.3703 31.0957C41.6707 31.4747 41.6696 31.483 41.1784 31.5863C39.8517 31.8657 38.5196 32.1206 37.1995 32.4289C36.7978 32.5226 36.7516 32.4248 36.7516 32.0579C36.7631 27.6025 36.7631 23.147 36.7516 18.6916C36.7516 18.3202 36.8171 18.2275 37.1964 18.3088C39.3058 18.7601 41.4187 19.1965 43.5351 19.6179C43.8637 19.6837 43.974 19.8039 43.9719 20.155C43.954 22.7111 43.9619 25.2676 43.9626 27.8241C43.9343 27.9979 43.9689 28.1761 44.0601 28.3267C44.9875 29.5262 45.9128 30.7274 46.836 31.9301L46.9252 31.8988V31.4688C46.9252 27.4371 46.9252 23.4053 46.9252 19.3733C46.9252 19.2276 46.9276 19.0808 46.9156 18.9355C46.9023 18.4791 46.7463 18.0384 46.4695 17.6753C46.1927 17.3122 45.8091 17.045 45.3726 16.9112C41.9966 16.0007 38.6205 15.0816 35.2341 14.2135C33.9571 13.8862 32.5154 14.3144 32.5326 16.3149C32.5819 22.2485 32.5492 28.1793 32.5495 34.1104Z" fill="#04B2A6"/>
<path d="M23.4439 22.0802C23.776 22.2701 24.1602 22.3486 24.5402 22.3041C24.9201 22.2596 25.2758 22.0944 25.555 21.8328C25.9088 21.5125 26.2615 21.1914 26.6952 20.7994V21.3881C26.6952 25.522 26.6937 29.6553 26.6908 33.7878C26.682 34.0949 26.741 34.4002 26.8635 34.6819C26.9861 34.9637 27.1691 35.215 27.3997 35.418C27.8314 35.8147 28.3476 36.1083 28.9093 36.2764C30.1002 36.6354 30.8633 36.0722 30.8633 34.8334C30.8633 28.5241 30.8633 22.2145 30.8633 15.9048C30.8633 15.7735 30.8681 15.6419 30.8598 15.5107C30.8655 15.1843 30.7419 14.8688 30.5161 14.6331C30.2903 14.3973 29.9805 14.2603 29.6541 14.2519C29.2375 14.2214 28.8191 14.2809 28.4275 14.4263C28.0359 14.5717 27.6801 14.7996 27.3842 15.0945C26.0455 16.2706 24.7234 17.465 23.3785 18.6335C22.9052 19.0322 22.598 19.5933 22.5172 20.2068C22.4527 20.577 22.5078 20.9581 22.6744 21.295C22.841 21.6318 23.1105 21.9068 23.4439 22.0802Z" fill="#EF4567"/>
<g filter="url(#filter5_f_4608_45035)">
<path d="M33.0447 16.3506V33.2941" stroke="url(#paint4_linear_4608_45035)" stroke-width="0.5"/>
</g>
<g filter="url(#filter6_f_4608_45035)">
<path d="M27.1292 21.0342V33.8322" stroke="url(#paint5_linear_4608_45035)" stroke-width="0.5"/>
</g>
</g>
<g filter="url(#filter7_dii_4608_45035)">
<mask id="path-10-outside-1_4608_45035" maskUnits="userSpaceOnUse" x="18.4856" y="40.1816" width="34" height="13" fill="black">
<rect fill="white" x="18.4856" y="40.1816" width="34" height="13"/>
<path d="M21.966 45.7331H19.6096V44.6169H22.2884C22.3215 44.4185 22.3463 44.2201 22.3628 44.0216C22.3876 43.8232 22.4 43.6165 22.4 43.4016V42.9427H19.6096V41.8265H24.1363V43.0791C24.128 43.848 24.0205 44.5839 23.8138 45.2866C23.6071 45.9894 23.3053 46.626 22.9085 47.1965C22.5116 47.767 22.0238 48.2548 21.4451 48.6599C20.8746 49.0568 20.2214 49.3379 19.4856 49.5032V48.3747C20.0643 48.1266 20.5604 47.7753 20.9738 47.3205C21.3955 46.8575 21.7262 46.3284 21.966 45.7331ZM26.8026 45.7951V52.4301H25.1904V41.2064H26.8026V44.6789H27.6088V41.2064H29.221V52.4301H27.6088V45.7951H26.8026Z"/>
<path d="M39.1101 41.1816V52.4301H37.4358V48.8087C37.1299 48.9658 36.7744 49.0733 36.3693 49.1312C35.9641 49.1808 35.5549 49.2056 35.1415 49.2056H30.032V48.0894H31.0241V42.9179H30.094V41.8017H36.2576V42.9179H35.3027V45.9067C35.3027 46.3697 35.282 46.7996 35.2407 47.1965C35.1994 47.5934 35.1456 47.891 35.0795 48.0894H35.4267C35.8071 48.0894 36.1584 48.0729 36.4809 48.0398C36.8116 47.9985 37.1299 47.891 37.4358 47.7174V41.1816H39.1101ZM32.6983 48.0894H33.4052C33.4879 47.8745 33.5458 47.5768 33.5789 47.1965C33.6119 46.8079 33.6285 46.378 33.6285 45.9067V42.9179H32.6983V48.0894Z"/>
<path d="M50.0384 52.5541H43.8871C43.7134 52.5541 43.5481 52.5127 43.391 52.4301C43.2339 52.3556 43.0975 52.2482 42.9817 52.1076C42.866 51.9671 42.7709 51.8058 42.6965 51.6239C42.6304 51.442 42.5973 51.2478 42.5973 51.0411V49.5528H48.2277V48.8211H42.5973V47.705H49.9143V49.6149C49.9143 49.896 49.8317 50.144 49.6663 50.359C49.5009 50.5657 49.3108 50.669 49.0958 50.669H44.2715V51.0039C44.2715 51.1361 44.3129 51.2395 44.3955 51.3139C44.4865 51.3966 44.6146 51.4379 44.78 51.4379H50.0384V52.5541ZM41.1587 41.4545H46.4294V42.5706H42.8329V43.5008H46.3054V44.6169H42.8329V45.1502C42.8329 45.299 42.8784 45.4148 42.9693 45.4975C43.0603 45.5719 43.1967 45.6091 43.3786 45.6091H46.3178C46.6816 45.6091 47.0082 45.5967 47.2976 45.5719C47.5952 45.5471 47.9052 45.452 48.2277 45.2866V41.2064H49.9019V43.2527H51.5142V44.3689H49.9019V47.0973H48.2277V46.3656C47.9301 46.5061 47.62 46.6012 47.2976 46.6508C46.9834 46.7004 46.6444 46.7252 46.2806 46.7252H42.4485C42.0764 46.7252 41.7664 46.5764 41.5183 46.2788C41.2786 45.9729 41.1587 45.6091 41.1587 45.1874V41.4545Z"/>
</mask>
<path d="M21.966 45.7331H19.6096V44.6169H22.2884C22.3215 44.4185 22.3463 44.2201 22.3628 44.0216C22.3876 43.8232 22.4 43.6165 22.4 43.4016V42.9427H19.6096V41.8265H24.1363V43.0791C24.128 43.848 24.0205 44.5839 23.8138 45.2866C23.6071 45.9894 23.3053 46.626 22.9085 47.1965C22.5116 47.767 22.0238 48.2548 21.4451 48.6599C20.8746 49.0568 20.2214 49.3379 19.4856 49.5032V48.3747C20.0643 48.1266 20.5604 47.7753 20.9738 47.3205C21.3955 46.8575 21.7262 46.3284 21.966 45.7331ZM26.8026 45.7951V52.4301H25.1904V41.2064H26.8026V44.6789H27.6088V41.2064H29.221V52.4301H27.6088V45.7951H26.8026Z" fill="#04B2A6"/>
<path d="M39.1101 41.1816V52.4301H37.4358V48.8087C37.1299 48.9658 36.7744 49.0733 36.3693 49.1312C35.9641 49.1808 35.5549 49.2056 35.1415 49.2056H30.032V48.0894H31.0241V42.9179H30.094V41.8017H36.2576V42.9179H35.3027V45.9067C35.3027 46.3697 35.282 46.7996 35.2407 47.1965C35.1994 47.5934 35.1456 47.891 35.0795 48.0894H35.4267C35.8071 48.0894 36.1584 48.0729 36.4809 48.0398C36.8116 47.9985 37.1299 47.891 37.4358 47.7174V41.1816H39.1101ZM32.6983 48.0894H33.4052C33.4879 47.8745 33.5458 47.5768 33.5789 47.1965C33.6119 46.8079 33.6285 46.378 33.6285 45.9067V42.9179H32.6983V48.0894Z" fill="#04B2A6"/>
<path d="M50.0384 52.5541H43.8871C43.7134 52.5541 43.5481 52.5127 43.391 52.4301C43.2339 52.3556 43.0975 52.2482 42.9817 52.1076C42.866 51.9671 42.7709 51.8058 42.6965 51.6239C42.6304 51.442 42.5973 51.2478 42.5973 51.0411V49.5528H48.2277V48.8211H42.5973V47.705H49.9143V49.6149C49.9143 49.896 49.8317 50.144 49.6663 50.359C49.5009 50.5657 49.3108 50.669 49.0958 50.669H44.2715V51.0039C44.2715 51.1361 44.3129 51.2395 44.3955 51.3139C44.4865 51.3966 44.6146 51.4379 44.78 51.4379H50.0384V52.5541ZM41.1587 41.4545H46.4294V42.5706H42.8329V43.5008H46.3054V44.6169H42.8329V45.1502C42.8329 45.299 42.8784 45.4148 42.9693 45.4975C43.0603 45.5719 43.1967 45.6091 43.3786 45.6091H46.3178C46.6816 45.6091 47.0082 45.5967 47.2976 45.5719C47.5952 45.5471 47.9052 45.452 48.2277 45.2866V41.2064H49.9019V43.2527H51.5142V44.3689H49.9019V47.0973H48.2277V46.3656C47.9301 46.5061 47.62 46.6012 47.2976 46.6508C46.9834 46.7004 46.6444 46.7252 46.2806 46.7252H42.4485C42.0764 46.7252 41.7664 46.5764 41.5183 46.2788C41.2786 45.9729 41.1587 45.6091 41.1587 45.1874V41.4545Z" fill="#04B2A6"/>
<path d="M21.966 45.7331H19.6096V44.6169H22.2884C22.3215 44.4185 22.3463 44.2201 22.3628 44.0216C22.3876 43.8232 22.4 43.6165 22.4 43.4016V42.9427H19.6096V41.8265H24.1363V43.0791C24.128 43.848 24.0205 44.5839 23.8138 45.2866C23.6071 45.9894 23.3053 46.626 22.9085 47.1965C22.5116 47.767 22.0238 48.2548 21.4451 48.6599C20.8746 49.0568 20.2214 49.3379 19.4856 49.5032V48.3747C20.0643 48.1266 20.5604 47.7753 20.9738 47.3205C21.3955 46.8575 21.7262 46.3284 21.966 45.7331ZM26.8026 45.7951V52.4301H25.1904V41.2064H26.8026V44.6789H27.6088V41.2064H29.221V52.4301H27.6088V45.7951H26.8026Z" stroke="#04B2A6" stroke-width="0.4" mask="url(#path-10-outside-1_4608_45035)"/>
<path d="M39.1101 41.1816V52.4301H37.4358V48.8087C37.1299 48.9658 36.7744 49.0733 36.3693 49.1312C35.9641 49.1808 35.5549 49.2056 35.1415 49.2056H30.032V48.0894H31.0241V42.9179H30.094V41.8017H36.2576V42.9179H35.3027V45.9067C35.3027 46.3697 35.282 46.7996 35.2407 47.1965C35.1994 47.5934 35.1456 47.891 35.0795 48.0894H35.4267C35.8071 48.0894 36.1584 48.0729 36.4809 48.0398C36.8116 47.9985 37.1299 47.891 37.4358 47.7174V41.1816H39.1101ZM32.6983 48.0894H33.4052C33.4879 47.8745 33.5458 47.5768 33.5789 47.1965C33.6119 46.8079 33.6285 46.378 33.6285 45.9067V42.9179H32.6983V48.0894Z" stroke="#04B2A6" stroke-width="0.4" mask="url(#path-10-outside-1_4608_45035)"/>
<path d="M50.0384 52.5541H43.8871C43.7134 52.5541 43.5481 52.5127 43.391 52.4301C43.2339 52.3556 43.0975 52.2482 42.9817 52.1076C42.866 51.9671 42.7709 51.8058 42.6965 51.6239C42.6304 51.442 42.5973 51.2478 42.5973 51.0411V49.5528H48.2277V48.8211H42.5973V47.705H49.9143V49.6149C49.9143 49.896 49.8317 50.144 49.6663 50.359C49.5009 50.5657 49.3108 50.669 49.0958 50.669H44.2715V51.0039C44.2715 51.1361 44.3129 51.2395 44.3955 51.3139C44.4865 51.3966 44.6146 51.4379 44.78 51.4379H50.0384V52.5541ZM41.1587 41.4545H46.4294V42.5706H42.8329V43.5008H46.3054V44.6169H42.8329V45.1502C42.8329 45.299 42.8784 45.4148 42.9693 45.4975C43.0603 45.5719 43.1967 45.6091 43.3786 45.6091H46.3178C46.6816 45.6091 47.0082 45.5967 47.2976 45.5719C47.5952 45.5471 47.9052 45.452 48.2277 45.2866V41.2064H49.9019V43.2527H51.5142V44.3689H49.9019V47.0973H48.2277V46.3656C47.9301 46.5061 47.62 46.6012 47.2976 46.6508C46.9834 46.7004 46.6444 46.7252 46.2806 46.7252H42.4485C42.0764 46.7252 41.7664 46.5764 41.5183 46.2788C41.2786 45.9729 41.1587 45.6091 41.1587 45.1874V41.4545Z" stroke="#04B2A6" stroke-width="0.4" mask="url(#path-10-outside-1_4608_45035)"/>
</g>
<g filter="url(#filter8_f_4608_45035)">
<path fill-rule="evenodd" clip-rule="evenodd" d="M42.6694 47.7554H49.6165V47.952H42.8661V48.561H42.6694V47.7554Z" fill="url(#paint6_linear_4608_45035)"/>
</g>
<g filter="url(#filter9_f_4608_45035)">
<path fill-rule="evenodd" clip-rule="evenodd" d="M48.5611 49.1006V49.9247H42.9594V51.4082H42.7627V49.7281H48.3644V49.1006H48.5611Z" fill="url(#paint7_linear_4608_45035)"/>
</g>
<g filter="url(#filter10_f_4608_45035)">
<path fill-rule="evenodd" clip-rule="evenodd" d="M49.8213 51.6742H44.6663V51.4775H49.8213V51.6742Z" fill="url(#paint8_linear_4608_45035)"/>
</g>
<g filter="url(#filter11_f_4608_45035)">
<path fill-rule="evenodd" clip-rule="evenodd" d="M49.6189 43.1455H49.8156V43.2978H51.3686V43.4945H49.6189V43.1455Z" fill="url(#paint9_linear_4608_45035)"/>
</g>
<g filter="url(#filter12_f_4608_45035)">
<path fill-rule="evenodd" clip-rule="evenodd" d="M21.8838 46.6138C21.7237 46.8526 21.5179 47.0993 21.2911 47.3667C21.1895 47.4867 20.9357 47.747 20.6335 47.9981C20.3565 48.2282 20.0269 48.4608 19.7299 48.5639L19.7299 49.0971L19.5332 49.0977L19.5332 48.4169L19.6052 48.3969C19.8767 48.3214 20.2104 48.094 20.5078 47.8468C20.8025 47.602 21.0478 47.3496 21.1411 47.2396C21.3688 46.971 21.5675 46.7324 21.7204 46.5043C21.8731 46.2765 21.9761 46.0648 22.0167 45.8516L22.2099 45.8884C22.1624 46.1378 22.0441 46.3747 21.8838 46.6138Z" fill="url(#paint10_linear_4608_45035)"/>
</g>
<g filter="url(#filter13_f_4608_45035)">
<path fill-rule="evenodd" clip-rule="evenodd" d="M22.6497 43.9149C22.6081 44.2543 22.5381 44.6199 22.4862 44.8533L22.4691 44.9303H19.889V45.5369H19.6924V44.7337H22.3109C22.3594 44.5058 22.4182 44.1873 22.4545 43.891C22.4748 43.7251 22.4879 43.5684 22.4885 43.4394C22.4888 43.3749 22.486 43.319 22.4799 43.2734C22.4737 43.2266 22.4648 43.1965 22.4564 43.1797L22.6323 43.0918C22.6548 43.1367 22.6674 43.1915 22.6749 43.2476C22.6825 43.305 22.6855 43.3704 22.6851 43.4403C22.6845 43.5802 22.6705 43.7454 22.6497 43.9149Z" fill="url(#paint11_linear_4608_45035)"/>
</g>
<g filter="url(#filter14_f_4608_45035)">
<path fill-rule="evenodd" clip-rule="evenodd" d="M19.6924 41.936H23.734V42.1327H19.889V42.714H19.6924V41.936Z" fill="url(#paint12_linear_4608_45035)"/>
</g>
<g filter="url(#filter15_f_4608_45035)">
<path fill-rule="evenodd" clip-rule="evenodd" d="M25.2524 41.2627H26.482V41.4594H25.4491V52.2393H25.2524V41.2627Z" fill="url(#paint13_linear_4608_45035)"/>
</g>
<g filter="url(#filter16_f_4608_45035)">
<path fill-rule="evenodd" clip-rule="evenodd" d="M27.6317 41.2627H28.8612V41.4594H27.8283V44.8588H26.8713V44.6622H27.6317V41.2627Z" fill="url(#paint14_linear_4608_45035)"/>
</g>
<g filter="url(#filter17_f_4608_45035)">
<path fill-rule="evenodd" clip-rule="evenodd" d="M30.1558 41.8296H36.0026V42.0263H30.3524V42.723H30.1558V41.8296Z" fill="url(#paint15_linear_4608_45035)"/>
</g>
<g filter="url(#filter18_f_4608_45035)">
<path fill-rule="evenodd" clip-rule="evenodd" d="M31.1417 48.0537V42.834H31.3384V48.2504H30.2413V49.0684H30.0447V48.0537H31.1417Z" fill="url(#paint16_linear_4608_45035)"/>
</g>
<g filter="url(#filter19_f_4608_45035)">
<path fill-rule="evenodd" clip-rule="evenodd" d="M37.4594 41.2222H38.988V41.4188H37.6561V47.9477L37.6214 47.9772C37.4944 48.0852 37.3118 48.1626 37.1097 48.2194C36.9056 48.2768 36.6725 48.3156 36.4367 48.3412C35.9652 48.3925 35.4738 48.3917 35.1643 48.3752L35.1747 48.1788C35.4761 48.1948 35.9567 48.1956 36.4155 48.1457C36.6449 48.1208 36.8665 48.0835 37.0564 48.0301C37.2264 47.9823 37.3641 47.9235 37.4594 47.8545V41.2222Z" fill="url(#paint17_linear_4608_45035)"/>
</g>
<g filter="url(#filter20_f_4608_45035)">
<path fill-rule="evenodd" clip-rule="evenodd" d="M41.3071 41.5996H46.1229V41.7963H41.5038V45.114C41.4908 45.3159 41.5255 45.6201 41.6678 45.8731C41.8067 46.12 42.0486 46.3215 42.4676 46.3337L42.4619 46.5302C41.9672 46.5159 41.6657 46.2705 41.4964 45.9695C41.3314 45.676 41.293 45.3331 41.3071 45.1046V41.5996Z" fill="url(#paint18_linear_4608_45035)"/>
</g>
<g filter="url(#filter21_f_4608_45035)">
<path fill-rule="evenodd" clip-rule="evenodd" d="M45.9077 43.766H42.7461V43.5693H45.9077V43.766Z" fill="url(#paint19_linear_4608_45035)"/>
</g>
<g filter="url(#filter22_f_4608_45035)">
<path fill-rule="evenodd" clip-rule="evenodd" d="M33.6979 14.9017C33.4431 15.1388 33.3663 15.4864 33.3781 15.7379L33.1325 15.7493C33.1186 15.4506 33.2069 15.0228 33.5305 14.7217C33.8601 14.4152 34.4038 14.2669 35.2426 14.4726C36.8712 14.872 41.857 16.1997 44.1488 16.8142C44.4702 16.8801 44.9573 17.0231 45.383 17.2411C45.5968 17.3505 45.7998 17.4812 45.959 17.6343C46.118 17.7872 46.2398 17.9689 46.2764 18.1798L46.0342 18.2219C46.0095 18.0796 45.9246 17.9423 45.7886 17.8115C45.6526 17.6808 45.4722 17.5629 45.271 17.4599C44.8684 17.2538 44.4017 17.1167 44.0959 17.0543L44.0923 17.0536L44.0887 17.0526C41.7973 16.4382 36.8103 15.1102 35.184 14.7113C34.3949 14.5178 33.9468 14.6702 33.6979 14.9017Z" fill="url(#paint20_linear_4608_45035)"/>
</g>
<g filter="url(#filter23_f_4608_45035)">
<path fill-rule="evenodd" clip-rule="evenodd" d="M25.0692 6.08736C22.132 6.18862 18.8729 6.66749 16.2301 8.15185C11.2113 10.9706 9.27323 16.7786 8.74625 20.0909L8.16357 19.9982C8.70033 16.6245 10.6851 10.5895 15.9411 7.63743C18.7064 6.08433 22.0779 5.60014 25.0489 5.49771C26.5377 5.44639 27.9336 5.49079 29.112 5.54769C29.4992 5.56638 29.8606 5.58626 30.1934 5.60456C30.8816 5.64241 31.4474 5.67353 31.8655 5.67353V6.26353C31.4308 6.26353 30.838 6.23094 30.1375 6.19244C29.8082 6.17435 29.4552 6.15494 29.0836 6.137C27.9122 6.08044 26.5346 6.03684 25.0692 6.08736Z" fill="url(#paint21_linear_4608_45035)"/>
</g>
<g filter="url(#filter24_f_4608_45035)">
<path fill-rule="evenodd" clip-rule="evenodd" d="M25.0692 6.08687C22.132 6.18814 18.8729 6.667 16.2301 8.15136C11.2113 10.9701 9.27323 16.7782 8.74625 20.0904L8.16357 19.9977C8.70033 16.624 10.6851 10.589 15.9411 7.63694C18.7064 6.08384 22.0779 5.59965 25.0489 5.49722C26.5377 5.4459 27.9336 5.4903 29.112 5.5472C29.4992 5.56589 29.8606 5.58577 30.1934 5.60407C30.8816 5.64192 31.4474 5.67304 31.8655 5.67304V6.26304C31.4308 6.26304 30.838 6.23046 30.1375 6.19196C29.8082 6.17386 29.4552 6.15445 29.0836 6.13651C27.9122 6.07995 26.5346 6.03636 25.0692 6.08687Z" fill="url(#paint22_linear_4608_45035)"/>
</g>
<g filter="url(#filter25_f_4608_45035)">
<path fill-rule="evenodd" clip-rule="evenodd" d="M56.8981 9.39396C60.3076 12.1088 62.8241 16.0417 62.4645 20.465L63.0526 20.5128C63.4338 15.8236 60.7644 11.7183 57.2656 8.93241C53.7742 6.15242 49.3758 4.62128 46.1887 5.1589L46.2868 5.74069C49.2487 5.24107 53.4811 6.67322 56.8981 9.39396Z" fill="url(#paint23_linear_4608_45035)"/>
</g>
<g filter="url(#filter26_f_4608_45035)">
<path fill-rule="evenodd" clip-rule="evenodd" d="M56.8981 9.39396C60.3076 12.1088 62.8241 16.0417 62.4645 20.465L63.0526 20.5128C63.4338 15.8236 60.7644 11.7183 57.2656 8.93241C53.7742 6.15242 49.3758 4.62128 46.1887 5.1589L46.2868 5.74069C49.2487 5.24107 53.4811 6.67322 56.8981 9.39396Z" fill="url(#paint24_linear_4608_45035)"/>
</g>
<g style="mix-blend-mode:hard-light" filter="url(#filter27_f_4608_45035)">
<path fill-rule="evenodd" clip-rule="evenodd" d="M29.3647 14.6278C28.9069 14.6668 28.3522 14.9515 27.8578 15.3797L27.8578 15.3797C26.6321 16.4411 24.0576 18.6966 23.5185 19.2656C23.0052 19.8072 22.9498 20.4906 22.9841 20.7532L22.7403 20.785C22.6989 20.4677 22.7642 19.7041 23.34 19.0965C23.8899 18.5162 26.4776 16.2497 27.6969 15.1938C28.2115 14.7482 28.8138 14.428 29.3439 14.3829C29.6114 14.3601 29.8672 14.4072 30.0808 14.5516C30.2951 14.6965 30.4534 14.93 30.5425 15.2542L30.3055 15.3193C30.2283 15.0386 30.0987 14.8604 29.9432 14.7553C29.7871 14.6498 29.5911 14.6086 29.3647 14.6278Z" fill="url(#paint25_linear_4608_45035)"/>
</g>
<g filter="url(#filter28_f_4608_45035)">
<path fill-rule="evenodd" clip-rule="evenodd" d="M36.0707 31.8415C36.071 31.8185 36.0712 31.7979 36.0712 31.7798L36.3171 31.7798C36.3171 31.8006 36.3169 31.8231 36.3167 31.847C36.3151 32.0391 36.3127 32.3225 36.4026 32.5512C36.4513 32.6754 36.5236 32.7722 36.6295 32.8294C36.7354 32.8867 36.8933 32.914 37.1328 32.8632C38.1672 32.6439 40.6729 32.0926 41.7968 31.8443L41.8498 32.0843C40.7262 32.3326 38.2194 32.8841 37.1838 33.1037C36.9059 33.1627 36.6845 33.1385 36.5127 33.0457C36.3408 32.9529 36.2366 32.8012 36.1738 32.6411C36.0648 32.3638 36.0686 32.028 36.0707 31.8415Z" fill="url(#paint26_linear_4608_45035)"/>
</g>
<g filter="url(#filter29_f_4608_45035)">
<path fill-rule="evenodd" clip-rule="evenodd" d="M11.6997 54.6199C11.1706 53.8866 10.8096 53.2519 10.667 52.8757L11.2186 52.6665C11.3342 52.9711 11.6602 53.5568 12.1782 54.2747C12.6923 54.9871 13.3839 55.8138 14.2182 56.6015C15.8934 58.183 18.1087 59.5754 20.5948 59.6294C25.7702 59.7419 41.4155 59.6764 48.6038 59.6294C50.0266 59.5364 52.2027 59.0868 54.0987 58.0461C55.9949 57.0054 57.5772 55.395 57.8986 52.9845L58.4835 53.0625C58.1289 55.722 56.3781 57.4681 54.3826 58.5633C52.3907 59.6566 50.1213 60.1227 48.6333 60.2187L48.6248 60.2193L48.6163 60.2193C41.4357 60.2663 25.7699 60.332 20.582 60.2193C17.8854 60.1607 15.5361 58.6571 13.8132 57.0305C12.9486 56.2142 12.2328 55.3588 11.6997 54.6199Z" fill="url(#paint27_linear_4608_45035)"/>
</g>
<g filter="url(#filter30_f_4608_45035)">
<path fill-rule="evenodd" clip-rule="evenodd" d="M51.2354 6.02867C44.9374 5.98175 31.1946 5.91595 26.6426 6.02875L26.6572 6.61857C31.1973 6.50606 44.9285 6.5717 51.231 6.61865L51.2354 6.02867Z" fill="url(#paint28_linear_4608_45035)"/>
</g>
<g filter="url(#filter31_f_4608_45035)">
<path fill-rule="evenodd" clip-rule="evenodd" d="M41.1126 26.4416C40.7645 26.3151 40.3512 26.3098 39.9331 26.6539C39.5548 26.9651 39.4646 27.3244 39.49 27.6479C39.516 27.9785 39.6641 28.2752 39.7684 28.4376L39.5615 28.5704C39.4453 28.3893 39.2753 28.0532 39.2449 27.6671C39.214 27.2738 39.3291 26.8324 39.7769 26.464C40.2738 26.0553 40.7819 26.0598 41.1966 26.2105C41.6037 26.3585 41.922 26.6463 42.0704 26.8139L41.8863 26.9769C41.7542 26.8277 41.4683 26.5709 41.1126 26.4416Z" fill="url(#paint29_linear_4608_45035)"/>
</g>
<g filter="url(#filter32_f_4608_45035)">
<path fill-rule="evenodd" clip-rule="evenodd" d="M33.9073 42.9307C33.9119 44.0084 33.9184 46.3194 33.9072 46.9318C33.8959 47.5573 33.723 48.1023 33.6351 48.3024L33.6093 48.3612H32.7397V48.1646H33.4791C33.5634 47.9465 33.7008 47.469 33.7106 46.9282C33.7217 46.3187 33.7152 44.0106 33.7106 42.9315L33.9073 42.9307Z" fill="url(#paint30_linear_4608_45035)"/>
</g>
<g filter="url(#filter33_f_4608_45035)">
<path fill-rule="evenodd" clip-rule="evenodd" d="M48.2713 41.3247H49.5707V41.5214H48.468V45.3472L48.4464 45.3742C48.3437 45.5026 48.1516 45.6021 47.9053 45.6771C47.6548 45.7532 47.3322 45.8087 46.9498 45.8379L46.946 45.8382H43.2346V45.6416H46.9385C47.3101 45.6129 47.6163 45.5594 47.8481 45.4889C48.0612 45.4241 48.199 45.3485 48.2713 45.2754V41.3247Z" fill="url(#paint31_linear_4608_45035)"/>
</g>
</g>
</g>
<defs>
<filter id="filter0_f_4608_45035" x="-4" y="59.1475" width="78" height="7.36719" filterUnits="userSpaceOnUse" color-interpolation-filters="sRGB">
<feFlood flood-opacity="0" result="BackgroundImageFix"/>
<feBlend mode="normal" in="SourceGraphic" in2="BackgroundImageFix" result="shape"/>
<feGaussianBlur stdDeviation="1" result="effect1_foregroundBlur_4608_45035"/>
</filter>
<filter id="filter1_f_4608_45035" x="4" y="59.7852" width="63" height="7.72949" filterUnits="userSpaceOnUse" color-interpolation-filters="sRGB">
<feFlood flood-opacity="0" result="BackgroundImageFix"/>
<feBlend mode="normal" in="SourceGraphic" in2="BackgroundImageFix" result="shape"/>
<feGaussianBlur stdDeviation="1" result="effect1_foregroundBlur_4608_45035"/>
</filter>
<filter id="filter2_f_4608_45035" x="8" y="59.1475" width="54" height="7.36719" filterUnits="userSpaceOnUse" color-interpolation-filters="sRGB">
<feFlood flood-opacity="0" result="BackgroundImageFix"/>
<feBlend mode="normal" in="SourceGraphic" in2="BackgroundImageFix" result="shape"/>
<feGaussianBlur stdDeviation="1" result="effect1_foregroundBlur_4608_45035"/>
</filter>
<filter id="filter3_ii_4608_45035" x="4" y="2" width="63" height="63" filterUnits="userSpaceOnUse" color-interpolation-filters="sRGB">
<feFlood flood-opacity="0" result="BackgroundImageFix"/>
<feBlend mode="normal" in="SourceGraphic" in2="BackgroundImageFix" result="shape"/>
<feColorMatrix in="SourceAlpha" type="matrix" values="0 0 0 0 0 0 0 0 0 0 0 0 0 0 0 0 0 0 127 0" result="hardAlpha"/>
<feOffset dx="2" dy="2"/>
<feGaussianBlur stdDeviation="5"/>
<feComposite in2="hardAlpha" operator="arithmetic" k2="-1" k3="1"/>
<feColorMatrix type="matrix" values="0 0 0 0 1 0 0 0 0 1 0 0 0 0 1 0 0 0 0.5 0"/>
<feBlend mode="normal" in2="shape" result="effect1_innerShadow_4608_45035"/>
<feColorMatrix in="SourceAlpha" type="matrix" values="0 0 0 0 0 0 0 0 0 0 0 0 0 0 0 0 0 0 127 0" result="hardAlpha"/>
<feOffset dx="-2" dy="-2"/>
<feGaussianBlur stdDeviation="5"/>
<feComposite in2="hardAlpha" operator="arithmetic" k2="-1" k3="1"/>
<feColorMatrix type="matrix" values="0 0 0 0 0 0 0 0 0 0 0 0 0 0 0 0 0 0 0.16 0"/>
<feBlend mode="normal" in2="effect1_innerShadow_4608_45035" result="effect2_innerShadow_4608_45035"/>
</filter>
<filter id="filter4_dii_4608_45035" x="21.491" y="13.1143" width="27.6253" height="24.4861" filterUnits="userSpaceOnUse" color-interpolation-filters="sRGB">
<feFlood flood-opacity="0" result="BackgroundImageFix"/>
<feColorMatrix in="SourceAlpha" type="matrix" values="0 0 0 0 0 0 0 0 0 0 0 0 0 0 0 0 0 0 127 0" result="hardAlpha"/>
<feOffset dx="0.8" dy="0.8"/>
<feGaussianBlur stdDeviation="0.2"/>
<feComposite in2="hardAlpha" operator="out"/>
<feColorMatrix type="matrix" values="0 0 0 0 0 0 0 0 0 0 0 0 0 0 0 0 0 0 0.1 0"/>
<feBlend mode="normal" in2="BackgroundImageFix" result="effect1_dropShadow_4608_45035"/>
<feBlend mode="normal" in="SourceGraphic" in2="effect1_dropShadow_4608_45035" result="shape"/>
<feColorMatrix in="SourceAlpha" type="matrix" values="0 0 0 0 0 0 0 0 0 0 0 0 0 0 0 0 0 0 127 0" result="hardAlpha"/>
<feOffset dx="1" dy="1"/>
<feGaussianBlur stdDeviation="0.5"/>
<feComposite in2="hardAlpha" operator="arithmetic" k2="-1" k3="1"/>
<feColorMatrix type="matrix" values="0 0 0 0 1 0 0 0 0 1 0 0 0 0 1 0 0 0 0.25 0"/>
<feBlend mode="normal" in2="shape" result="effect2_innerShadow_4608_45035"/>
<feColorMatrix in="SourceAlpha" type="matrix" values="0 0 0 0 0 0 0 0 0 0 0 0 0 0 0 0 0 0 127 0" result="hardAlpha"/>
<feOffset dx="-1" dy="-1"/>
<feGaussianBlur stdDeviation="0.5"/>
<feComposite in2="hardAlpha" operator="arithmetic" k2="-1" k3="1"/>
<feColorMatrix type="matrix" values="0 0 0 0 0 0 0 0 0 0 0 0 0 0 0 0 0 0 0.25 0"/>
<feBlend mode="normal" in2="effect2_innerShadow_4608_45035" result="effect3_innerShadow_4608_45035"/>
</filter>
<filter id="filter5_f_4608_45035" x="32.5947" y="16.1506" width="0.9" height="17.3434" filterUnits="userSpaceOnUse" color-interpolation-filters="sRGB">
<feFlood flood-opacity="0" result="BackgroundImageFix"/>
<feBlend mode="normal" in="SourceGraphic" in2="BackgroundImageFix" result="shape"/>
<feGaussianBlur stdDeviation="0.1" result="effect1_foregroundBlur_4608_45035"/>
</filter>
<filter id="filter6_f_4608_45035" x="26.6792" y="20.8342" width="0.9" height="13.1979" filterUnits="userSpaceOnUse" color-interpolation-filters="sRGB">
<feFlood flood-opacity="0" result="BackgroundImageFix"/>
<feBlend mode="normal" in="SourceGraphic" in2="BackgroundImageFix" result="shape"/>
<feGaussianBlur stdDeviation="0.1" result="effect1_foregroundBlur_4608_45035"/>
</filter>
<filter id="filter7_dii_4608_45035" x="18.7856" y="40.4814" width="33.8285" height="13.1725" filterUnits="userSpaceOnUse" color-interpolation-filters="sRGB">
<feFlood flood-opacity="0" result="BackgroundImageFix"/>
<feColorMatrix in="SourceAlpha" type="matrix" values="0 0 0 0 0 0 0 0 0 0 0 0 0 0 0 0 0 0 127 0" result="hardAlpha"/>
<feOffset dx="0.5" dy="0.5"/>
<feGaussianBlur stdDeviation="0.2"/>
<feComposite in2="hardAlpha" operator="out"/>
<feColorMatrix type="matrix" values="0 0 0 0 0 0 0 0 0 0 0 0 0 0 0 0 0 0 0.1 0"/>
<feBlend mode="normal" in2="BackgroundImageFix" result="effect1_dropShadow_4608_45035"/>
<feBlend mode="normal" in="SourceGraphic" in2="effect1_dropShadow_4608_45035" result="shape"/>
<feColorMatrix in="SourceAlpha" type="matrix" values="0 0 0 0 0 0 0 0 0 0 0 0 0 0 0 0 0 0 127 0" result="hardAlpha"/>
<feOffset dx="0.5" dy="0.5"/>
<feGaussianBlur stdDeviation="0.25"/>
<feComposite in2="hardAlpha" operator="arithmetic" k2="-1" k3="1"/>
<feColorMatrix type="matrix" values="0 0 0 0 1 0 0 0 0 1 0 0 0 0 1 0 0 0 0.25 0"/>
<feBlend mode="normal" in2="shape" result="effect2_innerShadow_4608_45035"/>
<feColorMatrix in="SourceAlpha" type="matrix" values="0 0 0 0 0 0 0 0 0 0 0 0 0 0 0 0 0 0 127 0" result="hardAlpha"/>
<feOffset dx="-0.5" dy="-0.5"/>
<feGaussianBlur stdDeviation="0.25"/>
<feComposite in2="hardAlpha" operator="arithmetic" k2="-1" k3="1"/>
<feColorMatrix type="matrix" values="0 0 0 0 0 0 0 0 0 0 0 0 0 0 0 0 0 0 0.25 0"/>
<feBlend mode="normal" in2="effect2_innerShadow_4608_45035" result="effect3_innerShadow_4608_45035"/>
</filter>
<filter id="filter8_f_4608_45035" x="42.3694" y="47.4554" width="7.54702" height="1.40566" filterUnits="userSpaceOnUse" color-interpolation-filters="sRGB">
<feFlood flood-opacity="0" result="BackgroundImageFix"/>
<feBlend mode="normal" in="SourceGraphic" in2="BackgroundImageFix" result="shape"/>
<feGaussianBlur stdDeviation="0.15" result="effect1_foregroundBlur_4608_45035"/>
</filter>
<filter id="filter9_f_4608_45035" x="42.4627" y="48.8006" width="6.39834" height="2.90762" filterUnits="userSpaceOnUse" color-interpolation-filters="sRGB">
<feFlood flood-opacity="0" result="BackgroundImageFix"/>
<feBlend mode="normal" in="SourceGraphic" in2="BackgroundImageFix" result="shape"/>
<feGaussianBlur stdDeviation="0.15" result="effect1_foregroundBlur_4608_45035"/>
</filter>
<filter id="filter10_f_4608_45035" x="44.3663" y="51.1775" width="5.75503" height="0.796777" filterUnits="userSpaceOnUse" color-interpolation-filters="sRGB">
<feFlood flood-opacity="0" result="BackgroundImageFix"/>
<feBlend mode="normal" in="SourceGraphic" in2="BackgroundImageFix" result="shape"/>
<feGaussianBlur stdDeviation="0.15" result="effect1_foregroundBlur_4608_45035"/>
</filter>
<filter id="filter11_f_4608_45035" x="49.3189" y="42.8455" width="2.34976" height="0.949121" filterUnits="userSpaceOnUse" color-interpolation-filters="sRGB">
<feFlood flood-opacity="0" result="BackgroundImageFix"/>
<feBlend mode="normal" in="SourceGraphic" in2="BackgroundImageFix" result="shape"/>
<feGaussianBlur stdDeviation="0.15" result="effect1_foregroundBlur_4608_45035"/>
</filter>
<filter id="filter12_f_4608_45035" x="19.2332" y="45.5516" width="3.27676" height="3.84609" filterUnits="userSpaceOnUse" color-interpolation-filters="sRGB">
<feFlood flood-opacity="0" result="BackgroundImageFix"/>
<feBlend mode="normal" in="SourceGraphic" in2="BackgroundImageFix" result="shape"/>
<feGaussianBlur stdDeviation="0.15" result="effect1_foregroundBlur_4608_45035"/>
</filter>
<filter id="filter13_f_4608_45035" x="19.3924" y="42.7918" width="3.59268" height="3.04531" filterUnits="userSpaceOnUse" color-interpolation-filters="sRGB">
<feFlood flood-opacity="0" result="BackgroundImageFix"/>
<feBlend mode="normal" in="SourceGraphic" in2="BackgroundImageFix" result="shape"/>
<feGaussianBlur stdDeviation="0.15" result="effect1_foregroundBlur_4608_45035"/>
</filter>
<filter id="filter14_f_4608_45035" x="19.3924" y="41.636" width="4.6415" height="1.37783" filterUnits="userSpaceOnUse" color-interpolation-filters="sRGB">
<feFlood flood-opacity="0" result="BackgroundImageFix"/>
<feBlend mode="normal" in="SourceGraphic" in2="BackgroundImageFix" result="shape"/>
<feGaussianBlur stdDeviation="0.15" result="effect1_foregroundBlur_4608_45035"/>
</filter>
<filter id="filter15_f_4608_45035" x="24.9524" y="40.9627" width="1.82949" height="11.5766" filterUnits="userSpaceOnUse" color-interpolation-filters="sRGB">
<feFlood flood-opacity="0" result="BackgroundImageFix"/>
<feBlend mode="normal" in="SourceGraphic" in2="BackgroundImageFix" result="shape"/>
<feGaussianBlur stdDeviation="0.15" result="effect1_foregroundBlur_4608_45035"/>
</filter>
<filter id="filter16_f_4608_45035" x="26.5713" y="40.9627" width="2.58999" height="4.19619" filterUnits="userSpaceOnUse" color-interpolation-filters="sRGB">
<feFlood flood-opacity="0" result="BackgroundImageFix"/>
<feBlend mode="normal" in="SourceGraphic" in2="BackgroundImageFix" result="shape"/>
<feGaussianBlur stdDeviation="0.15" result="effect1_foregroundBlur_4608_45035"/>
</filter>
<filter id="filter17_f_4608_45035" x="29.8558" y="41.5296" width="6.44692" height="1.49355" filterUnits="userSpaceOnUse" color-interpolation-filters="sRGB">
<feFlood flood-opacity="0" result="BackgroundImageFix"/>
<feBlend mode="normal" in="SourceGraphic" in2="BackgroundImageFix" result="shape"/>
<feGaussianBlur stdDeviation="0.15" result="effect1_foregroundBlur_4608_45035"/>
</filter>
<filter id="filter18_f_4608_45035" x="29.7447" y="42.534" width="1.8937" height="6.83438" filterUnits="userSpaceOnUse" color-interpolation-filters="sRGB">
<feFlood flood-opacity="0" result="BackgroundImageFix"/>
<feBlend mode="normal" in="SourceGraphic" in2="BackgroundImageFix" result="shape"/>
<feGaussianBlur stdDeviation="0.15" result="effect1_foregroundBlur_4608_45035"/>
</filter>
<filter id="filter19_f_4608_45035" x="34.8643" y="40.9222" width="4.42373" height="7.76309" filterUnits="userSpaceOnUse" color-interpolation-filters="sRGB">
<feFlood flood-opacity="0" result="BackgroundImageFix"/>
<feBlend mode="normal" in="SourceGraphic" in2="BackgroundImageFix" result="shape"/>
<feGaussianBlur stdDeviation="0.15" result="effect1_foregroundBlur_4608_45035"/>
</filter>
<filter id="filter20_f_4608_45035" x="41.0044" y="41.2996" width="5.41836" height="5.53066" filterUnits="userSpaceOnUse" color-interpolation-filters="sRGB">
<feFlood flood-opacity="0" result="BackgroundImageFix"/>
<feBlend mode="normal" in="SourceGraphic" in2="BackgroundImageFix" result="shape"/>
<feGaussianBlur stdDeviation="0.15" result="effect1_foregroundBlur_4608_45035"/>
</filter>
<filter id="filter21_f_4608_45035" x="42.4461" y="43.2693" width="3.76162" height="0.796777" filterUnits="userSpaceOnUse" color-interpolation-filters="sRGB">
<feFlood flood-opacity="0" result="BackgroundImageFix"/>
<feBlend mode="normal" in="SourceGraphic" in2="BackgroundImageFix" result="shape"/>
<feGaussianBlur stdDeviation="0.15" result="effect1_foregroundBlur_4608_45035"/>
</filter>
<filter id="filter22_f_4608_45035" x="32.9311" y="14.1774" width="13.5453" height="4.24473" filterUnits="userSpaceOnUse" color-interpolation-filters="sRGB">
<feFlood flood-opacity="0" result="BackgroundImageFix"/>
<feBlend mode="normal" in="SourceGraphic" in2="BackgroundImageFix" result="shape"/>
<feGaussianBlur stdDeviation="0.1" result="effect1_foregroundBlur_4608_45035"/>
</filter>
<filter id="filter23_f_4608_45035" x="7.16357" y="4.4751" width="25.7019" height="16.6157" filterUnits="userSpaceOnUse" color-interpolation-filters="sRGB">
<feFlood flood-opacity="0" result="BackgroundImageFix"/>
<feBlend mode="normal" in="SourceGraphic" in2="BackgroundImageFix" result="shape"/>
<feGaussianBlur stdDeviation="0.5" result="effect1_foregroundBlur_4608_45035"/>
</filter>
<filter id="filter24_f_4608_45035" x="7.16357" y="4.47461" width="25.7019" height="16.6157" filterUnits="userSpaceOnUse" color-interpolation-filters="sRGB">
<feFlood flood-opacity="0" result="BackgroundImageFix"/>
<feBlend mode="normal" in="SourceGraphic" in2="BackgroundImageFix" result="shape"/>
<feGaussianBlur stdDeviation="0.5" result="effect1_foregroundBlur_4608_45035"/>
</filter>
<filter id="filter25_f_4608_45035" x="45.1887" y="4.05225" width="18.9001" height="17.4604" filterUnits="userSpaceOnUse" color-interpolation-filters="sRGB">
<feFlood flood-opacity="0" result="BackgroundImageFix"/>
<feBlend mode="normal" in="SourceGraphic" in2="BackgroundImageFix" result="shape"/>
<feGaussianBlur stdDeviation="0.5" result="effect1_foregroundBlur_4608_45035"/>
</filter>
<filter id="filter26_f_4608_45035" x="45.1887" y="4.05225" width="18.9001" height="17.4604" filterUnits="userSpaceOnUse" color-interpolation-filters="sRGB">
<feFlood flood-opacity="0" result="BackgroundImageFix"/>
<feBlend mode="normal" in="SourceGraphic" in2="BackgroundImageFix" result="shape"/>
<feGaussianBlur stdDeviation="0.5" result="effect1_foregroundBlur_4608_45035"/>
</filter>
<filter id="filter27_f_4608_45035" x="22.4302" y="14.0774" width="8.41226" height="7.00771" filterUnits="userSpaceOnUse" color-interpolation-filters="sRGB">
<feFlood flood-opacity="0" result="BackgroundImageFix"/>
<feBlend mode="normal" in="SourceGraphic" in2="BackgroundImageFix" result="shape"/>
<feGaussianBlur stdDeviation="0.15" result="effect1_foregroundBlur_4608_45035"/>
</filter>
<filter id="filter28_f_4608_45035" x="35.8701" y="31.5798" width="6.17979" height="1.75596" filterUnits="userSpaceOnUse" color-interpolation-filters="sRGB">
<feFlood flood-opacity="0" result="BackgroundImageFix"/>
<feBlend mode="normal" in="SourceGraphic" in2="BackgroundImageFix" result="shape"/>
<feGaussianBlur stdDeviation="0.1" result="effect1_foregroundBlur_4608_45035"/>
</filter>
<filter id="filter29_f_4608_45035" x="9.66699" y="51.6665" width="49.8164" height="9.61523" filterUnits="userSpaceOnUse" color-interpolation-filters="sRGB">
<feFlood flood-opacity="0" result="BackgroundImageFix"/>
<feBlend mode="normal" in="SourceGraphic" in2="BackgroundImageFix" result="shape"/>
<feGaussianBlur stdDeviation="0.5" result="effect1_foregroundBlur_4608_45035"/>
</filter>
<filter id="filter30_f_4608_45035" x="25.6426" y="4.96631" width="26.5928" height="2.65234" filterUnits="userSpaceOnUse" color-interpolation-filters="sRGB">
<feFlood flood-opacity="0" result="BackgroundImageFix"/>
<feBlend mode="normal" in="SourceGraphic" in2="BackgroundImageFix" result="shape"/>
<feGaussianBlur stdDeviation="0.5" result="effect1_foregroundBlur_4608_45035"/>
</filter>
<filter id="filter31_f_4608_45035" x="39.0402" y="25.9167" width="3.23008" height="2.85361" filterUnits="userSpaceOnUse" color-interpolation-filters="sRGB">
<feFlood flood-opacity="0" result="BackgroundImageFix"/>
<feBlend mode="normal" in="SourceGraphic" in2="BackgroundImageFix" result="shape"/>
<feGaussianBlur stdDeviation="0.1" result="effect1_foregroundBlur_4608_45035"/>
</filter>
<filter id="filter32_f_4608_45035" x="32.4397" y="42.6307" width="1.77358" height="6.03066" filterUnits="userSpaceOnUse" color-interpolation-filters="sRGB">
<feFlood flood-opacity="0" result="BackgroundImageFix"/>
<feBlend mode="normal" in="SourceGraphic" in2="BackgroundImageFix" result="shape"/>
<feGaussianBlur stdDeviation="0.15" result="effect1_foregroundBlur_4608_45035"/>
</filter>
<filter id="filter33_f_4608_45035" x="42.9346" y="41.0247" width="6.93618" height="5.11367" filterUnits="userSpaceOnUse" color-interpolation-filters="sRGB">
<feFlood flood-opacity="0" result="BackgroundImageFix"/>
<feBlend mode="normal" in="SourceGraphic" in2="BackgroundImageFix" result="shape"/>
<feGaussianBlur stdDeviation="0.15" result="effect1_foregroundBlur_4608_45035"/>
</filter>
<radialGradient id="paint0_radial_4608_45035" cx="0" cy="0" r="1" gradientUnits="userSpaceOnUse" gradientTransform="translate(35 63.3722) rotate(90) scale(1.14247 25.1079)">
<stop/>
<stop offset="1" stop-opacity="0"/>
</radialGradient>
<radialGradient id="paint1_radial_4608_45035" cx="0" cy="0" r="1" gradientUnits="userSpaceOnUse" gradientTransform="translate(35.5 63.65) rotate(90) scale(1.86457 29.4972)">
<stop/>
<stop offset="1" stop-opacity="0"/>
</radialGradient>
<radialGradient id="paint2_radial_4608_45035" cx="0" cy="0" r="1" gradientUnits="userSpaceOnUse" gradientTransform="translate(35 63.3722) rotate(90) scale(1.14247 16.9648)">
<stop/>
<stop offset="1" stop-opacity="0"/>
</radialGradient>
<linearGradient id="paint3_linear_4608_45035" x1="42.6781" y1="44.0986" x2="45.9448" y2="44.1039" gradientUnits="userSpaceOnUse">
<stop offset="0.234375" stop-color="white"/>
<stop offset="0.367135" stop-color="white"/>
<stop offset="1" stop-color="white" stop-opacity="0"/>
</linearGradient>
<linearGradient id="paint4_linear_4608_45035" x1="33.0447" y1="32.3589" x2="34.9745" y2="32.1166" gradientUnits="userSpaceOnUse">
<stop stop-color="white" stop-opacity="0"/>
<stop offset="0.223958" stop-color="white"/>
<stop offset="0.859375" stop-color="white"/>
<stop offset="1" stop-color="white" stop-opacity="0"/>
</linearGradient>
<linearGradient id="paint5_linear_4608_45035" x1="27.1292" y1="33.1258" x2="29.0367" y2="32.8087" gradientUnits="userSpaceOnUse">
<stop stop-color="white" stop-opacity="0"/>
<stop offset="0.223958" stop-color="white"/>
<stop offset="0.859375" stop-color="white"/>
<stop offset="1" stop-color="white" stop-opacity="0"/>
</linearGradient>
<linearGradient id="paint6_linear_4608_45035" x1="42.7678" y1="48.561" x2="49.4393" y2="48.2091" gradientUnits="userSpaceOnUse">
<stop stop-color="white" stop-opacity="0"/>
<stop offset="0.134571" stop-color="white"/>
<stop offset="0.877348" stop-color="white"/>
<stop offset="1" stop-color="white" stop-opacity="0"/>
</linearGradient>
<linearGradient id="paint7_linear_4608_45035" x1="42.861" y1="51.3024" x2="48.7045" y2="50.4029" gradientUnits="userSpaceOnUse">
<stop stop-color="white" stop-opacity="0"/>
<stop offset="0.0697452" stop-color="white"/>
<stop offset="0.905392" stop-color="white"/>
<stop offset="1" stop-color="white" stop-opacity="0"/>
</linearGradient>
<linearGradient id="paint8_linear_4608_45035" x1="44.7267" y1="51.5759" x2="49.6615" y2="51.8224" gradientUnits="userSpaceOnUse">
<stop stop-color="white" stop-opacity="0"/>
<stop offset="0.0621366" stop-color="white"/>
<stop offset="0.911336" stop-color="white" stop-opacity="0.0945379"/>
<stop offset="1" stop-color="white" stop-opacity="0"/>
</linearGradient>
<linearGradient id="paint9_linear_4608_45035" x1="49.7172" y1="43.1886" x2="51.3406" y2="43.5292" gradientUnits="userSpaceOnUse">
<stop stop-color="white" stop-opacity="0"/>
<stop offset="0.302077" stop-color="white"/>
<stop offset="0.714011" stop-color="white"/>
<stop offset="1" stop-color="white" stop-opacity="0"/>
</linearGradient>
<linearGradient id="paint10_linear_4608_45035" x1="19.6315" y1="49.0975" x2="22.7567" y2="48.3024" gradientUnits="userSpaceOnUse">
<stop stop-color="white" stop-opacity="0"/>
<stop offset="0.104167" stop-color="white"/>
<stop offset="0.848958" stop-color="white"/>
<stop offset="1" stop-color="white" stop-opacity="0"/>
</linearGradient>
<linearGradient id="paint11_linear_4608_45035" x1="19.6995" y1="45.9847" x2="22.8376" y2="45.6748" gradientUnits="userSpaceOnUse">
<stop stop-color="white" stop-opacity="0"/>
<stop offset="0.0781217" stop-color="white" stop-opacity="0.921878"/>
<stop offset="0.872746" stop-color="white"/>
<stop offset="1" stop-color="white" stop-opacity="0"/>
</linearGradient>
<linearGradient id="paint12_linear_4608_45035" x1="20.1008" y1="45.841" x2="23.876" y2="45.0145" gradientUnits="userSpaceOnUse">
<stop offset="0.0909346" stop-color="white" stop-opacity="0"/>
<stop offset="0.160127" stop-color="white"/>
<stop offset="0.848958" stop-color="white"/>
<stop offset="1" stop-color="white" stop-opacity="0"/>
</linearGradient>
<linearGradient id="paint13_linear_4608_45035" x1="25.3508" y1="51.8977" x2="27.6144" y2="51.5561" gradientUnits="userSpaceOnUse">
<stop stop-color="white" stop-opacity="0"/>
<stop offset="0.170781" stop-color="white"/>
<stop offset="0.91187" stop-color="white"/>
<stop offset="1" stop-color="white" stop-opacity="0"/>
</linearGradient>
<linearGradient id="paint14_linear_4608_45035" x1="26.9925" y1="44.9913" x2="27.8172" y2="45.0752" gradientUnits="userSpaceOnUse">
<stop stop-color="white" stop-opacity="0"/>
<stop offset="0.253994" stop-color="white"/>
<stop offset="0.788957" stop-color="white"/>
<stop offset="1" stop-color="white" stop-opacity="0"/>
</linearGradient>
<linearGradient id="paint15_linear_4608_45035" x1="30.6005" y1="44.4673" x2="36.0067" y2="42.2973" gradientUnits="userSpaceOnUse">
<stop offset="0.0386209" stop-color="white" stop-opacity="0"/>
<stop offset="0.186807" stop-color="white"/>
<stop offset="0.870357" stop-color="white"/>
<stop offset="1" stop-color="white" stop-opacity="0"/>
</linearGradient>
<linearGradient id="paint16_linear_4608_45035" x1="30.143" y1="49.0684" x2="32.094" y2="48.7803" gradientUnits="userSpaceOnUse">
<stop stop-color="white" stop-opacity="0"/>
<stop offset="0.123781" stop-color="white"/>
<stop offset="0.90081" stop-color="white"/>
<stop offset="1" stop-color="white" stop-opacity="0"/>
</linearGradient>
<linearGradient id="paint17_linear_4608_45035" x1="35.1695" y1="48.1359" x2="40.7385" y2="45.9413" gradientUnits="userSpaceOnUse">
<stop stop-color="white" stop-opacity="0"/>
<stop offset="0.154661" stop-color="white"/>
<stop offset="0.857477" stop-color="white"/>
<stop offset="1" stop-color="white" stop-opacity="0"/>
</linearGradient>
<linearGradient id="paint18_linear_4608_45035" x1="42.7015" y1="46.9992" x2="47.4353" y2="43.9319" gradientUnits="userSpaceOnUse">
<stop stop-color="white" stop-opacity="0"/>
<stop offset="0.0877961" stop-color="white"/>
<stop offset="0.790344" stop-color="white"/>
<stop offset="1" stop-color="white" stop-opacity="0"/>
</linearGradient>
<linearGradient id="paint19_linear_4608_45035" x1="42.7461" y1="43.6677" x2="45.7995" y2="43.9005" gradientUnits="userSpaceOnUse">
<stop stop-color="white" stop-opacity="0"/>
<stop offset="0.234004" stop-color="white"/>
<stop offset="0.796866" stop-color="white"/>
<stop offset="1" stop-color="white" stop-opacity="0"/>
</linearGradient>
<linearGradient id="paint20_linear_4608_45035" x1="33.254" y1="15.3982" x2="46.1553" y2="17.8553" gradientUnits="userSpaceOnUse">
<stop stop-color="white" stop-opacity="0"/>
<stop offset="0.229167" stop-color="white"/>
<stop offset="0.510417" stop-color="white"/>
<stop offset="0.75" stop-color="white"/>
<stop offset="0.8125" stop-color="white" stop-opacity="0.75"/>
<stop offset="1" stop-color="white" stop-opacity="0"/>
</linearGradient>
<linearGradient id="paint21_linear_4608_45035" x1="25.7166" y1="5.7701" x2="9.64034" y2="16.6367" gradientUnits="userSpaceOnUse">
<stop stop-color="white" stop-opacity="0"/>
<stop offset="0.22205" stop-color="white"/>
<stop offset="0.479167" stop-color="white"/>
<stop offset="0.804385" stop-color="white"/>
<stop offset="1" stop-color="white" stop-opacity="0"/>
</linearGradient>
<linearGradient id="paint22_linear_4608_45035" x1="25.7166" y1="5.76961" x2="9.64034" y2="16.6362" gradientUnits="userSpaceOnUse">
<stop stop-color="white" stop-opacity="0"/>
<stop offset="0.22205" stop-color="white"/>
<stop offset="0.479167" stop-color="white"/>
<stop offset="0.804385" stop-color="white"/>
<stop offset="1" stop-color="white" stop-opacity="0"/>
</linearGradient>
<linearGradient id="paint23_linear_4608_45035" x1="50.0277" y1="6.18889" x2="62.0225" y2="16.5664" gradientUnits="userSpaceOnUse">
<stop stop-color="white" stop-opacity="0"/>
<stop offset="0.23419" stop-color="white"/>
<stop offset="0.479167" stop-color="white"/>
<stop offset="0.74664" stop-color="white"/>
<stop offset="1" stop-color="white" stop-opacity="0"/>
</linearGradient>
<linearGradient id="paint24_linear_4608_45035" x1="50.0277" y1="6.18889" x2="62.0225" y2="16.5664" gradientUnits="userSpaceOnUse">
<stop stop-color="white" stop-opacity="0"/>
<stop offset="0.23419" stop-color="white"/>
<stop offset="0.479167" stop-color="white"/>
<stop offset="0.74664" stop-color="white"/>
<stop offset="1" stop-color="white" stop-opacity="0"/>
</linearGradient>
<linearGradient id="paint25_linear_4608_45035" x1="29.5828" y1="14.3459" x2="23.0568" y2="20.3475" gradientUnits="userSpaceOnUse">
<stop stop-color="white" stop-opacity="0"/>
<stop offset="0.114583" stop-color="white"/>
<stop offset="0.541667" stop-color="white"/>
<stop offset="0.854167" stop-color="white"/>
<stop offset="1" stop-color="white" stop-opacity="0"/>
</linearGradient>
<linearGradient id="paint26_linear_4608_45035" x1="36.2721" y1="32.5024" x2="41.8233" y2="31.4155" gradientUnits="userSpaceOnUse">
<stop stop-color="white" stop-opacity="0"/>
<stop offset="0.177083" stop-color="white"/>
<stop offset="0.5" stop-color="white"/>
<stop offset="0.807292" stop-color="white" stop-opacity="0.385417"/>
<stop offset="1" stop-color="white" stop-opacity="0"/>
</linearGradient>
<linearGradient id="paint27_linear_4608_45035" x1="12.5609" y1="56.5047" x2="57.8923" y2="60.1848" gradientUnits="userSpaceOnUse">
<stop stop-color="white" stop-opacity="0"/>
<stop offset="0.166667" stop-color="white"/>
<stop offset="0.510417" stop-color="white"/>
<stop offset="0.854167" stop-color="white"/>
<stop offset="0.984375" stop-color="white" stop-opacity="0"/>
<stop offset="0.984475" stop-color="white" stop-opacity="0"/>
</linearGradient>
<linearGradient id="paint28_linear_4608_45035" x1="26.9939" y1="9.65563" x2="49.7639" y2="7.58637" gradientUnits="userSpaceOnUse">
<stop stop-color="white" stop-opacity="0"/>
<stop offset="0.166667" stop-color="white"/>
<stop offset="0.510417" stop-color="white"/>
<stop offset="0.854167" stop-color="white"/>
<stop offset="0.984375" stop-color="white" stop-opacity="0"/>
<stop offset="0.984475" stop-color="white" stop-opacity="0"/>
</linearGradient>
<linearGradient id="paint29_linear_4608_45035" x1="40.5755" y1="29.373" x2="42.5521" y2="27.4253" gradientUnits="userSpaceOnUse">
<stop stop-color="white" stop-opacity="0"/>
<stop offset="0.196566" stop-color="white"/>
<stop offset="0.751856" stop-color="white"/>
<stop offset="0.989583" stop-color="white" stop-opacity="0"/>
</linearGradient>
<linearGradient id="paint30_linear_4608_45035" x1="32.7397" y1="48.2628" x2="34.8405" y2="47.8097" gradientUnits="userSpaceOnUse">
<stop stop-color="white" stop-opacity="0"/>
<stop offset="0.235806" stop-color="white"/>
<stop offset="0.860466" stop-color="white"/>
<stop offset="1" stop-color="white" stop-opacity="0"/>
</linearGradient>
<linearGradient id="paint31_linear_4608_45035" x1="43.3421" y1="45.6312" x2="50.0491" y2="43.5757" gradientUnits="userSpaceOnUse">
<stop stop-color="white" stop-opacity="0"/>
<stop offset="0.151709" stop-color="white"/>
<stop offset="0.846356" stop-color="white"/>
<stop offset="1" stop-color="white" stop-opacity="0"/>
</linearGradient>
<clipPath id="clip0_4608_45035">
<rect width="70" height="70" fill="white"/>
</clipPath>
<clipPath id="clip1_4608_45035">
<rect width="59" height="59" fill="white" transform="translate(6 4)"/>
</clipPath>
</defs>
</svg>
