<svg width="36" height="36" viewBox="0 0 36 36" fill="none" xmlns="http://www.w3.org/2000/svg">
<path d="M5 8.25C5 6.45507 6.45507 5 8.25 5H27.75C29.5449 5 31 6.45507 31 8.25V27.75C31 29.5449 29.5449 31 27.75 31H8.25C6.45507 31 5 29.5449 5 27.75V8.25Z" fill="#EAEAEA"/>
<mask id="mask0_2349_297371" style="mask-type:alpha" maskUnits="userSpaceOnUse" x="5" y="5" width="26" height="26">
<path d="M5 8.25C5 6.45507 6.45507 5 8.25 5H27.75C29.5449 5 31 6.45507 31 8.25V27.75C31 29.5449 29.5449 31 27.75 31H8.25C6.45507 31 5 29.5449 5 27.75V8.25Z" fill="#DCEAFC"/>
</mask>
<g mask="url(#mask0_2349_297371)">
<path d="M22.9705 18.3651L9.33594 31.9997H39.6693L26.0347 18.3651C25.1885 17.5189 23.8167 17.5189 22.9705 18.3651Z" fill="#D1D1D1"/>
<path d="M9.42887 22.158L-0.414062 32.001H22.3359L12.493 22.158C11.6469 21.3119 10.275 21.3119 9.42887 22.158Z" fill="#D1D1D1"/>
</g>
<circle cx="12.6641" cy="13.582" r="3.25" fill="#D1D1D1"/>
</svg>
