<svg width="14" height="14" viewBox="0 0 14 14" fill="none" xmlns="http://www.w3.org/2000/svg">
<path d="M12.8334 6.99984C12.8334 10.2215 10.2217 12.8332 7.00008 12.8332C3.77842 12.8332 1.16675 10.2215 1.16675 6.99984C1.16675 3.77818 3.77842 1.1665 7.00008 1.1665C10.2217 1.1665 12.8334 3.77818 12.8334 6.99984Z" fill="#9E9E9E"/>
<path d="M6.41675 4.08333C6.41675 3.76117 6.67792 3.5 7.00008 3.5C7.32225 3.5 7.58342 3.76117 7.58342 4.08333V7.58333C7.58342 7.9055 7.32225 8.16667 7.00008 8.16667C6.67792 8.16667 6.41675 7.9055 6.41675 7.58333V4.08333Z" fill="white"/>
<path d="M6.27075 9.77067C6.27075 9.36796 6.59721 9.0415 6.99992 9.0415C7.40263 9.0415 7.72908 9.36796 7.72908 9.77067C7.72908 10.1734 7.40263 10.4998 6.99992 10.4998C6.59721 10.4998 6.27075 10.1734 6.27075 9.77067Z" fill="white"/>
</svg>
