<svg width="24" height="24" viewBox="0 0 24 24" fill="none" xmlns="http://www.w3.org/2000/svg">
<path fill-rule="evenodd" clip-rule="evenodd" d="M7.5 8.00079V8.83413C7.5 9.38641 7.05228 9.83413 6.5 9.83413C5.94772 9.83413 5.5 9.38641 5.5 8.83413V7.45913C5.5 6.65371 6.15292 6.00079 6.95833 6.00079H17.0417C17.8471 6.00079 18.5 6.65371 18.5 7.45913V8.83413C18.5 9.38641 18.0523 9.83413 17.5 9.83413C16.9477 9.83413 16.5 9.38641 16.5 8.83413V8.00079H7.5Z" fill="#8F8F8F"/>
<path fill-rule="evenodd" clip-rule="evenodd" d="M12 6.00079C12.5523 6.00079 13 6.44851 13 7.00079V16.4508H13.375C13.9273 16.4508 14.375 16.8985 14.375 17.4508C14.375 18.0031 13.9273 18.4508 13.375 18.4508H10.625C10.0727 18.4508 9.625 18.0031 9.625 17.4508C9.625 16.8985 10.0727 16.4508 10.625 16.4508H11V7.00079C11 6.44851 11.4477 6.00079 12 6.00079Z" fill="#8F8F8F"/>
</svg>
