<svg width="24" height="24" viewBox="0 0 24 24" fill="none" xmlns="http://www.w3.org/2000/svg">
<path d="M10.7515 3.18262V7.77542H9.91643V3.18262H10.7515ZM8.81378 7.4726C7.97058 7.19501 7.35439 6.60619 7.03008 5.85755C6.70577 6.66507 6.08958 7.28754 5.21394 7.6156L4.77612 6.93425C5.93553 6.53048 6.59226 5.5379 6.59226 4.52008V4.37708H5.00314V3.67891H9.00837V4.37708H7.44357V4.52008C7.44357 5.49584 8.10841 6.42113 9.23538 6.79966L8.81378 7.4726ZM5.81391 8.15395H10.7515V10.7868H9.91643V8.85212H5.81391V8.15395Z" fill="#666666"/>
<path d="M19.2235 3.19103V7.33801H18.3803V5.6809H17.0912V4.9659H18.3803V3.19103H19.2235ZM17.0993 7.30436C16.2885 7.00154 15.7047 6.41272 15.3885 5.67249C15.0642 6.48843 14.4561 7.15295 13.5805 7.46419L13.1508 6.78284C14.2859 6.37907 14.9507 5.36967 14.9507 4.35185V4.30138H13.4021V3.59479H17.3182V4.30138H15.7939V4.34344C15.7939 5.29396 16.4101 6.21925 17.5128 6.62301L17.0993 7.30436ZM18.3884 7.67448H19.2235V10.6943H14.4642V7.67448H15.2912V8.49883H18.3884V7.67448ZM18.3884 9.18018H15.2912V9.99612H18.3884V9.18018Z" fill="#666666"/>
<path d="M10.7515 13.205V17.2847H9.91643V13.205H10.7515ZM6.80306 13.5498C7.92193 13.5498 8.74081 14.2733 8.74081 15.3163C8.74081 16.3594 7.92193 17.0828 6.80306 17.0828C5.67608 17.0828 4.8572 16.3594 4.8572 15.3163C4.8572 14.2733 5.67608 13.5498 6.80306 13.5498ZM6.80306 14.2648C6.12201 14.2648 5.67608 14.677 5.67608 15.3163C5.67608 15.9556 6.12201 16.3678 6.80306 16.3678C7.45979 16.3678 7.93004 15.9556 7.93004 15.3163C7.93004 14.677 7.45979 14.2648 6.80306 14.2648ZM6.79495 17.6379V18.4791H9.92454V17.6379H10.7515V20.7082H5.96796V17.6379H6.79495ZM6.79495 20.0101H9.92454V19.1521H6.79495V20.0101Z" fill="#666666"/>
<path d="M19.2235 13.205V17.8819H18.3884V16.5865H17.0749V15.8883H18.3884V14.9967H17.0749V14.2985H18.3884V13.205H19.2235ZM17.0506 17.4192C16.1831 17.5791 15.4047 17.6043 13.9859 17.6043H13.4508V15.249H15.7858V14.3406H13.4346V13.6424H16.6128V15.9135H14.2697V16.8977C15.502 16.8977 16.1669 16.8557 16.9614 16.7211L17.0506 17.4192ZM14.2697 18.2604H19.2235V20.8176H18.3884V18.967H14.2697V18.2604Z" fill="#666666"/>
</svg>
