<svg width="36" height="37" viewBox="0 0 36 37" fill="none" xmlns="http://www.w3.org/2000/svg">
<path fill-rule="evenodd" clip-rule="evenodd" d="M18 14.25C18.6904 14.25 19.25 14.8096 19.25 15.5V29.5C19.25 31.2949 17.7949 32.75 16 32.75C14.2051 32.75 12.75 31.2949 12.75 29.5C12.75 28.8096 13.3096 28.25 14 28.25C14.6904 28.25 15.25 28.8096 15.25 29.5C15.25 29.9142 15.5858 30.25 16 30.25C16.4142 30.25 16.75 29.9142 16.75 29.5V15.5C16.75 14.8096 17.3096 14.25 18 14.25Z" fill="#82A3D2"/>
<path d="M18 5C9.71573 5 3 11.7157 3 20C5.74486 17.6885 9.75514 17.6885 12.5 20L12.6312 19.9165C15.9069 17.832 20.0931 17.832 23.3688 19.9165L23.5 20C26.2449 17.6885 30.2551 17.6885 33 20C33 11.7157 26.2843 5 18 5Z" fill="#D1E1F1"/>
<path d="M23.5 20C26.2449 17.6885 30.2551 17.6885 33 20C33 11.7157 26.2843 5 18 5C21.0376 5 23.5 11.7157 23.5 20Z" fill="#0168FE"/>
<path d="M12.5 20C9.75514 17.6885 5.74486 17.6885 3 20C3 11.7157 9.71573 5 18 5C14.9624 5 12.5 11.7157 12.5 20Z" fill="#89B1FE"/>
</svg>
