<svg width="36" height="36" viewBox="0 0 36 36" fill="none" xmlns="http://www.w3.org/2000/svg">
<path d="M14.5 8.14286C14.5 7.51167 14.8918 7 15.375 7H20.625C21.1082 7 21.5 7.51167 21.5 8.14286V29.8571C21.5 30.4883 21.1082 31 20.625 31H15.375C14.8918 31 14.5 30.4883 14.5 29.8571V8.14286Z" fill="#428FFF"/>
<path d="M5.5 20C5.5 19.4477 5.94772 19 6.5 19H11.5C12.0523 19 12.5 19.4477 12.5 20V30C12.5 30.5523 12.0523 31 11.5 31H6.5C5.94772 31 5.5 30.5523 5.5 30V20Z" fill="#0168FE"/>
<path d="M23.5 16C23.5 15.4477 23.9477 15 24.5 15H29.5C30.0523 15 30.5 15.4477 30.5 16V30C30.5 30.5523 30.0523 31 29.5 31H24.5C23.9477 31 23.5 30.5523 23.5 30V16Z" fill="#0168FE"/>
<path fill-rule="evenodd" clip-rule="evenodd" d="M28.7743 6.36722C29.1238 6.79486 29.0605 7.42484 28.6328 7.77434L18.2322 16.2743C17.8477 16.5886 17.2908 16.5731 16.9244 16.2378L12.75 12.4183L7.72376 17.6901C7.34266 18.0898 6.70967 18.1049 6.30995 17.7238C5.91023 17.3427 5.89514 16.7097 6.27624 16.31L11.9786 10.3291C12.3542 9.93518 12.9758 9.91398 13.3774 10.2814L17.6364 14.1784L27.3672 6.22572C27.7948 5.87623 28.4248 5.93958 28.7743 6.36722Z" fill="#435062"/>
<path d="M29.7466 5.1148C30.1046 5.08581 30.3755 5.43251 30.2607 5.77288L28.444 11.163C28.3168 11.5402 27.8212 11.6248 27.5762 11.3111L23.7236 6.38005C23.4785 6.06635 23.6804 5.60596 24.0772 5.57384L29.7466 5.1148Z" fill="#435062"/>
</svg>
