<svg width="36" height="36" viewBox="0 0 36 36" fill="none" xmlns="http://www.w3.org/2000/svg">
<path d="M6 9C6 7.34315 7.34315 6 9 6H27C28.6569 6 30 7.34315 30 9V27C30 28.6569 28.6569 30 27 30H9C7.34315 30 6 28.6569 6 27V9Z" fill="#DCEAFC"/>
<path d="M17 13C17 14.6569 15.6569 16 14 16C12.3431 16 11 14.6569 11 13C11 11.3431 12.3431 10 14 10C15.6569 10 17 11.3431 17 13Z" fill="#FFC737"/>
<path fill-rule="evenodd" clip-rule="evenodd" d="M30 21.9999V27C30 28.6506 28.667 29.9899 27.0187 29.9999H10L22.5858 17.4142C23.3668 16.6331 24.6332 16.6331 25.4142 17.4142L30 21.9999Z" fill="#388E3C"/>
<path fill-rule="evenodd" clip-rule="evenodd" d="M8.98112 29.9999C7.33295 29.9898 6 28.6506 6 27V24.9999L10.0858 20.9142C10.8668 20.1331 12.1332 20.1331 12.9142 20.9142L22 29.9999H8.98112Z" fill="#4CAF50"/>
<path d="M34 27C34 30.866 30.866 34 27 34C23.134 34 20 30.866 20 27C20 23.134 23.134 20 27 20C30.866 20 34 23.134 34 27Z" fill="#2AD6CE"/>
<path fill-rule="evenodd" clip-rule="evenodd" d="M26.9998 29.2505C26.5855 29.2505 26.2498 28.9147 26.2498 28.5005V24.0005C26.2498 23.5863 26.5855 23.2505 26.9998 23.2505C27.414 23.2505 27.7498 23.5863 27.7498 24.0005V28.5005C27.7498 28.9147 27.414 29.2505 26.9998 29.2505Z" fill="white"/>
<path fill-rule="evenodd" clip-rule="evenodd" d="M23.9694 27.2202C24.2623 26.9273 24.7372 26.9273 25.0301 27.2202L26.9998 29.1898L28.9694 27.2202C29.2623 26.9273 29.7372 26.9273 30.0301 27.2202C30.323 27.5131 30.323 27.9879 30.0301 28.2808L27.5301 30.7808C27.2372 31.0737 26.7623 31.0737 26.4694 30.7808L23.9694 28.2808C23.6765 27.9879 23.6765 27.5131 23.9694 27.2202Z" fill="white"/>
</svg>
