<svg width="36" height="36" viewBox="0 0 36 36" fill="none" xmlns="http://www.w3.org/2000/svg">
<rect x="6" y="6" width="24" height="24" rx="3" fill="white"/>
<circle cx="14" cy="13" r="3" fill="#FFC737"/>
<mask id="mask0_4925_204543" style="mask-type:alpha" maskUnits="userSpaceOnUse" x="6" y="6" width="24" height="24">
<path d="M6 9C6 7.34315 7.34315 6 9 6H27C28.6569 6 30 7.34315 30 9V27C30 28.6569 28.6569 30 27 30H9C7.34315 30 6 28.6569 6 27V9Z" fill="#DCEAFC"/>
</mask>
<g mask="url(#mask0_4925_204543)">
<path d="M22.5858 17.4139L10 29.9997H38L25.4142 17.4139C24.6332 16.6329 23.3668 16.6329 22.5858 17.4139Z" fill="#B5B5B5"/>
<path d="M10.0858 20.9139L1 29.9997H22L12.9142 20.9139C12.1332 20.1329 10.8668 20.1329 10.0858 20.9139Z" fill="#D1D1D1"/>
</g>
<path d="M34.5 27.75C34.5 31.4779 31.4779 34.5 27.75 34.5C24.0221 34.5 21 31.4779 21 27.75C21 24.0221 24.0221 21 27.75 21C31.4779 21 34.5 24.0221 34.5 27.75Z" fill="#0168FE"/>
<path fill-rule="evenodd" clip-rule="evenodd" d="M27.8339 31.1522C28.0064 31.149 28.1705 31.0774 28.2901 30.9532L30.9162 28.2261C31.1652 27.9675 31.1575 27.556 30.8989 27.307C30.6403 27.058 30.2288 27.0658 29.9798 27.3243L27.8049 29.5829L25.4449 27.3073C25.1865 27.0581 24.775 27.0656 24.5259 27.324C24.2767 27.5824 24.2841 27.9939 24.5426 28.2431L27.3707 30.9702C27.4949 31.09 27.6615 31.1554 27.8339 31.1522Z" fill="white"/>
<path fill-rule="evenodd" clip-rule="evenodd" d="M27.7203 30.7539C28.0793 30.7539 28.3703 30.4629 28.3703 30.1039L28.3703 24.6496C28.3703 24.2907 28.0793 23.9996 27.7203 23.9996C27.3613 23.9996 27.0703 24.2907 27.0703 24.6496L27.0703 30.1039C27.0703 30.4629 27.3613 30.7539 27.7203 30.7539Z" fill="white"/>
</svg>
