<svg width="36" height="36" viewBox="0 0 36 36" fill="none" xmlns="http://www.w3.org/2000/svg">
<g clip-path="url(#clip0_7_13837)">
<rect x="4.55" y="4.55" width="26.9" height="26.9" rx="1.45" stroke="#EBEBEB" stroke-width="0.1"/>
<rect x="3.05" y="6.05" width="29.9" height="23.9" rx="1.45" stroke="#EBEBEB" stroke-width="0.1"/>
<rect x="6.05" y="3.05" width="23.9" height="29.9" rx="1.45" stroke="#EBEBEB" stroke-width="0.1"/>
<circle cx="18" cy="18" r="14.95" stroke="#EBEBEB" stroke-width="0.1"/>
<circle cx="18" cy="18" r="7.45" stroke="#EBEBEB" stroke-width="0.1"/>
<path d="M0 0L36 36M36 0L0 36" stroke="#EBEBEB" stroke-width="0.1"/>
<path d="M0 18H36M18 0V36M12 0V36M24 0V36M0 12H36M0 24H36" stroke="#EBEBEB" stroke-width="0.1"/>
</g>
<path fill-rule="evenodd" clip-rule="evenodd" d="M8.27019 14C5.91086 14 4 15.5014 4 17.3733C4 18.5627 4.79944 19.6156 5.98886 20.2201L5.57939 21.7409C5.55989 21.7799 5.57939 21.8384 5.61838 21.8774C5.63788 21.8969 5.67688 21.9164 5.69638 21.9164C5.71588 21.9164 5.75487 21.8969 5.77437 21.8969L7.50975 20.727C7.76323 20.766 8.01671 20.7855 8.28969 20.7855C10.649 20.7855 12.5599 19.2646 12.5599 17.4123C12.5599 15.5014 10.649 14 8.27019 14Z" fill="black"/>
<path d="M16.1673 20.181V22.3648H14.6074V14.3119H15.6993L15.8943 14.8189C16.2258 14.4874 16.7328 14.1364 17.5322 14.1364C19.0531 14.1364 19.7746 15.2673 19.7746 17.1197C19.7746 19.0501 18.6631 20.2785 17.0642 20.2785C16.7523 20.298 16.5183 20.2785 16.1673 20.181ZM16.1673 15.6183V19.0891C16.2453 19.1086 16.4598 19.1281 16.6743 19.1281C17.7857 19.1281 18.2147 18.3481 18.2147 17.1197C18.2147 16.0473 17.9222 15.4038 17.0447 15.4038C16.7328 15.4038 16.4208 15.4818 16.1673 15.6183Z" fill="black"/>
<path d="M23.1473 16.5933H24.0248V16.3983C24.0248 15.7549 23.6543 15.4624 23.0303 15.4624C22.5429 15.4624 21.9384 15.5989 21.4314 15.8524L21.0025 14.8189C21.5484 14.429 22.4064 14.1755 23.1668 14.1755C24.6487 14.1755 25.4677 14.9554 25.4677 16.4568V20.142H24.3757L24.2197 19.6546C23.5958 20.1031 23.0108 20.298 22.5039 20.298C21.3729 20.298 20.7295 19.6156 20.7295 18.4652C20.7295 17.2368 21.5679 16.5933 23.1473 16.5933ZM24.0443 18.6407V17.5682H23.3228C22.5234 17.5682 22.1139 17.8607 22.1139 18.4262C22.1139 18.8551 22.3284 19.0696 22.7963 19.0696C23.2253 19.0891 23.7713 18.8746 24.0443 18.6407Z" fill="black"/>
<path d="M30.1869 19.5375C29.6409 20.9804 28.9974 22.0333 28.042 22.6183L27.0866 21.7409C27.6325 21.2534 28.042 20.7854 28.3735 20.1615L26.3066 14.5264L27.847 14.1169L29.1729 18.6796L30.4793 14.0974L32.0002 14.5264L30.1869 19.5375Z" fill="black"/>
<defs>
<clipPath id="clip0_7_13837">
<rect width="36" height="36" fill="white"/>
</clipPath>
</defs>
</svg>
