<svg width="36" height="36" viewBox="0 0 36 36" fill="none" xmlns="http://www.w3.org/2000/svg">
<g clip-path="url(#clip0_7_13837)">
<path fill-rule="evenodd" clip-rule="evenodd" d="M30 4.6H6C5.2268 4.6 4.6 5.2268 4.6 6V30C4.6 30.7732 5.2268 31.4 6 31.4H30C30.7732 31.4 31.4 30.7732 31.4 30V6C31.4 5.2268 30.7732 4.6 30 4.6ZM6 4.5C5.17157 4.5 4.5 5.17157 4.5 6V30C4.5 30.8284 5.17157 31.5 6 31.5H30C30.8284 31.5 31.5 30.8284 31.5 30V6C31.5 5.17157 30.8284 4.5 30 4.5H6Z" fill="#EBEBEB"/>
<path fill-rule="evenodd" clip-rule="evenodd" d="M31.5 6.1H4.5C3.7268 6.1 3.1 6.7268 3.1 7.5V28.5C3.1 29.2732 3.7268 29.9 4.5 29.9H31.5C32.2732 29.9 32.9 29.2732 32.9 28.5V7.5C32.9 6.7268 32.2732 6.1 31.5 6.1ZM4.5 6C3.67157 6 3 6.67157 3 7.5V28.5C3 29.3284 3.67157 30 4.5 30H31.5C32.3284 30 33 29.3284 33 28.5V7.5C33 6.67157 32.3284 6 31.5 6H4.5Z" fill="#EBEBEB"/>
<path fill-rule="evenodd" clip-rule="evenodd" d="M28.5 3.1H7.5C6.7268 3.1 6.1 3.7268 6.1 4.5V31.5C6.1 32.2732 6.7268 32.9 7.5 32.9H28.5C29.2732 32.9 29.9 32.2732 29.9 31.5V4.5C29.9 3.7268 29.2732 3.1 28.5 3.1ZM7.5 3C6.67157 3 6 3.67157 6 4.5V31.5C6 32.3284 6.67157 33 7.5 33H28.5C29.3284 33 30 32.3284 30 31.5V4.5C30 3.67157 29.3284 3 28.5 3H7.5Z" fill="#EBEBEB"/>
<path fill-rule="evenodd" clip-rule="evenodd" d="M18 32.9C26.229 32.9 32.9 26.229 32.9 18C32.9 9.77096 26.229 3.1 18 3.1C9.77096 3.1 3.1 9.77096 3.1 18C3.1 26.229 9.77096 32.9 18 32.9ZM18 33C26.2843 33 33 26.2843 33 18C33 9.71573 26.2843 3 18 3C9.71573 3 3 9.71573 3 18C3 26.2843 9.71573 33 18 33Z" fill="#EBEBEB"/>
<path fill-rule="evenodd" clip-rule="evenodd" d="M18 25.4C22.0869 25.4 25.4 22.0869 25.4 18C25.4 13.9131 22.0869 10.6 18 10.6C13.9131 10.6 10.6 13.9131 10.6 18C10.6 22.0869 13.9131 25.4 18 25.4ZM18 25.5C22.1421 25.5 25.5 22.1421 25.5 18C25.5 13.8579 22.1421 10.5 18 10.5C13.8579 10.5 10.5 13.8579 10.5 18C10.5 22.1421 13.8579 25.5 18 25.5Z" fill="#EBEBEB"/>
<path fill-rule="evenodd" clip-rule="evenodd" d="M17.9292 18L-0.0354004 0.0353713L0.0353103 -0.0353394L18 17.9293L35.9646 -0.0353394L36.0353 0.0353713L18.0707 18L36.0353 35.9647L35.9646 36.0354L18 18.0707L0.0353103 36.0354L-0.0354004 35.9647L17.9292 18Z" fill="#EBEBEB"/>
<path fill-rule="evenodd" clip-rule="evenodd" d="M11.95 11.95V0H12.05V11.95H17.95V0H18.05V11.95H23.95V0H24.05V11.95H36V12.05H24.05V17.95H36V18.05H24.05V23.95H36V24.05H24.05V36H23.95V24.05H18.05V36H17.95V24.05H12.05V36H11.95V24.05H0V23.95H11.95V18.05H0V17.95H11.95V12.05H0V11.95H11.95ZM12.05 12.05V17.95H17.95V12.05H12.05ZM18.05 12.05V17.95H23.95V12.05H18.05ZM23.95 18.05H18.05V23.95H23.95V18.05ZM17.95 23.95V18.05H12.05V23.95H17.95Z" fill="#EBEBEB"/>
</g>
<path fill-rule="evenodd" clip-rule="evenodd" d="M8.27019 14C5.91086 14 4 15.5014 4 17.3733C4 18.5627 4.79944 19.6156 5.98886 20.2201L5.57939 21.7409C5.55989 21.7799 5.57939 21.8384 5.61838 21.8774C5.63788 21.8969 5.67688 21.9164 5.69638 21.9164C5.71588 21.9164 5.75487 21.8969 5.77437 21.8969L7.50975 20.727C7.76323 20.766 8.01671 20.7855 8.28969 20.7855C10.649 20.7855 12.5599 19.2646 12.5599 17.4123C12.5599 15.5014 10.649 14 8.27019 14Z" fill="black"/>
<path d="M16.1673 20.181V22.3648H14.6074V14.3119H15.6993L15.8943 14.8189C16.2258 14.4874 16.7328 14.1364 17.5322 14.1364C19.0531 14.1364 19.7746 15.2673 19.7746 17.1197C19.7746 19.0501 18.6631 20.2785 17.0642 20.2785C16.7523 20.298 16.5183 20.2785 16.1673 20.181ZM16.1673 15.6183V19.0891C16.2453 19.1086 16.4598 19.1281 16.6743 19.1281C17.7857 19.1281 18.2147 18.3481 18.2147 17.1197C18.2147 16.0473 17.9222 15.4038 17.0447 15.4038C16.7328 15.4038 16.4208 15.4818 16.1673 15.6183Z" fill="black"/>
<path d="M23.1473 16.5933H24.0248V16.3983C24.0248 15.7549 23.6543 15.4624 23.0303 15.4624C22.5429 15.4624 21.9384 15.5989 21.4314 15.8524L21.0025 14.8189C21.5484 14.429 22.4064 14.1755 23.1668 14.1755C24.6487 14.1755 25.4677 14.9554 25.4677 16.4568V20.142H24.3757L24.2197 19.6546C23.5958 20.1031 23.0108 20.298 22.5039 20.298C21.3729 20.298 20.7295 19.6156 20.7295 18.4652C20.7295 17.2368 21.5679 16.5933 23.1473 16.5933ZM24.0443 18.6407V17.5682H23.3228C22.5234 17.5682 22.1139 17.8607 22.1139 18.4262C22.1139 18.8551 22.3284 19.0696 22.7963 19.0696C23.2253 19.0891 23.7713 18.8746 24.0443 18.6407Z" fill="black"/>
<path d="M30.1869 19.5375C29.6409 20.9804 28.9974 22.0333 28.042 22.6183L27.0866 21.7409C27.6325 21.2534 28.042 20.7854 28.3735 20.1615L26.3066 14.5264L27.847 14.1169L29.1729 18.6796L30.4793 14.0974L32.0002 14.5264L30.1869 19.5375Z" fill="black"/>
<defs>
<clipPath id="clip0_7_13837">
<rect width="36" height="36" fill="white"/>
</clipPath>
</defs>
</svg>
