<svg width="36" height="36" viewBox="0 0 36 36" fill="none" xmlns="http://www.w3.org/2000/svg">
<g clip-path="url(#clip0_4608_42804)">
<g clip-path="url(#clip1_4608_42804)">
<path d="M18.0014 6C10.2673 6 4 10.8142 4 16.756C4 20.6217 6.65559 24.0131 10.6418 25.9074C10.3496 26.9689 9.58071 29.7565 9.4275 30.352C9.23741 31.091 9.70554 31.0827 10.012 30.8842C10.2531 30.727 13.8478 28.3503 15.3997 27.3273C16.2424 27.4487 17.1105 27.5121 17.9986 27.5121C25.7299 27.5121 32 22.6979 32 16.756C32 10.8142 25.7327 6 18.0014 6Z" fill="#371D1E"/>
<path d="M8.2332 14.7762H9.67448C9.67448 14.7762 9.68299 18.6226 9.67448 19.5187C9.67448 20.1721 11.1725 20.1804 11.1725 19.5269L11.1782 14.8258C11.1782 14.8258 11.6605 14.8286 12.6109 14.8286C13.5075 14.8286 13.5075 13.4582 12.6109 13.4582C11.6009 13.4582 8.22753 13.4307 8.22753 13.4307C7.38205 13.4307 7.38489 14.7734 8.22753 14.7734" fill="#FAE100"/>
<path d="M15.1303 15.0243L15.9332 17.4672H14.2621L15.1303 15.0243ZM14.2309 13.88C13.8763 14.6383 12.5967 18.2227 12.1711 19.174C11.8647 19.8605 13.1897 20.4202 13.4961 19.7337L13.7855 18.7549H16.4212C16.4212 18.7549 16.3304 18.7962 16.6794 19.6923C16.9631 20.4202 18.3335 19.9157 18.0469 19.1878C17.6412 18.1483 16.2425 14.4094 15.9871 13.88C15.8708 13.6346 15.4481 13.4609 15.0395 13.4609C14.7019 13.4609 14.37 13.5823 14.2309 13.88Z" fill="#FAE100"/>
<path d="M18.5547 14.1061C18.5547 15.3248 18.5632 19.2512 18.5632 19.2512C18.5632 19.2512 18.4469 20.0315 19.1363 20.0315C19.8257 20.0315 21.3521 20.0232 22.0302 20.0232C22.7083 20.0232 22.7026 18.6225 22.0274 18.6225C21.3521 18.6225 20.1151 18.6142 20.1151 18.6142C20.1151 18.6142 20.1208 14.9829 20.118 14.1006C20.118 13.6732 19.7264 13.4609 19.3377 13.4609C18.9491 13.4609 18.5575 13.676 18.5575 14.1034" fill="#FAE100"/>
<path d="M22.8874 13.9105C22.9016 14.4454 22.8704 19.2734 22.8704 19.6318C22.8704 20.1971 24.3514 20.1943 24.3485 19.6318C24.3485 18.9756 24.3485 17.7321 24.3485 17.7321L24.7826 17.393L26.6835 19.9131C27.0665 20.4066 28.2752 19.516 27.8921 19.0225L25.8749 16.4389C25.8749 16.4389 27.2453 14.9997 27.7843 14.4785C28.0993 14.1752 27.1233 13.2185 26.8083 13.5245C26.5019 13.8196 24.357 15.9068 24.357 15.9068C24.357 15.9068 24.3769 14.5971 24.357 13.8719C24.3485 13.5962 24.0024 13.4639 23.6477 13.4639C23.2676 13.4639 22.8789 13.6155 22.8874 13.9105Z" fill="#FAE100"/>
</g>
</g>
<defs>
<clipPath id="clip0_4608_42804">
<rect width="36" height="36" fill="white"/>
</clipPath>
<clipPath id="clip1_4608_42804">
<rect width="28" height="25" fill="white" transform="translate(4 6)"/>
</clipPath>
</defs>
</svg>
