<svg width="24" height="24" viewBox="0 0 24 24" fill="none" xmlns="http://www.w3.org/2000/svg">
<path d="M7.66944 11.2166C7.21383 10.7609 7.21383 10.0223 7.66944 9.56664L9.31936 7.91673C9.77497 7.46112 10.5137 7.46112 10.9693 7.91673L20.4563 17.4037C20.7159 17.6634 20.8382 18.0302 20.7863 18.3937L20.58 19.8374C20.5067 20.3507 20.1034 20.754 19.5901 20.8273L18.1464 21.0336C17.7829 21.0855 17.4161 20.9632 17.1565 20.7036L7.66944 11.2166Z" fill="#FFC737"/>
<path fill-rule="evenodd" clip-rule="evenodd" d="M13.4432 13.691C16.1769 10.9573 16.1769 6.52513 13.4432 3.79146C10.7096 1.05779 6.27741 1.05779 3.54374 3.79146C0.810072 6.52513 0.810072 10.9573 3.54374 13.691C6.27741 16.4246 10.7096 16.4246 13.4432 13.691ZM8.01893 8.26549C8.57122 7.71321 8.57122 6.81778 8.01893 6.26549C7.46665 5.71321 6.57122 5.71321 6.01893 6.26549C5.46665 6.81778 5.46665 7.71321 6.01893 8.26549C6.57122 8.81778 7.46665 8.81778 8.01893 8.26549Z" fill="#FFC737"/>
</svg>
