<svg width="36" height="37" viewBox="0 0 36 37" fill="none" xmlns="http://www.w3.org/2000/svg">
<path fill-rule="evenodd" clip-rule="evenodd" d="M6.5 13.8326C6.5 7.57378 11.5738 2.5 17.8326 2.5H18.1674C24.4262 2.5 29.5 7.57378 29.5 13.8326C29.5 16.1415 28.8095 18.2892 27.6237 20.0804C26.9625 21.2105 26.2667 22.2299 25.6823 23.0862C25.3651 23.551 25.0807 23.9677 24.8525 24.3278C24.832 24.3602 24.8114 24.3925 24.7908 24.4248L19.2939 33.7829C18.7142 34.7699 17.287 34.7699 16.7072 33.7829L13.487 28.3012C13.1816 27.8319 12.7099 27.1288 12.1701 26.3243C10.9101 24.4464 9.27945 22.016 8.52895 20.7173C8.16542 20.0882 7.84541 19.3629 7.57647 18.6596C7.15002 17.7551 6.8397 16.7851 6.66474 15.7687C6.63678 15.6582 6.62244 15.5972 6.62244 15.5972C6.62244 15.5972 6.62706 15.5964 6.63619 15.5947C6.54653 15.0205 6.5 14.432 6.5 13.8326Z" fill="#F64A4A"/>
<path d="M24.5 14C24.5 17.5899 21.5899 20.5 18 20.5C14.4101 20.5 11.5 17.5899 11.5 14C11.5 10.4101 14.4101 7.5 18 7.5C21.5899 7.5 24.5 10.4101 24.5 14Z" fill="white"/>
<path fill-rule="evenodd" clip-rule="evenodd" d="M18 18.5C20.4853 18.5 22.5 16.4853 22.5 14C22.5 11.5147 20.4853 9.5 18 9.5C15.5147 9.5 13.5 11.5147 13.5 14C13.5 16.4853 15.5147 18.5 18 18.5ZM18 20.5C21.5899 20.5 24.5 17.5899 24.5 14C24.5 10.4101 21.5899 7.5 18 7.5C14.4101 7.5 11.5 10.4101 11.5 14C11.5 17.5899 14.4101 20.5 18 20.5Z" fill="white"/>
</svg>
