<svg width="36" height="36" viewBox="0 0 36 36" fill="none" xmlns="http://www.w3.org/2000/svg">
<path fill-rule="evenodd" clip-rule="evenodd" d="M6.5 13.3326C6.5 7.07378 11.5738 2 17.8326 2H18.1674C24.4262 2 29.5 7.07378 29.5 13.3326C29.5 15.6415 28.8095 17.7892 27.6237 19.5804C26.9625 20.7105 26.2667 21.7299 25.6823 22.5862C25.3651 23.051 25.0807 23.4677 24.8525 23.8278C24.832 23.8602 24.8114 23.8925 24.7908 23.9248L19.2939 33.2829C18.7142 34.2699 17.287 34.2699 16.7072 33.2829L13.487 27.8012C13.1816 27.3319 12.7099 26.6288 12.1701 25.8243C10.9101 23.9464 9.27945 21.516 8.52895 20.2173C8.16542 19.5882 7.84541 18.8629 7.57647 18.1596C7.15002 17.2551 6.8397 16.2851 6.66474 15.2687C6.63678 15.1582 6.62244 15.0972 6.62244 15.0972C6.62244 15.0972 6.62706 15.0964 6.63619 15.0947C6.54653 14.5205 6.5 13.932 6.5 13.3326Z" fill="#F64A4A"/>
<path d="M24.5 13.5C24.5 17.0899 21.5899 20 18 20C14.4101 20 11.5 17.0899 11.5 13.5C11.5 9.91015 14.4101 7 18 7C21.5899 7 24.5 9.91015 24.5 13.5Z" fill="white"/>
</svg>
