<svg width="24" height="24" viewBox="0 0 24 24" fill="none" xmlns="http://www.w3.org/2000/svg">
<path fill-rule="evenodd" clip-rule="evenodd" d="M15 9V6C15 4.34315 13.6569 3 12 3C10.3431 3 9 4.34315 9 6V9H15ZM12 1C9.23858 1 7 3.23858 7 6V11H17V6C17 3.23858 14.7614 1 12 1Z" fill="#FFC737"/>
<path fill-rule="evenodd" clip-rule="evenodd" d="M6 8C4.34315 8 3 9.34315 3 11V19C3 20.6569 4.34315 22 6 22H18C19.6569 22 21 20.6569 21 19V11C21 9.34315 19.6569 8 18 8H6ZM12 13C11.4477 13 11 13.4477 11 14V16C11 16.5523 11.4477 17 12 17C12.5523 17 13 16.5523 13 16V14C13 13.4477 12.5523 13 12 13Z" fill="#FFC737"/>
</svg>
