<svg width="25" height="24" viewBox="0 0 25 24" fill="none" xmlns="http://www.w3.org/2000/svg">
<path fill-rule="evenodd" clip-rule="evenodd" d="M15.3718 9V6C15.3718 4.34315 14.0287 3 12.3718 3C10.715 3 9.37183 4.34315 9.37183 6V9H15.3718ZM12.3718 1C9.6104 1 7.37183 3.23858 7.37183 6V11H17.3718V6C17.3718 3.23858 15.1332 1 12.3718 1Z" fill="#FFC737"/>
<path fill-rule="evenodd" clip-rule="evenodd" d="M6.37183 8C4.71497 8 3.37183 9.34315 3.37183 11V19C3.37183 20.6569 4.71497 22 6.37183 22H18.3718C20.0287 22 21.3718 20.6569 21.3718 19V11C21.3718 9.34315 20.0287 8 18.3718 8H6.37183ZM12.3718 13C11.8195 13 11.3718 13.4477 11.3718 14V16C11.3718 16.5523 11.8195 17 12.3718 17C12.9241 17 13.3718 16.5523 13.3718 16V14C13.3718 13.4477 12.9241 13 12.3718 13Z" fill="#FFC737"/>
</svg>
