<svg width="24" height="24" viewBox="0 0 24 24" fill="none" xmlns="http://www.w3.org/2000/svg">
<path d="M3.66602 8.09394C3.66602 7.67315 3.92718 7.33203 4.24935 7.33203H7.74935C8.07151 7.33203 8.33268 7.67315 8.33268 8.09394V19.9035C8.33268 20.3242 8.07151 20.6654 7.74935 20.6654H4.24935C3.92718 20.6654 3.66602 20.3242 3.66602 19.9035V8.09394Z" fill="#428FFF"/>
<path d="M15.666 13.3307C15.666 12.9625 15.9645 12.6641 16.3327 12.6641H19.666C20.0342 12.6641 20.3327 12.9625 20.3327 13.3307V19.9974C20.3327 20.3656 20.0342 20.6641 19.666 20.6641H16.3327C15.9645 20.6641 15.666 20.3656 15.666 19.9974V13.3307Z" fill="#0168FE"/>
<path d="M9.66602 10.6667C9.66602 10.2985 9.96449 10 10.3327 10H13.666C14.0342 10 14.3327 10.2985 14.3327 10.6667V20C14.3327 20.3682 14.0342 20.6667 13.666 20.6667H10.3327C9.96449 20.6667 9.66602 20.3682 9.66602 20V10.6667Z" fill="#0168FE"/>
<path fill-rule="evenodd" clip-rule="evenodd" d="M19.1829 9.38409C19.4159 9.099 19.3736 8.67901 19.0885 8.44602L12.1548 2.77935C11.8985 2.56983 11.5272 2.5802 11.2829 2.80371L8.50003 5.35005L5.14917 1.83552C4.8951 1.56904 4.47311 1.55898 4.20663 1.81305C3.94015 2.06712 3.93009 2.48911 4.18416 2.75559L7.98571 6.74283C8.2361 7.00545 8.65055 7.01959 8.91825 6.77464L11.7576 4.17666L18.2448 9.47842C18.5299 9.71142 18.9499 9.66919 19.1829 9.38409Z" fill="#435062"/>
<path d="M19.8311 10.2202C20.0697 10.2395 20.2503 10.0084 20.1738 9.7815L18.9626 6.18809C18.8779 5.93659 18.5475 5.8802 18.3841 6.08933L15.8157 9.37672C15.6523 9.58585 15.787 9.89278 16.0515 9.9142L19.8311 10.2202Z" fill="#435062"/>
</svg>
