<svg width="36" height="36" viewBox="0 0 36 36" fill="none" xmlns="http://www.w3.org/2000/svg">
<path d="M6.25 18.75C6.25 12.2607 11.5107 7 18 7C24.4893 7 29.75 12.2607 29.75 18.75V27.5C29.75 29.7091 27.9591 31.5 25.75 31.5H10.25C8.04086 31.5 6.25 29.7091 6.25 27.5V18.75Z" fill="#DCEAFC"/>
<path d="M14.5 27C14.5 25.067 16.067 23.5 18 23.5C19.933 23.5 21.5 25.067 21.5 27V31.5H14.5V27Z" fill="#82A3D2"/>
<path fill-rule="evenodd" clip-rule="evenodd" d="M16.4653 3.02662C17.368 2.32446 18.6322 2.32446 19.535 3.02662L33.035 13.5266C34.1248 14.3743 34.3212 15.945 33.4735 17.0349C32.6258 18.1247 31.0551 18.3211 29.9653 17.4734L18.0001 8.16715L6.03497 17.4734C4.9451 18.3211 3.37441 18.1247 2.52673 17.0349C1.67906 15.945 1.8754 14.3743 2.96526 13.5266L16.4653 3.02662Z" fill="#074093"/>
</svg>
