<svg width="36" height="36" viewBox="0 0 36 36" fill="none" xmlns="http://www.w3.org/2000/svg">
<path d="M12.75 4.82094C12.75 4.22921 13.2297 3.74951 13.8214 3.74951H22.1786C22.7703 3.74951 23.25 4.22921 23.25 4.82094V5.99951C23.25 8.89901 20.8995 11.2495 18 11.2495C15.1005 11.2495 12.75 8.89901 12.75 5.99951V4.82094Z" fill="#FF9E00"/>
<path d="M5.5 22.2495C5.5 15.346 11.0964 9.74951 18 9.74951C24.9036 9.74951 30.5 15.346 30.5 22.2495V27.7495C30.5 30.2348 28.4853 32.2495 26 32.2495H10C7.51472 32.2495 5.5 30.2348 5.5 27.7495V22.2495Z" fill="#FFBB37"/>
<path fill-rule="evenodd" clip-rule="evenodd" d="M10.5 21.7495C10.5 21.1972 10.9477 20.7495 11.5 20.7495L13.5 20.7495C14.0523 20.7495 14.5 21.1972 14.5 21.7495C14.5 22.3018 14.0523 22.7495 13.5 22.7495L11.5 22.7495C10.9477 22.7495 10.5 22.3018 10.5 21.7495Z" fill="white"/>
<path fill-rule="evenodd" clip-rule="evenodd" d="M21.5 21.7495C21.5 21.1972 21.9477 20.7495 22.5 20.7495L24.5 20.7495C25.0523 20.7495 25.5 21.1972 25.5 21.7495C25.5 22.3018 25.0523 22.7495 24.5 22.7495L22.5 22.7495C21.9477 22.7495 21.5 22.3018 21.5 21.7495Z" fill="white"/>
<path fill-rule="evenodd" clip-rule="evenodd" d="M12.7073 17.2933C13.2354 17.1317 13.7946 17.4287 13.9562 17.9568L15.2776 22.2733L17.0742 17.8716C17.2277 17.4954 17.5937 17.2495 18 17.2495C18.4064 17.2495 18.7723 17.4954 18.9259 17.8716L20.7225 22.2733L22.0438 17.9568C22.2055 17.4287 22.7646 17.1317 23.2927 17.2933C23.8208 17.455 24.1179 18.0142 23.9562 18.5422L21.8134 25.5422C21.6896 25.9466 21.3248 26.2294 20.9024 26.2485C20.4799 26.2676 20.0911 26.019 19.9313 25.6274L18 20.8958L16.0687 25.6274C15.9089 26.019 15.5201 26.2676 15.0977 26.2485C14.6752 26.2294 14.3105 25.9466 14.1867 25.5422L12.0438 18.5422C11.8822 18.0142 12.1792 17.455 12.7073 17.2933Z" fill="white"/>
<path d="M35 27.9995C35 31.8655 31.866 34.9995 28 34.9995C24.134 34.9995 21 31.8655 21 27.9995C21 24.1335 24.134 20.9995 28 20.9995C31.866 20.9995 35 24.1335 35 27.9995Z" fill="#00CBC1"/>
<path fill-rule="evenodd" clip-rule="evenodd" d="M28 31.9495C27.5858 31.9495 27.25 31.6137 27.25 31.1995V26.6995C27.25 26.2852 27.5858 25.9495 28 25.9495C28.4142 25.9495 28.75 26.2852 28.75 26.6995V31.1995C28.75 31.6137 28.4142 31.9495 28 31.9495Z" fill="white"/>
<path fill-rule="evenodd" clip-rule="evenodd" d="M24.9697 28.0298C24.6768 27.7369 24.6768 27.2621 24.9697 26.9692L27.4697 24.4692C27.7626 24.1763 28.2374 24.1763 28.5303 24.4692L31.0303 26.9692C31.3232 27.2621 31.3232 27.7369 31.0303 28.0298C30.7374 28.3227 30.2626 28.3227 29.9697 28.0298L28 26.0602L26.0303 28.0298C25.7374 28.3227 25.2626 28.3227 24.9697 28.0298Z" fill="white"/>
</svg>
