<svg width="36" height="36" viewBox="0 0 36 36" fill="none" xmlns="http://www.w3.org/2000/svg">
<path d="M11 4.4C11 3.6268 11.6566 3 12.4667 3H19.5333C20.3434 3 21 3.6268 21 4.4V5.22727C21 7.86318 18.7614 10 16 10C13.2386 10 11 7.86318 11 5.22727V4.4Z" fill="#11A69F"/>
<path d="M3 20.8125C3 14.2886 8.59644 9 15.5 9C22.4036 9 28 14.2886 28 20.8125V26.1538C28 28.8303 25.704 31 22.8718 31H8.12821C5.29598 31 3 28.8303 3 26.1538V20.8125Z" fill="#20C7BF"/>
<path fill-rule="evenodd" clip-rule="evenodd" d="M10.619 16.0683C11.1186 15.8681 11.6811 16.1231 11.8754 16.6378L13.2354 20.2411L14.5955 16.6378C14.7405 16.2534 15.0997 16.0003 15.5 16.0003C15.9003 16.0003 16.2595 16.2534 16.4046 16.6378L17.7646 20.2411L19.1246 16.6378C19.3189 16.1231 19.8814 15.8681 20.381 16.0683C20.8805 16.2684 21.128 16.848 20.9337 17.3627L18.6691 23.3625C18.5241 23.7468 18.1649 24 17.7646 24C17.3643 24 17.0051 23.7468 16.86 23.3625L15.5 19.7592L14.14 23.3625C13.9949 23.7468 13.6357 24 13.2354 24C12.8351 24 12.4759 23.7468 12.3309 23.3625L10.0663 17.3627C9.87198 16.848 10.1195 16.2684 10.619 16.0683Z" fill="white"/>
<path fill-rule="evenodd" clip-rule="evenodd" d="M9 20C9 19.4477 9.40294 19 9.9 19L11.1 19C11.5971 19 12 19.4477 12 20C12 20.5523 11.5971 21 11.1 21L9.9 21C9.40294 21 9 20.5523 9 20Z" fill="white"/>
<path fill-rule="evenodd" clip-rule="evenodd" d="M19 20C19 19.4477 19.5373 19 20.2 19L21.8 19C22.4627 19 23 19.4477 23 20C23 20.5523 22.4627 21 21.8 21L20.2 21C19.5373 21 19 20.5523 19 20Z" fill="white"/>
<path d="M33 25C33 29.4183 29.4183 33 25 33C20.5817 33 17 29.4183 17 25C17 20.5817 20.5817 17 25 17C29.4183 17 33 20.5817 33 25Z" fill="#0168FE"/>
<path fill-rule="evenodd" clip-rule="evenodd" d="M29.4764 22.0627C29.856 22.4639 29.8385 23.0968 29.4373 23.4764L24.6812 27.9764C24.2901 28.3464 23.6763 28.3404 23.2925 27.9628L20.5486 25.2628C20.155 24.8754 20.1499 24.2423 20.5372 23.8486C20.9246 23.455 21.5577 23.4499 21.9514 23.8372L24.0075 25.8605L28.0627 22.0236C28.4639 21.644 29.0968 21.6615 29.4764 22.0627Z" fill="white"/>
</svg>
