<svg width="36" height="37" viewBox="0 0 36 37" fill="none" xmlns="http://www.w3.org/2000/svg">
<path d="M5.00442 10.4186C5.02998 8.56631 6.26663 7.00048 8.01282 6.3821L15.599 3.69562C17.154 3.14495 18.8509 3.14495 20.406 3.69563L27.985 6.37959C29.7348 6.99927 30.9726 8.57013 30.9962 10.4263C31.0436 14.1529 30.6807 20.482 28.0401 24.5545C25.3195 28.7503 19.6083 32.7445 18.0025 32.7445C16.3966 32.7445 10.557 28.569 7.96514 24.5545C5.3125 20.4458 4.95316 14.1331 5.00442 10.4186Z" fill="#20C7BF"/>
<rect x="16" y="10.6445" width="4" height="13" rx="1" fill="white"/>
<rect x="11.5" y="15.1445" width="13" height="4" rx="1" fill="white"/>
</svg>
