<svg width="36" height="36" viewBox="0 0 36 36" fill="none" xmlns="http://www.w3.org/2000/svg">
<path d="M5.01442 10.0815C5.05283 8.53926 6.07994 7.23611 7.5336 6.7196L16.6632 3.47573C17.5295 3.16792 18.4754 3.16792 19.3417 3.47573L28.4654 6.71751C29.9221 7.2351 30.9501 8.54243 30.9868 10.0879C31.0731 13.7321 30.8073 20.5005 28.0401 24.7825C25.3195 28.9924 19.6083 32.9999 18.0025 32.9999C16.3966 32.9999 10.557 28.8104 7.96514 24.7825C5.18525 20.4623 4.92396 13.7135 5.01442 10.0815Z" fill="#20C7BF"/>
<path d="M16 11.5C16 10.9477 16.4477 10.5 17 10.5H19C19.5523 10.5 20 10.9477 20 11.5V22.5C20 23.0523 19.5523 23.5 19 23.5H17C16.4477 23.5 16 23.0523 16 22.5V11.5Z" fill="white"/>
<path d="M11.5 16C11.5 15.4477 11.9477 15 12.5 15H23.5C24.0523 15 24.5 15.4477 24.5 16V18C24.5 18.5523 24.0523 19 23.5 19H12.5C11.9477 19 11.5 18.5523 11.5 18V16Z" fill="white"/>
</svg>
