<svg width="36" height="36" viewBox="0 0 36 36" fill="none" xmlns="http://www.w3.org/2000/svg">
<rect x="5.25" y="6.75" width="25.5" height="21.75" rx="1" fill="#BDBDBD"/>
<rect x="6.75" y="8.25" width="22.5" height="16.5" rx="1" fill="#15181F"/>
<rect x="15.75" y="28.5" width="4.5" height="3" fill="#BDBDBD"/>
<path d="M12.4531 31.9453C12.6386 31.6671 12.9508 31.5 13.2852 31.5H22.7148C23.0492 31.5 23.3614 31.6671 23.5469 31.9453L23.7135 32.1953C24.1566 32.8599 23.6802 33.75 22.8815 33.75H13.1185C12.3198 33.75 11.8434 32.8599 12.2865 32.1953L12.4531 31.9453Z" fill="#BDBDBD"/>
<circle cx="27.75" cy="26.25" r="0.75" fill="#757575"/>
<circle cx="25.5" cy="26.25" r="0.75" fill="#757575"/>
<circle cx="23.25" cy="26.25" r="0.75" fill="#757575"/>
<rect x="16" y="11.5" width="3.75" height="9.75" rx="1" fill="#F64A4A"/>
<rect x="13" y="14.5" width="9.75" height="3.75" rx="1" fill="#F64A4A"/>
</svg>
