<svg width="36" height="36" viewBox="0 0 36 36" fill="none" xmlns="http://www.w3.org/2000/svg">
<path d="M5.00442 10.2741C5.02998 8.42178 6.26663 6.85595 8.01282 6.23757L15.599 3.55109C17.154 3.00042 18.8509 3.00042 20.406 3.5511L27.985 6.23506C29.7348 6.85473 30.9726 8.4256 30.9962 10.2818C31.0436 14.0083 30.6807 20.3374 28.0401 24.41C25.3195 28.6058 19.6083 32.6 18.0025 32.6C16.3966 32.6 10.557 28.4245 7.96514 24.41C5.3125 20.3012 4.95316 13.9886 5.00442 10.2741Z" fill="#20C7BF"/>
<rect x="16" y="10.5" width="4" height="13" rx="1" fill="white"/>
<rect x="11.5" y="15" width="13" height="4" rx="1" fill="white"/>
</svg>
