<svg width="24" height="24" viewBox="0 0 24 24" fill="none" xmlns="http://www.w3.org/2000/svg">
<path d="M11.3328 4.97369C11.5951 4.56476 12.1927 4.56476 12.455 4.97369L17.0088 12.0723C17.2935 12.516 16.9748 13.099 16.4477 13.099H7.34012C6.81296 13.099 6.49435 12.516 6.77899 12.0723L11.3328 4.97369Z" fill="#FFC058"/>
<path d="M4.00187 8.25925C3.96027 7.68346 4.62041 7.33055 5.0761 7.68497L14.3602 14.906C14.8613 15.2957 14.5857 16.0989 13.9509 16.0989H5.18851C4.83896 16.0989 4.54877 15.8289 4.52358 15.4802L4.00187 8.25925Z" fill="#FFCD70"/>
<path d="M19.7849 8.23984C19.8273 7.66711 19.1739 7.31241 18.7167 7.65991L9.18882 14.9011C8.68045 15.2874 8.95368 16.0985 9.59221 16.0985H18.5847C18.9338 16.0985 19.2238 15.8292 19.2495 15.481L19.7849 8.23984Z" fill="#FFD35E"/>
<path d="M4.56055 17.7653C4.56055 17.3971 4.85902 17.0986 5.22721 17.0986H18.5605C18.9287 17.0986 19.2272 17.3971 19.2272 17.7653V18.432C19.2272 18.8002 18.9287 19.0986 18.5605 19.0986H5.22721C4.85902 19.0986 4.56055 18.8002 4.56055 18.432V17.7653Z" fill="#FFC463"/>
</svg>
