<svg width="36" height="36" viewBox="0 0 36 36" fill="none" xmlns="http://www.w3.org/2000/svg">
<path d="M4.5 9.75C4.5 8.09315 5.84315 6.75 7.5 6.75L28.5 6.75C30.1569 6.75 31.5 8.09315 31.5 9.75V29.25C31.5 30.9069 30.1569 32.25 28.5 32.25H7.5C5.84315 32.25 4.5 30.9069 4.5 29.25L4.5 9.75Z" fill="#DCEAFC"/>
<path d="M10 26C10 25.4477 10.4477 25 11 25H25C25.5523 25 26 25.4477 26 26C26 26.5523 25.5523 27 25 27H11C10.4477 27 10 26.5523 10 26Z" fill="#89B1FE"/>
<path d="M9 6C9 5.17157 9.67157 4.5 10.5 4.5C11.3284 4.5 12 5.17157 12 6V9.75C12 10.5784 11.3284 11.25 10.5 11.25C9.67157 11.25 9 10.5784 9 9.75V6Z" fill="#09203E"/>
<path d="M24 6C24 5.17157 24.6716 4.5 25.5 4.5C26.3284 4.5 27 5.17157 27 6V9.75C27 10.5784 26.3284 11.25 25.5 11.25C24.6716 11.25 24 10.5784 24 9.75V6Z" fill="#09203E"/>
<path fill-rule="evenodd" clip-rule="evenodd" d="M13.1933 14.0461C13.6097 13.8986 14.0669 14.1167 14.2144 14.5331L15.727 18.8038L17.2395 14.5331C17.3526 14.2137 17.6547 14.0002 17.9936 14.0002C18.3324 14.0002 18.6345 14.2137 18.7476 14.5331L20.2602 18.8038L21.7727 14.5331C21.9202 14.1167 22.3774 13.8986 22.7938 14.0461C23.2103 14.1936 23.4284 14.6508 23.2809 15.0673L21.0142 21.4671C20.9011 21.7865 20.599 22 20.2602 22C19.9213 22 19.6192 21.7865 19.5061 21.4671L17.9936 17.1964L16.481 21.4671C16.3679 21.7865 16.0658 22 15.727 22C15.3881 22 15.086 21.7865 14.9729 21.4671L12.7063 15.0673C12.5588 14.6508 12.7768 14.1936 13.1933 14.0461Z" fill="#0168FE"/>
<path fill-rule="evenodd" clip-rule="evenodd" d="M11.3281 17.7331C11.3281 17.2913 11.6863 16.9331 12.1281 16.9331L13.7281 16.9331C14.1699 16.9331 14.528 17.2913 14.528 17.7331C14.528 18.1749 14.1699 18.5331 13.7281 18.5331L12.1281 18.5331C11.6863 18.5331 11.3281 18.1749 11.3281 17.7331Z" fill="#0168FE"/>
<path fill-rule="evenodd" clip-rule="evenodd" d="M21.4629 17.7331C21.4629 17.2913 21.8211 16.9331 22.2629 16.9331L23.8628 16.9331C24.3046 16.9331 24.6628 17.2913 24.6628 17.7331C24.6628 18.1749 24.3046 18.5331 23.8628 18.5331L22.2629 18.5331C21.8211 18.5331 21.4629 18.1749 21.4629 17.7331Z" fill="#0168FE"/>
</svg>
