<svg width="24" height="24" viewBox="0 0 24 24" fill="none" xmlns="http://www.w3.org/2000/svg">
<path d="M8.25 2.85C8.25 2.24249 8.74249 1.75 9.35 1.75H14.65C15.2575 1.75 15.75 2.24249 15.75 2.85V3.5C15.75 5.57107 14.0711 7.25 12 7.25C9.92893 7.25 8.25 5.57107 8.25 3.5V2.85Z" fill="#11A69F"/>
<path d="M2.99805 15.249C2.99805 10.2785 7.02748 6.24902 11.998 6.24902C16.9686 6.24902 20.998 10.2785 20.998 15.249V18.5567C20.998 20.5959 19.3449 22.249 17.3057 22.249H6.69036C4.65115 22.249 2.99805 20.5959 2.99805 18.5567V15.249Z" fill="#20C7BF"/>
<path fill-rule="evenodd" clip-rule="evenodd" d="M8.22641 12.0492C8.61246 11.8991 9.04712 12.0904 9.19725 12.4764L10.2482 15.179L11.2992 12.4764C11.4114 12.1881 11.6889 11.9982 11.9982 11.9982C12.3076 11.9982 12.5851 12.1881 12.6973 12.4764L13.7482 15.179L14.7992 12.4764C14.9494 12.0904 15.384 11.8991 15.7701 12.0492C16.1561 12.1994 16.3474 12.634 16.1973 13.0201L14.4473 17.5201C14.3351 17.8084 14.0576 17.9982 13.7482 17.9982C13.4389 17.9982 13.1614 17.8084 13.0492 17.5201L11.9982 14.8175L10.9473 17.5201C10.8351 17.8084 10.5576 17.9982 10.2482 17.9982C9.93894 17.9982 9.66135 17.8084 9.54924 17.5201L7.79924 13.0201C7.64911 12.634 7.84036 12.1994 8.22641 12.0492Z" fill="white"/>
<path fill-rule="evenodd" clip-rule="evenodd" d="M6.74805 14.749C6.74805 14.3348 7.08383 13.999 7.49805 13.999L8.49805 13.999C8.91226 13.999 9.24805 14.3348 9.24805 14.749C9.24805 15.1632 8.91226 15.499 8.49805 15.499L7.49805 15.499C7.08383 15.499 6.74805 15.1632 6.74805 14.749Z" fill="white"/>
<path fill-rule="evenodd" clip-rule="evenodd" d="M14.748 14.749C14.748 14.3348 15.0838 13.999 15.498 13.999L16.498 13.999C16.9123 13.999 17.248 14.3348 17.248 14.749C17.248 15.1632 16.9123 15.499 16.498 15.499L15.498 15.499C15.0838 15.499 14.748 15.1632 14.748 14.749Z" fill="white"/>
</svg>
