<svg width="36" height="36" viewBox="0 0 36 36" fill="none" xmlns="http://www.w3.org/2000/svg">
<path d="M4.5 9C4.5 7.34315 5.84315 6 7.5 6H28.5C30.1569 6 31.5 7.34315 31.5 9V29C31.5 30.6569 30.1569 32 28.5 32H7.5C5.84315 32 4.5 30.6569 4.5 29V9Z" fill="#DCEAFC"/>
<path d="M10 25.2646C10 24.7124 10.4477 24.2646 11 24.2646H25C25.5523 24.2646 26 24.7124 26 25.2646C26 25.8169 25.5523 26.2646 25 26.2646H11C10.4477 26.2646 10 25.8169 10 25.2646Z" fill="#074093" fill-opacity="0.5"/>
<path d="M10 4.25C10 3.55964 10.5596 3 11.25 3C11.9404 3 12.5 3.55964 12.5 4.25V7.75C12.5 8.44036 11.9404 9 11.25 9C10.5596 9 10 8.44036 10 7.75V4.25Z" fill="#09203E"/>
<path d="M23.5 4.25C23.5 3.55964 24.0596 3 24.75 3C25.4404 3 26 3.55964 26 4.25V7.75C26 8.44036 25.4404 9 24.75 9C24.0596 9 23.5 8.44036 23.5 7.75V4.25Z" fill="#09203E"/>
<path fill-rule="evenodd" clip-rule="evenodd" d="M10.5 17.5C10.5 16.9477 10.9477 16.5 11.5 16.5L13.5 16.5C14.0523 16.5 14.5 16.9477 14.5 17.5C14.5 18.0523 14.0523 18.5 13.5 18.5L11.5 18.5C10.9477 18.5 10.5 18.0523 10.5 17.5Z" fill="#074093"/>
<path fill-rule="evenodd" clip-rule="evenodd" d="M21.5 17.5C21.5 16.9477 21.9477 16.5 22.5 16.5L24.5 16.5C25.0523 16.5 25.5 16.9477 25.5 17.5C25.5 18.0523 25.0523 18.5 24.5 18.5L22.5 18.5C21.9477 18.5 21.5 18.0523 21.5 17.5Z" fill="#074093"/>
<path fill-rule="evenodd" clip-rule="evenodd" d="M12.3355 13.0438C12.8636 12.8822 13.4227 13.1792 13.5844 13.7073L14.9058 18.0238L16.7023 13.6221C16.8559 13.2459 17.2218 13 17.6282 13C18.0345 13 18.4005 13.2459 18.554 13.6221L20.3506 18.0238L21.672 13.7073C21.8337 13.1792 22.3928 12.8822 22.9209 13.0438C23.449 13.2055 23.7461 13.7646 23.5844 14.2927L21.4415 21.2927C21.3178 21.6971 20.953 21.9799 20.5306 21.999C20.1081 22.0181 19.7193 21.7694 19.5595 21.3779L17.6282 16.6462L15.6969 21.3779C15.5371 21.7694 15.1483 22.0181 14.7258 21.999C14.3034 21.9799 13.9386 21.6971 13.8149 21.2927L11.672 14.2927C11.5103 13.7646 11.8074 13.2055 12.3355 13.0438Z" fill="#074093"/>
</svg>
