<svg width="36" height="36" viewBox="0 0 36 36" fill="none" xmlns="http://www.w3.org/2000/svg">
<path d="M4.25 5.75C4.25 4.09315 5.59315 2.75 7.25 2.75H28.75C30.4069 2.75 31.75 4.09315 31.75 5.75V30.25C31.75 31.9069 30.4069 33.25 28.75 33.25H7.25C5.59315 33.25 4.25 31.9069 4.25 30.25V5.75Z" fill="#DCEAFC"/>
<path d="M14.5 13.5C14.5 11.567 16.067 10 18 10C19.933 10 21.5 11.567 21.5 13.5C21.5 15.433 19.933 17 18 17C16.067 17 14.5 15.433 14.5 13.5Z" fill="#00CBC1"/>
<path d="M11 24.4211C11 21.1509 13.4742 18.5 16.5263 18.5H19.4737C22.5258 18.5 25 21.1509 25 24.4211C25 25.2931 24.3402 26 23.5263 26H12.4737C11.6598 26 11 25.2931 11 24.4211Z" fill="#05B0A8"/>
</svg>
