<svg width="36" height="36" viewBox="0 0 36 36" fill="none" xmlns="http://www.w3.org/2000/svg">
<path d="M6.75 7.5C6.75 5.84315 8.09315 4.5 9.75 4.5H26.25C27.9069 4.5 29.25 5.84315 29.25 7.5V28.5C29.25 30.1569 27.9069 31.5 26.25 31.5H9.75C8.09315 31.5 6.75 30.1569 6.75 28.5V7.5Z" fill="#DCEAFC"/>
<path d="M15.375 12.375C15.375 10.9253 16.5503 9.75 18 9.75C19.4497 9.75 20.625 10.9253 20.625 12.375C20.625 13.8247 19.4497 15 18 15C16.5503 15 15.375 13.8247 15.375 12.375Z" fill="#0168FE"/>
<path d="M12.75 19.8947C12.75 17.6057 14.6057 15.75 16.8947 15.75H19.1053C21.3943 15.75 23.25 17.6057 23.25 19.8947C23.25 20.5052 22.7552 21 22.1447 21H13.8553C13.2448 21 12.75 20.5052 12.75 19.8947Z" fill="#0168FE"/>
<path d="M12 24.9375C12 24.4197 12.4197 24 12.9375 24H23.0625C23.5803 24 24 24.4197 24 24.9375C24 25.4553 23.5803 25.875 23.0625 25.875H12.9375C12.4197 25.875 12 25.4553 12 24.9375Z" fill="#8DADFF"/>
</svg>
