<svg width="24" height="24" viewBox="0 0 24 24" fill="none" xmlns="http://www.w3.org/2000/svg">
<path d="M16 7C16 9.20914 14.2091 11 12 11C9.79086 11 8 9.20914 8 7C8 4.79086 9.79086 3 12 3C14.2091 3 16 4.79086 16 7Z" fill="#2BC9C3"/>
<path d="M3.33325 19.2796C3.33325 15.4431 6.60044 12.333 10.6307 12.333H13.3691C17.3994 12.333 20.6666 15.4431 20.6666 19.2796C20.6666 19.6281 20.4922 19.9526 20.1617 20.1026C19.2104 20.5343 16.8016 21.333 11.9999 21.333C7.19819 21.333 4.78945 20.5343 3.8381 20.1026C3.50762 19.9526 3.33325 19.6281 3.33325 19.2796Z" fill="#2BC9C3"/>
</svg>
