<svg width="36" height="37" viewBox="0 0 36 37" fill="none" xmlns="http://www.w3.org/2000/svg">
<path d="M22 29.5C22 27.2909 20.2091 25.5 18 25.5C15.7909 25.5 14 27.2909 14 29.5C14 31.7091 15.7909 33.5 18 33.5C20.2091 33.5 22 31.7091 22 29.5Z" fill="#F3A735"/>
<path fill-rule="evenodd" clip-rule="evenodd" d="M18 3.5C19.1046 3.5 20 4.39543 20 5.5C20 5.58092 19.9952 5.66072 19.9859 5.73913C22.1189 6.14246 24.1005 7.18982 25.6577 8.76777C27.69 10.8271 28.8329 13.6216 28.8329 16.5369V23.0003L31.4411 25.9076C31.7204 26.2195 31.9059 26.6086 31.9724 27.0261C32.039 27.4436 31.9844 27.8716 31.8157 28.2578C31.6471 28.6439 31.3719 28.9711 31.0245 29.2004C30.6772 29.4297 30.2723 29.5515 29.859 29.5517L6.14192 29.553C5.7286 29.5528 5.32284 29.431 4.97552 29.2018C4.62814 28.9725 4.35294 28.6453 4.18427 28.2591C4.01558 27.8729 3.96103 27.4449 4.02757 27.0274C4.09411 26.6099 4.2787 26.2218 4.558 25.9099L7.16707 23.0004V16.5369C7.16707 13.6216 8.31 10.8271 10.3423 8.76777C11.8995 7.18982 13.8811 6.14246 16.0141 5.73913C16.0048 5.66072 16 5.58092 16 5.5C16 4.39543 16.8954 3.5 18 3.5Z" fill="#FFC737"/>
</svg>
