<svg width="36" height="36" viewBox="0 0 36 36" fill="none" xmlns="http://www.w3.org/2000/svg">
<path d="M29 14.9609C29 16.6178 27.6569 17.9609 26 17.9609C24.3431 17.9609 23 16.6178 23 14.9609C23 13.3041 24.3431 11.9609 26 11.9609C27.6569 11.9609 29 13.3041 29 14.9609Z" fill="#A1B3C9"/>
<path d="M8 14.96C8 16.893 6.433 18.46 4.5 18.46C2.567 18.46 1 16.893 1 14.96C1 13.027 2.567 11.46 4.5 11.46C6.433 11.46 8 13.027 8 14.96Z" fill="#BBCEE7"/>
<path d="M5.8501 19.5532H11.8501L14.6109 33.3571C14.7346 33.9759 14.2613 34.5532 13.6303 34.5532H9.6699C9.19322 34.5532 8.78281 34.2168 8.68932 33.7493L5.8501 19.5532Z" fill="#DCEAFC"/>
<path d="M12.5 6.96335C12.5 6.96335 14.9936 7.13852 16.5595 6.88026C18.4805 6.56342 22.6811 4.1293 25.1283 2.63277C25.9403 2.13625 27 2.71757 27 3.66929V26.2531C27 27.2043 25.9412 27.7857 25.1292 27.2901C22.6822 25.7964 18.4808 23.3661 16.5595 23.0492C14.9936 22.7909 12.5 22.961 12.5 22.961V6.96335Z" fill="#DCEAFC"/>
<path d="M3.5 10.9609C3.5 8.7518 5.29086 6.96094 7.5 6.96094H12.5V22.9609H7.5C5.29086 22.9609 3.5 21.1701 3.5 18.9609V10.9609Z" fill="#A1B3C9"/>
<path d="M30.845 14.9609C30.845 14.4777 31.2367 14.0859 31.72 14.0859H34.47C34.9532 14.0859 35.345 14.4777 35.345 14.9609C35.345 15.4442 34.9532 15.8359 34.47 15.8359H31.72C31.2367 15.8359 30.845 15.4442 30.845 14.9609Z" fill="#00CBC1"/>
<path d="M29.4375 10.4524C29.1959 10.0338 29.3393 9.4987 29.7578 9.25708L32.1393 7.88208C32.5578 7.64046 33.093 7.78385 33.3346 8.20235C33.5762 8.62086 33.4328 9.156 33.0143 9.39762L30.6328 10.7726C30.2143 11.0142 29.6791 10.8709 29.4375 10.4524Z" fill="#00CBC1"/>
<path d="M29.4375 19.4695C29.1959 19.888 29.3393 20.4232 29.7578 20.6648L32.1393 22.0398C32.5578 22.2814 33.093 22.138 33.3346 21.7195C33.5762 21.301 33.4328 20.7659 33.0143 20.5243L30.6328 19.1493C30.2143 18.9076 29.6791 19.051 29.4375 19.4695Z" fill="#00CBC1"/>
</svg>
