<svg width="36" height="36" viewBox="0 0 36 36" fill="none" xmlns="http://www.w3.org/2000/svg">
<path d="M22 29C22 26.7909 20.2091 25 18 25C15.7909 25 14 26.7909 14 29C14 31.2091 15.7909 33 18 33C20.2091 33 22 31.2091 22 29Z" fill="#F3A735"/>
<path fill-rule="evenodd" clip-rule="evenodd" d="M18 3C19.1046 3 20 3.89543 20 5C20 5.08092 19.9952 5.16072 19.9859 5.23913C22.1189 5.64246 24.1005 6.68982 25.6577 8.26777C27.69 10.3271 28.8329 13.1216 28.8329 16.0369V22.5003L31.4411 25.4076C31.7204 25.7195 31.9059 26.1086 31.9724 26.5261C32.039 26.9436 31.9844 27.3716 31.8157 27.7578C31.6471 28.1439 31.3719 28.4711 31.0245 28.7004C30.6772 28.9297 30.2723 29.0515 29.859 29.0517L6.14192 29.053C5.7286 29.0528 5.32284 28.931 4.97552 28.7018C4.62814 28.4725 4.35294 28.1453 4.18427 27.7591C4.01558 27.3729 3.96103 26.9449 4.02757 26.5274C4.09411 26.1099 4.2787 25.7218 4.558 25.4099L7.16707 22.5004V16.0369C7.16707 13.1216 8.31 10.3271 10.3423 8.26777C11.8995 6.68982 13.8811 5.64246 16.0141 5.23913C16.0048 5.16072 16 5.08092 16 5C16 3.89543 16.8954 3 18 3Z" fill="#FFC737"/>
</svg>
