<svg width="36" height="36" viewBox="0 0 36 36" fill="none" xmlns="http://www.w3.org/2000/svg">
<path d="M10 12L23 6L23 30L10 24L10 12Z" fill="#DCEAFC"/>
<rect x="22" y="4" width="6" height="28" rx="3" fill="#AFC3DC"/>
<path d="M3 14.6667C3 13.1939 4.19391 12 5.66667 12H10V24H5.66667C4.19391 24 3 22.8061 3 21.3333V14.6667Z" fill="#2BC9C3"/>
<path d="M31.586 14.5352C31.1955 14.1447 31.1955 13.5115 31.586 13.121L33.0002 11.7068C33.3908 11.3163 34.0239 11.3163 34.4144 11.7068C34.805 12.0973 34.805 12.7305 34.4144 13.121L33.0002 14.5352C32.6097 14.9258 31.9765 14.9258 31.586 14.5352Z" fill="#4E627D"/>
<path d="M31.586 21.828C31.1955 22.2186 31.1955 22.8517 31.586 23.2423L33.0002 24.6565C33.3908 25.047 34.0239 25.047 34.4144 24.6565C34.805 24.266 34.805 23.6328 34.4144 23.2423L33.0002 21.828C32.6097 21.4375 31.9765 21.4375 31.586 21.828Z" fill="#4E627D"/>
<path d="M31 18.1211C31 17.5688 31.4477 17.1211 32 17.1211H34C34.5523 17.1211 35 17.5688 35 18.1211C35 18.6734 34.5523 19.1211 34 19.1211H32C31.4477 19.1211 31 18.6734 31 18.1211Z" fill="#4E627D"/>
</svg>
