<svg width="36" height="36" viewBox="0 0 36 36" fill="none" xmlns="http://www.w3.org/2000/svg">
<path d="M3 26C3 25.4477 3.44772 25 4 25H8C8.55228 25 9 25.4477 9 26C9 26.5523 8.55228 27 8 27H4C3.44772 27 3 26.5523 3 26Z" fill="#BDBDBD"/>
<path d="M11 26C11 25.4477 11.4477 25 12 25H16C16.5523 25 17 25.4477 17 26C17 26.5523 16.5523 27 16 27H12C11.4477 27 11 26.5523 11 26Z" fill="#BDBDBD"/>
<path d="M19 26C19 25.4477 19.4477 25 20 25H24C24.5523 25 25 25.4477 25 26C25 26.5523 24.5523 27 24 27H20C19.4477 27 19 26.5523 19 26Z" fill="#BDBDBD"/>
<path d="M27 26C27 25.4477 27.4477 25 28 25H32C32.5523 25 33 25.4477 33 26C33 26.5523 32.5523 27 32 27H28C27.4477 27 27 26.5523 27 26Z" fill="#BDBDBD"/>
<path d="M0 12C0 11.4477 0.447715 11 1 11H35C35.5523 11 36 11.4477 36 12V22C36 22.5523 35.5523 23 35 23H1C0.447716 23 0 22.5523 0 22V12Z" fill="white"/>
<path d="M13.2432 13.9984C13.2432 13.6671 13.5118 13.3984 13.8432 13.3984C14.1745 13.3984 14.4432 13.6671 14.4432 13.9984V19.9984C14.4432 20.3298 14.1745 20.5984 13.8432 20.5984C13.5118 20.5984 13.2432 20.3298 13.2432 19.9984V13.9984Z" fill="#20C7BF"/>
<path d="M16.7455 17.9827C17.0325 18.1484 17.1308 18.5154 16.9651 18.8023C16.7995 19.0893 16.4325 19.1876 16.1455 19.0219L10.9494 16.0219C10.6624 15.8563 10.5641 15.4893 10.7298 15.2023C10.8954 14.9154 11.2624 14.817 11.5494 14.9827L16.7455 17.9827Z" fill="#20C7BF"/>
<path d="M10.9503 17.9827C10.6633 18.1484 10.565 18.5154 10.7307 18.8023C10.8963 19.0893 11.2633 19.1876 11.5503 19.0219L16.7464 16.0219C17.0334 15.8563 17.1317 15.4893 16.966 15.2023C16.8004 14.9154 16.4334 14.817 16.1464 14.9827L10.9503 17.9827Z" fill="#20C7BF"/>
<path d="M5.21191 13.9984C5.21191 13.6671 5.48054 13.3984 5.81191 13.3984C6.14329 13.3984 6.41191 13.6671 6.41191 13.9984V19.9984C6.41191 20.3298 6.14329 20.5984 5.81191 20.5984C5.48054 20.5984 5.21191 20.3298 5.21191 19.9984V13.9984Z" fill="#20C7BF"/>
<path d="M8.71427 17.9827C9.00125 18.1484 9.09957 18.5154 8.93389 18.8023C8.7682 19.0893 8.40125 19.1876 8.11427 19.0219L2.91812 16.0219C2.63114 15.8563 2.53282 15.4893 2.6985 15.2023C2.86419 14.9154 3.23114 14.817 3.51812 14.9827L8.71427 17.9827Z" fill="#20C7BF"/>
<path d="M2.91903 17.9827C2.63205 18.1484 2.53373 18.5154 2.69941 18.8023C2.8651 19.0893 3.23205 19.1876 3.51903 19.0219L8.71518 16.0219C9.00216 15.8563 9.10048 15.4893 8.9348 15.2023C8.76911 14.9154 8.40216 14.817 8.11518 14.9827L2.91903 17.9827Z" fill="#20C7BF"/>
<path d="M21.2822 13.9984C21.2822 13.6671 21.5509 13.3984 21.8822 13.3984C22.2136 13.3984 22.4822 13.6671 22.4822 13.9984V19.9984C22.4822 20.3298 22.2136 20.5984 21.8822 20.5984C21.5509 20.5984 21.2822 20.3298 21.2822 19.9984V13.9984Z" fill="#20C7BF"/>
<path d="M24.7846 17.9827C25.0716 18.1484 25.1699 18.5154 25.0042 18.8023C24.8385 19.0893 24.4716 19.1876 24.1846 19.0219L18.9884 16.0219C18.7015 15.8563 18.6031 15.4893 18.7688 15.2023C18.9345 14.9154 19.3015 14.817 19.5884 14.9827L24.7846 17.9827Z" fill="#20C7BF"/>
<path d="M18.9893 17.9827C18.7024 18.1484 18.604 18.5154 18.7697 18.8023C18.9354 19.0893 19.3024 19.1876 19.5893 19.0219L24.7855 16.0219C25.0725 15.8563 25.1708 15.4893 25.0051 15.2023C24.8394 14.9154 24.4725 14.817 24.1855 14.9827L18.9893 17.9827Z" fill="#20C7BF"/>
<path d="M29.3135 13.9984C29.3135 13.6671 29.5821 13.3984 29.9135 13.3984C30.2448 13.3984 30.5135 13.6671 30.5135 13.9984V19.9984C30.5135 20.3298 30.2448 20.5984 29.9135 20.5984C29.5821 20.5984 29.3135 20.3298 29.3135 19.9984V13.9984Z" fill="#20C7BF"/>
<path d="M32.8158 17.9827C33.1028 18.1484 33.2011 18.5154 33.0354 18.8023C32.8698 19.0893 32.5028 19.1876 32.2158 19.0219L27.0197 16.0219C26.7327 15.8563 26.6344 15.4893 26.8001 15.2023C26.9658 14.9154 27.3327 14.817 27.6197 14.9827L32.8158 17.9827Z" fill="#20C7BF"/>
<path d="M27.0206 17.9827C26.7336 18.1484 26.6353 18.5154 26.801 18.8023C26.9667 19.0893 27.3336 19.1876 27.6206 19.0219L32.8167 16.0219C33.1037 15.8563 33.202 15.4893 33.0364 15.2023C32.8707 14.9154 32.5037 14.817 32.2167 14.9827L27.0206 17.9827Z" fill="#20C7BF"/>
</svg>
