<svg width="36" height="36" viewBox="0 0 36 36" fill="none" xmlns="http://www.w3.org/2000/svg">
<rect x="4" y="4" width="28" height="28" fill="#FF3A4A"/>
<g clip-path="url(#clip0_2301_235356)">
<path d="M10.1499 14.0677C8.62049 14.0677 8 14.0794 8 14.0794V21.9266H9.23297V19.5304H10.3394C10.3394 19.5304 12.0545 19.5145 12.0545 17.8308V15.7711C12.0545 15.7711 12.2364 14.0677 10.1494 14.0677M10.8685 17.5644C10.8781 17.6583 10.8666 17.7532 10.8346 17.8421C10.8026 17.931 10.7511 18.0118 10.6838 18.0786C10.6164 18.1453 10.5349 18.1964 10.4451 18.2281C10.3554 18.2597 10.2597 18.2712 10.1649 18.2617H9.23297V15.27C9.23297 15.27 9.46978 15.2816 10.1697 15.2816C10.8696 15.2816 10.869 15.9747 10.869 15.9747L10.8685 17.5644Z" fill="white"/>
<path d="M16.0021 14.0677H14.1173L12.7261 21.9266H14.0539L14.3068 20.5327H15.8122L16.065 21.9266H17.3929L16.0021 14.0677ZM14.4332 19.358L15.0596 15.6913L15.6857 19.358H14.4332Z" fill="white"/>
<path d="M21.258 16.4131H22.5577C22.4853 15.8928 22.927 14.1655 20.661 14.0007C17.9958 13.9453 17.876 16.5313 19.0328 17.6974C19.5703 18.3082 21.2142 18.9662 21.23 19.8903C21.3449 21.227 19.7227 21.0705 19.6967 20.1165V19.5927H18.3694C18.3848 20.0248 18.3053 20.5657 18.5385 20.9484C18.6914 21.1981 19.0648 21.9266 20.0606 21.9735C21.5306 22.1586 22.632 21.3421 22.5586 19.9858C22.5038 19.4316 22.7737 19.2624 21.6572 18.1508C20.7402 17.3519 19.6808 16.929 19.6808 16.0205C19.6778 14.8271 21.1907 14.8395 21.2457 15.8482L21.2576 16.4128" fill="white"/>
<path d="M26.6957 16.4131H27.9955C27.923 15.8928 28.3647 14.1655 26.0987 14.0007C23.4336 13.9453 23.3137 16.5313 24.4705 17.6974C25.008 18.3082 26.6519 18.9662 26.6678 19.8903C26.7826 21.227 25.1604 21.0705 25.1344 20.1165V19.5927H23.8067C23.8222 20.0248 23.7426 20.5657 23.9759 20.9484C24.1288 21.1981 24.5022 21.9266 25.498 21.9735C26.968 22.1586 28.0694 21.3421 27.996 19.9858C27.9412 19.4316 28.2111 19.2624 27.0946 18.1508C26.1776 17.3519 25.1182 16.929 25.1182 16.0205C25.1152 14.8271 26.6281 14.8395 26.6831 15.8482L26.695 16.4128" fill="white"/>
</g>
<defs>
<clipPath id="clip0_2301_235356">
<rect width="20" height="8" fill="white" transform="translate(8 14)"/>
</clipPath>
</defs>
</svg>
