<svg width="36" height="36" viewBox="0 0 36 36" fill="none" xmlns="http://www.w3.org/2000/svg">
<rect x="3" y="25" width="6" height="2" rx="1" fill="#BDBDBD"/>
<rect x="11" y="25" width="6" height="2" rx="1" fill="#BDBDBD"/>
<rect x="19" y="25" width="6" height="2" rx="1" fill="#BDBDBD"/>
<rect x="27" y="25" width="6" height="2" rx="1" fill="#BDBDBD"/>
<rect y="11" width="36" height="12" rx="1" fill="white"/>
<rect x="13.2441" y="13.3984" width="1.2" height="7.2" rx="0.6" fill="#20C7BF"/>
<rect x="17.2656" y="18.2828" width="1.2" height="7.2" rx="0.6" transform="rotate(120 17.2656 18.2828)" fill="#20C7BF"/>
<rect width="1.2" height="7.2" rx="0.6" transform="matrix(0.5 0.866025 0.866025 -0.5 10.4316 18.2828)" fill="#20C7BF"/>
<rect x="5.21289" y="13.3984" width="1.2" height="7.2" rx="0.6" fill="#20C7BF"/>
<rect x="9.23438" y="18.2828" width="1.2" height="7.2" rx="0.6" transform="rotate(120 9.23438 18.2828)" fill="#20C7BF"/>
<rect width="1.2" height="7.2" rx="0.6" transform="matrix(0.5 0.866025 0.866025 -0.5 2.40039 18.2828)" fill="#20C7BF"/>
<rect x="21.2832" y="13.3984" width="1.2" height="7.2" rx="0.6" fill="#20C7BF"/>
<rect x="25.3047" y="18.2828" width="1.2" height="7.2" rx="0.6" transform="rotate(120 25.3047 18.2828)" fill="#20C7BF"/>
<rect width="1.2" height="7.2" rx="0.6" transform="matrix(0.5 0.866025 0.866025 -0.5 18.4707 18.2828)" fill="#20C7BF"/>
<rect x="29.3145" y="13.3984" width="1.2" height="7.2" rx="0.6" fill="#20C7BF"/>
<rect x="33.3359" y="18.2828" width="1.2" height="7.2" rx="0.6" transform="rotate(120 33.3359 18.2828)" fill="#20C7BF"/>
<rect width="1.2" height="7.2" rx="0.6" transform="matrix(0.5 0.866025 0.866025 -0.5 26.502 18.2828)" fill="#20C7BF"/>
</svg>
