<svg width="24" height="24" viewBox="0 0 24 24" fill="none" xmlns="http://www.w3.org/2000/svg">
<path d="M22 12C22 17.5228 17.5228 22 12 22C6.47715 22 2 17.5228 2 12C2 6.47715 6.47715 2 12 2C17.5228 2 22 6.47715 22 12Z" fill="#0168FE"/>
<path fill-rule="evenodd" clip-rule="evenodd" d="M7.74957 8.54305C8.14002 8.40477 8.56865 8.60919 8.70693 8.99964L10.125 13.0035L11.543 8.99964C11.649 8.70018 11.9323 8.50002 12.25 8.50002C12.5676 8.50002 12.8509 8.70018 12.9569 8.99964L14.375 13.0035L15.793 8.99964C15.9313 8.60919 16.3599 8.40477 16.7503 8.54305C17.1408 8.68133 17.3452 9.10996 17.2069 9.50041L15.0819 15.5004C14.9759 15.7999 14.6926 16 14.375 16C14.0573 16 13.774 15.7999 13.668 15.5004L12.25 11.4966L10.8319 15.5004C10.7259 15.7999 10.4426 16 10.125 16C9.80727 16 9.52405 15.7999 9.41799 15.5004L7.29299 9.50041C7.15471 9.10996 7.35913 8.68133 7.74957 8.54305Z" fill="white"/>
<path fill-rule="evenodd" clip-rule="evenodd" d="M6 12C6 11.5858 6.33579 11.25 6.75 11.25L8.25 11.25C8.66421 11.25 9 11.5858 9 12C9 12.4142 8.66421 12.75 8.25 12.75L6.75 12.75C6.33579 12.75 6 12.4142 6 12Z" fill="white"/>
<path fill-rule="evenodd" clip-rule="evenodd" d="M15.5 12C15.5 11.5858 15.8358 11.25 16.25 11.25L17.75 11.25C18.1642 11.25 18.5 11.5858 18.5 12C18.5 12.4142 18.1642 12.75 17.75 12.75L16.25 12.75C15.8358 12.75 15.5 12.4142 15.5 12Z" fill="white"/>
</svg>
