<svg width="36" height="36" viewBox="0 0 36 36" fill="none" xmlns="http://www.w3.org/2000/svg">
<path d="M9.42001 2.02344H20L29.6461 11.152V27.7059C29.6512 28.6182 29.2938 29.4952 28.6525 30.1441C28.0112 30.7929 27.1384 31.1606 26.2261 31.1662H9.42001C8.5077 31.1606 7.63495 30.7929 6.99363 30.1441C6.35231 29.4952 5.99493 28.6182 6.00005 27.7059V5.48374C5.99493 4.57142 6.35231 3.69442 6.99363 3.04554C7.63495 2.39666 8.5077 2.02901 9.42001 2.02344Z" fill="white"/>
<path d="M20.0625 2L29.7548 11.1538H20.0625V2Z" fill="#D8D8D8"/>
<path d="M11.5 16H13.2581C14.4373 16 15.3562 16.3784 15.3562 17.5676C15.3562 18.7095 14.4373 19.223 13.287 19.223H12.5708V21H11.5V16ZM13.2147 18.4324C13.9454 18.4324 14.3071 18.1419 14.3071 17.5676C14.3071 16.9797 13.9237 16.7905 13.1785 16.7905H12.5708V18.4324H13.2147Z" fill="#FF5858"/>
<path d="M16.1809 16H17.6496C19.2846 16 20.2975 16.7838 20.2975 18.4797C20.2975 20.1554 19.2846 21 17.7074 21H16.1809V16ZM17.5844 20.1959C18.5901 20.1959 19.2051 19.6959 19.2051 18.4797C19.2051 17.2568 18.5901 16.7973 17.5844 16.7973H17.2516V20.1959H17.5844Z" fill="#FF5858"/>
<path d="M21.2009 16H24.5V16.8311H22.2717V18.1351H24.1744V18.973H22.2717V21H21.2009V16Z" fill="#FF5858"/>
<path d="M34.5 27.75C34.5 31.4779 31.4779 34.5 27.75 34.5C24.0221 34.5 21 31.4779 21 27.75C21 24.0221 24.0221 21 27.75 21C31.4779 21 34.5 24.0221 34.5 27.75Z" fill="#0168FE"/>
<path fill-rule="evenodd" clip-rule="evenodd" d="M27.8339 31.1522C28.0064 31.149 28.1705 31.0774 28.2901 30.9532L30.9162 28.2261C31.1652 27.9675 31.1575 27.556 30.8989 27.307C30.6403 27.058 30.2288 27.0658 29.9798 27.3243L27.8049 29.5829L25.4449 27.3073C25.1865 27.0581 24.775 27.0656 24.5259 27.324C24.2767 27.5824 24.2841 27.9939 24.5426 28.2431L27.3707 30.9702C27.4949 31.09 27.6615 31.1554 27.8339 31.1522Z" fill="white"/>
<path fill-rule="evenodd" clip-rule="evenodd" d="M27.7203 30.7539C28.0793 30.7539 28.3703 30.4629 28.3703 30.1039L28.3703 24.6496C28.3703 24.2907 28.0793 23.9996 27.7203 23.9996C27.3613 23.9996 27.0703 24.2907 27.0703 24.6496L27.0703 30.1039C27.0703 30.4629 27.3613 30.7539 27.7203 30.7539Z" fill="white"/>
</svg>
