<svg width="36" height="36" viewBox="0 0 36 36" fill="none" xmlns="http://www.w3.org/2000/svg">
<path fill-rule="evenodd" clip-rule="evenodd" d="M10 4C8.34315 4 7 5.34315 7 7V29C7 30.6569 8.34315 32 10 32H26C27.6569 32 29 30.6569 29 29V12L21 4H10Z" fill="#DCEAFC"/>
<path fill-rule="evenodd" clip-rule="evenodd" d="M23 12H29L21 4V10C21 11.1046 21.8954 12 23 12Z" fill="#B8CAE1"/>
<path d="M34.0002 26.9995C34.0002 30.8655 30.8662 33.9995 27.0002 33.9995C23.1343 33.9995 20.0002 30.8655 20.0002 26.9995C20.0002 23.1335 23.1343 19.9995 27.0002 19.9995C30.8662 19.9995 34.0002 23.1335 34.0002 26.9995Z" fill="#2AD6CE"/>
<path fill-rule="evenodd" clip-rule="evenodd" d="M27 29.25C26.5858 29.25 26.25 28.9142 26.25 28.5V24C26.25 23.5858 26.5858 23.25 27 23.25C27.4142 23.25 27.75 23.5858 27.75 24V28.5C27.75 28.9142 27.4142 29.25 27 29.25Z" fill="white"/>
<path fill-rule="evenodd" clip-rule="evenodd" d="M23.9697 27.2197C24.2626 26.9268 24.7374 26.9268 25.0303 27.2197L27 29.1893L28.9697 27.2197C29.2626 26.9268 29.7374 26.9268 30.0303 27.2197C30.3232 27.5126 30.3232 27.9874 30.0303 28.2803L27.5303 30.7803C27.2374 31.0732 26.7626 31.0732 26.4697 30.7803L23.9697 28.2803C23.6768 27.9874 23.6768 27.5126 23.9697 27.2197Z" fill="white"/>
<path d="M10.75 16H12.7109C14.0263 16 15.0511 16.4541 15.0511 17.8811C15.0511 19.2514 14.0263 19.8676 12.7432 19.8676H11.9443V22H10.75V16ZM12.6625 18.9189C13.4775 18.9189 13.881 18.5703 13.881 17.8811C13.881 17.1757 13.4533 16.9486 12.6222 16.9486H11.9443V18.9189H12.6625Z" fill="#FF5858"/>
<path d="M15.971 16H17.6091C19.4329 16 20.5626 16.9405 20.5626 18.9757C20.5626 20.9865 19.4329 22 17.6737 22H15.971V16ZM17.5365 21.0351C18.6582 21.0351 19.3441 20.4351 19.3441 18.9757C19.3441 17.5081 18.6582 16.9568 17.5365 16.9568H17.1653V21.0351H17.5365Z" fill="#FF5858"/>
<path d="M21.5702 16H25.25V16.9973H22.7646V18.5622H24.8869V19.5676H22.7646V22H21.5702V16Z" fill="#FF5858"/>
</svg>
