<svg width="36" height="36" viewBox="0 0 36 36" fill="none" xmlns="http://www.w3.org/2000/svg">
<path fill-rule="evenodd" clip-rule="evenodd" d="M9 3C7.34315 3 6 4.34315 6 6V30C6 31.6569 7.34315 33 9 33H27C28.6569 33 30 31.6569 30 30V11L22 3H9Z" fill="#EAEAEA"/>
<path fill-rule="evenodd" clip-rule="evenodd" d="M24 11H30L22 3V9C22 10.1046 22.8954 11 24 11Z" fill="#D1D1D1"/>
<path d="M10.8196 17H12.7805C14.0959 17 15.1207 17.4541 15.1207 18.8811C15.1207 20.2514 14.0959 20.8676 12.8128 20.8676H12.0139V23H10.8196V17ZM12.7321 19.9189C13.5471 19.9189 13.9506 19.5703 13.9506 18.8811C13.9506 18.1757 13.5229 17.9486 12.6917 17.9486H12.0139V19.9189H12.7321Z" fill="#BFBFBF"/>
<path d="M16.0406 17H17.6787C19.5024 17 20.6322 17.9405 20.6322 19.9757C20.6322 21.9865 19.5024 23 17.7433 23H16.0406V17ZM17.6061 22.0351C18.7278 22.0351 19.4137 21.4351 19.4137 19.9757C19.4137 18.5081 18.7278 17.9568 17.6061 17.9568H17.2349V22.0351H17.6061Z" fill="#BFBFBF"/>
<path d="M21.6398 17H25.3196V17.9973H22.8341V19.5622H24.9564V20.5676H22.8341V23H21.6398V17Z" fill="#BFBFBF"/>
</svg>
