<svg width="36" height="36" viewBox="0 0 36 36" fill="none" xmlns="http://www.w3.org/2000/svg">
<path d="M8.42001 2.02332H21.0602L30.6461 11.1519V29.7057C30.6512 30.618 30.2938 31.4951 29.6525 32.1439C29.0112 32.7928 28.1384 33.1605 27.2261 33.166H8.42001C7.5077 33.1605 6.63495 32.7928 5.99363 32.1439C5.35231 31.4951 4.99493 30.618 5.00005 29.7057V5.48361C4.99493 4.5713 5.35231 3.6943 5.99363 3.04542C6.63495 2.39653 7.5077 2.02889 8.42001 2.02332Z" fill="#DDDDDD"/>
<path d="M21.0625 2L30.7548 11.1538H21.0625V2Z" fill="#AEAEAE"/>
<path d="M10.0547 16.6133H12.1909C13.6238 16.6133 14.7402 17.1056 14.7402 18.6528C14.7402 20.1384 13.6238 20.8065 12.226 20.8065H11.3557V23.1185H10.0547V16.6133ZM12.1381 19.778C13.026 19.778 13.4655 19.4 13.4655 18.6528C13.4655 17.8879 12.9996 17.6418 12.0942 17.6418H11.3557V19.778H12.1381Z" fill="#FF5858"/>
<path d="M15.7423 16.6133H17.5268C19.5135 16.6133 20.7443 17.633 20.7443 19.8395C20.7443 22.0196 19.5135 23.1185 17.5971 23.1185H15.7423V16.6133ZM17.4477 22.0724C18.6696 22.0724 19.4168 21.4219 19.4168 19.8395C19.4168 18.2484 18.6696 17.6506 17.4477 17.6506H17.0433V22.0724H17.4477Z" fill="#FF5858"/>
<path d="M21.8419 16.6133H25.8506V17.6946H23.143V19.3912H25.455V20.4812H23.143V23.1185H21.8419V16.6133Z" fill="#FF5858"/>
</svg>
