<svg width="36" height="36" viewBox="0 0 36 36" fill="none" xmlns="http://www.w3.org/2000/svg">
<path d="M14.4357 5.22365C15.6039 3.29956 18.3962 3.29956 19.5644 5.22364L31.2333 24.4431C32.4472 26.4423 31.0079 29 28.669 29H5.3311C2.99219 29 1.55289 26.4423 2.76673 24.4431L14.4357 5.22365Z" fill="#FFC737"/>
<path d="M16 12C16 11.4477 16.4477 11 17 11C17.5523 11 18 11.4477 18 12V18C18 18.5523 17.5523 19 17 19C16.4477 19 16 18.5523 16 18V12Z" fill="white"/>
<path d="M15.75 21.75C15.75 21.0596 16.3096 20.5 17 20.5C17.6904 20.5 18.25 21.0596 18.25 21.75C18.25 22.4404 17.6904 23 17 23C16.3096 23 15.75 22.4404 15.75 21.75Z" fill="white"/>
<path d="M36 26C36 30.9706 31.9706 35 27 35C22.0294 35 18 30.9706 18 26C18 21.0294 22.0294 17 27 17C31.9706 17 36 21.0294 36 26Z" fill="#0168FE"/>
<path fill-rule="evenodd" clip-rule="evenodd" d="M23.1892 23.286C23.5835 23.1592 24.0059 23.3762 24.1327 23.7705L25.104 26.7924L26.4273 23.7046C26.5455 23.4288 26.8167 23.25 27.1167 23.25C27.4167 23.25 27.6879 23.4288 27.8061 23.7046L29.1294 26.7924L30.1007 23.7705C30.2275 23.3762 30.6499 23.1592 31.0443 23.286C31.4386 23.4128 31.6555 23.8352 31.5288 24.2295L29.9439 29.1603C29.8482 29.4581 29.5776 29.6652 29.2651 29.6799C28.9526 29.6946 28.6638 29.5138 28.5405 29.2262L27.1167 25.904L25.6929 29.2262C25.5697 29.5138 25.2809 29.6946 24.9683 29.6799C24.6558 29.6652 24.3853 29.4581 24.2895 29.1603L22.7046 24.2295C22.5779 23.8352 22.7948 23.4128 23.1892 23.286Z" fill="white"/>
<path d="M21.2002 26.2693C21.2002 25.833 21.5539 25.4793 21.9902 25.4793H23.3686C23.8049 25.4793 24.1586 25.833 24.1586 26.2693C24.1586 26.7057 23.8049 27.0594 23.3686 27.0594H21.9902C21.5539 27.0594 21.2002 26.7057 21.2002 26.2693Z" fill="white"/>
<path d="M29.8289 26.2693C29.8289 25.833 30.1826 25.4793 30.6189 25.4793H31.9973C32.4336 25.4793 32.7873 25.833 32.7873 26.2693C32.7873 26.7057 32.4336 27.0594 31.9973 27.0594H30.6189C30.1826 27.0594 29.8289 26.7057 29.8289 26.2693Z" fill="white"/>
</svg>
