<svg width="36" height="36" viewBox="0 0 36 36" fill="none" xmlns="http://www.w3.org/2000/svg">
<path d="M15.466 6.93051C16.6204 5.02316 19.3797 5.02316 20.534 6.93051L32.0649 25.9827C33.2644 27.9646 31.8421 30.5 29.5309 30.5H6.46913C4.1579 30.5 2.73563 27.9646 3.93511 25.9827L15.466 6.93051Z" fill="#F64A4A"/>
<path d="M16.5 25C16.5 24.1716 17.1716 23.5 18 23.5C18.8284 23.5 19.5 24.1716 19.5 25C19.5 25.8284 18.8284 26.5 18 26.5C17.1716 26.5 16.5 25.8284 16.5 25Z" fill="white"/>
<path d="M16.75 14.25C16.75 13.5596 17.3096 13 18 13C18.6904 13 19.25 13.5596 19.25 14.25V20.75C19.25 21.4404 18.6904 22 18 22C17.3096 22 16.75 21.4404 16.75 20.75V14.25Z" fill="white"/>
</svg>
