<svg width="36" height="37" viewBox="0 0 36 37" fill="none" xmlns="http://www.w3.org/2000/svg">
<path d="M6.75 8C6.75 6.34315 8.09315 5 9.75 5H26.25C27.9069 5 29.25 6.34315 29.25 8V29C29.25 30.6569 27.9069 32 26.25 32H9.75C8.09315 32 6.75 30.6569 6.75 29V8Z" fill="#DCEAFC"/>
<path d="M15.375 12.875C15.375 11.4253 16.5503 10.25 18 10.25C19.4497 10.25 20.625 11.4253 20.625 12.875C20.625 14.3247 19.4497 15.5 18 15.5C16.5503 15.5 15.375 14.3247 15.375 12.875Z" fill="#0168FE"/>
<path d="M12.75 20.3947C12.75 18.1057 14.6057 16.25 16.8947 16.25H19.1053C21.3943 16.25 23.25 18.1057 23.25 20.3947C23.25 21.0052 22.7552 21.5 22.1447 21.5H13.8553C13.2448 21.5 12.75 21.0052 12.75 20.3947Z" fill="#0168FE"/>
<path d="M12 25.4375C12 24.9197 12.4197 24.5 12.9375 24.5H23.0625C23.5803 24.5 24 24.9197 24 25.4375C24 25.9553 23.5803 26.375 23.0625 26.375H12.9375C12.4197 26.375 12 25.9553 12 25.4375Z" fill="#8DADFF"/>
<path d="M31.3647 12.942C31.804 12.5026 32.5163 12.5026 32.9557 12.942L34.1723 14.1586C34.6116 14.598 34.6116 15.3103 34.1723 15.7496L26.1802 23.7417C26.0509 23.871 25.8921 23.9668 25.7174 24.0209L23.0309 24.8524C22.5876 24.9472 22.203 24.5356 22.3275 24.0997L23.0957 21.4112C23.1482 21.2274 23.2467 21.06 23.3819 20.9248L31.3647 12.942Z" fill="#4E627D"/>
</svg>
