<svg width="36" height="36" viewBox="0 0 36 36" fill="none" xmlns="http://www.w3.org/2000/svg">
<path d="M23.5 11C23.5 14.0376 21.0376 16.5 18 16.5C14.9624 16.5 12.5 14.0376 12.5 11C12.5 7.96243 14.9624 5.5 18 5.5C21.0376 5.5 23.5 7.96243 23.5 11Z" fill="#5A92F4"/>
<path d="M7 27.7622C7 22.6468 11.1468 18.5 16.2622 18.5H19.7378C24.8532 18.5 29 22.6468 29 27.7622C29 28.2269 28.7787 28.6594 28.3592 28.8594C27.1517 29.4351 24.0945 30.5 18 30.5C11.9055 30.5 8.84825 29.4351 7.64076 28.8594C7.22131 28.6594 7 28.2269 7 27.7622Z" fill="#0168FE"/>
</svg>
