<svg width="40" height="40" viewBox="0 0 40 40" fill="none" xmlns="http://www.w3.org/2000/svg">
<path d="M7.5 8.33333C7.5 6.49238 8.99238 5 10.8333 5H29.1667C31.0076 5 32.5 6.49238 32.5 8.33333V31.6667C32.5 33.5076 31.0076 35 29.1667 35H10.8333C8.99238 35 7.5 33.5076 7.5 31.6667V8.33333Z" fill="white"/>
<path d="M17.0835 13.75C17.0835 12.1392 18.3893 10.8333 20.0002 10.8333C21.611 10.8333 22.9168 12.1392 22.9168 13.75C22.9168 15.3608 21.611 16.6667 20.0002 16.6667C18.3893 16.6667 17.0835 15.3608 17.0835 13.75Z" fill="#0168FE"/>
<path d="M14.1665 22.1053C14.1665 19.5618 16.2284 17.5 18.7718 17.5H21.2279C23.7713 17.5 25.8332 19.5618 25.8332 22.1053C25.8332 22.7835 25.2833 23.3333 24.6051 23.3333H15.3946C14.7163 23.3333 14.1665 22.7835 14.1665 22.1053Z" fill="#0168FE"/>
<path d="M13.3335 27.7083C13.3335 27.133 13.7999 26.6667 14.3752 26.6667H25.6252C26.2005 26.6667 26.6668 27.133 26.6668 27.7083C26.6668 28.2836 26.2005 28.75 25.6252 28.75H14.3752C13.7999 28.75 13.3335 28.2836 13.3335 27.7083Z" fill="#8DADFF"/>
<path d="M34.848 13.825C35.3362 13.3369 36.1277 13.3369 36.6158 13.825L37.9676 15.1769C38.4558 15.665 38.4558 16.4565 37.9676 16.9446L29.0876 25.8247C28.9439 25.9683 28.7674 26.0748 28.5733 26.1349L25.5883 27.0588C25.0957 27.1642 24.6684 26.7069 24.8068 26.2225L25.6603 23.2353C25.7186 23.031 25.8281 22.845 25.9783 22.6948L34.848 13.825Z" fill="#4E627D"/>
</svg>
