<svg width="36" height="36" viewBox="0 0 36 36" fill="none" xmlns="http://www.w3.org/2000/svg">
<path d="M23.6667 9.33333C23.6667 12.2789 21.2789 14.6667 18.3333 14.6667C15.3878 14.6667 13 12.2789 13 9.33333C13 6.38781 15.3878 4 18.3333 4C21.2789 4 23.6667 6.38781 23.6667 9.33333Z" fill="#FFC737"/>
<path fill-rule="evenodd" clip-rule="evenodd" d="M28.8421 12.6737C29.7403 13.5677 30.4601 14.6408 30.9435 15.835H32.816C33.4699 15.835 34 16.3651 34 17.019V21.9684C34 22.5328 33.6017 23.0188 33.0482 23.1294L31.1688 23.5053C30.4401 25.7441 28.9002 27.6167 26.896 28.776V31.2273C26.896 31.8812 26.3659 32.4113 25.712 32.4113H23.3439C22.69 32.4113 22.1599 31.8812 22.1599 31.2273L22.1599 30.0433H15.0558H15.0557V31.2273C15.0557 31.8812 14.5256 32.4113 13.8717 32.4113H11.5036C10.8497 32.4113 10.3196 31.8812 10.3196 31.2273V28.776C7.48845 27.1382 5.58368 24.0771 5.58368 20.5711V20.2961C4.92764 20.2177 4.34748 20.0098 3.8511 19.6829C3.21101 19.2614 2.78096 18.689 2.50189 18.1006C1.96114 16.9605 1.93992 15.6705 2.05916 14.8357C2.15164 14.1884 2.75138 13.7386 3.39872 13.8311C4.04607 13.9235 4.49587 14.5233 4.4034 15.1706C4.32531 15.7173 4.36328 16.4993 4.64148 17.0858C4.77188 17.3608 4.94124 17.5654 5.1534 17.7051C5.28388 17.791 5.4584 17.8709 5.69686 17.9184C6.40263 13.3845 10.324 9.9149 15.0558 9.9149H22.1599C22.4733 9.9149 22.7831 9.93012 23.0887 9.95986C23.8879 8.43171 25.4856 7.41901 27.286 7.41901H28.3505C29.0771 7.41901 29.6323 8.06741 29.5204 8.78535L28.9752 12.284C28.9533 12.4241 28.9074 12.5553 28.8421 12.6737Z" fill="#20C7BF"/>
<path d="M27 16.5C27 17.3284 26.3284 18 25.5 18C24.6716 18 24 17.3284 24 16.5C24 15.6716 24.6716 15 25.5 15C26.3284 15 27 15.6716 27 16.5Z" fill="#118883"/>
</svg>
