<svg width="36" height="36" viewBox="0 0 36 36" fill="none" xmlns="http://www.w3.org/2000/svg">
<path d="M23.6667 9.33333C23.6667 12.2789 21.2789 14.6667 18.3333 14.6667C15.3878 14.6667 13 12.2789 13 9.33333C13 6.38781 15.3878 4 18.3333 4C21.2789 4 23.6667 6.38781 23.6667 9.33333Z" fill="#FFC737"/>
<path fill-rule="evenodd" clip-rule="evenodd" d="M28.8421 12.6736C29.7403 13.5677 30.4601 14.6408 30.9435 15.8349H32.816C33.4699 15.8349 34 16.365 34 17.0189V21.9684C34 22.5328 33.6017 23.0187 33.0482 23.1294L31.1688 23.5053C30.4401 25.744 28.9002 27.6166 26.896 28.776V31.2272C26.896 31.8811 26.3659 32.4112 25.712 32.4112H23.3439C22.69 32.4112 22.1599 31.8811 22.1599 31.2272L22.1599 30.0432H15.0558H15.0557V31.2272C15.0557 31.8811 14.5256 32.4112 13.8717 32.4112H11.5036C10.8497 32.4112 10.3196 31.8811 10.3196 31.2272V28.7759C7.48845 27.1381 5.58368 24.077 5.58368 20.571V20.296C4.92764 20.2177 4.34748 20.0097 3.8511 19.6828C3.21101 19.2614 2.78096 18.689 2.50189 18.1006C1.96114 16.9604 1.93992 15.6704 2.05916 14.8357C2.15164 14.1883 2.75138 13.7385 3.39872 13.831C4.04607 13.9235 4.49587 14.5232 4.4034 15.1706C4.32531 15.7172 4.36328 16.4992 4.64148 17.0858C4.77188 17.3607 4.94124 17.5654 5.1534 17.7051C5.28388 17.791 5.4584 17.8708 5.69686 17.9183C6.40263 13.3844 10.324 9.91484 15.0558 9.91484H22.1599C22.4733 9.91484 22.7831 9.93006 23.0887 9.9598C23.8879 8.43165 25.4856 7.41895 27.286 7.41895H28.3505C29.0771 7.41895 29.6323 8.06735 29.5204 8.78529L28.9752 12.2839C28.9533 12.4241 28.9074 12.5553 28.8421 12.6736Z" fill="#20C7BF"/>
<path d="M27 16.5C27 17.3284 26.3284 18 25.5 18C24.6716 18 24 17.3284 24 16.5C24 15.6716 24.6716 15 25.5 15C26.3284 15 27 15.6716 27 16.5Z" fill="#118883"/>
</svg>
