<svg width="36" height="36" viewBox="0 0 36 36" fill="none" xmlns="http://www.w3.org/2000/svg">
<path d="M32 18C32 25.732 25.732 32 18 32C10.268 32 4 25.732 4 18C4 10.268 10.268 4 18 4C25.732 4 32 10.268 32 18Z" fill="#00CBC1"/>
<path fill-rule="evenodd" clip-rule="evenodd" d="M13.75 13.1373C13.75 12.3711 14.3711 11.75 15.1373 11.75H19.0112C21.3522 11.75 23.25 13.6478 23.25 15.9888C23.25 18.3299 21.3522 20.2276 19.0112 20.2276H16.25V23C16.25 23.6904 15.6904 24.25 15 24.25C14.3096 24.25 13.75 23.6904 13.75 23V13.1373ZM16.25 17.7276H19.0112C19.9715 17.7276 20.75 16.9491 20.75 15.9888C20.75 15.0285 19.9715 14.25 19.0112 14.25H16.25V17.7276Z" fill="white"/>
</svg>
