<svg width="36" height="37" viewBox="0 0 36 37" fill="none" xmlns="http://www.w3.org/2000/svg">
<path d="M32 18.5C32 26.232 25.732 32.5 18 32.5C10.268 32.5 4 26.232 4 18.5C4 10.768 10.268 4.5 18 4.5C25.732 4.5 32 10.768 32 18.5Z" fill="#0168FE"/>
<path fill-rule="evenodd" clip-rule="evenodd" d="M13.75 13.6373C13.75 12.8711 14.3711 12.25 15.1373 12.25H19.0112C21.3522 12.25 23.25 14.1478 23.25 16.4888C23.25 18.8299 21.3522 20.7276 19.0112 20.7276H16.25V23.5C16.25 24.1904 15.6904 24.75 15 24.75C14.3096 24.75 13.75 24.1904 13.75 23.5V13.6373ZM16.25 18.2276H19.0112C19.9715 18.2276 20.75 17.4491 20.75 16.4888C20.75 15.5285 19.9715 14.75 19.0112 14.75H16.25V18.2276Z" fill="white"/>
</svg>
