<svg width="36" height="36" viewBox="0 0 36 36" fill="none" xmlns="http://www.w3.org/2000/svg">
<path d="M6.99829 12.7109H11.9983V29.7109H6.99829V12.7109Z" fill="#BDD4F1"/>
<path d="M15.5 12.7109H20.5V29.7109H15.5V12.7109Z" fill="#BDD4F1"/>
<path d="M23.9983 12.7109H28.9983V29.7109H23.9983V12.7109Z" fill="#BDD4F1"/>
<path fill-rule="evenodd" clip-rule="evenodd" d="M19.0716 3.53209C18.42 3.10519 17.58 3.10519 16.9284 3.53209L3.89827 12.0684C2.25716 13.1436 3.01256 15.7119 4.9699 15.7119H31.0301C32.9874 15.7119 33.7428 13.1436 32.1017 12.0684L19.0716 3.53209ZM18 7.5C16.6193 7.5 15.5 8.61929 15.5 10C15.5 11.3807 16.6193 12.5 18 12.5C19.3807 12.5 20.5 11.3807 20.5 10C20.5 8.61929 19.3807 7.5 18 7.5Z" fill="#074093"/>
<path d="M4 29.7109C4 29.1587 4.44772 28.7109 5 28.7109H31C31.5523 28.7109 32 29.1587 32 29.7109V31.7109C32 32.2632 31.5523 32.7109 31 32.7109H5C4.44771 32.7109 4 32.2632 4 31.7109V29.7109Z" fill="#90A6C0"/>
<path d="M26.25 21.5714C26.25 21.2558 26.5058 21 26.8214 21H31.1786C31.4942 21 31.75 21.2558 31.75 21.5714V22.25C31.75 23.7688 30.5188 25 29 25C27.4812 25 26.25 23.7688 26.25 22.25V21.5714Z" fill="#FF9E00"/>
<path d="M23 30.5C23 27.1863 25.6863 24.5 29 24.5C32.3137 24.5 35 27.1863 35 30.5V32.1923C35 33.4668 33.9668 34.5 32.6923 34.5H25.3077C24.0332 34.5 23 33.4668 23 32.1923V30.5Z" fill="#FFC737"/>
</svg>
