<svg width="36" height="36" viewBox="0 0 36 36" fill="none" xmlns="http://www.w3.org/2000/svg">
<path d="M9 6C9 4.34315 10.3431 3 12 3H24C25.6569 3 27 4.34315 27 6V12C27 13.6569 25.6569 15 24 15H12C10.3431 15 9 13.6569 9 12V6Z" fill="white"/>
<rect x="4" y="10" width="28" height="16" rx="3" fill="#295697"/>
<path d="M9 21C9 20.4477 9.44772 20 10 20H26C26.5523 20 27 20.4477 27 21V29C27 30.6569 25.6569 32 24 32H12C10.3431 32 9 30.6569 9 29V21Z" fill="white"/>
<path d="M12 23.75C12 23.3358 12.3358 23 12.75 23H23.25C23.6642 23 24 23.3358 24 23.75C24 24.1642 23.6642 24.5 23.25 24.5H12.75C12.3358 24.5 12 24.1642 12 23.75Z" fill="#AFC3DC"/>
<path d="M12 27.75C12 27.3358 12.3358 27 12.75 27H23.25C23.6642 27 24 27.3358 24 27.75C24 28.1642 23.6642 28.5 23.25 28.5H12.75C12.3358 28.5 12 28.1642 12 27.75Z" fill="#AFC3DC"/>
<rect x="23" y="14" width="5" height="3" rx="1.5" fill="#FFC737"/>
</svg>
