<svg width="36" height="36" viewBox="0 0 36 36" fill="none" xmlns="http://www.w3.org/2000/svg">
<path d="M9 5C9 3.89543 9.89543 3 11 3H25C26.1046 3 27 3.89543 27 5V13C27 14.1046 26.1046 15 25 15H11C9.89543 15 9 14.1046 9 13V5Z" fill="#CFDAE8"/>
<path d="M4 13C4 11.3431 5.34315 10 7 10H29C30.6569 10 32 11.3431 32 13V23C32 24.6569 30.6569 26 29 26H7C5.34315 26 4 24.6569 4 23V13Z" fill="#295697"/>
<path d="M9 21C9 20.4477 9.44772 20 10 20H26C26.5523 20 27 20.4477 27 21V30C27 31.6569 25.6569 33 24 33H12C10.3431 33 9 31.6569 9 30V21Z" fill="#DCEAFC"/>
<path d="M23 15.5C23 14.6716 23.6716 14 24.5 14H26.5C27.3284 14 28 14.6716 28 15.5C28 16.3284 27.3284 17 26.5 17H24.5C23.6716 17 23 16.3284 23 15.5Z" fill="#FFC737"/>
<path d="M12 24C12 23.4477 12.4477 23 13 23H23C23.5523 23 24 23.4477 24 24C24 24.5523 23.5523 25 23 25H13C12.4477 25 12 24.5523 12 24Z" fill="#A1B3C9"/>
<path d="M12 28C12 27.4477 12.4477 27 13 27H19C19.5523 27 20 27.4477 20 28C20 28.5523 19.5523 29 19 29H13C12.4477 29 12 28.5523 12 28Z" fill="#A1B3C9"/>
</svg>
