<svg width="47" height="28" viewBox="0 0 47 28" fill="none" xmlns="http://www.w3.org/2000/svg">
<g filter="url(#filter0_d_3391_13060)">
<path d="M12.8134 22.2429C14.5227 22.1846 29.8825 21.7433 33.4221 21.8515C36.9617 21.9598 40.8561 21.9181 42.9928 20.9189C45.1294 19.9196 46.7823 16.8137 47 13.0749V12.7834C46.7823 9.04461 45.1294 5.93865 42.9928 4.93941C40.8561 3.94017 36.9617 3.90686 33.4221 4.00679C29.8825 4.11504 14.5227 3.67371 12.8134 3.61542C11.1041 3.55713 8.58845 3.4239 7.20164 6.52153C5.82289 9.61917 6.00833 12.7751 6.00833 12.7751V13.0665C6.00833 13.0665 5.82289 16.2225 7.20164 19.3201C8.58039 22.4177 11.096 22.2845 12.8134 22.2262V22.2429Z" fill="#37B2BF"/>
<path d="M26.432 7.05403C26.432 7.05403 26.3029 6.62935 26.1901 6.46281C26.0852 6.29627 25.1177 6.02148 25.1177 6.02148L17.3773 6.45449L13.4265 6.45449C12.0478 6.45449 11.693 8.31973 11.693 8.31973L10.403 11.0676L10.8948 12.9495L26.8915 12.9495L28.6896 10.4098L26.4158 7.06236L26.432 7.05403Z" fill="#4CCCD9"/>
<path d="M26.1903 19.4281C26.2951 19.2616 26.4322 18.8369 26.4322 18.8369L28.7059 15.4894L26.9079 12.9497L10.9031 12.9497L10.4113 14.8316L11.7013 17.5795C11.7013 17.5795 12.0561 19.4448 13.4348 19.4448C14.4346 19.4448 17.3856 19.4448 17.3856 19.4448L25.126 19.8778C25.126 19.8778 26.0936 19.603 26.1984 19.4364L26.1903 19.4281Z" fill="#4CCCD9"/>
<path d="M33.6159 5.14774L33.4304 4.58983C33.4304 4.58983 37.6876 4.18181 39.9613 4.62314C42.227 5.06447 44.4765 5.71397 45.6618 8.47853C46.847 11.2348 46.6777 13.2915 46.5487 13.9494C46.4197 14.6072 46.2343 16.664 45.5489 17.6465C44.8716 18.6291 43.5977 20.3195 42.6624 20.6859C41.7271 21.0606 39.3324 21.3187 38.1875 21.3187C37.0426 21.3187 33.4143 21.3021 33.4143 21.3021L33.4465 20.6359L32.229 17.8297L31.5518 8.17043L33.1321 5.48082L33.5997 5.13109L33.6159 5.14774Z" fill="#4CCCD9"/>
<path d="M12.8134 22.2429C14.5227 22.1846 29.8825 21.7433 33.4221 21.8515C36.9617 21.9598 40.8561 21.9181 42.9928 20.9189C45.1294 19.9196 46.7823 16.8137 47 13.0749V12.7834C46.7823 9.04461 45.1294 5.93865 42.9928 4.93941C40.8561 3.94017 36.9617 3.90686 33.4221 4.00679C29.8825 4.11504 14.5227 3.67371 12.8134 3.61542C11.1041 3.55713 8.58845 3.4239 7.20164 6.52153C5.82289 9.61917 6.00833 12.7751 6.00833 12.7751V13.0665C6.00833 13.0665 5.82289 16.2225 7.20164 19.3201C8.58039 22.4177 11.096 22.2845 12.8134 22.2262V22.2429ZM7.82248 19.0453C6.79043 16.7387 6.68562 14.3905 6.68562 13.4829C6.68562 13.2581 6.68562 13.1248 6.68562 13.1248V13.1082V12.7751V12.7501C6.68562 12.7501 6.67755 12.6169 6.67755 12.3921C6.67755 11.4844 6.79043 9.13621 7.81442 6.82963C8.9916 4.19831 11.0557 4.26492 12.7166 4.32321H12.7812C14.6679 4.38983 29.939 4.82283 33.4382 4.71458C36.6795 4.61466 40.6706 4.63131 42.7105 5.58059C43.6136 6.00526 44.4683 6.92123 45.1133 8.16195C45.7986 9.48594 46.2098 11.093 46.3147 12.8001V13.0499C46.2098 14.7569 45.7986 16.364 45.1133 17.688C44.4683 18.9287 43.6217 19.853 42.7105 20.2694C40.6626 21.2187 36.6795 21.2353 33.4382 21.1354C29.939 21.0355 14.6679 21.4601 12.7812 21.5268H12.7166C11.0557 21.585 8.9916 21.66 7.81442 19.0287L7.82248 19.0453Z" fill="#0B9BAB"/>
<path d="M33.6159 20.7027C33.6159 20.7027 34.9221 17.0972 34.9221 12.9253C34.9221 8.7452 33.6159 5.14795 33.6159 5.14795L26.4319 7.05483C26.4319 7.05483 26.8995 9.37805 26.8995 12.9253C26.8995 16.4726 26.4319 18.7959 26.4319 18.7959L33.6159 20.7027Z" fill="#3A4459"/>
<path d="M33.4302 4.58991L26.1978 6.45515C26.1978 6.45515 20.1748 6.45515 16.5626 6.45515C12.9424 6.45515 12.6199 4.41504 12.6199 4.41504C12.6199 4.41504 33.5189 4.58158 33.4382 4.58158L33.4302 4.58991Z" fill="#3A4459"/>
<path d="M33.4302 21.3106L26.1978 19.4453C26.1978 19.4453 20.1748 19.4453 16.5626 19.4453C12.9424 19.4453 12.6199 21.4854 12.6199 21.4854C12.6199 21.4854 33.5189 21.3189 33.4382 21.3189L33.4302 21.3106Z" fill="#3A4459"/>
<path d="M11.2657 20.0285C11.8946 19.5622 12.1365 18.7129 11.8462 17.9718C11.4189 16.8726 10.9029 15.099 10.9029 12.9423C10.9029 10.7856 11.4189 9.01193 11.8462 7.91277C12.1365 7.17167 11.8946 6.32232 11.2657 5.856L10.2014 5.06494C10.2014 5.06494 8.16956 7.47144 8.16956 12.9339L8.16956 12.9589C8.16956 18.4214 10.2014 20.8279 10.2014 20.8279L11.2657 20.0369L11.2657 20.0285Z" fill="#3A4459"/>
<mask id="mask0_3391_13060" style="mask-type:luminance" maskUnits="userSpaceOnUse" x="6" y="3" width="41" height="20">
<path d="M12.8134 22.2419C14.5227 22.1836 29.8825 21.7423 33.4221 21.8505C36.9617 21.9588 40.8561 21.9171 42.9928 20.9179C45.1294 19.9187 46.7823 16.8127 47 13.0739V12.7824C46.7823 9.04363 45.1294 5.93767 42.9928 4.93843C40.8561 3.93919 36.9617 3.90589 33.4221 4.00581C29.8825 4.11406 14.5227 3.67273 12.8134 3.61444C11.1041 3.55615 8.58845 3.42292 7.20164 6.52056C5.82289 9.61819 6.00833 12.7741 6.00833 12.7741V13.0656C6.00833 13.0656 5.82289 16.2215 7.20164 19.3191C8.58039 22.4168 11.096 22.2835 12.8134 22.2252V22.2419Z" fill="white"/>
</mask>
<g mask="url(#mask0_3391_13060)">
<path d="M8.26582 4.38135C8.26582 4.38135 8.91891 4.94758 8.64477 5.49716C8.30613 6.17998 7.92718 6.82115 7.37084 8.17845C6.91126 9.30259 6.01628 8.62811 6.01628 8.62811C6.01628 8.62811 5.97596 6.61298 5.99209 6.57134C6.01628 6.52971 8.25776 4.38135 8.25776 4.38135H8.26582Z" fill="#E85F5F"/>
</g>
<mask id="mask1_3391_13060" style="mask-type:luminance" maskUnits="userSpaceOnUse" x="6" y="3" width="41" height="20">
<path d="M12.8134 22.2419C14.5227 22.1836 29.8825 21.7423 33.4221 21.8505C36.9617 21.9588 40.8561 21.9171 42.9928 20.9179C45.1294 19.9187 46.7823 16.8127 47 13.0739V12.7824C46.7823 9.04363 45.1294 5.93767 42.9928 4.93843C40.8561 3.93919 36.9617 3.90589 33.4221 4.00581C29.8825 4.11406 14.5227 3.67273 12.8134 3.61444C11.1041 3.55615 8.58845 3.42292 7.20164 6.52056C5.82289 9.61819 6.00833 12.7741 6.00833 12.7741V13.0656C6.00833 13.0656 5.82289 16.2215 7.20164 19.3191C8.58039 22.4168 11.096 22.2835 12.8134 22.2252V22.2419Z" fill="white"/>
</mask>
<g mask="url(#mask1_3391_13060)">
<mask id="mask2_3391_13060" style="mask-type:luminance" maskUnits="userSpaceOnUse" x="5" y="4" width="4" height="5">
<path d="M8.26582 4.38184C8.26582 4.38184 8.91891 4.94807 8.64477 5.49765C8.30613 6.18046 7.92718 6.82164 7.37084 8.17894C6.91126 9.30308 6.01628 8.6286 6.01628 8.6286C6.01628 8.6286 5.97596 6.61347 5.99209 6.57183C6.01628 6.5302 8.25776 4.38184 8.25776 4.38184H8.26582Z" fill="white"/>
</mask>
<g mask="url(#mask2_3391_13060)">
<path d="M8.56414 6.03016C8.56414 6.03016 7.74979 5.34735 7.39502 4.74781C7.04832 4.14827 8.8544 3.9734 8.88666 3.98173C8.91891 3.99005 9.45106 4.54796 9.45912 4.72283C9.46718 4.89769 9.36237 5.94689 9.36237 5.94689L8.55608 6.02184L8.56414 6.03016Z" fill="#E8B85F"/>
</g>
</g>
<mask id="mask3_3391_13060" style="mask-type:luminance" maskUnits="userSpaceOnUse" x="6" y="3" width="41" height="20">
<path d="M12.8134 3.62464C14.5227 3.68293 29.8825 4.12426 33.4221 4.01601C36.9617 3.90776 40.8561 3.94939 42.9928 4.94863C45.1294 5.94787 46.7823 9.05383 47 12.7926V13.0841C46.7823 16.8229 45.1294 19.9289 42.9928 20.9281C40.8561 21.9273 36.9617 21.9607 33.4221 21.8607C29.8825 21.7525 14.5227 22.1938 12.8134 22.2521C11.1041 22.3104 8.58845 22.4436 7.20164 19.346C5.82289 16.2483 6.00833 13.0924 6.00833 13.0924V12.801C6.00833 12.801 5.82289 9.64505 7.20164 6.54741C8.58039 3.44978 11.096 3.58301 12.8134 3.6413V3.62464Z" fill="white"/>
</mask>
<g mask="url(#mask3_3391_13060)">
<path d="M8.26582 21.4933C8.26582 21.4933 8.91891 20.9271 8.64477 20.3775C8.30613 19.6947 7.92718 19.0535 7.37084 17.6962C6.91126 16.5721 6.01628 17.2466 6.01628 17.2466C6.01628 17.2466 5.97596 19.2617 5.99209 19.3033C6.01628 19.345 8.25776 21.4933 8.25776 21.4933H8.26582Z" fill="#E85F5F"/>
</g>
<mask id="mask4_3391_13060" style="mask-type:luminance" maskUnits="userSpaceOnUse" x="6" y="3" width="41" height="20">
<path d="M12.8134 3.62464C14.5227 3.68293 29.8825 4.12426 33.4221 4.01601C36.9617 3.90776 40.8561 3.94939 42.9928 4.94863C45.1294 5.94787 46.7823 9.05383 47 12.7926V13.0841C46.7823 16.8229 45.1294 19.9289 42.9928 20.9281C40.8561 21.9273 36.9617 21.9607 33.4221 21.8607C29.8825 21.7525 14.5227 22.1938 12.8134 22.2521C11.1041 22.3104 8.58845 22.4436 7.20164 19.346C5.82289 16.2483 6.00833 13.0924 6.00833 13.0924V12.801C6.00833 12.801 5.82289 9.64505 7.20164 6.54741C8.58039 3.44978 11.096 3.58301 12.8134 3.6413V3.62464Z" fill="white"/>
</mask>
<g mask="url(#mask4_3391_13060)">
<mask id="mask5_3391_13060" style="mask-type:luminance" maskUnits="userSpaceOnUse" x="5" y="17" width="4" height="5">
<path d="M8.26582 21.4933C8.26582 21.4933 8.91891 20.9271 8.64477 20.3775C8.30613 19.6947 7.92718 19.0535 7.37084 17.6962C6.91126 16.5721 6.01628 17.2466 6.01628 17.2466C6.01628 17.2466 5.97596 19.2617 5.99209 19.3033C6.01628 19.345 8.25776 21.4933 8.25776 21.4933H8.26582Z" fill="white"/>
</mask>
<g mask="url(#mask5_3391_13060)">
<path d="M8.56414 19.8364C8.56414 19.8364 7.74979 20.5192 7.39502 21.1188C7.04832 21.7183 8.8544 21.8932 8.88666 21.8849C8.91891 21.8765 9.45106 21.3186 9.45912 21.1438C9.46718 20.9689 9.36237 19.9197 9.36237 19.9197L8.55608 19.8448L8.56414 19.8364Z" fill="#E8B85F"/>
</g>
</g>
<mask id="mask6_3391_13060" style="mask-type:luminance" maskUnits="userSpaceOnUse" x="6" y="3" width="41" height="20">
<path d="M12.8134 22.2419C14.5227 22.1836 29.8825 21.7423 33.4221 21.8505C36.9617 21.9588 40.8561 21.9171 42.9928 20.9179C45.1294 19.9187 46.7823 16.8127 47 13.0739V12.7824C46.7823 9.04363 45.1294 5.93767 42.9928 4.93843C40.8561 3.93919 36.9617 3.90589 33.4221 4.00581C29.8825 4.11406 14.5227 3.67273 12.8134 3.61444C11.1041 3.55615 8.58845 3.42292 7.20164 6.52056C5.82289 9.61819 6.00833 12.7741 6.00833 12.7741V13.0656C6.00833 13.0656 5.82289 16.2215 7.20164 19.3191C8.58039 22.4168 11.096 22.2835 12.8134 22.2252V22.2419Z" fill="white"/>
</mask>
<g mask="url(#mask6_3391_13060)">
<path d="M47.9357 14.5314L47.9357 11.2589C47.9357 10.8082 47.5819 10.4429 47.1455 10.4429L46.9036 10.4429C46.4672 10.4429 46.1135 10.8082 46.1135 11.2589L46.1135 14.5314C46.1135 14.9821 46.4672 15.3475 46.9036 15.3475L47.1455 15.3475C47.5819 15.3475 47.9357 14.9821 47.9357 14.5314Z" fill="#D1DBF0"/>
</g>
<path d="M43.5169 7.62041C44.0006 8.80284 44.7424 9.17755 45.2746 9.11094C45.4923 9.08596 45.718 8.92774 45.9035 8.75288C45.7906 8.47809 45.6696 8.2033 45.5326 7.94516C44.9198 6.76273 44.1538 5.87174 43.2911 5.35547C43.2266 5.9217 43.2024 6.86265 43.5169 7.62041Z" fill="#B2E2ED"/>
<mask id="mask7_3391_13060" style="mask-type:luminance" maskUnits="userSpaceOnUse" x="43" y="5" width="3" height="5">
<path d="M43.5169 7.61992C44.0006 8.80235 44.7424 9.17706 45.2746 9.11045C45.4923 9.08547 45.718 8.92725 45.9035 8.75239C45.7906 8.4776 45.6696 8.20281 45.5326 7.94467C44.9198 6.76224 44.1538 5.87125 43.2911 5.35498C43.2266 5.92122 43.2024 6.86216 43.5169 7.61992Z" fill="white"/>
</mask>
<g mask="url(#mask7_3391_13060)">
<path d="M44.9603 5.95532C44.9603 5.95532 43.3316 6.04691 42.9285 6.96288C42.5254 7.87885 42.2512 3.52384 42.2512 3.52384C42.2512 3.52384 44.6056 3.08251 44.6217 3.37395C44.6459 3.65707 44.9603 5.95532 44.9603 5.95532Z" fill="#EDC451"/>
</g>
<path d="M43.5009 18.3124C43.9846 17.1299 44.7264 16.7552 45.2586 16.8218C45.4763 16.8468 45.702 17.005 45.8875 17.1799C45.7746 17.4547 45.6537 17.7295 45.5166 17.9876C44.9038 19.1701 44.1378 20.061 43.2751 20.5773C43.2106 20.0111 43.1864 19.0701 43.5009 18.3124Z" fill="#B2E2ED"/>
<mask id="mask8_3391_13060" style="mask-type:luminance" maskUnits="userSpaceOnUse" x="43" y="16" width="3" height="5">
<path d="M43.5009 18.3124C43.9846 17.1299 44.7264 16.7552 45.2586 16.8218C45.4763 16.8468 45.702 17.005 45.8875 17.1799C45.7746 17.4547 45.6537 17.7295 45.5166 17.9876C44.9038 19.1701 44.1378 20.061 43.2751 20.5773C43.2106 20.0111 43.1864 19.0701 43.5009 18.3124Z" fill="white"/>
</mask>
<g mask="url(#mask8_3391_13060)">
<path d="M44.9361 19.9774C44.9361 19.9774 43.3074 19.8858 42.9042 18.9699C42.5011 18.0539 42.2269 22.4089 42.2269 22.4089C42.2269 22.4089 44.5813 22.8502 44.5974 22.5588C44.6135 22.2673 44.9361 19.9774 44.9361 19.9774Z" fill="#EDC451"/>
</g>
<path d="M33.4627 4.34821C33.4627 4.34821 33.2209 4.19 33.1241 3.82361C33.0274 3.45722 32.9225 2.49129 32.7855 2.27479C32.6403 2.05829 32.0679 2 32.0679 2C32.0679 2 32.2533 3.25737 32.3339 3.72368C32.4226 4.19 32.7048 4.17334 32.8177 4.26494C32.9306 4.35654 33.0193 4.53973 33.0193 4.53973C33.0193 4.53973 33.3499 4.65631 33.4708 4.34821L33.4627 4.34821Z" fill="#4CCCD9"/>
<path d="M33.4627 21.6516C33.4627 21.6516 33.2209 21.8098 33.1241 22.1762C33.0274 22.5426 32.9225 23.5085 32.7855 23.725C32.6403 23.9415 32.0679 23.9998 32.0679 23.9998C32.0679 23.9998 32.2533 22.7425 32.3339 22.2762C32.4226 21.8098 32.7048 21.8265 32.8177 21.7349C32.9306 21.6433 33.0193 21.4601 33.0193 21.4601C33.0193 21.4601 33.3499 21.3435 33.4708 21.6516L33.4627 21.6516Z" fill="#4CCCD9"/>
<mask id="mask9_3391_13060" style="mask-type:luminance" maskUnits="userSpaceOnUse" x="26" y="5" width="9" height="16">
<path d="M33.6159 20.7018C33.6159 20.7018 34.9221 17.0962 34.9221 12.9244C34.9221 8.74423 33.6159 5.14697 33.6159 5.14697L26.4319 7.05385C26.4319 7.05385 26.8995 9.37708 26.8995 12.9244C26.8995 16.4717 26.4319 18.7949 26.4319 18.7949L33.6159 20.7018Z" fill="white"/>
</mask>
<g mask="url(#mask9_3391_13060)">
<path d="M45.5731 26.7726L45.5731 12.9165L4.29925 12.9165L4.29925 26.7726L45.5731 26.7726Z" fill="#52607A"/>
</g>
<mask id="mask10_3391_13060" style="mask-type:luminance" maskUnits="userSpaceOnUse" x="8" y="5" width="4" height="16">
<path d="M11.2657 20.029C11.8946 19.5627 12.1365 18.7133 11.8462 17.9722C11.4189 16.8731 10.9029 15.0994 10.9029 12.9428C10.9029 10.7861 11.4189 9.01242 11.8462 7.91326C12.1365 7.17216 11.8946 6.3228 11.2657 5.85649L10.2014 5.06543C10.2014 5.06543 8.16956 7.47193 8.16956 12.9344L8.16956 12.9594C8.16956 18.4219 10.2014 20.8284 10.2014 20.8284L11.2657 20.0373L11.2657 20.029Z" fill="white"/>
</mask>
<g mask="url(#mask10_3391_13060)">
<path d="M45.5731 26.7736L45.5731 12.9175L4.29925 12.9175L4.29925 26.7736L45.5731 26.7736Z" fill="#52607A"/>
</g>
</g>
<defs>
<filter id="filter0_d_3391_13060" x="0" y="0" width="47" height="28" filterUnits="userSpaceOnUse" color-interpolation-filters="sRGB">
<feFlood flood-opacity="0" result="BackgroundImageFix"/>
<feColorMatrix in="SourceAlpha" type="matrix" values="0 0 0 0 0 0 0 0 0 0 0 0 0 0 0 0 0 0 127 0" result="hardAlpha"/>
<feOffset dx="-3" dy="1"/>
<feGaussianBlur stdDeviation="1.5"/>
<feComposite in2="hardAlpha" operator="out"/>
<feColorMatrix type="matrix" values="0 0 0 0 0 0 0 0 0 0 0 0 0 0 0 0 0 0 0.2 0"/>
<feBlend mode="normal" in2="BackgroundImageFix" result="effect1_dropShadow_3391_13060"/>
<feBlend mode="normal" in="SourceGraphic" in2="effect1_dropShadow_3391_13060" result="shape"/>
</filter>
</defs>
</svg>
