<svg width="14" height="14" viewBox="0 0 14 14" fill="none" xmlns="http://www.w3.org/2000/svg">
<path d="M12.8337 7.00008C12.8337 10.2217 10.222 12.8334 7.00033 12.8334C3.77866 12.8334 1.16699 10.2217 1.16699 7.00008C1.16699 3.77842 3.77866 1.16675 7.00033 1.16675C10.222 1.16675 12.8337 3.77842 12.8337 7.00008Z" fill="#143B75"/>
<path d="M6.93616 3.5C7.26282 3.5 7.55622 3.54235 7.81634 3.62704C8.07646 3.70568 8.29727 3.82062 8.47875 3.97185C8.66023 4.11704 8.79937 4.29247 8.89616 4.49815C8.99295 4.70383 9.04134 4.93068 9.04134 5.1787V5.27852C9.04134 5.4237 9.02319 5.56284 8.9869 5.69593C8.95665 5.82296 8.89918 5.95302 8.81449 6.08611C8.73585 6.2192 8.62393 6.36136 8.47875 6.51259C8.33961 6.66383 8.16418 6.83623 7.95245 7.02981C7.81937 7.1508 7.7135 7.25667 7.63486 7.34741C7.55622 7.4321 7.49572 7.51376 7.45338 7.59241C7.41103 7.665 7.38381 7.74062 7.37171 7.81926C7.35961 7.89185 7.35356 7.97654 7.35356 8.07333C7.35356 8.21247 7.29912 8.32136 7.19023 8.4C7.08739 8.47864 6.9664 8.51796 6.82727 8.51796C6.67603 8.51796 6.54597 8.48167 6.43708 8.40907C6.32819 8.33043 6.27375 8.20944 6.27375 8.04611C6.27375 7.88883 6.28282 7.74667 6.30097 7.61963C6.31912 7.49259 6.35239 7.3716 6.40079 7.25667C6.45523 7.13568 6.53085 7.01772 6.62764 6.90278C6.73048 6.78179 6.86356 6.6487 7.0269 6.50352C7.21443 6.34019 7.36264 6.20407 7.47153 6.09518C7.58646 5.98025 7.67418 5.87741 7.73467 5.78667C7.79517 5.69593 7.83449 5.61426 7.85264 5.54167C7.87079 5.46302 7.87986 5.37833 7.87986 5.28759V5.24222C7.87986 5.14543 7.86171 5.05469 7.82542 4.97C7.78912 4.88531 7.73165 4.80969 7.65301 4.74315C7.58042 4.6766 7.4806 4.62518 7.35356 4.58889C7.23258 4.54654 7.08134 4.52537 6.89986 4.52537C6.65788 4.52537 6.44616 4.56167 6.26467 4.63426C6.08319 4.70685 5.91079 4.80062 5.74745 4.91556C5.62646 5.00025 5.50548 5.03049 5.38449 5.0063C5.26955 4.97605 5.16974 4.90346 5.08504 4.78852C5.00035 4.67963 4.95801 4.55864 4.95801 4.42556C4.96406 4.28642 5.02758 4.17148 5.14856 4.08074C5.37239 3.90531 5.62949 3.76617 5.91986 3.66333C6.21628 3.55444 6.55505 3.5 6.93616 3.5ZM6.81819 9.12593C7.01177 9.12593 7.17511 9.19247 7.30819 9.32556C7.44128 9.45864 7.50782 9.62197 7.50782 9.81556C7.50782 10.0091 7.44128 10.1725 7.30819 10.3056C7.17511 10.4386 7.01177 10.5052 6.81819 10.5052C6.62461 10.5052 6.46128 10.4386 6.32819 10.3056C6.19511 10.1725 6.12856 10.0091 6.12856 9.81556C6.12856 9.62197 6.19511 9.45864 6.32819 9.32556C6.46128 9.19247 6.62461 9.12593 6.81819 9.12593Z" fill="white"/>
</svg>
