<svg width="36" height="36" viewBox="0 0 36 36" fill="none" xmlns="http://www.w3.org/2000/svg">
<path d="M6.75 19.498C6.75 13.2848 11.7868 8.24805 18 8.24805C24.2132 8.24805 29.25 13.2848 29.25 19.498V27.623C29.25 29.7631 27.5151 31.498 25.375 31.498H10.625C8.4849 31.498 6.75 29.7631 6.75 27.623V19.498Z" fill="#2BC9C3"/>
<path d="M16.2491 7.59387C15.3704 6.71519 15.3704 5.29057 16.2491 4.41189C17.1278 3.53321 18.5524 3.53321 19.4311 4.41189L32.159 17.1398C33.0377 18.0185 33.0377 19.4431 32.159 20.3218C31.2803 21.2005 29.8557 21.2005 28.977 20.3218L16.2491 7.59387Z" fill="#00A69E"/>
<path d="M19.4308 7.59256C20.3095 6.71388 20.3095 5.28926 19.4308 4.41058C18.5521 3.5319 17.1275 3.5319 16.2488 4.41058L3.52092 17.1385C2.64224 18.0172 2.64224 19.4418 3.52092 20.3205C4.3996 21.1992 5.82422 21.1992 6.7029 20.3205L19.4308 7.59256Z" fill="#00A69E"/>
<path fill-rule="evenodd" clip-rule="evenodd" d="M13.7508 18.0432C14.1412 17.905 14.5698 18.1094 14.7081 18.4998L16.1261 22.5035L17.5441 18.4998C17.6502 18.2004 17.9334 18.0002 18.2511 18.0002C18.5688 18.0002 18.852 18.2004 18.9581 18.4998L20.3761 22.5035L21.7941 18.4998C21.9324 18.1094 22.361 17.905 22.7514 18.0432C23.1419 18.1815 23.3463 18.6101 23.208 19.0006L21.083 25.0004C20.977 25.2999 20.6937 25.5 20.3761 25.5C20.0584 25.5 19.7752 25.2999 19.6691 25.0004L18.2511 20.9967L16.8331 25.0004C16.727 25.2999 16.4438 25.5 16.1261 25.5C15.8085 25.5 15.5252 25.2999 15.4192 25.0004L13.2942 19.0006C13.1559 18.6101 13.3603 18.1815 13.7508 18.0432Z" fill="white"/>
<path fill-rule="evenodd" clip-rule="evenodd" d="M12 21.4985C12 21.0843 12.3358 20.7485 12.75 20.7485L14.25 20.7485C14.6642 20.7485 15 21.0843 15 21.4985C15 21.9127 14.6642 22.2485 14.25 22.2485L12.75 22.2485C12.3358 22.2485 12 21.9127 12 21.4985Z" fill="white"/>
<path fill-rule="evenodd" clip-rule="evenodd" d="M21.498 21.498C21.498 21.0838 21.8338 20.748 22.248 20.748L23.748 20.748C24.1622 20.748 24.498 21.0838 24.498 21.498C24.498 21.9122 24.1622 22.248 23.748 22.248L22.248 22.248C21.8338 22.248 21.498 21.9122 21.498 21.498Z" fill="white"/>
</svg>
