<svg width="36" height="36" viewBox="0 0 36 36" fill="none" xmlns="http://www.w3.org/2000/svg">
<path d="M6.75 18.25C6.75 12.0368 11.7868 7 18 7C24.2132 7 29.25 12.0368 29.25 18.25V27C29.25 29.2091 27.4591 31 25.25 31H10.75C8.54086 31 6.75 29.2091 6.75 27V18.25Z" fill="#00CBC1"/>
<path fill-rule="evenodd" clip-rule="evenodd" d="M16.6027 3.23657C17.4213 2.58781 18.5788 2.58781 19.3975 3.23657L32.6475 13.7366C33.6214 14.5084 33.7853 15.9235 33.0135 16.8974C32.2417 17.8713 30.8266 18.0352 29.8527 17.2634L18.0001 7.87083L6.14752 17.2634C5.17361 18.0352 3.75844 17.8713 2.98666 16.8974C2.21488 15.9235 2.37874 14.5084 3.35266 13.7366L16.6027 3.23657Z" fill="#00A69E"/>
<path d="M17 23C17 22.4477 17.4477 22 18 22H32C32.5523 22 33 22.4477 33 23V33C33 33.5523 32.5523 34 32 34H18C17.4477 34 17 33.5523 17 33V23Z" fill="#FFD0D0"/>
<path fill-rule="evenodd" clip-rule="evenodd" d="M30.215 25.3009C30.6011 25.6958 30.594 26.3289 30.1991 26.715L26.9264 29.915C26.5627 30.2706 25.99 30.2966 25.5956 29.9752L23.7884 28.5027L21.1501 30.7599C20.7305 31.1189 20.0992 31.0698 19.7402 30.6501C19.3811 30.2304 19.4303 29.5992 19.8499 29.2401L23.1227 26.4401C23.49 26.1258 24.0296 26.1194 24.4044 26.4248L26.1667 27.8607L28.8009 25.285C29.1958 24.8989 29.8289 24.906 30.215 25.3009Z" fill="#FF4242"/>
</svg>
