<svg width="24" height="24" viewBox="0 0 24 24" fill="none" xmlns="http://www.w3.org/2000/svg">
<path d="M4.5 12.999C4.5 8.85689 7.85786 5.49902 12 5.49902C16.1421 5.49902 19.5 8.85689 19.5 12.999V18.4157C19.5 19.8424 18.3434 20.999 16.9167 20.999H7.08333C5.6566 20.999 4.5 19.8424 4.5 18.4157V12.999Z" fill="#2BC9C3"/>
<path d="M10.8327 5.06258C10.247 4.47679 10.247 3.52705 10.8327 2.94126C11.4185 2.35547 12.3683 2.35547 12.9541 2.94126L21.4393 11.4265C22.0251 12.0123 22.0251 12.9621 21.4393 13.5479C20.8536 14.1336 19.9038 14.1336 19.318 13.5479L10.8327 5.06258Z" fill="#00A69E"/>
<path d="M12.9539 5.06171C13.5397 4.47592 13.5397 3.52617 12.9539 2.94039C12.3681 2.3546 11.4183 2.3546 10.8326 2.94039L2.34728 11.4257C1.76149 12.0115 1.7615 12.9612 2.34728 13.547C2.93307 14.1328 3.88282 14.1328 4.4686 13.547L12.9539 5.06171Z" fill="#00A69E"/>
<path fill-rule="evenodd" clip-rule="evenodd" d="M9.16719 12.0288C9.42749 11.9366 9.71323 12.0729 9.80542 12.3332L10.7508 15.0024L11.6961 12.3332C11.7668 12.1336 11.9556 12.0001 12.1674 12.0001C12.3792 12.0001 12.568 12.1336 12.6387 12.3332L13.584 15.0024L14.5294 12.3332C14.6216 12.0729 14.9073 11.9366 15.1676 12.0288C15.4279 12.121 15.5642 12.4067 15.472 12.667L14.0554 16.6669C13.9846 16.8666 13.7958 17 13.584 17C13.3723 17 13.1834 16.8666 13.1127 16.6669L12.1674 13.9978L11.2221 16.6669C11.1514 16.8666 10.9625 17 10.7508 17C10.539 17 10.3502 16.8666 10.2795 16.6669L8.86281 12.667C8.77062 12.4067 8.9069 12.121 9.16719 12.0288Z" fill="white"/>
<path fill-rule="evenodd" clip-rule="evenodd" d="M8 14.332C8 14.0559 8.22385 13.832 8.49999 13.832L9.49998 13.832C9.77611 13.832 9.99997 14.0559 9.99997 14.332C9.99997 14.6082 9.77611 14.832 9.49998 14.832L8.49999 14.832C8.22385 14.832 8 14.6082 8 14.332Z" fill="white"/>
<path fill-rule="evenodd" clip-rule="evenodd" d="M14.332 14.332C14.332 14.0559 14.5559 13.832 14.832 13.832L15.832 13.832C16.1081 13.832 16.332 14.0559 16.332 14.332C16.332 14.6082 16.1081 14.832 15.832 14.832L14.832 14.832C14.5559 14.832 14.332 14.6082 14.332 14.332Z" fill="white"/>
<path fill-rule="evenodd" clip-rule="evenodd" d="M21.25 14.75C21.25 16.4069 19.9069 17.75 18.25 17.75C16.5931 17.75 15.25 16.4069 15.25 14.75C15.25 13.0931 16.5931 11.75 18.25 11.75C19.9069 11.75 21.25 13.0931 21.25 14.75ZM20.8312 18.1267C20.1156 18.6745 19.2208 19 18.25 19C15.9028 19 14 17.0972 14 14.75C14 12.4028 15.9028 10.5 18.25 10.5C20.5972 10.5 22.5 12.4028 22.5 14.75C22.5 15.6755 22.2042 16.5318 21.702 17.2297L23.4579 18.9856C23.7019 19.2297 23.7019 19.6254 23.4579 19.8695C23.2138 20.1136 22.8181 20.1136 22.574 19.8695L20.8312 18.1267Z" fill="#435062"/>
</svg>
