<svg width="36" height="36" viewBox="0 0 36 36" fill="none" xmlns="http://www.w3.org/2000/svg">
<path d="M6.6497 11.7095C6.79822 10.1693 7.988 9 9.40673 9H26.5933C28.012 9 29.2018 10.1693 29.3503 11.7095L30.9845 28.6569C31.1568 30.4437 29.8733 32 28.2274 32H7.77255C6.12666 32 4.84323 30.4437 5.01553 28.6569L6.6497 11.7095Z" fill="#FFC737"/>
<path d="M34 27C34 30.866 30.866 34 27 34C23.134 34 20 30.866 20 27C20 23.134 23.134 20 27 20C30.866 20 34 23.134 34 27Z" fill="#00CBC1"/>
<path d="M26.5593 23.2821C26.7327 22.906 27.2673 22.906 27.4407 23.2821L28.2556 25.0487C28.3263 25.202 28.4716 25.3076 28.6392 25.3274L30.5712 25.5565C30.9825 25.6053 31.1477 26.1136 30.8436 26.3949L29.4152 27.7158C29.2913 27.8304 29.2358 28.0012 29.2687 28.1667L29.6479 30.0749C29.7286 30.4812 29.2961 30.7954 28.9347 30.5931L27.2371 29.6428C27.0898 29.5603 26.9102 29.5603 26.7629 29.6428L25.0653 30.5931C24.7039 30.7954 24.2714 30.4812 24.3521 30.0749L24.7313 28.1667C24.7642 28.0012 24.7087 27.8304 24.5848 27.7158L23.1564 26.3949C22.8523 26.1136 23.0175 25.6053 23.4288 25.5565L25.3608 25.3274C25.5284 25.3076 25.6737 25.202 25.7444 25.0487L26.5593 23.2821Z" fill="white"/>
<path fill-rule="evenodd" clip-rule="evenodd" d="M18 2C14.9624 2 12.5 4.46243 12.5 7.5V11C12.5 11.5523 12.9477 12 13.5 12C14.0523 12 14.5 11.5523 14.5 11V7.5C14.5 5.567 16.067 4 18 4C19.933 4 21.5 5.567 21.5 7.5V11C21.5 11.5523 21.9477 12 22.5 12C23.0523 12 23.5 11.5523 23.5 11V7.5C23.5 4.46243 21.0376 2 18 2Z" fill="#FF8514"/>
</svg>
