<svg width="36" height="36" viewBox="0 0 36 36" fill="none" xmlns="http://www.w3.org/2000/svg">
<path d="M7.76503 14.2383C7.89897 12.9659 8.9719 12 10.2513 12H25.75C27.0294 12 28.1023 12.9659 28.2362 14.2383L29.7099 28.2383C29.8653 29.7144 28.7079 31 27.2237 31H8.77761C7.29336 31 6.13597 29.7144 6.29135 28.2383L7.76503 14.2383Z" fill="#20C7BF"/>
<path fill-rule="evenodd" clip-rule="evenodd" d="M13.6325 18.0404C13.9969 17.9113 14.3969 18.1021 14.526 18.4665L15.8495 22.2033L17.1729 18.4665C17.2719 18.187 17.5362 18.0002 17.8327 18.0002C18.1292 18.0002 18.3936 18.187 18.4926 18.4665L19.816 22.2033L21.1395 18.4665C21.2685 18.1021 21.6686 17.9113 22.033 18.0404C22.3974 18.1694 22.5882 18.5694 22.4591 18.9339L20.4758 24.5337C20.3769 24.8132 20.1125 25 19.816 25C19.5195 25 19.2552 24.8132 19.1562 24.5337L17.8327 20.7969L16.5093 24.5337C16.4103 24.8132 16.146 25 15.8495 25C15.553 25 15.2886 24.8132 15.1896 24.5337L13.2064 18.9339C13.0773 18.5694 13.2681 18.1694 13.6325 18.0404Z" fill="#9BEDE9"/>
<path fill-rule="evenodd" clip-rule="evenodd" d="M12 21.2669C12 20.8803 12.3134 20.5669 12.7 20.5669L14.0999 20.5669C14.4865 20.5669 14.7999 20.8803 14.7999 21.2669C14.7999 21.6535 14.4865 21.9669 14.0999 21.9669L12.7 21.9669C12.3134 21.9669 12 21.6535 12 21.2669Z" fill="#9BEDE9"/>
<path fill-rule="evenodd" clip-rule="evenodd" d="M20.8672 21.2669C20.8672 20.8803 21.1806 20.5669 21.5672 20.5669L22.9671 20.5669C23.3537 20.5669 23.6671 20.8803 23.6671 21.2669C23.6671 21.6535 23.3537 21.9669 22.9671 21.9669L21.5672 21.9669C21.1806 21.9669 20.8672 21.6535 20.8672 21.2669Z" fill="#9BEDE9"/>
<path d="M36 25C36 29.4183 32.4183 33 28 33C23.5817 33 20 29.4183 20 25C20 20.5817 23.5817 17 28 17C32.4183 17 36 20.5817 36 25Z" fill="#0168FE"/>
<path d="M27.5042 20.8173C27.6993 20.3942 28.3007 20.3942 28.4958 20.8173L29.4126 22.8048C29.4921 22.9773 29.6555 23.096 29.8441 23.1184L32.0176 23.3761C32.4803 23.4309 32.6661 24.0028 32.324 24.3192L30.7171 25.8052C30.5777 25.9342 30.5153 26.1263 30.5523 26.3126L30.9788 28.4593C31.0697 28.9163 30.5831 29.2698 30.1766 29.0422L28.2667 27.9731C28.101 27.8804 27.899 27.8804 27.7333 27.9731L25.8234 29.0422C25.4169 29.2698 24.9303 28.9163 25.0212 28.4593L25.4477 26.3126C25.4847 26.1263 25.4223 25.9342 25.2829 25.8052L23.676 24.3192C23.3339 24.0028 23.5197 23.4309 23.9824 23.3761L26.1559 23.1184C26.3445 23.096 26.5079 22.9773 26.5874 22.8048L27.5042 20.8173Z" fill="white"/>
<path fill-rule="evenodd" clip-rule="evenodd" d="M18 6C15.7909 6 14 7.79086 14 10V15C14 15.5523 13.5523 16 13 16C12.4477 16 12 15.5523 12 15V10C12 6.68629 14.6863 4 18 4C21.3137 4 24 6.68629 24 10V15C24 15.5523 23.5523 16 23 16C22.4477 16 22 15.5523 22 15V10C22 7.79086 20.2091 6 18 6Z" fill="#4E627D"/>
</svg>
