<svg width="36" height="36" viewBox="0 0 36 36" fill="none" xmlns="http://www.w3.org/2000/svg">
<path d="M7 6.5C7 5.39543 7.89543 4.5 9 4.5H27C28.1046 4.5 29 5.39543 29 6.5V29.5C29 30.6046 28.1046 31.5 27 31.5H9C7.89543 31.5 7 30.6046 7 29.5V6.5Z" fill="#DCEAFC"/>
<path d="M11 21.5C11 20.9477 11.4477 20.5 12 20.5H25C25.5523 20.5 26 20.9477 26 21.5C26 22.0523 25.5523 22.5 25 22.5H12C11.4477 22.5 11 22.0523 11 21.5Z" fill="#AFC3DC"/>
<path d="M11 25.5C11 24.9477 11.4477 24.5 12 24.5H19C19.5523 24.5 20 24.9477 20 25.5C20 26.0523 19.5523 26.5 19 26.5H12C11.4477 26.5 11 26.0523 11 25.5Z" fill="#AFC3DC"/>
<path fill-rule="evenodd" clip-rule="evenodd" d="M22.7526 10.3415C23.1163 10.7571 23.0742 11.3889 22.6585 11.7526L17.5157 16.2526C17.1386 16.5825 16.5757 16.5825 16.1987 16.2526L13.3415 13.7526C12.9259 13.3889 12.8838 12.7571 13.2474 12.3415C13.6111 11.9259 14.2429 11.8838 14.6585 12.2474L16.8572 14.1712L21.3415 10.2474C21.7571 9.88375 22.3889 9.92587 22.7526 10.3415Z" fill="#00A69E"/>
</svg>
