<svg width="36" height="37" viewBox="0 0 36 37" fill="none" xmlns="http://www.w3.org/2000/svg">
<path fill-rule="evenodd" clip-rule="evenodd" d="M31.1072 26.047C31.3919 26.3479 31.3788 26.8226 31.0779 27.1073L27.5108 30.4822C27.2175 30.7598 26.7572 30.7552 26.4694 30.472L24.4115 28.4471C24.1162 28.1565 24.1124 27.6817 24.4029 27.3864C24.6934 27.0912 25.1683 27.0874 25.4635 27.3779L27.0056 28.8953L30.047 26.0177C30.3479 25.733 30.8225 25.7462 31.1072 26.047Z" fill="white"/>
<path d="M5.25 15.5C5.25 13.8431 6.59313 12.5 8.24997 12.5H27.7497C29.4066 12.5 30.7497 13.8431 30.7497 15.5V27.4998C30.7497 29.1567 29.4066 30.4998 27.7497 30.4998H8.24997C6.59313 30.4998 5.25 29.1567 5.25 27.4998V15.5Z" fill="#AFC3DC"/>
<path d="M8 7.99997C8 6.34313 9.34313 5 11 5H25.2498C26.9066 5 28.2498 6.34313 28.2498 7.99997V23.7498C28.2498 25.4066 26.9066 26.7498 25.2498 26.7498H11C9.34313 26.7498 8 25.4066 8 23.7498V7.99997Z" fill="#20C7BF"/>
<path fill-rule="evenodd" clip-rule="evenodd" d="M13.3206 10.4356C13.7266 10.2918 14.1723 10.5044 14.3161 10.9104L15.7907 15.0742L17.2654 10.9104C17.3757 10.599 17.6702 10.3908 18.0006 10.3908C18.3309 10.3908 18.6255 10.599 18.7358 10.9104L20.2104 15.0742L21.685 10.9104C21.8288 10.5044 22.2746 10.2918 22.6806 10.4356C23.0866 10.5794 23.2992 11.0251 23.1554 11.4312L20.9456 17.6709C20.8353 17.9823 20.5408 18.1905 20.2104 18.1905C19.88 18.1905 19.5855 17.9823 19.4752 17.6709L18.0006 13.5071L16.5259 17.6709C16.4156 17.9823 16.1211 18.1905 15.7907 18.1905C15.4604 18.1905 15.1659 17.9823 15.0556 17.6709L12.8457 11.4312C12.7019 11.0251 12.9145 10.5794 13.3206 10.4356Z" fill="white"/>
<path fill-rule="evenodd" clip-rule="evenodd" d="M11.5 14.03C11.5 13.5992 11.8492 13.25 12.2799 13.25L13.8398 13.25C14.2706 13.25 14.6197 13.5992 14.6197 14.03C14.6197 14.4607 14.2706 14.8099 13.8398 14.8099L12.2799 14.8099C11.8492 14.8099 11.5 14.4607 11.5 14.03Z" fill="white"/>
<path fill-rule="evenodd" clip-rule="evenodd" d="M21.3789 14.03C21.3789 13.5992 21.7281 13.25 22.1588 13.25L23.7187 13.25C24.1495 13.25 24.4987 13.5992 24.4987 14.03C24.4987 14.4607 24.1495 14.8099 23.7187 14.8099L22.1588 14.8099C21.7281 14.8099 21.3789 14.4607 21.3789 14.03Z" fill="white"/>
<path d="M5.25 15.5L16.4999 23.4062V28.9998C16.4999 30.6567 15.1567 31.9998 13.4999 31.9998H8.24997C6.59313 31.9998 5.25 30.6567 5.25 28.9998V15.5Z" fill="#D1E1F1"/>
<path d="M30.75 15.5L19.5001 23.4062V28.9998C19.5001 30.6567 20.8433 31.9998 22.5001 31.9998H27.75C29.4069 31.9998 30.75 30.6567 30.75 28.9998V15.5Z" fill="#D1E1F1"/>
<path d="M27.7498 31.9992H8.25L17.4503 22.0912C17.747 21.7717 18.2528 21.7717 18.5495 22.0912L27.7498 31.9992Z" fill="#AFC3DC"/>
</svg>
