<svg width="36" height="36" viewBox="0 0 36 36" fill="none" xmlns="http://www.w3.org/2000/svg">
<path d="M4 15.3333C4 13.4924 5.47483 12 7.29412 12H28.7059C30.5252 12 32 13.4924 32 15.3333V28.6667C32 30.5076 30.5252 32 28.7059 32H7.29412C5.47483 32 4 30.5076 4 28.6667V15.3333Z" fill="#AFC3DC"/>
<path d="M7 7C7 5.34315 8.34315 4 10 4H26C27.6569 4 29 5.34315 29 7V21C29 22.6569 27.6569 24 26 24H10C8.34315 24 7 22.6569 7 21V7Z" fill="#00CBC1"/>
<path fill-rule="evenodd" clip-rule="evenodd" d="M13.194 9.54775C13.7198 9.37875 14.283 9.66798 14.4521 10.1938L15.5625 13.6486L17.0809 10.1059C17.2385 9.73818 17.6 9.49978 18 9.49978C18.4001 9.49978 18.7616 9.73818 18.9192 10.1059L20.4375 13.6486L21.548 10.1938C21.717 9.66798 22.2802 9.37875 22.806 9.54775C23.3318 9.71676 23.6211 10.28 23.4521 10.8058L21.5235 16.8058C21.3958 17.2029 21.0351 17.4791 20.6184 17.4987C20.2017 17.5183 19.8166 17.2771 19.6523 16.8937L18 13.0384L16.3477 16.8937C16.1834 17.2771 15.7984 17.5183 15.3817 17.4987C14.965 17.4791 14.6042 17.2029 14.4766 16.8058L12.548 10.8058C12.379 10.28 12.6682 9.71676 13.194 9.54775Z" fill="white"/>
<path d="M11.0002 13.5C11.0002 12.9477 11.448 12.5 12.0002 12.5H14.0002C14.5525 12.5 15.0002 12.9477 15.0002 13.5C15.0002 14.0523 14.5525 14.5 14.0002 14.5H12.0002C11.448 14.5 11.0002 14.0523 11.0002 13.5Z" fill="white"/>
<path d="M21.0002 13.5C21.0002 12.9477 21.448 12.5 22.0002 12.5H24.0002C24.5525 12.5 25.0002 12.9477 25.0002 13.5C25.0002 14.0523 24.5525 14.5 24.0002 14.5H22.0002C21.448 14.5 21.0002 14.0523 21.0002 13.5Z" fill="white"/>
<path d="M4 16L16 23.6667V29.0909C16 30.6976 14.5673 32 12.8 32H7.2C5.43269 32 4 30.6976 4 29.0909V16Z" fill="#D1E1F1"/>
<path d="M32 16L20 23.6667V29.0909C20 30.6976 21.4327 32 23.2 32H28.8C30.5673 32 32 30.6976 32 29.0909V16Z" fill="#D1E1F1"/>
<path d="M28 32H8L17.4363 22.2362C17.7406 21.9213 18.2594 21.9213 18.5637 22.2362L28 32Z" fill="#AFC3DC"/>
</svg>
