<svg width="24" height="24" viewBox="0 0 24 24" fill="none" xmlns="http://www.w3.org/2000/svg">
<path d="M2.5 6.11765C2.5 4.9481 3.44518 4 4.61111 4L19.3889 4C20.5548 4 21.5 4.9481 21.5 6.11765V19.8824C21.5 21.0519 20.5548 22 19.3889 22H4.61111C3.44518 22 2.5 21.0519 2.5 19.8824L2.5 6.11765Z" fill="#DCEAFC"/>
<path d="M5 2.33333C5 1.59695 5.67157 1 6.5 1C7.32843 1 8 1.59695 8 2.33333V5.66667C8 6.40305 7.32843 7 6.5 7C5.67157 7 5 6.40305 5 5.66667V2.33333Z" fill="#09203E"/>
<path d="M16 2.33333C16 1.59695 16.6716 1 17.5 1C18.3284 1 19 1.59695 19 2.33333V5.66667C19 6.40305 18.3284 7 17.5 7C16.6716 7 16 6.40305 16 5.66667V2.33333Z" fill="#09203E"/>
<path fill-rule="evenodd" clip-rule="evenodd" d="M8.44902 9.0536C8.75668 8.94463 9.09442 9.10571 9.20338 9.41337L10.3207 12.5683L11.4381 9.41337C11.5217 9.17741 11.7448 9.01969 11.9952 9.01969C12.2455 9.01969 12.4687 9.17741 12.5522 9.41337L13.6696 12.5683L14.787 9.41337C14.8959 9.10571 15.2337 8.94463 15.5413 9.0536C15.849 9.16256 16.0101 9.5003 15.9011 9.80796L14.2267 14.5358C14.1431 14.7717 13.9199 14.9294 13.6696 14.9294C13.4193 14.9294 13.1961 14.7717 13.1125 14.5358L11.9952 11.3809L10.8778 14.5358C10.7942 14.7717 10.5711 14.9294 10.3207 14.9294C10.0704 14.9294 9.84724 14.7717 9.76367 14.5358L8.08924 9.80796C7.98028 9.5003 8.14136 9.16256 8.44902 9.0536Z" fill="#0168FE"/>
<path fill-rule="evenodd" clip-rule="evenodd" d="M7.07031 11.7795C7.07031 11.4531 7.3349 11.1885 7.66129 11.1885L8.84324 11.1885C9.16962 11.1885 9.43421 11.4531 9.43421 11.7795C9.43421 12.1058 9.16962 12.3704 8.84324 12.3704L7.66129 12.3704C7.3349 12.3704 7.07031 12.1058 7.07031 11.7795Z" fill="#0168FE"/>
<path fill-rule="evenodd" clip-rule="evenodd" d="M14.5566 11.7795C14.5566 11.4531 14.8212 11.1885 15.1476 11.1885L16.3296 11.1885C16.656 11.1885 16.9205 11.4531 16.9205 11.7795C16.9205 12.1058 16.656 12.3704 16.3296 12.3704L15.1476 12.3704C14.8212 12.3704 14.5566 12.1058 14.5566 11.7795Z" fill="#0168FE"/>
<rect x="6" y="17" width="12" height="1.5" rx="0.75" fill="#8DADFF"/>
</svg>
