<svg width="36" height="36" viewBox="0 0 36 36" fill="none" xmlns="http://www.w3.org/2000/svg">
<path d="M13.0314 6.90939C12.8818 5.62646 13.8844 4.5 15.1761 4.5H20.8246C22.1162 4.5 23.1189 5.62646 22.9692 6.90939L22.8823 7.65448C22.5933 10.1319 20.4945 12 18.0003 12C15.5061 12 13.4074 10.1319 13.1184 7.65447L13.0314 6.90939Z" fill="#00A69E"/>
<path d="M6 22.5C6 15.8726 11.3726 10.5 18 10.5C24.6274 10.5 30 15.8726 30 22.5V25.5C30 28.8137 27.3137 31.5 24 31.5H12C8.68629 31.5 6 28.8137 6 25.5V22.5Z" fill="#20C7BF"/>
<path fill-rule="evenodd" clip-rule="evenodd" d="M13.2131 17.8577C13.706 17.6993 14.2341 17.9704 14.3925 18.4634L15.5542 22.0773L17.1383 18.381C17.286 18.0362 17.625 17.8128 18 17.8128C18.375 17.8128 18.714 18.0362 18.8617 18.381L20.4459 22.0773L21.6075 18.4634C21.7659 17.9704 22.294 17.6993 22.7869 17.8577C23.2798 18.0162 23.551 18.5442 23.3925 19.0371L23.0026 20.2502H24.1875C24.7053 20.2502 25.125 20.6699 25.125 21.1877C25.125 21.7055 24.7053 22.1252 24.1875 22.1252H22.6875C22.592 22.1252 22.4999 22.1109 22.4131 22.0844L21.464 25.0371C21.3443 25.4095 21.0061 25.6684 20.6154 25.6867C20.2248 25.7051 19.8638 25.479 19.7097 25.1196L18 21.1302L16.2903 25.1196C16.1362 25.479 15.7752 25.7051 15.3846 25.6867C14.9939 25.6684 14.6557 25.4095 14.536 25.0371L13.5869 22.0844C13.5001 22.1109 13.408 22.1252 13.3125 22.1252H11.8125C11.2947 22.1252 10.875 21.7055 10.875 21.1877C10.875 20.6699 11.2947 20.2502 11.8125 20.2502H12.9974L12.6075 19.0371C12.449 18.5442 12.7202 18.0162 13.2131 17.8577Z" fill="white"/>
<path fill-rule="evenodd" clip-rule="evenodd" d="M31.875 22.125C31.875 24.6103 29.8603 26.625 27.375 26.625C24.8897 26.625 22.875 24.6103 22.875 22.125C22.875 19.6397 24.8897 17.625 27.375 17.625C29.8603 17.625 31.875 19.6397 31.875 22.125ZM31.2467 27.19C30.1734 28.0118 28.8312 28.5 27.375 28.5C23.8542 28.5 21 25.6458 21 22.125C21 18.6042 23.8542 15.75 27.375 15.75C30.8958 15.75 33.75 18.6042 33.75 22.125C33.75 23.5132 33.3063 24.7978 32.553 25.8446L35.1868 28.4785C35.5529 28.8446 35.5529 29.4382 35.1868 29.8043C34.8207 30.1704 34.2271 30.1704 33.861 29.8043L31.2467 27.19Z" fill="#4E627D"/>
</svg>
