<svg width="48" height="48" viewBox="0 0 48 48" fill="none" xmlns="http://www.w3.org/2000/svg">
<rect width="48" height="48" rx="16" fill="white"/>
<path d="M9.32826 30.0005H14.8957V34.5002C14.8957 35.3286 14.2726 36.0001 13.5039 36.0001H10.7201C9.95142 36.0001 9.32826 35.3286 9.32826 34.5002V30.0005Z" fill="#003582"/>
<path d="M32.1043 30.0005H37.6717V34.5002C37.6717 35.3286 37.0486 36.0001 36.2799 36.0001H33.4961C32.7274 36.0001 32.1043 35.3286 32.1043 34.5002V30.0005Z" fill="#003582"/>
<path fill-rule="evenodd" clip-rule="evenodd" d="M10.0143 23.1339L12.1702 20.6025C12.9232 18.4022 15.0558 14.0015 17.5626 14.0015H17.6354H20.7688H26.304H29.5103H29.8018C30.5305 14.0015 31.1699 14.3657 31.5308 14.9136C33.1162 16.3217 34.3634 19.0265 34.9027 20.6025L37.1417 23.2411C37.1417 23.2411 37.6717 23.8268 37.6717 25.2661V32.4444C37.6717 32.7514 37.6717 33.0003 37.6717 33.0003H9.32826C9.32826 33.0003 9.32826 32.7514 9.32826 32.4444V25.2661C9.32826 23.8268 9.97243 23.1971 10.0143 23.1339Z" fill="#0168FE"/>
<path d="M13.0049 15.547C13.44 13.477 15.2166 12 17.2714 12H29.7286C31.7834 12 33.56 13.477 33.9951 15.547L35.1411 20.9995H11.8589L13.0049 15.547Z" fill="#0168FE"/>
<path fill-rule="evenodd" clip-rule="evenodd" d="M9.46246 17.501C8.10248 17.501 7 18.8654 7 20.5484C7 21.0744 7.34452 21.5007 7.76952 21.5007H10.6956H12.0565H13.0771V20.0271H12.0565V18.343C12.0565 17.878 11.7518 17.501 11.3761 17.501H9.46246Z" fill="#0168FE"/>
<path fill-rule="evenodd" clip-rule="evenodd" d="M37.5375 17.501C38.8975 17.501 40 18.8654 40 20.5484C40 21.0744 39.6555 21.5007 39.2305 21.5007H36.3044H34.9436H33.923V20.0271H34.9436V18.343C34.9436 17.878 35.2482 17.501 35.624 17.501H37.5375Z" fill="#0168FE"/>
<path d="M14.4959 16.008C14.7495 14.5616 16.0658 13.5015 17.608 13.5015H29.392C30.9342 13.5015 32.2505 14.5616 32.5041 16.008L33.1165 19.5011H13.8835L14.4959 16.008Z" fill="#0048B1"/>
<path d="M11.8 26.7515C11.8 26.3373 12.1358 26.0015 12.55 26.0015H16.55C16.9643 26.0015 17.3 26.3373 17.3 26.7515V28.7515C17.3 29.1657 16.9643 29.5015 16.55 29.5015H12.55C12.1358 29.5015 11.8 29.1657 11.8 28.7515V26.7515Z" fill="white"/>
<path d="M29.3 26.7515C29.3 26.3373 29.6358 26.0015 30.05 26.0015H34.05C34.4643 26.0015 34.8 26.3373 34.8 26.7515V28.7515C34.8 29.1657 34.4643 29.5015 34.05 29.5015H30.05C29.6358 29.5015 29.3 29.1657 29.3 28.7515V26.7515Z" fill="white"/>
<path d="M35.4635 17.6565L34.2243 18.5845L36.8357 22.0717L38.0749 21.1438L35.4635 17.6565Z" fill="#C0C0C0"/>
<path d="M41.7143 27.3783C41.0299 27.8908 40.1652 27.8924 39.783 27.382L36.0048 22.3367C35.6226 21.8263 35.8675 20.997 36.5519 20.4845C37.2362 19.972 38.1009 19.9704 38.4831 20.4808L42.2613 25.5261C42.6435 26.0365 42.3986 26.8658 41.7143 27.3783Z" fill="#E74848"/>
<path d="M37.8034 11.9296C37.5893 11.0647 37.2079 10.2616 36.6698 9.54315C36.1315 8.82466 35.4684 8.23257 34.6985 7.78375C33.9556 7.35035 33.1453 7.06846 32.2903 6.94567C31.4353 6.82288 30.5787 6.8654 29.7436 7.07216C28.8786 7.28622 28.0759 7.66765 27.3571 8.20575C26.6387 8.74376 26.0466 9.407 25.5978 10.1767C25.1646 10.9197 24.8825 11.7301 24.7597 12.585C24.6369 13.4398 24.6796 14.2968 24.8862 15.1317C25.1002 15.9966 25.4816 16.7997 26.0198 17.5181C26.558 18.2369 27.221 18.8287 27.9907 19.2776C28.734 19.7108 29.5441 19.9928 30.399 20.1156C31.2538 20.2383 32.1108 20.1959 32.9457 19.9892C33.8106 19.775 34.6137 19.3938 35.3324 18.8555C36.0509 18.3175 36.643 17.6543 37.0918 16.8846C37.5249 16.1415 37.807 15.3312 37.9297 14.4763C38.0525 13.6215 38.01 12.7645 37.8034 11.9296ZM34.4044 17.6164C32.1513 19.3037 28.9461 18.8434 27.2589 16.5902C25.5719 14.3374 26.0322 11.132 28.285 9.44497C30.5378 7.7577 33.7433 8.21804 35.4305 10.4711C37.1175 12.724 36.6572 15.9294 34.4044 17.6164Z" fill="#C0C0C0"/>
<path opacity="0.3" d="M34.4044 17.6166C32.1513 19.3039 28.9461 18.8436 27.2589 16.5904C25.5719 14.3376 26.0322 11.1322 28.285 9.44518C30.5378 7.7579 33.7433 8.21824 35.4305 10.4714C37.1175 12.7242 36.6572 15.9296 34.4044 17.6166Z" fill="#DBEAF4"/>
<path opacity="0.1" d="M34.5282 10.2267C32.9382 8.69284 30.4191 8.49239 28.5949 9.85853C26.7409 11.2469 26.2376 13.7794 27.3299 15.7513C27.3324 15.7558 27.3351 15.7606 27.3379 15.7655C27.584 16.1952 28.1188 16.3654 28.5705 16.1624C30.9071 15.1119 32.9829 13.5578 34.6489 11.6114C34.9653 11.2418 34.9569 10.6942 34.6302 10.3335C34.5916 10.2909 34.5568 10.2541 34.5284 10.2267L34.5282 10.2267Z" fill="white"/>
</svg>
