<svg width="36" height="36" viewBox="0 0 36 36" fill="none" xmlns="http://www.w3.org/2000/svg">
<rect x="6" y="3" width="24" height="30" rx="4" fill="#DCEAFC"/>
<rect x="11.5" y="7" width="13" height="13" rx="6.5" fill="#0168FE"/>
<path fill-rule="evenodd" clip-rule="evenodd" d="M15.1104 11.3582C15.3952 11.2666 15.7003 11.4233 15.7919 11.7081L16.4934 13.8906L17.4491 11.6605C17.5345 11.4613 17.7303 11.3322 17.947 11.3322C18.1637 11.3322 18.3595 11.4613 18.4449 11.6605L19.4006 13.8906L20.1021 11.7081C20.1937 11.4233 20.4988 11.2666 20.7836 11.3582C21.0684 11.4497 21.225 11.7548 21.1335 12.0396L19.9889 15.6007C19.9197 15.8158 19.7243 15.9654 19.4986 15.976C19.2729 15.9866 19.0643 15.856 18.9753 15.6483L17.947 13.2489L16.9187 15.6483C16.8297 15.856 16.6211 15.9866 16.3954 15.976C16.1697 15.9654 15.9743 15.8158 15.9051 15.6007L14.7605 12.0396C14.669 11.7548 14.8256 11.4497 15.1104 11.3582Z" fill="white"/>
<path d="M13.6719 13.512C13.6719 13.1969 13.9273 12.9414 14.2425 12.9414H15.2379C15.5531 12.9414 15.8085 13.1969 15.8085 13.512C15.8085 13.8271 15.5531 14.0826 15.2379 14.0826H14.2425C13.9273 14.0826 13.6719 13.8271 13.6719 13.512Z" fill="white"/>
<path d="M19.8984 13.512C19.8984 13.1969 20.1539 12.9414 20.469 12.9414H21.4645C21.7796 12.9414 22.0351 13.1969 22.0351 13.512C22.0351 13.8271 21.7796 14.0826 21.4645 14.0826H20.469C20.1539 14.0826 19.8984 13.8271 19.8984 13.512Z" fill="white"/>
<path fill-rule="evenodd" clip-rule="evenodd" d="M31.5625 28.5625C31.5625 30.6336 29.8836 32.3125 27.8125 32.3125C25.7414 32.3125 24.0625 30.6336 24.0625 28.5625C24.0625 26.4914 25.7414 24.8125 27.8125 24.8125C29.8836 24.8125 31.5625 26.4914 31.5625 28.5625ZM31.0389 32.7834C30.1445 33.4681 29.026 33.875 27.8125 33.875C24.8785 33.875 22.5 31.4965 22.5 28.5625C22.5 25.6285 24.8785 23.25 27.8125 23.25C30.7465 23.25 33.125 25.6285 33.125 28.5625C33.125 29.7193 32.7552 30.7898 32.1275 31.6622L34.3223 33.857C34.6274 34.1621 34.6274 34.6568 34.3223 34.9619C34.0172 35.267 33.5226 35.267 33.2175 34.9619L31.0389 32.7834Z" fill="#4E627D"/>
<rect x="12" y="23" width="12" height="2" rx="1" fill="#AFC3DC"/>
</svg>
