<svg width="40" height="40" viewBox="0 0 40 40" fill="none" xmlns="http://www.w3.org/2000/svg">
<path fill-rule="evenodd" clip-rule="evenodd" d="M34.5637 28.3856C34.88 28.7199 34.8654 29.2474 34.5311 29.5637L30.5677 33.3137C30.2418 33.622 29.7302 33.617 29.4104 33.3023L27.1238 31.0523C26.7958 30.7295 26.7915 30.2019 27.1143 29.8739C27.4371 29.5458 27.9648 29.5415 28.2928 29.8643L30.0063 31.5504L33.3856 28.353C33.7199 28.0367 34.2473 28.0513 34.5637 28.3856Z" fill="white"/>
<path d="M5.8335 16.6667C5.8335 14.8257 7.32588 13.3333 9.16683 13.3333H30.8335C32.6744 13.3333 34.1668 14.8257 34.1668 16.6667V30C34.1668 31.841 32.6744 33.3333 30.8335 33.3333H9.16683C7.32588 33.3333 5.8335 31.841 5.8335 30V16.6667Z" fill="#AFC3DC"/>
<path d="M8.3335 8.33333C8.3335 6.49238 9.82588 5 11.6668 5H27.5002C29.3411 5 30.8335 6.49238 30.8335 8.33333V25.8333C30.8335 27.6743 29.3411 29.1667 27.5002 29.1667H11.6668C9.82588 29.1667 8.3335 27.6743 8.3335 25.8333V8.33333Z" fill="white"/>
<path d="M11.6665 11.0417C11.6665 10.4664 12.1329 10 12.7082 10H25.6248C26.2001 10 26.6665 10.4664 26.6665 11.0417C26.6665 11.617 26.2001 12.0833 25.6248 12.0833H12.7082C12.1329 12.0833 11.6665 11.617 11.6665 11.0417Z" fill="#AFC3DC"/>
<path d="M11.6665 16.0417C11.6665 15.4664 12.1329 15 12.7082 15H21.4582C22.0335 15 22.4998 15.4664 22.4998 16.0417C22.4998 16.617 22.0335 17.0833 21.4582 17.0833H12.7082C12.1329 17.0833 11.6665 16.617 11.6665 16.0417Z" fill="#AFC3DC"/>
<path d="M5.8335 16.6667L18.3335 25.4514V31.6667C18.3335 33.5076 16.8411 35 15.0002 35H9.16683C7.32588 35 5.8335 33.5076 5.8335 31.6667V16.6667Z" fill="#D1E1F1"/>
<path d="M34.1665 16.6667L21.6665 25.4514V31.6667C21.6665 33.5076 23.1589 35 24.9998 35H30.8332C32.6741 35 34.1665 33.5076 34.1665 31.6667V16.6667Z" fill="#D1E1F1"/>
<path d="M30.8332 35H9.1665L19.3892 23.991C19.7189 23.6359 20.2808 23.6359 20.6105 23.991L30.8332 35Z" fill="#AFC3DC"/>
<path d="M38.3335 30.8333C38.3335 34.9755 34.9756 38.3333 30.8335 38.3333C26.6914 38.3333 23.3335 34.9755 23.3335 30.8333C23.3335 26.6912 26.6914 23.3333 30.8335 23.3333C34.9756 23.3333 38.3335 26.6912 38.3335 30.8333Z" fill="#0168FE"/>
<path fill-rule="evenodd" clip-rule="evenodd" d="M34.5637 28.3856C34.88 28.7199 34.8654 29.2474 34.5311 29.5637L30.5677 33.3137C30.2418 33.622 29.7302 33.617 29.4104 33.3023L27.1238 31.0523C26.7958 30.7295 26.7915 30.2019 27.1143 29.8739C27.4371 29.5458 27.9648 29.5415 28.2928 29.8643L30.0063 31.5504L33.3856 28.353C33.7199 28.0367 34.2473 28.0513 34.5637 28.3856Z" fill="white"/>
</svg>
