<svg width="36" height="36" viewBox="0 0 36 36" fill="none" xmlns="http://www.w3.org/2000/svg">
<path d="M24 10.4956C24 13.8093 21.3137 16.4956 18 16.4956C14.6863 16.4956 12 13.8093 12 10.4956C12 7.1819 14.6863 4.49561 18 4.49561C21.3137 4.49561 24 7.1819 24 10.4956Z" fill="#2AD6CE"/>
<path d="M4.75 28.7327C4.75 23.217 9.22137 18.7456 14.7371 18.7456H21.2629C26.7786 18.7456 31.25 23.217 31.25 28.7327C31.25 29.262 30.9845 29.7498 30.4985 29.9595C29.0582 30.5811 25.3756 31.7456 18 31.7456C10.6244 31.7456 6.94182 30.5811 5.5015 29.9595C5.01548 29.7498 4.75 29.262 4.75 28.7327Z" fill="#05B0A8"/>
<path fill-rule="evenodd" clip-rule="evenodd" d="M25.2805 19.6609C26.2591 18.7797 27.741 18.7797 28.7195 19.6609L29.8574 20.6856C30.1287 20.9299 30.4484 21.1136 30.7956 21.2246L32.2048 21.6753C33.438 22.0696 34.1886 23.3219 33.9587 24.6014L33.6274 26.4459C33.5683 26.7748 33.5731 27.112 33.6417 27.439L33.9136 28.7363C34.1719 29.9687 33.5098 31.209 32.345 31.6746L30.6235 32.3626C30.3884 32.4566 30.1684 32.5849 29.9705 32.7433L28.6053 33.836C27.666 34.588 26.334 34.588 25.3947 33.836L24.0295 32.7433C23.8316 32.5849 23.6116 32.4566 23.3765 32.3626L21.655 31.6746C20.4902 31.209 19.8281 29.9687 20.0864 28.7363L20.3583 27.439C20.4268 27.112 20.4317 26.7748 20.3726 26.4459L20.0413 24.6014C19.8114 23.3219 20.562 22.0696 21.7952 21.6753L23.2044 21.2246C23.5515 21.1136 23.8713 20.9299 24.1426 20.6856L25.2805 19.6609ZM27.0001 29.5001C28.5465 29.5001 29.8001 28.2465 29.8001 26.7001C29.8001 25.1537 28.5465 23.9001 27.0001 23.9001C25.4537 23.9001 24.2001 25.1537 24.2001 26.7001C24.2001 28.2465 25.4537 29.5001 27.0001 29.5001Z" fill="#074093"/>
</svg>
