<svg width="36" height="36" viewBox="0 0 36 36" fill="none" xmlns="http://www.w3.org/2000/svg">
<path d="M24 10.5C24 13.8137 21.3137 16.5 18 16.5C14.6863 16.5 12 13.8137 12 10.5C12 7.18629 14.6863 4.5 18 4.5C21.3137 4.5 24 7.18629 24 10.5Z" fill="#5A92F4"/>
<path d="M5 28.9199C5 23.1652 9.90078 18.5 15.9462 18.5H20.0538C26.0992 18.5 31 23.1652 31 28.9199C31 29.4427 30.7384 29.9293 30.2427 30.1543C28.8157 30.802 25.2026 32 18 32C10.7974 32 7.1843 30.802 5.75727 30.1543C5.26155 29.9293 5 29.4427 5 28.9199Z" fill="#0168FE"/>
<path fill-rule="evenodd" clip-rule="evenodd" d="M25.2805 19.6609C26.2591 18.7797 27.741 18.7797 28.7195 19.6609L29.8574 20.6856C30.1287 20.9299 30.4484 21.1136 30.7956 21.2246L32.2048 21.6753C33.438 22.0696 34.1886 23.3219 33.9587 24.6014L33.6274 26.4459C33.5683 26.7747 33.5731 27.112 33.6417 27.439L33.9136 28.7363C34.1719 29.9687 33.5098 31.209 32.345 31.6746L30.6235 32.3626C30.3884 32.4566 30.1684 32.5849 29.9705 32.7433L28.6053 33.836C27.666 34.588 26.334 34.588 25.3947 33.836L24.0295 32.7433C23.8316 32.5849 23.6116 32.4566 23.3765 32.3626L21.655 31.6746C20.4902 31.209 19.8281 29.9687 20.0864 28.7363L20.3583 27.439C20.4268 27.112 20.4317 26.7748 20.3726 26.4459L20.0413 24.6014C19.8114 23.3219 20.562 22.0696 21.7952 21.6753L23.2044 21.2246C23.5515 21.1136 23.8713 20.9299 24.1426 20.6856L25.2805 19.6609ZM27.0012 29.5014C28.5476 29.5014 29.8012 28.2478 29.8012 26.7014C29.8012 25.155 28.5476 23.9014 27.0012 23.9014C25.4548 23.9014 24.2012 25.155 24.2012 26.7014C24.2012 28.2478 25.4548 29.5014 27.0012 29.5014Z" fill="#003582"/>
</svg>
