<svg width="29" height="30" viewBox="0 0 29 30" fill="none" xmlns="http://www.w3.org/2000/svg">
<path d="M13.6257 1.3886C14.0178 0.988653 14.6619 0.988654 15.0539 1.3886L17.1886 3.56611C17.4318 3.81417 17.7863 3.91826 18.125 3.84105L21.098 3.16329C21.644 3.0388 22.1859 3.38701 22.2995 3.93543L22.918 6.92134C22.9885 7.2615 23.2304 7.54072 23.5571 7.65888L26.4246 8.69605C26.9512 8.88655 27.2188 9.47241 27.0179 9.99519L25.9239 12.8415C25.7993 13.1658 25.8518 13.5315 26.0628 13.8075L27.9143 16.2303C28.2544 16.6753 28.1627 17.3128 27.7111 17.6439L25.2519 19.447C24.9718 19.6524 24.8183 19.9884 24.8465 20.3347L25.0943 23.3739C25.1398 23.9321 24.718 24.4189 24.159 24.4533L21.1155 24.6405C20.7687 24.6619 20.4579 24.8616 20.2945 25.1682L18.8598 27.8589C18.5963 28.3531 17.9783 28.5345 17.4894 28.2612L14.8278 26.7733C14.5246 26.6038 14.1551 26.6038 13.8519 26.7733L11.1902 28.2612C10.7014 28.5345 10.0834 28.3531 9.81989 27.8589L8.38519 25.1682C8.22175 24.8616 7.91094 24.6619 7.56421 24.6405L4.52067 24.4533C3.96166 24.4189 3.53989 23.9321 3.58539 23.3739L3.83315 20.3347C3.86138 19.9884 3.7079 19.6524 3.42775 19.447L0.968611 17.6439C0.516942 17.3128 0.425283 16.6753 0.765357 16.2303L2.61691 13.8075C2.82784 13.5315 2.88042 13.1658 2.7558 12.8415L1.66183 9.99519C1.4609 9.47241 1.72845 8.88655 2.25512 8.69605L5.12262 7.65888C5.44929 7.54072 5.69123 7.2615 5.7617 6.92134L6.38022 3.93543C6.49383 3.38701 7.03565 3.0388 7.5817 3.16329L10.5547 3.84105C10.8934 3.91826 11.2479 3.81417 11.4911 3.56611L13.6257 1.3886Z" fill="#00A69E"/>
<path fill-rule="evenodd" clip-rule="evenodd" d="M19.2515 12.6873C19.6733 13.1331 19.6538 13.8363 19.2081 14.2581L13.9235 19.2581C13.489 19.6692 12.807 19.6625 12.3806 19.2429L9.3318 16.2429C8.8944 15.8125 8.88872 15.109 9.31913 14.6716C9.74953 14.2342 10.453 14.2286 10.8904 14.659L13.175 16.907L17.6808 12.6439C18.1266 12.2221 18.8298 12.2416 19.2515 12.6873Z" fill="white"/>
</svg>
