<svg width="36" height="36" viewBox="0 0 36 36" fill="none" xmlns="http://www.w3.org/2000/svg">
<path d="M7.16263 9.93226C7.33298 8.82123 8.29942 8 9.43655 8H26.5634C27.7006 8 28.667 8.82123 28.8374 9.93226L31.9736 30.3868C32.1844 31.7619 31.1071 33 29.6996 33H6.30036C4.89291 33 3.81559 31.7619 4.02643 30.3868L7.16263 9.93226Z" fill="#F64A4A"/>
<path fill-rule="evenodd" clip-rule="evenodd" d="M13 7.42188C13 4.66045 15.2386 2.42188 18 2.42188C20.7614 2.42188 23 4.66045 23 7.42188V9.42188C23 9.97416 22.5523 10.4219 22 10.4219C21.4477 10.4219 21 9.97416 21 9.42188V7.42188C21 5.76502 19.6569 4.42188 18 4.42188C16.3431 4.42188 15 5.76502 15 7.42188V9.42188C15 9.97416 14.5523 10.4219 14 10.4219C13.4477 10.4219 13 9.97416 13 9.42188V7.42188Z" fill="#2F3338"/>
<rect x="12" y="15" width="5" height="5" rx="1" fill="white"/>
<rect x="12" y="22" width="5" height="5" rx="1" fill="white"/>
<rect x="19" y="15" width="5" height="5" rx="1" fill="white"/>
<rect x="19" y="22" width="5" height="5" rx="1" fill="#FED84A"/>
</svg>
