<svg width="36" height="36" viewBox="0 0 36 36" fill="none" xmlns="http://www.w3.org/2000/svg">
<path d="M6.21315 10.9451C6.36738 9.27095 7.60292 8 9.07622 8H26.9238C28.3971 8 29.6326 9.27095 29.7868 10.9451L31.4839 29.3662C31.6628 31.3084 30.33 33 28.6208 33H7.37919C5.67 33 4.3372 31.3084 4.51613 29.3662L6.21315 10.9451Z" fill="#F64A4A"/>
<path d="M11.25 15.25C11.25 14.6977 11.6977 14.25 12.25 14.25H15.75C16.3023 14.25 16.75 14.6977 16.75 15.25V18.75C16.75 19.3023 16.3023 19.75 15.75 19.75H12.25C11.6977 19.75 11.25 19.3023 11.25 18.75V15.25Z" fill="white"/>
<path d="M11.25 23.25C11.25 22.6977 11.6977 22.25 12.25 22.25H15.75C16.3023 22.25 16.75 22.6977 16.75 23.25V26.75C16.75 27.3023 16.3023 27.75 15.75 27.75H12.25C11.6977 27.75 11.25 27.3023 11.25 26.75V23.25Z" fill="white"/>
<path d="M19.25 15.25C19.25 14.6977 19.6977 14.25 20.25 14.25H23.75C24.3023 14.25 24.75 14.6977 24.75 15.25V18.75C24.75 19.3023 24.3023 19.75 23.75 19.75H20.25C19.6977 19.75 19.25 19.3023 19.25 18.75V15.25Z" fill="white"/>
<path d="M19.25 23.25C19.25 22.6977 19.6977 22.25 20.25 22.25H23.75C24.3023 22.25 24.75 22.6977 24.75 23.25V26.75C24.75 27.3023 24.3023 27.75 23.75 27.75H20.25C19.6977 27.75 19.25 27.3023 19.25 26.75V23.25Z" fill="#FED84A"/>
<path fill-rule="evenodd" clip-rule="evenodd" d="M18 1C14.9624 1 12.5 3.46243 12.5 6.5V10C12.5 10.5523 12.9477 11 13.5 11C14.0523 11 14.5 10.5523 14.5 10V6.5C14.5 4.567 16.067 3 18 3C19.933 3 21.5 4.567 21.5 6.5V10C21.5 10.5523 21.9477 11 22.5 11C23.0523 11 23.5 10.5523 23.5 10V6.5C23.5 3.46243 21.0376 1 18 1Z" fill="#2F3338"/>
</svg>
