<svg width="36" height="37" viewBox="0 0 36 37" fill="none" xmlns="http://www.w3.org/2000/svg">
<path d="M6 29C6 30.6569 7.34315 32 9 32L26 32C27.6569 32 29 30.6569 29 29L29 8C29 6.34315 27.6569 5 26 5L9 5C7.34315 5 6 6.34315 6 8L6 29Z" fill="#FFA514"/>
<path d="M9 27C9 28.1046 9.89543 29 11 29L27 29C28.1046 29 29 28.1046 29 27V25C29 23.8954 28.1046 23 27 23L11 23C9.89543 23 9 23.8954 9 25L9 27Z" fill="#DCEAFC"/>
<path d="M13.9645 5.00021L9 5.00021C7.34315 5.00021 6 6.34335 6 8.00021L6 29.0002C6 29.043 6.0009 29.0856 6.00267 29.1279C6.06664 27.6659 7.27219 26.5002 8.75 26.5002L26 26.5C27.6569 26.5 29 25.1569 29 23.5L29 8C29 6.34315 27.6569 5 26 5L14 5C13.9882 5 13.9763 5.00007 13.9645 5.00021Z" fill="#FFC737"/>
<path d="M10 5.2C10 5.08954 10.0895 5 10.2 5H17.8C17.9105 5 18 5.08954 18 5.2V15.6C18 15.7648 17.8118 15.8589 17.68 15.76L14.12 13.09C14.0489 13.0367 13.9511 13.0367 13.88 13.09L10.32 15.76C10.1882 15.8589 10 15.7648 10 15.6V5.2Z" fill="#2AD6CE"/>
</svg>
