<svg width="36" height="37" viewBox="0 0 36 37" fill="none" xmlns="http://www.w3.org/2000/svg">
<path d="M30.1018 8.05945C30.6876 8.64523 30.6876 9.59497 30.1018 10.1807L8.18172 32.1008C7.59594 32.6866 6.64621 32.6866 6.06043 32.1008C5.47465 31.515 5.47465 30.5653 6.06043 29.9795L27.9805 8.05945C28.5663 7.47367 29.516 7.47367 30.1018 8.05945Z" fill="#4E627D"/>
<path d="M32.8463 12.2213C32.2606 12.8071 31.3108 12.8071 30.725 12.2213L25.7753 7.2716C25.1895 6.68581 25.1895 5.73606 25.7753 5.15028C26.3611 4.56449 27.3108 4.56449 27.8966 5.15028L32.8463 10.1C33.4321 10.6858 33.4321 11.6356 32.8463 12.2213Z" fill="#4E627D"/>
<path d="M16.2319 10.4529C17.4034 9.28133 19.3029 9.28133 20.4745 10.4529L27.5456 17.524C28.7171 18.6955 28.7171 20.595 27.5456 21.7666L19.712 29.6002C18.9179 30.3943 17.7468 30.6783 16.6771 30.3364L12.6824 29.0593C12.2269 28.9137 11.8128 28.6612 11.4746 28.3231L9.67538 26.5238C9.33722 26.1857 9.0848 25.7716 8.93918 25.3161L7.66208 21.3213C7.32012 20.2516 7.6042 19.0805 8.39829 18.2865L16.2319 10.4529Z" fill="#20C7BF"/>
<path d="M15.8807 5.14923C16.857 4.17291 18.4399 4.17291 19.4162 5.14923L32.8512 18.5843C33.8275 19.5606 33.8275 21.1435 32.8512 22.1198C31.8749 23.0961 30.292 23.0961 29.3157 22.1198L15.8807 8.68476C14.9044 7.70845 14.9044 6.12554 15.8807 5.14923Z" fill="#2AD6CE"/>
</svg>
