<svg width="21" height="20" viewBox="0 0 21 20" fill="none" xmlns="http://www.w3.org/2000/svg">
<g clip-path="url(#clip0_754_2191)">
<path d="M13.7703 16.4412C13.7428 16.4353 13.7144 16.4293 13.6869 16.4234C11.1844 15.6785 9.02897 14.0669 7.60658 11.8774C6.18418 9.68785 5.58779 7.06344 5.92422 4.47423C5.94411 4.3278 5.99374 4.18698 6.07006 4.06043C6.14638 3.93388 6.24777 3.82428 6.36801 3.73836C6.48534 3.65449 6.61879 3.59587 6.75993 3.56622C6.90107 3.53657 7.04682 3.53653 7.18798 3.56609L9.3489 4.00939C9.58017 4.0574 9.78871 4.18145 9.94127 4.36177C10.0938 4.54209 10.1816 4.76829 10.1907 5.00432L10.2604 6.88746C10.2682 7.09528 10.2141 7.30075 10.1048 7.47771C9.99558 7.65467 9.83614 7.79513 9.64682 7.88121L8.64555 8.3386C9.10988 9.88329 10.001 11.2655 11.2162 12.3261L12.074 11.5796C12.231 11.4432 12.4247 11.3561 12.6309 11.3291C12.8371 11.3021 13.0466 11.3364 13.2334 11.4278L14.9377 12.2576C15.1511 12.36 15.3237 12.5313 15.4277 12.7439C15.5318 12.9564 15.5611 13.1978 15.5112 13.4291L15.0422 15.6344C15.0129 15.7754 14.9545 15.9088 14.8705 16.0259C14.7866 16.1429 14.679 16.2411 14.5548 16.314C14.3186 16.4536 14.0384 16.499 13.7703 16.4412Z" fill="white"/>
</g>
<defs>
<clipPath id="clip0_754_2191">
<rect width="13.3333" height="13.3333" fill="white" transform="translate(3.83203 3.33301)"/>
</clipPath>
</defs>
</svg>
