<svg width="24" height="24" viewBox="0 0 24 24" fill="none" xmlns="http://www.w3.org/2000/svg">
<path d="M4.00098 7.28461C4.01119 6.04969 4.83652 5.00315 6.00065 4.5909L10.3992 3.03325C11.4359 2.66613 12.5672 2.66613 13.6038 3.03325L17.9976 4.58923C19.1642 5.00234 19.9903 6.05232 19.9992 7.28983C20.016 9.60058 19.7667 13.3764 18.1785 15.8258C16.5043 18.4079 12.9897 20.8658 12.0015 20.8658C11.0133 20.8658 7.41967 18.2963 5.8247 15.8258C4.22929 13.3547 3.98192 9.58803 4.00098 7.28461Z" fill="#428FFF"/>
<path fill-rule="evenodd" clip-rule="evenodd" d="M12 2.75684V20.8647C11.0096 20.8621 7.41885 18.2939 5.8247 15.8247C4.22929 13.3536 3.98192 9.58695 4.00098 7.28354C4.01119 6.04861 4.83652 5.00207 6.00065 4.58982L10.3992 3.03217C10.9171 2.84879 11.4585 2.75701 12 2.75684Z" fill="#0168FE"/>
</svg>
