<svg width="36" height="36" viewBox="0 0 36 36" fill="none" xmlns="http://www.w3.org/2000/svg">
<path fill-rule="evenodd" clip-rule="evenodd" d="M10 4.00049C8.34315 4.00049 7 5.34363 7 7.00049V29.0005C7 30.6573 8.34315 32.0005 10 32.0005H26C27.6569 32.0005 29 30.6573 29 29.0005V12.0005L21 4.00049H10Z" fill="#2AD6CE"/>
<path fill-rule="evenodd" clip-rule="evenodd" d="M23 12.0005H29L21 4.00049V10.0005C21 11.1051 21.8954 12.0005 23 12.0005Z" fill="#00A69E"/>
<path d="M12 25.0005C12 24.4482 12.3358 24.0005 12.75 24.0005H23.25C23.6642 24.0005 24 24.4482 24 25.0005C24 25.5528 23.6642 26.0005 23.25 26.0005H12.75C12.3358 26.0005 12 25.5528 12 25.0005Z" fill="white"/>
<path fill-rule="evenodd" clip-rule="evenodd" d="M31 24.0005C31 26.2096 29.2091 28.0005 27 28.0005C24.7909 28.0005 23 26.2096 23 24.0005C23 21.7913 24.7909 20.0005 27 20.0005C29.2091 20.0005 31 21.7913 31 24.0005ZM30.1237 29.1242C29.2138 29.6801 28.1443 30.0005 27 30.0005C23.6863 30.0005 21 27.3142 21 24.0005C21 20.6868 23.6863 18.0005 27 18.0005C30.3137 18.0005 33 20.6868 33 24.0005C33 25.4464 32.4886 26.7728 31.6367 27.8088L33.9497 30.1218C34.3403 30.5123 34.3403 31.1455 33.9497 31.536C33.5592 31.9265 32.9261 31.9265 32.5355 31.536L30.1237 29.1242Z" fill="#3E4C60"/>
<path fill-rule="evenodd" clip-rule="evenodd" d="M22.4441 14.2806C22.8417 14.664 22.8532 15.2971 22.4698 15.6946L17.6484 20.6946C17.4599 20.8901 17.2001 21.0005 16.9286 21.0005C16.6571 21.0005 16.3972 20.8901 16.2087 20.6946L13.5302 17.9168C13.1468 17.5193 13.1583 16.8862 13.5559 16.5029C13.9534 16.1195 14.5865 16.131 14.9698 16.5286L16.9286 18.5598L21.0302 14.3064C21.4135 13.9088 22.0466 13.8973 22.4441 14.2806Z" fill="white"/>
</svg>
