<svg width="17" height="16" viewBox="0 0 17 16" fill="none" xmlns="http://www.w3.org/2000/svg">
<path d="M9.14536 7.74538V5.11769C9.14536 4.9456 9.0891 4.8033 8.97658 4.68747C8.86406 4.57495 8.72176 4.51869 8.54967 4.51869C8.37758 4.51869 8.23527 4.57495 8.11944 4.68747C8.00361 4.79999 7.94735 4.9456 7.94735 5.11769V7.98697C7.94735 8.07302 7.96059 8.15244 7.99037 8.22525C8.02016 8.29806 8.05987 8.37086 8.11613 8.44036L10.3864 10.7934C10.5122 10.9224 10.6611 10.9853 10.8332 10.9787C11.0053 10.9721 11.1542 10.9125 11.2799 10.7934C11.4057 10.6742 11.4653 10.5286 11.4653 10.3532C11.4653 10.1778 11.4024 10.0289 11.2799 9.90644L9.14536 7.74869V7.74538ZM8.49672 14.8574C7.55353 14.8574 6.6666 14.6786 5.83262 14.3179C4.99865 13.9572 4.27388 13.4674 3.65171 12.8485C3.02954 12.2264 2.53974 11.5016 2.18232 10.6676C1.82159 9.83694 1.64288 8.94671 1.64288 8.00683C1.64288 7.06695 1.82159 6.17671 2.18232 5.34274C2.54305 4.50876 3.03284 3.78399 3.65171 3.16513C4.27057 2.54627 4.99865 2.05316 5.82931 1.68912C6.66329 1.32509 7.55022 1.14307 8.49341 1.14307C9.43659 1.14307 10.3235 1.32509 11.1575 1.68912C11.9915 2.05316 12.7162 2.54296 13.3351 3.16513C13.954 3.7873 14.4471 4.51207 14.8111 5.34274C15.1751 6.1734 15.3572 7.06364 15.3572 8.00683C15.3572 8.95002 15.1751 9.83694 14.8111 10.6709C14.4471 11.5049 13.9573 12.2297 13.3351 12.8485C12.7162 13.4674 11.9882 13.9572 11.1575 14.3179C10.3235 14.6786 9.43659 14.8574 8.49341 14.8574H8.49672ZM8.4901 13.5468C10.0124 13.5468 11.3164 13.0074 12.4052 11.9252C13.494 10.843 14.0367 9.53909 14.0367 8.01014C14.0367 6.48118 13.494 5.17395 12.4052 4.09177C11.3197 3.00628 10.0157 2.46684 8.49341 2.46684C6.97107 2.46684 5.66384 3.00959 4.57835 4.09177C3.49286 5.17395 2.95011 6.48118 2.95011 8.00683C2.95011 9.53248 3.49286 10.8463 4.57835 11.9252C5.66384 13.0074 6.96776 13.5468 8.4901 13.5468Z" fill="#757575"/>
</svg>
