<svg width="22" height="22" viewBox="0 0 22 22" fill="none" xmlns="http://www.w3.org/2000/svg">
<path d="M20.1654 10.9997C20.1654 16.0623 16.0613 20.1663 10.9987 20.1663C5.93609 20.1663 1.83203 16.0623 1.83203 10.9997C1.83203 5.93706 5.93609 1.83301 10.9987 1.83301C16.0613 1.83301 20.1654 5.93706 20.1654 10.9997Z" fill="#9E9E9E"/>
<path d="M10.9015 5.5C11.4148 5.5 11.8759 5.56654 12.2846 5.69963C12.6934 5.82321 13.0404 6.00383 13.3256 6.24148C13.6107 6.46963 13.8294 6.74531 13.9815 7.06852C14.1336 7.39173 14.2096 7.74821 14.2096 8.13796V8.29481C14.2096 8.52296 14.1811 8.74161 14.1241 8.95074C14.0765 9.15037 13.9862 9.35475 13.8532 9.56389C13.7296 9.77303 13.5537 9.99642 13.3256 10.2341C13.1069 10.4717 12.8312 10.7427 12.4985 11.0469C12.2894 11.237 12.123 11.4033 11.9995 11.5459C11.8759 11.679 11.7808 11.8073 11.7143 11.9309C11.6477 12.045 11.6049 12.1638 11.5859 12.2874C11.5669 12.4015 11.5574 12.5346 11.5574 12.6867C11.5574 12.9053 11.4719 13.0764 11.3007 13.2C11.1391 13.3236 10.949 13.3854 10.7304 13.3854C10.4927 13.3854 10.2883 13.3283 10.1172 13.2143C9.94612 13.0907 9.86056 12.9006 9.86056 12.6439C9.86056 12.3967 9.87482 12.1733 9.90334 11.9737C9.93186 11.7741 9.98414 11.584 10.0602 11.4033C10.1457 11.2132 10.2646 11.0278 10.4167 10.8472C10.5783 10.6571 10.7874 10.448 11.0441 10.2198C11.3388 9.96315 11.5717 9.74926 11.7428 9.57815C11.9234 9.39753 12.0612 9.23593 12.1563 9.09333C12.2514 8.95074 12.3132 8.82241 12.3417 8.70833C12.3702 8.58475 12.3845 8.45167 12.3845 8.30907V8.23778C12.3845 8.08568 12.3559 7.94309 12.2989 7.81C12.2419 7.67691 12.1515 7.55809 12.028 7.45352C11.9139 7.34895 11.757 7.26815 11.5574 7.21111C11.3673 7.14457 11.1296 7.1113 10.8445 7.1113C10.4642 7.1113 10.1315 7.16833 9.8463 7.28241C9.56112 7.39648 9.29019 7.54383 9.03352 7.72444C8.8434 7.85753 8.65328 7.90506 8.46315 7.86704C8.28254 7.81951 8.12568 7.70543 7.9926 7.52481C7.85951 7.3537 7.79297 7.16358 7.79297 6.95444C7.80247 6.7358 7.90229 6.55519 8.09241 6.41259C8.44414 6.13691 8.84815 5.91827 9.30445 5.75667C9.77025 5.58556 10.3026 5.5 10.9015 5.5ZM10.7161 14.3407C11.0203 14.3407 11.277 14.4453 11.4861 14.6544C11.6953 14.8636 11.7998 15.1202 11.7998 15.4244C11.7998 15.7286 11.6953 15.9853 11.4861 16.1944C11.277 16.4036 11.0203 16.5081 10.7161 16.5081C10.4119 16.5081 10.1553 16.4036 9.94612 16.1944C9.73698 15.9853 9.63241 15.7286 9.63241 15.4244C9.63241 15.1202 9.73698 14.8636 9.94612 14.6544C10.1553 14.4453 10.4119 14.3407 10.7161 14.3407Z" fill="white"/>
</svg>
