<svg width="36" height="37" viewBox="0 0 36 37" fill="none" xmlns="http://www.w3.org/2000/svg">
<path d="M15.147 29.1543C12.6874 21.8686 13.3332 16.4757 14.358 14.1543H18.3411C16.4965 19.7257 25.1395 26.1186 27.4453 29.1543H15.147Z" fill="#FFA514"/>
<path d="M18.5041 9.87389C24.8931 10.0801 30 14.6953 30 20.3586C30 20.9745 29.1786 21.0421 28.892 20.5007C27.4303 17.7397 24.6417 15.6307 21.2457 14.8063C20.8818 14.718 20.5163 14.8903 20.1997 15.0901L17.1074 17.0417C16.6093 17.3561 15.9845 17.3708 15.4728 17.0801L12.0369 15.1286C11.6781 14.9247 11.2716 14.7362 10.8741 14.8473C7.83675 15.697 5.34588 17.7743 4.02522 20.4811C3.77405 20.9959 3 20.9342 3 20.3586C3 14.7392 7.609 10.1518 13.4019 9.87948C13.9101 9.85559 14.1994 9.87389 14.34 9.87389L17.2596 9.87444C17.3949 9.87444 18.215 9.8645 18.5041 9.87389Z" fill="#20C7BF"/>
<path d="M4.10408 9.05938C7.11533 4.69109 12.2955 4.37996 16 8.18463C19.7045 4.37996 24.8847 4.69109 27.8959 9.05938C28.2074 9.51124 27.7612 10.1389 27.3284 9.91872C24.7757 8.61992 21.7604 9.01278 19.2575 11.1133L18.7101 11.5589L18.1858 12.155C18.0885 12.2639 17.9923 12.3757 17.8973 12.4905L17.8746 12.5147C16.8505 13.6074 15.1127 13.5963 14.1027 12.4905C14.0077 12.3757 13.9115 12.2639 13.8141 12.155L13.241 11.5589L12.6945 11.0732C10.2011 9.00783 7.20797 8.62822 4.67161 9.91872C4.23881 10.1389 3.79259 9.51124 4.10408 9.05938Z" fill="#00A69E"/>
<path d="M7 29.9466C7 26.1101 11.1468 23 16.2622 23H19.7378C24.8532 23 29 26.1101 29 29.9466C29 30.2951 28.7787 30.6196 28.3592 30.7695C27.1517 31.2013 24.0945 32 18 32C11.9055 32 8.84825 31.2013 7.64076 30.7695C7.22131 30.6196 7 30.2951 7 29.9466Z" fill="#FFC737"/>
</svg>
