<svg width="36" height="37" viewBox="0 0 36 37" fill="none" xmlns="http://www.w3.org/2000/svg">
<rect x="16.5" y="15.5" width="3" height="14" fill="#82A3D2"/>
<path d="M11 31C11 30.1716 11.6716 29.5 12.5 29.5H23.5C24.3284 29.5 25 30.1716 25 31C25 31.8284 24.3284 32.5 23.5 32.5H12.5C11.6716 32.5 11 31.8284 11 31Z" fill="#293547"/>
<path d="M6.21441 20C4.43921 20 2.96437 18.544 3.34024 16.8091C4.80289 10.0577 10.8109 5 18.0001 5C13.858 5 10.5001 11.7157 10.5001 20H6.21441Z" fill="#0168FE"/>
<path d="M29.7857 20C31.5609 20 33.0358 18.544 32.6599 16.8091C31.1972 10.0577 25.1893 5 18 5C22.1421 5 25.5 11.7157 25.5 20H29.7857Z" fill="#DCEAFC"/>
<path d="M18 5C13.8579 5 10.5 11.7157 10.5 20H18V5Z" fill="#DCEAFC"/>
<path d="M18 5C22.1421 5 25.5 11.7157 25.5 20H18V5Z" fill="#0168FE"/>
</svg>
