<svg width="24" height="24" viewBox="0 0 24 24" fill="none" xmlns="http://www.w3.org/2000/svg">
<path d="M7.30849 10.1604C7.51254 9.59969 8.13244 9.31059 8.69307 9.51467L12.0768 10.7464C12.6374 10.9504 12.9265 11.5704 12.7224 12.1311L9.2189 21.7579C8.86965 22.7176 7.50702 22.7016 7.18031 21.734L7.12225 21.5621C6.90076 20.9062 6.12817 20.6249 5.53691 20.985L5.38193 21.0794C4.50977 21.6106 3.4557 20.7468 3.80495 19.7872L7.30849 10.1604Z" fill="#3A81E0"/>
<path d="M9.65844 12.9618C9.36013 12.445 9.53716 11.7843 10.0538 11.486L13.1723 9.68534C13.689 9.38701 14.3497 9.56405 14.648 10.0808L19.7698 18.9529C20.2804 19.8373 19.3923 20.871 18.4411 20.4994L18.2721 20.4333C17.6273 20.1814 16.9153 20.5925 16.8111 21.277L16.7838 21.4564C16.63 22.466 15.2908 22.7183 14.7803 21.8339L9.65844 12.9618Z" fill="#3A81E0"/>
<path d="M9.76107 1.69017C11.0501 0.591559 12.946 0.591559 14.235 1.69017C14.7874 2.16095 15.4742 2.44546 16.1977 2.50319C17.8859 2.63793 19.2265 3.97866 19.3612 5.66706C19.419 6.39058 19.7034 7.07745 20.1742 7.62988C21.2727 8.91904 21.2727 10.8151 20.1742 12.1043C19.7034 12.6567 19.419 13.3436 19.3612 14.0671C19.2265 15.7555 17.8859 17.0962 16.1977 17.231C15.4742 17.2887 14.7874 17.5732 14.235 18.044C12.946 19.1426 11.0501 19.1426 9.76107 18.044C9.20869 17.5732 8.52189 17.2887 7.79844 17.231C6.1102 17.0962 4.7696 15.7555 4.63487 14.0671C4.57714 13.3436 4.29266 12.6567 3.82192 12.1043C2.72342 10.8151 2.72342 8.91904 3.82192 7.62988C4.29266 7.07745 4.57714 6.39058 4.63487 5.66706C4.7696 3.97866 6.1102 2.63793 7.79844 2.50319C8.52189 2.44546 9.20869 2.16095 9.76107 1.69017Z" fill="#FFCB29"/>
<ellipse cx="11.998" cy="9.87134" rx="5.76141" ry="5.76196" fill="#FAA629"/>
</svg>
