<svg width="24" height="24" viewBox="0 0 24 24" fill="none" xmlns="http://www.w3.org/2000/svg">
<rect x="4.5" y="3" width="15" height="18" rx="2.5" fill="#DCEAFC"/>
<rect x="7.5" y="7" width="9" height="1.25" rx="0.625" fill="#AFC3DC"/>
<rect x="7.5" y="10" width="6.5" height="1.25" rx="0.625" fill="#AFC3DC"/>
<path d="M22 17.5C22 19.9853 19.9853 22 17.5 22C15.0147 22 13 19.9853 13 17.5C13 15.0147 15.0147 13 17.5 13C19.9853 13 22 15.0147 22 17.5Z" fill="#F64A4A"/>
<path d="M15.4327 16.0653C15.257 15.8895 15.257 15.6046 15.4327 15.4289C15.6084 15.2531 15.8934 15.2531 16.0691 15.4289L19.5693 18.9291C19.745 19.1048 19.745 19.3897 19.5693 19.5654C19.3935 19.7412 19.1086 19.7412 18.9329 19.5654L15.4327 16.0653Z" fill="white"/>
<path d="M18.932 15.4325C19.1078 15.2567 19.3927 15.2567 19.5684 15.4325C19.7442 15.6082 19.7442 15.8931 19.5684 16.0689L16.0683 19.569C15.8925 19.7448 15.6076 19.7448 15.4319 19.569C15.2561 19.3933 15.2561 19.1084 15.4319 18.9326L18.932 15.4325Z" fill="white"/>
</svg>
