<svg width="360" height="320" viewBox="0 0 360 320" fill="none" xmlns="http://www.w3.org/2000/svg">
<rect width="360" height="320" rx="8" fill="#F9F9F9"/>
<path d="M148.875 154.224V166H150.731V154.224H148.875ZM153.333 157.2V166H155.157V159.76C155.893 158.96 156.549 158.56 157.141 158.56C158.165 158.56 158.613 159.152 158.613 160.688V166H160.453V159.76C161.189 158.96 161.845 158.56 162.437 158.56C163.461 158.56 163.909 159.152 163.909 160.688V166H165.749V160.464C165.749 158.208 164.917 156.976 163.045 156.976C161.941 156.976 161.077 157.632 160.181 158.592C159.797 157.568 159.093 156.976 157.749 156.976C156.661 156.976 155.781 157.616 155.029 158.432H154.981L154.837 157.2H153.333ZM171.083 169.952C173.915 169.952 175.691 168.592 175.691 166.88C175.691 165.344 174.651 164.736 172.523 164.736H170.907C169.771 164.736 169.435 164.4 169.435 163.872C169.435 163.44 169.611 163.2 169.915 162.944C170.363 163.12 170.779 163.216 171.147 163.216C172.987 163.216 174.443 162.112 174.443 160.192C174.443 159.504 174.203 158.944 173.867 158.576H175.547V157.2H172.427C172.091 157.072 171.643 156.976 171.147 156.976C169.323 156.976 167.739 158.16 167.739 160.144C167.739 161.184 168.299 162.016 168.891 162.48V162.544C168.395 162.912 167.915 163.488 167.915 164.176C167.915 164.896 168.267 165.36 168.715 165.632V165.712C167.899 166.208 167.435 166.88 167.435 167.632C167.435 169.168 168.971 169.952 171.083 169.952ZM171.147 162.032C170.235 162.032 169.483 161.312 169.483 160.144C169.483 158.928 170.187 158.272 171.147 158.272C172.107 158.272 172.811 158.928 172.811 160.144C172.811 161.312 172.059 162.032 171.147 162.032ZM171.355 168.736C169.883 168.736 169.003 168.256 169.003 167.36C169.003 166.912 169.227 166.464 169.755 166.08C170.155 166.16 170.539 166.208 170.939 166.208H172.267C173.355 166.208 173.915 166.416 173.915 167.168C173.915 168 172.891 168.736 171.355 168.736ZM185.863 162.64L186.855 166H188.823L184.919 154.224H182.775L178.871 166H180.759L181.767 162.64H185.863ZM185.415 161.184H182.199L182.679 159.6C183.063 158.32 183.431 157.024 183.767 155.68H183.831C184.199 157.024 184.551 158.32 184.951 159.6L185.415 161.184ZM189.896 157.2V166H191.72V160.512C192.28 159.12 193.144 158.624 193.864 158.624C194.232 158.624 194.44 158.656 194.744 158.768L195.08 157.168C194.808 157.04 194.52 156.976 194.088 156.976C193.128 156.976 192.216 157.632 191.592 158.784H191.544L191.4 157.2H189.896ZM199.787 166.208C200.939 166.208 201.947 165.84 202.763 165.28L202.123 164.112C201.483 164.544 200.811 164.768 200.027 164.768C198.491 164.768 197.451 163.76 197.307 162.08H203.019C203.067 161.84 203.099 161.536 203.099 161.152C203.099 158.656 201.851 156.976 199.515 156.976C197.451 156.976 195.499 158.736 195.499 161.616C195.499 164.512 197.403 166.208 199.787 166.208ZM201.515 160.816H197.291C197.467 159.28 198.459 158.416 199.547 158.416C200.827 158.416 201.515 159.28 201.515 160.816ZM206.93 166.208C208.018 166.208 208.914 165.728 209.73 165.04H209.778L209.938 166H211.442V160.704C211.442 158.32 210.434 156.976 208.242 156.976C206.834 156.976 205.634 157.488 204.722 158.064L205.266 159.408C206.018 158.912 206.962 158.48 207.922 158.48C209.218 158.48 209.602 159.36 209.602 160.4C207.794 160.528 206.466 160.672 205.57 161.168C204.658 161.728 204.338 162.688 204.338 163.664C204.338 165.216 205.41 166.208 206.93 166.208ZM207.49 164.752C206.706 164.752 206.114 164.432 206.114 163.536C206.114 163.168 206.05 162.752 206.514 162.32C207.074 161.808 207.906 161.808 209.602 161.6V163.776C208.882 164.432 208.258 164.752 207.49 164.752Z" fill="#BDBDBD"/>
</svg>
