<svg width="360" height="140" viewBox="0 0 360 140" fill="none" xmlns="http://www.w3.org/2000/svg">
<rect width="360" height="140" fill="#FF0000" fill-opacity="0.14"/>
<path d="M156.896 76.208C159.456 76.208 161.04 74.656 161.04 72.784C161.04 71.056 160.048 70.192 158.64 69.6L157.024 68.912C156.08 68.528 155.12 68.144 155.12 67.136C155.12 66.176 155.888 65.616 157.104 65.616C158.144 65.616 158.944 66.016 159.696 66.672L160.672 65.488C159.776 64.576 158.512 64 157.104 64C154.864 64 153.232 65.392 153.232 67.248C153.232 68.944 154.496 69.872 155.632 70.336L157.264 71.04C158.368 71.504 159.152 71.856 159.152 72.928C159.152 73.952 158.352 74.592 156.928 74.592C155.776 74.592 154.64 74.048 153.792 73.2L152.704 74.48C153.792 75.568 155.28 76.208 156.896 76.208ZM164.87 76.208C165.958 76.208 166.854 75.728 167.67 75.04H167.718L167.878 76H169.382V70.704C169.382 68.32 168.374 66.976 166.182 66.976C164.774 66.976 163.574 67.488 162.662 68.064L163.206 69.408C163.958 68.912 164.902 68.48 165.862 68.48C167.158 68.48 167.542 69.36 167.542 70.4C165.734 70.528 164.406 70.672 163.51 71.168C162.598 71.728 162.278 72.688 162.278 73.664C162.278 75.216 163.35 76.208 164.87 76.208ZM165.43 74.752C164.646 74.752 164.054 74.432 164.054 73.536C164.054 73.168 163.99 72.752 164.454 72.32C165.014 71.808 165.846 71.808 167.542 71.6V73.776C166.822 74.432 166.198 74.752 165.43 74.752ZM171.69 67.2V76H173.514V69.76C174.25 68.96 174.906 68.56 175.498 68.56C176.522 68.56 176.97 69.152 176.97 70.688V76H178.81V69.76C179.546 68.96 180.202 68.56 180.794 68.56C181.818 68.56 182.266 69.152 182.266 70.688V76H184.106V70.464C184.106 68.208 183.274 66.976 181.402 66.976C180.298 66.976 179.434 67.632 178.538 68.592C178.154 67.568 177.45 66.976 176.106 66.976C175.018 66.976 174.138 67.616 173.386 68.432H173.338L173.194 67.2H171.69ZM186.448 67.2V79.568H188.272V76.72L188.224 75.216C188.976 75.856 189.76 76.208 190.544 76.208C192.528 76.208 194.336 74.464 194.336 71.456C194.336 68.752 193.088 66.976 190.848 66.976C189.872 66.976 188.912 67.52 188.144 68.16H188.096L187.952 67.2H186.448ZM190.192 74.688C189.632 74.688 188.96 74.48 188.272 73.888V69.584C189.024 68.864 189.68 68.512 190.368 68.512C191.84 68.512 192.432 69.616 192.432 71.488C192.432 73.552 191.472 74.688 190.192 74.688ZM196.094 63.264V76H197.918V63.264H196.094ZM203.909 76.208C205.061 76.208 206.069 75.84 206.885 75.28L206.245 74.112C205.605 74.544 204.933 74.768 204.149 74.768C202.613 74.768 201.573 73.76 201.429 72.08H207.141C207.189 71.84 207.221 71.536 207.221 71.152C207.221 68.656 205.973 66.976 203.637 66.976C201.573 66.976 199.621 68.736 199.621 71.616C199.621 74.512 201.525 76.208 203.909 76.208ZM205.637 70.816H201.413C201.589 69.28 202.581 68.416 203.669 68.416C204.949 68.416 205.637 69.28 205.637 70.816Z" fill="white"/>
</svg>
