<svg width="24" height="24" viewBox="0 0 24 24" fill="none" xmlns="http://www.w3.org/2000/svg">
<path d="M0 8C0 3.58172 3.58172 0 8 0H16C20.4183 0 24 3.58172 24 8V16C24 20.4183 20.4183 24 16 24H8C3.58172 24 0 20.4183 0 16V8Z" fill="#F5F6F6"/>
<path d="M7.48511 9.82031V13.5003H8.06511V9.82031H7.48511Z" fill="#BDBDBD"/>
<path d="M9.99808 13.5653C10.3181 13.5653 10.6331 13.4503 10.8881 13.2253L10.6531 12.8453C10.4881 12.9853 10.2881 13.0953 10.0531 13.0953C9.59308 13.0953 9.27808 12.7103 9.27808 12.1303C9.27808 11.5453 9.61308 11.1553 10.0681 11.1553C10.2631 11.1553 10.4081 11.2353 10.5631 11.3703L10.8481 10.9953C10.6481 10.8203 10.4031 10.6803 10.0431 10.6803C9.31808 10.6803 8.68308 11.2103 8.68308 12.1303C8.68308 13.0353 9.25308 13.5653 9.99808 13.5653Z" fill="#BDBDBD"/>
<path d="M12.4611 13.5653C13.1411 13.5653 13.7561 13.0353 13.7561 12.1303C13.7561 11.2103 13.1411 10.6803 12.4611 10.6803C11.7811 10.6803 11.1661 11.2103 11.1661 12.1303C11.1661 13.0353 11.7811 13.5653 12.4611 13.5653ZM12.4611 13.0953C12.0361 13.0953 11.7611 12.7103 11.7611 12.1303C11.7611 11.5453 12.0211 11.1553 12.4611 11.1553C12.9011 11.1553 13.1661 11.5453 13.1661 12.1303C13.1661 12.7103 12.8961 13.0953 12.4611 13.0953Z" fill="#BDBDBD"/>
<path d="M14.3274 10.7503V13.5003H14.8974V11.5503C15.1424 11.3053 15.3174 11.1753 15.5724 11.1753C15.8974 11.1753 16.0374 11.3603 16.0374 11.8403V13.5003H16.6124V11.7703C16.6124 11.0653 16.3524 10.6803 15.7674 10.6803C15.3924 10.6803 15.1124 10.8853 14.8574 11.1303H14.8424L14.7974 10.7503H14.3274Z" fill="#BDBDBD"/>
</svg>
