<svg width="48" height="48" viewBox="0 0 48 48" fill="none" xmlns="http://www.w3.org/2000/svg">
<rect width="48" height="48" fill="#FF0000" fill-opacity="0.14"/>
<path d="M14.0655 26.0878C15.1455 26.0878 15.8137 25.433 15.8137 24.6432C15.8137 23.9142 15.3953 23.5497 14.8013 23.3L14.1195 23.0097C13.7213 22.8477 13.3163 22.6857 13.3163 22.2605C13.3163 21.8555 13.6403 21.6192 14.1533 21.6192C14.592 21.6192 14.9295 21.788 15.2468 22.0647L15.6585 21.5652C15.2805 21.1805 14.7473 20.9375 14.1533 20.9375C13.2083 20.9375 12.5198 21.5247 12.5198 22.3077C12.5198 23.0232 13.053 23.4147 13.5323 23.6105L14.2208 23.9075C14.6865 24.1032 15.0173 24.2517 15.0173 24.704C15.0173 25.136 14.6798 25.406 14.079 25.406C13.593 25.406 13.1138 25.1765 12.756 24.8187L12.297 25.3587C12.756 25.8177 13.3838 26.0878 14.0655 26.0878ZM17.4297 26.0878C17.8887 26.0878 18.2667 25.8852 18.6109 25.595H18.6312L18.6987 26H19.3332V23.7657C19.3332 22.76 18.9079 22.193 17.9832 22.193C17.3892 22.193 16.8829 22.409 16.4982 22.652L16.7277 23.219C17.0449 23.0097 17.4432 22.8275 17.8482 22.8275C18.3949 22.8275 18.5569 23.1987 18.5569 23.6375C17.7942 23.6915 17.2339 23.7522 16.8559 23.9615C16.4712 24.1977 16.3362 24.6027 16.3362 25.0145C16.3362 25.6692 16.7884 26.0878 17.4297 26.0878ZM17.6659 25.4735C17.3352 25.4735 17.0854 25.3385 17.0854 24.9605C17.0854 24.8052 17.0584 24.6297 17.2542 24.4475C17.4904 24.2315 17.8414 24.2315 18.5569 24.1437V25.0617C18.2532 25.3385 17.9899 25.4735 17.6659 25.4735ZM20.3065 22.2875V26H21.076V23.3675C21.3865 23.03 21.6633 22.8612 21.913 22.8612C22.345 22.8612 22.534 23.111 22.534 23.759V26H23.3103V23.3675C23.6208 23.03 23.8975 22.8612 24.1473 22.8612C24.5793 22.8612 24.7683 23.111 24.7683 23.759V26H25.5445V23.6645C25.5445 22.7127 25.1935 22.193 24.4038 22.193C23.938 22.193 23.5735 22.4697 23.1955 22.8747C23.0335 22.4427 22.7365 22.193 22.1695 22.193C21.7105 22.193 21.3393 22.463 21.022 22.8072H21.0018L20.941 22.2875H20.3065ZM26.5326 22.2875V27.5053H27.3021V26.3038L27.2818 25.6692C27.5991 25.9392 27.9298 26.0878 28.2606 26.0878C29.0976 26.0878 29.8603 25.352 29.8603 24.083C29.8603 22.9422 29.3338 22.193 28.3888 22.193C27.9771 22.193 27.5721 22.4225 27.2481 22.6925H27.2278L27.1671 22.2875H26.5326ZM28.1121 25.4465C27.8758 25.4465 27.5923 25.3587 27.3021 25.109V23.2932C27.6193 22.9895 27.8961 22.841 28.1863 22.841C28.8073 22.841 29.0571 23.3067 29.0571 24.0965C29.0571 24.9672 28.6521 25.4465 28.1121 25.4465ZM30.602 20.627V26H31.3715V20.627H30.602ZM33.899 26.0878C34.385 26.0878 34.8103 25.9325 35.1545 25.6962L34.8845 25.2035C34.6145 25.3857 34.331 25.4802 34.0003 25.4802C33.3523 25.4802 32.9135 25.055 32.8528 24.3462H35.2625C35.2828 24.245 35.2963 24.1167 35.2963 23.9547C35.2963 22.9017 34.7698 22.193 33.7843 22.193C32.9135 22.193 32.09 22.9355 32.09 24.1505C32.09 25.3722 32.8933 26.0878 33.899 26.0878ZM34.628 23.813H32.846C32.9203 23.165 33.3388 22.8005 33.7978 22.8005C34.3378 22.8005 34.628 23.165 34.628 23.813Z" fill="white"/>
</svg>
