<svg width="36" height="36" viewBox="0 0 36 36" fill="none" xmlns="http://www.w3.org/2000/svg">
<rect width="36" height="36" fill="#FF0000" fill-opacity="0.14"/>
<path d="M8.0655 20.0878C9.1455 20.0878 9.81375 19.433 9.81375 18.6432C9.81375 17.9142 9.39525 17.5497 8.80125 17.3L8.1195 17.0097C7.72125 16.8477 7.31625 16.6857 7.31625 16.2605C7.31625 15.8555 7.64025 15.6192 8.15325 15.6192C8.592 15.6192 8.9295 15.788 9.24675 16.0647L9.6585 15.5652C9.2805 15.1805 8.74725 14.9375 8.15325 14.9375C7.20825 14.9375 6.51975 15.5247 6.51975 16.3077C6.51975 17.0232 7.053 17.4147 7.53225 17.6105L8.22075 17.9075C8.6865 18.1032 9.01725 18.2517 9.01725 18.704C9.01725 19.136 8.67975 19.406 8.079 19.406C7.593 19.406 7.11375 19.1765 6.756 18.8187L6.297 19.3587C6.756 19.8177 7.38375 20.0878 8.0655 20.0878ZM11.4297 20.0878C11.8887 20.0878 12.2667 19.8852 12.6109 19.595H12.6312L12.6987 20H13.3332V17.7657C13.3332 16.76 12.9079 16.193 11.9832 16.193C11.3892 16.193 10.8829 16.409 10.4982 16.652L10.7277 17.219C11.0449 17.0097 11.4432 16.8275 11.8482 16.8275C12.3949 16.8275 12.5569 17.1987 12.5569 17.6375C11.7942 17.6915 11.2339 17.7522 10.8559 17.9615C10.4712 18.1977 10.3362 18.6027 10.3362 19.0145C10.3362 19.6692 10.7884 20.0878 11.4297 20.0878ZM11.6659 19.4735C11.3352 19.4735 11.0854 19.3385 11.0854 18.9605C11.0854 18.8052 11.0584 18.6297 11.2542 18.4475C11.4904 18.2315 11.8414 18.2315 12.5569 18.1437V19.0617C12.2532 19.3385 11.9899 19.4735 11.6659 19.4735ZM14.3065 16.2875V20H15.076V17.3675C15.3865 17.03 15.6633 16.8612 15.913 16.8612C16.345 16.8612 16.534 17.111 16.534 17.759V20H17.3103V17.3675C17.6208 17.03 17.8975 16.8612 18.1473 16.8612C18.5793 16.8612 18.7683 17.111 18.7683 17.759V20H19.5445V17.6645C19.5445 16.7127 19.1935 16.193 18.4038 16.193C17.938 16.193 17.5735 16.4697 17.1955 16.8747C17.0335 16.4427 16.7365 16.193 16.1695 16.193C15.7105 16.193 15.3393 16.463 15.022 16.8072H15.0018L14.941 16.2875H14.3065ZM20.5326 16.2875V21.5053H21.3021V20.3038L21.2818 19.6692C21.5991 19.9392 21.9298 20.0878 22.2606 20.0878C23.0976 20.0878 23.8603 19.352 23.8603 18.083C23.8603 16.9422 23.3338 16.193 22.3888 16.193C21.9771 16.193 21.5721 16.4225 21.2481 16.6925H21.2278L21.1671 16.2875H20.5326ZM22.1121 19.4465C21.8758 19.4465 21.5923 19.3587 21.3021 19.109V17.2932C21.6193 16.9895 21.8961 16.841 22.1863 16.841C22.8073 16.841 23.0571 17.3067 23.0571 18.0965C23.0571 18.9672 22.6521 19.4465 22.1121 19.4465ZM24.602 14.627V20H25.3715V14.627H24.602ZM27.899 20.0878C28.385 20.0878 28.8103 19.9325 29.1545 19.6962L28.8845 19.2035C28.6145 19.3857 28.331 19.4802 28.0003 19.4802C27.3523 19.4802 26.9135 19.055 26.8528 18.3462H29.2625C29.2828 18.245 29.2963 18.1167 29.2963 17.9547C29.2963 16.9017 28.7698 16.193 27.7843 16.193C26.9135 16.193 26.09 16.9355 26.09 18.1505C26.09 19.3722 26.8933 20.0878 27.899 20.0878ZM28.628 17.813H26.846C26.9203 17.165 27.3388 16.8005 27.7978 16.8005C28.3378 16.8005 28.628 17.165 28.628 17.813Z" fill="white"/>
</svg>
