<svg width="24" height="24" viewBox="0 0 24 24" fill="none" xmlns="http://www.w3.org/2000/svg">
<path d="M12.2415 22.3918C12.2037 22.3838 12.1647 22.3755 12.1269 22.3675C8.68798 21.3437 5.72586 19.129 3.77115 16.1201C1.81644 13.1112 0.996849 9.50459 1.45919 5.9464C1.48652 5.74516 1.55473 5.55164 1.65961 5.37773C1.76449 5.20382 1.90383 5.0532 2.06906 4.93513C2.2303 4.81987 2.41369 4.73933 2.60765 4.69858C2.80161 4.65783 3.00191 4.65777 3.1959 4.69839L6.16551 5.3076C6.48333 5.37357 6.76992 5.54405 6.97957 5.79185C7.18923 6.03965 7.3099 6.3505 7.32233 6.67486L7.4181 9.26275C7.4289 9.54835 7.3545 9.83071 7.20435 10.0739C7.0542 10.3171 6.8351 10.5101 6.57493 10.6284L5.19894 11.257C5.83704 13.3797 7.06159 15.2792 8.73165 16.7367L9.91049 15.7109C10.1262 15.5234 10.3924 15.4037 10.6757 15.3666C10.9591 15.3295 11.2471 15.3767 11.5038 15.5023L13.8459 16.6426C14.1391 16.7834 14.3763 17.0188 14.5193 17.3108C14.6622 17.6029 14.7026 17.9347 14.6339 18.2526L13.9894 21.2831C13.9493 21.4769 13.8689 21.6602 13.7536 21.8211C13.6382 21.982 13.4904 22.1169 13.3196 22.2171C12.995 22.4089 12.6101 22.4713 12.2415 22.3918Z" fill="#00A69E"/>
<path fill-rule="evenodd" clip-rule="evenodd" d="M17.0001 1.66797C14.7909 1.66797 13 3.45883 13 5.66797V8.00138L11.9025 9.09893C11.6925 9.30892 11.8412 9.66797 12.1382 9.66797H13H15.8621H17.0001C19.2092 9.66797 21.0001 7.87711 21.0001 5.66797C21.0001 3.45883 19.2092 1.66797 17.0001 1.66797Z" fill="#0168FE"/>
<path d="M16.3333 5.66667C16.3333 6.03486 16.0349 6.33333 15.6667 6.33333C15.2985 6.33333 15 6.03486 15 5.66667C15 5.29848 15.2985 5 15.6667 5C16.0349 5 16.3333 5.29848 16.3333 5.66667Z" fill="white"/>
<path d="M19.0001 5.66667C19.0001 6.03486 18.7016 6.33333 18.3334 6.33333C17.9652 6.33333 17.6667 6.03486 17.6667 5.66667C17.6667 5.29848 17.9652 5 18.3334 5C18.7016 5 19.0001 5.29848 19.0001 5.66667Z" fill="white"/>
</svg>
