<svg width="260" height="158" viewBox="0 0 260 158" fill="none" xmlns="http://www.w3.org/2000/svg">
<rect x="0.5" y="0.5" width="259" height="157" rx="7.5" fill="#FCFCFC"/>
<path d="M107.36 25.08C109.88 24.84 111.635 23.745 111.83 22.515H107.885V21.27H117.89V22.515H113.915C114.11 23.745 115.865 24.84 118.385 25.08L117.845 26.28C115.445 26.025 113.6 25.05 112.88 23.655C112.145 25.05 110.33 26.025 107.915 26.28L107.36 25.08ZM119 26.97V28.215H106.745V26.97H119ZM112.85 29.19C115.76 29.19 117.515 30.105 117.515 31.68C117.515 33.255 115.835 34.155 112.85 34.155C109.955 34.155 108.185 33.255 108.185 31.68C108.185 30.105 109.955 29.19 112.85 29.19ZM112.85 32.94C114.845 32.94 115.955 32.52 115.955 31.68C115.955 30.84 114.845 30.405 112.85 30.405C110.855 30.405 109.76 30.84 109.76 31.68C109.76 32.52 110.855 32.94 112.85 32.94Z" fill="black"/>
<path d="M105.531 27.9748V29.2198H93.2463V27.9748H98.6163V26.7448H94.8213V23.2498H102.456V22.1098H94.7913V20.9248H103.986V24.3598H96.3363V25.5598H104.256V26.7448H100.161V27.9748H105.531ZM94.6263 30.1348H104.061V34.0798H102.516V31.3798H94.6263V30.1348Z" fill="black"/>
<path d="M90.6076 25.8152H81.2926V21.0752H90.5176V22.3202H82.8226V24.5702H90.6076V25.8152ZM92.0176 26.9402V28.2152H79.7776V26.9402H92.0176ZM85.8526 29.2202C88.7626 29.2202 90.5176 30.1202 90.5176 31.6802C90.5176 33.2552 88.8376 34.1552 85.8526 34.1552C82.9576 34.1552 81.1876 33.2552 81.1876 31.6802C81.1876 30.1202 82.9576 29.2202 85.8526 29.2202ZM85.8526 32.9552C87.8476 32.9552 88.9576 32.5202 88.9576 31.6802C88.9576 30.8402 87.8476 30.4052 85.8526 30.4052C83.8576 30.4052 82.7626 30.8402 82.7626 31.6802C82.7626 32.5202 83.8576 32.9552 85.8526 32.9552Z" fill="black"/>
<path d="M77.4236 30.3H75.8786V20.625H77.4236V30.3ZM73.3736 28.155H66.9536V21.735H73.3736V28.155ZM71.8736 22.98H68.4686V26.91H71.8736V22.98ZM77.8136 32.535V33.78H68.5736V29.415H70.1336V32.535H77.8136Z" fill="black"/>
<path d="M53.4399 26.025C56.0049 25.665 57.9399 24.225 58.0149 22.62H53.8899V21.375H63.8649V22.62H59.7699C59.8449 24.225 61.7799 25.665 64.3449 26.025L63.7899 27.24C61.5549 26.88 59.7399 25.815 58.8849 24.3C58.0449 25.8 56.2299 26.895 53.9949 27.24L53.4399 26.025ZM65.0049 29.475H59.6199V34.17H58.0749V29.475H52.7649V28.23H65.0199L65.0049 29.475Z" fill="black"/>
<path d="M102.929 49.8388H101.057V55.9618H99.9912V44.3008H101.057V48.9548H102.929V49.8388ZM93.6082 52.1138C95.2852 52.1138 97.0142 51.9708 98.8992 51.5938L99.0292 52.4778C97.0402 52.8808 95.2592 53.0108 93.4782 53.0108H92.5552V45.4318H93.6082V52.1138Z" fill="black"/>
<path d="M91.282 49.995H89.371V55.962H88.305V44.314H89.371V49.098H91.282V49.995ZM84.327 46.173H87.2V47.031H80.323V46.173H83.261V44.444H84.327V46.173ZM83.807 47.993C85.471 47.993 86.654 49.124 86.654 50.684C86.654 52.283 85.471 53.362 83.807 53.362C82.169 53.362 80.986 52.283 80.986 50.684C80.986 49.124 82.169 47.993 83.807 47.993ZM83.807 52.478C84.886 52.478 85.64 51.724 85.64 50.684C85.64 49.644 84.886 48.877 83.807 48.877C82.754 48.877 81.987 49.644 81.987 50.684C81.987 51.724 82.754 52.478 83.807 52.478Z" fill="black"/>
<path d="M78.2571 44.3008V50.8918H77.1911V44.3008H78.2571ZM74.7991 45.0418C74.7991 48.0058 72.6411 50.1118 69.2481 51.0088L68.8191 50.1638C71.6531 49.4358 73.4471 47.8758 73.6551 45.9128H69.4301V45.0418H74.7991ZM70.7171 51.4508H78.2571V55.7928H70.7171V51.4508ZM71.7571 54.9348H77.2041V52.2958H71.7571V54.9348Z" fill="black"/>
<path d="M132.645 71.6201C132.645 74.7401 131.229 76.1681 129.417 76.1681C127.593 76.1681 126.189 74.7401 126.189 71.6201C126.189 68.4881 127.593 67.0601 129.417 67.0601C131.229 67.0601 132.645 68.4881 132.645 71.6201ZM131.541 71.6201C131.541 68.8721 130.533 67.9601 129.417 67.9601C128.301 67.9601 127.305 68.8721 127.305 71.6201C127.305 74.3561 128.301 75.2801 129.417 75.2801C130.533 75.2801 131.541 74.3561 131.541 71.6201Z" fill="black"/>
<path d="M125.737 71.6201C125.737 74.7401 124.321 76.1681 122.509 76.1681C120.685 76.1681 119.281 74.7401 119.281 71.6201C119.281 68.4881 120.685 67.0601 122.509 67.0601C124.321 67.0601 125.737 68.4881 125.737 71.6201ZM124.633 71.6201C124.633 68.8721 123.625 67.9601 122.509 67.9601C121.393 67.9601 120.397 68.8721 120.397 71.6201C120.397 74.3561 121.393 75.2801 122.509 75.2801C123.625 75.2801 124.633 74.3561 124.633 71.6201Z" fill="black"/>
<path d="M118.829 71.6201C118.829 74.7401 117.413 76.1681 115.601 76.1681C113.777 76.1681 112.373 74.7401 112.373 71.6201C112.373 68.4881 113.777 67.0601 115.601 67.0601C117.413 67.0601 118.829 68.4881 118.829 71.6201ZM117.725 71.6201C117.725 68.8721 116.717 67.9601 115.601 67.9601C114.485 67.9601 113.489 68.8721 113.489 71.6201C113.489 74.3561 114.485 75.2801 115.601 75.2801C116.717 75.2801 117.725 74.3561 117.725 71.6201Z" fill="black"/>
<path d="M111.92 71.6201C111.92 74.7401 110.504 76.1681 108.692 76.1681C106.868 76.1681 105.464 74.7401 105.464 71.6201C105.464 68.4881 106.868 67.0601 108.692 67.0601C110.504 67.0601 111.92 68.4881 111.92 71.6201ZM110.816 71.6201C110.816 68.8721 109.808 67.9601 108.692 67.9601C107.576 67.9601 106.58 68.8721 106.58 71.6201C106.58 74.3561 107.576 75.2801 108.692 75.2801C109.808 75.2801 110.816 74.3561 110.816 71.6201Z" fill="black"/>
<path d="M105.012 71.6201C105.012 74.7401 103.596 76.1681 101.784 76.1681C99.9599 76.1681 98.5559 74.7401 98.5559 71.6201C98.5559 68.4881 99.9599 67.0601 101.784 67.0601C103.596 67.0601 105.012 68.4881 105.012 71.6201ZM103.908 71.6201C103.908 68.8721 102.9 67.9601 101.784 67.9601C100.668 67.9601 99.6719 68.8721 99.6719 71.6201C99.6719 74.3561 100.668 75.2801 101.784 75.2801C102.9 75.2801 103.908 74.3561 103.908 71.6201Z" fill="black"/>
<path d="M98.1035 71.6201C98.1035 74.7401 96.6875 76.1681 94.8755 76.1681C93.0515 76.1681 91.6475 74.7401 91.6475 71.6201C91.6475 68.4881 93.0515 67.0601 94.8755 67.0601C96.6875 67.0601 98.1035 68.4881 98.1035 71.6201ZM96.9995 71.6201C96.9995 68.8721 95.9915 67.9601 94.8755 67.9601C93.7595 67.9601 92.7635 68.8721 92.7635 71.6201C92.7635 74.3561 93.7595 75.2801 94.8755 75.2801C95.9915 75.2801 96.9995 74.3561 96.9995 71.6201Z" fill="black"/>
<path d="M91.195 71.6201C91.195 74.7401 89.779 76.1681 87.967 76.1681C86.143 76.1681 84.739 74.7401 84.739 71.6201C84.739 68.4881 86.143 67.0601 87.967 67.0601C89.779 67.0601 91.195 68.4881 91.195 71.6201ZM90.091 71.6201C90.091 68.8721 89.083 67.9601 87.967 67.9601C86.851 67.9601 85.855 68.8721 85.855 71.6201C85.855 74.3561 86.851 75.2801 87.967 75.2801C89.083 75.2801 90.091 74.3561 90.091 71.6201Z" fill="black"/>
<path d="M80.0508 71.1641H84.0108V72.0041H80.0508V71.1641Z" fill="black"/>
<path d="M79.3703 71.6201C79.3703 74.7401 77.9543 76.1681 76.1423 76.1681C74.3183 76.1681 72.9143 74.7401 72.9143 71.6201C72.9143 68.4881 74.3183 67.0601 76.1423 67.0601C77.9543 67.0601 79.3703 68.4881 79.3703 71.6201ZM78.2663 71.6201C78.2663 68.8721 77.2583 67.9601 76.1423 67.9601C75.0263 67.9601 74.0303 68.8721 74.0303 71.6201C74.0303 74.3561 75.0263 75.2801 76.1423 75.2801C77.2583 75.2801 78.2663 74.3561 78.2663 71.6201Z" fill="black"/>
<path d="M72.4619 71.6201C72.4619 74.7401 71.0459 76.1681 69.2339 76.1681C67.4099 76.1681 66.0059 74.7401 66.0059 71.6201C66.0059 68.4881 67.4099 67.0601 69.2339 67.0601C71.0459 67.0601 72.4619 68.4881 72.4619 71.6201ZM71.3579 71.6201C71.3579 68.8721 70.3499 67.9601 69.2339 67.9601C68.1179 67.9601 67.1219 68.8721 67.1219 71.6201C67.1219 74.3561 68.1179 75.2801 69.2339 75.2801C70.3499 75.2801 71.3579 74.3561 71.3579 71.6201Z" fill="black"/>
<path d="M65.5534 71.6201C65.5534 74.7401 64.1374 76.1681 62.3254 76.1681C60.5014 76.1681 59.0974 74.7401 59.0974 71.6201C59.0974 68.4881 60.5014 67.0601 62.3254 67.0601C64.1374 67.0601 65.5534 68.4881 65.5534 71.6201ZM64.4494 71.6201C64.4494 68.8721 63.4414 67.9601 62.3254 67.9601C61.2094 67.9601 60.2134 68.8721 60.2134 71.6201C60.2134 74.3561 61.2094 75.2801 62.3254 75.2801C63.4414 75.2801 64.4494 74.3561 64.4494 71.6201Z" fill="black"/>
<path d="M58.645 71.6201C58.645 74.7401 57.229 76.1681 55.417 76.1681C53.593 76.1681 52.189 74.7401 52.189 71.6201C52.189 68.4881 53.593 67.0601 55.417 67.0601C57.229 67.0601 58.645 68.4881 58.645 71.6201ZM57.541 71.6201C57.541 68.8721 56.533 67.9601 55.417 67.9601C54.301 67.9601 53.305 68.8721 53.305 71.6201C53.305 74.3561 54.301 75.2801 55.417 75.2801C56.533 75.2801 57.541 74.3561 57.541 71.6201Z" fill="black"/>
<path d="M51.7365 71.6201C51.7365 74.7401 50.3205 76.1681 48.5085 76.1681C46.6845 76.1681 45.2805 74.7401 45.2805 71.6201C45.2805 68.4881 46.6845 67.0601 48.5085 67.0601C50.3205 67.0601 51.7365 68.4881 51.7365 71.6201ZM50.6325 71.6201C50.6325 68.8721 49.6245 67.9601 48.5085 67.9601C47.3925 67.9601 46.3965 68.8721 46.3965 71.6201C46.3965 74.3561 47.3925 75.2801 48.5085 75.2801C49.6245 75.2801 50.6325 74.3561 50.6325 71.6201Z" fill="black"/>
<path d="M44.8281 71.6201C44.8281 74.7401 43.4121 76.1681 41.6001 76.1681C39.7761 76.1681 38.3721 74.7401 38.3721 71.6201C38.3721 68.4881 39.7761 67.0601 41.6001 67.0601C43.4121 67.0601 44.8281 68.4881 44.8281 71.6201ZM43.7241 71.6201C43.7241 68.8721 42.7161 67.9601 41.6001 67.9601C40.4841 67.9601 39.4881 68.8721 39.4881 71.6201C39.4881 74.3561 40.4841 75.2801 41.6001 75.2801C42.7161 75.2801 43.7241 74.3561 43.7241 71.6201Z" fill="black"/>
<path d="M141.324 86.6398C141.514 85.3098 142.484 84.5498 143.734 84.5498C145.004 84.5498 145.904 85.3298 145.904 86.4498C145.904 87.4098 145.414 87.8898 144.614 88.1598C145.574 88.3998 146.074 89.0098 146.074 89.9298C146.074 91.2698 144.964 92.1298 143.594 92.1298C142.014 92.1298 141.444 91.2798 141.094 90.1998L141.914 89.8598C141.934 89.9698 141.984 90.1198 142.064 90.3098C142.374 90.9498 142.824 91.3398 143.584 91.3398C144.634 91.3398 145.144 90.5998 145.144 89.9498C145.144 89.1598 144.814 88.5798 143.244 88.5798V87.9198C144.534 87.8898 144.994 87.3598 144.994 86.5998C144.994 85.7598 144.454 85.3498 143.684 85.3498C142.844 85.3498 142.234 85.9698 142.234 86.7898L141.324 86.6398Z" fill="black"/>
<path d="M140.307 91.19V92H135.387V91.36L137.917 88.93C138.687 88.11 139.247 87.48 139.247 86.62C139.217 85.74 138.657 85.33 137.897 85.33C137.057 85.33 136.437 85.93 136.437 86.77L135.537 86.62C135.727 85.27 136.697 84.54 137.947 84.54C139.197 84.54 140.167 85.3 140.167 86.6C140.167 87.69 139.467 88.45 138.637 89.28L136.587 91.31C136.867 91.23 137.167 91.19 137.417 91.19H140.307Z" fill="black"/>
<path d="M134.36 91.2599V91.9999H130.4V91.2599H132.03V85.9799C132.03 85.8899 132.03 85.7999 132.04 85.7299L130.71 86.9199L130.22 86.3299L132.19 84.6299H132.92V91.2599H134.36Z" fill="black"/>
<path d="M126.715 88.2002V88.8602H118.595V88.2002H122.245V87.1602H119.615V84.1802H125.705V84.8402H120.435V86.5002H125.765V87.1602H123.065V88.2002H126.715ZM122.655 89.5002C124.555 89.5002 125.715 90.0802 125.715 91.1202C125.715 92.1602 124.555 92.7402 122.655 92.7402C120.735 92.7402 119.575 92.1602 119.575 91.1202C119.575 90.0802 120.735 89.5002 122.655 89.5002ZM122.655 92.1002C124.065 92.1002 124.885 91.7602 124.885 91.1202C124.885 90.4802 124.065 90.1402 122.655 90.1402C121.205 90.1402 120.405 90.4802 120.405 91.1202C120.405 91.7602 121.205 92.1002 122.655 92.1002Z" fill="black"/>
<path d="M117.936 88.03H116.496V92.74H115.676V83.77H116.496V87.35H117.936V88.03ZM110.766 89.78C112.056 89.78 113.386 89.67 114.836 89.38L114.936 90.06C113.406 90.37 112.036 90.47 110.666 90.47H109.956V84.64H110.766V89.78Z" fill="black"/>
<path d="M108.976 88.1498H107.506V92.7398H106.686V83.7798H107.506V87.4598H108.976V88.1498ZM103.626 85.2098H105.836V85.8698H100.546V85.2098H102.806V83.8798H103.626V85.2098ZM103.226 86.6098C104.506 86.6098 105.416 87.4798 105.416 88.6798C105.416 89.9098 104.506 90.7398 103.226 90.7398C101.966 90.7398 101.056 89.9098 101.056 88.6798C101.056 87.4798 101.966 86.6098 103.226 86.6098ZM103.226 90.0598C104.056 90.0598 104.636 89.4798 104.636 88.6798C104.636 87.8798 104.056 87.2898 103.226 87.2898C102.416 87.2898 101.826 87.8798 101.826 88.6798C101.826 89.4798 102.416 90.0598 103.226 90.0598Z" fill="black"/>
<path d="M97.6808 88.8801H94.0208V92.7501H93.1908V88.8801H89.5708V88.2101H95.5208C95.8008 86.9201 95.8008 85.9701 95.8008 85.1301V85.0101H90.5808V84.3501H96.6008V85.1301C96.6008 85.9701 96.6008 86.9201 96.3508 88.2101H97.6808V88.8801Z" fill="black"/>
<path d="M88.9016 88.03H87.4616V92.74H86.6416V83.77H87.4616V87.35H88.9016V88.03ZM81.7316 89.78C83.0216 89.78 84.3516 89.67 85.8016 89.38L85.9016 90.06C84.3716 90.37 83.0016 90.47 81.6316 90.47H80.9216V84.64H81.7316V89.78Z" fill="black"/>
<path d="M79.9425 88.1498H78.4725V92.7398H77.6525V83.7798H78.4725V87.4598H79.9425V88.1498ZM74.5925 85.2098H76.8025V85.8698H71.5125V85.2098H73.7725V83.8798H74.5925V85.2098ZM74.1925 86.6098C75.4725 86.6098 76.3825 87.4798 76.3825 88.6798C76.3825 89.9098 75.4725 90.7398 74.1925 90.7398C72.9325 90.7398 72.0225 89.9098 72.0225 88.6798C72.0225 87.4798 72.9325 86.6098 74.1925 86.6098ZM74.1925 90.0598C75.0225 90.0598 75.6025 89.4798 75.6025 88.6798C75.6025 87.8798 75.0225 87.2898 74.1925 87.2898C73.3825 87.2898 72.7924 87.8798 72.7924 88.6798C72.7924 89.4798 73.3825 90.0598 74.1925 90.0598Z" fill="black"/>
<path d="M67.8668 83.77V92.76H67.0468V83.77H67.8668ZM63.7068 86.16C63.7068 87.8 64.7868 89.46 66.1068 90.05L65.6168 90.71C64.5768 90.2 63.7368 89.16 63.3068 87.87C62.8968 89.24 62.0368 90.32 60.9868 90.88L60.4868 90.21C61.7968 89.57 62.8968 87.88 62.8968 86.16V84.55H63.7068V86.16Z" fill="black"/>
<path d="M56.0178 88.0998H51.9778V84.1898H52.7878V85.4698H55.2078V84.1998H56.0178V85.0498H58.0878V83.7798H58.9078V88.4598H58.0878V87.3198H56.0178V88.0998ZM56.0178 85.6898V86.6798H58.0878V85.6898H56.0178ZM55.2078 86.1098H52.7878V87.4398H55.2078V86.1098ZM59.2478 91.9698V92.6198H53.1478V90.3998H58.0978V89.5398H53.1278V88.8898H58.9078V91.0198H53.9578V91.9698H59.2478Z" fill="black"/>
<path d="M49.6886 87.6603H43.5886V84.0103H49.6386V84.6503H44.4086V85.5003H49.3986V86.1203H44.4086V87.0203H49.6886V87.6603ZM50.6386 88.5103V89.1703H42.5186V88.5103H50.6386ZM43.4286 90.0403H49.5886V92.7503H48.7686V90.6903H43.4286V90.0403Z" fill="black"/>
<path d="M37.5793 86.9801C35.6093 86.9801 34.4293 86.4401 34.4293 85.4301C34.4293 84.4201 35.6093 83.8701 37.5793 83.8701C39.5893 83.8701 40.7293 84.4201 40.7293 85.4301C40.7293 86.4401 39.5893 86.9801 37.5793 86.9801ZM37.5793 84.4901C36.0893 84.4901 35.2693 84.8301 35.2693 85.4301C35.2693 86.0301 36.0893 86.3701 37.5793 86.3701C39.0693 86.3701 39.8893 86.0301 39.8893 85.4301C39.8893 84.8301 39.0693 84.4901 37.5793 84.4901ZM37.9893 88.2301V89.0701H40.5993V91.0901H35.3293V92.0001H40.8693V92.6401H34.5293V90.4901H39.7893V89.6901H34.5093V89.0701H37.1693V88.2301H33.5293V87.5701H41.6293V88.2301H37.9893Z" fill="black"/>
<path d="M31.92 83.77V92.75H31.1V87.48H29.02V86.81H31.1V83.77H31.92ZM27.67 86.15C27.67 87.77 28.69 89.42 29.99 90.03L29.51 90.68C28.51 90.17 27.67 89.09 27.26 87.84C26.86 89.17 26.04 90.31 25.03 90.84L24.53 90.19C25.83 89.55 26.85 87.8 26.85 86.15V84.54H27.67V86.15Z" fill="black"/>
<rect width="104.559" height="13.348" transform="translate(77 104)" fill="#9BEDE9" fill-opacity="0.2"/>
<path d="M111.07 110.594H109.942V114.29H109.118V107.066H109.942V109.914H111.07V110.594ZM106.878 109.162C106.878 110.274 107.59 111.57 108.686 112.082L108.23 112.73C107.422 112.346 106.806 111.57 106.478 110.634C106.158 111.642 105.526 112.506 104.686 112.914L104.214 112.258C105.326 111.722 106.054 110.354 106.054 109.162V108.466H104.478V107.786H108.406V108.466H106.878V109.162Z" fill="#00A69E"/>
<path d="M103.103 110.73H102.279V107.058H103.103V110.73ZM101.079 108.93C101.079 109.882 100.271 110.554 99.1749 110.554C98.0949 110.554 97.2869 109.882 97.2869 108.93C97.2869 107.97 98.0949 107.298 99.1749 107.298C100.271 107.298 101.079 107.97 101.079 108.93ZM98.0869 108.93C98.0869 109.506 98.5589 109.882 99.1749 109.882C99.8069 109.882 100.279 109.506 100.279 108.93C100.279 108.354 99.8069 107.978 99.1749 107.978C98.5589 107.978 98.0869 108.354 98.0869 108.93ZM103.319 113.554V114.202H98.3829V112.306H102.287V111.706H98.3669V111.058H103.103V112.914H99.1909V113.554H103.319Z" fill="#00A69E"/>
<path d="M96.4954 109.954V110.626H89.9514V109.954H94.6874C94.8554 109.154 94.8714 108.586 94.8714 108.042H90.7754V107.378H95.6794V107.93C95.6794 108.482 95.6874 109.09 95.5034 109.954H96.4954ZM94.8474 111.194H95.6714V114.202H90.7674V111.194H91.5834V112.058H94.8474V111.194ZM94.8474 112.698H91.5834V113.538H94.8474V112.698Z" fill="#00A69E"/>
<path d="M89.408 108.546V109.226H88.392V110.77H87.568V107.066H88.392V108.546H89.408ZM86.408 110.53H83V107.37H83.824V108.322H85.592V107.37H86.408V110.53ZM85.592 108.954H83.824V109.874H85.592V108.954ZM84.552 113.578H88.632V114.226H83.744V112.33H87.576V111.73H83.728V111.09H88.392V112.938H84.552V113.578Z" fill="#00A69E"/>
<path d="M174.01 106.144V113.788H175.558V115.12H170.614V113.788H172.366V108.904L172.414 108.124L170.95 109.456L170.002 108.376L172.594 106.144H174.01Z" fill="black"/>
<path d="M169.106 110.668C169.106 113.836 167.678 115.288 165.758 115.288C163.886 115.288 162.446 113.836 162.446 110.668C162.446 107.476 163.886 106.036 165.758 106.036C167.678 106.036 169.106 107.476 169.106 110.668ZM167.426 110.668C167.426 108.112 166.634 107.416 165.758 107.416C164.93 107.416 164.126 108.112 164.126 110.668C164.126 113.212 164.93 113.896 165.758 113.896C166.634 113.896 167.426 113.212 167.426 110.668Z" fill="black"/>
<path d="M161.673 115.288H159.921V113.584H161.673V115.288Z" fill="black"/>
<path d="M157.129 106.144V113.788H158.677V115.12H153.733V113.788H155.485V108.904L155.533 108.124L154.069 109.456L153.121 108.376L155.713 106.144H157.129Z" fill="black"/>
<path d="M152.224 110.668C152.224 113.836 150.796 115.288 148.876 115.288C147.004 115.288 145.564 113.836 145.564 110.668C145.564 107.476 147.004 106.036 148.876 106.036C150.796 106.036 152.224 107.476 152.224 110.668ZM150.544 110.668C150.544 108.112 149.752 107.416 148.876 107.416C148.048 107.416 147.244 108.112 147.244 110.668C147.244 113.212 148.048 113.896 148.876 113.896C149.752 113.896 150.544 113.212 150.544 110.668Z" fill="black"/>
<path d="M144.792 115.288H143.04V113.584H144.792V115.288Z" fill="black"/>
<path d="M139.179 106C140.859 106.036 141.975 107.08 141.939 108.412C141.939 109.432 141.351 110.032 140.595 110.404C141.651 110.8 142.095 111.484 142.095 112.54C142.059 114.376 140.595 115.348 138.915 115.348C137.091 115.348 136.191 114.436 135.711 112.864L137.175 112.288C137.367 113.056 138.039 113.908 138.891 113.908C139.947 113.908 140.463 113.248 140.463 112.576C140.463 111.736 140.235 111.16 138.363 111.16V109.96C139.947 109.924 140.319 109.42 140.319 108.652C140.331 107.824 139.863 107.416 139.083 107.416C138.063 107.416 137.715 108.088 137.559 108.952C137.043 108.868 136.527 108.76 135.999 108.676C136.347 106.84 137.487 106 139.179 106Z" fill="black"/>
<path d="M132.211 106C133.879 106 135.043 107.068 135.043 108.604C135.007 109.864 134.119 110.908 133.231 111.832L131.371 113.704C131.695 113.62 131.983 113.608 132.259 113.608H135.139V115.12H128.887V114.16L131.899 111.196C132.811 110.284 133.375 109.564 133.375 108.64C133.375 107.812 132.883 107.38 132.103 107.38C131.431 107.38 130.951 107.836 130.759 108.364C130.699 108.544 130.675 108.724 130.663 108.964L129.091 108.7C129.379 106.864 130.567 106 132.211 106Z" fill="black"/>
<path d="M128.434 110.668C128.434 113.836 127.006 115.288 125.086 115.288C123.214 115.288 121.774 113.836 121.774 110.668C121.774 107.476 123.214 106.036 125.086 106.036C127.006 106.036 128.434 107.476 128.434 110.668ZM126.754 110.668C126.754 108.112 125.962 107.416 125.086 107.416C124.258 107.416 123.454 108.112 123.454 110.668C123.454 113.212 124.258 113.896 125.086 113.896C125.962 113.896 126.754 113.212 126.754 110.668Z" fill="black"/>
<path d="M118.394 106C120.062 106 121.226 107.068 121.226 108.604C121.19 109.864 120.302 110.908 119.414 111.832L117.554 113.704C117.878 113.62 118.166 113.608 118.442 113.608H121.322V115.12H115.07V114.16L118.082 111.196C118.994 110.284 119.558 109.564 119.558 108.64C119.558 107.812 119.066 107.38 118.286 107.38C117.614 107.38 117.134 107.836 116.942 108.364C116.882 108.544 116.858 108.724 116.846 108.964L115.274 108.7C115.562 106.864 116.75 106 118.394 106Z" fill="black"/>
<path d="M172.365 134.04V134.73H171.035V137.19H170.215V131.78H171.035V134.04H172.365ZM168.885 136.75C167.845 136.42 167.105 135.71 166.715 134.82C166.325 135.86 165.535 136.63 164.455 137.02L164.035 136.37C165.395 135.89 166.285 134.76 166.285 133.45V133.1H164.275V132.44H169.085V133.1H167.105V133.45C167.105 134.62 167.945 135.68 169.275 136.11L168.885 136.75ZM168.185 137.42C169.995 137.42 171.135 138.03 171.135 139.07C171.135 140.12 169.995 140.73 168.185 140.73C166.345 140.73 165.225 140.12 165.225 139.07C165.225 138.03 166.345 137.42 168.185 137.42ZM168.185 140.08C169.515 140.08 170.315 139.71 170.315 139.07C170.315 138.43 169.515 138.07 168.185 138.07C166.815 138.07 166.045 138.43 166.045 139.07C166.045 139.71 166.815 140.08 168.185 140.08Z" fill="#888888"/>
<path d="M160.006 136.83C158.966 136.51 158.156 135.85 157.746 134.97C157.356 135.97 156.576 136.71 155.496 137.06L155.096 136.43C156.406 135.98 157.316 134.89 157.316 133.68V133.51H155.326V132.85H157.316V131.73H158.136V132.85H160.116V133.51H158.136V133.68C158.136 134.8 159.066 135.8 160.386 136.2L160.006 136.83ZM161.636 134.32V131.77H162.466V137.21H161.636V135H159.846V134.32H161.636ZM159.496 137.44C161.366 137.44 162.496 138.04 162.496 139.08C162.496 140.13 161.366 140.73 159.496 140.73C157.656 140.73 156.516 140.13 156.516 139.08C156.516 138.04 157.656 137.44 159.496 137.44ZM159.496 140.09C160.866 140.09 161.676 139.72 161.676 139.08C161.676 138.44 160.866 138.08 159.496 138.08C158.126 138.08 157.336 138.44 157.336 139.08C157.336 139.72 158.126 140.09 159.496 140.09Z" fill="#888888"/>
<path d="M154.196 136.88H150.536V140.75H149.706V136.88H146.086V136.21H152.036C152.316 134.92 152.316 133.97 152.316 133.13V133.01H147.096V132.35H153.116V133.13C153.116 133.97 153.116 134.92 152.866 136.21H154.196V136.88Z" fill="#888888"/>
<path d="M145.48 136.35C145.48 138.95 144.3 140.14 142.79 140.14C141.27 140.14 140.1 138.95 140.1 136.35C140.1 133.74 141.27 132.55 142.79 132.55C144.3 132.55 145.48 133.74 145.48 136.35ZM144.56 136.35C144.56 134.06 143.72 133.3 142.79 133.3C141.86 133.3 141.03 134.06 141.03 136.35C141.03 138.63 141.86 139.4 142.79 139.4C143.72 139.4 144.56 138.63 144.56 136.35Z" fill="#888888"/>
<path d="M139.723 136.35C139.723 138.95 138.543 140.14 137.033 140.14C135.513 140.14 134.343 138.95 134.343 136.35C134.343 133.74 135.513 132.55 137.033 132.55C138.543 132.55 139.723 133.74 139.723 136.35ZM138.803 136.35C138.803 134.06 137.963 133.3 137.033 133.3C136.103 133.3 135.273 134.06 135.273 136.35C135.273 138.63 136.103 139.4 137.033 139.4C137.963 139.4 138.803 138.63 138.803 136.35Z" fill="#888888"/>
<path d="M130.867 131.77V140.76H130.047V131.77H130.867ZM126.707 134.16C126.707 135.8 127.787 137.46 129.107 138.05L128.617 138.71C127.577 138.2 126.737 137.16 126.307 135.87C125.897 137.24 125.037 138.32 123.987 138.88L123.487 138.21C124.797 137.57 125.897 135.88 125.897 134.16V132.55H126.707V134.16Z" fill="#888888"/>
<path d="M119.018 136.1H114.978V132.19H115.788V133.47H118.208V132.2H119.018V133.05H121.088V131.78H121.908V136.46H121.088V135.32H119.018V136.1ZM119.018 133.69V134.68H121.088V133.69H119.018ZM118.208 134.11H115.788V135.44H118.208V134.11ZM122.248 139.97V140.62H116.148V138.4H121.098V137.54H116.128V136.89H121.908V139.02H116.958V139.97H122.248Z" fill="#888888"/>
<path d="M112.689 135.66H106.589V132.01H112.639V132.65H107.409V133.5H112.399V134.12H107.409V135.02H112.689V135.66ZM113.639 136.51V137.17H105.519V136.51H113.639ZM106.429 138.04H112.589V140.75H111.769V138.69H106.429V138.04Z" fill="#888888"/>
<path d="M100.579 134.98C98.6093 134.98 97.4293 134.44 97.4293 133.43C97.4293 132.42 98.6093 131.87 100.579 131.87C102.589 131.87 103.729 132.42 103.729 133.43C103.729 134.44 102.589 134.98 100.579 134.98ZM100.579 132.49C99.0893 132.49 98.2693 132.83 98.2693 133.43C98.2693 134.03 99.0893 134.37 100.579 134.37C102.069 134.37 102.889 134.03 102.889 133.43C102.889 132.83 102.069 132.49 100.579 132.49ZM100.989 136.23V137.07H103.599V139.09H98.3293V140H103.869V140.64H97.5293V138.49H102.789V137.69H97.5093V137.07H100.169V136.23H96.5293V135.57H104.629V136.23H100.989Z" fill="#888888"/>
<path d="M94.92 131.77V140.75H94.1V135.48H92.02V134.81H94.1V131.77H94.92ZM90.67 134.15C90.67 135.77 91.69 137.42 92.99 138.03L92.51 138.68C91.51 138.17 90.67 137.09 90.26 135.84C89.86 137.17 89.04 138.31 88.03 138.84L87.53 138.19C88.83 137.55 89.85 135.8 89.85 134.15V132.54H90.67V134.15Z" fill="#888888"/>
<path fill-rule="evenodd" clip-rule="evenodd" d="M170 23H244V93.6665C243.939 93.4406 243.889 93.2775 243.853 93.175L243.86 93.1823C242.885 90.3928 238.359 88.8123 238.359 88.8123L219.837 81.1646L216.661 76.4128C216.593 75.339 216.56 74.2159 216.59 73.1182C217.275 72.3482 217.874 71.4948 218.355 70.5672C219.242 68.8573 219.626 66.6196 219.929 64.2634C220.336 64.1396 220.772 63.8672 221.209 63.495C222.089 62.7501 222.56 59.0864 222.875 56.6381C222.951 56.046 223.018 55.5251 223.079 55.1336C223.304 53.7005 222.575 53.2076 221.515 53.3805C222.518 47.7545 221.033 43.3454 220.079 41.652C219.763 41.0937 219.381 40.8035 218.988 40.673C219.369 38.5182 218.133 35.9596 218.003 36.6774C217.632 38.6983 214.451 37.9756 210.873 37.1628C209.719 36.9006 208.523 36.6289 207.367 36.437C200.092 35.2297 197.534 36.5957 197.586 39.9856C196.729 39.5661 195.376 39.4719 194.53 40.3118C193.439 41.3951 189.975 45.6723 191.583 54.2653C190.433 54.0108 189.613 54.4776 189.85 55.9858C189.911 56.3772 189.978 56.8982 190.054 57.4902C190.369 59.9386 190.84 63.6023 191.72 64.3472C192.508 65.0189 193.295 65.3655 193.907 65.1007C194.392 67.04 194.92 68.7708 195.425 69.868C195.956 71.0279 196.629 72.0783 197.404 73.0069C197.432 74.1849 197.424 75.4001 197.379 76.5865L194.647 81.0991L176.309 88.0184C176.309 88.0184 173.433 89.1109 171.599 91.1721C171.306 91.5019 170.693 93.1787 170 96.0816V23Z" fill="#EBECF1"/>
<rect x="0.5" y="0.5" width="259" height="157" rx="7.5" stroke="#EAEAEA"/>
</svg>
