<svg width="260" height="159" viewBox="0 0 260 159" fill="none" xmlns="http://www.w3.org/2000/svg">
<path d="M236 -2H254C258.418 -2 262 1.58172 262 6H258C258 3.79086 256.209 2 254 2H236V-2ZM260 24H236H260ZM236 24V0V24ZM254 -2C258.418 -2 262 1.58172 262 6V24H258V6C258 3.79086 256.209 2 254 2V-2Z" fill="#06316F" mask="url(#path-1-inside-1_4608_44782)"/>
<path d="M240 139H260H240ZM262 151C262 156.523 257.523 161 252 161H240V157H252C255.314 157 258 154.314 258 151H262ZM240 159V139V159ZM262 139V151C262 156.523 257.523 161 252 161V157C255.314 157 258 154.314 258 151V139H262Z" fill="#06316F" mask="url(#path-3-inside-2_4608_44782)"/>
<path d="M-2 6C-2 1.58172 1.58172 -2 6 -2H24V2H6C3.79086 2 2 3.79086 2 6H-2ZM24 24H0H24ZM-2 24V6C-2 1.58172 1.58172 -2 6 -2V2C3.79086 2 2 3.79086 2 6V24H-2ZM24 0V24V0Z" fill="#06316F" mask="url(#path-5-inside-3_4608_44782)"/>
<path d="M0 139H20H0ZM20 161H6C1.58172 161 -2 157.418 -2 153H2C2 155.209 3.79086 157 6 157H20V161ZM6 161C1.58172 161 -2 157.418 -2 153V139H2V153C2 155.209 3.79086 157 6 157V161ZM20 139V159V139Z" fill="#06316F" mask="url(#path-7-inside-4_4608_44782)"/>
<rect x="25.5" y="19.5" width="209" height="119" rx="7.5" fill="#FCFCFC"/>
<rect x="25.5" y="19.5" width="209" height="119" rx="7.5" stroke="#EAEAEA"/>
<path fill-rule="evenodd" clip-rule="evenodd" d="M41 39C41 36.7909 42.7909 35 45 35H103C105.209 35 107 36.7909 107 39V102.375C106.946 102.189 106.901 102.054 106.869 101.969L106.876 101.975C106.005 99.674 101.969 98.3701 101.969 98.3701L85.4492 92.0608L82.6163 88.1405C82.5558 87.2546 82.5262 86.3281 82.5529 85.4225C83.164 84.7872 83.6988 84.0832 84.1276 83.3179C84.9188 81.9073 85.2614 80.0612 85.5316 78.1173C85.8942 78.0151 86.2834 77.7904 86.6726 77.4834C87.4576 76.8689 87.8777 73.8464 88.1585 71.8266L88.1585 71.8264V71.8264L88.1585 71.8261C88.2264 71.3378 88.2861 70.9081 88.3409 70.5852C88.5415 69.4029 87.8908 68.9963 86.946 69.1389C87.8407 64.4975 86.5162 60.8599 85.6651 59.4628C85.383 59.0023 85.0423 58.7629 84.6918 58.6552C85.0319 56.8775 83.9295 54.7667 83.8136 55.3588C83.4822 57.0261 80.6452 56.4299 77.4543 55.7593L77.4542 55.7593L77.4542 55.7593C76.4246 55.5429 75.3581 55.3188 74.3271 55.1605C67.8384 54.1645 65.5576 55.2914 65.6038 58.0881C64.8393 57.742 63.6324 57.6643 62.8779 58.3572C61.9048 59.2509 58.8154 62.7796 60.2496 69.8689C59.2244 69.6589 58.4928 70.044 58.7039 71.2882C58.7586 71.6111 58.8184 72.0408 58.8862 72.5291L58.8863 72.5294L58.8863 72.5294C59.167 74.5493 59.5872 77.5719 60.3722 78.1864C61.0746 78.7406 61.777 79.0265 62.3227 78.8081C62.7547 80.408 63.2257 81.8359 63.6761 82.7411C64.1502 83.698 64.7502 84.5646 65.4413 85.3307C65.4662 86.3025 65.4595 87.3051 65.4195 88.2838L62.9826 92.0067L46.6266 97.7151C46.6266 97.7151 44.062 98.6165 42.4264 100.317C42.1647 100.589 41.618 101.972 41 104.367V39Z" fill="#EBECF1"/>
<path d="M121 37C121 35.8954 121.895 35 123 35H153C154.105 35 155 35.8954 155 37V41C155 42.1046 154.105 43 153 43H123C121.895 43 121 42.1046 121 41V37Z" fill="#EBECF1"/>
<path d="M172.5 60C172.5 58.8954 173.395 58 174.5 58H188.5C189.605 58 190.5 58.8954 190.5 60V74C190.5 75.1046 189.605 76 188.5 76H174.5C173.395 76 172.5 75.1046 172.5 74V60Z" fill="#EBECF1"/>
<path d="M121 90C121 88.8954 121.895 88 123 88H208C209.105 88 210 88.8954 210 90V91C210 92.1046 209.105 93 208 93H123C121.895 93 121 92.1046 121 91V90Z" fill="#EBECF1"/>
<path d="M121 102C121 100.895 121.895 100 123 100H189C190.105 100 191 100.895 191 102V103C191 104.105 190.105 105 189 105H123C121.895 105 121 104.105 121 103V102Z" fill="#EBECF1"/>
<path d="M162 120C162 118.895 162.895 118 164 118H195C196.105 118 197 118.895 197 120V121C197 122.105 196.105 123 195 123H164C162.895 123 162 122.105 162 121V120Z" fill="#EBECF1"/>
<path d="M203 109C203 107.895 203.895 107 205 107H217C218.105 107 219 107.895 219 109V121C219 122.105 218.105 123 217 123H205C203.895 123 203 122.105 203 121V109Z" fill="#F64A4A" fill-opacity="0.2"/>
<path d="M141 67C141 72.5228 136.523 77 131 77C125.477 77 121 72.5228 121 67C121 61.4772 125.477 57 131 57C136.523 57 141 61.4772 141 67Z" fill="#EBECF1"/>
<path d="M155.284 58.8705C156.06 57.5724 157.94 57.5724 158.717 58.8705L167.315 73.2494C168.112 74.5825 167.152 76.2758 165.598 76.2758H148.402C146.849 76.2758 145.888 74.5825 146.685 73.2494L155.284 58.8705Z" fill="#EBECF1"/>
</svg>
