<svg width="260" height="158" viewBox="0 0 260 158" fill="none" xmlns="http://www.w3.org/2000/svg">
<rect x="0.5" y="0.5" width="259" height="157" rx="7.5" fill="#FCFCFC"/>
<path d="M139.583 24.995V23.89H137.75V19.262H136.411V31.001H137.75V24.995H139.583ZM132.771 22.668V21.537H135.254V20.432H128.871V21.537H131.432V22.668C131.432 24.605 130.249 26.828 128.442 27.699L129.209 28.765C130.574 28.102 131.601 26.698 132.121 25.06C132.654 26.581 133.655 27.842 134.968 28.466L135.709 27.413C133.928 26.581 132.771 24.475 132.771 22.668ZM150.983 24.93H146.342V23.76H149.761V22.681H143.014V20.848H149.683V19.782H141.688V23.76H145.003V24.93H140.375V26.022H150.983V24.93ZM145.64 26.737C143.131 26.737 141.597 27.517 141.597 28.869C141.597 30.234 143.131 31.014 145.64 31.014C148.227 31.014 149.683 30.234 149.683 28.869C149.683 27.517 148.162 26.737 145.64 26.737ZM145.64 29.974C143.911 29.974 142.962 29.597 142.962 28.869C142.962 28.141 143.911 27.764 145.64 27.764C147.369 27.764 148.331 28.141 148.331 28.869C148.331 29.597 147.369 29.974 145.64 29.974ZM162.981 25.073V23.968H161.148V19.249H159.809V31.001H161.148V25.073H162.981ZM156.117 22.993V22.317H158.6V21.238H156.117V19.496H154.778V21.238H152.256V22.317H154.778V22.993C154.778 24.904 153.686 26.893 151.892 27.751L152.633 28.778C153.985 28.154 154.947 26.867 155.467 25.346C155.948 26.763 156.884 27.959 158.145 28.57L158.886 27.543C157.157 26.711 156.117 24.787 156.117 22.993ZM169.064 24.306C171.56 24.306 173.224 23.37 173.224 21.914C173.224 20.458 171.56 19.522 169.064 19.522C166.529 19.522 164.904 20.458 164.904 21.914C164.904 23.37 166.529 24.306 169.064 24.306ZM169.064 20.601C170.715 20.601 171.794 21.082 171.794 21.914C171.794 22.746 170.715 23.227 169.064 23.227C167.4 23.227 166.321 22.746 166.321 21.914C166.321 21.082 167.4 20.601 169.064 20.601ZM174.394 25.099H163.747V26.191H168.479V28.414H169.844V26.191H174.394V25.099ZM166.412 29.688V27.309H165.06V30.78H173.224V29.688H166.412ZM183.844 22.408H181.712V23.513H183.844V27.855H185.183V19.275H183.844V22.408ZM181.777 26.191L182.44 25.151C180.672 24.527 179.684 23.071 179.684 21.628V21.225H182.128V20.146H175.849V21.225H178.332V21.628C178.332 23.201 177.266 24.774 175.446 25.398L176.135 26.451C177.539 25.97 178.514 24.969 179.034 23.669C179.541 24.826 180.477 25.736 181.777 26.191ZM185.482 29.688H178.917V27.114H177.578V30.78H185.482V29.688ZM193.099 25.853V24.826H195.543V27.829H196.882V19.262H195.543V21.225H193.099V20.237H187.665V25.853H193.099ZM191.799 21.303V24.787H188.978V21.303H191.799ZM193.099 22.317H195.543V23.747H193.099V22.317ZM197.155 29.688H190.59V27.049H189.238V30.78H197.155V29.688ZM208.607 19.262H207.255V24.046H205.513V25.138H207.255V31.001H208.607V19.262ZM205.747 22.174V21.069H202.978V19.431H201.639V21.069H198.857V22.174H205.747ZM202.302 22.993C200.703 22.993 199.533 24.124 199.533 25.736C199.533 27.335 200.703 28.466 202.302 28.466C203.914 28.466 205.084 27.335 205.084 25.736C205.084 24.124 203.914 22.993 202.302 22.993ZM202.302 27.348C201.418 27.348 200.768 26.724 200.768 25.736C200.768 24.748 201.418 24.111 202.302 24.111C203.186 24.111 203.849 24.761 203.849 25.736C203.849 26.724 203.186 27.348 202.302 27.348ZM211.076 23.136L211.557 24.176C213.65 23.955 215.223 23.11 215.86 21.901C216.484 23.11 218.083 23.955 220.163 24.176L220.631 23.136C218.447 22.928 216.926 21.979 216.757 20.913H220.202V19.834H211.531V20.913H214.95C214.781 21.979 213.26 22.928 211.076 23.136ZM221.164 24.774H210.543V25.853H221.164V24.774ZM215.834 26.698C213.325 26.698 211.791 27.491 211.791 28.856C211.791 30.221 213.325 31.001 215.834 31.001C218.421 31.001 219.877 30.221 219.877 28.856C219.877 27.491 218.356 26.698 215.834 26.698ZM215.834 29.948C214.105 29.948 213.156 29.584 213.156 28.856C213.156 28.128 214.105 27.751 215.834 27.751C217.563 27.751 218.525 28.128 218.525 28.856C218.525 29.584 217.563 29.948 215.834 29.948Z" fill="black"/>
<rect width="49" height="34" transform="translate(106 42)" fill="#9BEDE9" fill-opacity="0.2"/>
<path d="M118.181 48.513H117.292V47.218H116.571V50.459H117.292V49.108H118.181V48.513ZM115.556 50.249V47.484H114.842V48.317H113.295V47.484H112.574V50.249H115.556ZM114.842 48.87V49.675H113.295V48.87H114.842ZM113.932 52.916V52.356H117.292V50.739H113.211V51.299H116.578V51.824H113.225V53.483H117.502V52.916H113.932ZM124.382 49.745H123.514C123.675 48.989 123.668 48.457 123.668 47.974V47.491H119.377V48.072H122.961C122.961 48.548 122.947 49.045 122.8 49.745H118.656V50.333H124.382V49.745ZM122.94 50.83V51.586H120.084V50.83H119.37V53.462H123.661V50.83H122.94ZM122.94 52.146V52.881H120.084V52.146H122.94ZM130.171 47.218H129.45V53.539H130.171V47.218ZM128.309 47.883H125.313V48.471H127.567C127.448 49.927 126.657 51.033 124.998 51.838L125.383 52.412C127.553 51.362 128.309 49.766 128.309 47.883ZM137.072 49.22H136.232V47.218H135.504V51.964H136.232V49.815H137.072V49.22ZM133.887 49.85L134.594 49.927C134.755 49.108 134.748 48.485 134.748 48.058V47.694H131.57V48.282H134.041C134.034 48.674 134.02 49.171 133.887 49.85ZM135.168 50.767L135.119 50.242C134.496 50.347 133.831 50.382 133.159 50.41V49.136H132.445V50.431C131.997 50.452 131.577 50.445 131.185 50.445L131.262 51.033C132.361 51.033 133.859 50.991 135.168 50.767ZM132.865 52.832V51.544H132.137V53.42H136.435V52.832H132.865Z" fill="#00A69E"/>
<path d="M120.16 60.64H118.84V63.53H117.07V64.59H118.84V69.88H120.16V60.64ZM115.89 62.69V61.36H114.56V62.69C114.56 64.44 113.87 66.23 112.3 66.95L113.12 68.01C114.16 67.49 114.84 66.56 115.24 65.35C115.63 66.48 116.29 67.36 117.3 67.85L118.08 66.8C116.56 66.13 115.89 64.42 115.89 62.69ZM125.589 63.87C127.779 63.87 128.929 63.34 128.929 62.3C128.929 61.29 127.779 60.73 125.589 60.73C123.419 60.73 122.259 61.29 122.259 62.3C122.259 63.34 123.419 63.87 125.589 63.87ZM125.589 61.7C126.959 61.7 127.559 61.89 127.559 62.3C127.559 62.73 126.959 62.91 125.589 62.91C124.259 62.91 123.629 62.73 123.629 62.3C123.629 61.89 124.259 61.7 125.589 61.7ZM126.239 65.31H129.749V64.27H121.429V65.31H124.919V65.91H122.379V66.88H127.439V67.37H122.389V69.79H128.979V68.8H123.699V68.28H128.739V65.91H126.239V65.31ZM132.338 70.62L133.258 70.23C132.418 68.74 132.038 67.17 132.038 65.44C132.038 63.73 132.418 62.15 133.258 60.66L132.338 60.27C131.388 61.82 130.848 63.44 130.848 65.44C130.848 67.45 131.388 69.07 132.338 70.62ZM137.658 61.52H136.478L134.318 63.38L135.108 64.28L136.328 63.17L136.288 63.82V67.89H134.828V69H138.948V67.89H137.658V61.52ZM143.415 61.52H142.235L140.075 63.38L140.865 64.28L142.085 63.17L142.045 63.82V67.89H140.585V69H144.705V67.89H143.415V61.52ZM145.612 70.23L146.522 70.62C147.472 69.07 148.022 67.45 148.022 65.44C148.022 63.44 147.482 61.82 146.522 60.27L145.612 60.66C146.452 62.15 146.832 63.73 146.832 65.44C146.832 67.17 146.452 68.74 145.612 70.23Z" fill="black"/>
<rect width="79" height="34" transform="translate(159 42)" fill="#9BEDE9" fill-opacity="0.2"/>
<path d="M168.556 50.767V50.214H169.872V51.831H170.593V47.218H169.872V48.275H168.556V47.743H165.63V50.767H168.556ZM167.856 48.317V50.193H166.337V48.317H167.856ZM168.556 48.863H169.872V49.633H168.556V48.863ZM170.74 52.832H167.205V51.411H166.477V53.42H170.74V52.832ZM176.906 47.218H176.178V49.794H175.24V50.382H176.178V53.539H176.906V47.218ZM175.366 48.786V48.191H173.875V47.309H173.154V48.191H171.656V48.786H175.366ZM173.511 49.227C172.65 49.227 172.02 49.836 172.02 50.704C172.02 51.565 172.65 52.174 173.511 52.174C174.379 52.174 175.009 51.565 175.009 50.704C175.009 49.836 174.379 49.227 173.511 49.227ZM173.511 51.572C173.035 51.572 172.685 51.236 172.685 50.704C172.685 50.172 173.035 49.829 173.511 49.829C173.987 49.829 174.344 50.179 174.344 50.704C174.344 51.236 173.987 51.572 173.511 51.572ZM181.155 50.865V49.542H182.471V51.901H183.192V47.218H182.471V48.954H181.155V47.638H180.448V48.681H178.957V47.638H178.243V50.865H181.155ZM180.448 49.248V50.277H178.957V49.248H180.448ZM183.339 52.832H179.804V51.439H179.076V53.42H183.339V52.832ZM189.687 48.66V48.079H187.468V47.302H186.747V48.079H184.514V48.66H189.687ZM189.981 52.258H187.468V51.446C188.567 51.362 189.204 50.935 189.204 50.235C189.204 49.472 188.392 49.024 187.097 49.024C185.809 49.024 184.997 49.472 184.997 50.235C184.997 50.935 185.648 51.369 186.747 51.446V52.258H184.248V52.853H189.981V52.258ZM185.732 50.235C185.732 49.815 186.222 49.584 187.097 49.584C187.972 49.584 188.469 49.815 188.469 50.235C188.469 50.655 187.972 50.893 187.097 50.893C186.222 50.893 185.732 50.655 185.732 50.235Z" fill="#00A69E"/>
<path d="M170.75 65.29C170.75 62.63 169.56 61.43 167.96 61.43C166.4 61.43 165.2 62.63 165.2 65.29C165.2 67.93 166.4 69.14 167.96 69.14C169.56 69.14 170.75 67.93 170.75 65.29ZM169.35 65.29C169.35 67.41 168.69 67.98 167.96 67.98C167.27 67.98 166.6 67.41 166.6 65.29C166.6 63.16 167.27 62.58 167.96 62.58C168.69 62.58 169.35 63.16 169.35 65.29ZM176.507 65.29C176.507 62.63 175.317 61.43 173.717 61.43C172.157 61.43 170.957 62.63 170.957 65.29C170.957 67.93 172.157 69.14 173.717 69.14C175.317 69.14 176.507 67.93 176.507 65.29ZM175.107 65.29C175.107 67.41 174.447 67.98 173.717 67.98C173.027 67.98 172.357 67.41 172.357 65.29C172.357 63.16 173.027 62.58 173.717 62.58C174.447 62.58 175.107 63.16 175.107 65.29ZM177.004 64.74V65.79H180.554V64.74H177.004ZM186.586 65.29C186.586 62.63 185.396 61.43 183.796 61.43C182.236 61.43 181.036 62.63 181.036 65.29C181.036 67.93 182.236 69.14 183.796 69.14C185.396 69.14 186.586 67.93 186.586 65.29ZM185.186 65.29C185.186 67.41 184.526 67.98 183.796 67.98C183.106 67.98 182.436 67.41 182.436 65.29C182.436 63.16 183.106 62.58 183.796 62.58C184.526 62.58 185.186 63.16 185.186 65.29ZM192.343 65.29C192.343 62.63 191.153 61.43 189.553 61.43C187.993 61.43 186.793 62.63 186.793 65.29C186.793 67.93 187.993 69.14 189.553 69.14C191.153 69.14 192.343 67.93 192.343 65.29ZM190.943 65.29C190.943 67.41 190.283 67.98 189.553 67.98C188.863 67.98 188.193 67.41 188.193 65.29C188.193 63.16 188.863 62.58 189.553 62.58C190.283 62.58 190.943 63.16 190.943 65.29ZM198.1 65.29C198.1 62.63 196.91 61.43 195.31 61.43C193.75 61.43 192.55 62.63 192.55 65.29C192.55 67.93 193.75 69.14 195.31 69.14C196.91 69.14 198.1 67.93 198.1 65.29ZM196.7 65.29C196.7 67.41 196.04 67.98 195.31 67.98C194.62 67.98 193.95 67.41 193.95 65.29C193.95 63.16 194.62 62.58 195.31 62.58C196.04 62.58 196.7 63.16 196.7 65.29ZM203.857 65.29C203.857 62.63 202.667 61.43 201.067 61.43C199.507 61.43 198.307 62.63 198.307 65.29C198.307 67.93 199.507 69.14 201.067 69.14C202.667 69.14 203.857 67.93 203.857 65.29ZM202.457 65.29C202.457 67.41 201.797 67.98 201.067 67.98C200.377 67.98 199.707 67.41 199.707 65.29C199.707 63.16 200.377 62.58 201.067 62.58C201.797 62.58 202.457 63.16 202.457 65.29ZM209.614 65.29C209.614 62.63 208.424 61.43 206.824 61.43C205.264 61.43 204.064 62.63 204.064 65.29C204.064 67.93 205.264 69.14 206.824 69.14C208.424 69.14 209.614 67.93 209.614 65.29ZM208.214 65.29C208.214 67.41 207.554 67.98 206.824 67.98C206.134 67.98 205.464 67.41 205.464 65.29C205.464 63.16 206.134 62.58 206.824 62.58C207.554 62.58 208.214 63.16 208.214 65.29ZM215.371 65.29C215.371 62.63 214.181 61.43 212.581 61.43C211.021 61.43 209.821 62.63 209.821 65.29C209.821 67.93 211.021 69.14 212.581 69.14C214.181 69.14 215.371 67.93 215.371 65.29ZM213.971 65.29C213.971 67.41 213.311 67.98 212.581 67.98C211.891 67.98 211.221 67.41 211.221 65.29C211.221 63.16 211.891 62.58 212.581 62.58C213.311 62.58 213.971 63.16 213.971 65.29ZM215.868 64.74V65.79H219.418V64.74H215.868ZM225.449 65.29C225.449 62.63 224.259 61.43 222.659 61.43C221.099 61.43 219.899 62.63 219.899 65.29C219.899 67.93 221.099 69.14 222.659 69.14C224.259 69.14 225.449 67.93 225.449 65.29ZM224.049 65.29C224.049 67.41 223.389 67.98 222.659 67.98C221.969 67.98 221.299 67.41 221.299 65.29C221.299 63.16 221.969 62.58 222.659 62.58C223.389 62.58 224.049 63.16 224.049 65.29ZM231.206 65.29C231.206 62.63 230.016 61.43 228.416 61.43C226.856 61.43 225.656 62.63 225.656 65.29C225.656 67.93 226.856 69.14 228.416 69.14C230.016 69.14 231.206 67.93 231.206 65.29ZM229.806 65.29C229.806 67.41 229.146 67.98 228.416 67.98C227.726 67.98 227.056 67.41 227.056 65.29C227.056 63.16 227.726 62.58 228.416 62.58C229.146 62.58 229.806 63.16 229.806 65.29Z" fill="black"/>
<path d="M133.92 131.77H133.1V134.81H131.02V135.48H133.1V140.75H133.92V131.77ZM129.67 134.15V132.54H128.85V134.15C128.85 135.8 127.83 137.55 126.53 138.19L127.03 138.84C128.04 138.31 128.86 137.17 129.26 135.84C129.67 137.09 130.51 138.17 131.51 138.68L131.99 138.03C130.69 137.42 129.67 135.77 129.67 134.15ZM139.579 134.98C141.589 134.98 142.729 134.44 142.729 133.43C142.729 132.42 141.589 131.87 139.579 131.87C137.609 131.87 136.429 132.42 136.429 133.43C136.429 134.44 137.609 134.98 139.579 134.98ZM139.579 132.49C141.069 132.49 141.889 132.83 141.889 133.43C141.889 134.03 141.069 134.37 139.579 134.37C138.089 134.37 137.269 134.03 137.269 133.43C137.269 132.83 138.089 132.49 139.579 132.49ZM139.989 136.23H143.629V135.57H135.529V136.23H139.169V137.07H136.509V137.69H141.789V138.49H136.529V140.64H142.869V140H137.329V139.09H142.599V137.07H139.989V136.23ZM151.868 131.78H151.048V140.74H151.868V131.78ZM147.728 134.51V133.37H149.838V132.69H144.828V133.37H146.908V134.51C146.908 136.06 145.818 137.74 144.528 138.36L145.008 139.02C146.008 138.52 146.918 137.36 147.318 136.06C147.748 137.29 148.628 138.32 149.668 138.8L150.128 138.14C148.808 137.58 147.728 136.03 147.728 134.51ZM161.818 134.03H160.488V131.77H159.668V137.17H160.488V134.71H161.818V134.03ZM158.048 136.47V132.34H157.248V133.69H154.708V132.34H153.898V136.47H158.048ZM157.248 134.33V135.81H154.708V134.33H157.248ZM157.638 137.4C155.808 137.4 154.678 138 154.678 139.07C154.678 140.14 155.808 140.74 157.638 140.74C159.448 140.74 160.588 140.14 160.588 139.07C160.588 138 159.448 137.4 157.638 137.4ZM157.638 140.09C156.268 140.09 155.498 139.71 155.498 139.07C155.498 138.43 156.268 138.06 157.638 138.06C158.968 138.06 159.768 138.43 159.768 139.07C159.768 139.71 158.968 140.09 157.638 140.09ZM166.847 134.09H169.087V135.29H166.737V135.96H169.087V137.14H169.917V131.78H169.087V133.42H167.057C167.127 133.11 167.157 132.78 167.157 132.45H163.107V133.11H166.267C166.107 134.68 164.807 135.85 162.647 136.49L162.977 137.14C164.947 136.57 166.237 135.56 166.847 134.09ZM166.987 137.24C165.177 137.24 164.017 137.89 164.017 138.97C164.017 140.05 165.177 140.7 166.987 140.7C168.797 140.7 169.957 140.05 169.957 138.97C169.957 137.89 168.797 137.24 166.987 137.24ZM166.987 140.06C165.667 140.06 164.827 139.65 164.827 138.97C164.827 138.29 165.657 137.89 166.987 137.89C168.317 137.89 169.147 138.29 169.147 138.97C169.147 139.65 168.307 140.06 166.987 140.06ZM176.446 136.28L176.796 135.65C175.486 135.33 174.586 134.47 174.586 133.5V133.35H176.566V132.69H174.586V131.73H173.766V132.69H171.776V133.35H173.766V133.5C173.766 134.57 172.816 135.48 171.496 135.82L171.866 136.45C172.946 136.14 173.796 135.52 174.186 134.64C174.596 135.44 175.406 136.01 176.446 136.28ZM179.816 133.77H178.486V131.78H177.666V136.51H178.486V134.45H179.816V133.77ZM173.616 140V139.05H178.486V136.95H172.786V137.59H177.676V138.44H172.816V140.64H178.816V140H173.616ZM185.455 136.83L185.835 136.2C184.515 135.8 183.585 134.8 183.585 133.68V133.51H185.565V132.85H183.585V131.73H182.765V132.85H180.775V133.51H182.765V133.68C182.765 134.89 181.855 135.98 180.545 136.43L180.945 137.06C182.025 136.71 182.805 135.97 183.195 134.97C183.605 135.85 184.415 136.51 185.455 136.83ZM187.085 134.32H185.295V135H187.085V137.21H187.915V131.77H187.085V134.32ZM184.945 137.44C183.105 137.44 181.965 138.04 181.965 139.08C181.965 140.13 183.105 140.73 184.945 140.73C186.815 140.73 187.945 140.13 187.945 139.08C187.945 138.04 186.815 137.44 184.945 137.44ZM184.945 140.09C183.575 140.09 182.785 139.72 182.785 139.08C182.785 138.44 183.575 138.08 184.945 138.08C186.315 138.08 187.125 138.44 187.125 139.08C187.125 139.72 186.315 140.09 184.945 140.09ZM197.815 134.04H196.485V131.78H195.665V137.19H196.485V134.73H197.815V134.04ZM194.335 136.75L194.725 136.11C193.395 135.68 192.555 134.62 192.555 133.45V133.1H194.535V132.44H189.725V133.1H191.735V133.45C191.735 134.76 190.845 135.89 189.485 136.37L189.905 137.02C190.985 136.63 191.775 135.86 192.165 134.82C192.555 135.71 193.295 136.42 194.335 136.75ZM193.635 137.42C191.795 137.42 190.675 138.03 190.675 139.07C190.675 140.12 191.795 140.73 193.635 140.73C195.445 140.73 196.585 140.12 196.585 139.07C196.585 138.03 195.445 137.42 193.635 137.42ZM193.635 140.08C192.265 140.08 191.495 139.71 191.495 139.07C191.495 138.43 192.265 138.07 193.635 138.07C194.965 138.07 195.765 138.43 195.765 139.07C195.765 139.71 194.965 140.08 193.635 140.08Z" fill="#888888"/>
<path d="M76.45 139.19H73.56C73.31 139.19 73.01 139.23 72.73 139.31L74.78 137.28C75.61 136.45 76.31 135.69 76.31 134.6C76.31 133.3 75.34 132.54 74.09 132.54C72.84 132.54 71.87 133.27 71.68 134.62L72.58 134.77C72.58 133.93 73.2 133.33 74.04 133.33C74.8 133.33 75.36 133.74 75.39 134.62C75.39 135.48 74.83 136.11 74.06 136.93L71.53 139.36V140H76.45V139.19ZM82.447 136.35C82.447 133.74 81.267 132.55 79.757 132.55C78.237 132.55 77.067 133.74 77.067 136.35C77.067 138.95 78.237 140.14 79.757 140.14C81.267 140.14 82.447 138.95 82.447 136.35ZM81.527 136.35C81.527 138.63 80.687 139.4 79.757 139.4C78.827 139.4 77.997 138.63 77.997 136.35C77.997 134.06 78.827 133.3 79.757 133.3C80.687 133.3 81.527 134.06 81.527 136.35ZM87.9641 139.19H85.0741C84.8241 139.19 84.5241 139.23 84.2441 139.31L86.2941 137.28C87.1241 136.45 87.8241 135.69 87.8241 134.6C87.8241 133.3 86.8541 132.54 85.6041 132.54C84.3541 132.54 83.3841 133.27 83.1941 134.62L84.0941 134.77C84.0941 133.93 84.7141 133.33 85.5541 133.33C86.3141 133.33 86.8741 133.74 86.9041 134.62C86.9041 135.48 86.3441 136.11 85.5741 136.93L83.0441 139.36V140H87.9641V139.19ZM88.9811 134.64L89.8911 134.79C89.8911 133.97 90.5011 133.35 91.3411 133.35C92.1111 133.35 92.6511 133.76 92.6511 134.6C92.6511 135.36 92.1911 135.89 90.9011 135.92V136.58C92.4711 136.58 92.8011 137.16 92.8011 137.95C92.8011 138.6 92.2911 139.34 91.2411 139.34C90.4811 139.34 90.0311 138.95 89.7211 138.31C89.6411 138.12 89.5911 137.97 89.5711 137.86L88.7511 138.2C89.1011 139.28 89.6711 140.13 91.2511 140.13C92.6211 140.13 93.7311 139.27 93.7311 137.93C93.7311 137.01 93.2311 136.4 92.2711 136.16C93.0711 135.89 93.5611 135.41 93.5611 134.45C93.5611 133.33 92.6611 132.55 91.3911 132.55C90.1411 132.55 89.1711 133.31 88.9811 134.64ZM94.4481 139.2V140.14H95.3581V139.2H94.4481ZM101.823 136.35C101.823 133.74 100.643 132.55 99.1328 132.55C97.6128 132.55 96.4428 133.74 96.4428 136.35C96.4428 138.95 97.6128 140.14 99.1328 140.14C100.643 140.14 101.823 138.95 101.823 136.35ZM100.903 136.35C100.903 138.63 100.063 139.4 99.1328 139.4C98.2028 139.4 97.3728 138.63 97.3728 136.35C97.3728 134.06 98.2028 133.3 99.1328 133.3C100.063 133.3 100.903 134.06 100.903 136.35ZM107.15 139.26H105.71V132.63H104.98L103.01 134.33L103.5 134.92L104.83 133.73C104.82 133.8 104.82 133.89 104.82 133.98V139.26H103.19V140H107.15V139.26ZM108.067 139.2V140.14H108.977V139.2H108.067ZM115.442 136.35C115.442 133.74 114.262 132.55 112.752 132.55C111.232 132.55 110.062 133.74 110.062 136.35C110.062 138.95 111.232 140.14 112.752 140.14C114.262 140.14 115.442 138.95 115.442 136.35ZM114.522 136.35C114.522 138.63 113.682 139.4 112.752 139.4C111.822 139.4 110.992 138.63 110.992 136.35C110.992 134.06 111.822 133.3 112.752 133.3C113.682 133.3 114.522 134.06 114.522 136.35ZM120.769 139.26H119.329V132.63H118.599L116.629 134.33L117.119 134.92L118.449 133.73C118.439 133.8 118.439 133.89 118.439 133.98V139.26H116.809V140H120.769V139.26Z" fill="#888888"/>
<path fill-rule="evenodd" clip-rule="evenodd" d="M16 42H90V112.667C89.939 112.441 89.8893 112.277 89.8531 112.175L89.8604 112.182C88.8848 109.393 84.3589 107.812 84.3589 107.812L65.837 100.165L62.6607 95.4128C62.5929 94.339 62.5598 93.2159 62.5897 92.1182C63.2748 91.3482 63.8744 90.4948 64.3552 89.5672C65.2424 87.8573 65.6264 85.6196 65.9294 83.2634C66.3359 83.1396 66.7723 82.8672 67.2087 82.495C68.0888 81.7501 68.5599 78.0864 68.8747 75.6381C68.9508 75.046 69.0178 74.5251 69.0792 74.1336C69.3041 72.7005 68.5746 72.2076 67.5153 72.3805C68.5184 66.7545 67.0333 62.3454 66.079 60.652C65.7628 60.0937 65.3808 59.8035 64.9878 59.673C65.3692 57.5182 64.1331 54.9596 64.0031 55.6774C63.6315 57.6983 60.4507 56.9756 56.873 56.1628C55.7186 55.9006 54.5228 55.6289 53.3668 55.437C46.0916 54.2297 43.5343 55.5957 43.5861 58.9856C42.7289 58.5661 41.3757 58.4719 40.5298 59.3118C39.4388 60.3951 35.9749 64.6723 37.5829 73.2653C36.4335 73.0108 35.6132 73.4776 35.8498 74.9858C35.9112 75.3772 35.9782 75.8982 36.0543 76.4902C36.3691 78.9386 36.8402 82.6023 37.7203 83.3472C38.5079 84.0189 39.2954 84.3655 39.9073 84.1007C40.3916 86.04 40.9197 87.7708 41.4247 88.868C41.9563 90.0279 42.6291 91.0783 43.4039 92.0069C43.4318 93.1849 43.4243 94.4001 43.3795 95.5865L40.6472 100.099L22.3086 107.018C22.3086 107.018 19.4332 108.111 17.5993 110.172C17.3059 110.502 16.6929 112.179 16 115.082V42Z" fill="#EBECF1"/>
<path d="M116.024 105.392V104.752H117.672V106.656H118.336V101.424H117.672V102.68H116.024V102.048H112.752V105.392H116.024ZM115.384 102.568V104.872H113.4V102.568H115.384ZM116.024 103.216H117.672V104.216H116.024V103.216ZM118.504 107.896H114.376V106.192H113.72V108.432H118.504V107.896ZM128.794 101.424H128.138V104.424H126.962V104.96H128.138V108.592H128.794V101.424ZM127.114 103.104V102.568H125.33V101.504H124.674V102.568H122.874V103.104H127.114ZM125.002 103.688C124.026 103.688 123.314 104.376 123.314 105.336C123.314 106.32 124.026 106.992 125.002 106.992C125.962 106.992 126.682 106.32 126.682 105.336C126.682 104.376 125.962 103.688 125.002 103.688ZM125.002 106.44C124.394 106.44 123.922 105.984 123.922 105.336C123.922 104.696 124.394 104.248 125.002 104.248C125.602 104.248 126.074 104.696 126.074 105.336C126.074 105.984 125.602 106.44 125.002 106.44ZM133.707 103.872L133.939 104.392C135.107 104.24 136.187 103.728 136.587 102.944C136.971 103.736 138.059 104.24 139.235 104.392L139.467 103.872C138.211 103.744 137.035 103.104 137.011 102.312H139.243V101.784H133.939V102.312H136.163C136.123 103.104 134.995 103.744 133.707 103.872ZM139.827 104.832H133.339V105.36H139.827V104.832ZM136.579 105.984C135.043 105.984 134.123 106.448 134.123 107.28C134.123 108.12 135.043 108.584 136.579 108.584C138.107 108.584 139.035 108.12 139.035 107.28C139.035 106.448 138.107 105.984 136.579 105.984ZM136.579 108.064C135.451 108.064 134.787 107.792 134.787 107.28C134.787 106.768 135.451 106.496 136.579 106.496C137.707 106.496 138.371 106.768 138.371 107.28C138.371 107.792 137.707 108.064 136.579 108.064Z" fill="black"/>
<path d="M119.95 83.73H118.92V88.81H119.95V83.73ZM117.24 84.28H113.07V85.11H116.14C115.95 86.48 114.77 87.58 112.58 88.14L112.97 88.95C115.65 88.26 117.24 86.63 117.24 84.28ZM114.05 89.22V92.66H119.95V89.22H114.05ZM115.07 91.83V90.04H118.94V91.83H115.07ZM129.909 88.23V87.37H128.519V83.74H127.479V92.78H128.519V88.23H129.909ZM124.639 85.13V83.87H123.609V85.13H121.459V85.97H126.749V85.13H124.639ZM124.139 86.61C122.829 86.61 121.899 87.48 121.899 88.72C121.899 89.96 122.829 90.83 124.139 90.83C125.419 90.83 126.379 89.96 126.379 88.72C126.379 87.48 125.419 86.61 124.139 86.61ZM124.139 89.98C123.409 89.98 122.879 89.48 122.879 88.72C122.879 87.96 123.409 87.46 124.139 87.46C124.869 87.46 125.399 87.96 125.399 88.72C125.399 89.48 124.869 89.98 124.139 89.98ZM138.868 88.11V87.26H137.498V83.74H136.468V92.77H137.498V88.11H138.868ZM131.848 89.66V84.62H130.818V90.52H131.568C132.938 90.52 134.328 90.43 135.858 90.12L135.738 89.27C134.368 89.55 133.098 89.65 131.848 89.66Z" fill="black"/>
<path d="M158.36 107.352H156.048C155.848 107.352 155.608 107.384 155.384 107.448L157.024 105.824C157.688 105.16 158.248 104.552 158.248 103.68C158.248 102.64 157.472 102.032 156.472 102.032C155.472 102.032 154.696 102.616 154.544 103.696L155.264 103.816C155.264 103.144 155.76 102.664 156.432 102.664C157.04 102.664 157.488 102.992 157.512 103.696C157.512 104.384 157.064 104.888 156.448 105.544L154.424 107.488V108H158.36V107.352ZM163.158 105.08C163.158 102.992 162.214 102.04 161.006 102.04C159.79 102.04 158.854 102.992 158.854 105.08C158.854 107.16 159.79 108.112 161.006 108.112C162.214 108.112 163.158 107.16 163.158 105.08ZM162.422 105.08C162.422 106.904 161.75 107.52 161.006 107.52C160.262 107.52 159.598 106.904 159.598 105.08C159.598 103.248 160.262 102.64 161.006 102.64C161.75 102.64 162.422 103.248 162.422 105.08ZM167.571 107.352H165.259C165.059 107.352 164.819 107.384 164.595 107.448L166.235 105.824C166.899 105.16 167.459 104.552 167.459 103.68C167.459 102.64 166.683 102.032 165.683 102.032C164.683 102.032 163.907 102.616 163.755 103.696L164.475 103.816C164.475 103.144 164.971 102.664 165.643 102.664C166.251 102.664 166.699 102.992 166.723 103.696C166.723 104.384 166.275 104.888 165.659 105.544L163.635 107.488V108H167.571V107.352ZM168.385 103.712L169.113 103.832C169.113 103.176 169.601 102.68 170.273 102.68C170.889 102.68 171.321 103.008 171.321 103.68C171.321 104.288 170.953 104.712 169.921 104.736V105.264C171.177 105.264 171.441 105.728 171.441 106.36C171.441 106.88 171.033 107.472 170.193 107.472C169.585 107.472 169.225 107.16 168.977 106.648C168.913 106.496 168.873 106.376 168.857 106.288L168.201 106.56C168.481 107.424 168.937 108.104 170.201 108.104C171.297 108.104 172.185 107.416 172.185 106.344C172.185 105.608 171.785 105.12 171.017 104.928C171.657 104.712 172.049 104.328 172.049 103.56C172.049 102.664 171.329 102.04 170.313 102.04C169.313 102.04 168.537 102.648 168.385 103.712ZM172.759 107.36V108.112H173.487V107.36H172.759ZM178.658 105.08C178.658 102.992 177.714 102.04 176.506 102.04C175.29 102.04 174.354 102.992 174.354 105.08C174.354 107.16 175.29 108.112 176.506 108.112C177.714 108.112 178.658 107.16 178.658 105.08ZM177.922 105.08C177.922 106.904 177.25 107.52 176.506 107.52C175.762 107.52 175.098 106.904 175.098 105.08C175.098 103.248 175.762 102.64 176.506 102.64C177.25 102.64 177.922 103.248 177.922 105.08ZM182.92 107.408H181.768V102.104H181.184L179.608 103.464L180 103.936L181.064 102.984C181.056 103.04 181.056 103.112 181.056 103.184V107.408H179.752V108H182.92V107.408ZM183.653 107.36V108.112H184.381V107.36H183.653ZM189.553 105.08C189.553 102.992 188.609 102.04 187.401 102.04C186.185 102.04 185.249 102.992 185.249 105.08C185.249 107.16 186.185 108.112 187.401 108.112C188.609 108.112 189.553 107.16 189.553 105.08ZM188.817 105.08C188.817 106.904 188.145 107.52 187.401 107.52C186.657 107.52 185.993 106.904 185.993 105.08C185.993 103.248 186.657 102.64 187.401 102.64C188.145 102.64 188.817 103.248 188.817 105.08ZM193.815 107.408H192.663V102.104H192.079L190.503 103.464L190.895 103.936L191.959 102.984C191.951 103.04 191.951 103.112 191.951 103.184V107.408H190.647V108H193.815V107.408Z" fill="black"/>
<path d="M157.008 117.704C157.392 117.704 157.792 117.48 158.12 116.904L157.704 116.608C157.504 116.992 157.28 117.152 157.024 117.152C156.512 117.152 156.144 116.4 155.44 116.4C155.048 116.4 154.648 116.624 154.32 117.2L154.728 117.488C154.944 117.104 155.16 116.944 155.416 116.944C155.928 116.944 156.296 117.704 157.008 117.704ZM164.267 119.352H161.955C161.755 119.352 161.515 119.384 161.291 119.448L162.931 117.824C163.595 117.16 164.155 116.552 164.155 115.68C164.155 114.64 163.379 114.032 162.379 114.032C161.379 114.032 160.603 114.616 160.451 115.696L161.171 115.816C161.171 115.144 161.667 114.664 162.339 114.664C162.947 114.664 163.395 114.992 163.419 115.696C163.419 116.384 162.971 116.888 162.355 117.544L160.331 119.488V120H164.267V119.352ZM169.064 117.08C169.064 114.992 168.12 114.04 166.912 114.04C165.696 114.04 164.76 114.992 164.76 117.08C164.76 119.16 165.696 120.112 166.912 120.112C168.12 120.112 169.064 119.16 169.064 117.08ZM168.328 117.08C168.328 118.904 167.656 119.52 166.912 119.52C166.168 119.52 165.504 118.904 165.504 117.08C165.504 115.248 166.168 114.64 166.912 114.64C167.656 114.64 168.328 115.248 168.328 117.08ZM173.478 119.352H171.166C170.966 119.352 170.726 119.384 170.502 119.448L172.142 117.824C172.806 117.16 173.366 116.552 173.366 115.68C173.366 114.64 172.59 114.032 171.59 114.032C170.59 114.032 169.814 114.616 169.662 115.696L170.382 115.816C170.382 115.144 170.878 114.664 171.55 114.664C172.158 114.664 172.606 114.992 172.63 115.696C172.63 116.384 172.182 116.888 171.566 117.544L169.542 119.488V120H173.478V119.352ZM174.291 115.712L175.019 115.832C175.019 115.176 175.507 114.68 176.179 114.68C176.795 114.68 177.227 115.008 177.227 115.68C177.227 116.288 176.859 116.712 175.827 116.736V117.264C177.083 117.264 177.347 117.728 177.347 118.36C177.347 118.88 176.939 119.472 176.099 119.472C175.491 119.472 175.131 119.16 174.883 118.648C174.819 118.496 174.779 118.376 174.763 118.288L174.107 118.56C174.387 119.424 174.843 120.104 176.107 120.104C177.203 120.104 178.091 119.416 178.091 118.344C178.091 117.608 177.691 117.12 176.923 116.928C177.563 116.712 177.955 116.328 177.955 115.56C177.955 114.664 177.235 114.04 176.219 114.04C175.219 114.04 174.443 114.648 174.291 115.712ZM178.665 119.36V120.112H179.393V119.36H178.665ZM184.221 119.408H183.069V114.104H182.485L180.909 115.464L181.301 115.936L182.365 114.984C182.357 115.04 182.357 115.112 182.357 115.184V119.408H181.053V120H184.221V119.408ZM188.978 119.352H186.666C186.466 119.352 186.226 119.384 186.002 119.448L187.642 117.824C188.306 117.16 188.866 116.552 188.866 115.68C188.866 114.64 188.09 114.032 187.09 114.032C186.09 114.032 185.314 114.616 185.162 115.696L185.882 115.816C185.882 115.144 186.378 114.664 187.05 114.664C187.658 114.664 188.106 114.992 188.13 115.696C188.13 116.384 187.682 116.888 187.066 117.544L185.042 119.488V120H188.978V119.352ZM189.56 119.36V120.112H190.288V119.36H189.56ZM191.476 115.712L192.204 115.832C192.204 115.176 192.692 114.68 193.364 114.68C193.98 114.68 194.412 115.008 194.412 115.68C194.412 116.288 194.044 116.712 193.012 116.736V117.264C194.268 117.264 194.532 117.728 194.532 118.36C194.532 118.88 194.124 119.472 193.284 119.472C192.676 119.472 192.316 119.16 192.068 118.648C192.004 118.496 191.964 118.376 191.948 118.288L191.292 118.56C191.572 119.424 192.028 120.104 193.292 120.104C194.388 120.104 195.276 119.416 195.276 118.344C195.276 117.608 194.876 117.12 194.108 116.928C194.748 116.712 195.14 116.328 195.14 115.56C195.14 114.664 194.42 114.04 193.404 114.04C192.404 114.04 191.628 114.648 191.476 115.712ZM199.721 119.408H198.569V114.104H197.985L196.409 115.464L196.801 115.936L197.865 114.984C197.857 115.04 197.857 115.112 197.857 115.184V119.408H196.553V120H199.721V119.408Z" fill="black"/>
<path d="M116.904 117.576V115.84H117.848V117.824H118.48V113.424H117.848V115.304H116.904V113.552H116.28V117.576H116.904ZM115.552 114.008H112.776V114.536H114.872C114.752 115.76 113.952 116.712 112.456 117.32L112.8 117.8C114.648 117.032 115.552 115.76 115.552 114.008ZM116.12 117.896C114.616 117.896 113.68 118.4 113.68 119.232C113.68 120.088 114.616 120.568 116.12 120.568C117.616 120.568 118.544 120.088 118.544 119.232C118.544 118.4 117.616 117.896 116.12 117.896ZM116.12 120.056C114.992 120.056 114.336 119.752 114.336 119.232C114.336 118.72 114.992 118.408 116.12 118.408C117.216 118.408 117.888 118.72 117.888 119.232C117.888 119.752 117.216 120.056 116.12 120.056ZM125.511 118.68V113.416H124.855V118.68H125.511ZM123.599 117.512L123.943 116.992C122.887 116.608 122.151 115.624 122.151 114.544V113.816H121.495V114.544C121.495 115.664 120.783 116.712 119.695 117.12L120.039 117.656C120.879 117.304 121.519 116.608 121.831 115.736C122.151 116.568 122.767 117.2 123.599 117.512ZM125.727 119.896H121.551V118.192H120.895V120.432H125.727V119.896ZM132.711 113.416H132.055V120.592H132.711V113.416ZM130.607 114.192H127.247V114.72H129.943C129.807 116.424 128.847 117.8 126.919 118.72L127.271 119.256C129.663 118.08 130.607 116.264 130.607 114.192ZM140.654 115.6H139.59V113.424H138.934V118.664H139.59V116.144H140.654V115.6ZM137.67 113.976H134.326V114.512H136.966C136.838 115.776 135.718 116.792 134.038 117.32L134.302 117.84C136.374 117.2 137.67 115.832 137.67 113.976ZM135.774 119.896V118.128H135.118V120.432H139.902V119.896H135.774Z" fill="black"/>
<path d="M20.36 24.352H18.048C17.848 24.352 17.608 24.384 17.384 24.448L19.024 22.824C19.688 22.16 20.248 21.552 20.248 20.68C20.248 19.64 19.472 19.032 18.472 19.032C17.472 19.032 16.696 19.616 16.544 20.696L17.264 20.816C17.264 20.144 17.76 19.664 18.432 19.664C19.04 19.664 19.488 19.992 19.512 20.696C19.512 21.384 19.064 21.888 18.448 22.544L16.424 24.488V25H20.36V24.352ZM21.3896 20.8L21.6296 21.32C22.8056 21.192 23.8696 20.656 24.2776 19.88C24.6856 20.656 25.7496 21.192 26.9336 21.32L27.1656 20.8C25.9096 20.672 24.7656 20.072 24.7016 19.272H26.9336V18.744H21.6296V19.272H23.8536C23.7896 20.072 22.6456 20.672 21.3896 20.8ZM27.5176 21.992H24.5976V20.96H23.9416V21.992H21.0296V22.52H27.5176V21.992ZM24.2696 23.112C22.7336 23.112 21.8136 23.552 21.8136 24.344C21.8136 25.144 22.7336 25.584 24.2696 25.584C25.8056 25.584 26.7256 25.144 26.7256 24.344C26.7256 23.552 25.8056 23.112 24.2696 23.112ZM24.2696 25.08C23.1096 25.08 22.4776 24.824 22.4776 24.344C22.4776 23.864 23.1096 23.616 24.2696 23.616C25.3976 23.616 26.0616 23.864 26.0616 24.344C26.0616 24.824 25.3976 25.08 24.2696 25.08ZM34.733 24.136H31.805V22.592H33.949V18.928H33.309V20.208H29.645V18.928H28.997V22.592H31.141V24.136H28.229V24.672H34.733V24.136ZM29.645 22.064V20.744H33.309V22.064H29.645ZM41.9164 22.216H38.9964V21.512H41.1564V21H36.9324V20.296H40.9244V19.8H36.9324V19.136H41.1164V18.624H36.2764V21.512H38.3404V22.216H35.4204V22.744H41.9164V22.216ZM38.6684 23.288C37.0764 23.288 36.2124 23.688 36.2124 24.432C36.2124 25.2 37.0764 25.584 38.6684 25.584C40.2604 25.584 41.1244 25.2 41.1244 24.432C41.1244 23.688 40.2604 23.288 38.6684 23.288ZM38.6684 25.088C37.5084 25.088 36.8684 24.88 36.8684 24.432C36.8684 24.008 37.5084 23.776 38.6684 23.776C39.8284 23.776 40.4684 24.008 40.4684 24.432C40.4684 24.88 39.8284 25.088 38.6684 25.088Z" fill="#888888"/>
<rect x="0.5" y="0.5" width="259" height="157" rx="7.5" stroke="#EAEAEA"/>
</svg>
