<svg width="260" height="158" viewBox="0 0 260 158" fill="none" xmlns="http://www.w3.org/2000/svg">
<rect x="0.5" y="0.5" width="259" height="157" rx="7.5" fill="#FCFCFC"/>
<path d="M211.076 23.136C213.26 22.928 214.781 21.979 214.95 20.913H211.531V19.834H220.202V20.913H216.757C216.926 21.979 218.447 22.928 220.631 23.136L220.163 24.176C218.083 23.955 216.484 23.11 215.86 21.901C215.223 23.11 213.65 23.955 211.557 24.176L211.076 23.136ZM221.164 24.774V25.853H210.543V24.774H221.164ZM215.834 26.698C218.356 26.698 219.877 27.491 219.877 28.856C219.877 30.221 218.421 31.001 215.834 31.001C213.325 31.001 211.791 30.221 211.791 28.856C211.791 27.491 213.325 26.698 215.834 26.698ZM215.834 29.948C217.563 29.948 218.525 29.584 218.525 28.856C218.525 28.128 217.563 27.751 215.834 27.751C214.105 27.751 213.156 28.128 213.156 28.856C213.156 29.584 214.105 29.948 215.834 29.948Z" fill="black"/>
<path d="M208.607 19.2622V31.0012H207.255V25.1382H205.513V24.0462H207.255V19.2622H208.607ZM205.747 22.1742H198.857V21.0692H201.639V19.4312H202.978V21.0692H205.747V22.1742ZM202.302 22.9932C203.914 22.9932 205.084 24.1242 205.084 25.7362C205.084 27.3352 203.914 28.4662 202.302 28.4662C200.703 28.4662 199.533 27.3352 199.533 25.7362C199.533 24.1242 200.703 22.9932 202.302 22.9932ZM202.302 27.3482C203.186 27.3482 203.849 26.7242 203.849 25.7362C203.849 24.7612 203.186 24.1112 202.302 24.1112C201.418 24.1112 200.768 24.7482 200.768 25.7362C200.768 26.7242 201.418 27.3482 202.302 27.3482Z" fill="black"/>
<path d="M193.099 25.8532H187.665V20.2372H193.099V21.2252H195.543V19.2622H196.882V27.8292H195.543V24.8262H193.099V25.8532ZM191.799 21.3032H188.978V24.7872H191.799V21.3032ZM193.099 22.3172V23.7472H195.543V22.3172H193.099ZM197.155 29.6882V30.7802H189.238V27.0492H190.59V29.6882H197.155Z" fill="black"/>
<path d="M183.844 22.4079V19.2749H185.183V27.8549H183.844V23.5129H181.712V22.4079H183.844ZM181.777 26.1909C180.477 25.7359 179.541 24.8259 179.034 23.6689C178.514 24.9689 177.539 25.9699 176.135 26.4509L175.446 25.3979C177.266 24.7739 178.332 23.2009 178.332 21.6279V21.2249H175.849V20.1459H182.128V21.2249H179.684V21.6279C179.684 23.0709 180.672 24.5269 182.44 25.1509L181.777 26.1909ZM185.482 29.6879V30.7799H177.578V27.1139H178.917V29.6879H185.482Z" fill="black"/>
<path d="M169.064 24.306C166.529 24.306 164.904 23.37 164.904 21.914C164.904 20.458 166.529 19.522 169.064 19.522C171.56 19.522 173.224 20.458 173.224 21.914C173.224 23.37 171.56 24.306 169.064 24.306ZM169.064 20.601C167.4 20.601 166.321 21.082 166.321 21.914C166.321 22.746 167.4 23.227 169.064 23.227C170.715 23.227 171.794 22.746 171.794 21.914C171.794 21.082 170.715 20.601 169.064 20.601ZM174.394 25.099V26.191H169.844V28.414H168.479V26.191H163.747V25.099H174.394ZM166.412 29.688H173.224V30.78H165.06V27.309H166.412V29.688Z" fill="black"/>
<path d="M162.981 25.073H161.148V31.001H159.809V19.249H161.148V23.968H162.981V25.073ZM156.117 22.993C156.117 24.787 157.157 26.711 158.886 27.543L158.145 28.57C156.884 27.959 155.948 26.763 155.467 25.346C154.947 26.867 153.985 28.154 152.633 28.778L151.892 27.751C153.686 26.893 154.778 24.904 154.778 22.993V22.317H152.256V21.238H154.778V19.496H156.117V21.238H158.6V22.317H156.117V22.993Z" fill="black"/>
<path d="M150.983 24.9302V26.0222H140.375V24.9302H145.003V23.7602H141.688V19.7822H149.683V20.8482H143.014V22.6812H149.761V23.7602H146.342V24.9302H150.983ZM145.64 26.7372C148.162 26.7372 149.683 27.5172 149.683 28.8692C149.683 30.2342 148.227 31.0142 145.64 31.0142C143.131 31.0142 141.597 30.2342 141.597 28.8692C141.597 27.5172 143.131 26.7372 145.64 26.7372ZM145.64 29.9742C147.369 29.9742 148.331 29.5972 148.331 28.8692C148.331 28.1412 147.369 27.7642 145.64 27.7642C143.911 27.7642 142.962 28.1412 142.962 28.8692C142.962 29.5972 143.911 29.9742 145.64 29.9742Z" fill="black"/>
<path d="M139.583 24.9952H137.75V31.0012H136.411V19.2622H137.75V23.8902H139.583V24.9952ZM132.771 22.6682C132.771 24.4752 133.928 26.5812 135.709 27.4132L134.968 28.4662C133.655 27.8422 132.654 26.5812 132.121 25.0602C131.601 26.6982 130.574 28.1022 129.209 28.7652L128.442 27.6992C130.249 26.8282 131.432 24.6052 131.432 22.6682V21.5372H128.871V20.4322H135.254V21.5372H132.771V22.6682Z" fill="black"/>
<rect width="47.7218" height="24.671" transform="translate(106 42)" fill="#9BEDE9" fill-opacity="0.2"/>
<path d="M136.498 47.002V47.597H135.658V49.746H134.93V45H135.658V47.002H136.498ZM133.313 47.632C133.446 46.953 133.46 46.456 133.467 46.064H130.996V45.476H134.174V45.84C134.174 46.267 134.181 46.89 134.02 47.709L133.313 47.632ZM134.594 48.549C133.285 48.773 131.787 48.815 130.688 48.815L130.611 48.227C131.003 48.227 131.423 48.234 131.871 48.213V46.918H132.585V48.192C133.257 48.164 133.922 48.129 134.545 48.024L134.594 48.549ZM132.291 50.614H135.861V51.202H131.563V49.326H132.291V50.614Z" fill="#00A69E"/>
<path d="M129.597 45V51.321H128.876V45H129.597ZM127.735 45.665C127.735 47.548 126.979 49.144 124.809 50.194L124.424 49.62C126.083 48.815 126.874 47.709 126.993 46.253H124.739V45.665H127.735Z" fill="#00A69E"/>
<path d="M123.809 47.5269V48.1149H118.083V47.5269H122.227C122.374 46.8269 122.388 46.3299 122.388 45.8539H118.804V45.2729H123.095V45.7559C123.095 46.2389 123.102 46.7709 122.941 47.5269H123.809ZM122.367 48.6119H123.088V51.2439H118.797V48.6119H119.511V49.3679H122.367V48.6119ZM122.367 49.9279H119.511V50.6629H122.367V49.9279Z" fill="#00A69E"/>
<path d="M117.607 46.295V46.89H116.718V48.241H115.997V45H116.718V46.295H117.607ZM114.982 48.031H112V45.266H112.721V46.099H114.268V45.266H114.982V48.031ZM114.268 46.652H112.721V47.457H114.268V46.652ZM113.358 50.698H116.928V51.265H112.651V49.606H116.004V49.081H112.637V48.521H116.718V50.138H113.358V50.698Z" fill="#00A69E"/>
<path d="M145.312 63.2808L146.222 63.6708C147.172 62.1208 147.722 60.5008 147.722 58.4908C147.722 56.4908 147.182 54.8708 146.222 53.3208L145.312 53.7108C146.152 55.2008 146.532 56.7808 146.532 58.4908C146.532 60.2208 146.152 61.7908 145.312 63.2808Z" fill="black"/>
<path d="M143.115 54.5708H141.935L139.775 56.4308L140.565 57.3308L141.785 56.2208L141.745 56.8708V60.9408H140.285V62.0508H144.405V60.9408H143.115V54.5708Z" fill="black"/>
<path d="M137.358 54.5708H136.178L134.018 56.4308L134.808 57.3308L136.028 56.2208L135.988 56.8708V60.9408H134.528V62.0508H138.648V60.9408H137.358V54.5708Z" fill="black"/>
<path d="M132.038 63.6708L132.958 63.2808C132.118 61.7908 131.738 60.2208 131.738 58.4908C131.738 56.7808 132.118 55.2008 132.958 53.7108L132.038 53.3208C131.088 54.8708 130.548 56.4908 130.548 58.4908C130.548 60.5008 131.088 62.1208 132.038 63.6708Z" fill="black"/>
<path d="M125.289 56.9208C127.479 56.9208 128.629 56.3908 128.629 55.3508C128.629 54.3408 127.479 53.7808 125.289 53.7808C123.119 53.7808 121.959 54.3408 121.959 55.3508C121.959 56.3908 123.119 56.9208 125.289 56.9208ZM125.289 54.7508C126.659 54.7508 127.259 54.9408 127.259 55.3508C127.259 55.7808 126.659 55.9608 125.289 55.9608C123.959 55.9608 123.329 55.7808 123.329 55.3508C123.329 54.9408 123.959 54.7508 125.289 54.7508ZM125.939 58.3608H129.449V57.3208H121.129V58.3608H124.619V58.9608H122.079V59.9308H127.139V60.4208H122.089V62.8408H128.679V61.8508H123.399V61.3308H128.439V58.9608H125.939V58.3608Z" fill="black"/>
<path d="M119.86 53.6909H118.54V56.5809H116.77V57.6409H118.54V62.9309H119.86V53.6909ZM115.59 55.7409V54.4109H114.26V55.7409C114.26 57.4909 113.57 59.2809 112 60.0009L112.82 61.0609C113.86 60.5409 114.54 59.6109 114.94 58.4009C115.33 59.5309 115.99 60.4109 117 60.9009L117.78 59.8509C116.26 59.1809 115.59 57.4709 115.59 55.7409Z" fill="black"/>
<rect width="78.0063" height="22.031" transform="translate(159 42)" fill="#9BEDE9" fill-opacity="0.2"/>
<path d="M189.057 46.442H183.884V45.861H186.117V45.084H186.838V45.861H189.057V46.442ZM189.351 50.04V50.635H183.618V50.04H186.117V49.228C185.018 49.151 184.367 48.717 184.367 48.017C184.367 47.254 185.179 46.806 186.467 46.806C187.762 46.806 188.574 47.254 188.574 48.017C188.574 48.717 187.937 49.144 186.838 49.228V50.04H189.351ZM185.102 48.017C185.102 48.437 185.592 48.675 186.467 48.675C187.342 48.675 187.839 48.437 187.839 48.017C187.839 47.597 187.342 47.366 186.467 47.366C185.592 47.366 185.102 47.597 185.102 48.017Z" fill="#00A69E"/>
<path d="M180.525 48.647H177.613V45.42H178.327V46.463H179.818V45.42H180.525V46.736H181.841V45H182.562V49.683H181.841V47.324H180.525V48.647ZM179.818 47.03H178.327V48.059H179.818V47.03ZM182.709 50.614V51.202H178.446V49.221H179.174V50.614H182.709Z" fill="#00A69E"/>
<path d="M176.276 45V51.321H175.548V48.164H174.61V47.576H175.548V45H176.276ZM174.736 46.568H171.026V45.973H172.524V45.091H173.245V45.973H174.736V46.568ZM172.881 47.009C173.749 47.009 174.379 47.618 174.379 48.486C174.379 49.347 173.749 49.956 172.881 49.956C172.02 49.956 171.39 49.347 171.39 48.486C171.39 47.618 172.02 47.009 172.881 47.009ZM172.881 49.354C173.357 49.354 173.714 49.018 173.714 48.486C173.714 47.961 173.357 47.611 172.881 47.611C172.405 47.611 172.055 47.954 172.055 48.486C172.055 49.018 172.405 49.354 172.881 49.354Z" fill="#00A69E"/>
<path d="M167.926 48.549H165V45.525H167.926V46.057H169.242V45H169.963V49.613H169.242V47.996H167.926V48.549ZM167.226 46.099H165.707V47.975H167.226V46.099ZM167.926 46.645V47.415H169.242V46.645H167.926ZM170.11 50.614V51.202H165.847V49.193H166.575V50.614H170.11Z" fill="#00A69E"/>
<path d="M231.006 57.1808C231.006 54.5208 229.816 53.3208 228.216 53.3208C226.656 53.3208 225.456 54.5208 225.456 57.1808C225.456 59.8208 226.656 61.0308 228.216 61.0308C229.816 61.0308 231.006 59.8208 231.006 57.1808ZM229.606 57.1808C229.606 59.3008 228.946 59.8708 228.216 59.8708C227.526 59.8708 226.856 59.3008 226.856 57.1808C226.856 55.0508 227.526 54.4708 228.216 54.4708C228.946 54.4708 229.606 55.0508 229.606 57.1808Z" fill="black"/>
<path d="M225.249 57.1808C225.249 54.5208 224.059 53.3208 222.459 53.3208C220.899 53.3208 219.699 54.5208 219.699 57.1808C219.699 59.8208 220.899 61.0308 222.459 61.0308C224.059 61.0308 225.249 59.8208 225.249 57.1808ZM223.849 57.1808C223.849 59.3008 223.189 59.8708 222.459 59.8708C221.769 59.8708 221.099 59.3008 221.099 57.1808C221.099 55.0508 221.769 54.4708 222.459 54.4708C223.189 54.4708 223.849 55.0508 223.849 57.1808Z" fill="black"/>
<path d="M215.668 56.6309V57.6809H219.218V56.6309H215.668Z" fill="black"/>
<path d="M215.171 57.1808C215.171 54.5208 213.981 53.3208 212.381 53.3208C210.821 53.3208 209.621 54.5208 209.621 57.1808C209.621 59.8208 210.821 61.0308 212.381 61.0308C213.981 61.0308 215.171 59.8208 215.171 57.1808ZM213.771 57.1808C213.771 59.3008 213.111 59.8708 212.381 59.8708C211.691 59.8708 211.021 59.3008 211.021 57.1808C211.021 55.0508 211.691 54.4708 212.381 54.4708C213.111 54.4708 213.771 55.0508 213.771 57.1808Z" fill="black"/>
<path d="M209.414 57.1808C209.414 54.5208 208.224 53.3208 206.624 53.3208C205.064 53.3208 203.864 54.5208 203.864 57.1808C203.864 59.8208 205.064 61.0308 206.624 61.0308C208.224 61.0308 209.414 59.8208 209.414 57.1808ZM208.014 57.1808C208.014 59.3008 207.354 59.8708 206.624 59.8708C205.934 59.8708 205.264 59.3008 205.264 57.1808C205.264 55.0508 205.934 54.4708 206.624 54.4708C207.354 54.4708 208.014 55.0508 208.014 57.1808Z" fill="black"/>
<path d="M203.657 57.1808C203.657 54.5208 202.467 53.3208 200.867 53.3208C199.307 53.3208 198.107 54.5208 198.107 57.1808C198.107 59.8208 199.307 61.0308 200.867 61.0308C202.467 61.0308 203.657 59.8208 203.657 57.1808ZM202.257 57.1808C202.257 59.3008 201.597 59.8708 200.867 59.8708C200.177 59.8708 199.507 59.3008 199.507 57.1808C199.507 55.0508 200.177 54.4708 200.867 54.4708C201.597 54.4708 202.257 55.0508 202.257 57.1808Z" fill="black"/>
<path d="M197.9 57.1808C197.9 54.5208 196.71 53.3208 195.11 53.3208C193.55 53.3208 192.35 54.5208 192.35 57.1808C192.35 59.8208 193.55 61.0308 195.11 61.0308C196.71 61.0308 197.9 59.8208 197.9 57.1808ZM196.5 57.1808C196.5 59.3008 195.84 59.8708 195.11 59.8708C194.42 59.8708 193.75 59.3008 193.75 57.1808C193.75 55.0508 194.42 54.4708 195.11 54.4708C195.84 54.4708 196.5 55.0508 196.5 57.1808Z" fill="black"/>
<path d="M192.143 57.1808C192.143 54.5208 190.953 53.3208 189.353 53.3208C187.793 53.3208 186.593 54.5208 186.593 57.1808C186.593 59.8208 187.793 61.0308 189.353 61.0308C190.953 61.0308 192.143 59.8208 192.143 57.1808ZM190.743 57.1808C190.743 59.3008 190.083 59.8708 189.353 59.8708C188.663 59.8708 187.993 59.3008 187.993 57.1808C187.993 55.0508 188.663 54.4708 189.353 54.4708C190.083 54.4708 190.743 55.0508 190.743 57.1808Z" fill="black"/>
<path d="M186.385 57.1808C186.385 54.5208 185.195 53.3208 183.595 53.3208C182.035 53.3208 180.835 54.5208 180.835 57.1808C180.835 59.8208 182.035 61.0308 183.595 61.0308C185.195 61.0308 186.385 59.8208 186.385 57.1808ZM184.985 57.1808C184.985 59.3008 184.325 59.8708 183.595 59.8708C182.905 59.8708 182.235 59.3008 182.235 57.1808C182.235 55.0508 182.905 54.4708 183.595 54.4708C184.325 54.4708 184.985 55.0508 184.985 57.1808Z" fill="black"/>
<path d="M176.804 56.6309V57.6809H180.354V56.6309H176.804Z" fill="black"/>
<path d="M176.307 57.1808C176.307 54.5208 175.117 53.3208 173.517 53.3208C171.957 53.3208 170.757 54.5208 170.757 57.1808C170.757 59.8208 171.957 61.0308 173.517 61.0308C175.117 61.0308 176.307 59.8208 176.307 57.1808ZM174.907 57.1808C174.907 59.3008 174.247 59.8708 173.517 59.8708C172.827 59.8708 172.157 59.3008 172.157 57.1808C172.157 55.0508 172.827 54.4708 173.517 54.4708C174.247 54.4708 174.907 55.0508 174.907 57.1808Z" fill="black"/>
<path d="M170.55 57.1808C170.55 54.5208 169.36 53.3208 167.76 53.3208C166.2 53.3208 165 54.5208 165 57.1808C165 59.8208 166.2 61.0308 167.76 61.0308C169.36 61.0308 170.55 59.8208 170.55 57.1808ZM169.15 57.1808C169.15 59.3008 168.49 59.8708 167.76 59.8708C167.07 59.8708 166.4 59.3008 166.4 57.1808C166.4 55.0508 167.07 54.4708 167.76 54.4708C168.49 54.4708 169.15 55.0508 169.15 57.1808Z" fill="black"/>
<path d="M197.815 134.04V134.73H196.485V137.19H195.665V131.78H196.485V134.04H197.815ZM194.335 136.75C193.295 136.42 192.555 135.71 192.165 134.82C191.775 135.86 190.985 136.63 189.905 137.02L189.485 136.37C190.845 135.89 191.735 134.76 191.735 133.45V133.1H189.725V132.44H194.535V133.1H192.555V133.45C192.555 134.62 193.395 135.68 194.725 136.11L194.335 136.75ZM193.635 137.42C195.445 137.42 196.585 138.03 196.585 139.07C196.585 140.12 195.445 140.73 193.635 140.73C191.795 140.73 190.675 140.12 190.675 139.07C190.675 138.03 191.795 137.42 193.635 137.42ZM193.635 140.08C194.965 140.08 195.765 139.71 195.765 139.07C195.765 138.43 194.965 138.07 193.635 138.07C192.265 138.07 191.495 138.43 191.495 139.07C191.495 139.71 192.265 140.08 193.635 140.08Z" fill="#888888"/>
<path d="M185.455 136.83C184.415 136.51 183.605 135.85 183.195 134.97C182.805 135.97 182.025 136.71 180.945 137.06L180.545 136.43C181.855 135.98 182.765 134.89 182.765 133.68V133.51H180.775V132.85H182.765V131.73H183.585V132.85H185.565V133.51H183.585V133.68C183.585 134.8 184.515 135.8 185.835 136.2L185.455 136.83ZM187.085 134.32V131.77H187.915V137.21H187.085V135H185.295V134.32H187.085ZM184.945 137.44C186.815 137.44 187.945 138.04 187.945 139.08C187.945 140.13 186.815 140.73 184.945 140.73C183.105 140.73 181.965 140.13 181.965 139.08C181.965 138.04 183.105 137.44 184.945 137.44ZM184.945 140.09C186.315 140.09 187.125 139.72 187.125 139.08C187.125 138.44 186.315 138.08 184.945 138.08C183.575 138.08 182.785 138.44 182.785 139.08C182.785 139.72 183.575 140.09 184.945 140.09Z" fill="#888888"/>
<path d="M176.446 136.28C175.406 136.01 174.596 135.44 174.186 134.64C173.796 135.52 172.946 136.14 171.866 136.45L171.496 135.82C172.816 135.48 173.766 134.57 173.766 133.5V133.35H171.776V132.69H173.766V131.73H174.586V132.69H176.566V133.35H174.586V133.5C174.586 134.47 175.486 135.33 176.796 135.65L176.446 136.28ZM179.816 133.77V134.45H178.486V136.51H177.666V131.78H178.486V133.77H179.816ZM173.616 140H178.816V140.64H172.816V138.44H177.676V137.59H172.786V136.95H178.486V139.05H173.616V140Z" fill="#888888"/>
<path d="M166.847 134.09C166.237 135.56 164.947 136.57 162.977 137.14L162.647 136.49C164.807 135.85 166.107 134.68 166.267 133.11H163.107V132.45H167.157C167.157 132.78 167.127 133.11 167.057 133.42H169.087V131.78H169.917V137.14H169.087V135.96H166.737V135.29H169.087V134.09H166.847ZM166.987 137.24C168.797 137.24 169.957 137.89 169.957 138.97C169.957 140.05 168.797 140.7 166.987 140.7C165.177 140.7 164.017 140.05 164.017 138.97C164.017 137.89 165.177 137.24 166.987 137.24ZM166.987 140.06C168.307 140.06 169.147 139.65 169.147 138.97C169.147 138.29 168.317 137.89 166.987 137.89C165.657 137.89 164.827 138.29 164.827 138.97C164.827 139.65 165.667 140.06 166.987 140.06Z" fill="#888888"/>
<path d="M161.818 134.03V134.71H160.488V137.17H159.668V131.77H160.488V134.03H161.818ZM158.048 136.47H153.898V132.34H154.708V133.69H157.248V132.34H158.048V136.47ZM157.248 134.33H154.708V135.81H157.248V134.33ZM157.638 137.4C159.448 137.4 160.588 138 160.588 139.07C160.588 140.14 159.448 140.74 157.638 140.74C155.808 140.74 154.678 140.14 154.678 139.07C154.678 138 155.808 137.4 157.638 137.4ZM157.638 140.09C158.968 140.09 159.768 139.71 159.768 139.07C159.768 138.43 158.968 138.06 157.638 138.06C156.268 138.06 155.498 138.43 155.498 139.07C155.498 139.71 156.268 140.09 157.638 140.09Z" fill="#888888"/>
<path d="M151.869 131.78V140.74H151.049V131.78H151.869ZM147.729 134.51C147.729 136.03 148.809 137.58 150.129 138.14L149.669 138.8C148.629 138.32 147.749 137.29 147.319 136.06C146.919 137.36 146.009 138.52 145.009 139.02L144.529 138.36C145.819 137.74 146.909 136.06 146.909 134.51V133.37H144.829V132.69H149.839V133.37H147.729V134.51Z" fill="#888888"/>
<path d="M139.579 134.98C137.609 134.98 136.429 134.44 136.429 133.43C136.429 132.42 137.609 131.87 139.579 131.87C141.589 131.87 142.729 132.42 142.729 133.43C142.729 134.44 141.589 134.98 139.579 134.98ZM139.579 132.49C138.089 132.49 137.269 132.83 137.269 133.43C137.269 134.03 138.089 134.37 139.579 134.37C141.069 134.37 141.889 134.03 141.889 133.43C141.889 132.83 141.069 132.49 139.579 132.49ZM139.989 136.23V137.07H142.599V139.09H137.329V140H142.869V140.64H136.529V138.49H141.789V137.69H136.509V137.07H139.169V136.23H135.529V135.57H143.629V136.23H139.989Z" fill="#888888"/>
<path d="M133.92 131.77V140.75H133.1V135.48H131.02V134.81H133.1V131.77H133.92ZM129.67 134.15C129.67 135.77 130.69 137.42 131.99 138.03L131.51 138.68C130.51 138.17 129.67 137.09 129.26 135.84C128.86 137.17 128.04 138.31 127.03 138.84L126.53 138.19C127.83 137.55 128.85 135.8 128.85 134.15V132.54H129.67V134.15Z" fill="#888888"/>
<path d="M120.769 139.26V140H116.809V139.26H118.439V133.98C118.439 133.89 118.439 133.8 118.449 133.73L117.119 134.92L116.629 134.33L118.599 132.63H119.329V139.26H120.769Z" fill="#888888"/>
<path d="M115.442 136.35C115.442 138.95 114.262 140.14 112.752 140.14C111.232 140.14 110.062 138.95 110.062 136.35C110.062 133.74 111.232 132.55 112.752 132.55C114.262 132.55 115.442 133.74 115.442 136.35ZM114.522 136.35C114.522 134.06 113.682 133.3 112.752 133.3C111.822 133.3 110.992 134.06 110.992 136.35C110.992 138.63 111.822 139.4 112.752 139.4C113.682 139.4 114.522 138.63 114.522 136.35Z" fill="#888888"/>
<path d="M108.067 139.2H108.977V140.14H108.067V139.2Z" fill="#888888"/>
<path d="M107.15 139.26V140H103.19V139.26H104.82V133.98C104.82 133.89 104.82 133.8 104.83 133.73L103.5 134.92L103.01 134.33L104.98 132.63H105.71V139.26H107.15Z" fill="#888888"/>
<path d="M101.823 136.35C101.823 138.95 100.643 140.14 99.1329 140.14C97.6129 140.14 96.4429 138.95 96.4429 136.35C96.4429 133.74 97.6129 132.55 99.1329 132.55C100.643 132.55 101.823 133.74 101.823 136.35ZM100.903 136.35C100.903 134.06 100.063 133.3 99.1329 133.3C98.2029 133.3 97.3729 134.06 97.3729 136.35C97.3729 138.63 98.2029 139.4 99.1329 139.4C100.063 139.4 100.903 138.63 100.903 136.35Z" fill="#888888"/>
<path d="M94.4482 139.2H95.3582V140.14H94.4482V139.2Z" fill="#888888"/>
<path d="M88.9812 134.64C89.1712 133.31 90.1412 132.55 91.3912 132.55C92.6612 132.55 93.5612 133.33 93.5612 134.45C93.5612 135.41 93.0712 135.89 92.2712 136.16C93.2312 136.4 93.7312 137.01 93.7312 137.93C93.7312 139.27 92.6212 140.13 91.2512 140.13C89.6712 140.13 89.1012 139.28 88.7512 138.2L89.5712 137.86C89.5912 137.97 89.6412 138.12 89.7212 138.31C90.0312 138.95 90.4812 139.34 91.2412 139.34C92.2912 139.34 92.8012 138.6 92.8012 137.95C92.8012 137.16 92.4712 136.58 90.9012 136.58V135.92C92.1912 135.89 92.6512 135.36 92.6512 134.6C92.6512 133.76 92.1112 133.35 91.3412 133.35C90.5012 133.35 89.8912 133.97 89.8912 134.79L88.9812 134.64Z" fill="#888888"/>
<path d="M87.9642 139.19V140H83.0442V139.36L85.5742 136.93C86.3442 136.11 86.9042 135.48 86.9042 134.62C86.8742 133.74 86.3142 133.33 85.5542 133.33C84.7142 133.33 84.0942 133.93 84.0942 134.77L83.1942 134.62C83.3842 133.27 84.3542 132.54 85.6042 132.54C86.8542 132.54 87.8242 133.3 87.8242 134.6C87.8242 135.69 87.1242 136.45 86.2942 137.28L84.2442 139.31C84.5242 139.23 84.8242 139.19 85.0742 139.19H87.9642Z" fill="#888888"/>
<path d="M82.4471 136.35C82.4471 138.95 81.2671 140.14 79.7571 140.14C78.2371 140.14 77.0671 138.95 77.0671 136.35C77.0671 133.74 78.2371 132.55 79.7571 132.55C81.2671 132.55 82.4471 133.74 82.4471 136.35ZM81.5271 136.35C81.5271 134.06 80.6871 133.3 79.7571 133.3C78.8271 133.3 77.9971 134.06 77.9971 136.35C77.9971 138.63 78.8271 139.4 79.7571 139.4C80.6871 139.4 81.5271 138.63 81.5271 136.35Z" fill="#888888"/>
<path d="M76.45 139.19V140H71.53V139.36L74.06 136.93C74.83 136.11 75.39 135.48 75.39 134.62C75.36 133.74 74.8 133.33 74.04 133.33C73.2 133.33 72.58 133.93 72.58 134.77L71.68 134.62C71.87 133.27 72.84 132.54 74.09 132.54C75.34 132.54 76.31 133.3 76.31 134.6C76.31 135.69 75.61 136.45 74.78 137.28L72.73 139.31C73.01 139.23 73.31 139.19 73.56 139.19H76.45Z" fill="#888888"/>
<path fill-rule="evenodd" clip-rule="evenodd" d="M16 42H90V112.667C89.939 112.441 89.8893 112.277 89.8531 112.175L89.8604 112.182C88.8848 109.393 84.3589 107.812 84.3589 107.812L65.837 100.165L62.6607 95.4128C62.5929 94.339 62.5598 93.2159 62.5897 92.1182C63.2748 91.3482 63.8744 90.4948 64.3552 89.5672C65.2424 87.8573 65.6264 85.6196 65.9294 83.2634C66.3359 83.1396 66.7723 82.8672 67.2087 82.495C68.0888 81.7501 68.5599 78.0864 68.8747 75.6381C68.9508 75.046 69.0178 74.5251 69.0792 74.1336C69.3041 72.7005 68.5746 72.2076 67.5153 72.3805C68.5184 66.7545 67.0333 62.3454 66.079 60.652C65.7628 60.0937 65.3808 59.8035 64.9878 59.673C65.3692 57.5182 64.1331 54.9596 64.0031 55.6774C63.6315 57.6983 60.4507 56.9756 56.873 56.1628C55.7186 55.9006 54.5228 55.6289 53.3668 55.437C46.0916 54.2297 43.5343 55.5957 43.5861 58.9856C42.7289 58.5661 41.3757 58.4719 40.5298 59.3118C39.4388 60.3951 35.9749 64.6723 37.5829 73.2653C36.4335 73.0108 35.6132 73.4776 35.8498 74.9858C35.9112 75.3772 35.9782 75.8982 36.0543 76.4902C36.3691 78.9386 36.8402 82.6023 37.7203 83.3472C38.5079 84.0189 39.2954 84.3655 39.9073 84.1007C40.3916 86.04 40.9197 87.7708 41.4247 88.868C41.9563 90.0279 42.6291 91.0783 43.4039 92.0069C43.4318 93.1849 43.4243 94.4001 43.3795 95.5865L40.6472 100.099L22.3086 107.018C22.3086 107.018 19.4332 108.111 17.5993 110.172C17.3059 110.502 16.6929 112.179 16 115.082V42Z" fill="#EBECF1"/>
<path d="M133.707 103.872L133.939 104.392C135.107 104.24 136.187 103.728 136.587 102.944C136.971 103.736 138.059 104.24 139.235 104.392L139.467 103.872C138.211 103.744 137.035 103.104 137.011 102.312H139.243V101.784H133.939V102.312H136.163C136.123 103.104 134.995 103.744 133.707 103.872ZM139.827 104.832H133.339V105.36H139.827V104.832ZM136.579 105.984C135.043 105.984 134.123 106.448 134.123 107.28C134.123 108.12 135.043 108.584 136.579 108.584C138.107 108.584 139.035 108.12 139.035 107.28C139.035 106.448 138.107 105.984 136.579 105.984ZM136.579 108.064C135.451 108.064 134.787 107.792 134.787 107.28C134.787 106.768 135.451 106.496 136.579 106.496C137.707 106.496 138.371 106.768 138.371 107.28C138.371 107.792 137.707 108.064 136.579 108.064Z" fill="black"/>
<path d="M128.794 101.424H128.138V104.424H126.962V104.96H128.138V108.592H128.794V101.424ZM127.114 103.104V102.568H125.33V101.504H124.674V102.568H122.874V103.104H127.114ZM125.002 103.688C124.026 103.688 123.314 104.376 123.314 105.336C123.314 106.32 124.026 106.992 125.002 106.992C125.962 106.992 126.682 106.32 126.682 105.336C126.682 104.376 125.962 103.688 125.002 103.688ZM125.002 106.44C124.394 106.44 123.922 105.984 123.922 105.336C123.922 104.696 124.394 104.248 125.002 104.248C125.602 104.248 126.074 104.696 126.074 105.336C126.074 105.984 125.602 106.44 125.002 106.44Z" fill="black"/>
<path d="M116.024 105.392V104.752H117.672V106.656H118.336V101.424H117.672V102.68H116.024V102.048H112.752V105.392H116.024ZM115.384 102.568V104.872H113.4V102.568H115.384ZM116.024 103.216H117.672V104.216H116.024V103.216ZM118.504 107.896H114.376V106.192H113.72V108.432H118.504V107.896Z" fill="black"/>
<path d="M138.869 88.1097V87.2597H137.499V83.7397H136.469V92.7697H137.499V88.1097H138.869ZM131.849 89.6597V84.6197H130.819V90.5197H131.569C132.939 90.5197 134.329 90.4297 135.859 90.1197L135.739 89.2697C134.369 89.5497 133.099 89.6497 131.849 89.6597Z" fill="black"/>
<path d="M129.909 88.2297V87.3697H128.519V83.7397H127.479V92.7797H128.519V88.2297H129.909ZM124.639 85.1297V83.8697H123.609V85.1297H121.459V85.9697H126.749V85.1297H124.639ZM124.139 86.6097C122.829 86.6097 121.899 87.4797 121.899 88.7197C121.899 89.9597 122.829 90.8297 124.139 90.8297C125.419 90.8297 126.379 89.9597 126.379 88.7197C126.379 87.4797 125.419 86.6097 124.139 86.6097ZM124.139 89.9797C123.409 89.9797 122.879 89.4797 122.879 88.7197C122.879 87.9597 123.409 87.4597 124.139 87.4597C124.869 87.4597 125.399 87.9597 125.399 88.7197C125.399 89.4797 124.869 89.9797 124.139 89.9797Z" fill="black"/>
<path d="M119.95 83.73H118.92V88.81H119.95V83.73ZM117.24 84.28H113.07V85.11H116.14C115.95 86.48 114.77 87.58 112.58 88.14L112.97 88.95C115.65 88.26 117.24 86.63 117.24 84.28ZM114.05 89.22V92.66H119.95V89.22H114.05ZM115.07 91.83V90.04H118.94V91.83H115.07Z" fill="black"/>
<path d="M193.815 107.408H192.663V102.104H192.079L190.503 103.464L190.895 103.936L191.959 102.984C191.951 103.04 191.951 103.112 191.951 103.184V107.408H190.647V108H193.815V107.408Z" fill="black"/>
<path d="M189.553 105.08C189.553 102.992 188.609 102.04 187.401 102.04C186.185 102.04 185.249 102.992 185.249 105.08C185.249 107.16 186.185 108.112 187.401 108.112C188.609 108.112 189.553 107.16 189.553 105.08ZM188.817 105.08C188.817 106.904 188.145 107.52 187.401 107.52C186.657 107.52 185.993 106.904 185.993 105.08C185.993 103.248 186.657 102.64 187.401 102.64C188.145 102.64 188.817 103.248 188.817 105.08Z" fill="black"/>
<path d="M183.654 107.36V108.112H184.382V107.36H183.654Z" fill="black"/>
<path d="M182.92 107.408H181.768V102.104H181.184L179.608 103.464L180 103.936L181.064 102.984C181.056 103.04 181.056 103.112 181.056 103.184V107.408H179.752V108H182.92V107.408Z" fill="black"/>
<path d="M178.658 105.08C178.658 102.992 177.714 102.04 176.506 102.04C175.29 102.04 174.354 102.992 174.354 105.08C174.354 107.16 175.29 108.112 176.506 108.112C177.714 108.112 178.658 107.16 178.658 105.08ZM177.922 105.08C177.922 106.904 177.25 107.52 176.506 107.52C175.762 107.52 175.098 106.904 175.098 105.08C175.098 103.248 175.762 102.64 176.506 102.64C177.25 102.64 177.922 103.248 177.922 105.08Z" fill="black"/>
<path d="M172.759 107.36V108.112H173.487V107.36H172.759Z" fill="black"/>
<path d="M168.385 103.712L169.113 103.832C169.113 103.176 169.601 102.68 170.273 102.68C170.889 102.68 171.321 103.008 171.321 103.68C171.321 104.288 170.953 104.712 169.921 104.736V105.264C171.177 105.264 171.441 105.728 171.441 106.36C171.441 106.88 171.033 107.472 170.193 107.472C169.585 107.472 169.225 107.16 168.977 106.648C168.913 106.496 168.873 106.376 168.857 106.288L168.201 106.56C168.481 107.424 168.937 108.104 170.201 108.104C171.297 108.104 172.185 107.416 172.185 106.344C172.185 105.608 171.785 105.12 171.017 104.928C171.657 104.712 172.049 104.328 172.049 103.56C172.049 102.664 171.329 102.04 170.313 102.04C169.313 102.04 168.537 102.648 168.385 103.712Z" fill="black"/>
<path d="M167.571 107.352H165.259C165.059 107.352 164.819 107.384 164.595 107.448L166.235 105.824C166.899 105.16 167.459 104.552 167.459 103.68C167.459 102.64 166.683 102.032 165.683 102.032C164.683 102.032 163.907 102.616 163.755 103.696L164.475 103.816C164.475 103.144 164.971 102.664 165.643 102.664C166.251 102.664 166.699 102.992 166.723 103.696C166.723 104.384 166.275 104.888 165.659 105.544L163.635 107.488V108H167.571V107.352Z" fill="black"/>
<path d="M163.158 105.08C163.158 102.992 162.214 102.04 161.006 102.04C159.79 102.04 158.854 102.992 158.854 105.08C158.854 107.16 159.79 108.112 161.006 108.112C162.214 108.112 163.158 107.16 163.158 105.08ZM162.422 105.08C162.422 106.904 161.75 107.52 161.006 107.52C160.262 107.52 159.598 106.904 159.598 105.08C159.598 103.248 160.262 102.64 161.006 102.64C161.75 102.64 162.422 103.248 162.422 105.08Z" fill="black"/>
<path d="M158.36 107.352H156.048C155.848 107.352 155.608 107.384 155.384 107.448L157.024 105.824C157.688 105.16 158.248 104.552 158.248 103.68C158.248 102.64 157.472 102.032 156.472 102.032C155.472 102.032 154.696 102.616 154.544 103.696L155.264 103.816C155.264 103.144 155.76 102.664 156.432 102.664C157.04 102.664 157.488 102.992 157.512 103.696C157.512 104.384 157.064 104.888 156.448 105.544L154.424 107.488V108H158.36V107.352Z" fill="black"/>
<path d="M199.721 119.408H198.569V114.104H197.985L196.409 115.464L196.801 115.936L197.865 114.984C197.857 115.04 197.857 115.112 197.857 115.184V119.408H196.553V120H199.721V119.408Z" fill="black"/>
<path d="M191.476 115.712L192.204 115.832C192.204 115.176 192.692 114.68 193.364 114.68C193.98 114.68 194.412 115.008 194.412 115.68C194.412 116.288 194.044 116.712 193.012 116.736V117.264C194.268 117.264 194.532 117.728 194.532 118.36C194.532 118.88 194.124 119.472 193.284 119.472C192.676 119.472 192.316 119.16 192.068 118.648C192.004 118.496 191.964 118.376 191.948 118.288L191.292 118.56C191.572 119.424 192.028 120.104 193.292 120.104C194.388 120.104 195.276 119.416 195.276 118.344C195.276 117.608 194.876 117.12 194.108 116.928C194.748 116.712 195.14 116.328 195.14 115.56C195.14 114.664 194.42 114.04 193.404 114.04C192.404 114.04 191.628 114.648 191.476 115.712Z" fill="black"/>
<path d="M189.56 119.36V120.112H190.288V119.36H189.56Z" fill="black"/>
<path d="M188.978 119.352H186.666C186.466 119.352 186.226 119.384 186.002 119.448L187.642 117.824C188.306 117.16 188.866 116.552 188.866 115.68C188.866 114.64 188.09 114.032 187.09 114.032C186.09 114.032 185.314 114.616 185.162 115.696L185.882 115.816C185.882 115.144 186.378 114.664 187.05 114.664C187.658 114.664 188.106 114.992 188.13 115.696C188.13 116.384 187.682 116.888 187.066 117.544L185.042 119.488V120H188.978V119.352Z" fill="black"/>
<path d="M184.221 119.408H183.069V114.104H182.485L180.909 115.464L181.301 115.936L182.365 114.984C182.357 115.04 182.357 115.112 182.357 115.184V119.408H181.053V120H184.221V119.408Z" fill="black"/>
<path d="M178.665 119.36V120.112H179.393V119.36H178.665Z" fill="black"/>
<path d="M174.291 115.712L175.019 115.832C175.019 115.176 175.507 114.68 176.179 114.68C176.795 114.68 177.227 115.008 177.227 115.68C177.227 116.288 176.859 116.712 175.827 116.736V117.264C177.083 117.264 177.347 117.728 177.347 118.36C177.347 118.88 176.939 119.472 176.099 119.472C175.491 119.472 175.131 119.16 174.883 118.648C174.819 118.496 174.779 118.376 174.763 118.288L174.107 118.56C174.387 119.424 174.843 120.104 176.107 120.104C177.203 120.104 178.091 119.416 178.091 118.344C178.091 117.608 177.691 117.12 176.923 116.928C177.563 116.712 177.955 116.328 177.955 115.56C177.955 114.664 177.235 114.04 176.219 114.04C175.219 114.04 174.443 114.648 174.291 115.712Z" fill="black"/>
<path d="M173.478 119.352H171.166C170.966 119.352 170.726 119.384 170.502 119.448L172.142 117.824C172.806 117.16 173.366 116.552 173.366 115.68C173.366 114.64 172.59 114.032 171.59 114.032C170.59 114.032 169.814 114.616 169.662 115.696L170.382 115.816C170.382 115.144 170.878 114.664 171.55 114.664C172.158 114.664 172.606 114.992 172.63 115.696C172.63 116.384 172.182 116.888 171.566 117.544L169.542 119.488V120H173.478V119.352Z" fill="black"/>
<path d="M169.064 117.08C169.064 114.992 168.12 114.04 166.912 114.04C165.696 114.04 164.76 114.992 164.76 117.08C164.76 119.16 165.696 120.112 166.912 120.112C168.12 120.112 169.064 119.16 169.064 117.08ZM168.328 117.08C168.328 118.904 167.656 119.52 166.912 119.52C166.168 119.52 165.504 118.904 165.504 117.08C165.504 115.248 166.168 114.64 166.912 114.64C167.656 114.64 168.328 115.248 168.328 117.08Z" fill="black"/>
<path d="M164.267 119.352H161.955C161.755 119.352 161.515 119.384 161.291 119.448L162.931 117.824C163.595 117.16 164.155 116.552 164.155 115.68C164.155 114.64 163.379 114.032 162.379 114.032C161.379 114.032 160.603 114.616 160.451 115.696L161.171 115.816C161.171 115.144 161.667 114.664 162.339 114.664C162.947 114.664 163.395 114.992 163.419 115.696C163.419 116.384 162.971 116.888 162.355 117.544L160.331 119.488V120H164.267V119.352Z" fill="black"/>
<path d="M157.008 117.704C157.392 117.704 157.792 117.48 158.12 116.904L157.704 116.608C157.504 116.992 157.28 117.152 157.024 117.152C156.512 117.152 156.144 116.4 155.44 116.4C155.048 116.4 154.648 116.624 154.32 117.2L154.728 117.488C154.944 117.104 155.16 116.944 155.416 116.944C155.928 116.944 156.296 117.704 157.008 117.704Z" fill="black"/>
<path d="M140.654 115.6H139.59V113.424H138.934V118.664H139.59V116.144H140.654V115.6ZM137.67 113.976H134.326V114.512H136.966C136.838 115.776 135.718 116.792 134.038 117.32L134.302 117.84C136.374 117.2 137.67 115.832 137.67 113.976ZM135.774 119.896V118.128H135.118V120.432H139.902V119.896H135.774Z" fill="black"/>
<path d="M132.711 113.416H132.055V120.592H132.711V113.416ZM130.607 114.192H127.247V114.72H129.943C129.807 116.424 128.847 117.8 126.919 118.72L127.271 119.256C129.663 118.08 130.607 116.264 130.607 114.192Z" fill="black"/>
<path d="M125.511 118.68V113.416H124.855V118.68H125.511ZM123.599 117.512L123.943 116.992C122.887 116.608 122.151 115.624 122.151 114.544V113.816H121.495V114.544C121.495 115.664 120.783 116.712 119.695 117.12L120.039 117.656C120.879 117.304 121.519 116.608 121.831 115.736C122.151 116.568 122.767 117.2 123.599 117.512ZM125.727 119.896H121.551V118.192H120.895V120.432H125.727V119.896Z" fill="black"/>
<path d="M116.904 117.576V115.84H117.848V117.824H118.48V113.424H117.848V115.304H116.904V113.552H116.28V117.576H116.904ZM115.552 114.008H112.776V114.536H114.872C114.752 115.76 113.952 116.712 112.456 117.32L112.8 117.8C114.648 117.032 115.552 115.76 115.552 114.008ZM116.12 117.896C114.616 117.896 113.68 118.4 113.68 119.232C113.68 120.088 114.616 120.568 116.12 120.568C117.616 120.568 118.544 120.088 118.544 119.232C118.544 118.4 117.616 117.896 116.12 117.896ZM116.12 120.056C114.992 120.056 114.336 119.752 114.336 119.232C114.336 118.72 114.992 118.408 116.12 118.408C117.216 118.408 117.888 118.72 117.888 119.232C117.888 119.752 117.216 120.056 116.12 120.056Z" fill="black"/>
<path d="M41.9164 22.216H38.9964V21.512H41.1564V21H36.9324V20.296H40.9244V19.8H36.9324V19.136H41.1164V18.624H36.2764V21.512H38.3404V22.216H35.4204V22.744H41.9164V22.216ZM38.6684 23.288C37.0764 23.288 36.2124 23.688 36.2124 24.432C36.2124 25.2 37.0764 25.584 38.6684 25.584C40.2604 25.584 41.1244 25.2 41.1244 24.432C41.1244 23.688 40.2604 23.288 38.6684 23.288ZM38.6684 25.088C37.5084 25.088 36.8684 24.88 36.8684 24.432C36.8684 24.008 37.5084 23.776 38.6684 23.776C39.8284 23.776 40.4684 24.008 40.4684 24.432C40.4684 24.88 39.8284 25.088 38.6684 25.088Z" fill="#888888"/>
<path d="M34.733 24.1362H31.805V22.5922H33.949V18.9282H33.309V20.2082H29.645V18.9282H28.997V22.5922H31.141V24.1362H28.229V24.6722H34.733V24.1362ZM29.645 22.0642V20.7442H33.309V22.0642H29.645Z" fill="#888888"/>
<path d="M21.3898 20.8001L21.6298 21.3201C22.8058 21.1921 23.8698 20.6561 24.2778 19.8801C24.6858 20.6561 25.7498 21.1921 26.9338 21.3201L27.1658 20.8001C25.9098 20.6721 24.7658 20.0721 24.7018 19.2721H26.9338V18.7441H21.6298V19.2721H23.8538C23.7898 20.0721 22.6458 20.6721 21.3898 20.8001ZM27.5178 21.9921H24.5978V20.9601H23.9418V21.9921H21.0298V22.5201H27.5178V21.9921ZM24.2698 23.1121C22.7338 23.1121 21.8138 23.5521 21.8138 24.3441C21.8138 25.1441 22.7338 25.5841 24.2698 25.5841C25.8058 25.5841 26.7258 25.1441 26.7258 24.3441C26.7258 23.5521 25.8058 23.1121 24.2698 23.1121ZM24.2698 25.0801C23.1098 25.0801 22.4778 24.8241 22.4778 24.3441C22.4778 23.8641 23.1098 23.6161 24.2698 23.6161C25.3978 23.6161 26.0618 23.8641 26.0618 24.3441C26.0618 24.8241 25.3978 25.0801 24.2698 25.0801Z" fill="#888888"/>
<path d="M20.3601 24.3522H18.0481C17.8481 24.3522 17.6081 24.3842 17.3841 24.4482L19.0241 22.8242C19.6881 22.1602 20.2481 21.5522 20.2481 20.6802C20.2481 19.6402 19.4721 19.0322 18.4721 19.0322C17.4721 19.0322 16.6961 19.6162 16.5441 20.6962L17.2641 20.8162C17.2641 20.1442 17.7601 19.6642 18.4321 19.6642C19.0401 19.6642 19.4881 19.9922 19.5121 20.6962C19.5121 21.3842 19.0641 21.8882 18.4481 22.5442L16.4241 24.4882V25.0002H20.3601V24.3522Z" fill="#888888"/>
<rect x="0.5" y="0.5" width="259" height="157" rx="7.5" stroke="#EAEAEA"/>
</svg>
