<svg width="260" height="158" viewBox="0 0 260 158" fill="none" xmlns="http://www.w3.org/2000/svg">
<rect x="0.5" y="0.5" width="259" height="157" rx="7.5" fill="#FCFCFC"/>
<path d="M53.44 26.025L53.995 27.24C56.23 26.895 58.045 25.8 58.885 24.3C59.74 25.815 61.555 26.88 63.79 27.24L64.345 26.025C61.78 25.665 59.845 24.225 59.77 22.62H63.865V21.375H53.89V22.62H58.015C57.94 24.225 56.005 25.665 53.44 26.025ZM65.005 29.475L65.02 28.23H52.765V29.475H58.075V34.17H59.62V29.475H65.005ZM77.4238 30.3V20.625H75.8788V30.3H77.4238ZM73.3738 28.155V21.735H66.9538V28.155H73.3738ZM71.8738 22.98V26.91H68.4688V22.98H71.8738ZM77.8138 32.535H70.1338V29.415H68.5738V33.78H77.8138V32.535ZM90.6077 25.815V24.57H82.8227V22.32H90.5177V21.075H81.2927V25.815H90.6077ZM92.0177 26.94H79.7777V28.215H92.0177V26.94ZM85.8527 29.22C82.9577 29.22 81.1877 30.12 81.1877 31.68C81.1877 33.255 82.9577 34.155 85.8527 34.155C88.8377 34.155 90.5177 33.255 90.5177 31.68C90.5177 30.12 88.7627 29.22 85.8527 29.22ZM85.8527 32.955C83.8577 32.955 82.7627 32.52 82.7627 31.68C82.7627 30.84 83.8577 30.405 85.8527 30.405C87.8477 30.405 88.9577 30.84 88.9577 31.68C88.9577 32.52 87.8477 32.955 85.8527 32.955ZM105.531 27.975H100.161V26.745H104.256V25.56H96.3365V24.36H103.986V20.925H94.7915V22.11H102.456V23.25H94.8215V26.745H98.6165V27.975H93.2465V29.22H105.531V27.975ZM94.6265 30.135V31.38H102.516V34.08H104.061V30.135H94.6265ZM107.36 25.08L107.915 26.28C110.33 26.025 112.145 25.05 112.88 23.655C113.6 25.05 115.445 26.025 117.845 26.28L118.385 25.08C115.865 24.84 114.11 23.745 113.915 22.515H117.89V21.27H107.885V22.515H111.83C111.635 23.745 109.88 24.84 107.36 25.08ZM119 26.97H106.745V28.215H119V26.97ZM112.85 29.19C109.955 29.19 108.185 30.105 108.185 31.68C108.185 33.255 109.955 34.155 112.85 34.155C115.835 34.155 117.515 33.255 117.515 31.68C117.515 30.105 115.76 29.19 112.85 29.19ZM112.85 32.94C110.855 32.94 109.76 32.52 109.76 31.68C109.76 30.84 110.855 30.405 112.85 30.405C114.845 30.405 115.955 30.84 115.955 31.68C115.955 32.52 114.845 32.94 112.85 32.94Z" fill="black"/>
<path d="M78.257 44.301H77.191V50.892H78.257V44.301ZM74.799 45.042H69.43V45.913H73.655C73.447 47.876 71.653 49.436 68.819 50.164L69.248 51.009C72.641 50.112 74.799 48.006 74.799 45.042ZM70.717 51.451V55.793H78.257V51.451H70.717ZM71.757 54.935V52.296H77.204V54.935H71.757ZM91.282 49.995V49.098H89.371V44.314H88.305V55.962H89.371V49.995H91.282ZM84.327 46.173V44.444H83.261V46.173H80.323V47.031H87.2V46.173H84.327ZM83.807 47.993C82.169 47.993 80.986 49.124 80.986 50.684C80.986 52.283 82.169 53.362 83.807 53.362C85.471 53.362 86.654 52.283 86.654 50.684C86.654 49.124 85.471 47.993 83.807 47.993ZM83.807 52.478C82.754 52.478 81.987 51.724 81.987 50.684C81.987 49.644 82.754 48.877 83.807 48.877C84.886 48.877 85.64 49.644 85.64 50.684C85.64 51.724 84.886 52.478 83.807 52.478ZM102.929 49.839V48.955H101.057V44.301H99.991V55.962H101.057V49.839H102.929ZM93.608 52.114V45.432H92.555V53.011H93.478C95.259 53.011 97.04 52.881 99.029 52.478L98.899 51.594C97.014 51.971 95.285 52.114 93.608 52.114Z" fill="black"/>
<path d="M44.828 71.62C44.828 68.488 43.412 67.06 41.6 67.06C39.776 67.06 38.372 68.488 38.372 71.62C38.372 74.74 39.776 76.168 41.6 76.168C43.412 76.168 44.828 74.74 44.828 71.62ZM43.724 71.62C43.724 74.356 42.716 75.28 41.6 75.28C40.484 75.28 39.488 74.356 39.488 71.62C39.488 68.872 40.484 67.96 41.6 67.96C42.716 67.96 43.724 68.872 43.724 71.62ZM51.7364 71.62C51.7364 68.488 50.3204 67.06 48.5084 67.06C46.6844 67.06 45.2804 68.488 45.2804 71.62C45.2804 74.74 46.6844 76.168 48.5084 76.168C50.3204 76.168 51.7364 74.74 51.7364 71.62ZM50.6324 71.62C50.6324 74.356 49.6244 75.28 48.5084 75.28C47.3924 75.28 46.3964 74.356 46.3964 71.62C46.3964 68.872 47.3924 67.96 48.5084 67.96C49.6244 67.96 50.6324 68.872 50.6324 71.62ZM58.6449 71.62C58.6449 68.488 57.2289 67.06 55.4169 67.06C53.5929 67.06 52.1889 68.488 52.1889 71.62C52.1889 74.74 53.5929 76.168 55.4169 76.168C57.2289 76.168 58.6449 74.74 58.6449 71.62ZM57.5409 71.62C57.5409 74.356 56.5329 75.28 55.4169 75.28C54.3009 75.28 53.3049 74.356 53.3049 71.62C53.3049 68.872 54.3009 67.96 55.4169 67.96C56.5329 67.96 57.5409 68.872 57.5409 71.62ZM65.5533 71.62C65.5533 68.488 64.1373 67.06 62.3253 67.06C60.5013 67.06 59.0973 68.488 59.0973 71.62C59.0973 74.74 60.5013 76.168 62.3253 76.168C64.1373 76.168 65.5533 74.74 65.5533 71.62ZM64.4493 71.62C64.4493 74.356 63.4413 75.28 62.3253 75.28C61.2093 75.28 60.2133 74.356 60.2133 71.62C60.2133 68.872 61.2093 67.96 62.3253 67.96C63.4413 67.96 64.4493 68.872 64.4493 71.62ZM72.4618 71.62C72.4618 68.488 71.0458 67.06 69.2338 67.06C67.4098 67.06 66.0058 68.488 66.0058 71.62C66.0058 74.74 67.4098 76.168 69.2338 76.168C71.0458 76.168 72.4618 74.74 72.4618 71.62ZM71.3578 71.62C71.3578 74.356 70.3498 75.28 69.2338 75.28C68.1178 75.28 67.1218 74.356 67.1218 71.62C67.1218 68.872 68.1178 67.96 69.2338 67.96C70.3498 67.96 71.3578 68.872 71.3578 71.62ZM79.3702 71.62C79.3702 68.488 77.9542 67.06 76.1422 67.06C74.3182 67.06 72.9142 68.488 72.9142 71.62C72.9142 74.74 74.3182 76.168 76.1422 76.168C77.9542 76.168 79.3702 74.74 79.3702 71.62ZM78.2662 71.62C78.2662 74.356 77.2582 75.28 76.1422 75.28C75.0262 75.28 74.0302 74.356 74.0302 71.62C74.0302 68.872 75.0262 67.96 76.1422 67.96C77.2582 67.96 78.2662 68.872 78.2662 71.62ZM80.0506 71.164V72.004H84.0106V71.164H80.0506ZM91.1949 71.62C91.1949 68.488 89.7789 67.06 87.9669 67.06C86.1429 67.06 84.7389 68.488 84.7389 71.62C84.7389 74.74 86.1429 76.168 87.9669 76.168C89.7789 76.168 91.1949 74.74 91.1949 71.62ZM90.0909 71.62C90.0909 74.356 89.0829 75.28 87.9669 75.28C86.8509 75.28 85.8549 74.356 85.8549 71.62C85.8549 68.872 86.8509 67.96 87.9669 67.96C89.0829 67.96 90.0909 68.872 90.0909 71.62ZM98.1033 71.62C98.1033 68.488 96.6873 67.06 94.8753 67.06C93.0513 67.06 91.6473 68.488 91.6473 71.62C91.6473 74.74 93.0513 76.168 94.8753 76.168C96.6873 76.168 98.1033 74.74 98.1033 71.62ZM96.9993 71.62C96.9993 74.356 95.9913 75.28 94.8753 75.28C93.7593 75.28 92.7633 74.356 92.7633 71.62C92.7633 68.872 93.7593 67.96 94.8753 67.96C95.9913 67.96 96.9993 68.872 96.9993 71.62ZM105.012 71.62C105.012 68.488 103.596 67.06 101.784 67.06C99.9598 67.06 98.5558 68.488 98.5558 71.62C98.5558 74.74 99.9598 76.168 101.784 76.168C103.596 76.168 105.012 74.74 105.012 71.62ZM103.908 71.62C103.908 74.356 102.9 75.28 101.784 75.28C100.668 75.28 99.6718 74.356 99.6718 71.62C99.6718 68.872 100.668 67.96 101.784 67.96C102.9 67.96 103.908 68.872 103.908 71.62ZM111.92 71.62C111.92 68.488 110.504 67.06 108.692 67.06C106.868 67.06 105.464 68.488 105.464 71.62C105.464 74.74 106.868 76.168 108.692 76.168C110.504 76.168 111.92 74.74 111.92 71.62ZM110.816 71.62C110.816 74.356 109.808 75.28 108.692 75.28C107.576 75.28 106.58 74.356 106.58 71.62C106.58 68.872 107.576 67.96 108.692 67.96C109.808 67.96 110.816 68.872 110.816 71.62ZM118.829 71.62C118.829 68.488 117.413 67.06 115.601 67.06C113.777 67.06 112.373 68.488 112.373 71.62C112.373 74.74 113.777 76.168 115.601 76.168C117.413 76.168 118.829 74.74 118.829 71.62ZM117.725 71.62C117.725 74.356 116.717 75.28 115.601 75.28C114.485 75.28 113.489 74.356 113.489 71.62C113.489 68.872 114.485 67.96 115.601 67.96C116.717 67.96 117.725 68.872 117.725 71.62ZM125.737 71.62C125.737 68.488 124.321 67.06 122.509 67.06C120.685 67.06 119.281 68.488 119.281 71.62C119.281 74.74 120.685 76.168 122.509 76.168C124.321 76.168 125.737 74.74 125.737 71.62ZM124.633 71.62C124.633 74.356 123.625 75.28 122.509 75.28C121.393 75.28 120.397 74.356 120.397 71.62C120.397 68.872 121.393 67.96 122.509 67.96C123.625 67.96 124.633 68.872 124.633 71.62ZM132.645 71.62C132.645 68.488 131.229 67.06 129.417 67.06C127.593 67.06 126.189 68.488 126.189 71.62C126.189 74.74 127.593 76.168 129.417 76.168C131.229 76.168 132.645 74.74 132.645 71.62ZM131.541 71.62C131.541 74.356 130.533 75.28 129.417 75.28C128.301 75.28 127.305 74.356 127.305 71.62C127.305 68.872 128.301 67.96 129.417 67.96C130.533 67.96 131.541 68.872 131.541 71.62Z" fill="black"/>
<path d="M31.92 83.77H31.1V86.81H29.02V87.48H31.1V92.75H31.92V83.77ZM27.67 86.15V84.54H26.85V86.15C26.85 87.8 25.83 89.55 24.53 90.19L25.03 90.84C26.04 90.31 26.86 89.17 27.26 87.84C27.67 89.09 28.51 90.17 29.51 90.68L29.99 90.03C28.69 89.42 27.67 87.77 27.67 86.15ZM37.5792 86.98C39.5892 86.98 40.7292 86.44 40.7292 85.43C40.7292 84.42 39.5892 83.87 37.5792 83.87C35.6092 83.87 34.4292 84.42 34.4292 85.43C34.4292 86.44 35.6092 86.98 37.5792 86.98ZM37.5792 84.49C39.0692 84.49 39.8892 84.83 39.8892 85.43C39.8892 86.03 39.0692 86.37 37.5792 86.37C36.0892 86.37 35.2692 86.03 35.2692 85.43C35.2692 84.83 36.0892 84.49 37.5792 84.49ZM37.9892 88.23H41.6292V87.57H33.5292V88.23H37.1692V89.07H34.5092V89.69H39.7892V90.49H34.5292V92.64H40.8692V92H35.3292V91.09H40.5992V89.07H37.9892V88.23ZM49.6884 87.66V87.02H44.4084V86.12H49.3984V85.5H44.4084V84.65H49.6384V84.01H43.5884V87.66H49.6884ZM50.6384 88.51H42.5184V89.17H50.6384V88.51ZM43.4284 90.04V90.69H48.7684V92.75H49.5884V90.04H43.4284ZM56.0177 88.1V87.32H58.0877V88.46H58.9077V83.78H58.0877V85.05H56.0177V84.2H55.2077V85.47H52.7877V84.19H51.9777V88.1H56.0177ZM56.0177 85.69H58.0877V86.68H56.0177V85.69ZM55.2077 86.11V87.44H52.7877V86.11H55.2077ZM59.2477 91.97H53.9577V91.02H58.9077V88.89H53.1277V89.54H58.0977V90.4H53.1477V92.62H59.2477V91.97ZM67.8669 83.77H67.0469V92.76H67.8669V83.77ZM63.7069 86.16V84.55H62.8969V86.16C62.8969 87.88 61.7969 89.57 60.4869 90.21L60.9869 90.88C62.0369 90.32 62.8969 89.24 63.3069 87.87C63.7369 89.16 64.5769 90.2 65.6169 90.71L66.1069 90.05C64.7869 89.46 63.7069 87.8 63.7069 86.16ZM79.9424 88.15V87.46H78.4724V83.78H77.6524V92.74H78.4724V88.15H79.9424ZM74.5924 85.21V83.88H73.7724V85.21H71.5124V85.87H76.8024V85.21H74.5924ZM74.1924 86.61C72.9324 86.61 72.0224 87.48 72.0224 88.68C72.0224 89.91 72.9324 90.74 74.1924 90.74C75.4724 90.74 76.3824 89.91 76.3824 88.68C76.3824 87.48 75.4724 86.61 74.1924 86.61ZM74.1924 90.06C73.3824 90.06 72.7924 89.48 72.7924 88.68C72.7924 87.88 73.3824 87.29 74.1924 87.29C75.0224 87.29 75.6024 87.88 75.6024 88.68C75.6024 89.48 75.0224 90.06 74.1924 90.06ZM88.9016 88.03V87.35H87.4616V83.77H86.6416V92.74H87.4616V88.03H88.9016ZM81.7316 89.78V84.64H80.9216V90.47H81.6316C83.0016 90.47 84.3716 90.37 85.9016 90.06L85.8016 89.38C84.3516 89.67 83.0216 89.78 81.7316 89.78ZM97.6809 88.88V88.21H96.3509C96.6009 86.92 96.6009 85.97 96.6009 85.13V84.35H90.5809V85.01H95.8009V85.13C95.8009 85.97 95.8009 86.92 95.5209 88.21H89.5709V88.88H93.1909V92.75H94.0209V88.88H97.6809ZM108.976 88.15V87.46H107.506V83.78H106.686V92.74H107.506V88.15H108.976ZM103.626 85.21V83.88H102.806V85.21H100.546V85.87H105.836V85.21H103.626ZM103.226 86.61C101.966 86.61 101.056 87.48 101.056 88.68C101.056 89.91 101.966 90.74 103.226 90.74C104.506 90.74 105.416 89.91 105.416 88.68C105.416 87.48 104.506 86.61 103.226 86.61ZM103.226 90.06C102.416 90.06 101.826 89.48 101.826 88.68C101.826 87.88 102.416 87.29 103.226 87.29C104.056 87.29 104.636 87.88 104.636 88.68C104.636 89.48 104.056 90.06 103.226 90.06ZM117.936 88.03V87.35H116.496V83.77H115.676V92.74H116.496V88.03H117.936ZM110.766 89.78V84.64H109.956V90.47H110.666C112.036 90.47 113.406 90.37 114.936 90.06L114.836 89.38C113.386 89.67 112.056 89.78 110.766 89.78ZM126.715 88.2H123.065V87.16H125.765V86.5H120.435V84.84H125.705V84.18H119.615V87.16H122.245V88.2H118.595V88.86H126.715V88.2ZM122.655 89.5C120.735 89.5 119.575 90.08 119.575 91.12C119.575 92.16 120.735 92.74 122.655 92.74C124.555 92.74 125.715 92.16 125.715 91.12C125.715 90.08 124.555 89.5 122.655 89.5ZM122.655 92.1C121.205 92.1 120.405 91.76 120.405 91.12C120.405 90.48 121.205 90.14 122.655 90.14C124.065 90.14 124.885 90.48 124.885 91.12C124.885 91.76 124.065 92.1 122.655 92.1ZM134.36 91.26H132.92V84.63H132.19L130.22 86.33L130.71 86.92L132.04 85.73C132.03 85.8 132.03 85.89 132.03 85.98V91.26H130.4V92H134.36V91.26ZM140.307 91.19H137.417C137.167 91.19 136.867 91.23 136.587 91.31L138.637 89.28C139.467 88.45 140.167 87.69 140.167 86.6C140.167 85.3 139.197 84.54 137.947 84.54C136.697 84.54 135.727 85.27 135.537 86.62L136.437 86.77C136.437 85.93 137.057 85.33 137.897 85.33C138.657 85.33 139.217 85.74 139.247 86.62C139.247 87.48 138.687 88.11 137.917 88.93L135.387 91.36V92H140.307V91.19ZM141.324 86.64L142.234 86.79C142.234 85.97 142.844 85.35 143.684 85.35C144.454 85.35 144.994 85.76 144.994 86.6C144.994 87.36 144.534 87.89 143.244 87.92V88.58C144.814 88.58 145.144 89.16 145.144 89.95C145.144 90.6 144.634 91.34 143.584 91.34C142.824 91.34 142.374 90.95 142.064 90.31C141.984 90.12 141.934 89.97 141.914 89.86L141.094 90.2C141.444 91.28 142.014 92.13 143.594 92.13C144.964 92.13 146.074 91.27 146.074 89.93C146.074 89.01 145.574 88.4 144.614 88.16C145.414 87.89 145.904 87.41 145.904 86.45C145.904 85.33 145.004 84.55 143.734 84.55C142.484 84.55 141.514 85.31 141.324 86.64Z" fill="black"/>
<rect width="107" height="22" transform="translate(77 104)" fill="#9BEDE9" fill-opacity="0.2"/>
<path d="M90.064 112.872H89.048V111.392H88.224V115.096H89.048V113.552H90.064V112.872ZM87.064 114.856V111.696H86.248V112.648H84.48V111.696H83.656V114.856H87.064ZM86.248 113.28V114.2H84.48V113.28H86.248ZM85.208 117.904V117.264H89.048V115.416H84.384V116.056H88.232V116.656H84.4V118.552H89.288V117.904H85.208ZM97.1514 114.28H96.1594C96.3434 113.416 96.3354 112.808 96.3354 112.256V111.704H91.4314V112.368H95.5274C95.5274 112.912 95.5114 113.48 95.3434 114.28H90.6074V114.952H97.1514V114.28ZM95.5034 115.52V116.384H92.2394V115.52H91.4234V118.528H96.3274V115.52H95.5034ZM95.5034 117.024V117.864H92.2394V117.024H95.5034ZM103.759 115.056V111.384H102.935V115.056H103.759ZM101.735 113.256C101.735 112.296 100.927 111.624 99.8308 111.624C98.7508 111.624 97.9428 112.296 97.9428 113.256C97.9428 114.208 98.7508 114.88 99.8308 114.88C100.927 114.88 101.735 114.208 101.735 113.256ZM98.7428 113.256C98.7428 112.68 99.2148 112.304 99.8308 112.304C100.463 112.304 100.935 112.68 100.935 113.256C100.935 113.832 100.463 114.208 99.8308 114.208C99.2148 114.208 98.7428 113.832 98.7428 113.256ZM103.975 117.88H99.8468V117.24H103.759V115.384H99.0228V116.032H102.943V116.632H99.0388V118.528H103.975V117.88ZM111.726 114.92V114.24H110.598V111.392H109.774V118.616H110.598V114.92H111.726ZM107.534 113.488V112.792H109.062V112.112H105.134V112.792H106.71V113.488C106.71 114.68 105.982 116.048 104.87 116.584L105.342 117.24C106.182 116.832 106.814 115.968 107.134 114.96C107.462 115.896 108.078 116.672 108.886 117.056L109.342 116.408C108.246 115.896 107.534 114.6 107.534 113.488Z" fill="#00A69E"/>
<path d="M119.768 109.88C118.124 109.88 116.936 110.744 116.648 112.58L118.22 112.844C118.232 112.604 118.256 112.424 118.316 112.244C118.508 111.716 118.988 111.26 119.66 111.26C120.44 111.26 120.932 111.692 120.932 112.52C120.932 113.444 120.368 114.164 119.456 115.076L116.444 118.04V119H122.696V117.488H119.816C119.54 117.488 119.252 117.5 118.928 117.584L120.788 115.712C121.676 114.788 122.564 113.744 122.6 112.484C122.6 110.948 121.436 109.88 119.768 109.88ZM129.808 114.548C129.808 111.356 128.38 109.916 126.46 109.916C124.588 109.916 123.148 111.356 123.148 114.548C123.148 117.716 124.588 119.168 126.46 119.168C128.38 119.168 129.808 117.716 129.808 114.548ZM128.128 114.548C128.128 117.092 127.336 117.776 126.46 117.776C125.632 117.776 124.828 117.092 124.828 114.548C124.828 111.992 125.632 111.296 126.46 111.296C127.336 111.296 128.128 111.992 128.128 114.548ZM133.585 109.88C131.941 109.88 130.753 110.744 130.465 112.58L132.037 112.844C132.049 112.604 132.073 112.424 132.133 112.244C132.325 111.716 132.805 111.26 133.477 111.26C134.257 111.26 134.749 111.692 134.749 112.52C134.749 113.444 134.185 114.164 133.273 115.076L130.261 118.04V119H136.513V117.488H133.633C133.357 117.488 133.069 117.5 132.745 117.584L134.605 115.712C135.493 114.788 136.381 113.744 136.417 112.484C136.417 110.948 135.253 109.88 133.585 109.88ZM140.553 109.88C138.861 109.88 137.721 110.72 137.373 112.556C137.901 112.64 138.417 112.748 138.933 112.832C139.089 111.968 139.437 111.296 140.457 111.296C141.237 111.296 141.705 111.704 141.693 112.532C141.693 113.3 141.321 113.804 139.737 113.84V115.04C141.609 115.04 141.837 115.616 141.837 116.456C141.837 117.128 141.321 117.788 140.265 117.788C139.413 117.788 138.741 116.936 138.549 116.168L137.085 116.744C137.565 118.316 138.465 119.228 140.289 119.228C141.969 119.228 143.433 118.256 143.469 116.42C143.469 115.364 143.025 114.68 141.969 114.284C142.725 113.912 143.313 113.312 143.313 112.292C143.349 110.96 142.233 109.916 140.553 109.88ZM146.166 119.168V117.464H144.414V119.168H146.166ZM153.598 114.548C153.598 111.356 152.17 109.916 150.25 109.916C148.378 109.916 146.938 111.356 146.938 114.548C146.938 117.716 148.378 119.168 150.25 119.168C152.17 119.168 153.598 117.716 153.598 114.548ZM151.918 114.548C151.918 117.092 151.126 117.776 150.25 117.776C149.422 117.776 148.618 117.092 148.618 114.548C148.618 111.992 149.422 111.296 150.25 111.296C151.126 111.296 151.918 111.992 151.918 114.548ZM158.503 110.024H157.087L154.495 112.256L155.443 113.336L156.907 112.004L156.859 112.784V117.668H155.107V119H160.051V117.668H158.503V110.024ZM163.047 119.168V117.464H161.295V119.168H163.047ZM170.48 114.548C170.48 111.356 169.052 109.916 167.132 109.916C165.26 109.916 163.82 111.356 163.82 114.548C163.82 117.716 165.26 119.168 167.132 119.168C169.052 119.168 170.48 117.716 170.48 114.548ZM168.8 114.548C168.8 117.092 168.008 117.776 167.132 117.776C166.304 117.776 165.5 117.092 165.5 114.548C165.5 111.992 166.304 111.296 167.132 111.296C168.008 111.296 168.8 111.992 168.8 114.548ZM175.384 110.024H173.968L171.376 112.256L172.324 113.336L173.788 112.004L173.74 112.784V117.668H171.988V119H176.932V117.668H175.384V110.024Z" fill="black"/>
<path d="M94.92 131.77H94.1V134.81H92.02V135.48H94.1V140.75H94.92V131.77ZM90.67 134.15V132.54H89.85V134.15C89.85 135.8 88.83 137.55 87.53 138.19L88.03 138.84C89.04 138.31 89.86 137.17 90.26 135.84C90.67 137.09 91.51 138.17 92.51 138.68L92.99 138.03C91.69 137.42 90.67 135.77 90.67 134.15ZM100.579 134.98C102.589 134.98 103.729 134.44 103.729 133.43C103.729 132.42 102.589 131.87 100.579 131.87C98.6092 131.87 97.4292 132.42 97.4292 133.43C97.4292 134.44 98.6092 134.98 100.579 134.98ZM100.579 132.49C102.069 132.49 102.889 132.83 102.889 133.43C102.889 134.03 102.069 134.37 100.579 134.37C99.0892 134.37 98.2692 134.03 98.2692 133.43C98.2692 132.83 99.0892 132.49 100.579 132.49ZM100.989 136.23H104.629V135.57H96.5292V136.23H100.169V137.07H97.5092V137.69H102.789V138.49H97.5292V140.64H103.869V140H98.3292V139.09H103.599V137.07H100.989V136.23ZM112.688 135.66V135.02H107.408V134.12H112.398V133.5H107.408V132.65H112.638V132.01H106.588V135.66H112.688ZM113.638 136.51H105.518V137.17H113.638V136.51ZM106.428 138.04V138.69H111.768V140.75H112.588V138.04H106.428ZM119.018 136.1V135.32H121.088V136.46H121.908V131.78H121.088V133.05H119.018V132.2H118.208V133.47H115.788V132.19H114.978V136.1H119.018ZM119.018 133.69H121.088V134.68H119.018V133.69ZM118.208 134.11V135.44H115.788V134.11H118.208ZM122.248 139.97H116.958V139.02H121.908V136.89H116.128V137.54H121.098V138.4H116.148V140.62H122.248V139.97ZM130.867 131.77H130.047V140.76H130.867V131.77ZM126.707 134.16V132.55H125.897V134.16C125.897 135.88 124.797 137.57 123.487 138.21L123.987 138.88C125.037 138.32 125.897 137.24 126.307 135.87C126.737 137.16 127.577 138.2 128.617 138.71L129.107 138.05C127.787 137.46 126.707 135.8 126.707 134.16ZM139.722 136.35C139.722 133.74 138.542 132.55 137.032 132.55C135.512 132.55 134.342 133.74 134.342 136.35C134.342 138.95 135.512 140.14 137.032 140.14C138.542 140.14 139.722 138.95 139.722 136.35ZM138.802 136.35C138.802 138.63 137.962 139.4 137.032 139.4C136.102 139.4 135.272 138.63 135.272 136.35C135.272 134.06 136.102 133.3 137.032 133.3C137.962 133.3 138.802 134.06 138.802 136.35ZM145.479 136.35C145.479 133.74 144.299 132.55 142.789 132.55C141.269 132.55 140.099 133.74 140.099 136.35C140.099 138.95 141.269 140.14 142.789 140.14C144.299 140.14 145.479 138.95 145.479 136.35ZM144.559 136.35C144.559 138.63 143.719 139.4 142.789 139.4C141.859 139.4 141.029 138.63 141.029 136.35C141.029 134.06 141.859 133.3 142.789 133.3C143.719 133.3 144.559 134.06 144.559 136.35ZM154.196 136.88V136.21H152.866C153.116 134.92 153.116 133.97 153.116 133.13V132.35H147.096V133.01H152.316V133.13C152.316 133.97 152.316 134.92 152.036 136.21H146.086V136.88H149.706V140.75H150.536V136.88H154.196ZM160.006 136.83L160.386 136.2C159.066 135.8 158.136 134.8 158.136 133.68V133.51H160.116V132.85H158.136V131.73H157.316V132.85H155.326V133.51H157.316V133.68C157.316 134.89 156.406 135.98 155.096 136.43L155.496 137.06C156.576 136.71 157.356 135.97 157.746 134.97C158.156 135.85 158.966 136.51 160.006 136.83ZM161.636 134.32H159.846V135H161.636V137.21H162.466V131.77H161.636V134.32ZM159.496 137.44C157.656 137.44 156.516 138.04 156.516 139.08C156.516 140.13 157.656 140.73 159.496 140.73C161.366 140.73 162.496 140.13 162.496 139.08C162.496 138.04 161.366 137.44 159.496 137.44ZM159.496 140.09C158.126 140.09 157.336 139.72 157.336 139.08C157.336 138.44 158.126 138.08 159.496 138.08C160.866 138.08 161.676 138.44 161.676 139.08C161.676 139.72 160.866 140.09 159.496 140.09ZM172.365 134.04H171.035V131.78H170.215V137.19H171.035V134.73H172.365V134.04ZM168.885 136.75L169.275 136.11C167.945 135.68 167.105 134.62 167.105 133.45V133.1H169.085V132.44H164.275V133.1H166.285V133.45C166.285 134.76 165.395 135.89 164.035 136.37L164.455 137.02C165.535 136.63 166.325 135.86 166.715 134.82C167.105 135.71 167.845 136.42 168.885 136.75ZM168.185 137.42C166.345 137.42 165.225 138.03 165.225 139.07C165.225 140.12 166.345 140.73 168.185 140.73C169.995 140.73 171.135 140.12 171.135 139.07C171.135 138.03 169.995 137.42 168.185 137.42ZM168.185 140.08C166.815 140.08 166.045 139.71 166.045 139.07C166.045 138.43 166.815 138.07 168.185 138.07C169.515 138.07 170.315 138.43 170.315 139.07C170.315 139.71 169.515 140.08 168.185 140.08Z" fill="#888888"/>
<path fill-rule="evenodd" clip-rule="evenodd" d="M170 23H244V93.6665C243.939 93.4406 243.889 93.2775 243.853 93.175L243.86 93.1823C242.885 90.3928 238.359 88.8123 238.359 88.8123L219.837 81.1646L216.661 76.4128C216.593 75.339 216.56 74.2159 216.59 73.1182C217.275 72.3482 217.874 71.4948 218.355 70.5672C219.242 68.8573 219.626 66.6196 219.929 64.2634C220.336 64.1396 220.772 63.8672 221.209 63.495C222.089 62.7501 222.56 59.0864 222.875 56.6381C222.951 56.046 223.018 55.5251 223.079 55.1336C223.304 53.7005 222.575 53.2076 221.515 53.3805C222.518 47.7545 221.033 43.3454 220.079 41.652C219.763 41.0937 219.381 40.8035 218.988 40.673C219.369 38.5182 218.133 35.9596 218.003 36.6774C217.632 38.6983 214.451 37.9756 210.873 37.1628C209.719 36.9006 208.523 36.6289 207.367 36.437C200.092 35.2297 197.534 36.5957 197.586 39.9856C196.729 39.5661 195.376 39.4719 194.53 40.3118C193.439 41.3951 189.975 45.6723 191.583 54.2653C190.433 54.0108 189.613 54.4776 189.85 55.9858C189.911 56.3772 189.978 56.8982 190.054 57.4902C190.369 59.9386 190.84 63.6023 191.72 64.3472C192.508 65.0189 193.295 65.3655 193.907 65.1007C194.392 67.04 194.92 68.7708 195.425 69.868C195.956 71.0279 196.629 72.0783 197.404 73.0069C197.432 74.1849 197.424 75.4001 197.379 76.5865L194.647 81.0991L176.309 88.0184C176.309 88.0184 173.433 89.1109 171.599 91.1721C171.306 91.5019 170.693 93.1787 170 96.0816V23Z" fill="#EBECF1"/>
<rect x="0.5" y="0.5" width="259" height="157" rx="7.5" stroke="#EAEAEA"/>
</svg>
