<svg width="48" height="48" viewBox="0 0 48 48" fill="none" xmlns="http://www.w3.org/2000/svg">
<g clip-path="url(#clip0_15_9851)">
<path d="M39 24C39 26.9667 38.1203 29.8668 36.4721 32.3335C34.8238 34.8003 32.4812 36.7229 29.7403 37.8582C26.9994 38.9935 23.9834 39.2906 21.0737 38.7118C18.1639 38.133 15.4912 36.7044 13.3934 34.6066C11.2956 32.5088 9.86701 29.8361 9.28823 26.9264C8.70945 24.0166 9.0065 21.0006 10.1418 18.2597C11.2771 15.5189 13.1997 13.1762 15.6665 11.528C18.1332 9.87973 21.0333 9 24 9C27.978 9.00079 31.7929 10.5814 34.6057 13.3943C37.4186 16.2071 38.9992 20.022 39 24Z" fill="#DF2534"/>
<path d="M16.2728 20.4466C15.8067 20.1746 15.2602 20.074 14.7278 20.162C15.6428 19.2863 16.1859 18.0922 16.2446 16.8271C16.2458 16.7213 16.2407 16.6156 16.2293 16.5105C16.2379 16.2105 16.158 15.9146 15.9995 15.6598C15.8409 15.4049 15.6108 15.2025 15.3379 15.0777C14.8259 14.8861 13.8898 14.9834 12.4011 16.5053L11.5072 17.5063C10.8033 18.4502 10.3365 19.5493 10.146 20.7111C9.84886 23.1425 10.0311 25.6086 10.6824 27.9698C10.7407 28.2102 10.8506 28.4351 11.0045 28.6287C11.1584 28.8223 11.3527 28.9802 11.5737 29.0912C12.1869 29.3412 12.7684 29.04 13.2847 28.7746L13.4225 28.7055L13.9533 28.4682L14.4692 28.2408L15.0973 27.9647C15.5628 27.8033 15.9985 27.566 16.3867 27.2624C16.9372 26.7944 17.34 26.1766 17.546 25.484C17.6601 25.0925 17.7337 24.6903 17.7657 24.2837C17.8235 23.7457 17.8029 23.2022 17.7047 22.67C17.6379 22.2189 17.4756 21.7872 17.2286 21.4038C16.9817 21.0204 16.6558 20.6941 16.2728 20.4466ZM11.4999 22.3274C11.4999 22.3376 11.5281 22.6581 11.5281 22.6581C11.5251 22.6924 11.5327 22.7268 11.5499 22.7567C11.5671 22.7865 11.593 22.8103 11.6242 22.8249C11.6554 22.8396 11.6903 22.8443 11.7243 22.8384C11.7582 22.8325 11.7895 22.8163 11.8139 22.7921C12.3733 22.3227 13.222 21.902 13.9047 22.1371C14.4385 22.3223 14.8007 22.8727 14.9897 23.7751C15.378 25.6675 14.0809 26.5789 13.2715 26.9505L13.2433 26.9633L12.2065 27.4715C12.1868 27.4788 12.1658 27.4821 12.1448 27.4813C12.1237 27.4804 12.1031 27.4753 12.084 27.4664C12.02 27.4331 12.0021 27.3926 11.959 27.2799C11.255 24.7149 11.0237 22.0431 11.2763 19.3953C11.3113 19.1722 11.4017 18.9616 11.5392 18.7825L12.41 17.8541L12.5073 17.7478C12.9796 17.2883 13.4242 17.0583 13.664 17.1582C13.8633 17.2435 13.9115 17.5618 13.9141 17.8118C13.9567 19.1678 13.1964 20.5533 11.61 22.0458C11.5711 22.081 11.5409 22.1247 11.5217 22.1736C11.5026 22.2225 11.4952 22.2751 11.4999 22.3274Z" fill="white"/>
<path d="M28.0454 12.5415C27.7544 11.543 27.2774 11.3335 27.1413 11.2874C25.9153 10.8938 24.612 10.8043 23.3438 11.0267C21.5125 11.3409 19.8682 12.3373 18.742 13.8151C18.1792 14.5749 17.7788 15.4425 17.566 16.3637C17.3531 17.285 17.3322 18.2403 17.5046 19.17C17.6419 20.0778 17.9643 20.9478 18.4519 21.7259C18.9395 22.5039 19.5819 23.1734 20.3391 23.6928C22.1162 24.8905 24.4809 25.2557 27.0094 24.7245C28.3625 24.4663 29.6288 23.8718 30.6917 22.9956C30.8574 22.8497 30.989 22.669 31.0768 22.4664C31.1646 22.2638 31.2067 22.0442 31.1999 21.8235C31.1881 21.4472 31.1264 21.0742 31.0164 20.7141C30.9601 20.5097 30.8709 20.4483 30.7279 20.4483C30.623 20.4483 30.5146 20.5682 30.4928 20.5938C29.6574 21.486 28.5471 22.0727 27.3392 22.26C23.8588 22.929 21.1822 21.3038 20.5187 18.1165C20.3686 17.4822 20.3507 16.8238 20.4662 16.1824C20.5818 15.5409 20.8283 14.9301 21.1903 14.3881C21.583 13.8523 22.0818 13.4031 22.6556 13.0684C23.2294 12.7336 23.866 12.5206 24.5257 12.4425C25.6038 12.2823 26.7051 12.4174 27.7126 12.8333C27.7126 12.8333 28.1371 12.9592 28.0454 12.5415Z" fill="white"/>
</g>
<defs>
<clipPath id="clip0_15_9851">
<rect width="30" height="29.9962" fill="white" transform="translate(9 9)"/>
</clipPath>
</defs>
</svg>
