<svg width="48" height="48" viewBox="0 0 48 48" fill="none" xmlns="http://www.w3.org/2000/svg">
<g clip-path="url(#clip0_15_9850)">
<path d="M2.60472 19C1.9142 19.001 1.25224 19.2757 0.763969 19.764C0.2757 20.2522 0.000959551 20.9142 0 21.6047V28.551H0.868239V21.6047C0.868179 21.3766 0.913066 21.1507 1.00033 20.9399C1.0876 20.7292 1.21555 20.5377 1.37685 20.3764C1.53815 20.2151 1.72964 20.0871 1.9404 19.9999C2.15116 19.9126 2.37705 19.8677 2.60516 19.8678H45.3953C45.6234 19.8678 45.8492 19.9127 46.0599 20C46.2706 20.0873 46.4621 20.2152 46.6233 20.3765C46.7846 20.5378 46.9125 20.7293 46.9997 20.94C47.087 21.1508 47.1318 21.3766 47.1318 21.6047V28.551H48.0005V21.6047C47.9996 20.9141 47.7249 20.2521 47.2366 19.7638C46.7483 19.2755 46.0863 19.0008 45.3958 19H2.60472Z" fill="#1A1818"/>
<path d="M8.00005 26.7221C8.00005 26.7901 7.95471 26.815 7.88262 26.815H7.23881C7.16445 26.815 7.13997 26.7901 7.13997 26.7157V24.9634C7.14057 24.9459 7.13736 24.9285 7.13056 24.9123C7.12377 24.8962 7.11355 24.8817 7.10062 24.8699C7.08769 24.8581 7.07236 24.8492 7.05567 24.8439C7.03898 24.8386 7.02133 24.837 7.00395 24.8392H5.31373C5.29734 24.8378 5.28086 24.8401 5.26549 24.846C5.25013 24.8518 5.23628 24.861 5.22497 24.873C5.21365 24.8849 5.20516 24.8992 5.20012 24.9149C5.19508 24.9305 5.19362 24.9471 5.19586 24.9634V26.7157C5.19586 26.7901 5.15052 26.815 5.08478 26.815H4.42826C4.3666 26.815 4.34167 26.7901 4.34167 26.7221V22.3696C4.34167 22.3015 4.3666 22.2644 4.42826 22.2644H5.08478C5.09928 22.2626 5.11399 22.2641 5.12786 22.2686C5.14174 22.2732 5.15445 22.2808 5.16506 22.2908C5.17567 22.3009 5.18392 22.3132 5.18924 22.3268C5.19457 22.3404 5.19683 22.355 5.19586 22.3696V24.0534C5.19376 24.0694 5.19537 24.0856 5.20056 24.1009C5.20575 24.1161 5.21438 24.1299 5.22578 24.1413C5.23719 24.1526 5.25104 24.1612 5.2663 24.1663C5.28155 24.1715 5.29778 24.173 5.31373 24.1709H7.00395C7.08465 24.1709 7.13997 24.1337 7.13997 24.0534V22.3696C7.13997 22.3015 7.16445 22.2644 7.23881 22.2644H7.88262C7.95698 22.2644 8.00005 22.3015 8.00005 22.3696V26.7221Z" fill="#1A1818"/>
<path d="M9.55465 26.8767C9.45994 26.8789 9.36575 26.862 9.27765 26.8272C9.18954 26.7924 9.10931 26.7403 9.04169 26.6739C8.97406 26.6075 8.92043 26.5283 8.88394 26.4409C8.84745 26.3535 8.82884 26.2596 8.82923 26.1649V23.4595C8.82923 23.3788 8.86007 23.3416 8.93443 23.3416H9.55375C9.61541 23.3416 9.65893 23.3788 9.65893 23.4595V26.0719C9.65893 26.1463 9.69022 26.1834 9.77636 26.1834H10.9098C10.9842 26.1834 11.0336 26.1463 11.0336 26.0719V23.4595C11.0336 23.3788 11.0644 23.3416 11.1388 23.3416H11.7581C11.7737 23.3402 11.7893 23.3424 11.8039 23.3479C11.8185 23.3534 11.8317 23.3622 11.8424 23.3735C11.8532 23.3849 11.8612 23.3985 11.8659 23.4134C11.8706 23.4283 11.8719 23.4441 11.8696 23.4595V27.404C11.8662 27.5031 11.8408 27.6001 11.7953 27.6882L11.3741 28.3756C11.3594 28.4043 11.3374 28.4286 11.3102 28.446C11.283 28.4634 11.2517 28.4732 11.2195 28.4744H11.1392C11.0649 28.4744 11.034 28.4291 11.034 28.3629V26.6169C11.034 26.5425 10.9887 26.5117 10.9225 26.5303L9.73375 26.8644C9.67461 26.8745 9.61461 26.8786 9.55465 26.8767Z" fill="#1A1818"/>
<path d="M13.4111 26.8708C13.2227 26.8697 13.0423 26.7944 12.909 26.6611C12.7757 26.5279 12.7004 26.3474 12.6993 26.159V23.4595C12.6993 23.3788 12.7302 23.3416 12.8041 23.3416H13.4293C13.4851 23.3416 13.5286 23.3788 13.5286 23.4595V26.0719C13.5286 26.1463 13.5658 26.1771 13.6524 26.1771H14.7858C14.8602 26.1771 14.91 26.1458 14.91 26.0719V23.4595C14.91 23.3788 14.935 23.3416 15.0089 23.3416H15.6278C15.6433 23.3402 15.659 23.3424 15.6736 23.3479C15.6882 23.3534 15.7014 23.3622 15.7121 23.3735C15.7228 23.3849 15.7308 23.3985 15.7356 23.4134C15.7403 23.4283 15.7415 23.4441 15.7393 23.4595V26.7239C15.7393 26.7924 15.6939 26.8168 15.6278 26.8168H15.0102C14.9363 26.8168 14.9114 26.7919 14.9114 26.7175V26.6183C14.9114 26.538 14.8615 26.5067 14.794 26.5316L13.6052 26.8531C13.5417 26.8685 13.4763 26.8744 13.4111 26.8708Z" fill="#1A1818"/>
<path d="M19.6085 24.0104V26.7221C19.6085 26.7905 19.5632 26.815 19.4974 26.815H18.8781C18.8038 26.815 18.7788 26.7901 18.7788 26.7157V24.1029C18.7804 24.0862 18.7782 24.0695 18.7725 24.0537C18.7669 24.038 18.7578 24.0238 18.746 24.0119C18.7342 24.0001 18.7199 23.9911 18.7042 23.9854C18.6885 23.9797 18.6717 23.9776 18.6551 23.9791H17.5216C17.5047 23.9765 17.4875 23.9778 17.4713 23.9831C17.4551 23.9884 17.4403 23.9975 17.4283 24.0095C17.4162 24.0216 17.4071 24.0363 17.4019 24.0526C17.3966 24.0688 17.3952 24.086 17.3978 24.1029V26.7157C17.3992 26.7291 17.3975 26.7426 17.393 26.7553C17.3885 26.7679 17.3812 26.7794 17.3717 26.7889C17.3622 26.7984 17.3507 26.8057 17.3381 26.8102C17.3254 26.8147 17.3119 26.8164 17.2985 26.815H16.6733C16.5989 26.815 16.5681 26.7901 16.5681 26.7221V23.4577C16.5681 23.377 16.5989 23.3398 16.6733 23.3398H17.2985C17.3543 23.3398 17.3978 23.377 17.3978 23.4577V23.5629C17.3978 23.6309 17.4286 23.6617 17.5216 23.6372L18.7045 23.3153C18.7637 23.2989 18.8245 23.2886 18.8858 23.2845C19.0775 23.2862 19.2609 23.3633 19.3961 23.4991C19.5314 23.635 19.6077 23.8187 19.6085 24.0104Z" fill="#1A1818"/>
<path d="M20.314 26.1585V24.598C20.3068 24.4439 20.3446 24.2911 20.4227 24.1582C20.5007 24.0252 20.6158 23.9178 20.7538 23.849L21.4103 23.465C21.5392 23.3814 21.6901 23.3383 21.8437 23.3412H22.4131C22.4934 23.3412 22.5306 23.3103 22.5306 23.236V21.9543C22.5306 21.8863 22.5614 21.8368 22.6212 21.8368H23.2528C23.3272 21.8368 23.358 21.8863 23.358 21.9543V26.7216C23.358 26.7896 23.3272 26.8146 23.2528 26.8146H22.6212C22.5591 26.8146 22.5306 26.7896 22.5306 26.7153V26.616C22.5306 26.5357 22.4934 26.5045 22.4131 26.5294L21.2185 26.8508C21.1579 26.866 21.0954 26.8722 21.033 26.8694C20.8448 26.8661 20.665 26.7904 20.5311 26.658C20.3972 26.5256 20.3194 26.3467 20.314 26.1585ZM22.5301 26.0715V24.1092C22.5301 24.0226 22.4929 23.9791 22.4063 23.9791H21.2611C21.174 23.9791 21.1432 24.0244 21.1432 24.1092V26.0715C21.1432 26.1458 21.1745 26.1766 21.2611 26.1766H22.4063C22.4929 26.1771 22.5301 26.1458 22.5301 26.0719V26.0715Z" fill="#1A1818"/>
<path d="M24.783 26.8708C24.5936 26.8709 24.4119 26.7961 24.2775 26.6628C24.143 26.5294 24.0667 26.3483 24.0653 26.159V24.5998C24.0582 24.4465 24.0953 24.2945 24.1721 24.1617C24.249 24.0289 24.3623 23.921 24.4987 23.8508L25.1611 23.4668C25.288 23.384 25.4367 23.3409 25.5882 23.343H27.006C27.0744 23.343 27.1112 23.3802 27.1112 23.4609V26.7253C27.1112 26.7937 27.074 26.8182 27.006 26.8182H26.3749C26.3069 26.8182 26.2819 26.7933 26.2819 26.7189V26.6196C26.2819 26.5394 26.2366 26.5081 26.1581 26.533L24.9694 26.8545C24.9084 26.8689 24.8456 26.8744 24.783 26.8708ZM26.2792 26.0719V24.1097C26.2792 24.0226 26.2339 23.9795 26.1554 23.9795H25.0102C24.9236 23.9795 24.8923 24.0249 24.8923 24.1097V26.0719C24.8923 26.1463 24.9231 26.1771 25.0102 26.1771H26.1554C26.2379 26.1771 26.2814 26.1463 26.2814 26.0719H26.2792Z" fill="#1A1818"/>
<path d="M28.7701 22.4625C28.7701 22.5369 28.7247 22.5613 28.6649 22.5613H28.046C27.9658 22.5613 27.9413 22.5369 27.9413 22.4625V21.9547C27.9413 21.8867 27.9658 21.8373 28.046 21.8373H28.6649C28.6797 21.8375 28.6943 21.8408 28.7077 21.847C28.7212 21.8531 28.7332 21.862 28.7431 21.873C28.753 21.8841 28.7605 21.897 28.7651 21.9111C28.7698 21.9251 28.7715 21.94 28.7701 21.9547V22.4625ZM28.7701 26.7221C28.7701 26.7901 28.7247 26.815 28.6649 26.815H28.046C27.9658 26.815 27.9413 26.7901 27.9413 26.7221V23.4577C27.9413 23.377 27.9658 23.3398 28.046 23.3398H28.6649C28.727 23.3398 28.7701 23.377 28.7701 23.4577V26.7221Z" fill="#1A1818"/>
<path d="M30.507 25.9232V23.5769C30.5012 23.4157 30.5406 23.2561 30.6207 23.116C30.7008 22.976 30.8185 22.8611 30.9604 22.7844L31.6858 22.3818C31.8148 22.3044 31.9625 22.2638 32.1129 22.2644H33.6481C33.6633 22.2622 33.6787 22.2636 33.6933 22.2684C33.7078 22.2732 33.7211 22.2814 33.7319 22.2922C33.7428 22.303 33.751 22.3162 33.7559 22.3307C33.7608 22.3453 33.7622 22.3607 33.7601 22.3759V22.8293C33.7601 22.8978 33.7224 22.9281 33.6481 22.9281H31.4999C31.4256 22.9281 31.3948 22.9735 31.3948 23.0519V26.0361C31.3948 26.1163 31.4256 26.1535 31.4999 26.1535H33.7093C33.7773 26.1535 33.8208 26.1844 33.8208 26.2465C33.8216 26.28 33.8126 26.313 33.795 26.3416C33.7773 26.3702 33.7518 26.393 33.7215 26.4074L33.1893 26.7044C33.0552 26.7797 32.9037 26.8184 32.7499 26.8164H31.4124C31.2937 26.8197 31.1755 26.7989 31.0649 26.7554C30.9544 26.7118 30.8538 26.6464 30.7692 26.5629C30.6846 26.4795 30.6178 26.3798 30.5727 26.2699C30.5277 26.1599 30.5053 26.042 30.507 25.9232Z" fill="#1A1818"/>
<path d="M35.0518 26.8708C34.8623 26.871 34.6805 26.7963 34.5459 26.663C34.4114 26.5296 34.3351 26.3484 34.3336 26.159V24.5998C34.3265 24.4465 34.3636 24.2945 34.4404 24.1617C34.5173 24.0289 34.6306 23.921 34.7671 23.8508L35.4295 23.4668C35.5565 23.384 35.7054 23.3409 35.857 23.343H37.2747C37.3427 23.343 37.3799 23.3802 37.3799 23.4609V26.7253C37.3799 26.7937 37.3423 26.8182 37.2747 26.8182H36.6427C36.5747 26.8182 36.552 26.7933 36.552 26.7189V26.6196C36.552 26.5394 36.5067 26.5081 36.4278 26.533L35.2395 26.8545C35.178 26.869 35.1148 26.8745 35.0518 26.8708ZM36.548 26.0719V24.1097C36.5506 24.0925 36.5493 24.0749 36.5441 24.0583C36.5389 24.0417 36.5299 24.0265 36.5179 24.014C36.5059 24.0014 36.4912 23.9917 36.4749 23.9858C36.4585 23.9798 36.441 23.9777 36.4237 23.9795H35.2785C35.1919 23.9795 35.161 24.0249 35.161 24.1097V26.0719C35.161 26.1463 35.1919 26.1771 35.2785 26.1771H36.4237C36.5071 26.1771 36.5502 26.1463 36.5502 26.0719H36.548Z" fill="#1A1818"/>
<path d="M40.4878 23.8861C40.4878 23.9483 40.4425 23.9768 40.3763 23.9768H39.1567C39.0764 23.9768 39.0452 24.0222 39.0452 24.1006V26.7135C39.0452 26.7878 38.9957 26.8127 38.9336 26.8127H38.3084C38.2341 26.8127 38.2091 26.7878 38.2091 26.7198V23.4554C38.2091 23.3747 38.2341 23.3375 38.3084 23.3375H38.9336C38.9491 23.3366 38.9645 23.339 38.979 23.3447C38.9934 23.3503 39.0064 23.3591 39.017 23.3704C39.0276 23.3816 39.0357 23.3951 39.0405 23.4098C39.0454 23.4245 39.047 23.44 39.0452 23.4554V23.5543C39.0452 23.6223 39.0764 23.6531 39.1567 23.6531C39.18 23.6546 39.2034 23.6504 39.2247 23.6409L39.5833 23.4056C39.7148 23.3354 39.8618 23.2992 40.0109 23.3004H40.3763C40.3908 23.2985 40.4056 23.2999 40.4195 23.3045C40.4335 23.309 40.4462 23.3166 40.4569 23.3266C40.4676 23.3367 40.4758 23.349 40.4812 23.3626C40.4865 23.3763 40.4888 23.3909 40.4878 23.4056V23.8861Z" fill="#1A1818"/>
<path d="M40.6121 26.1585V24.598C40.6048 24.444 40.6425 24.2912 40.7205 24.1582C40.7985 24.0252 40.9135 23.9178 41.0514 23.849L41.7075 23.465C41.8364 23.3814 41.9873 23.3383 42.1409 23.3412H42.7108C42.7911 23.3412 42.8282 23.3103 42.8282 23.236V21.9543C42.8282 21.8863 42.8591 21.8368 42.9189 21.8368H43.5509C43.6248 21.8368 43.6557 21.8863 43.6557 21.9543V26.7216C43.6557 26.7896 43.6244 26.8146 43.5509 26.8146H42.9189C42.8572 26.8146 42.8282 26.7896 42.8282 26.7153V26.616C42.8282 26.5357 42.7911 26.5045 42.7108 26.5294L41.5157 26.8508C41.4551 26.866 41.3926 26.8722 41.3302 26.8694C41.1421 26.8659 40.9626 26.7901 40.8289 26.6577C40.6952 26.5253 40.6175 26.3466 40.6121 26.1585ZM42.8287 26.0715V24.1092C42.8287 24.0226 42.7915 23.9791 42.7045 23.9791H41.5592C41.4726 23.9791 41.4418 24.0244 41.4418 24.1092V26.0715C41.4418 26.1458 41.4726 26.1766 41.5592 26.1766H42.7058C42.7915 26.1771 42.8287 26.1458 42.8287 26.0719V26.0715Z" fill="#1A1818"/>
</g>
<defs>
<clipPath id="clip0_15_9850">
<rect width="48" height="9.55149" fill="white" transform="translate(0 19)"/>
</clipPath>
</defs>
</svg>
