<svg width="48" height="48" viewBox="0 0 48 48" fill="none" xmlns="http://www.w3.org/2000/svg">
<g clip-path="url(#clip0_15_9596)">
<path d="M30.5874 37.2841C26.961 40.9105 21.0387 40.9105 17.4123 37.2841L10.7211 30.5929C7.09461 26.9664 7.09461 21.0387 10.7211 17.4122L17.4123 10.721C21.0387 7.09458 26.961 7.09458 30.5874 10.721L37.2841 17.4122C40.9106 21.0387 40.9106 26.9664 37.2841 30.5929L30.5874 37.2841Z" fill="#E60013"/>
<path d="M20.03 33.8323C19.4956 33.8323 19.0593 33.4179 19.0375 32.8834C19.0266 32.6217 19.1193 32.3654 19.2992 32.1745C19.4792 31.9836 19.7246 31.8691 19.9864 31.8528C20.5317 31.8255 20.9952 32.2563 21.017 32.8016C21.0388 33.3524 20.6135 33.8105 20.0682 33.8323H20.0245" fill="white"/>
<path d="M23.6347 15.5583C23.0894 15.5583 22.6531 15.7273 22.3041 16.0818C21.5461 16.8344 21.1425 18.394 21.1807 20.4663C21.2243 23.0239 21.8296 28.0354 23.8419 30.6203C24.1691 31.0348 24.5181 31.3729 24.878 31.6128C25.2325 31.8473 25.6361 32.0763 26.2523 32.0763C26.4213 32.0763 26.6013 32.06 26.7867 32.0273C27.9428 31.7491 29.3879 30.4676 30.4568 28.7607C30.6204 28.499 30.9039 28.3408 31.2093 28.3408C31.3729 28.3408 31.542 28.3899 31.6783 28.4772C31.8801 28.6026 32.0164 28.7989 32.071 29.0334C32.1255 29.2624 32.0819 29.5024 31.9564 29.7042C30.5986 31.8637 28.8044 33.3797 27.163 33.7614C27.1575 33.7614 27.1412 33.7614 27.1194 33.7723C26.8194 33.8269 26.5195 33.8541 26.2359 33.8541C25.1725 33.8541 24.4254 33.4506 23.8964 33.1016C23.3675 32.7526 22.8767 32.289 22.4295 31.7164C19.5992 28.0845 19.4084 21.2679 19.392 20.5044C19.3647 18.6939 19.6211 16.2345 21.0389 14.8275C21.7315 14.1459 22.5986 13.7969 23.6129 13.7969H23.7765C24.7962 13.7969 25.6633 14.1459 26.3504 14.8275C27.7628 16.2345 28.0246 18.6939 27.9973 20.5044C27.9701 22.3913 27.6211 26.0504 25.6633 29.3333C25.5052 29.6005 25.2161 29.7641 24.8999 29.7641C24.7417 29.7641 24.5836 29.7205 24.4472 29.6387C24.0273 29.3879 23.8855 28.8371 24.1364 28.4172C25.5052 26.1213 26.1705 23.5965 26.2196 20.4663C26.2523 18.3885 25.8542 16.8344 25.1016 16.0818C24.7526 15.7328 24.3109 15.5583 23.771 15.5583H23.6183H23.6347Z" fill="white"/>
</g>
<defs>
<clipPath id="clip0_15_9596">
<rect width="32" height="32.0055" fill="white" transform="translate(8 8)"/>
</clipPath>
</defs>
</svg>
