<svg width="310" height="272" viewBox="0 0 310 272" fill="none" xmlns="http://www.w3.org/2000/svg">
<rect width="310" height="272" fill="white"/>
<path d="M147.625 27.912H146.641V17.124H147.625V27.912ZM140.485 24.396C141.005 24.396 141.485 24.392 141.925 24.384C142.365 24.368 142.781 24.348 143.173 24.324C143.573 24.3 143.961 24.264 144.337 24.216C144.713 24.168 145.101 24.108 145.501 24.036L145.609 24.864C145.193 24.936 144.789 24.996 144.397 25.044C144.005 25.092 143.601 25.132 143.185 25.164C142.769 25.188 142.333 25.208 141.877 25.224C141.421 25.232 140.921 25.236 140.377 25.236H139.513V18.144H144.601V18.972H140.485V24.396ZM157.896 22.296V27.888H156.912V17.136H157.896V21.468H159.672V22.296H157.896ZM153.24 20.412C153.24 20.844 153.312 21.28 153.456 21.72C153.6 22.152 153.796 22.564 154.044 22.956C154.3 23.348 154.596 23.704 154.932 24.024C155.268 24.336 155.632 24.584 156.024 24.768L155.46 25.56C155.164 25.408 154.876 25.22 154.596 24.996C154.324 24.764 154.072 24.508 153.84 24.228C153.608 23.94 153.4 23.632 153.216 23.304C153.032 22.968 152.88 22.62 152.76 22.26C152.64 22.652 152.484 23.032 152.292 23.4C152.108 23.76 151.896 24.096 151.656 24.408C151.416 24.712 151.156 24.988 150.876 25.236C150.604 25.476 150.316 25.672 150.012 25.824L149.436 25.044C149.82 24.852 150.184 24.588 150.528 24.252C150.872 23.916 151.172 23.54 151.428 23.124C151.684 22.708 151.888 22.268 152.04 21.804C152.192 21.332 152.268 20.868 152.268 20.412V19.044H149.808V18.228H155.628V19.044H153.24V20.412ZM168.264 24.996V17.136H169.248V24.996H168.264ZM166.284 20.52C166.284 20.912 166.212 21.272 166.068 21.6C165.924 21.92 165.724 22.2 165.468 22.44C165.22 22.672 164.924 22.856 164.58 22.992C164.236 23.12 163.864 23.184 163.464 23.184C163.064 23.184 162.692 23.12 162.348 22.992C162.012 22.856 161.716 22.672 161.46 22.44C161.212 22.2 161.016 21.92 160.872 21.6C160.736 21.272 160.668 20.912 160.668 20.52C160.668 20.136 160.736 19.784 160.872 19.464C161.016 19.136 161.212 18.856 161.46 18.624C161.716 18.384 162.012 18.2 162.348 18.072C162.692 17.944 163.064 17.88 163.464 17.88C163.864 17.88 164.236 17.944 164.58 18.072C164.924 18.2 165.22 18.384 165.468 18.624C165.724 18.856 165.924 19.136 166.068 19.464C166.212 19.784 166.284 20.136 166.284 20.52ZM161.628 20.52C161.628 20.784 161.672 21.028 161.76 21.252C161.856 21.476 161.984 21.668 162.144 21.828C162.312 21.988 162.508 22.112 162.732 22.2C162.956 22.288 163.2 22.332 163.464 22.332C163.728 22.332 163.972 22.288 164.196 22.2C164.428 22.112 164.628 21.988 164.796 21.828C164.964 21.668 165.092 21.476 165.18 21.252C165.276 21.028 165.324 20.784 165.324 20.52C165.324 20.256 165.276 20.016 165.18 19.8C165.092 19.584 164.964 19.396 164.796 19.236C164.628 19.076 164.428 18.952 164.196 18.864C163.972 18.776 163.728 18.732 163.464 18.732C163.2 18.732 162.956 18.776 162.732 18.864C162.508 18.952 162.312 19.076 162.144 19.236C161.984 19.396 161.856 19.584 161.76 19.8C161.672 20.016 161.628 20.256 161.628 20.52ZM169.572 27.648H162.324V24.192H163.308V26.844H169.572V27.648Z" fill="#15181F"/>
<path d="M146.653 248.704V243.136H147.637V248.704H146.653ZM144.841 248.392C144.217 248.176 143.669 247.856 143.197 247.432C142.733 247 142.377 246.496 142.129 245.92C141.897 246.544 141.545 247.088 141.073 247.552C140.601 248.016 140.041 248.364 139.393 248.596L138.889 247.828C139.297 247.684 139.669 247.492 140.005 247.252C140.341 247.012 140.629 246.736 140.869 246.424C141.109 246.112 141.293 245.772 141.421 245.404C141.557 245.036 141.625 244.656 141.625 244.264V243.448H142.609V244.264C142.609 244.632 142.677 244.992 142.813 245.344C142.949 245.688 143.137 246.008 143.377 246.304C143.617 246.6 143.905 246.864 144.241 247.096C144.577 247.32 144.941 247.496 145.333 247.624L144.841 248.392ZM148.009 253.768H140.701V251.092H146.677V250.024H140.677V249.244H147.649V251.836H141.673V252.988H148.009V253.768ZM159.348 249.244H149.604V248.452H152.016V246.94C151.136 246.588 150.696 246.048 150.696 245.32C150.696 245.008 150.784 244.728 150.96 244.48C151.136 244.232 151.388 244.024 151.716 243.856C152.044 243.68 152.44 243.548 152.904 243.46C153.368 243.364 153.892 243.316 154.476 243.316C155.06 243.316 155.584 243.364 156.048 243.46C156.52 243.548 156.916 243.68 157.236 243.856C157.564 244.024 157.816 244.232 157.992 244.48C158.168 244.728 158.256 245.008 158.256 245.32C158.256 245.68 158.14 245.996 157.908 246.268C157.684 246.54 157.364 246.76 156.948 246.928V248.452H159.348V249.244ZM151.704 245.32C151.704 245.704 151.948 246.008 152.436 246.232C152.924 246.448 153.604 246.556 154.476 246.556C155.348 246.556 156.028 246.448 156.516 246.232C157.004 246.008 157.248 245.704 157.248 245.32C157.248 244.928 157.004 244.624 156.516 244.408C156.028 244.192 155.348 244.084 154.476 244.084C153.604 244.084 152.924 244.192 152.436 244.408C151.948 244.624 151.704 244.928 151.704 245.32ZM155.976 248.452V247.192C155.768 247.232 155.536 247.264 155.28 247.288C155.032 247.304 154.764 247.312 154.476 247.312C154.204 247.312 153.944 247.304 153.696 247.288C153.448 247.264 153.212 247.232 152.988 247.192V248.452H155.976ZM154.476 250.048C155.636 250.048 156.54 250.216 157.188 250.552C157.836 250.88 158.16 251.352 158.16 251.968C158.16 252.584 157.836 253.056 157.188 253.384C156.54 253.712 155.636 253.876 154.476 253.876C153.324 253.876 152.42 253.712 151.764 253.384C151.116 253.056 150.792 252.584 150.792 251.968C150.792 251.352 151.116 250.88 151.764 250.552C152.42 250.216 153.324 250.048 154.476 250.048ZM154.476 253.12C155.324 253.12 155.984 253.02 156.456 252.82C156.928 252.62 157.164 252.336 157.164 251.968C157.164 251.6 156.928 251.316 156.456 251.116C155.984 250.916 155.324 250.816 154.476 250.816C153.628 250.816 152.968 250.916 152.496 251.116C152.024 251.316 151.788 251.6 151.788 251.968C151.788 252.336 152.024 252.62 152.496 252.82C152.968 253.02 153.628 253.12 154.476 253.12ZM165.948 246.22V245.416H168.288V243.136H169.284V249.496H168.288V246.22H165.948ZM166.2 248.992C165.6 248.768 165.08 248.452 164.64 248.044C164.208 247.628 163.876 247.14 163.644 246.58C163.412 247.228 163.06 247.784 162.588 248.248C162.124 248.712 161.568 249.068 160.92 249.316L160.404 248.512C160.82 248.368 161.196 248.172 161.532 247.924C161.868 247.676 162.152 247.392 162.384 247.072C162.624 246.752 162.808 246.404 162.936 246.028C163.064 245.644 163.128 245.248 163.128 244.84V243.736H164.112V244.804C164.112 245.188 164.172 245.556 164.292 245.908C164.42 246.26 164.596 246.584 164.82 246.88C165.052 247.176 165.328 247.44 165.648 247.672C165.976 247.904 166.336 248.088 166.728 248.224L166.2 248.992ZM165.732 249.82C166.284 249.82 166.78 249.864 167.22 249.952C167.66 250.04 168.036 250.172 168.348 250.348C168.66 250.524 168.896 250.736 169.056 250.984C169.224 251.232 169.308 251.52 169.308 251.848C169.308 252.168 169.224 252.456 169.056 252.712C168.896 252.96 168.66 253.168 168.348 253.336C168.036 253.512 167.66 253.644 167.22 253.732C166.78 253.828 166.284 253.876 165.732 253.876C165.18 253.876 164.68 253.828 164.232 253.732C163.792 253.644 163.416 253.512 163.104 253.336C162.8 253.168 162.564 252.96 162.396 252.712C162.228 252.456 162.144 252.168 162.144 251.848C162.144 251.52 162.228 251.232 162.396 250.984C162.564 250.736 162.8 250.524 163.104 250.348C163.416 250.172 163.792 250.04 164.232 249.952C164.68 249.864 165.18 249.82 165.732 249.82ZM165.732 253.096C166.556 253.096 167.196 252.988 167.652 252.772C168.108 252.548 168.336 252.24 168.336 251.848C168.336 251.44 168.108 251.128 167.652 250.912C167.196 250.696 166.556 250.588 165.732 250.588C164.908 250.588 164.268 250.696 163.812 250.912C163.356 251.128 163.128 251.44 163.128 251.848C163.128 252.24 163.356 252.548 163.812 252.772C164.268 252.988 164.908 253.096 165.732 253.096Z" fill="#15181F"/>
<path d="M259.444 92.9H258.46V82.124H259.444V92.9ZM252.22 85.88H255.34V83.036H256.312V90.296H251.248V83.036H252.22V85.88ZM255.34 89.492V86.66H252.22V89.492H255.34ZM271.167 88.244H261.423V87.452H263.835V85.94C262.955 85.588 262.515 85.048 262.515 84.32C262.515 84.008 262.603 83.728 262.779 83.48C262.955 83.232 263.207 83.024 263.535 82.856C263.863 82.68 264.259 82.548 264.723 82.46C265.187 82.364 265.711 82.316 266.295 82.316C266.879 82.316 267.403 82.364 267.867 82.46C268.339 82.548 268.735 82.68 269.055 82.856C269.383 83.024 269.635 83.232 269.811 83.48C269.987 83.728 270.075 84.008 270.075 84.32C270.075 84.68 269.959 84.996 269.727 85.268C269.503 85.54 269.183 85.76 268.767 85.928V87.452H271.167V88.244ZM263.523 84.32C263.523 84.704 263.767 85.008 264.255 85.232C264.743 85.448 265.423 85.556 266.295 85.556C267.167 85.556 267.847 85.448 268.335 85.232C268.823 85.008 269.067 84.704 269.067 84.32C269.067 83.928 268.823 83.624 268.335 83.408C267.847 83.192 267.167 83.084 266.295 83.084C265.423 83.084 264.743 83.192 264.255 83.408C263.767 83.624 263.523 83.928 263.523 84.32ZM267.795 87.452V86.192C267.587 86.232 267.355 86.264 267.099 86.288C266.851 86.304 266.583 86.312 266.295 86.312C266.023 86.312 265.763 86.304 265.515 86.288C265.267 86.264 265.031 86.232 264.807 86.192V87.452H267.795ZM266.295 89.048C267.455 89.048 268.359 89.216 269.007 89.552C269.655 89.88 269.979 90.352 269.979 90.968C269.979 91.584 269.655 92.056 269.007 92.384C268.359 92.712 267.455 92.876 266.295 92.876C265.143 92.876 264.239 92.712 263.583 92.384C262.935 92.056 262.611 91.584 262.611 90.968C262.611 90.352 262.935 89.88 263.583 89.552C264.239 89.216 265.143 89.048 266.295 89.048ZM266.295 92.12C267.143 92.12 267.803 92.02 268.275 91.82C268.747 91.62 268.983 91.336 268.983 90.968C268.983 90.6 268.747 90.316 268.275 90.116C267.803 89.916 267.143 89.816 266.295 89.816C265.447 89.816 264.787 89.916 264.315 90.116C263.843 90.316 263.607 90.6 263.607 90.968C263.607 91.336 263.843 91.62 264.315 91.82C264.787 92.02 265.447 92.12 266.295 92.12ZM272.714 84.512V83.708H276.614V82.292H277.598V83.708H281.45V84.512H272.714ZM281.99 91.652H272.234V90.848H274.802V88.856C273.978 88.512 273.566 87.972 273.566 87.236C273.566 86.908 273.646 86.62 273.806 86.372C273.974 86.124 274.21 85.916 274.514 85.748C274.826 85.572 275.198 85.44 275.63 85.352C276.07 85.264 276.562 85.22 277.106 85.22C277.642 85.22 278.126 85.264 278.558 85.352C278.99 85.44 279.358 85.572 279.662 85.748C279.966 85.916 280.198 86.124 280.358 86.372C280.526 86.62 280.61 86.908 280.61 87.236C280.61 87.604 280.502 87.924 280.286 88.196C280.078 88.468 279.778 88.688 279.386 88.856V90.848H281.99V91.652ZM277.106 85.988C276.306 85.988 275.682 86.1 275.234 86.324C274.786 86.54 274.562 86.844 274.562 87.236C274.562 87.62 274.786 87.924 275.234 88.148C275.682 88.364 276.306 88.472 277.106 88.472C277.882 88.472 278.494 88.364 278.942 88.148C279.39 87.924 279.614 87.62 279.614 87.236C279.614 86.844 279.39 86.54 278.942 86.324C278.494 86.1 277.882 85.988 277.106 85.988ZM278.414 90.848V89.132C278.03 89.204 277.594 89.24 277.106 89.24C276.618 89.24 276.174 89.204 275.774 89.132V90.848H278.414ZM287.893 85.976C286.709 85.976 285.781 85.82 285.109 85.508C284.445 85.188 284.113 84.724 284.113 84.116C284.113 83.508 284.445 83.044 285.109 82.724C285.781 82.404 286.709 82.244 287.893 82.244C289.109 82.244 290.041 82.404 290.689 82.724C291.345 83.044 291.673 83.508 291.673 84.116C291.673 84.724 291.345 85.188 290.689 85.508C290.041 85.82 289.109 85.976 287.893 85.976ZM287.893 82.988C286.997 82.988 286.309 83.088 285.829 83.288C285.357 83.48 285.121 83.756 285.121 84.116C285.121 84.476 285.357 84.756 285.829 84.956C286.309 85.148 286.997 85.244 287.893 85.244C288.789 85.244 289.473 85.148 289.945 84.956C290.425 84.756 290.665 84.476 290.665 84.116C290.665 83.756 290.425 83.48 289.945 83.288C289.473 83.088 288.789 82.988 287.893 82.988ZM290.065 88.484H291.517V90.908H285.193V92H291.841V92.768H284.233V90.188H290.545V89.228H284.209V88.484H285.673V87.416H283.033V86.624H292.753V87.416H290.065V88.484ZM286.645 87.416V88.484H289.093V87.416H286.645Z" fill="#15181F"/>
<path d="M30.6654 90.08V82.136H31.6494V90.08H30.6654ZM28.9734 88.58C28.3494 88.38 27.8014 88.076 27.3294 87.668C26.8574 87.26 26.4974 86.78 26.2494 86.228C26.0174 86.828 25.6654 87.352 25.1934 87.8C24.7294 88.24 24.1734 88.568 23.5254 88.784L23.0454 88.016C23.4454 87.888 23.8094 87.712 24.1374 87.488C24.4734 87.256 24.7574 86.992 24.9894 86.696C25.2294 86.392 25.4134 86.064 25.5414 85.712C25.6774 85.36 25.7454 85 25.7454 84.632V84.356H23.2974V83.564H25.7454V82.184H26.7294V83.564H29.1534V84.356H26.7174V84.632C26.7174 84.976 26.7854 85.316 26.9214 85.652C27.0574 85.98 27.2454 86.284 27.4854 86.564C27.7254 86.844 28.0134 87.092 28.3494 87.308C28.6854 87.524 29.0494 87.692 29.4414 87.812L28.9734 88.58ZM31.9734 92.648H24.7254V89.348H25.7094V91.844H31.9734V92.648ZM33.8325 83.912V83.18H36.4365V82.088H37.4205V83.18H40.0125V83.912H33.8325ZM43.5405 86.696H41.9565V90.548H40.9725V82.124H41.9565V85.88H43.5405V86.696ZM40.4085 88.844C39.8405 88.948 39.2565 89.032 38.6565 89.096C38.0645 89.16 37.4765 89.208 36.8925 89.24C36.3085 89.272 35.7445 89.292 35.2005 89.3C34.6565 89.308 34.1485 89.312 33.6765 89.312L33.5685 88.52C34.0005 88.52 34.4525 88.516 34.9245 88.508C35.4045 88.5 35.9085 88.488 36.4365 88.472V87.656C35.8125 87.592 35.3165 87.42 34.9485 87.14C34.5885 86.852 34.4085 86.476 34.4085 86.012C34.4085 85.756 34.4685 85.528 34.5885 85.328C34.7085 85.12 34.8765 84.948 35.0925 84.812C35.3165 84.668 35.5845 84.56 35.8965 84.488C36.2085 84.408 36.5525 84.368 36.9285 84.368C37.3045 84.368 37.6445 84.408 37.9485 84.488C38.2605 84.56 38.5245 84.668 38.7405 84.812C38.9645 84.948 39.1365 85.12 39.2565 85.328C39.3765 85.528 39.4365 85.756 39.4365 86.012C39.4365 86.476 39.2565 86.852 38.8965 87.14C38.5365 87.42 38.0445 87.592 37.4205 87.656V88.424C37.9245 88.4 38.4205 88.368 38.9085 88.328C39.3965 88.28 39.8725 88.216 40.3365 88.136L40.4085 88.844ZM35.3445 86.012C35.3445 86.316 35.4845 86.552 35.7645 86.72C36.0525 86.888 36.4405 86.972 36.9285 86.972C37.4085 86.972 37.7885 86.888 38.0685 86.72C38.3565 86.552 38.5005 86.316 38.5005 86.012C38.5005 85.724 38.3565 85.496 38.0685 85.328C37.7885 85.152 37.4085 85.064 36.9285 85.064C36.4405 85.064 36.0525 85.152 35.7645 85.328C35.4845 85.496 35.3445 85.724 35.3445 86.012ZM42.3405 91.844V92.648H35.1525V89.996H36.1365V91.844H42.3405ZM49.5995 84.908C48.8715 86.66 47.3235 87.88 44.9555 88.568L44.5595 87.788C45.8635 87.404 46.8875 86.868 47.6315 86.18C48.3835 85.492 48.8075 84.676 48.9035 83.732H45.1115V82.94H49.9715C49.9715 83.14 49.9595 83.34 49.9355 83.54C49.9195 83.732 49.8915 83.92 49.8515 84.104H52.2875V82.136H53.2835V88.568H52.2875V87.152H49.4675V86.348H52.2875V84.908H49.5995ZM49.7675 88.688C50.3115 88.688 50.8035 88.736 51.2435 88.832C51.6835 88.928 52.0555 89.064 52.3595 89.24C52.6715 89.416 52.9115 89.632 53.0795 89.888C53.2475 90.144 53.3315 90.436 53.3315 90.764C53.3315 91.084 53.2475 91.376 53.0795 91.64C52.9115 91.896 52.6715 92.112 52.3595 92.288C52.0555 92.464 51.6835 92.6 51.2435 92.696C50.8035 92.792 50.3115 92.84 49.7675 92.84C49.2235 92.84 48.7315 92.792 48.2915 92.696C47.8515 92.6 47.4755 92.464 47.1635 92.288C46.8595 92.112 46.6235 91.896 46.4555 91.64C46.2875 91.376 46.2035 91.084 46.2035 90.764C46.2035 90.436 46.2875 90.144 46.4555 89.888C46.6235 89.632 46.8595 89.416 47.1635 89.24C47.4755 89.064 47.8515 88.928 48.2915 88.832C48.7315 88.736 49.2235 88.688 49.7675 88.688ZM49.7675 92.072C50.5595 92.072 51.1875 91.956 51.6515 91.724C52.1235 91.492 52.3595 91.172 52.3595 90.764C52.3595 90.356 52.1275 90.04 51.6635 89.816C51.1995 89.584 50.5675 89.468 49.7675 89.468C48.9675 89.468 48.3355 89.584 47.8715 89.816C47.4075 90.04 47.1755 90.356 47.1755 90.764C47.1755 91.172 47.4075 91.492 47.8715 91.724C48.3435 91.956 48.9755 92.072 49.7675 92.072Z" fill="#15181F"/>
<path d="M251.506 181.576C251.978 181.504 252.434 181.38 252.874 181.204C253.322 181.02 253.722 180.8 254.074 180.544C254.426 180.28 254.706 179.988 254.914 179.668C255.13 179.34 255.238 179 255.238 178.648V178.588H251.842V177.796H259.702V178.588H256.33V178.648C256.33 179 256.434 179.34 256.642 179.668C256.858 179.988 257.142 180.28 257.494 180.544C257.846 180.8 258.246 181.02 258.694 181.204C259.15 181.38 259.614 181.504 260.086 181.576L259.702 182.356C259.286 182.284 258.878 182.176 258.478 182.032C258.078 181.888 257.706 181.712 257.362 181.504C257.018 181.288 256.71 181.048 256.438 180.784C256.166 180.512 255.95 180.216 255.79 179.896C255.622 180.216 255.402 180.512 255.13 180.784C254.858 181.048 254.55 181.288 254.206 181.504C253.87 181.712 253.502 181.888 253.102 182.032C252.71 182.176 252.302 182.284 251.878 182.356L251.506 181.576ZM256.258 184.06V187.888H255.274V184.06H250.93V183.256H260.65L260.662 184.06H256.258ZM267.549 183.556V177.34H268.485V180.052H269.853V177.124H270.801V183.94H269.853V180.856H268.485V183.556H267.549ZM261.657 179.188V178.408H263.913V177.208H264.885V178.408H267.129V179.188H261.657ZM266.697 181.588C266.697 181.868 266.641 182.124 266.529 182.356C266.417 182.58 266.261 182.772 266.061 182.932C265.861 183.092 265.617 183.216 265.329 183.304C265.049 183.392 264.741 183.436 264.405 183.436C264.069 183.436 263.757 183.392 263.469 183.304C263.189 183.216 262.945 183.092 262.737 182.932C262.537 182.772 262.381 182.58 262.269 182.356C262.157 182.124 262.101 181.868 262.101 181.588C262.101 181.308 262.157 181.056 262.269 180.832C262.381 180.608 262.537 180.416 262.737 180.256C262.945 180.096 263.189 179.972 263.469 179.884C263.757 179.796 264.069 179.752 264.405 179.752C264.741 179.752 265.049 179.796 265.329 179.884C265.617 179.972 265.861 180.096 266.061 180.256C266.261 180.416 266.417 180.608 266.529 180.832C266.641 181.056 266.697 181.308 266.697 181.588ZM262.989 181.588C262.989 181.924 263.117 182.196 263.373 182.404C263.629 182.604 263.973 182.704 264.405 182.704C264.837 182.704 265.181 182.604 265.437 182.404C265.693 182.196 265.821 181.924 265.821 181.588C265.821 181.252 265.693 180.984 265.437 180.784C265.181 180.584 264.837 180.484 264.405 180.484C263.973 180.484 263.629 180.584 263.373 180.784C263.117 180.984 262.989 181.252 262.989 181.588ZM267.261 184.12C267.821 184.12 268.321 184.164 268.761 184.252C269.209 184.332 269.589 184.452 269.901 184.612C270.213 184.772 270.449 184.968 270.609 185.2C270.777 185.432 270.861 185.7 270.861 186.004C270.861 186.3 270.777 186.568 270.609 186.808C270.449 187.04 270.213 187.232 269.901 187.384C269.589 187.544 269.209 187.664 268.761 187.744C268.321 187.832 267.821 187.876 267.261 187.876C266.701 187.876 266.197 187.832 265.749 187.744C265.309 187.664 264.933 187.544 264.621 187.384C264.309 187.232 264.069 187.04 263.901 186.808C263.741 186.568 263.661 186.3 263.661 186.004C263.661 185.7 263.741 185.432 263.901 185.2C264.069 184.968 264.309 184.772 264.621 184.612C264.933 184.452 265.309 184.332 265.749 184.252C266.197 184.164 266.701 184.12 267.261 184.12ZM267.261 187.12C268.085 187.12 268.725 187.024 269.181 186.832C269.645 186.64 269.877 186.364 269.877 186.004C269.877 185.644 269.645 185.368 269.181 185.176C268.725 184.976 268.085 184.876 267.261 184.876C266.437 184.876 265.793 184.976 265.329 185.176C264.865 185.368 264.633 185.644 264.633 186.004C264.633 186.364 264.865 186.64 265.329 186.832C265.793 187.024 266.437 187.12 267.261 187.12ZM278.048 180.22V179.416H280.388V177.136H281.384V183.496H280.388V180.22H278.048ZM278.3 182.992C277.7 182.768 277.18 182.452 276.74 182.044C276.308 181.628 275.976 181.14 275.744 180.58C275.512 181.228 275.16 181.784 274.688 182.248C274.224 182.712 273.668 183.068 273.02 183.316L272.504 182.512C272.92 182.368 273.296 182.172 273.632 181.924C273.968 181.676 274.252 181.392 274.484 181.072C274.724 180.752 274.908 180.404 275.036 180.028C275.164 179.644 275.228 179.248 275.228 178.84V177.736H276.212V178.804C276.212 179.188 276.272 179.556 276.392 179.908C276.52 180.26 276.696 180.584 276.92 180.88C277.152 181.176 277.428 181.44 277.748 181.672C278.076 181.904 278.436 182.088 278.828 182.224L278.3 182.992ZM277.832 183.82C278.384 183.82 278.88 183.864 279.32 183.952C279.76 184.04 280.136 184.172 280.448 184.348C280.76 184.524 280.996 184.736 281.156 184.984C281.324 185.232 281.408 185.52 281.408 185.848C281.408 186.168 281.324 186.456 281.156 186.712C280.996 186.96 280.76 187.168 280.448 187.336C280.136 187.512 279.76 187.644 279.32 187.732C278.88 187.828 278.384 187.876 277.832 187.876C277.28 187.876 276.78 187.828 276.332 187.732C275.892 187.644 275.516 187.512 275.204 187.336C274.9 187.168 274.664 186.96 274.496 186.712C274.328 186.456 274.244 186.168 274.244 185.848C274.244 185.52 274.328 185.232 274.496 184.984C274.664 184.736 274.9 184.524 275.204 184.348C275.516 184.172 275.892 184.04 276.332 183.952C276.78 183.864 277.28 183.82 277.832 183.82ZM277.832 187.096C278.656 187.096 279.296 186.988 279.752 186.772C280.208 186.548 280.436 186.24 280.436 185.848C280.436 185.44 280.208 185.128 279.752 184.912C279.296 184.696 278.656 184.588 277.832 184.588C277.008 184.588 276.368 184.696 275.912 184.912C275.456 185.128 275.228 185.44 275.228 185.848C275.228 186.24 275.456 186.548 275.912 186.772C276.368 186.988 277.008 187.096 277.832 187.096ZM284.635 180.916V177.352H285.619V180.124H291.943V180.916H284.635ZM293.059 182.968H283.327V182.164H293.059V182.968ZM288.175 183.928C288.751 183.928 289.263 183.972 289.711 184.06C290.167 184.148 290.555 184.276 290.875 184.444C291.195 184.612 291.439 184.82 291.607 185.068C291.775 185.308 291.859 185.584 291.859 185.896C291.859 186.208 291.775 186.488 291.607 186.736C291.439 186.976 291.195 187.176 290.875 187.336C290.555 187.504 290.167 187.632 289.711 187.72C289.263 187.808 288.751 187.852 288.175 187.852C287.599 187.852 287.083 187.808 286.627 187.72C286.179 187.632 285.795 187.504 285.475 187.336C285.155 187.176 284.911 186.976 284.743 186.736C284.575 186.488 284.491 186.208 284.491 185.896C284.491 185.584 284.575 185.308 284.743 185.068C284.911 184.82 285.155 184.612 285.475 184.444C285.795 184.276 286.179 184.148 286.627 184.06C287.083 183.972 287.599 183.928 288.175 183.928ZM288.175 187.084C289.023 187.084 289.683 186.984 290.155 186.784C290.627 186.576 290.863 186.28 290.863 185.896C290.863 185.512 290.627 185.216 290.155 185.008C289.683 184.8 289.023 184.696 288.175 184.696C287.327 184.696 286.667 184.8 286.195 185.008C285.723 185.216 285.487 185.512 285.487 185.896C285.487 186.28 285.723 186.576 286.195 186.784C286.667 186.984 287.327 187.084 288.175 187.084Z" fill="#15181F"/>
<path d="M27.1478 181.216H25.5518V185.044H24.5678V177.124H25.5518V180.4H27.1478V181.216ZM23.0198 180.532C23.0198 180.924 22.9478 181.284 22.8038 181.612C22.6678 181.932 22.4718 182.212 22.2158 182.452C21.9678 182.684 21.6718 182.864 21.3278 182.992C20.9838 183.12 20.6118 183.184 20.2118 183.184C19.8118 183.184 19.4398 183.12 19.0958 182.992C18.7518 182.864 18.4518 182.684 18.1958 182.452C17.9478 182.212 17.7518 181.932 17.6078 181.612C17.4718 181.284 17.4038 180.924 17.4038 180.532C17.4038 180.14 17.4718 179.784 17.6078 179.464C17.7518 179.136 17.9478 178.856 18.1958 178.624C18.4518 178.384 18.7518 178.2 19.0958 178.072C19.4398 177.944 19.8118 177.88 20.2118 177.88C20.6118 177.88 20.9838 177.944 21.3278 178.072C21.6718 178.2 21.9678 178.384 22.2158 178.624C22.4718 178.856 22.6678 179.136 22.8038 179.464C22.9478 179.784 23.0198 180.14 23.0198 180.532ZM18.3638 180.532C18.3638 180.796 18.4078 181.04 18.4958 181.264C18.5918 181.48 18.7238 181.668 18.8918 181.828C19.0598 181.988 19.2558 182.112 19.4798 182.2C19.7038 182.288 19.9478 182.332 20.2118 182.332C20.4758 182.332 20.7198 182.288 20.9438 182.2C21.1678 182.112 21.3638 181.988 21.5318 181.828C21.6998 181.668 21.8278 181.48 21.9158 181.264C22.0118 181.04 22.0598 180.796 22.0598 180.532C22.0598 180.268 22.0118 180.028 21.9158 179.812C21.8278 179.588 21.6998 179.396 21.5318 179.236C21.3638 179.076 21.1678 178.952 20.9438 178.864C20.7198 178.776 20.4758 178.732 20.2118 178.732C19.9478 178.732 19.7038 178.776 19.4798 178.864C19.2558 178.952 19.0598 179.076 18.8918 179.236C18.7238 179.396 18.5918 179.588 18.4958 179.812C18.4078 180.028 18.3638 180.268 18.3638 180.532ZM26.0318 186.844V187.648H18.8558V184.24H19.8398V186.844H26.0318ZM35.8708 177.136H36.8668V185.02H35.8708V180.904H33.7108V180.1H35.8708V177.136ZM33.8548 183.4C33.2548 183.184 32.7308 182.864 32.2828 182.44C31.8348 182.008 31.4948 181.516 31.2628 180.964C31.0308 181.588 30.6788 182.132 30.2068 182.596C29.7348 183.06 29.1828 183.408 28.5508 183.64L28.0348 182.872C28.4348 182.728 28.7988 182.536 29.1268 182.296C29.4628 182.048 29.7508 181.772 29.9908 181.468C30.2308 181.156 30.4148 180.82 30.5428 180.46C30.6788 180.1 30.7468 179.728 30.7468 179.344V178.804H28.3468V178H34.0948V178.804H31.7308V179.332C31.7308 179.676 31.7948 180.02 31.9228 180.364C32.0508 180.7 32.2268 181.016 32.4508 181.312C32.6828 181.6 32.9588 181.86 33.2788 182.092C33.5988 182.316 33.9548 182.496 34.3468 182.632L33.8548 183.4ZM37.1668 187.648H29.9788V184.324H30.9748V186.844H37.1668V187.648ZM47.6299 187.888H46.6459V177.124H47.6299V187.888ZM44.4739 178.288C44.4739 179.064 44.3819 179.816 44.1979 180.544C44.0139 181.264 43.7179 181.948 43.3099 182.596C42.9099 183.236 42.3939 183.836 41.7619 184.396C41.1299 184.948 40.3659 185.444 39.4699 185.884L38.9419 185.08C40.3899 184.392 41.4819 183.54 42.2179 182.524C42.9539 181.508 43.3739 180.36 43.4779 179.08H39.4339V178.288H44.4739ZM58.4649 180.904C58.0409 180.848 57.6249 180.76 57.2169 180.64C56.8089 180.52 56.4289 180.372 56.0769 180.196C55.7249 180.012 55.4089 179.804 55.1289 179.572C54.8489 179.332 54.6249 179.068 54.4569 178.78C54.2889 179.068 54.0649 179.332 53.7849 179.572C53.5129 179.804 53.2009 180.012 52.8489 180.196C52.4969 180.372 52.1169 180.52 51.7089 180.64C51.3009 180.76 50.8809 180.848 50.4489 180.904L50.1129 180.16C50.6089 180.104 51.0849 180 51.5409 179.848C52.0049 179.696 52.4169 179.508 52.7769 179.284C53.1369 179.052 53.4249 178.792 53.6409 178.504C53.8569 178.216 53.9649 177.908 53.9649 177.58V177.172H54.9729V177.58C54.9729 177.908 55.0809 178.216 55.2969 178.504C55.5129 178.792 55.7969 179.052 56.1489 179.284C56.5089 179.508 56.9169 179.696 57.3729 179.848C57.8369 180 58.3129 180.104 58.8009 180.16L58.4649 180.904ZM54.9489 183.472H58.0809V185.932H51.7569V187H58.4049V187.768H50.7969V185.212H57.1089V184.228H50.7609V183.472H53.9649V182.404H49.5849V181.612H59.3289V182.404H54.9489V183.472Z" fill="#15181F"/>
<path d="M155 38L239.87 87V185L155 234L70.1295 185V87L155 38Z" stroke="#143B75" stroke-opacity="0.08" stroke-width="2"/>
<path d="M155 57.8481L222.681 96.9241V175.076L155 214.152L87.318 175.076V96.9241L155 57.8481Z" stroke="#143B75" stroke-opacity="0.08" stroke-width="2"/>
<path d="M155 77.6963L205.493 106.848V165.152L155 194.304L104.508 165.152V106.848L155 77.6963Z" stroke="#143B75" stroke-opacity="0.08" stroke-width="2"/>
<path d="M155 97.5444L188.303 116.772V155.228L155 174.456L121.696 155.228V116.772L155 97.5444Z" stroke="#143B75" stroke-opacity="0.08" stroke-width="2"/>
<path d="M154.999 117.393L171.114 126.696V145.304L154.999 154.608L138.885 145.304V126.696L154.999 117.393Z" stroke="#143B75" stroke-opacity="0.08" stroke-width="2"/>
<line x1="240.818" y1="87.2894" x2="71.0767" y2="185.289" stroke="#143B75" stroke-opacity="0.08" stroke-width="2"/>
<line x1="239.818" y1="185.289" x2="70.0767" y2="87.2894" stroke="#143B75" stroke-opacity="0.08" stroke-width="2"/>
<line x1="154.847" y1="38" x2="154.847" y2="234" stroke="#143B75" stroke-opacity="0.08" stroke-width="2"/>
<path d="M85.532 175.697L102.279 105.608L154.031 40.9183L197.798 109.95L231.912 180.038L154.38 196.165L85.532 175.697Z" fill="#20C7BF" fill-opacity="0.2"/>
<path d="M154.38 40.4814L154.031 40.9183M154.031 40.9183L102.279 105.608L85.532 175.697L154.38 196.165L231.912 180.038L197.798 109.95L154.031 40.9183Z" stroke="#20C7BF" stroke-width="2"/>
</svg>
