<svg width="24" height="24" viewBox="0 0 24 24" fill="none" xmlns="http://www.w3.org/2000/svg">
<path d="M13.5 20.5H10.5C9.94772 20.5 9.5 20.9477 9.5 21.5C9.5 22.0523 9.94772 22.5 10.5 22.5H13.5C14.0523 22.5 14.5 22.0523 14.5 21.5C14.5 20.9477 14.0523 20.5 13.5 20.5Z" fill="#111111"/>
<path d="M13.5 3C13.5 2.17157 12.8284 1.5 12 1.5C11.1716 1.5 10.5 2.17157 10.5 3C10.5 3.82843 11.1716 4.5 12 4.5C12.8284 4.5 13.5 3.82843 13.5 3Z" fill="#111111"/>
<path fill-rule="evenodd" clip-rule="evenodd" d="M12 5C10.5794 5 9.2179 5.56185 8.21475 6.56053C7.21175 7.55905 6.64908 8.91239 6.64908 10.3226V15.0194C6.64908 15.2688 6.55585 15.5093 6.38767 15.6935L5.19523 16.9999L18.8046 16.9992L17.6125 15.6937C17.4442 15.5094 17.3509 15.2689 17.3509 15.0194V10.3226C17.3509 8.91239 16.7883 7.55905 15.7853 6.56053C14.7821 5.56185 13.4206 5 12 5ZM6.8037 5.14315C8.1826 3.7704 10.0519 3 12 3C13.9481 3 15.8174 3.7704 17.1963 5.14315C18.5754 6.51606 19.3509 8.37906 19.3509 10.3226V14.6315L21.1208 16.5697C21.3103 16.7776 21.4361 17.037 21.4813 17.3153C21.5264 17.5937 21.4894 17.879 21.375 18.1365C21.2605 18.3939 21.0738 18.6121 20.838 18.7649C20.6024 18.9178 20.3276 18.9989 20.0472 18.9991L3.95344 19C3.67298 18.9998 3.39764 18.9187 3.16196 18.7658C2.92624 18.613 2.73949 18.3948 2.62504 18.1374C2.51057 17.8799 2.47355 17.5946 2.51871 17.3163C2.56386 17.0379 2.68912 16.7792 2.87864 16.5713L4.64908 14.6316V10.3226C4.64908 8.37906 5.42464 6.51606 6.8037 5.14315Z" fill="#111111"/>
</svg>
