<svg width="28" height="28" viewBox="0 0 28 28" fill="none" xmlns="http://www.w3.org/2000/svg">
<path d="M14 28C21.732 28 28 21.732 28 14C28 6.26801 21.732 0 14 0C6.26801 0 0 6.26801 0 14C0 21.732 6.26801 28 14 28Z" fill="#BDBDBD"/>
<path d="M17.698 14.9432L18.139 12.0691H15.382V10.2041C15.3627 9.98951 15.392 9.7733 15.4676 9.5715C15.5432 9.3697 15.6633 9.18749 15.8188 9.03836C15.9744 8.88923 16.1615 8.777 16.3663 8.70997C16.5711 8.64295 16.7884 8.62284 17.002 8.65115H18.25V6.20414C17.5141 6.0853 16.7704 6.02046 16.025 6.01014C15.5121 5.97105 14.9969 6.04525 14.5158 6.22746C14.0348 6.40967 13.5997 6.69543 13.2414 7.06451C12.8831 7.43359 12.6103 7.87697 12.4425 8.3632C12.2746 8.84943 12.2157 9.36663 12.27 9.87815V12.0682H9.75V14.9422H12.274V21.8892C13.3034 22.0502 14.3516 22.0502 15.381 21.8892V14.9422L17.698 14.9432Z" fill="#F3F3F3"/>
</svg>
