<svg width="24" height="24" viewBox="0 0 24 24" fill="none" xmlns="http://www.w3.org/2000/svg">
<path fill-rule="evenodd" clip-rule="evenodd" d="M9.25 4.75H4.75L4.75 9.25H9.25V4.75ZM4.75 2.75C3.64543 2.75 2.75 3.64543 2.75 4.75V9.25C2.75 10.3546 3.64543 11.25 4.75 11.25H9.25C10.3546 11.25 11.25 10.3546 11.25 9.25V4.75C11.25 3.64543 10.3546 2.75 9.25 2.75H4.75Z" fill="white"/>
<path fill-rule="evenodd" clip-rule="evenodd" d="M9.25 14.75H4.75L4.75 19.25H9.25V14.75ZM4.75 12.75C3.64543 12.75 2.75 13.6454 2.75 14.75V19.25C2.75 20.3546 3.64543 21.25 4.75 21.25H9.25C10.3546 21.25 11.25 20.3546 11.25 19.25V14.75C11.25 13.6454 10.3546 12.75 9.25 12.75H4.75Z" fill="white"/>
<path fill-rule="evenodd" clip-rule="evenodd" d="M19.25 4.75H14.75L14.75 9.25H19.25V4.75ZM14.75 2.75C13.6454 2.75 12.75 3.64543 12.75 4.75V9.25C12.75 10.3546 13.6454 11.25 14.75 11.25H19.25C20.3546 11.25 21.25 10.3546 21.25 9.25V4.75C21.25 3.64543 20.3546 2.75 19.25 2.75H14.75Z" fill="white"/>
<path fill-rule="evenodd" clip-rule="evenodd" d="M19.25 14.75H14.75L14.75 19.25H19.25V14.75ZM14.75 12.75C13.6454 12.75 12.75 13.6454 12.75 14.75V19.25C12.75 20.3546 13.6454 21.25 14.75 21.25H19.25C20.3546 21.25 21.25 20.3546 21.25 19.25V14.75C21.25 13.6454 20.3546 12.75 19.25 12.75H14.75Z" fill="white"/>
</svg>
