<svg width="28" height="28" viewBox="0 0 28 28" fill="none" xmlns="http://www.w3.org/2000/svg">
<path d="M14 28C21.732 28 28 21.732 28 14C28 6.26801 21.732 0 14 0C6.26801 0 0 6.26801 0 14C0 21.732 6.26801 28 14 28Z" fill="#BDBDBD"/>
<mask id="mask0_358_22588" style="mask-type:alpha" maskUnits="userSpaceOnUse" x="5" y="5" width="18" height="18">
<path d="M23 14C23 18.9706 18.9706 23 14 23C9.02944 23 5 18.9706 5 14C5 9.02944 9.02944 5 14 5C18.9706 5 23 9.02944 23 14Z" fill="#D9D9D9"/>
</mask>
<g mask="url(#mask0_358_22588)">
</g>
<mask id="mask1_358_22588" style="mask-type:alpha" maskUnits="userSpaceOnUse" x="5" y="5" width="18" height="18">
<path fill-rule="evenodd" clip-rule="evenodd" d="M14 21.5C18.1421 21.5 21.5 18.1421 21.5 14C21.5 9.85786 18.1421 6.5 14 6.5C9.85786 6.5 6.5 9.85786 6.5 14C6.5 18.1421 9.85786 21.5 14 21.5ZM14 23C18.9706 23 23 18.9706 23 14C23 9.02944 18.9706 5 14 5C9.02944 5 5 9.02944 5 14C5 18.9706 9.02944 23 14 23Z" fill="#F3F3F3"/>
</mask>
<g mask="url(#mask1_358_22588)">
<path fill-rule="evenodd" clip-rule="evenodd" d="M20.5754 8.32637C22.1671 7.57242 22.5 6.82556 22.5 6.5C22.5 6.17444 22.1671 5.42758 20.5754 4.67363C19.0981 3.97387 16.9518 3.5 14.5 3.5C12.0482 3.5 9.90188 3.97387 8.42462 4.67363C6.83293 5.42758 6.5 6.17444 6.5 6.5C6.5 6.82556 6.83293 7.57242 8.42462 8.32637C9.90188 9.02613 12.0482 9.5 14.5 9.5C16.9518 9.5 19.0981 9.02613 20.5754 8.32637ZM14.5 11C19.7467 11 24 8.98528 24 6.5C24 4.01472 19.7467 2 14.5 2C9.25329 2 5 4.01472 5 6.5C5 8.98528 9.25329 11 14.5 11Z" fill="#F3F3F3"/>
<path fill-rule="evenodd" clip-rule="evenodd" d="M20.5754 23.3264C22.1671 22.5724 22.5 21.8256 22.5 21.5C22.5 21.1744 22.1671 20.4276 20.5754 19.6736C19.0981 18.9739 16.9518 18.5 14.5 18.5C12.0482 18.5 9.90188 18.9739 8.42462 19.6736C6.83293 20.4276 6.5 21.1744 6.5 21.5C6.5 21.8256 6.83293 22.5724 8.42462 23.3264C9.90188 24.0261 12.0482 24.5 14.5 24.5C16.9518 24.5 19.0981 24.0261 20.5754 23.3264ZM14.5 26C19.7467 26 24 23.9853 24 21.5C24 19.0147 19.7467 17 14.5 17C9.25329 17 5 19.0147 5 21.5C5 23.9853 9.25329 26 14.5 26Z" fill="#F3F3F3"/>
</g>
<path fill-rule="evenodd" clip-rule="evenodd" d="M14 21.5C18.1421 21.5 21.5 18.1421 21.5 14C21.5 9.85786 18.1421 6.5 14 6.5C9.85786 6.5 6.5 9.85786 6.5 14C6.5 18.1421 9.85786 21.5 14 21.5ZM14 23C18.9706 23 23 18.9706 23 14C23 9.02944 18.9706 5 14 5C9.02944 5 5 9.02944 5 14C5 18.9706 9.02944 23 14 23Z" fill="#F3F3F3"/>
<path fill-rule="evenodd" clip-rule="evenodd" d="M15.8403 19.6931C16.5301 18.3136 17 16.3029 17 14C17 11.6971 16.5301 9.68636 15.8403 8.30686C15.1057 6.83764 14.3684 6.5 14 6.5C13.6316 6.5 12.8943 6.83764 12.1597 8.30686C11.4699 9.68636 11 11.6971 11 14C11 16.3029 11.4699 18.3136 12.1597 19.6931C12.8943 21.1624 13.6316 21.5 14 21.5C14.3684 21.5 15.1057 21.1624 15.8403 19.6931ZM14 23C16.4853 23 18.5 18.9706 18.5 14C18.5 9.02944 16.4853 5 14 5C11.5147 5 9.5 9.02944 9.5 14C9.5 18.9706 11.5147 23 14 23Z" fill="#F3F3F3"/>
<path fill-rule="evenodd" clip-rule="evenodd" d="M22 14.75H5V13.25H22V14.75Z" fill="#F3F3F3"/>
</svg>
