<svg width="24" height="24" viewBox="0 0 24 24" fill="none" xmlns="http://www.w3.org/2000/svg">
<path d="M4 8.99809C4 8.83091 4.08355 8.6748 4.22265 8.58206L11.7226 3.58206C11.8906 3.4701 12.1094 3.4701 12.2774 3.58206L19.7773 8.58206C19.9164 8.6748 20 8.83091 20 8.99809V19.6953C20 19.9715 19.7761 20.1953 19.5 20.1953H4.5C4.22386 20.1953 4 19.9715 4 19.6953V8.99809Z" stroke="#15181F" stroke-width="2"/>
<mask id="path-2-inside-1_4273_43437" fill="white">
<path d="M9 15.6953C9 14.8669 9.67157 14.1953 10.5 14.1953H13.5C14.3284 14.1953 15 14.8669 15 15.6953V21.1953H9V15.6953Z"/>
</mask>
<path d="M9 15.6953C9 14.8669 9.67157 14.1953 10.5 14.1953H13.5C14.3284 14.1953 15 14.8669 15 15.6953V21.1953H9V15.6953Z" stroke="#15181F" stroke-width="4" mask="url(#path-2-inside-1_4273_43437)"/>
</svg>
