<svg width="24" height="24" viewBox="0 0 24 24" fill="none" xmlns="http://www.w3.org/2000/svg">
<path fill-rule="evenodd" clip-rule="evenodd" d="M19 9.2657L12 4.59903L5 9.2657V19.1953H19V9.2657ZM3.66795 7.75003C3.25065 8.02823 3 8.49658 3 8.99811V19.6953C3 20.5238 3.67157 21.1953 4.5 21.1953H19.5C20.3284 21.1953 21 20.5238 21 19.6953V8.99811C21 8.49658 20.7493 8.02823 20.3321 7.75003L12.8321 2.75003C12.3282 2.41413 11.6718 2.41413 11.1679 2.75003L3.66795 7.75003Z" fill="#15181F"/>
<path fill-rule="evenodd" clip-rule="evenodd" d="M11 16.1953V19.1953H13V16.1953H11ZM10.5 14.1953C9.67157 14.1953 9 14.8669 9 15.6953V21.1953H15V15.6953C15 14.8669 14.3284 14.1953 13.5 14.1953H10.5Z" fill="#15181F"/>
</svg>
