<svg width="28" height="28" viewBox="0 0 28 28" fill="none" xmlns="http://www.w3.org/2000/svg">
<path d="M14 28C21.732 28 28 21.732 28 14C28 6.26801 21.732 0 14 0C6.26801 0 0 6.26801 0 14C0 21.732 6.26801 28 14 28Z" fill="#BDBDBD"/>
<path fill-rule="evenodd" clip-rule="evenodd" d="M11.0371 6.9001C8.75231 6.9001 6.9001 8.75231 6.9001 11.0371V16.9631C6.9001 19.2479 8.75231 21.1001 11.0371 21.1001H16.9631C19.2479 21.1001 21.1001 19.2479 21.1001 16.9631V11.0371C21.1001 8.75231 19.2479 6.9001 16.9631 6.9001H11.0371ZM5.1001 11.0371C5.1001 7.7582 7.7582 5.1001 11.0371 5.1001H16.9631C20.242 5.1001 22.9001 7.7582 22.9001 11.0371V16.9631C22.9001 20.242 20.242 22.9001 16.9631 22.9001H11.0371C7.7582 22.9001 5.1001 20.242 5.1001 16.9631V11.0371Z" fill="#F3F3F3"/>
<path fill-rule="evenodd" clip-rule="evenodd" d="M14.0001 11.4001C12.5879 11.4001 11.4001 12.5849 11.4001 14.1001C11.4001 15.6153 12.5879 16.8001 14.0001 16.8001C15.4123 16.8001 16.6001 15.6153 16.6001 14.1001C16.6001 12.5849 15.4123 11.4001 14.0001 11.4001ZM9.6001 14.1001C9.6001 11.6389 11.5463 9.6001 14.0001 9.6001C16.4539 9.6001 18.4001 11.6389 18.4001 14.1001C18.4001 16.5613 16.4539 18.6001 14.0001 18.6001C11.5463 18.6001 9.6001 16.5613 9.6001 14.1001Z" fill="#F3F3F3"/>
<path d="M18.6001 10.6001C19.1524 10.6001 19.6001 10.1524 19.6001 9.6001C19.6001 9.04781 19.1524 8.6001 18.6001 8.6001C18.0478 8.6001 17.6001 9.04781 17.6001 9.6001C17.6001 10.1524 18.0478 10.6001 18.6001 10.6001Z" fill="#F3F3F3"/>
<path fill-rule="evenodd" clip-rule="evenodd" d="M19.6001 9.6001C19.6001 10.1524 19.1524 10.6001 18.6001 10.6001C18.0478 10.6001 17.6001 10.1524 17.6001 9.6001C17.6001 9.04781 18.0478 8.6001 18.6001 8.6001C19.1524 8.6001 19.6001 9.04781 19.6001 9.6001Z" fill="#F3F3F3"/>
</svg>
