<svg width="24" height="24" viewBox="0 0 24 24" fill="none" xmlns="http://www.w3.org/2000/svg">
<path d="M17.3829 21C16.6619 21 16.0459 20.7429 15.5347 20.2286C15.0279 19.7143 14.7701 19.0892 14.7701 18.3576C14.7701 18.2379 14.805 18.003 14.8749 17.6438L8.47843 13.8443C8.22938 14.1015 7.94975 14.301 7.63517 14.4429C7.32059 14.5847 6.97542 14.6601 6.60841 14.6601C5.88312 14.6601 5.26707 14.403 4.76024 13.8842C4.25341 13.3699 4 12.7404 4 12.0044C4 11.2685 4.25341 10.6389 4.76024 10.1246C5.26707 9.61034 5.88312 9.34877 6.60841 9.34877C6.96668 9.34877 7.29874 9.4197 7.61333 9.55271C7.92791 9.69015 8.20317 9.88079 8.44784 10.1246L14.8706 6.37832C14.8443 6.26305 14.8225 6.14335 14.8007 6.02364C14.7788 5.89951 14.7701 5.77537 14.7701 5.65123C14.7701 4.9197 15.0235 4.29015 15.5347 3.77586C16.0415 3.25714 16.6576 3 17.3829 3C18.1081 3 18.7198 3.25714 19.231 3.77586C19.7378 4.29458 19.9956 4.9197 19.9956 5.65566C19.9956 6.39163 19.7422 7.01231 19.2354 7.53103C18.7286 8.04532 18.1081 8.3069 17.3829 8.3069C17.0333 8.3069 16.7056 8.24039 16.3998 8.10296C16.0939 7.96552 15.8187 7.78374 15.574 7.56207L9.09885 11.202C9.14255 11.3217 9.1775 11.4547 9.19934 11.5966C9.22119 11.7384 9.2343 11.8759 9.2343 12C9.2343 12.1241 9.22556 12.2483 9.21245 12.3635C9.19934 12.4788 9.17313 12.5985 9.14255 12.7138L15.5958 16.4424C15.8405 16.2118 16.1114 16.0345 16.4173 15.9015C16.7231 15.7685 17.0464 15.7064 17.3916 15.7064C18.1212 15.7064 18.7417 15.9635 19.2441 16.4778C19.7466 16.9921 20 17.6172 20 18.3532C20 19.0892 19.7466 19.7143 19.2354 20.2286C18.7286 20.7429 18.1125 21 17.3872 21H17.3829ZM17.3829 19.5281C17.7105 19.5281 17.9902 19.4172 18.2086 19.1911C18.4315 18.965 18.5407 18.6857 18.5407 18.3532C18.5407 18.0207 18.4315 17.7414 18.2086 17.5153C17.9858 17.2892 17.7105 17.1783 17.3785 17.1783C17.0464 17.1783 16.7755 17.2936 16.5571 17.5197C16.3386 17.7458 16.2294 18.0251 16.2294 18.3576C16.2294 18.6901 16.3386 18.9695 16.5614 19.1956C16.7799 19.4217 17.0552 19.5325 17.3872 19.5325L17.3829 19.5281ZM6.60841 13.1837C6.9361 13.1837 7.21136 13.0729 7.43856 12.8468C7.66576 12.6207 7.77936 12.3414 7.77936 12.0044C7.77936 11.6675 7.66576 11.3882 7.43856 11.1621C7.21136 10.936 6.9361 10.8251 6.60404 10.8251C6.27198 10.8251 6.00109 10.936 5.77826 11.1621C5.55543 11.3882 5.4462 11.6675 5.4462 12.0044C5.4462 12.3414 5.55543 12.6207 5.77826 12.8468C6.00109 13.0729 6.27635 13.1837 6.60404 13.1837H6.60841ZM17.3872 6.82611C17.7149 6.82611 17.9902 6.71527 18.213 6.48916C18.4358 6.26305 18.5451 5.98374 18.5451 5.65123C18.5451 5.31872 18.4358 5.03941 18.213 4.8133C17.9902 4.58719 17.7149 4.47192 17.3829 4.47192C17.0508 4.47192 16.7799 4.58719 16.5571 4.8133C16.3342 5.03941 16.225 5.32315 16.225 5.65566C16.225 5.98818 16.3386 6.26749 16.5614 6.48916C16.7843 6.71527 17.0639 6.82611 17.3872 6.82611Z" fill="black"/>
</svg>
