<svg width="24" height="24" viewBox="0 0 24 24" fill="none" xmlns="http://www.w3.org/2000/svg">
<path fill-rule="evenodd" clip-rule="evenodd" d="M13.0747 4.3733L7.67533 11.6483L14.1808 15.4043L17.7815 7.0908L13.0747 4.3733ZM20.3252 6.25L12.531 1.75L4.73193 12.2583L15.1242 18.2583L20.3252 6.25Z" fill="#15181F"/>
<path d="M3.5 10.3923C3.77614 9.91401 4.38773 9.75013 4.86603 10.0263L16.9904 17.0263C17.4687 17.3024 17.6325 17.914 17.3564 18.3923C17.0803 18.8706 16.4687 19.0345 15.9904 18.7583L3.86603 11.7583C3.38773 11.4822 3.22386 10.8706 3.5 10.3923Z" fill="#15181F"/>
<path d="M9.06226 14.7583C9.3384 14.28 9.94999 14.1162 10.4283 14.3923C10.9066 14.6684 11.0704 15.28 10.7943 15.7583L7.29431 21.8205C7.01816 22.2988 6.40657 22.4627 5.92828 22.1865C5.44999 21.9104 5.28611 21.2988 5.56226 20.8205L9.06226 14.7583Z" fill="#15181F"/>
<path d="M10.2991 1.61603C10.5752 1.13773 11.1868 0.973858 11.6651 1.25L21.1914 6.75C21.6697 7.02614 21.8335 7.63773 21.5574 8.11603C21.2813 8.59432 20.6697 8.75819 20.1914 8.48205L10.6651 2.98205C10.1868 2.70591 10.0229 2.09432 10.2991 1.61603Z" fill="#15181F"/>
</svg>
