<svg width="24" height="24" viewBox="0 0 24 24" fill="none" xmlns="http://www.w3.org/2000/svg">
<g clip-path="url(#clip0_8026_91345)">
<path d="M7.446 4.05023C7.53807 4.05023 7.61991 4.05023 7.71198 4.08098L10.3616 4.6243C10.648 4.6858 10.9038 4.83957 11.0879 5.05484C11.2721 5.28037 11.3846 5.55715 11.3948 5.84418L11.4767 8.16094C11.4767 8.41722 11.4153 8.6735 11.2823 8.88877C11.1493 9.10405 10.955 9.27832 10.7197 9.38083L9.49204 9.94464C10.0649 11.8411 11.1596 13.5428 12.6429 14.8447L13.6966 13.9221C13.891 13.7581 14.1263 13.6453 14.3821 13.6146C14.4332 13.6146 14.4946 13.6043 14.5457 13.6043C14.7401 13.6043 14.9345 13.6453 15.1186 13.7376L17.2158 14.7627C17.4818 14.8857 17.6864 15.101 17.8194 15.3573C17.9422 15.6238 17.9831 15.9108 17.9217 16.1978L17.3488 18.9144C17.3079 19.0887 17.2363 19.2527 17.134 19.3962C17.0317 19.5397 16.8987 19.6627 16.7452 19.755C16.5406 19.878 16.3053 19.9395 16.0598 19.9395C15.9677 19.9395 15.8757 19.9395 15.7734 19.9088C15.7427 19.9088 15.7018 19.8985 15.6711 19.8883C12.602 18.9759 9.95239 16.9872 8.20303 14.2911C6.47413 11.6053 5.74779 8.37622 6.157 5.19836C6.17746 5.01384 6.23884 4.84982 6.34114 4.6858C6.43321 4.53203 6.55597 4.39877 6.70943 4.28601C6.85265 4.1835 7.01633 4.11174 7.19025 4.07073C7.27209 4.05023 7.36416 4.03998 7.45623 4.03998M7.446 2C7.22094 2 6.98564 2.0205 6.76058 2.07176C6.31045 2.16402 5.89101 2.34854 5.5125 2.62532C5.13398 2.89185 4.82707 3.23014 4.58155 3.62993C4.34626 4.02973 4.1928 4.46028 4.13142 4.92158C3.6506 8.60174 4.49971 12.3229 6.50482 15.4188C8.50994 18.5146 11.5688 20.8006 15.0982 21.8565L15.1698 21.877L15.2516 21.8975L15.3437 21.918C15.5892 21.9692 15.8245 22 16.07 22C16.6736 22 17.267 21.836 17.7887 21.5284C18.1877 21.2927 18.5253 20.9851 18.8015 20.6058C19.0777 20.2266 19.2619 19.8063 19.3539 19.345L19.9268 16.6386C20.0803 15.9108 19.9882 15.142 19.6608 14.4654C19.3335 13.7888 18.781 13.2455 18.1058 12.9175L16.0189 11.9026C15.5688 11.6771 15.0573 11.5643 14.556 11.5643C14.4128 11.5643 14.2695 11.5643 14.1263 11.5951C13.6659 11.6566 13.2261 11.8104 12.8271 12.0564C12.5611 11.7078 12.3258 11.3388 12.111 10.9493C12.4792 10.693 12.7862 10.3649 13.0317 9.9754C13.3795 9.41158 13.5534 8.75551 13.5227 8.08919L13.4409 5.77242C13.4102 5.02409 13.134 4.30651 12.6532 3.73245C12.1723 3.16863 11.5074 2.76884 10.781 2.61507L8.12119 2.07176C7.90636 2.03075 7.68129 2 7.446 2Z" fill="#15181F"/>
</g>
<defs>
<clipPath id="clip0_8026_91345">
<rect width="16" height="20" fill="white" transform="translate(4 2)"/>
</clipPath>
</defs>
</svg>
