<svg width="24" height="24" viewBox="0 0 24 24" fill="none" xmlns="http://www.w3.org/2000/svg">
<circle cx="12" cy="12" r="3" stroke="#15181F" stroke-width="2"/>
<path fill-rule="evenodd" clip-rule="evenodd" d="M14.6783 4.98139L13.0528 3.51752C12.4536 2.97799 11.5464 2.97799 10.9472 3.51751L9.32164 4.98141C8.71266 5.52982 7.99483 5.94223 7.21553 6.19142L5.20235 6.83517C4.44735 7.07659 3.98779 7.84328 4.12852 8.62666L4.60192 11.2617C4.73454 11.9999 4.72362 12.757 4.56977 13.491L4.18133 15.3444C4.02318 16.0989 4.42857 16.8583 5.14169 17.1433L7.60095 18.1263C8.12871 18.3372 8.62265 18.6251 9.06688 18.9807L11.0171 20.5418C11.5923 21.0022 12.4077 21.0022 12.9829 20.5418L14.9331 18.9807C15.3773 18.6251 15.8713 18.3372 16.399 18.1263L18.8583 17.1433C19.5714 16.8583 19.9768 16.0989 19.8187 15.3443L19.4302 13.4911C19.2764 12.757 19.2654 11.9999 19.3981 11.2617L19.8715 8.62667C20.0122 7.84329 19.5527 7.07659 18.7976 6.83517L16.7845 6.19143C16.0051 5.94223 15.2873 5.52981 14.6783 4.98139ZM14.4564 1.94417C13.0585 0.685281 10.9415 0.685275 9.54357 1.94416L7.91797 3.40806C7.53044 3.75705 7.07363 4.01949 6.57772 4.17807L4.56454 4.82181C2.80286 5.38513 1.73056 7.17408 2.05894 9.00195L2.53233 11.637C2.61673 12.1068 2.60978 12.5885 2.51187 13.0557L2.12343 14.909C1.75443 16.6696 2.70034 18.4414 4.36428 19.1065L6.82354 20.0895C7.15938 20.2237 7.47371 20.4069 7.75641 20.6332L9.70667 22.1944C11.0486 23.2686 12.9514 23.2685 14.2934 22.1943L16.2436 20.6332C16.5263 20.4069 16.8406 20.2237 17.1764 20.0895L19.6357 19.1065C21.2997 18.4414 22.2456 16.6695 21.8766 14.909L21.4881 13.0557C21.3902 12.5886 21.3832 12.1068 21.4677 11.637L21.9411 9.00198C22.2695 7.17409 21.1971 5.38513 19.4355 4.82181L17.4223 4.17807C16.9263 4.01949 16.4695 3.75704 16.082 3.40804L14.4564 1.94417Z" fill="#15181F"/>
</svg>
