<svg width="24" height="24" viewBox="0 0 24 24" fill="none" xmlns="http://www.w3.org/2000/svg">
<path fill-rule="evenodd" clip-rule="evenodd" d="M12.2037 2.50017C12.469 2.50509 12.7215 2.61523 12.9055 2.80636L17.7203 7.80636C18.1034 8.20418 18.0915 8.83723 17.6936 9.22032C17.2958 9.60341 16.6628 9.59146 16.2797 9.19364L12.159 4.91446L7.69414 9.21985C7.29658 9.60321 6.66352 9.5917 6.28016 9.19414C5.8968 8.79658 5.90831 8.16352 6.30587 7.78016L11.4911 2.78016C11.6821 2.59598 11.9384 2.49526 12.2037 2.50017Z" fill="black"/>
<path fill-rule="evenodd" clip-rule="evenodd" d="M12 4C12.5523 4 13 4.44772 13 5L13 15C13 15.5523 12.5523 16 12 16C11.4477 16 11 15.5523 11 15L11 5C11 4.44772 11.4477 4 12 4Z" fill="black"/>
<path fill-rule="evenodd" clip-rule="evenodd" d="M4 13C4.55228 13 5 13.4477 5 14V19H19V14C19 13.4477 19.4477 13 20 13C20.5523 13 21 13.4477 21 14V19C21 20.1046 20.1046 21 19 21H5C3.89543 21 3 20.1046 3 19V14C3 13.4477 3.44772 13 4 13Z" fill="black"/>
</svg>
