<svg width="24" height="24" viewBox="0 0 24 24" fill="none" xmlns="http://www.w3.org/2000/svg">
<path fill-rule="evenodd" clip-rule="evenodd" d="M3.97654 8.48603C3.67757 8.7001 3.5 9.04665 3.5 9.41605V19.2882C3.5 20.2336 4.26112 21 5.2 21H18.8C19.7389 21 20.5 20.2336 20.5 19.2882V9.41605C20.5 9.04665 20.3224 8.7001 20.0235 8.48603L12.6568 3.21117C12.2636 2.92961 11.7364 2.92961 11.3432 3.21117L3.97654 8.48603ZM13 15C13 14.4477 12.5523 14 12 14C11.4477 14 11 14.4477 11 15V17.5C11 18.0523 11.4477 18.5 12 18.5C12.5523 18.5 13 18.0523 13 17.5V15Z" fill="#BDBDBD"/>
</svg>
