<svg width="24" height="24" viewBox="0 0 24 24" fill="none" xmlns="http://www.w3.org/2000/svg">
<path fill-rule="evenodd" clip-rule="evenodd" d="M5.5 3.5C4.39543 3.5 3.5 4.39543 3.5 5.5V9C3.5 10.1046 4.39543 11 5.5 11H9C10.1046 11 11 10.1046 11 9V5.5C11 4.39543 10.1046 3.5 9 3.5H5.5ZM5.5 13C4.39543 13 3.5 13.8954 3.5 15V18.5C3.5 19.6046 4.39543 20.5 5.5 20.5H9C10.1046 20.5 11 19.6046 11 18.5V15C11 13.8954 10.1046 13 9 13H5.5ZM13 5.5C13 4.39543 13.8954 3.5 15 3.5H18.5C19.6046 3.5 20.5 4.39543 20.5 5.5V9C20.5 10.1046 19.6046 11 18.5 11H15C13.8954 11 13 10.1046 13 9V5.5ZM15 13C13.8954 13 13 13.8954 13 15V18.5C13 19.6046 13.8954 20.5 15 20.5H18.5C19.6046 20.5 20.5 19.6046 20.5 18.5V15C20.5 13.8954 19.6046 13 18.5 13H15Z" fill="#BDBDBD"/>
</svg>
