<svg width="24" height="24" viewBox="0 0 24 24" fill="none" xmlns="http://www.w3.org/2000/svg">
<path fill-rule="evenodd" clip-rule="evenodd" d="M11 6.5H5.5C4.39543 6.5 3.5 7.39543 3.5 8.5V9C3.5 10.1046 4.39543 11 5.5 11H11V6.5ZM11 12.5H6C4.89543 12.5 4 13.3954 4 14.5V18.5C4 19.6046 4.89543 20.5 6 20.5H11L11 12.5ZM13 20.5L13 12.5H18C19.1046 12.5 20 13.3954 20 14.5V18.5C20 19.6046 19.1046 20.5 18 20.5H13ZM13 11V6.5H18.5C19.6046 6.5 20.5 7.39543 20.5 8.5V9C20.5 10.1046 19.6046 11 18.5 11H13Z" fill="#BDBDBD"/>
<path fill-rule="evenodd" clip-rule="evenodd" d="M13.5 5H14C14.2761 5 14.5 4.77614 14.5 4.5C14.5 4.22386 14.2761 4 14 4C13.7239 4 13.5 4.22386 13.5 4.5V5ZM14 2.5C12.8954 2.5 12 3.39543 12 4.5V6.5H14C15.1046 6.5 16 5.60457 16 4.5C16 3.39543 15.1046 2.5 14 2.5Z" fill="#BDBDBD"/>
<path fill-rule="evenodd" clip-rule="evenodd" d="M10.5 5H10C9.72386 5 9.5 4.77614 9.5 4.5C9.5 4.22386 9.72386 4 10 4C10.2761 4 10.5 4.22386 10.5 4.5V5ZM10 2.5C11.1046 2.5 12 3.39543 12 4.5V6.5H10C8.89543 6.5 8 5.60457 8 4.5C8 3.39543 8.89543 2.5 10 2.5Z" fill="#BDBDBD"/>
</svg>
