<svg width="24" height="24" viewBox="0 0 24 24" fill="none" xmlns="http://www.w3.org/2000/svg">
<path fill-rule="evenodd" clip-rule="evenodd" d="M8.5 4C8.5 3.44772 8.94772 3 9.5 3H14.5C15.0523 3 15.5 3.44772 15.5 4V4.5C15.5 5.62785 14.9665 6.6311 14.1382 7.27119C17.7976 8.21934 20.5 11.5441 20.5 15.5V18.1538C20.5 20.0019 19.0019 21.5 17.1538 21.5H6.84615C4.99812 21.5 3.5 20.0019 3.5 18.1538V15.5C3.5 11.5441 6.20241 8.21934 9.86184 7.27119C9.03347 6.6311 8.5 5.62785 8.5 4.5V4ZM9.70225 12.7367C9.55681 12.3488 9.1245 12.1523 8.73666 12.2978C8.34882 12.4432 8.15231 12.8755 8.29775 13.2633L8.66775 14.25H8C7.58579 14.25 7.25 14.5858 7.25 15C7.25 15.4142 7.58579 15.75 8 15.75H9.23025L9.79775 17.2633C9.90753 17.5561 10.1874 17.75 10.5 17.75C10.8126 17.75 11.0925 17.5561 11.2022 17.2633L12 15.136L12.7978 17.2633C12.9075 17.5561 13.1874 17.75 13.5 17.75C13.8126 17.75 14.0925 17.5561 14.2022 17.2633L14.7698 15.75H16C16.4142 15.75 16.75 15.4142 16.75 15C16.75 14.5858 16.4142 14.25 16 14.25H15.3322L15.7022 13.2633C15.8477 12.8755 15.6512 12.4432 15.2633 12.2978C14.8755 12.1523 14.4432 12.3488 14.2978 12.7367L13.5 14.864L12.7022 12.7367C12.5925 12.4439 12.3126 12.25 12 12.25C11.6874 12.25 11.4075 12.4439 11.2978 12.7367L10.5 14.864L9.70225 12.7367Z" fill="#BDBDBD"/>
</svg>
