<svg width="28" height="28" viewBox="0 0 28 28" fill="none" xmlns="http://www.w3.org/2000/svg">
<path d="M14 28C21.732 28 28 21.732 28 14C28 6.26801 21.732 0 14 0C6.26801 0 0 6.26801 0 14C0 21.732 6.26801 28 14 28Z" fill="#BDBDBD"/>
<path d="M14.0004 19.3393C11.912 19.3634 9.82416 19.2555 7.74937 19.0163C7.41449 18.9315 7.1077 18.7603 6.8596 18.5199C6.61149 18.2796 6.43074 17.9783 6.33537 17.6463C6.10487 16.4182 5.99269 15.1708 6.00037 13.9213C5.99266 12.6714 6.10484 11.4237 6.33537 10.1953C6.43034 9.86317 6.61098 9.56185 6.85916 9.32156C7.10734 9.08128 7.41434 8.91048 7.74937 8.8263C9.82416 8.5871 11.912 8.47922 14.0004 8.5033C16.0888 8.47922 18.1766 8.5871 20.2514 8.8263C20.5865 8.91029 20.8936 9.08103 21.1418 9.32134C21.39 9.56165 21.5706 9.86307 21.6654 10.1953C21.8955 11.4238 22.0077 12.6715 22.0004 13.9213C22.0076 15.1708 21.8955 16.4181 21.6654 17.6463C21.5699 17.9783 21.3891 18.2795 21.141 18.5198C20.893 18.7602 20.5862 18.9314 20.2514 19.0163C18.1766 19.2555 16.0888 19.3634 14.0004 19.3393ZM12.4004 11.6033V16.2423L16.5564 13.9203L12.4004 11.6033Z" fill="#F3F3F3"/>
</svg>
