<svg width="360" height="200" viewBox="0 0 360 200" fill="none" xmlns="http://www.w3.org/2000/svg">
<path fill-rule="evenodd" clip-rule="evenodd" d="M219.113 94.4109C218.757 94.833 218.811 95.4639 219.233 95.82L252.004 123.464L250.181 125.624C249.645 126.26 250.074 127.235 250.905 127.268L268.564 127.985C269.216 128.011 269.719 127.416 269.583 126.777L265.901 109.491C265.728 108.678 264.695 108.419 264.159 109.055L262.332 111.22L229.561 83.5762C229.139 83.2201 228.508 83.2736 228.152 83.6958L219.113 94.4109Z" fill="url(#paint0_linear_4986_40241)" fill-opacity="0.6"/>
<path fill-rule="evenodd" clip-rule="evenodd" d="M72.0738 68.323C71.6768 68.7069 71.6662 69.34 72.0502 69.737L112.686 111.756C112.982 112.062 113.425 112.138 113.795 111.982C113.923 111.935 114.044 111.861 114.149 111.759L119.498 106.56L124.177 102.035C124.223 101.99 124.263 101.942 124.299 101.892L146.539 80.2718C146.935 79.8868 146.944 79.2537 146.559 78.8577L136.788 68.8062C136.403 68.4102 135.77 68.4013 135.374 68.7862L113.746 89.8107L83.5648 58.6015C83.1808 58.2045 82.5478 58.1939 82.1508 58.5778L72.0738 68.323Z" fill="url(#paint1_linear_4986_40241)" fill-opacity="0.6"/>
<rect x="126" y="26" width="105" height="139" rx="4" fill="#9E9E9E"/>
<rect x="125" y="25" width="104" height="140" rx="4" fill="#BDBDBD"/>
<rect x="131" y="31" width="92" height="128" rx="4" fill="#F3F3F3"/>
<rect x="152" y="75" width="10" height="47" rx="2" fill="#0C408C"/>
<rect x="172" y="88" width="10" height="34" rx="2" fill="#0C408C"/>
<rect x="192" y="98" width="10" height="24" rx="2" fill="#0C408C"/>
<g opacity="0.6">
<path d="M165.061 52.5L171.266 69.0462L177.471 52.5L183.676 69.0462L189.88 52.5" stroke="#5478AC" stroke-width="3.5" stroke-linecap="round" stroke-linejoin="round"/>
<path d="M163 60.7808L167.137 60.7808" stroke="#5478AC" stroke-width="4" stroke-linecap="round" stroke-linejoin="round"/>
<path d="M187.821 60.7808L191.957 60.7808" stroke="#5478AC" stroke-width="4" stroke-linecap="round" stroke-linejoin="round"/>
</g>
<path d="M250.697 71.4199L249.55 69.0869L269.148 59.5442L270.091 61.5105L250.697 71.4199Z" fill="#E5A932"/>
<ellipse cx="10.8897" cy="6.13138" rx="10.8897" ry="6.13138" transform="matrix(0.891753 -0.456419 0.459002 0.886433 248.001 66.2568)" fill="#F2A540"/>
<ellipse cx="10.8896" cy="6.0764" rx="10.8896" ry="6.0764" transform="matrix(0.891753 -0.456418 0.459003 0.886433 246.951 64.1182)" fill="#FFD572"/>
<path d="M267.017 60.5858C267.561 61.6631 267.285 63.0813 266.285 64.5389C265.291 65.9886 263.613 67.4249 261.48 68.4895C259.347 69.5542 257.186 70.0346 255.423 69.9613C253.65 69.8877 252.34 69.2615 251.796 68.1842C251.252 67.1068 251.529 65.6887 252.528 64.2311C253.522 62.7814 255.201 61.3451 257.333 60.2805C259.466 59.2158 261.627 58.7354 263.391 58.8086C265.164 58.8823 266.473 59.5085 267.017 60.5858Z" fill="#FFD572" stroke="#F2A540" stroke-width="0.5"/>
<path d="M97.3505 97.9293L98.5468 95.4944L78.0929 85.5351L77.1091 87.5871L97.3505 97.9293Z" fill="#E5A932"/>
<ellipse cx="11.3652" cy="6.39911" rx="11.3652" ry="6.39911" transform="matrix(-0.891753 -0.456419 -0.459002 0.886433 100.163 92.542)" fill="#F2A540"/>
<ellipse cx="11.3651" cy="6.34173" rx="11.3651" ry="6.34173" transform="matrix(-0.891753 -0.456418 -0.459003 0.886433 101.255 90.3115)" fill="#FFD572"/>
<path d="M80.223 86.54C79.6511 87.6445 79.9472 89.1247 81.0105 90.6648C82.0673 92.1953 83.848 93.7274 86.1078 94.884C88.3676 96.0406 90.6565 96.5914 92.5234 96.5573C94.4019 96.5229 95.7858 95.9026 96.3577 94.798C96.9296 93.6935 96.6335 92.2133 95.5702 90.6733C94.5134 89.1428 92.7327 87.6107 90.4729 86.4541C88.2131 85.2975 85.9242 84.7467 84.0573 84.7808C82.1788 84.8151 80.7949 85.4355 80.223 86.54Z" fill="#FFD572" stroke="#F2A540" stroke-width="0.5"/>
<path d="M59.7614 50.5252L58.5691 48.9206L72.0575 39.0775L73.0447 40.433L59.7614 50.5252Z" fill="#E5A932"/>
<ellipse cx="8.35564" cy="4.71556" rx="8.35564" ry="4.71556" transform="matrix(0.794839 -0.606516 0.61222 0.790922 57.0122 46.9927)" fill="#F2A540"/>
<ellipse cx="8.35565" cy="4.67332" rx="8.35565" ry="4.67332" transform="matrix(0.794839 -0.606516 0.61222 0.790922 55.9258 45.5186)" fill="#FFD572"/>
<path d="M70.7491 39.9228C71.2855 40.6157 71.2296 41.7067 70.623 42.9536C70.0208 44.1916 68.894 45.5383 67.3813 46.6926C65.8685 47.847 64.2679 48.5814 62.908 48.8407C61.5383 49.1017 60.4621 48.8746 59.9258 48.1817C59.3894 47.4888 59.4453 46.3978 60.0519 45.1509C60.6542 43.9129 61.7809 42.5662 63.2936 41.4119C64.8064 40.2575 66.407 39.5231 67.7669 39.2638C69.1366 39.0027 70.2128 39.2299 70.7491 39.9228Z" fill="#FFD572" stroke="#F2A540" stroke-width="0.3"/>
<path d="M283.754 18.7768L284.426 17.2442L297.297 22.9039L296.721 24.184L283.754 18.7768Z" fill="#E5A932"/>
<ellipse cx="7.00647" cy="3.9605" rx="7.00647" ry="3.9605" transform="matrix(0.92878 0.383564 -0.382747 0.91856 285.169 15.3281)" fill="#F2A540"/>
<ellipse cx="7.00639" cy="3.92497" rx="7.00639" ry="3.92497" transform="matrix(0.928781 0.383563 -0.382748 0.918559 285.795 13.9214)" fill="#FFD572"/>
<path d="M296.183 22.2159C295.9 22.893 295.091 23.3175 293.936 23.4107C292.79 23.5033 291.349 23.2629 289.889 22.6599C288.428 22.0569 287.239 21.2111 286.496 20.3381C285.746 19.4586 285.476 18.5881 285.758 17.911C286.04 17.2338 286.85 16.8094 288.005 16.7161C289.151 16.6235 290.592 16.8639 292.052 17.4669C293.513 18.0699 294.701 18.9157 295.445 19.7887C296.195 20.6682 296.465 21.5388 296.183 22.2159Z" fill="#FFD572" stroke="#F2A540" stroke-width="0.3"/>
<rect x="152" y="23" width="50" height="12" rx="4" fill="#666666"/>
<rect x="147" y="130" width="60" height="3" rx="1.5" fill="#ACB8B8" fill-opacity="0.6"/>
<rect x="147" y="138" width="60" height="3" rx="1.5" fill="#ACB8B8" fill-opacity="0.6"/>
<rect x="147" y="146" width="41" height="3" rx="1.5" fill="#ACB8B8" fill-opacity="0.6"/>
<rect x="103.141" y="122" width="47.0725" height="60.3493" rx="10" fill="#6B59BC"/>
<rect x="102.32" y="122" width="47.0725" height="60.3493" rx="10" fill="#7D6BCC"/>
<rect opacity="0.5" x="105.942" y="126.286" width="39.8306" height="23.4742" rx="6" fill="#5946AD"/>
<path opacity="0.5" fill-rule="evenodd" clip-rule="evenodd" d="M111.938 126.287C108.624 126.287 105.938 128.973 105.938 132.287V143.761C105.938 144.775 106.189 145.73 106.633 146.567C106.526 146.16 106.469 145.733 106.469 145.292V131.818C106.469 129.057 108.707 126.818 111.469 126.818H141.299C141.74 126.818 142.167 126.875 142.574 126.982C141.737 126.538 140.782 126.287 139.768 126.287H111.938Z" fill="#5946AD"/>
<rect x="105.942" y="153.381" width="11.4664" height="11.4664" rx="5.73319" fill="#E7E7EF"/>
<rect x="105.942" y="167.262" width="11.4664" height="11.4664" rx="5.73319" fill="#E7E7EF"/>
<rect x="119.814" y="153.381" width="11.4664" height="11.4664" rx="5.73319" fill="#E7E7EF"/>
<rect x="119.814" y="167.262" width="11.4664" height="11.4664" rx="5.73319" fill="#E7E7EF"/>
<rect x="134.307" y="153.381" width="11.4664" height="25.3467" rx="5.73319" fill="#F9AB37"/>
<rect x="136.507" y="163.785" width="6.92145" height="1.33105" rx="0.665524" fill="white"/>
<rect x="136.507" y="166.98" width="6.92145" height="1.33105" rx="0.665524" fill="white"/>
<path d="M141.875 138.028C141.875 137.258 141.795 136.596 141.634 136.042C141.474 135.48 141.248 135.018 140.958 134.656C140.675 134.286 140.339 134.013 139.949 133.835C139.56 133.658 139.136 133.57 138.677 133.57C138.234 133.57 137.817 133.658 137.428 133.835C137.046 134.013 136.709 134.286 136.419 134.656C136.136 135.018 135.915 135.48 135.754 136.042C135.594 136.596 135.514 137.258 135.514 138.028C135.514 138.791 135.594 139.453 135.754 140.015C135.915 140.57 136.136 141.032 136.419 141.401C136.709 141.763 137.046 142.033 137.428 142.21C137.817 142.387 138.234 142.475 138.677 142.475C139.136 142.475 139.56 142.387 139.949 142.21C140.339 142.033 140.675 141.763 140.958 141.401C141.248 141.032 141.474 140.57 141.634 140.015C141.795 139.453 141.875 138.791 141.875 138.028ZM140.27 138.028C140.27 138.637 140.224 139.141 140.133 139.542C140.049 139.942 139.934 140.262 139.789 140.5C139.644 140.739 139.472 140.905 139.273 140.997C139.082 141.089 138.883 141.136 138.677 141.136C138.478 141.136 138.284 141.089 138.093 140.997C137.909 140.905 137.745 140.739 137.6 140.5C137.454 140.262 137.336 139.942 137.244 139.542C137.16 139.141 137.118 138.637 137.118 138.028C137.118 137.412 137.16 136.904 137.244 136.504C137.336 136.096 137.454 135.776 137.6 135.545C137.745 135.306 137.909 135.141 138.093 135.048C138.284 134.948 138.478 134.898 138.677 134.898C138.883 134.898 139.082 134.948 139.273 135.048C139.472 135.141 139.644 135.306 139.789 135.545C139.934 135.776 140.049 136.096 140.133 136.504C140.224 136.904 140.27 137.412 140.27 138.028Z" fill="white" fill-opacity="0.9"/>
<defs>
<linearGradient id="paint0_linear_4986_40241" x1="242.447" y1="104.922" x2="269.368" y2="127.631" gradientUnits="userSpaceOnUse">
<stop stop-color="#031BA5"/>
<stop offset="1" stop-color="#4861ED"/>
<stop offset="1" stop-color="#0119A1" stop-opacity="0"/>
<stop offset="1" stop-color="#0119A1" stop-opacity="0"/>
<stop offset="1" stop-color="#0119A1" stop-opacity="0"/>
</linearGradient>
<linearGradient id="paint1_linear_4986_40241" x1="141.245" y1="74.2535" x2="107.739" y2="106.826" gradientUnits="userSpaceOnUse">
<stop stop-color="#0119A1"/>
<stop offset="1" stop-color="#445CE8"/>
</linearGradient>
</defs>
</svg>
