<svg width="360" height="200" viewBox="0 0 360 200" fill="none" xmlns="http://www.w3.org/2000/svg">
<path d="M166.052 111.61L165.399 105.74L159.964 106.175L163.225 113.566L166.052 111.61Z" fill="#BDBDBD"/>
<path d="M69.2453 120.166L67.5026 119.336L65.9258 109.875L78.789 101.826L93.312 108.548L89.0796 119.751L69.2453 120.166Z" fill="#BDBDBD"/>
<path d="M135.306 120.082L133.563 119.17L131.987 109.709L144.85 101.659L159.373 108.381L155.97 118.921L135.306 120.082Z" fill="#BDBDBD"/>
<path d="M60.8628 116.823C61.4603 118.947 66.6996 119.976 69.2446 120.225C67.0537 112.856 71.0427 108.579 73.3111 107.362C75.0372 106.632 79.3969 106.615 81.361 106.698C83.3527 106.632 84.6805 107.722 85.0955 108.275C87.8839 110.864 88.9129 116.989 89.0789 119.727L135.387 120.059C134.324 112.69 138.264 108.856 140.366 107.86C144.15 106.864 148.139 107.113 149.661 107.362C154.374 108.69 155.829 115.606 155.968 118.897L160.615 118.068C165.329 117.205 166.286 114.167 166.175 112.756C166.441 111.561 165.345 110.765 164.765 110.516L164.018 106.366C164.947 106.366 165.401 105.924 165.511 105.702C165.246 104.906 165.401 102.604 165.511 101.553C165.777 99.7605 165.124 98.8145 164.765 98.5655C162.308 95.7771 156.604 92.3691 154.059 91.0136L156.798 90.0178C153.611 89.2211 145.954 87.8047 142.524 87.1961C126.125 85.7355 115.054 86.5875 111.569 87.1961C104.731 88.5239 94.4455 94.7203 90.1578 97.6526C73.6928 98.6484 66.589 100.668 65.0952 101.553C61.9084 103.478 61.333 105.121 61.4437 105.702V108.856C60.9126 109.188 60.8351 109.713 60.8628 109.935V113.835C60.8628 115.03 61.416 115.55 61.6926 115.661C61.2279 115.926 60.9457 116.546 60.8628 116.823Z" fill="#D1D1D1"/>
<path opacity="0.1" fill-rule="evenodd" clip-rule="evenodd" d="M119.795 97.6123L120.266 97.7807L118.949 101.461L118.039 117.438C118.023 118.008 117.864 118.49 117.57 118.918C117.278 119.341 116.862 119.701 116.351 120.042L116.073 119.626C116.558 119.303 116.916 118.985 117.158 118.634C117.396 118.288 117.526 117.9 117.539 117.421L117.539 117.413L118.454 101.361L119.795 97.6123Z" fill="black"/>
<path d="M104.766 90.9304C95.6707 95.3122 91.2342 98.2844 90.4873 99.4185L118.293 98.0674C140.202 97.0715 139.815 96.4906 141.115 95.9927C143.704 94.7977 146.841 93.1158 148.086 92.4242L140.866 89.9346C138.078 88.7396 126.094 88.3301 120.451 88.2748C112.617 87.8765 106.73 89.8792 104.766 90.9304Z" fill="#BDBDBD"/>
<path d="M88.1627 117.095C88.1627 122.228 84.0013 126.39 78.868 126.39C73.7346 126.39 69.5732 122.228 69.5732 117.095C69.5732 111.962 73.7346 107.8 78.868 107.8C84.0013 107.8 88.1627 111.962 88.1627 117.095Z" fill="#9E9E9E"/>
<path d="M85.5101 117.095C85.5101 120.762 82.5377 123.734 78.871 123.734C75.2044 123.734 72.2319 120.762 72.2319 117.095C72.2319 113.428 75.2044 110.456 78.871 110.456C82.5377 110.456 85.5101 113.428 85.5101 117.095Z" fill="#BDBDBD"/>
<path d="M82.2689 117.095C82.2689 118.928 80.7456 120.414 78.8664 120.414C76.9872 120.414 75.4639 118.928 75.4639 117.095C75.4639 115.262 76.9872 113.775 78.8664 113.775C80.7456 113.775 82.2689 115.262 82.2689 117.095Z" fill="#DEDEDE"/>
<path d="M154.717 117.095C154.717 122.228 150.556 126.39 145.422 126.39C140.289 126.39 136.128 122.228 136.128 117.095C136.128 111.962 140.289 107.8 145.422 107.8C150.556 107.8 154.717 111.962 154.717 117.095Z" fill="#9E9E9E"/>
<path d="M152.064 117.095C152.064 120.762 149.092 123.734 145.425 123.734C141.759 123.734 138.786 120.762 138.786 117.095C138.786 113.428 141.759 110.456 145.425 110.456C149.092 110.456 152.064 113.428 152.064 117.095Z" fill="#BDBDBD"/>
<path d="M148.651 117.095C148.651 118.837 147.239 120.249 145.498 120.249C143.756 120.249 142.344 118.837 142.344 117.095C142.344 115.354 143.756 113.942 145.498 113.942C147.239 113.942 148.651 115.354 148.651 117.095Z" fill="#DEDEDE"/>
<g style="mix-blend-mode:soft-light" opacity="0.2">
<path d="M95.8506 99.9605C94.5228 99.9605 93.7363 98.7701 93.7363 98.3275C93.7363 96.6677 95.8664 95.6719 96.7239 95.6719C98.6493 95.6719 98.8382 97.8028 98.6723 99.2136C98.5819 99.982 98.1743 99.9605 98.0083 99.9605H95.8506Z" fill="black"/>
</g>
<path d="M95.4671 99.584C94.1393 99.584 93.7244 98.7818 93.7244 98.3392C93.7244 96.6794 95.8544 95.6836 96.712 95.6836C98.6373 95.6836 98.4547 97.4263 98.2887 98.8371C98.1983 99.6055 97.7908 99.584 97.6248 99.584H95.4671Z" fill="#D1D1D1"/>
<path d="M61.8554 104.564C61.5339 104.67 61.4404 105.393 61.4404 105.642L68.1625 104.647C68.2953 104.381 69.1584 103.817 69.4903 103.734C62.8595 104.232 62.1062 104.481 61.8563 104.563L61.8554 104.564Z" fill="#BDBDBD"/>
<path d="M155.05 101.326C161.888 101.326 164.953 100.552 165.59 100.33C165.59 99.7991 165.258 99.2237 165.092 99.0024C163.847 99.4174 160.029 99.8323 156.959 99.9983C156.228 100.065 155.299 100.911 155.05 101.326Z" fill="#BDBDBD"/>
<path d="M110.325 103.477C110.32 103.272 110.483 103.101 110.689 103.096L115.077 102.996C115.282 102.991 115.453 103.154 115.457 103.359C115.462 103.565 115.299 103.735 115.094 103.74L110.706 103.841C110.5 103.845 110.33 103.682 110.325 103.477Z" fill="#BDBDBD"/>
<path d="M133.895 102.977C133.891 102.772 134.053 102.602 134.259 102.597L138.647 102.496C138.852 102.492 139.023 102.654 139.027 102.86C139.032 103.065 138.869 103.236 138.664 103.24L134.276 103.341C134.07 103.346 133.9 103.183 133.895 102.977Z" fill="#BDBDBD"/>
<path d="M209.975 125.962L209.16 118.624L202.366 119.168L206.442 128.407L209.975 125.962Z" fill="#9E9E9E"/>
<path d="M89.1856 136.731L87.0071 135.694L85.0361 123.868L101.115 113.806L119.269 122.208L113.978 136.212L89.1856 136.731Z" fill="#8D8D8D"/>
<path d="M171.762 136.627L169.583 135.486L167.612 123.66L183.691 113.598L201.845 122L197.592 135.174L171.762 136.627Z" fill="#8D8D8D"/>
<path d="M78.4895 132.478C79.2364 135.133 85.7855 136.42 88.9668 136.731C86.2281 127.519 91.2144 122.174 94.0498 120.652C96.2076 119.739 101.657 119.719 104.112 119.822C106.602 119.739 108.262 121.102 108.78 121.793C112.266 125.03 113.552 132.685 113.76 136.109L171.644 136.524C170.316 127.312 175.24 122.519 177.868 121.275C182.599 120.03 187.585 120.341 189.487 120.652C195.379 122.312 197.198 130.957 197.371 135.071L203.18 134.034C209.072 132.955 210.269 129.158 210.13 127.395C210.462 125.901 209.093 124.905 208.367 124.594L207.433 119.407C208.595 119.407 209.162 118.854 209.3 118.578C208.968 117.582 209.162 114.705 209.3 113.391C209.632 111.15 208.816 109.968 208.367 109.656C205.296 106.171 198.166 101.911 194.985 100.216L198.408 98.9717C194.425 97.9758 184.853 96.2054 180.566 95.4446C160.067 93.6189 146.229 94.6839 141.872 95.4446C133.324 97.1044 120.468 104.85 115.108 108.515C94.527 109.76 85.6472 112.284 83.78 113.391C79.7965 115.797 79.0773 117.851 79.2156 118.577V122.519C78.5517 122.934 78.4549 123.591 78.4895 123.868V128.743C78.4895 130.237 79.181 130.887 79.5268 131.026C78.9459 131.358 78.5932 132.132 78.4895 132.478Z" fill="#BDBDBD"/>
<path opacity="0.5" fill-rule="evenodd" clip-rule="evenodd" d="M152.096 108.444L152.802 108.697L151.16 113.289L150.022 133.25C150.002 133.974 149.799 134.588 149.425 135.132C149.054 135.671 148.527 136.126 147.884 136.555L147.468 135.931C148.07 135.529 148.511 135.137 148.807 134.707C149.097 134.285 149.257 133.811 149.272 133.224L149.273 133.213L150.417 113.138L152.096 108.444Z" fill="#9E9E9E"/>
<path d="M133.369 100.113C121.999 105.59 116.454 109.305 115.52 110.723L150.278 109.034C177.664 107.789 177.18 107.063 178.805 106.44C182.042 104.947 185.963 102.844 187.519 101.98L178.494 98.8678C175.008 97.3741 160.029 96.8623 152.975 96.7931C143.182 96.2952 135.824 98.7986 133.369 100.113Z" fill="#9E9E9E"/>
<path d="M112.614 132.818C112.614 139.235 107.413 144.436 100.996 144.436C94.5792 144.436 89.3774 139.235 89.3774 132.818C89.3774 126.401 94.5792 121.2 100.996 121.2C107.413 121.2 112.614 126.401 112.614 132.818Z" fill="#9E9E9E"/>
<path d="M109.299 132.818C109.299 137.402 105.583 141.117 101 141.117C96.4165 141.117 92.7009 137.402 92.7009 132.818C92.7009 128.235 96.4165 124.52 101 124.52C105.583 124.52 109.299 128.235 109.299 132.818Z" fill="#BDBDBD"/>
<path d="M105.247 132.818C105.247 135.109 103.343 136.967 100.994 136.967C98.6452 136.967 96.741 135.109 96.741 132.818C96.741 130.526 98.6452 128.668 100.994 128.668C103.343 128.668 105.247 130.526 105.247 132.818Z" fill="#DCDCDC"/>
<path d="M195.807 132.818C195.807 139.235 190.606 144.436 184.189 144.436C177.772 144.436 172.571 139.235 172.571 132.818C172.571 126.401 177.772 121.2 184.189 121.2C190.606 121.2 195.807 126.401 195.807 132.818Z" fill="#9E9E9E"/>
<path d="M192.492 132.818C192.492 137.402 188.776 141.117 184.193 141.117C179.609 141.117 175.894 137.402 175.894 132.818C175.894 128.235 179.609 124.52 184.193 124.52C188.776 124.52 192.492 128.235 192.492 132.818Z" fill="#BDBDBD"/>
<path d="M188.225 132.819C188.225 134.996 186.46 136.761 184.283 136.761C182.106 136.761 180.341 134.996 180.341 132.819C180.341 130.642 182.106 128.877 184.283 128.877C186.46 128.877 188.225 130.642 188.225 132.819Z" fill="#DCDCDC"/>
<g style="mix-blend-mode:soft-light" opacity="0.2">
<path d="M122.224 111.4C120.564 111.4 119.581 109.912 119.581 109.359C119.581 107.284 122.244 106.04 123.316 106.04C125.722 106.04 125.959 108.703 125.751 110.467C125.638 111.427 125.129 111.4 124.921 111.4H122.224Z" fill="black"/>
</g>
<path d="M121.745 110.929C120.085 110.929 119.566 109.926 119.566 109.373C119.566 107.299 122.229 106.054 123.301 106.054C125.708 106.054 125.479 108.232 125.272 109.996C125.159 110.956 124.649 110.929 124.442 110.929H121.745Z" fill="#BDBDBD"/>
<path d="M79.7303 117.154C79.3286 117.286 79.2117 118.191 79.2117 118.502L87.6143 117.257C87.7802 116.925 88.8591 116.221 89.274 116.117C80.9855 116.739 80.0439 117.05 79.7315 117.153L79.7303 117.154Z" fill="#9E9E9E"/>
<path d="M196.224 113.107C204.771 113.107 208.603 112.139 209.398 111.862C209.398 111.198 208.983 110.479 208.776 110.203C207.22 110.721 202.448 111.24 198.61 111.447C197.697 111.53 196.535 112.589 196.224 113.107Z" fill="#9E9E9E"/>
<path d="M140.318 115.796C140.312 115.539 140.515 115.326 140.772 115.32L146.257 115.194C146.514 115.188 146.727 115.392 146.733 115.649C146.739 115.905 146.535 116.118 146.278 116.124L140.793 116.25C140.536 116.256 140.323 116.052 140.318 115.796Z" fill="#9E9E9E"/>
<path d="M169.78 115.171C169.774 114.914 169.978 114.701 170.235 114.695L175.72 114.57C175.976 114.564 176.189 114.767 176.195 115.024C176.201 115.281 175.998 115.494 175.741 115.5L170.256 115.625C169.999 115.631 169.786 115.428 169.78 115.171Z" fill="#9E9E9E"/>
<path d="M87.919 76.0668L84.6642 62.6738C83.8929 64.113 82.4783 68.4144 82.278 72.6206C82.0777 76.8268 85.2712 81.9719 86.982 84.2044C88.3591 85.1224 90.6124 86.1823 88.6094 83.0777C86.6065 79.9731 87.3146 77.1102 87.919 76.0668Z" fill="#F9BF4B"/>
<mask id="mask0_4984_40484" style="mask-type:alpha" maskUnits="userSpaceOnUse" x="82" y="62" width="8" height="24">
<path d="M87.919 76.0682L84.6642 62.6753C83.8929 64.1145 82.4783 68.4158 82.278 72.622C82.0777 76.8282 85.2712 81.9734 86.982 84.2058C88.3591 85.1239 90.6124 86.1838 88.6094 83.0792C86.6065 79.9746 87.3146 77.1116 87.919 76.0682Z" fill="#F9BF4B"/>
</mask>
<g mask="url(#mask0_4984_40484)">
<path d="M88.5861 84.5547L80.7214 69.944L81.9542 58.6211L93.1897 75.136L88.5861 84.5547Z" fill="#FFD47E"/>
</g>
<path d="M98.572 83.7685C91.4125 84.2695 85.6505 80.9986 84.1052 79.5171C85.2324 82.2502 89.7451 89.0509 95.2533 92.6562C100.761 96.2616 106.311 95.9111 108.398 95.2851C105.018 91.2684 102.31 88.7733 98.572 83.7685Z" fill="#E1AC44"/>
<path d="M260.748 142.989L259.75 134.005L251.431 134.67L256.422 145.984L260.748 142.989Z" fill="#757A84"/>
<path d="M112.586 156.084L109.919 154.814L107.505 140.335L127.193 128.015L149.42 138.303L142.942 155.449L112.586 156.084Z" fill="#326066"/>
<path d="M213.692 155.957L211.025 154.559L208.612 140.08L228.299 127.76L250.526 138.048L245.319 154.178L213.692 155.957Z" fill="#326066"/>
<path d="M99.7564 150.968C100.671 154.219 108.69 155.794 112.585 156.175C109.232 144.896 115.337 138.351 118.809 136.488C121.451 135.37 128.123 135.345 131.129 135.472C134.177 135.37 136.21 137.039 136.845 137.885C141.112 141.848 142.687 151.222 142.941 155.413L213.815 155.921C212.19 144.642 218.218 138.774 221.436 137.25C227.228 135.726 233.333 136.107 235.662 136.488C242.876 138.52 245.103 149.105 245.315 154.143L252.428 152.873C259.642 151.552 261.107 146.903 260.938 144.744C261.344 142.915 259.667 141.696 258.778 141.315L257.635 134.964C259.058 134.964 259.752 134.287 259.922 133.948C259.515 132.729 259.752 129.206 259.922 127.597C260.328 124.854 259.329 123.406 258.778 123.025C255.019 118.757 246.289 113.541 242.394 111.467L246.585 109.942C241.708 108.723 229.988 106.555 224.739 105.624C199.641 103.389 182.697 104.693 177.362 105.624C166.896 107.656 151.155 117.14 144.593 121.628C119.393 123.152 108.52 126.242 106.234 127.597C101.357 130.544 100.476 133.059 100.646 133.948V138.774C99.8327 139.282 99.7141 140.087 99.7564 140.425V146.395C99.7564 148.224 100.603 149.02 101.027 149.189C100.315 149.596 99.8835 150.544 99.7564 150.968Z" fill="#36B6AF"/>
<mask id="mask1_4984_40484" style="mask-type:alpha" maskUnits="userSpaceOnUse" x="99" y="104" width="162" height="53">
<path d="M99.7564 150.968C100.671 154.219 108.69 155.794 112.585 156.175C109.232 144.896 115.337 138.351 118.809 136.488C121.451 135.37 128.123 135.345 131.129 135.472C134.177 135.37 136.21 137.039 136.845 137.885C141.112 141.848 142.687 151.222 142.941 155.413L213.815 155.921C212.19 144.642 218.218 138.774 221.436 137.25C227.228 135.726 233.333 136.107 235.662 136.488C242.876 138.52 245.103 149.105 245.315 154.143L252.428 152.873C259.642 151.552 261.107 146.903 260.938 144.744C261.344 142.915 259.667 141.696 258.778 141.315L257.635 134.964C259.058 134.964 259.752 134.287 259.922 133.948C259.515 132.729 259.752 129.206 259.922 127.597C260.328 124.854 259.329 123.406 258.778 123.025C255.019 118.757 246.289 113.541 242.394 111.467L246.585 109.942C241.708 108.723 229.988 106.555 224.739 105.624C199.641 103.389 182.697 104.693 177.362 105.624C166.896 107.656 151.155 117.14 144.593 121.628C119.393 123.152 108.52 126.242 106.234 127.597C101.357 130.544 100.476 133.059 100.646 133.948V138.774C99.8327 139.282 99.7141 140.087 99.7564 140.425V146.395C99.7564 148.224 100.603 149.02 101.027 149.189C100.315 149.596 99.8835 150.544 99.7564 150.968Z" fill="#36B6AF"/>
</mask>
<g mask="url(#mask1_4984_40484)">
<path opacity="0.1" fill-rule="evenodd" clip-rule="evenodd" d="M189.842 121.527L190.783 121.864L188.774 127.48L187.382 151.914C187.332 153.693 186.427 155.324 184.779 156.423L184.224 155.591C185.622 154.659 186.345 153.316 186.382 151.88L186.383 151.873L187.784 127.279L189.842 121.527Z" fill="black"/>
</g>
<path d="M166.951 111.339C153.03 118.046 146.24 122.595 145.097 124.33L187.654 122.262C221.186 120.738 220.593 119.849 222.583 119.087C226.546 117.258 231.347 114.684 233.252 113.626L222.202 109.815C217.934 107.986 199.593 107.36 190.957 107.275C178.966 106.665 169.957 109.73 166.951 111.339Z" fill="#3B666B"/>
<path d="M141.539 151.384C141.539 159.241 135.17 165.61 127.313 165.61C119.457 165.61 113.088 159.241 113.088 151.384C113.088 143.528 119.457 137.159 127.313 137.159C135.17 137.159 141.539 143.528 141.539 151.384Z" fill="#424242"/>
<path d="M137.479 151.385C137.479 156.996 132.93 161.546 127.318 161.546C121.706 161.546 117.157 156.996 117.157 151.385C117.157 145.773 121.706 141.224 127.318 141.224C132.93 141.224 137.479 145.773 137.479 151.385Z" fill="#757575"/>
<path d="M132.519 151.384C132.519 154.19 130.187 156.464 127.311 156.464C124.435 156.464 122.104 154.19 122.104 151.384C122.104 148.578 124.435 146.303 127.311 146.303C130.187 146.303 132.519 148.578 132.519 151.384Z" fill="#BBBBBB"/>
<path d="M243.401 151.384C243.401 159.241 237.032 165.61 229.175 165.61C221.318 165.61 214.949 159.241 214.949 151.384C214.949 143.528 221.318 137.159 229.175 137.159C237.032 137.159 243.401 143.528 243.401 151.384Z" fill="#424242"/>
<path d="M239.341 151.385C239.341 156.996 234.792 161.546 229.18 161.546C223.568 161.546 219.019 156.996 219.019 151.385C219.019 145.773 223.568 141.224 229.18 141.224C234.792 141.224 239.341 145.773 239.341 151.385Z" fill="#757575"/>
<path d="M234.117 151.385C234.117 154.051 231.956 156.212 229.29 156.212C226.625 156.212 224.464 154.051 224.464 151.385C224.464 148.719 226.625 146.559 229.29 146.559C231.956 146.559 234.117 148.719 234.117 151.385Z" fill="#BBBBBB"/>
<g style="mix-blend-mode:soft-light" opacity="0.2">
<path d="M153.305 125.16C151.273 125.16 150.069 123.338 150.069 122.661C150.069 120.12 153.329 118.596 154.642 118.596C157.589 118.596 157.878 121.858 157.624 124.017C157.485 125.193 156.862 125.16 156.608 125.16H153.305Z" fill="black"/>
</g>
<path d="M152.719 124.583C150.686 124.583 150.051 123.356 150.051 122.678C150.051 120.138 153.311 118.614 154.624 118.614C157.571 118.614 157.291 121.281 157.037 123.44C156.899 124.616 156.275 124.583 156.021 124.583H152.719Z" fill="#36B6AF"/>
<path d="M101.276 132.205C100.784 132.367 100.641 133.475 100.641 133.856L110.929 132.332C111.132 131.925 112.453 131.063 112.961 130.936C102.812 131.697 101.66 132.078 101.277 132.204L101.276 132.205Z" fill="white" fill-opacity="0.8"/>
<path d="M243.91 127.25C254.376 127.25 259.067 126.065 260.041 125.726C260.041 124.913 259.533 124.033 259.279 123.694C257.374 124.329 251.531 124.964 246.832 125.218C245.714 125.32 244.291 126.615 243.91 127.25Z" fill="white" fill-opacity="0.8"/>
<path d="M175.459 130.542C175.452 130.227 175.701 129.966 176.015 129.959L182.731 129.805C183.046 129.798 183.306 130.047 183.314 130.362C183.321 130.676 183.072 130.937 182.757 130.944L176.041 131.098C175.727 131.105 175.466 130.856 175.459 130.542Z" fill="white" fill-opacity="0.8"/>
<path d="M211.533 129.777C211.526 129.462 211.775 129.202 212.089 129.194L218.805 129.041C219.12 129.033 219.381 129.283 219.388 129.597C219.395 129.911 219.146 130.172 218.831 130.179L212.115 130.333C211.801 130.34 211.54 130.091 211.533 129.777Z" fill="white" fill-opacity="0.8"/>
<path fill-rule="evenodd" clip-rule="evenodd" d="M282.629 65.7788C282.629 61.3605 279.047 57.7788 274.629 57.7788H204.67H204.582V57.7793C203.424 57.7925 202.328 58.0668 201.351 58.5461C203.304 58.9985 204.656 62.2134 204.656 64.199V78.8217H204.582V159.706C204.582 164.125 208.164 167.706 212.582 167.706H282.629V65.7788Z" fill="#ECECEC"/>
<mask id="mask2_4984_40484" style="mask-type:alpha" maskUnits="userSpaceOnUse" x="204" y="57" width="79" height="111">
<path d="M282.629 65.7778C282.629 61.3595 279.047 57.7778 274.629 57.7778H204.582V159.705C204.582 164.124 208.164 167.705 212.582 167.705H282.629V65.7778Z" fill="#D9D9D9"/>
</mask>
<g mask="url(#mask2_4984_40484)">
<g style="mix-blend-mode:multiply" opacity="0.08">
<path d="M282.789 135.037V160.334L213.427 167.641L212.984 131.705L282.789 135.037Z" fill="black"/>
</g>
<g style="mix-blend-mode:multiply">
<path d="M218.921 154.666H204.294V167.704H218.921V154.666Z" fill="black" fill-opacity="0.08"/>
</g>
</g>
<path d="M273.161 92.4982C273.161 91.5901 272.425 90.854 271.516 90.854H217.126C216.218 90.854 215.482 91.5901 215.482 92.4982C215.482 93.4062 216.218 94.1424 217.126 94.1424H271.516C272.425 94.1424 273.161 93.4062 273.161 92.4982Z" fill="#ACB8B8" fill-opacity="0.6"/>
<path d="M273.161 103.127C273.161 102.219 272.425 101.483 271.516 101.483H217.126C216.218 101.483 215.482 102.219 215.482 103.127C215.482 104.035 216.218 104.771 217.126 104.771H271.516C272.425 104.771 273.161 104.035 273.161 103.127Z" fill="#ACB8B8" fill-opacity="0.6"/>
<path d="M273.161 113.757C273.161 112.849 272.425 112.113 271.516 112.113H217.126C216.218 112.113 215.482 112.849 215.482 113.757C215.482 114.665 216.218 115.401 217.126 115.401H271.516C272.425 115.401 273.161 114.665 273.161 113.757Z" fill="#ACB8B8" fill-opacity="0.6"/>
<path d="M273.161 124.386C273.161 123.478 272.425 122.742 271.516 122.742H242.133C241.225 122.742 240.489 123.478 240.489 124.386C240.489 125.294 241.225 126.03 242.133 126.03H271.516C272.425 126.03 273.161 125.294 273.161 124.386Z" fill="#ACB8B8" fill-opacity="0.6"/>
<path d="M197.113 64.4054C197.427 60.22 199.312 57.7778 200.883 57.7778C203.083 57.7766 204.654 60.691 204.654 64.2397V80.1917H191.457C195.541 78.4477 196.798 68.5908 197.113 64.4054Z" fill="#C3C3C3"/>
<path fill-rule="evenodd" clip-rule="evenodd" d="M304.267 146.947C304.267 140.319 298.894 134.947 292.267 134.947H222.285V134.947H219.919C219.367 134.947 218.919 135.395 218.919 135.947V136.322C221.588 136.434 222.464 140.181 222.567 142.068V167.71H222.567V180.984H228.841C228.892 179.673 229.866 178.627 231.061 178.627C232.255 178.627 233.229 179.673 233.28 180.984H235.506C235.558 179.673 236.532 178.627 237.726 178.627C238.92 178.627 239.894 179.673 239.946 180.984H241.998C242.05 179.673 243.024 178.627 244.218 178.627C245.412 178.627 246.386 179.673 246.438 180.984H248.271C248.322 179.673 249.296 178.627 250.49 178.627C251.684 178.627 252.659 179.673 252.71 180.984H254.763C254.814 179.673 255.788 178.627 256.983 178.627C258.177 178.627 259.151 179.673 259.202 180.984H261.428C261.48 179.673 262.454 178.627 263.648 178.627C264.842 178.627 265.816 179.673 265.868 180.984H267.92C267.972 179.673 268.946 178.627 270.14 178.627C271.334 178.627 272.308 179.673 272.36 180.984H274.76C274.811 179.673 275.785 178.627 276.979 178.627C278.174 178.627 279.148 179.673 279.199 180.984H281.252C281.303 179.673 282.277 178.627 283.471 178.627C284.666 178.627 285.64 179.673 285.691 180.984H287.917C287.969 179.673 288.943 178.627 290.137 178.627C291.331 178.627 292.305 179.673 292.357 180.984H294.409C294.461 179.673 295.435 178.627 296.629 178.627C297.823 178.627 298.797 179.673 298.849 180.984H304.267V146.947Z" fill="#F2F2F2"/>
<path d="M217.149 143.299C217.149 137.37 218.807 134.96 219.926 134.941C221.702 134.912 222.567 138.917 222.567 141.754V167.705H213.209C214.781 167.705 215.245 164.817 215.923 161.734C216.653 158.415 217.149 149.229 217.149 143.299Z" fill="#BBBBBB"/>
<path fill-rule="evenodd" clip-rule="evenodd" d="M295.585 143.911H292.597V144.911H295.585V143.911ZM289.621 143.911H284.645V144.911H289.621V143.911ZM281.669 143.911H276.692V144.911H281.669V143.911ZM273.716 143.911H268.74V144.911H273.716V143.911ZM265.764 143.911H260.788V144.911H265.764V143.911ZM257.812 143.911H252.836V144.911H257.812V143.911ZM249.86 143.911H244.884V144.911H249.86V143.911ZM241.907 143.911H236.931V144.911H241.907V143.911ZM233.955 143.911H230.967V144.911H233.955V143.911Z" fill="#ACB8B8" fill-opacity="0.6"/>
<path d="M295.085 157.861C295.085 156.953 294.349 156.217 293.441 156.217H277.786C276.878 156.217 276.141 156.953 276.141 157.861C276.141 158.769 276.878 159.505 277.786 159.505H293.441C294.349 159.505 295.085 158.769 295.085 157.861Z" fill="#ACB8B8" fill-opacity="0.6"/>
<path d="M272.614 73.7051C272.782 73.7051 272.907 73.7637 272.988 73.8811C273.068 73.9984 273.109 74.1377 273.109 74.2991C273.109 74.4604 273.068 74.5997 272.988 74.7171C272.907 74.8344 272.782 74.8931 272.614 74.8931H270.722V80.9871C270.722 81.1997 270.652 81.3537 270.513 81.4491C270.373 81.5444 270.208 81.5921 270.018 81.5921C269.827 81.5921 269.662 81.5444 269.523 81.4491C269.383 81.3537 269.314 81.1997 269.314 80.9871V74.8931H267.411C267.242 74.8931 267.117 74.8344 267.037 74.7171C266.956 74.5997 266.916 74.4604 266.916 74.2991C266.916 74.1377 266.956 73.9984 267.037 73.8811C267.117 73.7637 267.242 73.7051 267.411 73.7051H272.614Z" fill="#C5CCCC"/>
<path d="M263.982 73.7051C264.458 73.7051 264.865 73.7637 265.203 73.8811C265.547 73.9911 265.83 74.1487 266.05 74.3541C266.27 74.5521 266.431 74.7904 266.534 75.0691C266.644 75.3477 266.699 75.6484 266.699 75.9711V76.1251C266.699 76.4477 266.644 76.7557 266.534 77.0491C266.424 77.3351 266.255 77.5881 266.028 77.8081C265.8 78.0207 265.518 78.1931 265.181 78.3251C264.843 78.4497 264.444 78.5121 263.982 78.5121H262.398V80.9871C262.398 81.1997 262.328 81.3537 262.189 81.4491C262.049 81.5444 261.884 81.5921 261.694 81.5921C261.503 81.5921 261.338 81.5444 261.199 81.4491C261.059 81.3537 260.99 81.1997 260.99 80.9871V74.6181C260.99 74.2734 261.056 74.0351 261.188 73.9031C261.327 73.7711 261.573 73.7051 261.925 73.7051H263.982ZM262.398 77.3241H263.795C264.257 77.3241 264.62 77.2361 264.884 77.0601C265.148 76.8841 265.28 76.5651 265.28 76.1031V75.9821C265.28 75.7621 265.247 75.5824 265.181 75.4431C265.115 75.3037 265.019 75.1937 264.895 75.1131C264.777 75.0251 264.634 74.9664 264.466 74.9371C264.297 74.9004 264.114 74.8821 263.916 74.8821H262.398V77.3241Z" fill="#C5CCCC"/>
<path d="M258.723 73.6392C258.914 73.6392 259.079 73.6868 259.218 73.7822C259.357 73.8775 259.427 74.0315 259.427 74.2442V80.9872C259.427 81.1998 259.357 81.3538 259.218 81.4492C259.079 81.5445 258.914 81.5922 258.723 81.5922C258.532 81.5922 258.367 81.5445 258.228 81.4492C258.089 81.3538 258.019 81.1998 258.019 80.9872V74.2442C258.019 74.0315 258.089 73.8775 258.228 73.7822C258.367 73.6868 258.532 73.6392 258.723 73.6392Z" fill="#C5CCCC"/>
<path d="M256.233 73.7051C256.401 73.7051 256.522 73.7637 256.596 73.8811C256.676 73.9911 256.717 74.1267 256.717 74.2881C256.717 74.4421 256.676 74.5777 256.596 74.6951C256.522 74.8124 256.401 74.8711 256.233 74.8711H252.944V76.9501H256.013C256.174 76.9501 256.291 77.0087 256.365 77.1261C256.445 77.2361 256.486 77.3681 256.486 77.5221C256.486 77.6761 256.445 77.8117 256.365 77.9291C256.291 78.0391 256.174 78.0941 256.013 78.0941H252.944V80.3601H256.31C256.478 80.3601 256.599 80.4187 256.673 80.5361C256.753 80.6534 256.794 80.7891 256.794 80.9431C256.794 81.1044 256.753 81.2437 256.673 81.3611C256.599 81.4711 256.478 81.5261 256.31 81.5261H252.482C252.13 81.5261 251.884 81.4601 251.745 81.3281C251.613 81.1961 251.547 80.9577 251.547 80.6131V74.6181C251.547 74.2734 251.613 74.0351 251.745 73.9031C251.884 73.7711 252.13 73.7051 252.482 73.7051H256.233Z" fill="#C5CCCC"/>
<path d="M247.584 73.584C248.09 73.584 248.53 73.639 248.904 73.749C249.278 73.859 249.594 74.002 249.85 74.178C250.019 74.2953 250.111 74.4383 250.125 74.607C250.14 74.7757 250.096 74.9333 249.993 75.08C249.898 75.2193 249.773 75.311 249.619 75.355C249.465 75.399 249.311 75.3733 249.157 75.278C248.923 75.1387 248.684 75.0397 248.442 74.981C248.2 74.915 247.903 74.882 247.551 74.882C246.943 74.882 246.473 75.0837 246.143 75.487C245.813 75.883 245.648 76.554 245.648 77.5V77.731C245.648 78.655 245.806 79.3223 246.121 79.733C246.437 80.1363 246.917 80.338 247.562 80.338C247.929 80.338 248.248 80.2977 248.519 80.217C248.798 80.129 249.066 80.0007 249.322 79.832C249.469 79.7293 249.623 79.6927 249.784 79.722C249.946 79.744 250.081 79.832 250.191 79.986C250.301 80.14 250.345 80.3087 250.323 80.492C250.301 80.6753 250.202 80.8293 250.026 80.954C249.711 81.1813 249.341 81.3537 248.915 81.471C248.497 81.5883 248.035 81.647 247.529 81.647C247.009 81.647 246.543 81.5737 246.132 81.427C245.729 81.2803 245.384 81.053 245.098 80.745C244.82 80.437 244.603 80.0447 244.449 79.568C244.303 79.084 244.229 78.5083 244.229 77.841V77.39C244.229 76.7227 244.303 76.1507 244.449 75.674C244.603 75.19 244.823 74.794 245.109 74.486C245.395 74.178 245.747 73.9507 246.165 73.804C246.583 73.6573 247.056 73.584 247.584 73.584Z" fill="#C5CCCC"/>
<path d="M242.74 73.7051C242.909 73.7051 243.03 73.7637 243.103 73.8811C243.184 73.9911 243.224 74.1267 243.224 74.2881C243.224 74.4421 243.184 74.5777 243.103 74.6951C243.03 74.8124 242.909 74.8711 242.74 74.8711H239.451V76.9501H242.52C242.681 76.9501 242.799 77.0087 242.872 77.1261C242.953 77.2361 242.993 77.3681 242.993 77.5221C242.993 77.6761 242.953 77.8117 242.872 77.9291C242.799 78.0391 242.681 78.0941 242.52 78.0941H239.451V80.3601H242.817C242.986 80.3601 243.107 80.4187 243.18 80.5361C243.261 80.6534 243.301 80.7891 243.301 80.9431C243.301 81.1044 243.261 81.2437 243.18 81.3611C243.107 81.4711 242.986 81.5261 242.817 81.5261H238.989C238.637 81.5261 238.391 81.4601 238.252 81.3281C238.12 81.1961 238.054 80.9577 238.054 80.6131V74.6181C238.054 74.2734 238.12 74.0351 238.252 73.9031C238.391 73.7711 238.637 73.7051 238.989 73.7051H242.74Z" fill="#C5CCCC"/>
<path d="M234.015 73.7051C234.837 73.7051 235.471 73.9104 235.918 74.3211C236.366 74.7244 236.589 75.2707 236.589 75.9601V76.1581C236.589 76.6641 236.468 77.0857 236.226 77.4231C235.992 77.7531 235.669 78.0024 235.258 78.1711L236.644 80.6241C236.747 80.8074 236.765 80.9797 236.699 81.1411C236.641 81.3024 236.527 81.4234 236.358 81.5041C236.19 81.5847 236.017 81.6141 235.841 81.5921C235.665 81.5701 235.53 81.4637 235.434 81.2731L233.927 78.3911C233.891 78.3984 233.85 78.4021 233.806 78.4021C233.762 78.4021 233.722 78.4021 233.685 78.4021H232.42V80.9871C232.42 81.1997 232.351 81.3537 232.211 81.4491C232.072 81.5444 231.907 81.5921 231.716 81.5921C231.526 81.5921 231.361 81.5444 231.221 81.4491C231.082 81.3537 231.012 81.1997 231.012 80.9871V74.6181C231.012 74.2734 231.078 74.0351 231.21 73.9031C231.35 73.7711 231.595 73.7051 231.947 73.7051H234.015ZM232.42 77.2251H233.707C234.243 77.2251 234.624 77.1334 234.851 76.9501C235.079 76.7667 235.192 76.4954 235.192 76.1361V75.9931C235.192 75.6264 235.082 75.3514 234.862 75.1681C234.65 74.9774 234.305 74.8821 233.828 74.8821H232.42V77.2251Z" fill="#C5CCCC"/>
<path d="M187.508 31.4615C184.301 36.5009 180.827 39.6695 179.491 40.6239C179.3 40.8148 181.667 41.0821 192.662 40.6239C203.657 40.1658 214.421 28.5983 219.002 17.1453L193.807 16C193.044 19.0541 190.715 26.4222 187.508 31.4615Z" fill="#F9BF4B"/>
<mask id="mask3_4984_40484" style="mask-type:alpha" maskUnits="userSpaceOnUse" x="179" y="16" width="40" height="25">
<path d="M187.504 31.4625C184.297 36.5018 180.823 39.6705 179.487 40.6249C179.296 40.8158 181.663 41.083 192.658 40.6249C203.653 40.1668 214.417 28.5993 218.998 17.1463L193.803 16.001C193.04 19.0551 190.711 26.4232 187.504 31.4625Z" fill="#F9BF4B"/>
</mask>
<g mask="url(#mask3_4984_40484)">
<path d="M216.947 29.9103L187.795 27.7674L189.106 7.42041L221.037 8.05166L216.947 29.9103Z" fill="#FFD47E"/>
</g>
<path d="M168.034 35.4702L152 42.9147C154.863 44.6326 161.165 45.6309 165.744 45.7779C175.38 46.0872 186.927 43.2556 194.944 40.3924C179.826 40.8505 173.761 38.3335 168.034 35.4702Z" fill="#E1AC44"/>
</svg>
