<svg width="360" height="200" viewBox="0 0 360 200" fill="none" xmlns="http://www.w3.org/2000/svg">
<path fill-rule="evenodd" clip-rule="evenodd" d="M113.215 39.002C113.215 34.5837 116.797 31.002 121.215 31.002H218.477H218.595H220.659C222.082 31.002 223.418 31.3732 224.575 32.0241C224.241 31.9205 223.909 31.8702 223.586 31.8702C220.616 31.8687 218.495 36.2085 218.495 38.8115V56.5986H218.595V156.719C218.595 161.137 215.013 164.719 210.595 164.719H113.215V39.002ZM228.659 39.0453V39.002C228.659 37.7279 228.362 36.5234 227.832 35.4543C228.232 36.4303 228.527 37.6211 228.659 39.0453Z" fill="#ECECEC"/>
<mask id="mask0_472_63920" style="mask-type:alpha" maskUnits="userSpaceOnUse" x="113" y="31" width="106" height="134">
<path d="M113.219 39C113.219 34.5817 116.8 31 121.219 31H218.598V156.717C218.598 161.135 215.016 164.717 210.598 164.717H113.219V39Z" fill="#D9D9D9"/>
</mask>
<g mask="url(#mask0_472_63920)">
<g style="mix-blend-mode:multiply">
<rect x="199.234" y="148.855" width="19.75" height="15.8594" fill="black" fill-opacity="0.08"/>
</g>
</g>
<rect x="126" y="55.002" width="38" height="4" rx="2" fill="#ACB8B8" fill-opacity="0.6"/>
<rect x="126" y="69.002" width="38" height="4" rx="2" fill="#ACB8B8" fill-opacity="0.6"/>
<rect x="126" y="83.002" width="38" height="4" rx="2" fill="#ACB8B8" fill-opacity="0.6"/>
<rect x="126" y="97.001" width="38" height="4" rx="2" fill="#ACB8B8" fill-opacity="0.6"/>
<rect x="126" y="111.001" width="38" height="4" rx="2" fill="#ACB8B8" fill-opacity="0.6"/>
<path d="M228.681 39.0618C228.257 33.9706 225.711 31 223.59 31C220.62 30.9985 218.499 34.5436 218.499 38.8603V56.0319H236.318C230.802 53.9106 229.105 44.1529 228.681 39.0618Z" fill="#C3C3C3"/>
<rect x="170.785" y="42.5137" width="88.4125" height="113.349" rx="10" fill="#7D6BCC"/>
<rect opacity="0.5" x="177.582" y="50.5645" width="74.8106" height="44.0897" rx="6" fill="#35208E"/>
<path opacity="0.5" fill-rule="evenodd" clip-rule="evenodd" d="M183.582 50.5645C180.268 50.5645 177.582 53.2507 177.582 56.5645V88.6542C177.582 90.0718 178.074 91.3747 178.896 92.4015C178.693 91.8576 178.582 91.2688 178.582 90.6542V56.5645C178.582 53.803 180.821 51.5645 183.582 51.5645H248.393C249.007 51.5645 249.596 51.6754 250.14 51.8782C249.113 51.0561 247.81 50.5645 246.393 50.5645H183.582Z" fill="#35208E"/>
<rect x="177.586" y="101.454" width="21.5364" height="21.5364" rx="6" fill="#E7E7EF"/>
<rect x="177.586" y="127.525" width="21.5364" height="21.5364" rx="6" fill="#E7E7EF"/>
<rect x="203.654" y="101.454" width="21.5364" height="21.5364" rx="6" fill="#E7E7EF"/>
<rect x="203.654" y="127.525" width="21.5364" height="21.5364" rx="6" fill="#E7E7EF"/>
<rect x="230.864" y="101.454" width="21.5364" height="47.6067" rx="6" fill="#F9AB37"/>
<rect x="235.004" y="120.998" width="13" height="2.5" rx="1.25" fill="white"/>
<rect x="235.004" y="126.998" width="13" height="2.5" rx="1.25" fill="white"/>
<path d="M245.074 72.6203C245.074 71.174 244.923 69.9301 244.622 68.8888C244.32 67.833 243.897 66.9652 243.351 66.2854C242.82 65.5912 242.189 65.0777 241.457 64.7451C240.725 64.4124 239.929 64.2461 239.068 64.2461C238.235 64.2461 237.453 64.4124 236.721 64.7451C236.003 65.0777 235.372 65.5912 234.827 66.2854C234.296 66.9652 233.879 67.833 233.578 68.8888C233.277 69.9301 233.126 71.174 233.126 72.6203C233.126 74.0521 233.277 75.296 233.578 76.3518C233.879 77.3931 234.296 78.2609 234.827 78.9552C235.372 79.6349 236.003 80.1411 236.721 80.4738C237.453 80.8065 238.235 80.9728 239.068 80.9728C239.929 80.9728 240.725 80.8065 241.457 80.4738C242.189 80.1411 242.82 79.6349 243.351 78.9552C243.897 78.2609 244.32 77.3931 244.622 76.3518C244.923 75.296 245.074 74.0521 245.074 72.6203ZM242.06 72.6203C242.06 73.7629 241.974 74.7102 241.801 75.4623C241.644 76.2144 241.428 76.8146 241.156 77.263C240.883 77.7113 240.56 78.0223 240.187 78.1958C239.828 78.3694 239.455 78.4562 239.068 78.4562C238.694 78.4562 238.328 78.3694 237.97 78.1958C237.625 78.0223 237.317 77.7113 237.044 77.263C236.771 76.8146 236.549 76.2144 236.377 75.4623C236.219 74.7102 236.14 73.7629 236.14 72.6203C236.14 71.4632 236.219 70.5087 236.377 69.7566C236.549 68.99 236.771 68.3898 237.044 67.9559C237.317 67.5075 237.625 67.1966 237.97 67.023C238.328 66.835 238.694 66.741 239.068 66.741C239.455 66.741 239.828 66.835 240.187 67.023C240.56 67.1966 240.883 67.5075 241.156 67.9559C241.428 68.3898 241.644 68.99 241.801 69.7566C241.974 70.5087 242.06 71.4632 242.06 72.6203Z" fill="white" fill-opacity="0.9"/>
<g style="mix-blend-mode:multiply">
<path d="M113 155.724L209.998 155.87L203.708 119.949L113 124.967L113 155.724Z" fill="#CCCCCC" fill-opacity="0.6"/>
</g>
<path fill-rule="evenodd" clip-rule="evenodd" d="M84 136.869C84 130.242 89.3726 124.869 96 124.869H194.693V124.869H199.238V126.543C195.634 126.679 194.452 131.236 194.312 133.532V164.724H194.312V180.869H185.841C185.771 179.274 184.456 178.002 182.844 178.002C181.231 178.002 179.916 179.274 179.847 180.869H176.841C176.771 179.274 175.456 178.002 173.844 178.002C172.231 178.002 170.916 179.274 170.847 180.869H168.075C168.006 179.274 166.69 178.002 165.078 178.002C163.466 178.002 162.151 179.274 162.081 180.869H159.606C159.537 179.274 158.222 178.002 156.609 178.002C154.997 178.002 153.682 179.274 153.612 180.869H150.841C150.771 179.274 149.456 178.002 147.844 178.002C146.231 178.002 144.916 179.274 144.847 180.869H141.841C141.771 179.274 140.456 178.002 138.844 178.002C137.231 178.002 135.916 179.274 135.847 180.869H133.075C133.006 179.274 131.69 178.002 130.078 178.002C128.466 178.002 127.151 179.274 127.081 180.869H123.841C123.771 179.274 122.456 178.002 120.844 178.002C119.231 178.002 117.916 179.274 117.847 180.869H115.075C115.006 179.274 113.69 178.002 112.078 178.002C110.466 178.002 109.151 179.274 109.081 180.869H106.075C106.006 179.274 104.69 178.002 103.078 178.002C101.466 178.002 100.151 179.274 100.081 180.869H97.3096C97.2401 179.274 95.9249 178.002 94.3125 178.002C92.7001 178.002 91.3849 179.274 91.3154 180.869H84V136.869Z" fill="#F2F2F2"/>
<path d="M204.494 135.03C204.494 127.817 201.379 124.885 199.275 124.862C195.937 124.827 194.312 129.699 194.312 133.149L194.312 164.717H211.9C208.945 164.717 208.072 161.204 206.798 157.454C205.426 153.416 204.494 142.242 204.494 135.03Z" fill="#C3C3C3"/>
<path d="M96.3975 136.381H182.295" stroke="#ACB8B8" stroke-opacity="0.6" stroke-linecap="square" stroke-dasharray="4 4"/>
<g opacity="0.6">
<path d="M156.799 149.368L161.572 162.096L166.345 149.368L171.118 162.096L175.891 149.368" stroke="#ACB8B8" stroke-width="3.5" stroke-linecap="round" stroke-linejoin="round"/>
<path d="M155.215 155.736L158.397 155.736" stroke="#ACB8B8" stroke-width="4" stroke-linecap="round" stroke-linejoin="round"/>
<path d="M174.31 155.736L177.492 155.736" stroke="#ACB8B8" stroke-width="4" stroke-linecap="round" stroke-linejoin="round"/>
</g>
<path d="M250.697 71.4199L249.55 69.0869L269.148 59.5442L270.091 61.5105L250.697 71.4199Z" fill="#E5A932"/>
<ellipse cx="10.8897" cy="6.13138" rx="10.8897" ry="6.13138" transform="matrix(0.891753 -0.456419 0.459002 0.886433 248.001 66.2568)" fill="#F2A540"/>
<ellipse cx="10.8896" cy="6.0764" rx="10.8896" ry="6.0764" transform="matrix(0.891753 -0.456418 0.459003 0.886433 246.951 64.1182)" fill="#FFD572"/>
<path d="M267.017 60.5858C267.561 61.6631 267.285 63.0813 266.285 64.5389C265.291 65.9886 263.613 67.4249 261.48 68.4895C259.347 69.5542 257.186 70.0346 255.423 69.9613C253.65 69.8877 252.34 69.2615 251.796 68.1842C251.252 67.1068 251.529 65.6887 252.528 64.2311C253.522 62.7814 255.201 61.3451 257.333 60.2805C259.466 59.2158 261.627 58.7354 263.391 58.8086C265.164 58.8823 266.473 59.5085 267.017 60.5858Z" fill="#FFD572" stroke="#F2A540" stroke-width="0.5"/>
<path d="M105.189 96.2716L106.386 93.8367L85.9318 83.8773L84.948 85.9294L105.189 96.2716Z" fill="#E5A932"/>
<ellipse cx="11.3652" cy="6.39911" rx="11.3652" ry="6.39911" transform="matrix(-0.891753 -0.456419 -0.459002 0.886433 108.001 90.8848)" fill="#F2A540"/>
<ellipse cx="11.3651" cy="6.34173" rx="11.3651" ry="6.34173" transform="matrix(-0.891753 -0.456418 -0.459003 0.886433 109.094 88.6543)" fill="#FFD572"/>
<path d="M88.0619 84.8828C87.4899 85.9873 87.7861 87.4675 88.8494 89.0075C89.9061 90.538 91.6869 92.0701 93.9467 93.2267C96.2065 94.3833 98.4953 94.9341 100.362 94.9C102.241 94.8657 103.625 94.2453 104.197 93.1408C104.768 92.0363 104.472 90.5561 103.409 89.0161C102.352 87.4856 100.572 85.9534 98.3118 84.7968C96.052 83.6402 93.7631 83.0894 91.8962 83.1235C90.0177 83.1579 88.6338 83.7783 88.0619 84.8828Z" fill="#FFD572" stroke="#F2A540" stroke-width="0.5"/>
<path d="M57.7605 64.5262L56.5681 62.9216L70.0565 53.0785L71.0437 54.434L57.7605 64.5262Z" fill="#E5A932"/>
<ellipse cx="8.35564" cy="4.71556" rx="8.35564" ry="4.71556" transform="matrix(0.794839 -0.606516 0.61222 0.790922 55.0112 60.9941)" fill="#F2A540"/>
<ellipse cx="8.35565" cy="4.67332" rx="8.35565" ry="4.67332" transform="matrix(0.794839 -0.606516 0.61222 0.790922 53.9248 59.5195)" fill="#FFD572"/>
<path d="M68.7482 53.9237C69.2845 54.6166 69.2286 55.7076 68.622 56.9545C68.0198 58.1926 66.8931 59.5393 65.3803 60.6936C63.8675 61.848 62.2669 62.5824 60.907 62.8416C59.5374 63.1027 58.4611 62.8756 57.9248 62.1827C57.3884 61.4898 57.4444 60.3988 58.0509 59.1519C58.6532 57.9139 59.7799 56.5672 61.2927 55.4128C62.8054 54.2585 64.4061 53.524 65.7659 53.2648C67.1356 53.0037 68.2118 53.2308 68.7482 53.9237Z" fill="#FFD572" stroke="#F2A540" stroke-width="0.3"/>
<path d="M283.754 18.7768L284.426 17.2442L297.297 22.9039L296.721 24.184L283.754 18.7768Z" fill="#E5A932"/>
<ellipse cx="7.00647" cy="3.9605" rx="7.00647" ry="3.9605" transform="matrix(0.92878 0.383564 -0.382747 0.91856 285.169 15.3271)" fill="#F2A540"/>
<ellipse cx="7.00639" cy="3.92497" rx="7.00639" ry="3.92497" transform="matrix(0.928781 0.383563 -0.382748 0.918559 285.795 13.9209)" fill="#FFD572"/>
<path d="M296.183 22.2159C295.9 22.893 295.091 23.3175 293.936 23.4107C292.79 23.5033 291.349 23.2629 289.889 22.6599C288.428 22.0569 287.239 21.2111 286.496 20.3381C285.746 19.4586 285.476 18.5881 285.758 17.911C286.04 17.2338 286.85 16.8094 288.005 16.7161C289.151 16.6235 290.592 16.8639 292.052 17.4669C293.513 18.0699 294.701 18.9157 295.445 19.7887C296.195 20.6682 296.465 21.5388 296.183 22.2159Z" fill="#FFD572" stroke="#F2A540" stroke-width="0.3"/>
</svg>
