<svg width="360" height="200" viewBox="0 0 360 200" fill="none" xmlns="http://www.w3.org/2000/svg">
<path d="M95.8379 157.275C101.682 159.411 106.562 159.831 108.271 159.774C108.55 159.811 106.762 161.531 97.3793 168.117C87.9969 174.702 71.7685 171.954 60.7259 165.385L80.8356 148.479C83.4015 150.521 89.9942 155.139 95.8379 157.275Z" fill="#E2E2E2"/>
<mask id="mask0_4904_40120" style="mask-type:alpha" maskUnits="userSpaceOnUse" x="60" y="148" width="49" height="24">
<path d="M95.8374 157.275C101.681 159.411 106.561 159.831 108.271 159.774C108.549 159.811 106.761 161.531 97.3788 168.116C87.9964 174.701 71.768 171.953 60.7254 165.384L80.8352 148.479C83.401 150.521 89.9937 155.139 95.8374 157.275Z" fill="#F9BF4B"/>
</mask>
<g mask="url(#mask0_4904_40120)">
<path d="M70.5152 174.633L93.2647 154.397L79.2935 138.401L53.2877 159.148L70.5152 174.633Z" fill="#E2E2E2"/>
</g>
<path d="M114.479 148.257L132.454 144.258C131.174 147.492 126.595 152.309 122.902 155.331C115.129 161.69 103.786 166.662 95.3429 169.372C108.135 160.176 111.557 154.252 114.479 148.257Z" fill="#C3C3C3"/>
<path d="M266.487 49.8452C270.317 48.4453 273.515 48.1701 274.636 48.2075C274.818 48.1833 273.646 47.0559 267.497 42.7401C261.348 38.4244 250.713 40.2252 243.476 44.5306L256.655 55.61C258.337 54.2717 262.657 51.2452 266.487 49.8452Z" fill="#E2E2E2"/>
<mask id="mask1_4904_40120" style="mask-type:alpha" maskUnits="userSpaceOnUse" x="243" y="40" width="32" height="16">
<path d="M266.487 49.8457C270.317 48.4458 273.515 48.1706 274.635 48.208C274.818 48.1838 273.646 47.0564 267.497 42.7406C261.348 38.4248 250.712 40.2257 243.475 44.5311L256.655 55.6105C258.336 54.2722 262.657 51.2457 266.487 49.8457Z" fill="#F9BF4B"/>
</mask>
<g mask="url(#mask1_4904_40120)">
<path d="M249.891 38.4695L264.801 51.7319L255.644 62.2153L238.601 48.6183L249.891 38.4695Z" fill="#E2E2E2"/>
</g>
<path d="M278.704 55.7552L290.484 58.3765C289.646 56.2569 286.645 53.1 284.224 51.1196C279.13 46.952 271.696 43.6931 266.163 41.917C274.546 47.9443 276.789 51.8263 278.704 55.7552Z" fill="#C3C3C3"/>
<path d="M227 86.4668L226.921 88.1913L224.79 135H117.026L116.894 132.964L114.565 98.6293L114.261 94.0392L114.009 90.2789C113.89 88.5414 114.935 86.9984 116.483 86.376C116.933 86.1945 117.423 86.0908 117.939 86.0778C118.296 86.0778 118.666 86.0778 119.05 86.0648C121.762 86.0259 125.401 86.013 129.714 86C130.839 86 131.99 86 133.194 86C136.713 86 140.563 86 144.652 86C153.874 86.013 164.246 86.0648 174.447 86.1167C175.281 86.1167 176.128 86.1167 176.961 86.1297C185.178 86.1686 193.222 86.2204 200.353 86.2723C200.472 86.2723 200.605 86.2723 200.724 86.2723C201.623 86.2723 202.523 86.2853 203.396 86.2853C207.471 86.3112 211.176 86.3371 214.404 86.3631C215.264 86.3631 216.098 86.3631 216.892 86.376C223.163 86.4279 227 86.4538 227 86.4538V86.4668Z" fill="#EFAD41"/>
<g style="mix-blend-mode:soft-light" opacity="0.3">
<path d="M207 109.598L128.606 131L116 86.398C116.451 86.2155 116.941 86.1112 117.458 86.0982C130.767 85.8636 172.535 86.0982 200.412 86.2937L207 109.598Z" fill="#010101"/>
</g>
<path d="M184.421 29.1728L116.884 42.6347C113.634 43.2825 111.525 46.4421 112.173 49.6919L128.184 130.015C128.831 133.265 131.991 135.374 135.241 134.727L202.778 121.265C206.027 120.617 208.137 117.457 207.489 114.207L191.478 33.8841C190.83 30.6343 187.671 28.525 184.421 29.1728Z" fill="#E5E5E4"/>
<path d="M229.996 43.3444C233.295 43.9484 235.458 47.1399 234.798 50.4283L232.116 63.7726L231.711 65.7592L229.645 76.0672L222.244 112.914C222.012 114.071 220.894 114.828 219.733 114.613L217.275 114.163L206.212 112.139L173.887 106.216L171.69 105.804L149 101.644C145.702 101.039 143.54 97.8502 144.199 94.5632L146.478 83.189L147.002 80.6027L148.335 73.9556L154.442 43.519L154.651 42.482L156.077 35.3851C156.679 32.3957 159.566 30.4404 162.565 30.9899L168.552 32.0866L195.594 37.0469L229.996 43.3444Z" fill="#EFEFEF"/>
<path d="M216 41H134C130.686 41 128 43.6863 128 47V111C128 114.314 130.686 117 134 117H216C219.314 117 222 114.314 222 111V47C222 43.6863 219.314 41 216 41Z" fill="white"/>
<path d="M174 61C174 59.8954 174.895 59 176 59H208C209.105 59 210 59.8954 210 61C210 62.1046 209.105 63 208 63H176C174.895 63 174 62.1046 174 61Z" fill="#E1E7E7" fill-opacity="0.6"/>
<path d="M174 73C174 71.8954 174.895 71 176 71H208C209.105 71 210 71.8954 210 73C210 74.1046 209.105 75 208 75H176C174.895 75 174 74.1046 174 73Z" fill="#E1E7E7" fill-opacity="0.6"/>
<path d="M137 92C137 90.8954 137.895 90 139 90H211C212.105 90 213 90.8954 213 92V113C213 114.105 212.105 115 211 115H139C137.895 115 137 114.105 137 113V92Z" fill="#E8E9E9" fill-opacity="0.6"/>
<path d="M157 61.5C157 64.5376 154.538 67 151.5 67C148.462 67 146 64.5376 146 61.5C146 58.4624 148.462 56 151.5 56C154.538 56 157 58.4624 157 61.5Z" fill="#ACB8B8" fill-opacity="0.6"/>
<path d="M140 78.2622C140 73.1468 144.335 69 149.683 69H153.317C158.665 69 163 73.1468 163 78.2622C163 78.7269 162.769 79.1594 162.33 79.3594C161.068 79.9351 157.872 81 151.5 81C145.128 81 141.932 79.9351 140.67 79.3594C140.231 79.1594 140 78.7269 140 78.2622Z" fill="#ACB8B8" fill-opacity="0.6"/>
<g style="mix-blend-mode:soft-light" opacity="0.8">
<path d="M228.079 84.4602L224.425 161.223C224.269 163.348 222.387 165 220.115 165H122.528C121.398 165 120.36 164.587 119.581 163.919C119.581 163.871 119.581 163.834 119.568 163.786L117.348 135.406H117.335L117.206 133.5L114.3 102.858C114.261 102.409 114.662 101.921 114.791 101.508C114.791 101.508 114.058 98.2114 115.037 96.9932C116.015 95.7751 116.921 95.7701 118.167 95.7823H118.933L121.555 95.8066L130.161 95.8794L133.575 95.9037L143.492 95.9766L168.246 96.1709C170.011 96.183 171.608 95.1872 172.283 93.6693L174.061 89.6255L177.644 81.5016C178.306 79.9836 179.889 79 181.642 79L223.782 80.1615C224.639 80.1615 225.431 80.3922 226.093 80.7929L225.69 82.7359H225.703C225.703 82.7359 225.807 82.748 225.859 82.7602C225.911 82.7602 225.963 82.7723 226.002 82.7844C226.067 82.7844 226.132 82.8087 226.197 82.8209C226.248 82.833 226.313 82.8452 226.365 82.8695C226.404 82.8695 226.443 82.8937 226.482 82.9059C226.508 82.9059 226.534 82.918 226.56 82.9302C226.599 82.9423 226.638 82.9545 226.677 82.9787C226.833 83.0395 226.988 83.1002 227.131 83.173C227.17 83.1852 227.196 83.2095 227.235 83.2216L227.378 83.2945C227.495 83.3552 227.598 83.4281 227.702 83.5009C227.741 83.5373 227.793 83.5616 227.832 83.5981C227.871 83.6223 227.91 83.6588 227.949 83.6952C228.001 83.7316 228.04 83.7681 228.079 83.8045C228.105 84.0352 228.105 84.266 228.079 84.4967V84.4602Z" fill="#010101"/>
</g>
<path d="M233 87.4106L227.309 167.136C227.15 169.31 225.222 171 222.895 171H123.322C121.048 171 119.16 169.397 118.921 167.298C118.921 167.248 118.921 167.211 118.908 167.161L116.634 138.126L116.488 136.175L114.015 104.618C113.975 104.158 114.015 103.699 114.148 103.276C114.64 101.5 116.381 100.17 118.469 100.183H118.642L121.328 100.207L129.372 100.27L132.868 100.294L142.495 100.369L169.765 100.58C171.573 100.593 173.208 99.5738 173.9 98.0208L176.865 91.2993L179.391 85.5594C180.069 84.0064 181.691 83 183.486 83H228.599C228.679 83 228.772 83 228.852 83C228.878 83 228.918 83 228.945 83C229.011 83 229.078 83 229.144 83.0124H229.184C229.184 83.0124 229.29 83.0248 229.344 83.0373C229.397 83.0373 229.45 83.0497 229.49 83.0621C229.556 83.0621 229.623 83.087 229.689 83.0994C229.742 83.1118 229.809 83.1242 229.862 83.1491C229.902 83.1491 229.942 83.1739 229.982 83.1864C230.008 83.1864 230.035 83.1988 230.062 83.2112C230.101 83.2236 230.141 83.2361 230.181 83.2609C230.341 83.323 230.5 83.3851 230.647 83.4597C230.687 83.4721 230.713 83.497 230.753 83.5094L230.899 83.5839C231.019 83.6461 231.125 83.7206 231.232 83.7951C231.272 83.8324 231.325 83.8573 231.365 83.8945C231.404 83.9194 231.444 83.9567 231.484 83.9939C231.537 84.0312 231.577 84.0685 231.617 84.1057C231.67 84.1554 231.724 84.2051 231.777 84.2548C231.83 84.3045 231.883 84.3542 231.923 84.4039C231.99 84.466 232.043 84.5282 232.096 84.5903C232.136 84.64 232.162 84.6773 232.202 84.727L232.309 84.876C232.362 84.9506 232.415 85.0376 232.455 85.1121C232.481 85.1618 232.508 85.2115 232.535 85.2612C232.561 85.3109 232.588 85.3606 232.601 85.3979C232.614 85.4351 232.641 85.4724 232.654 85.5097C232.681 85.5718 232.707 85.6215 232.734 85.6836L232.787 85.8451C232.787 85.8451 232.827 85.9569 232.84 86.0066C232.973 86.4415 233.027 86.9136 232.987 87.3981L233 87.4106Z" fill="#F9BF4B"/>
<g style="mix-blend-mode:soft-light" opacity="0.3">
<path d="M119.088 168C119.666 169.757 121.225 171 123.034 171H217.143C218.952 171 220.51 169.757 221.088 168H119.088Z" fill="#010101"/>
</g>
<g style="mix-blend-mode:soft-light" opacity="0.3">
<path d="M233 87.3988L227.278 167.136C227.117 169.31 225.179 171 222.839 171H174C174.775 170.13 175.578 169.26 176.407 168.415C181.955 162.687 188.399 157.369 193.212 151.131C196.3 147.142 198.694 142.744 200.458 138.121C201.18 136.232 201.795 134.294 202.317 132.343C202.41 131.995 202.491 131.647 202.584 131.312C202.758 130.591 202.918 129.87 203.065 129.137C203.975 124.714 204.376 120.191 204.322 115.705C204.322 115.27 204.309 114.835 204.295 114.4C204.295 114.077 204.269 113.754 204.255 113.431C203.921 105.975 202.424 98.5945 200.178 91.4247C199.937 90.6543 199.683 89.8964 199.429 89.1384C198.921 87.6348 197.571 85.2615 196.621 83H228.561C228.642 83 228.735 83 228.815 83C228.842 83 228.882 83 228.909 83C228.976 83 229.043 83 229.109 83.0124H229.15C229.15 83.0124 229.257 83.0249 229.31 83.0373C229.363 83.0373 229.417 83.0497 229.457 83.0621C229.524 83.0621 229.591 83.087 229.658 83.0994C229.711 83.1118 229.778 83.1243 229.831 83.1491C229.872 83.1491 229.912 83.174 229.952 83.1864C229.978 83.1864 230.005 83.1988 230.032 83.2112C230.072 83.2237 230.112 83.2361 230.152 83.2609C230.313 83.3231 230.473 83.3852 230.62 83.4598C230.66 83.4722 230.687 83.497 230.727 83.5095L230.874 83.584C230.995 83.6461 231.102 83.7207 231.208 83.7953C231.249 83.8325 231.302 83.8574 231.342 83.8947C231.382 83.9195 231.422 83.9568 231.462 83.9941C231.516 84.0313 231.556 84.0686 231.596 84.1059C231.65 84.1556 231.703 84.2053 231.757 84.255C231.81 84.3047 231.864 84.3544 231.904 84.4041C231.971 84.4663 232.024 84.5284 232.077 84.5905C232.118 84.6402 232.144 84.6775 232.184 84.7272L232.291 84.8763C232.345 84.9509 232.398 85.0378 232.438 85.1124C232.465 85.1621 232.492 85.2118 232.519 85.2615C232.545 85.3112 232.572 85.3609 232.586 85.3982C232.599 85.4355 232.626 85.4727 232.639 85.51C232.666 85.5722 232.692 85.6219 232.719 85.684L232.773 85.8455C232.773 85.8455 232.813 85.9574 232.826 86.0071C232.96 86.442 233.013 86.9141 232.973 87.3988H233Z" fill="#010101"/>
</g>
<path d="M195.084 117.7C195.208 114.247 197.727 111.442 201.105 110.713L202.359 110.442C210.076 108.776 217.569 106.202 224.681 102.773L229.033 100.675C231.228 99.6168 233.786 99.6168 235.981 100.675L240.333 102.773C247.445 106.202 254.938 108.776 262.655 110.442L263.895 110.71C267.28 111.441 269.801 114.254 269.922 117.714C270.266 127.627 269.812 148.027 261.462 160.718C253.614 172.646 237.139 184 232.507 184C227.875 184 211.03 172.13 203.553 160.718C195.165 147.913 194.727 127.579 195.084 117.7Z" fill="white"/>
<path fill-rule="evenodd" clip-rule="evenodd" d="M261.942 118.473L260.966 118.262C252.632 116.462 244.54 113.682 236.859 109.979L232.507 107.881L228.155 109.98C220.474 113.682 212.382 116.462 204.048 118.262L203.062 118.475C202.913 123.139 202.971 129.954 203.961 136.998C205.004 144.417 206.986 151.358 210.245 156.334C213.307 161.007 218.628 166.194 223.968 170.292C226.591 172.306 229.023 173.906 230.936 174.958C231.582 175.313 232.116 175.576 232.535 175.763C232.942 175.586 233.459 175.336 234.083 174.999C235.954 173.99 238.34 172.443 240.928 170.47C246.179 166.467 251.517 161.278 254.779 156.321C258.008 151.413 259.985 144.496 261.03 137.06C262.022 130.003 262.086 123.157 261.942 118.473ZM231.689 176.081C231.689 176.08 231.703 176.076 231.73 176.07C231.702 176.078 231.689 176.081 231.689 176.081ZM233.34 176.079C233.371 176.085 233.387 176.09 233.387 176.091C233.387 176.091 233.372 176.088 233.34 176.079ZM201.105 110.713C197.727 111.442 195.208 114.247 195.084 117.7C194.727 127.579 195.165 147.913 203.553 160.718C211.03 172.13 227.875 184 232.507 184C237.139 184 253.614 172.646 261.462 160.718C269.812 148.027 270.266 127.627 269.922 117.714C269.801 114.254 267.28 111.441 263.895 110.71L262.655 110.442C254.938 108.776 247.445 106.202 240.333 102.773L235.981 100.675C233.786 99.6168 231.228 99.6168 229.033 100.675L224.681 102.773C217.569 106.202 210.076 108.776 202.359 110.442L201.105 110.713Z" fill="#36B6AF"/>
<path d="M218 138C218 135.791 219.791 134 222 134H243C245.209 134 247 135.791 247 138V152C247 154.209 245.209 156 243 156H222C219.791 156 218 154.209 218 152V138Z" fill="#F9AB37"/>
<path fill-rule="evenodd" clip-rule="evenodd" d="M232.5 122C227.529 122 223.5 126.029 223.5 131V134H227.5V131C227.5 128.239 229.739 126 232.5 126C235.261 126 237.5 128.239 237.5 131V134H241.5V131C241.5 126.029 237.471 122 232.5 122Z" fill="#F9AB37"/>
<path d="M223.5 133H227.5V134H223.5V133Z" fill="#F59319"/>
<path d="M237.5 133H241.5V134H237.5V133Z" fill="#F59319"/>
<path d="M236.07 143.568C236.07 141.704 234.583 140.189 232.752 140.189C230.921 140.189 229.433 141.704 229.433 143.568C229.433 144.765 230.047 145.824 230.973 146.417V152.189H234.541V146.417C235.467 145.813 236.081 144.765 236.081 143.568H236.07Z" fill="#F59319"/>
<g style="mix-blend-mode:soft-light" opacity="0.5">
<path d="M230.035 143.568C230.035 141.768 231.182 140.295 232.93 140.189C232.867 140.189 232.794 140.189 232.721 140.189C230.891 140.189 229.403 141.704 229.403 143.568C229.403 144.765 230.017 145.824 230.943 146.417V152.189H231.575V146.417C230.649 145.813 230.035 144.765 230.035 143.568Z" fill="#010101"/>
</g>
<g style="mix-blend-mode:multiply" opacity="0.4">
<path fill-rule="evenodd" clip-rule="evenodd" d="M232 183.96C232.182 183.986 232.352 184 232.507 184C237.139 184 253.614 172.645 261.462 160.717C269.812 148.026 270.266 127.627 269.922 117.714C269.801 114.254 267.28 111.44 263.895 110.709L262.655 110.442C254.938 108.775 247.445 106.201 240.333 102.773L235.981 100.675C234.727 100.07 233.355 99.8109 232 99.8969V183.96Z" fill="#D9D9D9"/>
</g>
</svg>
