<svg width="361" height="201" viewBox="0 0 361 201" fill="none" xmlns="http://www.w3.org/2000/svg">
<g filter="url(#filter0_i_6852_46035)">
<path fill-rule="evenodd" clip-rule="evenodd" d="M132.705 56.7751C141.49 57.5842 148.381 65.3302 148.381 74.7663C148.381 84.1684 141.54 91.8926 132.8 92.7485V92.8273H131.183H79.5226L79.4415 92.8275L79.3604 92.8273H78.7065V92.8113C69.5492 92.407 62.2434 84.4827 62.2434 74.7665C62.2434 64.9968 69.6298 57.0389 78.8578 56.7157C81.4235 44.1993 92.5 34.7852 105.775 34.7852C119.072 34.7852 130.162 44.2291 132.705 56.7751Z" fill="url(#paint0_linear_6852_46035)"/>
</g>
<path fill-rule="evenodd" clip-rule="evenodd" d="M99.0233 52.9287C98.4959 52.9287 98.0684 53.3562 98.0684 53.8836V70.1309H95.6676C94.8734 70.1309 94.4263 71.0441 94.9134 71.6714L104.468 83.9769C104.85 84.4693 105.594 84.4693 105.976 83.9769L115.531 71.6714C116.018 71.0441 115.571 70.1309 114.777 70.1309H112.375V53.8836C112.375 53.3562 111.947 52.9287 111.42 52.9287H99.0233Z" fill="url(#paint1_linear_6852_46035)" fill-opacity="0.5"/>
<path d="M152.148 23.3262H236.794C237.896 23.3262 238.79 24.2557 238.79 25.4024V145.181C238.79 154.354 231.64 161.791 222.82 161.791H142.76C133.94 161.791 126.79 154.354 126.79 145.181V50.7993L152.148 23.3262Z" fill="#ECECEC"/>
<path d="M126.79 139.716C126.79 131.404 133.528 124.666 141.84 124.666C150.152 124.666 156.891 131.404 156.891 139.716V146.74C156.891 155.052 150.152 161.791 141.84 161.791C133.528 161.791 126.79 155.052 126.79 146.74V139.716Z" fill="#A8A8A8"/>
<path d="M143.92 60.4016C143.92 59.3468 144.722 58.4917 145.711 58.4917H178.129C179.118 58.4917 179.92 59.3468 179.92 60.4016V60.5953C179.92 61.6501 179.118 62.5052 178.129 62.5052H145.711C144.722 62.5052 143.92 61.6501 143.92 60.5953V60.4016Z" fill="#C5CCCC"/>
<path d="M143.92 77.4108C143.92 76.356 144.722 75.501 145.711 75.501H178.129C179.118 75.501 179.92 76.356 179.92 77.4108V77.6046C179.92 78.6594 179.118 79.5144 178.129 79.5144H145.711C144.722 79.5144 143.92 78.6594 143.92 77.6046V77.4108Z" fill="#C5CCCC"/>
<path d="M144.85 94.4684C144.85 93.4137 145.705 92.5586 146.76 92.5586H215.183C216.238 92.5586 217.093 93.4137 217.093 94.4684V94.6622C217.093 95.717 216.238 96.5721 215.183 96.5721H146.76C145.705 96.5721 144.85 95.717 144.85 94.6622V94.4684Z" fill="#C5CCCC"/>
<path d="M144.85 111.526C144.85 110.471 145.705 109.616 146.76 109.616H215.183C216.238 109.616 217.093 110.471 217.093 111.526V111.719C217.093 112.774 216.238 113.629 215.183 113.629H146.76C145.705 113.629 144.85 112.774 144.85 111.719V111.526Z" fill="#C5CCCC"/>
<path d="M92.0586 107.336C92.0586 104.162 94.6318 101.589 97.8061 101.589H155.156C158.331 101.589 160.904 104.162 160.904 107.336V145.966C160.904 149.14 158.331 151.713 155.156 151.713H97.8061C94.6318 151.713 92.0586 149.14 92.0586 145.966V107.336Z" fill="#3AC3BC"/>
<mask id="mask0_6852_46035" style="mask-type:alpha" maskUnits="userSpaceOnUse" x="92" y="101" width="69" height="51">
<path d="M92.0586 107.336C92.0586 104.162 94.6318 101.589 97.8061 101.589H155.156C158.331 101.589 160.904 104.162 160.904 107.336V145.966C160.904 149.14 158.331 151.713 155.156 151.713H97.8061C94.6318 151.713 92.0586 149.14 92.0586 145.966V107.336Z" fill="#2C958F"/>
</mask>
<g mask="url(#mask0_6852_46035)">
<path d="M98.0049 151.726H154.145L92.0586 101.691V145.78C92.0586 149.064 94.7208 151.726 98.0049 151.726Z" fill="#29B7AF"/>
<path d="M155.138 151.726H98.9977L161.084 101.691V145.78C161.084 149.064 158.422 151.726 155.138 151.726Z" fill="#29B7AF"/>
<path d="M153.88 151.757H98.6953L123.149 128.655C124.922 126.98 127.695 126.981 129.467 128.658L153.88 151.757Z" fill="#32A8A1"/>
<path d="M160.904 101.589H92.0586L122.182 131.305C124.491 133.582 128.198 133.59 130.516 131.322L160.904 101.589Z" fill="#3BC8C0"/>
</g>
<path d="M224.295 59.4502C224.295 68.5669 216.905 75.9575 207.788 75.9575C198.671 75.9575 191.281 68.5669 191.281 59.4502C191.281 50.3335 198.671 42.9429 207.788 42.9429C216.905 42.9429 224.295 50.3335 224.295 59.4502Z" fill="white"/>
<circle cx="207.907" cy="53.7086" r="4.16322" fill="#2AD6CE"/>
<path d="M198.713 66.3628C198.713 62.5357 201.816 59.4331 205.643 59.4331H210.171C213.998 59.4331 217.101 62.5357 217.101 66.3628C217.101 66.7301 216.916 67.0686 216.579 67.2141C215.58 67.6454 213.025 68.4534 207.907 68.4534C202.789 68.4534 200.234 67.6454 199.235 67.2141C198.897 67.0686 198.713 66.7301 198.713 66.3628Z" fill="#05B0A8"/>
<g style="mix-blend-mode:multiply">
<path d="M242.177 161.623L146.177 161.791L149.641 121.656L242.177 126.274L242.177 161.623Z" fill="#C5C5C5" fill-opacity="0.4"/>
</g>
<path fill-rule="evenodd" clip-rule="evenodd" d="M142.895 161.737C143.323 161.772 143.757 161.79 144.194 161.79H236.853C245.713 161.79 252.895 154.354 252.895 145.181L252.895 132.701H155.997V146.955C155.997 154.72 150.234 161.092 142.895 161.737Z" fill="#E8E8E8"/>
<path d="M153.164 46.9796V23.3262L126.79 50.7993H149.344C151.454 50.7993 153.164 49.0891 153.164 46.9796Z" fill="#D9D9D9"/>
<path fill-rule="evenodd" clip-rule="evenodd" d="M286.975 159.877L258.892 131.793L264.294 126.392L292.377 154.475L286.975 159.877Z" fill="#2E3149"/>
<path d="M265.811 143.296C265.377 142.862 265.377 142.158 265.811 141.725L274.225 133.311C274.659 132.877 275.363 132.877 275.797 133.311L290.447 147.961C293.204 150.718 293.204 155.189 290.447 157.946L-nan -nanL290.447 157.946C287.69 160.704 283.219 160.704 280.462 157.946L265.811 143.296Z" fill="#5C6174"/>
<path d="M268.77 146.254L278.755 136.269L280.627 138.141L270.642 148.127L268.77 146.254Z" fill="white"/>
<g filter="url(#filter1_i_6852_46035)">
<path fill-rule="evenodd" clip-rule="evenodd" d="M259 126.499C267.39 118.108 267.39 104.504 259 96.1135C250.609 87.7228 237.005 87.7228 228.614 96.1135C220.223 104.504 220.223 118.108 228.614 126.499C237.005 134.89 250.609 134.89 259 126.499ZM264.401 131.901C275.775 120.527 275.775 102.086 264.401 90.7116C253.027 79.3375 234.586 79.3375 223.212 90.7116C211.838 102.086 211.838 120.527 223.212 131.901C234.586 143.275 253.027 143.275 264.401 131.901Z" fill="url(#paint2_linear_6852_46035)"/>
</g>
<defs>
<filter id="filter0_i_6852_46035" x="62.2434" y="34.7852" width="86.1372" height="61.9222" filterUnits="userSpaceOnUse" color-interpolation-filters="sRGB">
<feFlood flood-opacity="0" result="BackgroundImageFix"/>
<feBlend mode="normal" in="SourceGraphic" in2="BackgroundImageFix" result="shape"/>
<feColorMatrix in="SourceAlpha" type="matrix" values="0 0 0 0 0 0 0 0 0 0 0 0 0 0 0 0 0 0 127 0" result="hardAlpha"/>
<feOffset dy="3.8797"/>
<feGaussianBlur stdDeviation="1.93985"/>
<feComposite in2="hardAlpha" operator="arithmetic" k2="-1" k3="1"/>
<feColorMatrix type="matrix" values="0 0 0 0 0.933333 0 0 0 0 0.933333 0 0 0 0 0.933333 0 0 0 0.25 0"/>
<feBlend mode="normal" in2="shape" result="effect1_innerShadow_6852_46035"/>
</filter>
<filter id="filter1_i_6852_46035" x="214.682" y="82.1812" width="59.2502" height="59.25" filterUnits="userSpaceOnUse" color-interpolation-filters="sRGB">
<feFlood flood-opacity="0" result="BackgroundImageFix"/>
<feBlend mode="normal" in="SourceGraphic" in2="BackgroundImageFix" result="shape"/>
<feColorMatrix in="SourceAlpha" type="matrix" values="0 0 0 0 0 0 0 0 0 0 0 0 0 0 0 0 0 0 127 0" result="hardAlpha"/>
<feOffset dx="1" dy="1"/>
<feGaussianBlur stdDeviation="1"/>
<feComposite in2="hardAlpha" operator="arithmetic" k2="-1" k3="1"/>
<feColorMatrix type="matrix" values="0 0 0 0 1 0 0 0 0 1 0 0 0 0 1 0 0 0 0.24 0"/>
<feBlend mode="normal" in2="shape" result="effect1_innerShadow_6852_46035"/>
</filter>
<linearGradient id="paint0_linear_6852_46035" x1="62.2434" y1="71.216" x2="126.701" y2="71.216" gradientUnits="userSpaceOnUse">
<stop stop-color="#D4F2F1"/>
<stop offset="1" stop-color="#D4F2F1" stop-opacity="0.09"/>
</linearGradient>
<linearGradient id="paint1_linear_6852_46035" x1="105.222" y1="52.9287" x2="105.222" y2="84.3462" gradientUnits="userSpaceOnUse">
<stop stop-color="#36B6AF"/>
<stop offset="1" stop-color="#36B6AF" stop-opacity="0.54"/>
</linearGradient>
<linearGradient id="paint2_linear_6852_46035" x1="223.212" y1="90.7116" x2="264.401" y2="131.901" gradientUnits="userSpaceOnUse">
<stop stop-color="#3F455B"/>
<stop offset="1" stop-color="#4C5471"/>
</linearGradient>
</defs>
</svg>
