<svg width="360" height="200" viewBox="0 0 360 200" fill="none" xmlns="http://www.w3.org/2000/svg">
<rect x="57" y="65" width="46" height="30" rx="4" fill="#F3F3F3"/>
<path d="M63 73.8C63 72.8059 63.9594 72 65.1429 72H75.8571C77.0406 72 78 72.8059 78 73.8V85.2C78 86.1941 77.0406 87 75.8571 87H65.1429C63.9594 87 63 86.1941 63 85.2V73.8Z" fill="#E0E0E0"/>
<rect x="81" y="75" width="17" height="3" rx="1.5" fill="#E0E0E0"/>
<rect x="81" y="82" width="10" height="3" rx="1.5" fill="#E0E0E0"/>
<rect width="11" height="1" rx="0.5" transform="matrix(0 -1 -1 0 96 107)" fill="#E0E0E0"/>
<rect x="218.335" y="142.666" width="38.8889" height="9.33333" fill="#F9BF4B"/>
<rect x="223" y="133.334" width="38.8889" height="9.33333" fill="#F9BF4B"/>
<rect x="216" y="124" width="38.8889" height="9.33333" fill="#F9BF4B"/>
<rect x="223" y="114.666" width="38.8889" height="9.33333" fill="#F9BF4B"/>
<rect x="225.335" y="105.334" width="38.8889" height="9.33333" fill="#F9BF4B"/>
<rect x="221.44" y="96" width="38.8889" height="9.33333" fill="#F9BF4B"/>
<rect x="234.665" y="142.666" width="6.22222" height="9.33333" fill="#FFE19B"/>
<rect x="239.335" y="133.334" width="6.22222" height="9.33333" fill="#FFE19B"/>
<rect x="232.335" y="124" width="6.22222" height="9.33333" fill="#FFE19B"/>
<rect x="239.335" y="114.666" width="6.22222" height="9.33333" fill="#FFE19B"/>
<rect x="241.665" y="105.334" width="6.22222" height="9.33333" fill="#FFE19B"/>
<rect x="237.776" y="96" width="6.22222" height="9.33333" fill="#FFE19B"/>
<path d="M223 142.666H256.444C256.874 142.666 257.222 143.014 257.222 143.444H223V142.666Z" fill="black" fill-opacity="0.1"/>
<rect x="223" y="133.334" width="31.8889" height="0.777778" fill="black" fill-opacity="0.1"/>
<rect x="223" y="124" width="31.8889" height="0.777778" fill="black" fill-opacity="0.1"/>
<rect x="225.335" y="114.666" width="36.5556" height="0.777778" fill="black" fill-opacity="0.1"/>
<rect x="225.335" y="105.334" width="35" height="0.777778" fill="black" fill-opacity="0.1"/>
<rect x="256" y="51" width="39" height="39" rx="4" fill="#F3F3F3"/>
<path fill-rule="evenodd" clip-rule="evenodd" d="M127.215 33.0015C127.215 28.5832 130.797 25.0015 135.215 25.0015H232.477H232.595H234.659C236.082 25.0015 237.418 25.3727 238.575 26.0236C238.241 25.92 237.909 25.8697 237.586 25.8697C234.616 25.8682 232.495 30.208 232.495 32.811V50.5982H232.595V150.718C232.595 155.137 229.013 158.718 224.595 158.718H127.215V33.0015ZM242.659 33.0449V33.0015C242.659 31.7274 242.362 30.5229 241.832 29.4538C242.232 30.4298 242.527 31.6207 242.659 33.0449Z" fill="#ECECEC"/>
<mask id="mask0_4986_40242" style="mask-type:alpha" maskUnits="userSpaceOnUse" x="127" y="25" width="106" height="134">
<path d="M127.219 33C127.219 28.5817 130.8 25 135.219 25H232.598V150.717C232.598 155.135 229.016 158.717 224.598 158.717H127.219V33Z" fill="#D9D9D9"/>
</mask>
<g mask="url(#mask0_4986_40242)">
<g style="mix-blend-mode:multiply">
<rect x="213.234" y="142.855" width="19.75" height="15.8594" fill="black" fill-opacity="0.08"/>
</g>
</g>
<path d="M242.681 33.0618C242.257 27.9706 239.711 25 237.59 25C234.62 24.9985 232.499 28.5436 232.499 32.8603V50.0319H250.318C244.802 47.9106 243.105 38.1529 242.681 33.0618Z" fill="#C3C3C3"/>
<g style="mix-blend-mode:multiply">
<path d="M127 149.724L223.998 149.87L217.708 113.949L127 118.967L127 149.724Z" fill="#CCCCCC" fill-opacity="0.6"/>
</g>
<path fill-rule="evenodd" clip-rule="evenodd" d="M98 130.869C98 124.241 103.373 118.869 110 118.869H208.693V118.869H213.238V120.543C209.634 120.678 208.452 125.236 208.312 127.532V158.723H208.312V174.869H199.841C199.771 173.273 198.456 172.001 196.844 172.001C195.231 172.001 193.916 173.273 193.847 174.869H190.841C190.771 173.273 189.456 172.001 187.844 172.001C186.231 172.001 184.916 173.273 184.847 174.869H182.075C182.006 173.273 180.69 172.001 179.078 172.001C177.466 172.001 176.151 173.273 176.081 174.869H173.606C173.537 173.273 172.222 172.001 170.609 172.001C168.997 172.001 167.682 173.273 167.612 174.869H164.841C164.771 173.273 163.456 172.001 161.844 172.001C160.231 172.001 158.916 173.273 158.847 174.869H155.841C155.771 173.273 154.456 172.001 152.844 172.001C151.231 172.001 149.916 173.273 149.847 174.869H147.075C147.006 173.273 145.69 172.001 144.078 172.001C142.466 172.001 141.151 173.273 141.081 174.869H137.841C137.771 173.273 136.456 172.001 134.844 172.001C133.231 172.001 131.916 173.273 131.847 174.869H129.075C129.006 173.273 127.69 172.001 126.078 172.001C124.466 172.001 123.151 173.273 123.081 174.869H120.075C120.006 173.273 118.69 172.001 117.078 172.001C115.466 172.001 114.151 173.273 114.081 174.869H111.31C111.24 173.273 109.925 172.001 108.312 172.001C106.7 172.001 105.385 173.273 105.315 174.869H98V130.869Z" fill="#F2F2F2"/>
<path d="M218.494 129.029C218.494 121.817 215.379 118.884 213.275 118.862C209.937 118.826 208.312 123.699 208.312 127.149L208.312 158.717H225.9C222.945 158.717 222.072 155.203 220.798 151.454C219.426 147.415 218.494 136.242 218.494 129.029Z" fill="#C3C3C3"/>
<path d="M110.397 130.381H196.295" stroke="#ACB8B8" stroke-opacity="0.6" stroke-linecap="square" stroke-dasharray="4 4"/>
<path d="M170.799 143.368L175.572 156.096L180.345 143.368L185.118 156.096L189.891 143.368" stroke="#06295A" stroke-width="3.5" stroke-linecap="round" stroke-linejoin="round"/>
<path d="M169.215 149.736L172.397 149.736" stroke="#06295A" stroke-width="4" stroke-linecap="round" stroke-linejoin="round"/>
<path d="M188.31 149.736L191.492 149.736" stroke="#06295A" stroke-width="4" stroke-linecap="round" stroke-linejoin="round"/>
<rect x="213" y="67" width="43" height="1" rx="0.5" fill="#E0E0E0"/>
<rect x="152" y="86" width="51" height="5" rx="2.5" fill="#BDBDBD"/>
<circle cx="255.5" cy="67.5" r="2.5" fill="#D9D9D9"/>
<rect x="152" y="99" width="28" height="5" rx="2.5" fill="#BDBDBD"/>
<circle cx="178" cy="57" r="18" fill="white"/>
<path d="M183 51C183 53.7614 180.761 56 178 56C175.239 56 173 53.7614 173 51C173 48.2386 175.239 46 178 46C180.761 46 183 48.2386 183 51Z" fill="#20C7BF"/>
<path d="M168 65.7185C168 61.4557 171.77 58 176.42 58H179.58C184.23 58 188 61.4557 188 65.7185C188 66.1057 187.799 66.4662 187.417 66.6328C186.32 67.1126 183.54 68 178 68C172.46 68 169.68 67.1126 168.583 66.6328C168.201 66.4662 168 66.1057 168 65.7185Z" fill="#00A69E"/>
<circle cx="2.5" cy="2.5" r="2.5" transform="matrix(-1 0 0 1 98 93)" fill="#D9D9D9"/>
<rect width="41" height="1" rx="0.5" transform="matrix(-1 0 0 1 136 106)" fill="#E0E0E0"/>
<path d="M286 70.5C286 72.5767 285.384 74.6068 284.23 76.3335C283.077 78.0602 281.437 79.406 279.518 80.2007C277.6 80.9955 275.488 81.2034 273.452 80.7982C271.415 80.3931 269.544 79.3931 268.075 77.9246C266.607 76.4562 265.607 74.5852 265.202 72.5484C264.797 70.5116 265.005 68.4004 265.799 66.4818C266.594 64.5632 267.94 62.9233 269.667 61.7696C271.393 60.6158 273.423 60 275.5 60V70.5H286Z" fill="#82A3D2"/>
<path d="M277.5 58C278.879 58 280.244 58.2716 281.518 58.7993C282.792 59.3269 283.95 60.1004 284.925 61.0754C285.9 62.0504 286.673 63.2079 287.201 64.4818C287.728 65.7557 288 67.1211 288 68.5L277.5 68.5V58Z" fill="#5478AC"/>
</svg>
