<svg width="360" height="200" viewBox="0 0 360 200" fill="none" xmlns="http://www.w3.org/2000/svg">
<path d="M101.838 157.275C107.682 159.411 112.562 159.831 114.272 159.774C114.55 159.811 112.762 161.531 103.38 168.117C93.9974 174.702 77.769 171.954 66.7263 165.385L86.8361 148.479C89.402 150.521 95.9947 155.139 101.838 157.275Z" fill="#E2E2E2"/>
<mask id="mask0_4914_201258" style="mask-type:alpha" maskUnits="userSpaceOnUse" x="66" y="148" width="49" height="24">
<path d="M101.838 157.275C107.682 159.411 112.562 159.831 114.272 159.774C114.55 159.811 112.762 161.531 103.38 168.116C93.9974 174.701 77.769 171.953 66.7263 165.384L86.8361 148.479C89.402 150.521 95.9947 155.139 101.838 157.275Z" fill="#F9BF4B"/>
</mask>
<g mask="url(#mask0_4914_201258)">
<path d="M76.5169 174.633L99.2664 154.397L85.2952 138.401L59.2894 159.148L76.5169 174.633Z" fill="#E2E2E2"/>
</g>
<path d="M120.479 148.257L138.454 144.258C137.174 147.492 132.595 152.309 128.902 155.331C121.129 161.69 109.786 166.662 101.343 169.372C114.135 160.176 117.557 154.252 120.479 148.257Z" fill="#C3C3C3"/>
<path d="M272.489 49.845C276.319 48.445 279.517 48.1698 280.638 48.2072C280.821 48.183 279.649 47.0557 273.5 42.7399C267.351 38.4241 256.715 40.2249 249.478 44.5304L262.657 55.6098C264.339 54.2715 268.66 51.2449 272.489 49.845Z" fill="#E2E2E2"/>
<mask id="mask1_4914_201258" style="mask-type:alpha" maskUnits="userSpaceOnUse" x="249" y="40" width="32" height="16">
<path d="M272.489 49.8452C276.319 48.4453 279.517 48.1701 280.638 48.2075C280.821 48.1833 279.649 47.0559 273.5 42.7401C267.351 38.4244 256.715 40.2252 249.478 44.5306L262.657 55.61C264.339 54.2717 268.66 51.2452 272.489 49.8452Z" fill="#F9BF4B"/>
</mask>
<g mask="url(#mask1_4914_201258)">
<path d="M255.892 38.469L270.802 51.7314L261.645 62.2148L244.602 48.6178L255.892 38.469Z" fill="#E2E2E2"/>
</g>
<path d="M284.705 55.7552L296.485 58.3765C295.646 56.2569 292.645 53.1 290.225 51.1196C285.131 46.952 277.697 43.6931 272.163 41.917C280.547 47.9443 282.79 51.8263 284.705 55.7552Z" fill="#C3C3C3"/>
<path d="M233 86.4668L232.921 88.1913L230.79 135H123.026L122.894 132.964L120.565 98.6293L120.261 94.0392L120.009 90.2789C119.89 88.5414 120.935 86.9984 122.483 86.376C122.933 86.1945 123.423 86.0908 123.939 86.0778C124.296 86.0778 124.666 86.0778 125.05 86.0648C127.762 86.0259 131.401 86.013 135.714 86C136.839 86 137.99 86 139.194 86C142.713 86 146.563 86 150.652 86C159.874 86.013 170.246 86.0648 180.447 86.1167C181.281 86.1167 182.128 86.1167 182.961 86.1297C191.178 86.1686 199.222 86.2204 206.353 86.2723C206.472 86.2723 206.605 86.2723 206.724 86.2723C207.623 86.2723 208.523 86.2853 209.396 86.2853C213.471 86.3112 217.176 86.3371 220.404 86.3631C221.264 86.3631 222.098 86.3631 222.892 86.376C229.163 86.4279 233 86.4538 233 86.4538V86.4668Z" fill="#EFAD41"/>
<g style="mix-blend-mode:soft-light" opacity="0.3">
<path d="M213 109.598L134.606 131L122 86.398C122.451 86.2155 122.941 86.1112 123.458 86.0982C136.767 85.8636 178.535 86.0982 206.412 86.2937L213 109.598Z" fill="#010101"/>
</g>
<path d="M190.421 29.173L122.884 42.635C119.634 43.2827 117.525 46.4423 118.173 49.6921L134.184 130.015C134.831 133.265 137.991 135.375 141.241 134.727L208.778 121.265C212.027 120.617 214.137 117.457 213.489 114.208L197.478 33.8844C196.83 30.6346 193.671 28.5252 190.421 29.173Z" fill="#E5E5E4"/>
<path d="M235.995 43.3444C239.295 43.9484 241.458 47.1399 240.798 50.4283L238.116 63.7726L237.711 65.7592L235.645 76.0672L228.244 112.914C228.012 114.071 226.893 114.828 225.733 114.613L223.274 114.163L212.212 112.139L179.887 106.216L177.69 105.804L155 101.644C151.702 101.039 149.54 97.8502 150.199 94.5632L152.478 83.189L153.001 80.6027L154.335 73.9556L160.442 43.519L160.651 42.482L162.076 35.3851C162.679 32.3957 165.566 30.4404 168.565 30.9899L174.551 32.0866L201.594 37.0469L235.995 43.3444Z" fill="#EFEFEF"/>
<path d="M222 41H140C136.686 41 134 43.6863 134 47V111C134 114.314 136.686 117 140 117H222C225.314 117 228 114.314 228 111V47C228 43.6863 225.314 41 222 41Z" fill="white"/>
<path d="M182 61C182 59.8954 182.895 59 184 59H214C215.105 59 216 59.8954 216 61C216 62.1046 215.105 63 214 63H184C182.895 63 182 62.1046 182 61Z" fill="#E1E7E7" fill-opacity="0.6"/>
<path d="M182 73C182 71.8954 182.895 71 184 71H214C215.105 71 216 71.8954 216 73C216 74.1046 215.105 75 214 75H184C182.895 75 182 74.1046 182 73Z" fill="#E1E7E7" fill-opacity="0.6"/>
<path d="M143 92C143 90.8954 143.895 90 145 90H217C218.105 90 219 90.8954 219 92V113C219 114.105 218.105 115 217 115H145C143.895 115 143 114.105 143 113V92Z" fill="#E8E9E9" fill-opacity="0.6"/>
<path d="M164.416 62.0031C164.416 65.2118 161.815 67.8129 158.607 67.8129C155.398 67.8129 152.797 65.2118 152.797 62.0031C152.797 58.7945 155.398 56.1934 158.607 56.1934C161.815 56.1934 164.416 58.7945 164.416 62.0031Z" fill="#ACB8B8" fill-opacity="0.6"/>
<path d="M146.988 78.4414C146.988 73.4882 151.212 69.4729 156.423 69.4729H159.963C165.173 69.4729 169.397 73.4882 169.397 78.4414C169.397 78.8913 169.172 79.3102 168.745 79.5038C167.515 80.0613 164.401 81.0924 158.193 81.0924C151.985 81.0924 148.871 80.0613 147.641 79.5038C147.214 79.3102 146.988 78.8913 146.988 78.4414Z" fill="#ACB8B8" fill-opacity="0.6"/>
<g style="mix-blend-mode:soft-light" opacity="0.8">
<path d="M235.981 83.2988L230.425 161.223C230.269 163.348 228.387 165 226.115 165H128.905C127.776 165 126.737 164.587 125.959 163.919C125.959 163.871 125.959 163.834 125.946 163.786L123.726 135.406H123.713L123.583 133.5L121.169 102.655C121.13 102.206 121.169 101.757 121.299 101.344L121 97.0452C121.792 96.2559 122.921 95.7701 124.167 95.7823H124.933L127.555 95.8066L136.161 95.8794L139.575 95.9037L149.492 95.9766L174.246 96.1709C176.011 96.183 177.608 95.1872 178.283 93.6693L180.061 89.6255L183.643 81.5016C184.305 79.9836 185.889 79 187.641 79H231.684C232.541 79 233.333 79.2307 233.995 79.6315L233.592 81.5744H233.605C233.605 81.5744 233.709 81.5866 233.761 81.5987C233.813 81.5987 233.865 81.6108 233.904 81.623C233.969 81.623 234.033 81.6473 234.098 81.6594C234.15 81.6716 234.215 81.6837 234.267 81.708C234.306 81.708 234.345 81.7323 234.384 81.7444C234.41 81.7444 234.436 81.7566 234.462 81.7687C234.501 81.7809 234.54 81.793 234.579 81.8173C234.734 81.878 234.89 81.9387 235.033 82.0116C235.072 82.0237 235.098 82.048 235.137 82.0602L235.28 82.133C235.396 82.1937 235.5 82.2666 235.604 82.3395C235.643 82.3759 235.695 82.4002 235.734 82.4366C235.773 82.4609 235.812 82.4973 235.851 82.5337C235.903 82.5702 235.942 82.6066 235.981 82.643C236.006 82.8738 236.006 83.1045 235.981 83.3352V83.2988Z" fill="#010101"/>
</g>
<path d="M239 87.4106L233.309 167.136C233.15 169.31 231.222 171 228.895 171H129.322C127.048 171 125.16 169.397 124.921 167.298C124.921 167.248 124.921 167.211 124.908 167.161L122.634 138.126L122.488 136.175L120.015 104.618C119.975 104.158 120.015 103.699 120.148 103.276C120.64 101.5 122.381 100.17 124.469 100.183H124.642L127.328 100.207L135.372 100.27L138.868 100.294L148.495 100.369L175.765 100.58C177.573 100.593 179.208 99.5738 179.9 98.0208L182.865 91.2993L185.391 85.5594C186.069 84.0064 187.691 83 189.486 83H234.599C234.679 83 234.772 83 234.852 83C234.878 83 234.918 83 234.945 83C235.011 83 235.078 83 235.144 83.0124H235.184C235.184 83.0124 235.29 83.0248 235.344 83.0373C235.397 83.0373 235.45 83.0497 235.49 83.0621C235.556 83.0621 235.623 83.087 235.689 83.0994C235.742 83.1118 235.809 83.1242 235.862 83.1491C235.902 83.1491 235.942 83.1739 235.982 83.1864C236.008 83.1864 236.035 83.1988 236.062 83.2112C236.101 83.2236 236.141 83.2361 236.181 83.2609C236.341 83.323 236.5 83.3851 236.647 83.4597C236.687 83.4721 236.713 83.497 236.753 83.5094L236.899 83.5839C237.019 83.6461 237.125 83.7206 237.232 83.7951C237.272 83.8324 237.325 83.8573 237.365 83.8945C237.404 83.9194 237.444 83.9567 237.484 83.9939C237.537 84.0312 237.577 84.0685 237.617 84.1057C237.67 84.1554 237.724 84.2051 237.777 84.2548C237.83 84.3045 237.883 84.3542 237.923 84.4039C237.99 84.466 238.043 84.5282 238.096 84.5903C238.136 84.64 238.162 84.6773 238.202 84.727L238.309 84.876C238.362 84.9506 238.415 85.0376 238.455 85.1121C238.481 85.1618 238.508 85.2115 238.535 85.2612C238.561 85.3109 238.588 85.3606 238.601 85.3979C238.614 85.4351 238.641 85.4724 238.654 85.5097C238.681 85.5718 238.707 85.6215 238.734 85.6836L238.787 85.8451C238.787 85.8451 238.827 85.9569 238.84 86.0066C238.973 86.4415 239.027 86.9136 238.987 87.3981L239 87.4106Z" fill="#F9BF4B"/>
<g style="mix-blend-mode:soft-light" opacity="0.3">
<path d="M128 158C128.578 159.757 130.136 161 131.946 161H226.054C227.864 161 229.422 159.757 230 158H128Z" fill="#010101"/>
</g>
<g style="mix-blend-mode:soft-light" opacity="0.3">
<path d="M239 87.3988L233.278 167.136C233.117 169.31 231.179 171 228.839 171H180C180.775 170.13 181.578 169.26 182.407 168.415C187.955 162.687 194.399 157.369 199.212 151.131C202.3 147.142 204.694 142.744 206.458 138.121C207.18 136.232 207.795 134.294 208.317 132.343C208.41 131.995 208.491 131.647 208.584 131.312C208.758 130.591 208.918 129.87 209.065 129.137C209.975 124.714 210.376 120.191 210.322 115.705C210.322 115.27 210.309 114.835 210.295 114.4C210.295 114.077 210.269 113.754 210.255 113.431C209.921 105.975 208.424 98.5945 206.178 91.4247C205.937 90.6543 205.683 89.8964 205.429 89.1384C204.921 87.6348 203.571 85.2615 202.621 83H234.561C234.642 83 234.735 83 234.815 83C234.842 83 234.882 83 234.909 83C234.976 83 235.043 83 235.109 83.0124H235.15C235.15 83.0124 235.257 83.0249 235.31 83.0373C235.363 83.0373 235.417 83.0497 235.457 83.0621C235.524 83.0621 235.591 83.087 235.658 83.0994C235.711 83.1118 235.778 83.1243 235.831 83.1491C235.872 83.1491 235.912 83.174 235.952 83.1864C235.978 83.1864 236.005 83.1988 236.032 83.2112C236.072 83.2237 236.112 83.2361 236.152 83.2609C236.313 83.3231 236.473 83.3852 236.62 83.4598C236.66 83.4722 236.687 83.497 236.727 83.5095L236.874 83.584C236.995 83.6461 237.102 83.7207 237.208 83.7953C237.249 83.8325 237.302 83.8574 237.342 83.8947C237.382 83.9195 237.422 83.9568 237.462 83.9941C237.516 84.0313 237.556 84.0686 237.596 84.1059C237.65 84.1556 237.703 84.2053 237.757 84.255C237.81 84.3047 237.864 84.3544 237.904 84.4041C237.971 84.4663 238.024 84.5284 238.077 84.5905C238.118 84.6402 238.144 84.6775 238.184 84.7272L238.291 84.8763C238.345 84.9509 238.398 85.0378 238.438 85.1124C238.465 85.1621 238.492 85.2118 238.519 85.2615C238.545 85.3112 238.572 85.3609 238.586 85.3982C238.599 85.4355 238.626 85.4727 238.639 85.51C238.666 85.5722 238.692 85.6219 238.719 85.684L238.773 85.8455C238.773 85.8455 238.813 85.9574 238.826 86.0071C238.96 86.442 239.013 86.9141 238.973 87.3988H239Z" fill="#010101"/>
</g>
<path d="M198.089 118.562C198.215 115.113 200.724 112.307 204.095 111.568L205.355 111.292C213.156 109.583 220.723 106.946 227.896 103.437L232.233 101.316C234.451 100.231 237.046 100.231 239.264 101.316L243.601 103.437C250.774 106.946 258.342 109.583 266.142 111.292L267.389 111.565C270.766 112.305 273.278 115.121 273.4 118.576C273.755 128.65 273.33 149.608 264.89 162.625C256.992 174.806 240.411 186.402 235.749 186.402C231.087 186.402 214.133 174.28 206.608 162.625C198.129 149.491 197.721 128.601 198.089 118.562Z" fill="white"/>
<path fill-rule="evenodd" clip-rule="evenodd" d="M265.42 119.324L264.43 119.107C256.006 117.261 247.833 114.413 240.086 110.624L235.749 108.502L231.412 110.624C223.665 114.413 215.492 117.261 207.067 119.107L206.067 119.326C205.911 124.079 205.959 131.086 206.957 138.344C208.005 145.975 210.01 153.144 213.329 158.286C216.424 163.08 221.793 168.386 227.168 172.572C229.81 174.63 232.26 176.265 234.186 177.34C234.827 177.698 235.358 177.965 235.777 178.155C236.184 177.974 236.697 177.722 237.317 177.382C239.2 176.351 241.604 174.771 244.211 172.754C249.496 168.664 254.881 163.356 258.178 158.272C261.467 153.2 263.467 146.056 264.518 138.408C265.517 131.136 265.571 124.098 265.42 119.324ZM234.91 178.486C234.91 178.486 234.925 178.481 234.953 178.475C234.923 178.483 234.909 178.487 234.91 178.486ZM236.602 178.484C236.633 178.491 236.65 178.496 236.65 178.497C236.651 178.497 236.635 178.494 236.602 178.484ZM204.095 111.568C200.724 112.307 198.215 115.113 198.089 118.562C197.721 128.601 198.129 149.491 206.608 162.625C214.133 174.28 231.087 186.402 235.749 186.402C240.411 186.402 256.992 174.806 264.89 162.625C273.33 149.608 273.755 128.65 273.4 118.577C273.278 115.121 270.766 112.306 267.389 111.566L266.142 111.292C258.342 109.584 250.774 106.946 243.601 103.437L239.264 101.316C237.046 100.231 234.451 100.231 232.233 101.316L227.896 103.438C220.723 106.946 213.156 109.583 205.355 111.292L204.095 111.568Z" fill="#36B6AF"/>
<g style="mix-blend-mode:multiply">
<path fill-rule="evenodd" clip-rule="evenodd" d="M235.743 100.502V186.402C240.415 186.389 257.355 174.273 264.876 162.625C273.355 149.491 273.763 128.601 273.396 118.562C273.269 115.113 270.76 112.307 267.389 111.568L266.129 111.292C258.329 109.583 250.761 106.946 243.588 103.437L239.251 101.316C238.144 100.774 236.944 100.503 235.743 100.502Z" fill="#CCCCCC" fill-opacity="0.4"/>
</g>
<rect x="221.047" y="133.594" width="29.3874" height="25.1892" rx="4" fill="#F9AB37"/>
<path fill-rule="evenodd" clip-rule="evenodd" d="M236.004 125.198C233.251 125.198 231.019 127.43 231.019 130.184V134.644H226.82V130.184C226.82 125.112 230.932 121 236.004 121C241.076 121 245.187 125.112 245.187 130.184V134.644H240.989V130.184C240.989 127.43 238.757 125.198 236.004 125.198Z" fill="#F9AB37"/>
<rect x="240.988" y="131.496" width="4.1982" height="2.0991" fill="#F59319"/>
<rect x="226.82" y="131.496" width="4.1982" height="2.0991" fill="#F59319"/>
<path d="M240.966 145.965C240.966 143.193 238.754 140.941 236.032 140.941C233.31 140.941 231.098 143.193 231.098 145.965C231.098 147.744 232.01 149.319 233.387 150.201V158.784H238.693V150.201C240.069 149.304 240.982 147.744 240.982 145.965H240.966Z" fill="#F59319"/>
<g style="mix-blend-mode:soft-light" opacity="0.5">
<path d="M231.654 145.965C231.654 143.288 233.696 141.099 236.295 140.941C236.202 140.941 236.093 140.941 235.985 140.941C233.263 140.941 231.051 143.193 231.051 145.965C231.051 147.744 231.963 149.319 233.34 150.201V158.784H233.943V150.201C232.567 149.304 231.654 147.744 231.654 145.965Z" fill="#010101"/>
</g>
</svg>
