<svg width="360" height="200" viewBox="0 0 360 200" fill="none" xmlns="http://www.w3.org/2000/svg">
<path fill-rule="evenodd" clip-rule="evenodd" d="M113.216 39.0015C113.216 34.5832 116.797 31.0015 121.216 31.0015H218.477H218.595H220.66C222.082 31.0015 223.418 31.3727 224.575 32.0236C224.242 31.92 223.909 31.8697 223.586 31.8697C220.616 31.8682 218.495 36.208 218.495 38.811V56.5982H218.595V156.718C218.595 161.137 215.013 164.718 210.595 164.718H113.216V39.0015ZM228.66 39.0449V39.0015C228.66 37.7274 228.362 36.5229 227.832 35.4538C228.233 36.4298 228.527 37.6207 228.66 39.0449Z" fill="#ECECEC"/>
<mask id="mask0_4608_44940" style="mask-type:alpha" maskUnits="userSpaceOnUse" x="113" y="31" width="106" height="134">
<path d="M113.219 39C113.219 34.5817 116.8 31 121.219 31H218.598V156.717C218.598 161.135 215.016 164.717 210.598 164.717H113.219V39Z" fill="#D9D9D9"/>
</mask>
<g mask="url(#mask0_4608_44940)">
<g style="mix-blend-mode:multiply">
<path d="M199.234 148.855H218.984V164.715H199.234V148.855Z" fill="black" fill-opacity="0.08"/>
</g>
</g>
<path d="M126 57.0015C126 55.8969 126.895 55.0015 128 55.0015H162C163.105 55.0015 164 55.8969 164 57.0015C164 58.106 163.105 59.0015 162 59.0015H128C126.895 59.0015 126 58.106 126 57.0015Z" fill="#ACB8B8" fill-opacity="0.6"/>
<path d="M126 71.0015C126 69.8969 126.895 69.0015 128 69.0015H162C163.105 69.0015 164 69.8969 164 71.0015C164 72.106 163.105 73.0015 162 73.0015H128C126.895 73.0015 126 72.106 126 71.0015Z" fill="#ACB8B8" fill-opacity="0.6"/>
<path d="M126 85.0015C126 83.8969 126.895 83.0015 128 83.0015H162C163.105 83.0015 164 83.8969 164 85.0015C164 86.106 163.105 87.0015 162 87.0015H128C126.895 87.0015 126 86.106 126 85.0015Z" fill="#ACB8B8" fill-opacity="0.6"/>
<path d="M126 99.0015C126 97.8969 126.895 97.0015 128 97.0015H162C163.105 97.0015 164 97.8969 164 99.0015C164 100.106 163.105 101.001 162 101.001H128C126.895 101.001 126 100.106 126 99.0015Z" fill="#ACB8B8" fill-opacity="0.6"/>
<path d="M126 113.001C126 111.897 126.895 111.001 128 111.001H162C163.105 111.001 164 111.897 164 113.001C164 114.106 163.105 115.001 162 115.001H128C126.895 115.001 126 114.106 126 113.001Z" fill="#ACB8B8" fill-opacity="0.6"/>
<path d="M228.681 39.0618C228.257 33.9706 225.711 31 223.59 31C220.62 30.9985 218.499 34.5436 218.499 38.8603V56.0319H236.318C230.802 53.9106 229.105 44.1529 228.681 39.0618Z" fill="#C3C3C3"/>
<path d="M170.785 52.5137C170.785 46.9908 175.262 42.5137 180.785 42.5137H249.197C254.72 42.5137 259.197 46.9908 259.197 52.5137V145.863C259.197 151.386 254.72 155.863 249.197 155.863H180.785C175.262 155.863 170.785 151.386 170.785 145.863V52.5137Z" fill="#7D6BCC"/>
<path opacity="0.5" d="M177.582 56.5645C177.582 53.2507 180.268 50.5645 183.582 50.5645H246.392C249.706 50.5645 252.392 53.2507 252.392 56.5645V88.6542C252.392 91.9679 249.706 94.6542 246.392 94.6542H183.582C180.268 94.6542 177.582 91.9679 177.582 88.6542V56.5645Z" fill="#35208E"/>
<path opacity="0.5" fill-rule="evenodd" clip-rule="evenodd" d="M183.582 50.5645C180.268 50.5645 177.582 53.2507 177.582 56.5645V88.6542C177.582 90.0718 178.073 91.3747 178.896 92.4015C178.693 91.8576 178.582 91.2688 178.582 90.6542V56.5645C178.582 53.803 180.82 51.5645 183.582 51.5645H248.392C249.007 51.5645 249.596 51.6754 250.14 51.8782C249.113 51.0561 247.81 50.5645 246.392 50.5645H183.582Z" fill="#35208E"/>
<path d="M177.586 107.454C177.586 104.14 180.272 101.454 183.586 101.454H193.122C196.436 101.454 199.122 104.14 199.122 107.454V116.99C199.122 120.304 196.436 122.99 193.122 122.99H183.586C180.272 122.99 177.586 120.304 177.586 116.99V107.454Z" fill="#E7E7EF"/>
<path d="M177.586 133.526C177.586 130.212 180.272 127.526 183.586 127.526H193.122C196.436 127.526 199.122 130.212 199.122 133.526V143.062C199.122 146.376 196.436 149.062 193.122 149.062H183.586C180.272 149.062 177.586 146.376 177.586 143.062V133.526Z" fill="#E7E7EF"/>
<path d="M203.654 107.454C203.654 104.14 206.34 101.454 209.654 101.454H219.19C222.504 101.454 225.19 104.14 225.19 107.454V116.99C225.19 120.304 222.504 122.99 219.19 122.99H209.654C206.34 122.99 203.654 120.304 203.654 116.99V107.454Z" fill="#E7E7EF"/>
<path d="M203.654 133.526C203.654 130.212 206.34 127.526 209.654 127.526H219.19C222.504 127.526 225.19 130.212 225.19 133.526V143.062C225.19 146.376 222.504 149.062 219.19 149.062H209.654C206.34 149.062 203.654 146.376 203.654 143.062V133.526Z" fill="#E7E7EF"/>
<path d="M230.863 107.454C230.863 104.14 233.55 101.454 236.863 101.454H246.4C249.713 101.454 252.4 104.14 252.4 107.454V143.061C252.4 146.375 249.713 149.061 246.4 149.061H236.863C233.55 149.061 230.863 146.375 230.863 143.061V107.454Z" fill="#F9AB37"/>
<path d="M235.004 122.248C235.004 121.558 235.563 120.998 236.254 120.998H246.754C247.444 120.998 248.004 121.558 248.004 122.248C248.004 122.938 247.444 123.498 246.754 123.498H236.254C235.563 123.498 235.004 122.938 235.004 122.248Z" fill="white"/>
<path d="M235.004 128.248C235.004 127.558 235.563 126.998 236.254 126.998H246.754C247.444 126.998 248.004 127.558 248.004 128.248C248.004 128.938 247.444 129.498 246.754 129.498H236.254C235.563 129.498 235.004 128.938 235.004 128.248Z" fill="white"/>
<path d="M245.073 72.6198C245.073 71.1735 244.923 69.9296 244.621 68.8883C244.32 67.8325 243.897 66.9647 243.351 66.2849C242.82 65.5907 242.189 65.0772 241.457 64.7446C240.725 64.4119 239.928 64.2456 239.067 64.2456C238.235 64.2456 237.453 64.4119 236.721 64.7446C236.003 65.0772 235.372 65.5907 234.826 66.2849C234.295 66.9647 233.879 67.8325 233.578 68.8883C233.276 69.9296 233.126 71.1735 233.126 72.6198C233.126 74.0517 233.276 75.2955 233.578 76.3513C233.879 77.3926 234.295 78.2604 234.826 78.9547C235.372 79.6344 236.003 80.1407 236.721 80.4733C237.453 80.806 238.235 80.9723 239.067 80.9723C239.928 80.9723 240.725 80.806 241.457 80.4733C242.189 80.1407 242.82 79.6344 243.351 78.9547C243.897 78.2604 244.32 77.3926 244.621 76.3513C244.923 75.2955 245.073 74.0517 245.073 72.6198ZM242.06 72.6198C242.06 73.7624 241.973 74.7097 241.801 75.4618C241.643 76.2139 241.428 76.8141 241.155 77.2625C240.883 77.7108 240.56 78.0218 240.187 78.1954C239.828 78.3689 239.455 78.4557 239.067 78.4557C238.694 78.4557 238.328 78.3689 237.969 78.1954C237.625 78.0218 237.316 77.7108 237.044 77.2625C236.771 76.8141 236.549 76.2139 236.376 75.4618C236.218 74.7097 236.14 73.7624 236.14 72.6198C236.14 71.4627 236.218 70.5082 236.376 69.7561C236.549 68.9895 236.771 68.3893 237.044 67.9554C237.316 67.5071 237.625 67.1961 237.969 67.0225C238.328 66.8345 238.694 66.7405 239.067 66.7405C239.455 66.7405 239.828 66.8345 240.187 67.0225C240.56 67.1961 240.883 67.5071 241.155 67.9554C241.428 68.3893 241.643 68.9895 241.801 69.7561C241.973 70.5082 242.06 71.4627 242.06 72.6198Z" fill="white" fill-opacity="0.9"/>
<g style="mix-blend-mode:multiply">
<path d="M113 155.724L209.999 155.87L203.708 119.949L113 124.967L113 155.724Z" fill="#CCCCCC" fill-opacity="0.6"/>
</g>
<path fill-rule="evenodd" clip-rule="evenodd" d="M84 136.869C84 130.241 89.3726 124.869 96 124.869H194.693L199.238 124.869V126.543C195.634 126.678 194.452 131.236 194.312 133.532V164.723L194.312 180.869H185.841C185.771 179.273 184.456 178.001 182.844 178.001C181.231 178.001 179.916 179.273 179.847 180.869H176.841C176.771 179.273 175.456 178.001 173.844 178.001C172.231 178.001 170.916 179.273 170.847 180.869H168.075C168.006 179.273 166.69 178.001 165.078 178.001C163.466 178.001 162.151 179.273 162.081 180.869H159.606C159.537 179.273 158.222 178.001 156.609 178.001C154.997 178.001 153.682 179.273 153.612 180.869H150.841C150.771 179.273 149.456 178.001 147.844 178.001C146.231 178.001 144.916 179.273 144.847 180.869H141.841C141.771 179.273 140.456 178.001 138.844 178.001C137.231 178.001 135.916 179.273 135.847 180.869H133.075C133.006 179.273 131.69 178.001 130.078 178.001C128.466 178.001 127.151 179.273 127.081 180.869H123.841C123.771 179.273 122.456 178.001 120.844 178.001C119.231 178.001 117.916 179.273 117.847 180.869H115.075C115.006 179.273 113.69 178.001 112.078 178.001C110.466 178.001 109.151 179.273 109.081 180.869H106.075C106.006 179.273 104.69 178.001 103.078 178.001C101.466 178.001 100.151 179.273 100.081 180.869H97.3096C97.2401 179.273 95.9249 178.001 94.3125 178.001C92.7001 178.001 91.3849 179.273 91.3154 180.869H84V136.869Z" fill="#F2F2F2"/>
<path d="M204.495 135.029C204.495 127.817 201.379 124.884 199.275 124.862C195.938 124.826 194.312 129.699 194.312 133.149L194.312 164.717H211.9C208.945 164.717 208.072 161.203 206.798 157.454C205.426 153.415 204.495 142.242 204.495 135.029Z" fill="#C3C3C3"/>
<path fill-rule="evenodd" clip-rule="evenodd" d="M95.8975 135.881H98.8497V136.881H95.8975V135.881ZM101.754 135.881H106.659V136.881H101.754V135.881ZM109.563 135.881H114.467V136.881H109.563V135.881ZM117.372 135.881H122.276V136.881H117.372V135.881ZM125.181 135.881H130.085V136.881H125.181V135.881ZM132.99 135.881H137.894V136.881H132.99V135.881ZM140.798 135.881H145.703V136.881H140.798V135.881ZM148.607 135.881H153.512V136.881H148.607V135.881ZM156.416 135.881H161.321V136.881H156.416V135.881ZM164.225 135.881H169.129V136.881H164.225V135.881ZM172.034 135.881H176.938V136.881H172.034V135.881ZM179.843 135.881H182.795V136.881H179.843V135.881Z" fill="#ACB8B8" fill-opacity="0.6"/>
<g opacity="0.6">
<path fill-rule="evenodd" clip-rule="evenodd" d="M156.185 147.73C157.09 147.39 158.099 147.849 158.438 148.754L161.572 157.112L164.707 148.754C164.963 148.071 165.616 147.618 166.345 147.618C167.075 147.618 167.728 148.071 167.984 148.754L171.118 157.112L174.253 148.754C174.592 147.849 175.601 147.39 176.506 147.73C177.411 148.069 177.869 149.078 177.53 149.983L172.757 162.71C172.501 163.394 171.848 163.846 171.118 163.846C170.389 163.846 169.736 163.394 169.48 162.71L166.345 154.352L163.211 162.71C162.955 163.394 162.302 163.846 161.572 163.846C160.843 163.846 160.19 163.394 159.934 162.71L155.161 149.983C154.821 149.078 155.28 148.069 156.185 147.73Z" fill="#ACB8B8"/>
<path fill-rule="evenodd" clip-rule="evenodd" d="M153.215 155.736C153.215 154.632 154.111 153.736 155.215 153.736L158.397 153.736C159.502 153.736 160.397 154.632 160.397 155.736C160.397 156.841 159.502 157.736 158.397 157.736L155.215 157.736C154.111 157.736 153.215 156.841 153.215 155.736Z" fill="#ACB8B8"/>
<path fill-rule="evenodd" clip-rule="evenodd" d="M172.31 155.736C172.31 154.632 173.205 153.736 174.31 153.736L177.492 153.736C178.596 153.736 179.492 154.632 179.492 155.736C179.492 156.841 178.596 157.736 177.492 157.736L174.31 157.736C173.205 157.736 172.31 156.841 172.31 155.736Z" fill="#ACB8B8"/>
</g>
<path d="M250.697 71.4199L249.551 69.0869L269.149 59.5442L270.092 61.5105L250.697 71.4199Z" fill="#E5A932"/>
<path d="M270.237 61.7514C271.792 64.7531 268.704 69.4117 263.341 72.1567C257.978 74.9017 252.37 74.6936 250.816 71.6919C249.261 68.6902 252.349 64.0316 257.712 61.2866C263.075 58.5416 268.683 58.7497 270.237 61.7514Z" fill="#F2A540"/>
<path d="M269.162 59.5641C270.703 62.5388 267.604 67.1756 262.24 69.9206C256.877 72.6656 251.281 72.4793 249.741 69.5045C248.2 66.5297 251.299 61.8929 256.662 59.1479C262.025 56.403 267.622 56.5893 269.162 59.5641Z" fill="#FFD572"/>
<path d="M267.241 60.4739C268.449 62.8638 265.919 66.5522 261.593 68.7123C257.266 70.8723 252.779 70.6859 251.572 68.296C250.365 65.9061 252.894 62.2177 257.221 60.0577C261.548 57.8977 266.034 58.084 267.241 60.4739Z" fill="#FFD572"/>
<path fill-rule="evenodd" clip-rule="evenodd" d="M266.078 64.3985C267.055 62.9741 267.278 61.6574 266.793 60.6976C266.308 59.7379 265.113 59.1297 263.38 59.0577C261.667 58.9865 259.548 59.4539 257.446 60.5032C255.344 61.5525 253.701 62.9629 252.736 64.3714C251.759 65.7959 251.535 67.1126 252.02 68.0723C252.505 69.032 253.701 69.6403 255.433 69.7123C257.146 69.7834 259.266 69.3161 261.367 68.2668C263.469 67.2175 265.112 65.807 266.078 64.3985ZM261.593 68.7123C265.919 66.5522 268.449 62.8638 267.241 60.4739C266.034 58.084 261.548 57.8977 257.221 60.0577C252.894 62.2177 250.365 65.9061 251.572 68.296C252.779 70.6859 257.266 70.8723 261.593 68.7123Z" fill="#F2A540"/>
<path d="M105.189 96.2721L106.386 93.8371L85.9318 83.8778L84.948 85.9299L105.189 96.2721Z" fill="#E5A932"/>
<path d="M84.7944 86.1826C83.1722 89.3153 86.3948 94.1774 91.9921 97.0422C97.5895 99.9071 103.442 99.6899 105.064 96.5572C106.686 93.4244 103.464 88.5623 97.8665 85.6975C92.2692 82.8326 86.4166 83.0498 84.7944 86.1826Z" fill="#F2A540"/>
<path d="M85.9134 83.9013C84.3058 87.006 87.54 91.8453 93.1374 94.7101C98.7347 97.5749 104.575 97.3805 106.183 94.2758C107.791 91.1711 104.556 86.3319 98.9591 83.4671C93.3618 80.6022 87.521 80.7967 85.9134 83.9013Z" fill="#FFD572"/>
<path d="M87.8387 84.7687C86.5699 87.2189 89.2531 91.1049 93.8317 93.4483C98.4103 95.7918 103.15 95.7052 104.419 93.2549C105.688 90.8047 103.005 86.9186 98.4263 84.5752C93.8477 82.2318 89.1075 82.3184 87.8387 84.7687Z" fill="#FFD572"/>
<path fill-rule="evenodd" clip-rule="evenodd" d="M89.0559 88.8665C88.0137 87.3572 87.7751 85.9808 88.2846 84.9969C88.794 84.013 90.0595 83.4064 91.9006 83.3728C93.7184 83.3395 95.9665 83.8769 98.1968 85.0184C100.427 86.16 102.173 87.6668 103.202 89.1571C104.244 90.6664 104.483 92.0428 103.973 93.0267C103.464 94.0106 102.198 94.6172 100.357 94.6508C98.5395 94.684 96.2915 94.1466 94.0612 93.0051C91.8309 91.8636 90.0848 90.3568 89.0559 88.8665ZM93.8317 93.4483C89.2531 91.1049 86.5699 87.2189 87.8387 84.7687C89.1075 82.3184 93.8477 82.2318 98.4263 84.5752C103.005 86.9186 105.688 90.8047 104.419 93.2549C103.15 95.7052 98.4103 95.7918 93.8317 93.4483Z" fill="#F2A540"/>
<path d="M57.7605 64.5257L56.5681 62.9211L70.0565 53.078L71.0437 54.4335L57.7605 64.5257Z" fill="#E5A932"/>
<path d="M71.1812 54.5871C72.7756 56.647 71.0947 60.5857 67.4268 63.3846C63.7588 66.1835 59.4929 66.7826 57.8984 64.7228C56.304 62.663 57.9849 58.7242 61.6529 55.9253C65.3208 53.1264 69.5868 52.5273 71.1812 54.5871Z" fill="#F2A540"/>
<path d="M70.0687 53.0796C71.6488 55.121 69.9563 59.0448 66.2884 61.8437C62.6205 64.6426 58.366 65.2566 56.7859 63.2153C55.2058 61.1739 56.8983 57.2501 60.5662 54.4512C64.2341 51.6523 68.4886 51.0382 70.0687 53.0796Z" fill="#FFD572"/>
<path d="M68.8676 53.8323C70.0471 55.356 68.527 58.4809 65.4724 60.8118C62.4177 63.1427 58.9853 63.797 57.8058 62.2732C56.6263 60.7494 58.1464 57.6246 61.2011 55.2937C64.2557 52.9628 67.6881 52.3085 68.8676 53.8323Z" fill="#FFD572"/>
<path fill-rule="evenodd" clip-rule="evenodd" d="M68.4867 56.8888C69.0855 55.658 69.1121 54.6381 68.6292 54.0142C68.1462 53.3903 67.1468 53.1534 65.7949 53.4111C64.4625 53.6651 62.883 54.3877 61.3847 55.531C59.8865 56.6742 58.7768 58.0037 58.1867 59.2167C57.588 60.4474 57.5613 61.4673 58.0443 62.0912C58.5272 62.7152 59.5267 62.952 60.8786 62.6943C62.211 62.4403 63.7905 61.7177 65.2887 60.5745C66.7869 59.4312 67.8967 58.1018 68.4867 56.8888ZM65.4724 60.8118C68.527 58.4809 70.0471 55.356 68.8676 53.8323C67.6881 52.3085 64.2557 52.9628 61.2011 55.2937C58.1464 57.6246 56.6263 60.7494 57.8058 62.2732C58.9853 63.797 62.4177 63.1427 65.4724 60.8118Z" fill="#F2A540"/>
<path d="M283.754 18.7768L284.426 17.2442L297.296 22.9039L296.72 24.184L283.754 18.7768Z" fill="#E5A932"/>
<path d="M296.668 24.3409C295.831 26.3501 292.239 26.7757 288.645 25.2915C285.051 23.8072 282.816 20.9753 283.654 18.9661C284.491 16.9569 288.083 16.5313 291.677 18.0156C295.271 19.4998 297.506 22.3318 296.668 24.3409Z" fill="#F2A540"/>
<path d="M297.307 22.9015C296.478 24.8926 292.891 25.3036 289.298 23.8194C285.704 22.3352 283.463 19.5179 284.292 17.5267C285.122 15.5355 288.708 15.1246 292.302 16.6088C295.896 18.093 298.137 20.9103 297.307 22.9015Z" fill="#FFD572"/>
<path d="M296.322 22.2734C295.692 23.7835 292.786 24.0182 289.831 22.7977C286.875 21.5771 284.989 19.3635 285.619 17.8534C286.248 16.3433 289.154 16.1086 292.11 17.3291C295.065 18.5497 296.951 20.7633 296.322 22.2734Z" fill="#FFD572"/>
<path fill-rule="evenodd" clip-rule="evenodd" d="M293.923 23.2619C295.057 23.1702 295.793 22.7575 296.043 22.1583C296.293 21.5592 296.066 20.749 295.33 19.8847C294.605 19.0334 293.437 18.2005 291.995 17.6047C290.552 17.009 289.135 16.7747 288.018 16.8649C286.883 16.9566 286.147 17.3693 285.897 17.9685C285.648 18.5677 285.874 19.3778 286.61 20.2421C287.336 21.0934 288.503 21.9264 289.946 22.5221C291.388 23.1179 292.805 23.3522 293.923 23.2619ZM289.831 22.7977C292.786 24.0182 295.692 23.7835 296.322 22.2734C296.951 20.7633 295.065 18.5497 292.11 17.3291C289.154 16.1086 286.248 16.3433 285.619 17.8534C284.989 19.3635 286.875 21.5771 289.831 22.7977Z" fill="#F2A540"/>
</svg>
