<svg width="360" height="200" viewBox="0 0 360 200" fill="none" xmlns="http://www.w3.org/2000/svg">
<path fill-rule="evenodd" clip-rule="evenodd" d="M227.113 96.4109C226.757 96.833 226.811 97.4639 227.233 97.82L260.004 125.464L258.181 127.624C257.645 128.26 258.074 129.235 258.905 129.268L276.564 129.985C277.216 130.011 277.719 129.416 277.583 128.777L273.901 111.491C273.728 110.678 272.695 110.419 272.159 111.055L270.332 113.22L237.561 85.5762C237.139 85.2201 236.508 85.2736 236.152 85.6958L227.113 96.4109Z" fill="url(#paint0_linear_4986_40241)" fill-opacity="0.6"/>
<path fill-rule="evenodd" clip-rule="evenodd" d="M80.0738 70.323C79.6768 70.7069 79.6662 71.34 80.0502 71.737L120.686 113.756C120.982 114.062 121.425 114.138 121.795 113.982C121.923 113.935 122.044 113.861 122.149 113.759L127.498 108.56L132.177 104.035C132.223 103.99 132.263 103.942 132.299 103.892L154.539 82.2718C154.935 81.8868 154.944 81.2537 154.559 80.8577L144.788 70.8062C144.403 70.4102 143.77 70.4013 143.374 70.7862L121.746 91.8107L91.5648 60.6015C91.1808 60.2045 90.5478 60.1939 90.1508 60.5778L80.0738 70.323Z" fill="url(#paint1_linear_4986_40241)" fill-opacity="0.6"/>
<path d="M133 35C133 30.5817 136.582 27 141 27H229C233.418 27 237 30.5817 237 35V159C237 163.418 233.418 167 229 167H141C136.582 167 133 163.418 133 159V35Z" fill="#BDBDBD"/>
<path d="M139 37C139 34.7909 140.791 33 143 33H227C229.209 33 231 34.7909 231 37V157C231 159.209 229.209 161 227 161H143C140.791 161 139 159.209 139 157V37Z" fill="#F3F3F3"/>
<path d="M160 56C160 54.8954 160.895 54 162 54H168C169.105 54 170 54.8954 170 56V96C170 97.1046 169.105 98 168 98H162C160.895 98 160 97.1046 160 96V56Z" fill="#0C408C"/>
<path d="M180 68C180 66.8954 180.895 66 182 66H188C189.105 66 190 66.8954 190 68V96C190 97.1046 189.105 98 188 98H182C180.895 98 180 97.1046 180 96V68Z" fill="#0C408C"/>
<path d="M200 80C200 78.8954 200.895 78 202 78H208C209.105 78 210 78.8954 210 80V96C210 97.1046 209.105 98 208 98H202C200.895 98 200 97.1046 200 96V80Z" fill="#0C408C"/>
<path d="M258.697 73.4199L257.551 71.0869L277.149 61.5442L278.092 63.5105L258.697 73.4199Z" fill="#E5A932"/>
<path d="M278.237 63.7514C279.792 66.7531 276.704 71.4117 271.341 74.1567C265.978 76.9017 260.37 76.6936 258.816 73.6919C257.261 70.6902 260.349 66.0316 265.712 63.2866C271.075 60.5416 276.683 60.7497 278.237 63.7514Z" fill="#F2A540"/>
<path d="M277.162 61.5641C278.703 64.5388 275.604 69.1756 270.24 71.9206C264.877 74.6656 259.281 74.4793 257.741 71.5045C256.2 68.5297 259.299 63.8929 264.662 61.1479C270.025 58.403 275.622 58.5893 277.162 61.5641Z" fill="#FFD572"/>
<path d="M275.241 62.4739C276.449 64.8638 273.919 68.5522 269.593 70.7123C265.266 72.8723 260.779 72.6859 259.572 70.296C258.365 67.9061 260.894 64.2177 265.221 62.0577C269.548 59.8977 274.034 60.084 275.241 62.4739Z" fill="#FFD572"/>
<path fill-rule="evenodd" clip-rule="evenodd" d="M274.078 66.3985C275.055 64.9741 275.278 63.6574 274.793 62.6976C274.308 61.7379 273.113 61.1297 271.38 61.0577C269.667 60.9865 267.548 61.4539 265.446 62.5032C263.344 63.5525 261.701 64.9629 260.736 66.3714C259.759 67.7959 259.535 69.1126 260.02 70.0723C260.505 71.032 261.701 71.6403 263.433 71.7123C265.146 71.7834 267.266 71.3161 269.367 70.2668C271.469 69.2175 273.112 67.807 274.078 66.3985ZM269.593 70.7123C273.919 68.5522 276.449 64.8638 275.241 62.4739C274.034 60.084 269.548 59.8977 265.221 62.0577C260.894 64.2177 258.365 67.9061 259.572 70.296C260.779 72.6859 265.266 72.8723 269.593 70.7123Z" fill="#F2A540"/>
<path d="M105.35 99.9293L106.547 97.4944L86.0929 87.5351L85.1091 89.5871L105.35 99.9293Z" fill="#E5A932"/>
<path d="M84.9555 89.8398C83.3333 92.9726 86.5559 97.8346 92.1533 100.699C97.7506 103.564 103.603 103.347 105.225 100.214C106.848 97.0816 103.625 92.2196 98.0277 89.3547C92.4303 86.4898 86.5777 86.707 84.9555 89.8398Z" fill="#F2A540"/>
<path d="M86.0745 87.5586C84.4669 90.6632 87.7012 95.5025 93.2985 98.3673C98.8958 101.232 104.737 101.038 106.344 97.933C107.952 94.8284 104.718 89.9891 99.1203 87.1243C93.5229 84.2594 87.6821 84.4539 86.0745 87.5586Z" fill="#FFD572"/>
<path d="M87.9998 88.4259C86.7311 90.8761 89.4142 94.7622 93.9928 97.1056C98.5714 99.449 103.312 99.3624 104.58 96.9121C105.849 94.4619 103.166 90.5759 98.5874 88.2325C94.0088 85.889 89.2686 85.9756 87.9998 88.4259Z" fill="#FFD572"/>
<path fill-rule="evenodd" clip-rule="evenodd" d="M89.217 92.5237C88.1749 91.0144 87.9362 89.638 88.4457 88.6541C88.9552 87.6702 90.2206 87.0636 92.0617 87.03C93.8796 86.9968 96.1276 87.5342 98.3579 88.6757C100.588 89.8172 102.334 91.324 103.363 92.8143C104.405 94.3236 104.644 95.7 104.135 96.6839C103.625 97.6678 102.36 98.2744 100.519 98.308C98.7006 98.3413 96.4526 97.8039 94.2223 96.6624C91.992 95.5209 90.246 94.014 89.217 92.5237ZM93.9928 97.1056C89.4142 94.7622 86.7311 90.8761 87.9998 88.4259C89.2686 85.9756 94.0088 85.889 98.5874 88.2325C103.166 90.5759 105.849 94.4619 104.58 96.9121C103.312 99.3624 98.5714 99.449 93.9928 97.1056Z" fill="#F2A540"/>
<path d="M67.7612 52.5252L66.5689 50.9206L80.0573 41.0775L81.0444 42.433L67.7612 52.5252Z" fill="#E5A932"/>
<path d="M81.1819 42.5867C82.7764 44.6465 81.0955 48.5852 77.4275 51.3841C73.7596 54.183 69.4936 54.7821 67.8992 52.7223C66.3047 50.6625 67.9857 46.7237 71.6536 43.9248C75.3215 41.126 79.5875 40.5268 81.1819 42.5867Z" fill="#F2A540"/>
<path d="M80.0694 41.0791C81.6496 43.1205 79.9571 47.0443 76.2891 49.8432C72.6212 52.6421 68.3668 53.2562 66.7866 51.2148C65.2065 49.1734 66.899 45.2496 70.5669 42.4507C74.2349 39.6518 78.4893 39.0377 80.0694 41.0791Z" fill="#FFD572"/>
<path d="M78.8684 41.8318C80.0478 43.3555 78.5277 46.4804 75.4731 48.8113C72.4185 51.1422 68.986 51.7965 67.8065 50.2727C66.6271 48.7489 68.1472 45.6241 71.2018 43.2932C74.2564 40.9623 77.6889 40.308 78.8684 41.8318Z" fill="#FFD572"/>
<path fill-rule="evenodd" clip-rule="evenodd" d="M78.4875 44.8883C79.0862 43.6575 79.1129 42.6377 78.6299 42.0137C78.147 41.3898 77.1475 41.1529 75.7956 41.4107C74.4632 41.6646 72.8837 42.3872 71.3855 43.5305C69.8872 44.6737 68.7775 46.0032 68.1874 47.2162C67.5887 48.447 67.562 49.4668 68.045 50.0907C68.5279 50.7147 69.5274 50.9515 70.8793 50.6938C72.2117 50.4398 73.7912 49.7172 75.2894 48.574C76.7877 47.4307 77.8974 46.1013 78.4875 44.8883ZM75.4731 48.8113C78.5277 46.4804 80.0478 43.3555 78.8684 41.8318C77.6889 40.308 74.2564 40.9623 71.2018 43.2932C68.1472 45.6241 66.6271 48.7489 67.8065 50.2727C68.986 51.7965 72.4185 51.1422 75.4731 48.8113Z" fill="#F2A540"/>
<path d="M291.754 20.7768L292.426 19.2442L305.296 24.9039L304.72 26.184L291.754 20.7768Z" fill="#E5A932"/>
<path d="M304.668 26.3409C303.831 28.3501 300.239 28.7757 296.645 27.2915C293.051 25.8072 290.816 22.9753 291.654 20.9661C292.491 18.9569 296.083 18.5313 299.677 20.0156C303.271 21.4998 305.506 24.3318 304.668 26.3409Z" fill="#F2A540"/>
<path d="M305.307 24.9015C304.478 26.8926 300.891 27.3036 297.298 25.8194C293.704 24.3352 291.463 21.5179 292.292 19.5267C293.122 17.5355 296.708 17.1246 300.302 18.6088C303.896 20.093 306.137 22.9103 305.307 24.9015Z" fill="#FFD572"/>
<path d="M304.322 24.2734C303.692 25.7835 300.786 26.0182 297.831 24.7977C294.875 23.5771 292.989 21.3635 293.619 19.8534C294.248 18.3433 297.154 18.1086 300.11 19.3291C303.065 20.5497 304.951 22.7633 304.322 24.2734Z" fill="#FFD572"/>
<path fill-rule="evenodd" clip-rule="evenodd" d="M301.923 25.2619C303.057 25.1702 303.793 24.7575 304.043 24.1583C304.293 23.5592 304.066 22.749 303.33 21.8847C302.605 21.0334 301.437 20.2005 299.995 19.6047C298.552 19.009 297.135 18.7747 296.018 18.8649C294.883 18.9566 294.147 19.3693 293.897 19.9685C293.648 20.5677 293.874 21.3778 294.61 22.2421C295.336 23.0934 296.503 23.9264 297.946 24.5221C299.388 25.1179 300.805 25.3522 301.923 25.2619ZM297.831 24.7977C300.786 26.0182 303.692 25.7835 304.322 24.2734C304.951 22.7633 303.065 20.5497 300.11 19.3291C297.154 18.1086 294.248 18.3433 293.619 19.8534C292.989 21.3635 294.875 23.5771 297.831 24.7977Z" fill="#F2A540"/>
<path d="M162 29C162 26.7909 163.791 25 166 25H204C206.209 25 208 26.7909 208 29V33C208 35.2091 206.209 37 204 37H166C163.791 37 162 35.2091 162 33V29Z" fill="#666666"/>
<path d="M155 127.5C155 126.119 156.119 125 157.5 125H212.5C213.881 125 215 126.119 215 127.5C215 128.881 213.881 130 212.5 130H157.5C156.119 130 155 128.881 155 127.5Z" fill="#ACB8B8" fill-opacity="0.6"/>
<path d="M155 114.5C155 113.119 156.119 112 157.5 112H212.5C213.881 112 215 113.119 215 114.5C215 115.881 213.881 117 212.5 117H157.5C156.119 117 155 115.881 155 114.5Z" fill="#ACB8B8" fill-opacity="0.6"/>
<path d="M155 140.5C155 139.119 156.119 138 157.5 138H193.5C194.881 138 196 139.119 196 140.5C196 141.881 194.881 143 193.5 143H157.5C156.119 143 155 141.881 155 140.5Z" fill="#ACB8B8" fill-opacity="0.6"/>
<g style="mix-blend-mode:soft-light">
<path d="M172.372 168.456C172.372 168.456 169.544 139.62 165.944 110.361C165.65 107.968 163.346 104.223 160.008 104.223L155.269 104.223C149.136 104.223 144.299 104.223 132.97 104.223C129.746 122.882 146.596 167.431 146.596 167.431L172.372 168.456Z" fill="black"/>
</g>
<path d="M110 110C110 106.686 112.686 104 116 104H159C162.314 104 165 106.686 165 110V170C165 173.314 162.314 176 159 176H116C112.686 176 110 173.314 110 170V110Z" fill="#7D6BCC"/>
<path opacity="0.5" d="M115 113C115 111.343 116.343 110 118 110H157C158.657 110 160 111.343 160 113V133C160 134.657 158.657 136 157 136H118C116.343 136 115 134.657 115 133V113Z" fill="#5946AD"/>
<path opacity="0.5" fill-rule="evenodd" clip-rule="evenodd" d="M118 110C116.343 110 115 111.343 115 113V133C115 133.96 115.451 134.816 116.154 135.365C116.054 135.095 116 134.804 116 134.5V113.5C116 112.119 117.119 111 118.5 111H158.5C158.804 111 159.095 111.054 159.365 111.154C158.816 110.451 157.96 110 157 110H118Z" fill="#49359E"/>
<path d="M115 144.5C115 143.119 116.119 142 117.5 142H124.5C125.881 142 127 143.119 127 144.5V151.5C127 152.881 125.881 154 124.5 154H117.5C116.119 154 115 152.881 115 151.5V144.5Z" fill="#E7E7EF"/>
<path d="M115 160.5C115 159.119 116.119 158 117.5 158H124.5C125.881 158 127 159.119 127 160.5V167.5C127 168.881 125.881 170 124.5 170H117.5C116.119 170 115 168.881 115 167.5V160.5Z" fill="#E7E7EF"/>
<path d="M131 144.5C131 143.119 132.119 142 133.5 142H140.5C141.881 142 143 143.119 143 144.5V151.5C143 152.881 141.881 154 140.5 154H133.5C132.119 154 131 152.881 131 151.5V144.5Z" fill="#E7E7EF"/>
<path d="M131 160.5C131 159.119 132.119 158 133.5 158H140.5C141.881 158 143 159.119 143 160.5V167.5C143 168.881 141.881 170 140.5 170H133.5C132.119 170 131 168.881 131 167.5V160.5Z" fill="#E7E7EF"/>
<path d="M147 143.5C147 142.672 147.672 142 148.5 142H158.5C159.328 142 160 142.672 160 143.5V168.5C160 169.328 159.328 170 158.5 170H148.5C147.672 170 147 169.328 147 168.5V143.5Z" fill="#F9AB37"/>
<path d="M149 154C149 153.448 149.448 153 150 153H157C157.552 153 158 153.448 158 154C158 154.552 157.552 155 157 155H150C149.448 155 149 154.552 149 154Z" fill="white"/>
<path d="M149 158C149 157.448 149.448 157 150 157H157C157.552 157 158 157.448 158 158C158 158.552 157.552 159 157 159H150C149.448 159 149 158.552 149 158Z" fill="white"/>
<path d="M154.832 122.789C154.832 121.962 154.746 121.25 154.574 120.655C154.401 120.051 154.159 119.555 153.847 119.166C153.544 118.769 153.183 118.476 152.764 118.285C152.346 118.095 151.89 118 151.398 118C150.922 118 150.474 118.095 150.056 118.285C149.645 118.476 149.284 118.769 148.973 119.166C148.669 119.555 148.431 120.051 148.259 120.655C148.086 121.25 148 121.962 148 122.789C148 123.608 148.086 124.319 148.259 124.923C148.431 125.518 148.669 126.014 148.973 126.411C149.284 126.8 149.645 127.09 150.056 127.28C150.474 127.47 150.922 127.565 151.398 127.565C151.89 127.565 152.346 127.47 152.764 127.28C153.183 127.09 153.544 126.8 153.847 126.411C154.159 126.014 154.401 125.518 154.574 124.923C154.746 124.319 154.832 123.608 154.832 122.789ZM153.109 122.789C153.109 123.442 153.06 123.984 152.961 124.414C152.871 124.844 152.748 125.187 152.592 125.444C152.436 125.7 152.251 125.878 152.038 125.977C151.833 126.076 151.619 126.126 151.398 126.126C151.184 126.126 150.975 126.076 150.77 125.977C150.573 125.878 150.396 125.7 150.241 125.444C150.085 125.187 149.957 124.844 149.859 124.414C149.769 123.984 149.723 123.442 149.723 122.789C149.723 122.127 149.769 121.581 149.859 121.151C149.957 120.713 150.085 120.37 150.241 120.121C150.396 119.865 150.573 119.687 150.77 119.588C150.975 119.48 151.184 119.427 151.398 119.427C151.619 119.427 151.833 119.48 152.038 119.588C152.251 119.687 152.436 119.865 152.592 120.121C152.748 120.37 152.871 120.713 152.961 121.151C153.06 121.581 153.109 122.127 153.109 122.789Z" fill="white" fill-opacity="0.9"/>
<defs>
<linearGradient id="paint0_linear_4986_40241" x1="250.447" y1="106.922" x2="277.368" y2="129.631" gradientUnits="userSpaceOnUse">
<stop stop-color="#031BA5"/>
<stop offset="1" stop-color="#4861ED"/>
<stop offset="1" stop-color="#0119A1" stop-opacity="0"/>
<stop offset="1" stop-color="#0119A1" stop-opacity="0"/>
<stop offset="1" stop-color="#0119A1" stop-opacity="0"/>
</linearGradient>
<linearGradient id="paint1_linear_4986_40241" x1="149.245" y1="76.2535" x2="115.739" y2="108.826" gradientUnits="userSpaceOnUse">
<stop stop-color="#0119A1"/>
<stop offset="1" stop-color="#445CE8"/>
</linearGradient>
</defs>
</svg>
