<svg width="360" height="200" viewBox="0 0 360 200" fill="none" xmlns="http://www.w3.org/2000/svg">
<path d="M74 67.002C74 62.5837 77.5817 59.002 82 59.002H160C164.418 59.002 168 62.5837 168 67.002V171.002C168 175.42 164.418 179.002 160 179.002H82C77.5817 179.002 74 175.42 74 171.002V67.002Z" fill="#F2F2F2"/>
<rect x="88" y="79" width="42" height="5" rx="2.5" fill="#ACB8B8" fill-opacity="0.6"/>
<rect x="88" y="92" width="42" height="5" rx="2.5" fill="#ACB8B8" fill-opacity="0.6"/>
<rect x="88" y="105" width="42" height="5" rx="2.5" fill="#ACB8B8" fill-opacity="0.6"/>
<rect x="88" y="118" width="42" height="5" rx="2.5" fill="#ACB8B8" fill-opacity="0.6"/>
<rect x="145" y="23" width="90" height="156" rx="18" fill="#716E7D"/>
<rect x="151" y="29" width="78" height="144" rx="14" fill="#F2F2F2"/>
<path d="M178 39C178 37.8954 178.895 37 180 37H200C201.105 37 202 37.8954 202 39V39C202 40.1046 201.105 41 200 41H180C178.895 41 178 40.1046 178 39V39Z" fill="#716E7D" fill-opacity="0.25"/>
<path d="M196 86C196 89.3137 193.314 92 190 92C186.686 92 184 89.3137 184 86C184 82.6863 186.686 80 190 80C193.314 80 196 82.6863 196 86Z" fill="#2AD6CE"/>
<path d="M176 105.755C176 99.8153 180.724 95 186.552 95H193.448C199.276 95 204 99.8153 204 105.755C204 106.325 203.719 106.851 203.206 107.077C201.684 107.746 197.793 109 190 109C182.207 109 178.316 107.746 176.794 107.077C176.281 106.851 176 106.325 176 105.755Z" fill="#05B0A8"/>
<path d="M205 72H209C211.209 72 213 73.7909 213 76V80" stroke="#C8CFCF" stroke-width="2" stroke-linecap="round" stroke-linejoin="round"/>
<path d="M205 118H209C211.209 118 213 116.209 213 114V110" stroke="#C8CFCF" stroke-width="2" stroke-linecap="round" stroke-linejoin="round"/>
<path d="M175 72H171C168.791 72 167 73.7909 167 76V80" stroke="#C8CFCF" stroke-width="2" stroke-linecap="round" stroke-linejoin="round"/>
<path d="M175 118H171C168.791 118 167 116.209 167 114V110" stroke="#C8CFCF" stroke-width="2" stroke-linecap="round" stroke-linejoin="round"/>
<g style="mix-blend-mode:soft-light" opacity="0.25">
<path fill-rule="evenodd" clip-rule="evenodd" d="M218.441 23.082C227.566 23.9567 234.702 31.6446 234.702 40.9991V160.999C234.702 170.94 226.643 178.999 216.702 178.999H191.936L216.81 23.0871L218.441 23.082Z" fill="black"/>
</g>
<g style="mix-blend-mode:soft-light">
<rect x="98" y="133" width="102.46" height="34" rx="17" fill="black"/>
</g>
<rect x="101" y="133" width="102.46" height="30" rx="15" fill="#7D6BCC"/>
<g style="mix-blend-mode:multiply" opacity="0.1">
<path fill-rule="evenodd" clip-rule="evenodd" d="M101.033 147C101.011 147.331 101 147.664 101 148C101 156.285 107.716 163 116 163H188.46C196.744 163 203.46 156.285 203.46 148C203.46 147.664 203.449 147.331 203.427 147C202.913 154.818 196.408 161 188.46 161H116C108.052 161 101.548 154.818 101.033 147Z" fill="black"/>
</g>
<rect x="122.23" y="155" width="14" height="3" rx="1" transform="rotate(-90 122.23 155)" fill="#F9BF4B"/>
<rect x="116.999" y="150.438" width="14" height="3" rx="1" transform="rotate(-32 116.999 150.438)" fill="#F9BF4B"/>
<rect x="118.589" y="143.02" width="14" height="3" rx="1" transform="rotate(32 118.589 143.02)" fill="#F9BF4B"/>
<rect x="141.231" y="155" width="14" height="3" rx="1" transform="rotate(-90 141.231 155)" fill="#F9BF4B"/>
<rect x="136" y="150.438" width="14" height="3" rx="1" transform="rotate(-32 136 150.438)" fill="#F9BF4B"/>
<rect x="137.59" y="143.02" width="14" height="3" rx="1" transform="rotate(32 137.59 143.02)" fill="#F9BF4B"/>
<rect x="160.231" y="155" width="14" height="3" rx="1" transform="rotate(-90 160.231 155)" fill="#F9BF4B"/>
<rect x="155" y="150.438" width="14" height="3" rx="1" transform="rotate(-32 155 150.438)" fill="#F9BF4B"/>
<rect x="156.59" y="143.02" width="14" height="3" rx="1" transform="rotate(32 156.59 143.02)" fill="#F9BF4B"/>
<rect x="179.231" y="155" width="14" height="3" rx="1" transform="rotate(-90 179.231 155)" fill="#F9BF4B"/>
<rect x="174" y="150.438" width="14" height="3" rx="1" transform="rotate(-32 174 150.438)" fill="#F9BF4B"/>
<rect x="175.59" y="143.02" width="14" height="3" rx="1" transform="rotate(32 175.59 143.02)" fill="#F9BF4B"/>
<rect x="216" y="142" width="58" height="44" rx="8" fill="#F9BF4B"/>
<path fill-rule="evenodd" clip-rule="evenodd" d="M224 186H266C268.029 186 269.881 185.245 271.292 184H218.708C220.119 185.245 221.971 186 224 186Z" fill="#F59319" fill-opacity="0.4"/>
<path fill-rule="evenodd" clip-rule="evenodd" d="M228 134C228 124.059 236.059 116 246 116C255.804 116 263.777 123.837 263.995 133.588C263.935 134.361 263.289 134.97 262.5 134.97H257.5C256.672 134.97 256 134.298 256 133.47V134C256 128.477 251.523 124 246 124C240.477 124 236 128.477 236 134V142H228V134Z" fill="#F9BF4B"/>
<path fill-rule="evenodd" clip-rule="evenodd" d="M247.5 164.456C249.566 163.508 251 161.421 251 159C251 155.686 248.314 153 245 153C241.686 153 239 155.686 239 159C239 161.421 240.434 163.508 242.5 164.456V174H247.5V164.456Z" fill="#F59319"/>
<g style="mix-blend-mode:soft-light" opacity="0.5">
<path fill-rule="evenodd" clip-rule="evenodd" d="M244.5 174H242.5V164.456C240.434 163.508 239 161.421 239 159C239 155.686 241.686 153 245 153C245.341 153 245.675 153.028 246 153.083C243.162 153.559 241 156.027 241 159C241 161.421 242.434 163.508 244.5 164.456V174Z" fill="#010101"/>
</g>
<path d="M228 140L236 141V142H228V140Z" fill="#F59319" fill-opacity="0.6"/>
<circle cx="260" cy="134" r="4" fill="#F9BF4B"/>
</svg>
