<svg width="360" height="200" viewBox="0 0 360 200" fill="none" xmlns="http://www.w3.org/2000/svg">
<path d="M159 71.2432H290.486V151.649C290.486 157.918 285.404 163 279.135 163H174.784C166.067 163 159 155.933 159 147.216V71.2432Z" fill="#E2E2E2"/>
<path d="M162.554 49.4861C162.554 43.2169 167.636 38.1348 173.905 38.1348H279.135C285.404 38.1348 290.486 43.2169 290.486 49.4861V84.4861H162.554V49.4861Z" fill="#5946AD"/>
<path d="M159 49.4861C159 43.2169 164.082 38.1348 170.351 38.1348H273.459C279.729 38.1348 284.811 43.2169 284.811 49.4861V128.946C284.811 135.215 279.729 140.297 273.459 140.297H170.351C164.082 140.297 159 135.215 159 128.946V49.4861Z" fill="#7D6BCC"/>
<path d="M159 84.4863H284.811V151.648C284.811 157.918 279.729 163 273.459 163H170.351C164.082 163 159 157.918 159 151.648V84.4863Z" fill="#F2F2F2"/>
<path d="M171.297 103.807C171.297 100.973 173.595 98.6758 176.428 98.6758H184.584C187.418 98.6758 189.715 100.973 189.715 103.807V111.962C189.715 114.796 187.418 117.093 184.584 117.093H176.428C173.595 117.093 171.297 114.796 171.297 111.962V103.807Z" fill="white"/>
<path d="M227.051 103.807C227.051 100.973 229.348 98.6758 232.182 98.6758H240.337C243.171 98.6758 245.468 100.973 245.468 103.807V111.962C245.468 114.796 243.171 117.093 240.337 117.093H232.182C229.348 117.093 227.051 114.796 227.051 111.962V103.807Z" fill="white"/>
<path d="M171.297 131.684C171.297 128.85 173.595 126.553 176.428 126.553H184.584C187.418 126.553 189.715 128.85 189.715 131.684V139.839C189.715 142.673 187.418 144.97 184.584 144.97H176.428C173.595 144.97 171.297 142.673 171.297 139.839V131.684Z" fill="white"/>
<path d="M227.051 131.684C227.051 128.85 229.348 126.553 232.182 126.553H240.337C243.171 126.553 245.468 128.85 245.468 131.684V139.839C245.468 142.673 243.171 144.97 240.337 144.97H232.182C229.348 144.97 227.051 142.673 227.051 139.839V131.684Z" fill="white"/>
<path d="M199.174 103.807C199.174 100.973 201.471 98.6758 204.305 98.6758H212.46C215.294 98.6758 217.591 100.973 217.591 103.807V111.962C217.591 114.796 215.294 117.093 212.46 117.093H204.305C201.471 117.093 199.174 114.796 199.174 111.962V103.807Z" fill="white"/>
<path d="M254.928 103.807C254.928 100.973 257.225 98.6758 260.059 98.6758H268.214C271.048 98.6758 273.345 100.973 273.345 103.807V111.962C273.345 114.796 271.048 117.093 268.214 117.093H260.059C257.225 117.093 254.928 114.796 254.928 111.962V103.807Z" fill="white"/>
<path d="M199.174 131.684C199.174 128.85 201.471 126.553 204.305 126.553H212.46C215.294 126.553 217.591 128.85 217.591 131.684V139.839C217.591 142.673 215.294 144.97 212.46 144.97H204.305C201.471 144.97 199.174 142.673 199.174 139.839V131.684Z" fill="white"/>
<path d="M254.928 131.684C254.928 128.85 257.225 126.553 260.059 126.553H268.214C271.048 126.553 273.345 128.85 273.345 131.684V139.839C273.345 142.673 271.048 144.97 268.214 144.97H260.059C257.225 144.97 254.928 142.673 254.928 139.839V131.684Z" fill="white"/>
<path d="M270.351 108.679C270.712 108.421 270.712 107.848 270.351 107.591L264.634 103.514C264.234 103.228 263.701 103.539 263.701 104.058V106.967L258.583 106.957C257.918 106.956 257.379 107.539 257.378 108.259C257.378 108.979 257.916 109.563 258.581 109.563L263.701 109.573V112.212C263.701 112.731 264.234 113.042 264.634 112.756L270.351 108.679Z" fill="#C8CFCF"/>
<g style="mix-blend-mode:multiply">
<path d="M177.919 38.1348H194.946V51.378C194.946 56.0799 191.134 59.8915 186.432 59.8915C181.731 59.8915 177.919 56.0799 177.919 51.378V38.1348Z" fill="#CCCCCC" fill-opacity="0.4"/>
</g>
<path d="M179.811 29.6216C179.811 25.9646 182.776 23 186.433 23C190.09 23 193.054 25.9646 193.054 29.6216V46.6486C193.054 50.3057 190.09 53.2703 186.433 53.2703C182.776 53.2703 179.811 50.3057 179.811 46.6486V29.6216Z" fill="#F2F2F2"/>
<path d="M179.811 38.1348H193.054V46.6483C193.054 50.3053 190.09 53.2699 186.433 53.2699C182.776 53.2699 179.811 50.3053 179.811 46.6483V38.1348Z" fill="#C8CFCF"/>
<g style="mix-blend-mode:multiply">
<path d="M248.865 38.1348H265.892V52.324C265.892 57.0258 262.08 60.8375 257.378 60.8375C252.676 60.8375 248.865 57.0258 248.865 52.324V38.1348Z" fill="#CCCCCC" fill-opacity="0.4"/>
</g>
<path d="M250.757 29.6216C250.757 25.9646 253.721 23 257.378 23C261.035 23 264 25.9646 264 29.6216V46.6486C264 50.3057 261.035 53.2703 257.378 53.2703C253.721 53.2703 250.757 50.3057 250.757 46.6486V29.6216Z" fill="#F2F2F2"/>
<path d="M250.757 38.1348H264V46.6483C264 50.3053 261.035 53.2699 257.378 53.2699C253.721 53.2699 250.757 50.3053 250.757 46.6483V38.1348Z" fill="#C8CFCF"/>
<path d="M197.812 74.0809L195.442 69.8668H193.754V74.0809H192.108V63.6377H195.528C197.684 63.6377 199.302 64.4039 199.302 66.66C199.302 68.3059 198.436 69.2424 197.117 69.6539L199.671 74.0809H197.812ZM193.754 68.5472H195.329C196.861 68.5472 197.67 67.9228 197.67 66.66C197.67 65.3972 196.861 64.9573 195.329 64.9573H193.754V68.5472Z" fill="white"/>
<path d="M209.848 63.6377H216.021V65.014H211.494V67.9228H215.325V69.3134H211.494V72.6904H216.177V74.0809H209.848V63.6377Z" fill="white"/>
<path d="M226.799 63.6377H228.487L231.949 69.7674L233.042 71.9809H233.113C233.014 70.9026 232.9 69.6397 232.9 68.5046V63.6377H234.461V74.0809H232.772L229.31 67.9228L228.218 65.7377H228.147C228.246 66.8161 228.36 68.0222 228.36 69.1573V74.0809H226.799V63.6377Z" fill="white"/>
<path d="M247.776 65.014H244.711V63.6377H252.501V65.014H249.422V74.0809H247.776V65.014Z" fill="white"/>
<g style="mix-blend-mode:hard-light" opacity="0.06">
<path d="M245.69 162.648L235.723 140.539C234.161 135.975 231.224 132.007 227.317 129.178L213.297 119.031L197.47 127.14L216.479 162.648H245.69Z" fill="black"/>
</g>
<path d="M231.248 153.069L230.25 144.085L221.931 144.75L226.922 156.064L231.248 153.069Z" fill="#F64A4A"/>
<path d="M83.0859 166.165L80.4186 164.894L78.0054 150.415L97.6926 138.095L119.92 148.383L113.442 165.529L83.0859 166.165Z" fill="#A5771E"/>
<path d="M184.192 166.037L181.525 164.64L179.112 150.16L198.799 137.84L221.026 148.128L215.819 164.259L184.192 166.037Z" fill="#A5771E"/>
<path d="M70.2564 161.048C71.1709 164.299 79.1898 165.874 83.0849 166.255C79.7317 154.976 85.8369 148.431 89.3086 146.568C91.9505 145.451 98.623 145.425 101.629 145.552C104.677 145.451 106.71 147.119 107.345 147.965C111.612 151.928 113.187 161.302 113.441 165.493L184.315 166.001C182.69 154.722 188.718 148.854 191.936 147.33C197.728 145.806 203.833 146.187 206.162 146.568C213.376 148.6 215.603 159.185 215.815 164.223L222.928 162.953C230.142 161.632 231.607 156.983 231.438 154.824C231.844 152.995 230.167 151.776 229.278 151.395L228.135 145.044C229.558 145.044 230.252 144.367 230.422 144.028C230.015 142.809 230.252 139.286 230.422 137.677C230.828 134.934 229.829 133.486 229.278 133.105C225.519 128.837 216.789 123.621 212.894 121.547L217.085 120.023C212.208 118.803 200.488 116.635 195.239 115.704C170.141 113.469 153.197 114.773 147.862 115.704C137.396 117.736 121.655 127.22 115.093 131.708C89.8929 133.232 79.0205 136.322 76.7342 137.677C71.8568 140.624 70.9762 143.139 71.1455 144.028V148.854C70.3327 149.362 70.2141 150.167 70.2564 150.506V156.475C70.2564 158.304 71.1032 159.1 71.5266 159.269C70.8153 159.676 70.3835 160.624 70.2564 161.048Z" fill="#F9BF4B"/>
<mask id="mask0_4978_40443" style="mask-type:alpha" maskUnits="userSpaceOnUse" x="70" y="114" width="162" height="53">
<path d="M70.2564 161.048C71.1709 164.299 79.1898 165.874 83.0849 166.255C79.7317 154.976 85.8369 148.431 89.3086 146.568C91.9505 145.451 98.623 145.425 101.629 145.552C104.677 145.451 106.71 147.119 107.345 147.965C111.612 151.928 113.187 161.302 113.441 165.493L184.315 166.001C182.69 154.722 188.718 148.854 191.936 147.33C197.728 145.806 203.833 146.187 206.162 146.568C213.376 148.6 215.603 159.185 215.815 164.223L222.928 162.953C230.142 161.632 231.607 156.983 231.438 154.824C231.844 152.995 230.167 151.776 229.278 151.395L228.135 145.044C229.558 145.044 230.252 144.367 230.422 144.028C230.015 142.809 230.252 139.286 230.422 137.677C230.828 134.934 229.829 133.486 229.278 133.105C225.519 128.837 216.789 123.621 212.894 121.547L217.085 120.023C212.208 118.803 200.488 116.635 195.239 115.704C170.141 113.469 153.197 114.773 147.862 115.704C137.396 117.736 121.655 127.22 115.093 131.708C89.8929 133.232 79.0205 136.322 76.7342 137.677C71.8568 140.624 70.9762 143.139 71.1455 144.028V148.854C70.3327 149.362 70.2141 150.167 70.2564 150.506V156.475C70.2564 158.304 71.1032 159.1 71.5266 159.269C70.8153 159.676 70.3835 160.624 70.2564 161.048Z" fill="#F9BF4B"/>
</mask>
<g mask="url(#mask0_4978_40443)">
<path opacity="0.5" fill-rule="evenodd" clip-rule="evenodd" d="M160.342 131.607L161.283 131.944L159.274 137.56L157.882 161.994C157.832 163.773 156.927 165.404 155.279 166.503L154.724 165.671C156.122 164.739 156.845 163.396 156.882 161.96L156.883 161.953L158.284 137.36L160.342 131.607Z" fill="#D6920C"/>
</g>
<path d="M137.451 121.419C123.53 128.126 116.74 132.675 115.597 134.41L158.154 132.343C191.686 130.818 191.093 129.929 193.083 129.167C197.046 127.338 201.847 124.764 203.752 123.706L192.702 119.895C188.434 118.066 170.093 117.44 161.457 117.355C149.466 116.745 140.457 119.811 137.451 121.419Z" fill="#AC760E"/>
<path d="M112.039 161.464C112.039 169.321 105.67 175.69 97.8132 175.69C89.9567 175.69 83.5876 169.321 83.5876 161.464C83.5876 153.608 89.9567 147.239 97.8132 147.239C105.67 147.239 112.039 153.608 112.039 161.464Z" fill="#666564"/>
<path d="M107.979 161.465C107.979 167.077 103.43 171.626 97.8181 171.626C92.2063 171.626 87.657 167.077 87.657 161.465C87.657 155.853 92.2063 151.304 97.8181 151.304C103.43 151.304 107.979 155.853 107.979 161.465Z" fill="#959595"/>
<path d="M103.019 161.464C103.019 164.27 100.687 166.544 97.8111 166.544C94.935 166.544 92.6035 164.27 92.6035 161.464C92.6035 158.658 94.935 156.383 97.8111 156.383C100.687 156.383 103.019 158.658 103.019 161.464Z" fill="#BBBBBB"/>
<path d="M213.901 161.464C213.901 169.321 207.532 175.69 199.675 175.69C191.818 175.69 185.449 169.321 185.449 161.464C185.449 153.608 191.818 147.239 199.675 147.239C207.532 147.239 213.901 153.608 213.901 161.464Z" fill="#666564"/>
<path d="M209.841 161.465C209.841 167.077 205.292 171.626 199.68 171.626C194.068 171.626 189.519 167.077 189.519 161.465C189.519 155.853 194.068 151.304 199.68 151.304C205.292 151.304 209.841 155.853 209.841 161.465Z" fill="#959595"/>
<path d="M204.617 161.465C204.617 164.131 202.456 166.292 199.79 166.292C197.125 166.292 194.964 164.131 194.964 161.465C194.964 158.8 197.125 156.639 199.79 156.639C202.456 156.639 204.617 158.8 204.617 161.465Z" fill="#BBBBBB"/>
<g style="mix-blend-mode:soft-light" opacity="0.5">
<path d="M123.805 135.24C121.773 135.24 120.569 133.418 120.569 132.741C120.569 130.2 123.829 128.676 125.142 128.676C128.089 128.676 128.378 131.938 128.124 134.097C127.985 135.273 127.362 135.24 127.108 135.24H123.805Z" fill="black"/>
</g>
<path d="M123.219 134.663C121.186 134.663 120.551 133.436 120.551 132.758C120.551 130.218 123.811 128.694 125.124 128.694C128.071 128.694 127.791 131.361 127.537 133.52C127.399 134.696 126.775 134.663 126.521 134.663H123.219Z" fill="#F9BF4B"/>
<path d="M71.7757 142.285C71.2837 142.447 71.1406 143.555 71.1406 143.936L81.4288 142.412C81.632 142.005 82.953 141.143 83.461 141.016C73.3125 141.777 72.1596 142.158 71.7771 142.284L71.7757 142.285Z" fill="white" fill-opacity="0.8"/>
<path d="M214.41 137.33C224.876 137.33 229.567 136.145 230.541 135.806C230.541 134.993 230.033 134.113 229.779 133.774C227.874 134.409 222.031 135.044 217.332 135.298C216.214 135.4 214.791 136.695 214.41 137.33Z" fill="white" fill-opacity="0.8"/>
<path d="M145.959 140.622C145.952 140.307 146.201 140.046 146.515 140.039L153.231 139.885C153.546 139.878 153.806 140.127 153.814 140.442C153.821 140.756 153.572 141.017 153.257 141.024L146.541 141.178C146.227 141.185 145.966 140.936 145.959 140.622Z" fill="#D6930C"/>
<path d="M182.073 139.832C182.065 139.517 182.314 139.256 182.629 139.249L189.345 139.095C189.659 139.088 189.92 139.337 189.927 139.652C189.935 139.966 189.685 140.227 189.371 140.234L182.655 140.388C182.341 140.395 182.08 140.146 182.073 139.832Z" fill="#D6930C"/>
</svg>
