<svg width="360" height="222" viewBox="0 0 360 222" fill="none" xmlns="http://www.w3.org/2000/svg">
<path fill-rule="evenodd" clip-rule="evenodd" d="M160.523 39.4014H159.401C158.094 39.4014 156.86 39.7149 155.771 40.2708C155.83 40.2667 155.888 40.2646 155.947 40.2646C158.607 40.2631 160.508 44.5788 160.508 47.1673V64.8555H160.418V164.374C160.418 168.793 164 172.374 168.418 172.374H254.826V47.4015C254.826 42.9832 251.244 39.4015 246.826 39.4015H160.523V39.4014ZM151.401 47.3981C151.402 46.4774 151.558 45.5931 151.844 44.7699C151.637 45.5375 151.484 46.4115 151.401 47.3981Z" fill="#ECECEC"/>
<mask id="mask0_4978_40398" style="mask-type:alpha" maskUnits="userSpaceOnUse" x="160" y="39" width="95" height="134">
<path d="M254.823 47.3999C254.823 42.9816 251.241 39.3999 246.823 39.3999H160.415V164.373C160.415 168.791 163.997 172.373 168.415 172.373H254.823V47.3999Z" fill="#D9D9D9"/>
</mask>
<g mask="url(#mask0_4978_40398)">
<g style="mix-blend-mode:multiply">
<path d="M177.762 156.6H160.069V172.371H177.762V156.6Z" fill="black" fill-opacity="0.08"/>
</g>
</g>
<path d="M243.373 81.399C243.373 80.3006 242.483 79.4102 241.384 79.4102H184.161C183.063 79.4102 182.173 80.3006 182.173 81.399C182.173 82.4975 183.063 83.3879 184.161 83.3879H241.384C242.483 83.3879 243.373 82.4975 243.373 81.399Z" fill="#ACB8B8" fill-opacity="0.6"/>
<path d="M243.373 94.2564C243.373 93.158 242.483 92.2676 241.384 92.2676H201.333C200.234 92.2676 199.344 93.158 199.344 94.2564C199.344 95.3549 200.234 96.2453 201.333 96.2453H241.384C242.483 96.2453 243.373 95.3549 243.373 94.2564Z" fill="#ACB8B8" fill-opacity="0.6"/>
<path d="M243.373 107.114C243.373 106.016 242.483 105.125 241.384 105.125H211.318C210.22 105.125 209.329 106.016 209.329 107.114C209.329 108.213 210.22 109.103 211.318 109.103H241.384C242.483 109.103 243.373 108.213 243.373 107.114Z" fill="#ACB8B8" fill-opacity="0.6"/>
<path d="M243.373 119.972C243.373 118.873 242.483 117.983 241.384 117.983H211.318C210.22 117.983 209.329 118.873 209.329 119.972C209.329 121.07 210.22 121.961 211.318 121.961H241.384C242.483 121.961 243.373 121.07 243.373 119.972Z" fill="#ACB8B8" fill-opacity="0.6"/>
<path d="M151.382 47.4168C151.762 42.354 154.043 39.3999 155.943 39.3999C158.604 39.3984 160.504 42.9238 160.504 47.2165V66.5125H144.541C149.482 64.403 151.002 52.4796 151.382 47.4168Z" fill="#C3C3C3"/>
<g style="mix-blend-mode:multiply">
<path d="M255.02 163.43L168.119 163.575L173.755 127.854L255.019 132.844L255.02 163.43Z" fill="#CCCCCC" fill-opacity="0.6"/>
</g>
<path fill-rule="evenodd" clip-rule="evenodd" d="M281 144.747C281 138.119 275.627 132.747 269 132.747H181.832V132.747H177.76V134.411C180.989 134.546 182.048 139.078 182.173 141.361V172.379H182.172V188.435H189.762C189.824 186.849 191.003 185.584 192.447 185.584C193.892 185.584 195.07 186.849 195.132 188.435H197.825C197.887 186.849 199.065 185.584 200.51 185.584C201.955 185.584 203.133 186.849 203.195 188.435H205.678C205.74 186.849 206.918 185.584 208.363 185.584C209.808 185.584 210.986 186.849 211.048 188.435H213.265C213.327 186.849 214.505 185.584 215.95 185.584C217.394 185.584 218.573 186.849 218.635 188.435H221.118C221.18 186.849 222.359 185.584 223.803 185.584C225.248 185.584 226.426 186.849 226.488 188.435H229.181C229.243 186.849 230.422 185.584 231.866 185.584C233.311 185.584 234.489 186.849 234.551 188.435H237.034C237.096 186.849 238.275 185.584 239.719 185.584C241.164 185.584 242.342 186.849 242.404 188.435H245.307C245.369 186.849 246.548 185.584 247.992 185.584C249.437 185.584 250.615 186.849 250.677 188.435H253.16C253.222 186.849 254.401 185.584 255.845 185.584C257.29 185.584 258.468 186.849 258.53 188.435H261.223C261.285 186.849 262.464 185.584 263.908 185.584C265.353 185.584 266.531 186.849 266.593 188.435H269.076C269.139 186.849 270.317 185.584 271.762 185.584C273.206 185.584 274.384 186.849 274.447 188.435H281V144.747Z" fill="#F2F2F2"/>
<path d="M269.607 165.596C270.131 165.233 270.131 164.426 269.607 164.063L261.319 158.323C260.739 157.921 259.967 158.358 259.967 159.089V163.185L247.746 163.171C246.782 163.17 246.001 163.991 246 165.005C245.999 166.018 246.78 166.84 247.744 166.841L259.967 166.855V170.571C259.967 171.301 260.739 171.739 261.319 171.337L269.607 165.596Z" fill="#C8CFCF"/>
<path d="M173.05 142.85C173.05 135.678 175.842 132.762 177.726 132.74C180.716 132.704 182.173 137.55 182.173 140.981V172.373H166.416C169.063 172.373 169.845 168.879 170.986 165.15C172.216 161.135 173.05 150.023 173.05 142.85Z" fill="#C3C3C3"/>
<path fill-rule="evenodd" clip-rule="evenodd" d="M270.393 143.694H267.469V144.694H270.393V143.694ZM264.622 143.694H259.774V144.694H264.622V143.694ZM256.926 143.694H252.079V144.694H256.926V143.694ZM249.231 143.694H244.383V144.694H249.231V143.694ZM241.535 143.694H236.688V144.694H241.535V143.694ZM233.84 143.694H228.992V144.694H233.84V143.694ZM226.144 143.694H221.297V144.694H226.144V143.694ZM218.449 143.694H213.601V144.694H218.449V143.694ZM210.754 143.694H205.906V144.694H210.754V143.694ZM203.058 143.694H198.21V144.694H203.058V143.694ZM195.363 143.694H192.439V144.694H195.363V143.694Z" fill="#ACB8B8" fill-opacity="0.6"/>
<mask id="mask1_4978_40398" style="mask-type:alpha" maskUnits="userSpaceOnUse" x="177" y="132" width="104" height="57">
<path d="M281 146.067C281 138.71 275.628 132.747 269 132.747L177.76 132.747V134.411C180.989 134.546 182.048 139.078 182.173 141.361L182.173 188.435H189.762C189.824 186.849 191.003 185.584 192.447 185.584C193.892 185.584 195.07 186.849 195.132 188.435H197.825C197.887 186.849 199.066 185.584 200.51 185.584C201.955 185.584 203.133 186.849 203.195 188.435H205.678C205.74 186.849 206.919 185.584 208.363 185.584C209.808 185.584 210.986 186.849 211.048 188.435H213.265C213.327 186.849 214.506 185.584 215.95 185.584C217.395 185.584 218.573 186.849 218.635 188.435H221.119C221.181 186.849 222.359 185.584 223.804 185.584C225.248 185.584 226.426 186.849 226.489 188.435H229.181C229.244 186.849 230.422 185.584 231.867 185.584C233.311 185.584 234.489 186.849 234.552 188.435H237.034C237.097 186.849 238.275 185.584 239.72 185.584C241.164 185.584 242.342 186.849 242.405 188.435H245.307C245.37 186.849 246.548 185.584 247.993 185.584C249.437 185.584 250.615 186.849 250.678 188.435H253.16C253.223 186.849 254.401 185.584 255.845 185.584C257.29 185.584 258.468 186.849 258.531 188.435H261.223C261.286 186.849 262.464 185.584 263.908 185.584C265.353 185.584 266.531 186.849 266.594 188.435H269.077C269.139 186.849 270.317 185.583 271.762 185.583C273.206 185.583 274.385 186.849 274.447 188.435H281V146.067Z" fill="#F2F2F2"/>
</mask>
<g mask="url(#mask1_4978_40398)">
<g style="mix-blend-mode:multiply">
<path d="M233 191.47L209.873 113.77H180V191.47H233Z" fill="#CCCCCC" fill-opacity="0.4"/>
</g>
</g>
<path d="M50.0285 59.4147L45.4035 38.29C44.3075 40.5601 42.2974 47.3446 42.0128 53.979C41.7282 60.6135 46.266 68.7289 48.6971 72.2502C50.6539 73.6982 53.8558 75.37 51.0096 70.4731C48.1635 65.5762 49.1697 61.0605 50.0285 59.4147Z" fill="#F9BF4B"/>
<mask id="mask2_4978_40398" style="mask-type:alpha" maskUnits="userSpaceOnUse" x="42" y="38" width="11" height="36">
<path d="M50.0285 59.4162L45.4035 38.2915C44.3075 40.5616 42.2974 47.346 42.0128 53.9805C41.7282 60.615 46.266 68.7304 48.6971 72.2517C50.6539 73.6997 53.8558 75.3714 51.0096 70.4746C48.1635 65.5777 49.1697 61.062 50.0285 59.4162Z" fill="#F9BF4B"/>
</mask>
<g mask="url(#mask2_4978_40398)">
<path d="M50.9757 72.8011L39.8 49.7556L41.5517 31.896L57.5174 57.9449L50.9757 72.8011Z" fill="#FFD47E"/>
</g>
<path d="M65.1665 71.5622C54.9929 72.3525 46.8053 67.1933 44.6094 64.8564C46.2111 69.1674 52.6236 79.8942 60.4507 85.5809C68.2777 91.2675 76.164 90.7147 79.1288 89.7274C74.3262 83.3918 70.4777 79.4562 65.1665 71.5622Z" fill="#E1AC44"/>
<path d="M245.001 35.5153C242.201 40.3993 239.168 43.4703 238.001 44.3953C237.835 44.5803 239.901 44.8393 249.501 44.3953C259.101 43.9513 268.5 32.7403 272.5 21.6403L250.501 20.5303C249.835 23.4903 247.801 30.6313 245.001 35.5153Z" fill="#F9BF4B"/>
<mask id="mask3_4978_40398" style="mask-type:alpha" maskUnits="userSpaceOnUse" x="237" y="20" width="36" height="25">
<path d="M245.001 35.5148C242.201 40.3988 239.168 43.4698 238.001 44.3948C237.835 44.5798 239.901 44.8388 249.501 44.3948C259.101 43.9508 268.5 32.7398 272.5 21.6398L250.501 20.5298C249.835 23.4898 247.801 30.6308 245.001 35.5148Z" fill="#F9BF4B"/>
</mask>
<g mask="url(#mask3_4978_40398)">
<path d="M270.7 34.0101L245.247 31.9332L246.391 12.2134L274.271 12.8252L270.7 34.0101Z" fill="#FFD47E"/>
</g>
<path d="M228 39.4004L214 46.6154C216.5 48.2804 222.002 49.2479 226 49.3904C234.414 49.6902 244.496 46.9458 251.496 44.1708C238.296 44.6148 233 42.1754 228 39.4004Z" fill="#E1AC44"/>
<path d="M242.216 57.04C242.431 57.04 242.585 57.1147 242.678 57.264C242.781 57.404 242.832 57.5767 242.832 57.782C242.832 57.978 242.781 58.1507 242.678 58.3C242.585 58.4494 242.431 58.524 242.216 58.524H238.03V61.17H241.936C242.142 61.17 242.291 61.2447 242.384 61.394C242.487 61.534 242.538 61.702 242.538 61.898C242.538 62.094 242.487 62.2667 242.384 62.416C242.291 62.556 242.142 62.626 241.936 62.626H238.03V65.51H242.314C242.529 65.51 242.683 65.5847 242.776 65.734C242.879 65.8834 242.93 66.056 242.93 66.252C242.93 66.4574 242.879 66.6347 242.776 66.784C242.683 66.924 242.529 66.994 242.314 66.994H237.442C236.994 66.994 236.682 66.91 236.504 66.742C236.336 66.574 236.252 66.2707 236.252 65.832V58.202C236.252 57.7634 236.336 57.46 236.504 57.292C236.682 57.124 236.994 57.04 237.442 57.04H242.216Z" fill="#C5CCCC"/>
<path d="M230.848 56.8862C231.856 56.8862 232.701 57.0589 233.382 57.4042C233.588 57.5069 233.719 57.6609 233.775 57.8662C233.831 58.0716 233.803 58.2769 233.691 58.4822C233.579 58.6969 233.434 58.8322 233.257 58.8882C233.079 58.9349 232.892 58.9162 232.696 58.8322C232.398 58.7016 232.113 58.6129 231.843 58.5662C231.572 58.5102 231.25 58.4822 230.876 58.4822C230.568 58.4822 230.298 58.5196 230.065 58.5942C229.841 58.6596 229.649 58.7529 229.49 58.8742C229.332 58.9862 229.21 59.1169 229.126 59.2662C229.052 59.4062 229.014 59.5509 229.014 59.7002V59.7842C229.014 59.9616 229.042 60.1156 229.098 60.2462C229.164 60.3769 229.271 60.4982 229.42 60.6102C229.579 60.7129 229.794 60.8109 230.065 60.9042C230.335 60.9882 230.685 61.0722 231.114 61.1562C232.281 61.3989 233.116 61.7582 233.62 62.2342C234.124 62.7102 234.376 63.3216 234.376 64.0682V64.1942C234.376 65.1556 234.064 65.8882 233.438 66.3922C232.813 66.8962 231.889 67.1482 230.666 67.1482C230.088 67.1482 229.523 67.0782 228.972 66.9382C228.431 66.7889 227.974 66.5976 227.6 66.3642C227.376 66.2242 227.25 66.0469 227.222 65.8322C227.194 65.6082 227.246 65.3982 227.376 65.2022C227.507 64.9969 227.666 64.8709 227.852 64.8242C228.039 64.7776 228.24 64.8149 228.455 64.9362C228.781 65.1229 229.14 65.2722 229.532 65.3842C229.924 65.4869 230.33 65.5382 230.75 65.5382C231.394 65.5382 231.861 65.4262 232.151 65.2022C232.44 64.9689 232.584 64.6796 232.584 64.3342V64.2362C232.584 63.8442 232.431 63.5409 232.123 63.3262C231.824 63.1022 231.339 62.9249 230.666 62.7942C230.078 62.6822 229.57 62.5516 229.14 62.4022C228.711 62.2529 228.352 62.0662 228.062 61.8422C227.782 61.6089 227.573 61.3336 227.433 61.0162C227.302 60.6896 227.236 60.2929 227.236 59.8262V59.7282C227.236 59.3362 227.311 58.9676 227.461 58.6222C227.619 58.2769 227.852 57.9782 228.16 57.7262C228.468 57.4649 228.847 57.2596 229.295 57.1102C229.743 56.9609 230.26 56.8862 230.848 56.8862Z" fill="#C5CCCC"/>
<path d="M221.504 56.9561C221.747 56.9561 221.957 57.0121 222.134 57.1241C222.312 57.2361 222.466 57.4554 222.596 57.7821L225.746 65.9021C225.849 66.1727 225.849 66.4061 225.746 66.6021C225.644 66.7981 225.476 66.9334 225.242 67.0081C225.009 67.0827 224.776 67.0921 224.542 67.0361C224.318 66.9801 224.155 66.8027 224.052 66.5041L223.24 64.2641H219.712L218.886 66.5601C218.784 66.8307 218.625 66.9941 218.41 67.0501C218.205 67.0967 217.99 67.0827 217.766 67.0081C217.542 66.9334 217.379 66.8074 217.276 66.6301C217.174 66.4527 217.174 66.2334 217.276 65.9721L220.426 57.7821C220.548 57.4554 220.697 57.2361 220.874 57.1241C221.061 57.0121 221.271 56.9561 221.504 56.9561ZM221.476 59.1961C221.402 59.4761 221.327 59.7281 221.252 59.9521C221.187 60.1667 221.098 60.4327 220.986 60.7501L220.244 62.7801H222.708L221.98 60.7501C221.859 60.4234 221.761 60.1434 221.686 59.9101C221.621 59.6767 221.551 59.4387 221.476 59.1961Z" fill="#C5CCCC"/>
<path d="M215.269 57.04C215.484 57.04 215.638 57.1147 215.731 57.264C215.834 57.404 215.885 57.5767 215.885 57.782C215.885 57.978 215.834 58.1507 215.731 58.3C215.638 58.4494 215.484 58.524 215.269 58.524H211.083V61.17H214.989C215.194 61.17 215.344 61.2447 215.437 61.394C215.54 61.534 215.591 61.702 215.591 61.898C215.591 62.094 215.54 62.2667 215.437 62.416C215.344 62.556 215.194 62.626 214.989 62.626H211.083V65.51H215.367C215.582 65.51 215.736 65.5847 215.829 65.734C215.932 65.8834 215.983 66.056 215.983 66.252C215.983 66.4574 215.932 66.6347 215.829 66.784C215.736 66.924 215.582 66.994 215.367 66.994H210.495C210.047 66.994 209.734 66.91 209.557 66.742C209.389 66.574 209.305 66.2707 209.305 65.832V58.202C209.305 57.7634 209.389 57.46 209.557 57.292C209.734 57.124 210.047 57.04 210.495 57.04H215.269Z" fill="#C5CCCC"/>
<path d="M202.394 56.9561C202.637 56.9561 202.847 57.0167 203.024 57.1381C203.202 57.2594 203.29 57.4554 203.29 57.7261V65.4821H207.35C207.565 65.4821 207.724 65.5567 207.826 65.7061C207.929 65.8554 207.98 66.0327 207.98 66.2381C207.98 66.4434 207.929 66.6207 207.826 66.7701C207.724 66.9194 207.565 66.9941 207.35 66.9941H202.688C202.24 66.9941 201.928 66.9101 201.75 66.7421C201.582 66.5741 201.498 66.2707 201.498 65.8321V57.7261C201.498 57.4554 201.587 57.2594 201.764 57.1381C201.942 57.0167 202.152 56.9561 202.394 56.9561Z" fill="#C5CCCC"/>
<path d="M101.321 119.073C101.103 119.628 103.677 119.569 104.991 119.469L105.164 122.742C100.444 122.841 94.8342 122.122 92.6195 121.75C91.7071 121.552 91.0824 121.915 90.8841 122.122C90.5667 122.499 90.0907 122.279 89.8924 122.122L88.628 121.279C88.0727 121.002 88.3966 119.891 88.628 119.37C88.866 118.458 88.0826 116.395 87.6611 115.478C87.2446 114.744 87.8347 114.395 88.1818 114.313C95.1631 112.23 98.8752 112.387 99.8586 112.726C101.703 113.361 102.131 114.957 102.115 115.676C102.016 116.827 101.544 118.42 101.321 119.073Z" fill="#21958E"/>
<path d="M88.8081 118.156H97.039L96.2062 119.098H88.9073C88.3435 119.098 88.2734 118.807 88.2627 118.662C88.2627 118.257 88.5412 118.156 88.8081 118.156Z" fill="#F0F0F0"/>
<path d="M200.196 119.073C200.414 119.628 197.841 119.569 196.527 119.469L196.354 122.742C201.074 122.841 206.683 122.122 208.898 121.75C209.81 121.552 210.435 121.915 210.634 122.122C210.951 122.499 211.427 122.279 211.625 122.122L212.89 121.279C213.445 121.002 213.121 119.891 212.89 119.37C212.652 118.458 213.435 116.395 213.856 115.478C214.273 114.744 213.683 114.395 213.336 114.313C206.354 112.23 202.642 112.387 201.659 112.726C199.814 113.361 199.386 114.957 199.403 115.676C199.502 116.827 199.973 118.42 200.196 119.073Z" fill="#21958E"/>
<path d="M212.709 118.156H204.479L205.311 119.098H212.61C213.174 119.098 213.244 118.807 213.255 118.662C213.255 118.257 212.976 118.156 212.709 118.156Z" fill="#F0F0F0"/>
<path d="M103.806 188.439C106.682 188.182 107.599 175.192 107.698 168.978L105.417 159.929C100.533 158.995 90.5819 158.541 89.8481 164.193C89.1143 169.846 90.1539 180.564 90.7654 185.216C91.3009 188.013 93.0875 188.348 93.9139 188.291L103.806 188.439Z" fill="#294D50"/>
<path fill-rule="evenodd" clip-rule="evenodd" d="M91.9352 161.058C90.8342 161.788 90.0858 162.806 89.9048 164.2C89.5386 167.021 89.6147 171.109 89.8593 175.076C90.1037 179.041 90.5162 182.882 90.8218 185.207C91.0875 186.593 91.661 187.361 92.2631 187.777C92.8668 188.194 93.5062 188.262 93.9101 188.234L93.9149 188.233L103.804 188.382C104.14 188.351 104.455 188.134 104.75 187.749C105.045 187.364 105.315 186.817 105.56 186.144C106.05 184.798 106.437 182.961 106.737 180.934C107.337 176.884 107.591 172.09 107.641 168.984L105.371 159.978C102.932 159.515 99.2511 159.175 96.085 159.647C94.4941 159.885 93.038 160.327 91.9352 161.058ZM96.0682 159.535C99.2668 159.057 102.983 159.405 105.428 159.873L105.464 159.88L107.755 168.971L107.755 168.979C107.706 172.087 107.451 176.891 106.85 180.951C106.549 182.98 106.161 184.827 105.667 186.183C105.42 186.861 105.146 187.42 104.84 187.819C104.535 188.217 104.193 188.462 103.811 188.496L103.805 188.497L93.9156 188.348C93.4929 188.377 92.8272 188.305 92.1983 187.871C91.5668 187.434 90.9795 186.637 90.7095 185.227L90.7089 185.224C90.403 182.896 89.9902 179.052 89.7455 175.083C89.5008 171.115 89.424 167.018 89.7917 164.186C89.9776 162.754 90.7483 161.709 91.8722 160.963C92.9944 160.219 94.4689 159.773 96.0682 159.535Z" fill="black"/>
<path d="M197.664 188.439C194.789 188.182 193.871 175.192 193.772 168.978L196.053 159.929C200.937 158.995 210.888 158.541 211.622 164.193C212.356 169.846 211.316 180.564 210.705 185.216C210.169 188.013 208.383 188.348 207.556 188.291L197.664 188.439Z" fill="#294D50"/>
<path fill-rule="evenodd" clip-rule="evenodd" d="M209.535 161.058C210.636 161.788 211.384 162.806 211.565 164.2C211.932 167.021 211.856 171.109 211.611 175.076C211.366 179.041 210.954 182.882 210.648 185.207C210.383 186.593 209.809 187.361 209.207 187.777C208.603 188.194 207.964 188.262 207.56 188.234L207.555 188.233L197.666 188.382C197.331 188.351 197.016 188.134 196.721 187.749C196.425 187.364 196.155 186.817 195.91 186.144C195.42 184.798 195.034 182.961 194.733 180.934C194.133 176.884 193.879 172.09 193.829 168.984L196.099 159.978C198.538 159.515 202.219 159.175 205.385 159.647C206.976 159.885 208.432 160.327 209.535 161.058ZM205.402 159.535C202.203 159.057 198.488 159.405 196.042 159.873L196.006 159.88L193.715 168.971L193.715 168.979C193.765 172.087 194.019 176.891 194.62 180.951C194.921 182.98 195.309 184.827 195.803 186.183C196.05 186.861 196.325 187.42 196.63 187.819C196.935 188.217 197.277 188.462 197.659 188.496L197.665 188.497L207.555 188.348C207.977 188.377 208.643 188.305 209.272 187.871C209.903 187.434 210.491 186.637 210.761 185.227L210.761 185.224C211.067 182.896 211.48 179.052 211.725 175.083C211.969 171.115 212.046 167.018 211.679 164.186C211.493 162.754 210.722 161.709 209.598 160.963C208.476 160.219 207.001 159.773 205.402 159.535Z" fill="black"/>
<path d="M101.302 177.947C101.302 177.128 101.965 176.464 102.784 176.464H118.364C119.182 176.464 119.846 177.128 119.846 177.947V178.949C119.846 179.767 119.182 180.431 118.364 180.431H102.784C101.965 180.431 101.302 179.767 101.302 178.949V177.947Z" fill="#092628"/>
<path d="M181.825 177.947C181.825 177.128 182.488 176.464 183.307 176.464H198.887C199.705 176.464 200.369 177.128 200.369 177.947V178.949C200.369 179.767 199.705 180.431 198.887 180.431H183.307C182.488 180.431 181.825 179.767 181.825 178.949V177.947Z" fill="#092628"/>
<path fill-rule="evenodd" clip-rule="evenodd" d="M151.417 94.4537C162.197 94.4821 183.123 95.3251 186.07 98.5436C189.086 101.791 195.977 111.192 199.408 122.815L199.766 123.141C205.466 128.332 211.556 133.878 211.556 138.383C212.068 142.655 212.785 151.509 211.556 165.729L210.936 175.646L195.838 177.654L150.781 177.95V177.951L150.674 177.951L150.568 177.951V177.95L105.511 177.654L90.4131 175.646L89.7932 165.729C88.5635 151.509 89.2809 142.655 89.7932 138.383C89.7932 133.878 95.8829 128.332 101.583 123.141L101.941 122.815C105.372 111.192 112.263 101.791 115.279 98.5436C118.224 95.3277 139.118 94.4835 149.906 94.4538C150.175 94.4519 150.441 94.4507 150.676 94.4507C150.902 94.4507 151.158 94.4519 151.417 94.4537ZM150.686 98.6505L150.663 98.6449L150.674 106.36L150.686 98.6505Z" fill="#36B6AF"/>
<path d="M185.49 99.5213C153.245 96.5839 125.97 98.2974 116.362 99.5213C110.895 106.17 106.06 116.647 104.326 121.055C113.634 119.904 139.045 119.533 150.587 119.492C163.03 119.413 186.679 120.501 196.948 121.055C193.128 110.953 187.718 102.49 185.49 99.5213Z" fill="#3B666B"/>
<path d="M118.072 99.3808C118.879 97.9748 119.475 97.0221 119.795 96.7344C118.22 96.9142 116.915 98.6871 116.324 99.5606L118.072 99.3808Z" fill="#278681"/>
<path d="M177.75 149.452C179.257 147.885 181.287 146.403 182.113 145.857C189.273 144.786 200.914 142.072 205.839 140.849C209.806 139.897 211.194 138.221 211.392 137.502C211.65 138.454 211.731 139.701 211.739 140.205C211.64 140.681 210.987 141.312 210.673 141.568C210.197 147.26 208.971 150.369 208.417 151.212C207.822 152.244 205.211 152.452 203.98 152.427L187.22 152.898C184.285 152.839 179.502 151.105 177.477 150.245L177.75 149.452Z" fill="white"/>
<path fill-rule="evenodd" clip-rule="evenodd" d="M211.393 137.286L211.447 137.487C211.707 138.446 211.788 139.698 211.796 140.204L211.797 140.217L211.795 140.216C211.742 140.47 211.546 140.756 211.33 141.006C211.121 141.249 210.887 141.465 210.728 141.597C210.489 144.435 210.064 146.63 209.629 148.224C209.194 149.818 208.747 150.813 208.466 151.242C208.309 151.514 208.022 151.726 207.67 151.892C207.317 152.059 206.891 152.182 206.448 152.271C205.563 152.45 204.598 152.496 203.98 152.484L187.219 152.955C185.743 152.925 183.808 152.475 181.991 151.926C180.173 151.377 178.469 150.728 177.455 150.298L177.406 150.277L177.7 149.422L177.709 149.412C179.22 147.841 181.254 146.356 182.082 145.81L182.092 145.803L182.105 145.801C189.262 144.73 200.9 142.017 205.825 140.794C207.803 140.319 209.135 139.665 209.995 139.042C210.858 138.418 211.243 137.829 211.337 137.487L211.393 137.286ZM205.852 140.905C200.93 142.127 189.298 144.839 182.134 145.912C181.305 146.46 179.296 147.93 177.8 149.482L177.548 150.214C178.564 150.642 180.239 151.278 182.024 151.817C183.838 152.365 185.761 152.811 187.22 152.841L203.981 152.37C204.593 152.382 205.55 152.337 206.426 152.16C206.864 152.071 207.28 151.95 207.622 151.789C207.965 151.627 208.227 151.427 208.368 151.184L208.369 151.181C208.641 150.767 209.085 149.786 209.519 148.194C209.954 146.603 210.379 144.406 210.616 141.563L210.618 141.539L210.637 141.524C210.792 141.398 211.031 141.178 211.244 140.932C211.456 140.685 211.634 140.421 211.682 140.199C211.674 139.724 211.602 138.608 211.383 137.695C211.215 138.071 210.809 138.594 210.062 139.135C209.187 139.768 207.841 140.427 205.852 140.905Z" fill="white"/>
<path d="M123.585 149.124C122.078 147.557 120.048 146.075 119.222 145.529C112.062 144.458 100.421 141.744 95.496 140.521C91.5293 139.569 90.141 137.893 89.9426 137.174C89.6848 138.126 89.6038 139.373 89.5956 139.877C89.6947 140.353 90.3476 140.984 90.6616 141.24C91.1376 146.932 92.364 150.041 92.9176 150.884C93.5126 151.915 96.124 152.124 97.3554 152.099L114.115 152.57C117.05 152.51 121.833 150.777 123.858 149.917L123.585 149.124Z" fill="white"/>
<path fill-rule="evenodd" clip-rule="evenodd" d="M89.9422 136.958L89.8877 137.159C89.6281 138.118 89.5469 139.37 89.5386 139.876L89.5384 139.888L89.5398 139.888C89.5926 140.141 89.7894 140.428 90.0049 140.678C90.2139 140.921 90.4477 141.137 90.6069 141.269C90.8455 144.106 91.2705 146.302 91.7056 147.896C92.141 149.49 92.5875 150.484 92.8692 150.914C93.0264 151.185 93.3127 151.398 93.6647 151.564C94.018 151.731 94.4436 151.854 94.8867 151.943C95.7723 152.122 96.7365 152.168 97.3552 152.156L114.116 152.627C115.592 152.597 117.527 152.147 119.344 151.598C121.162 151.049 122.866 150.4 123.88 149.97L123.929 149.949L123.635 149.093L123.626 149.084C122.115 147.513 120.081 146.028 119.253 145.481L119.243 145.475L119.23 145.473C112.073 144.402 100.435 141.689 95.5098 140.466C93.5322 139.991 92.2003 139.337 91.3397 138.714C90.4774 138.09 90.092 137.501 89.9977 137.159L89.9422 136.958ZM95.4825 140.576C100.405 141.799 112.037 144.511 119.201 145.584C120.03 146.132 122.039 147.602 123.535 149.154L123.787 149.885C122.771 150.314 121.096 150.95 119.311 151.489C117.497 152.037 115.574 152.483 114.115 152.513L97.3543 152.042C96.7416 152.054 95.7853 152.008 94.9093 151.832C94.4712 151.743 94.0554 151.622 93.7133 151.461C93.3704 151.299 93.1076 151.099 92.9671 150.856L92.9655 150.853C92.6935 150.439 92.2503 149.457 91.8156 147.866C91.3813 146.275 90.9563 144.078 90.7185 141.235L90.7165 141.211L90.6977 141.196C90.5429 141.07 90.3036 140.85 90.0913 140.604C89.8791 140.357 89.7011 140.092 89.6528 139.871C89.661 139.396 89.7331 138.28 89.9525 137.367C90.1195 137.743 90.526 138.266 91.2729 138.806C92.1477 139.439 93.4935 140.099 95.4825 140.576Z" fill="white"/>
<path d="M127.185 172.894C113.401 173.191 96.7987 172.15 90.2703 171.605L90.543 175.695L105.815 177.679L151.159 178.026L195.808 177.679L210.931 175.646L211.254 171.332C208.12 172.443 185.206 172.836 174.19 172.894H127.185Z" fill="#3B666B"/>
<path fill-rule="evenodd" clip-rule="evenodd" d="M210.95 172.077C210.977 172.239 210.867 172.392 210.705 172.419C206.204 173.154 199.133 173.396 192.118 173.458C187.789 173.496 183.463 173.466 179.766 173.44C177.475 173.424 175.425 173.41 173.767 173.414L173.767 173.414H127.505C111.517 173.414 96.4544 172.919 90.7902 172.471C90.6264 172.458 90.5041 172.315 90.5171 172.151C90.53 171.988 90.6732 171.865 90.837 171.878C96.4778 172.324 111.522 172.819 127.505 172.819H173.766C175.438 172.815 177.492 172.829 179.785 172.845C183.475 172.871 187.783 172.901 192.113 172.863C199.132 172.801 206.159 172.559 210.609 171.832C210.771 171.805 210.924 171.915 210.95 172.077Z" fill="#BCBCBC"/>
<path fill-rule="evenodd" clip-rule="evenodd" d="M210.95 173.417C210.977 173.579 210.867 173.732 210.705 173.758C206.204 174.494 199.133 174.735 192.118 174.797C187.789 174.835 183.463 174.805 179.766 174.779C177.475 174.763 175.425 174.749 173.767 174.754L173.767 174.754H127.505C111.517 174.754 96.4544 174.258 90.7902 173.811C90.6264 173.798 90.5041 173.655 90.5171 173.491C90.53 173.327 90.6732 173.205 90.837 173.218C96.4778 173.663 111.522 174.159 127.505 174.159H173.766C175.438 174.154 177.492 174.168 179.785 174.184C183.475 174.21 187.783 174.24 192.113 174.202C199.132 174.14 206.159 173.898 210.609 173.171C210.771 173.144 210.924 173.254 210.95 173.417Z" fill="#BCBCBC"/>
<path d="M132.435 158.185C132.435 157.177 133.252 156.36 134.259 156.36H167.302C168.31 156.36 169.127 157.177 169.127 158.185V162.965C169.127 163.973 168.31 164.79 167.302 164.79H134.259C133.252 164.79 132.435 163.973 132.435 162.965V158.185Z" fill="#3B666B"/>
<path d="M183.753 99.3866C182.94 98.03 182.34 97.1107 182.018 96.833C183.604 97.0065 184.918 98.7172 185.513 99.5601L183.753 99.3866Z" fill="#278681"/>
</svg>
