<svg width="200" height="160" viewBox="0 0 200 160" fill="none" xmlns="http://www.w3.org/2000/svg">
<g clip-path="url(#clip0_91_13477)" filter="url(#filter0_ii_91_13477)">
<path d="M130.625 10H69.375C47.6288 10 30 27.6288 30 49.375V110.625C30 132.371 47.6288 150 69.375 150H130.625C152.371 150 170 132.371 170 110.625V49.375C170 27.6288 152.371 10 130.625 10Z" fill="#F3F3F3"/>
<g filter="url(#filter1_dii_91_13477)">
<path d="M92.9989 81.4485C92.9989 81.7951 92.9875 82.1425 93.0095 82.4883C93.0282 83.4866 93.3853 84.449 94.0222 85.2179C94.6591 85.9868 95.5382 86.5168 96.5156 86.721C97.5712 86.9377 98.6629 86.9047 99.7036 86.6246C106.044 85.0354 112.392 83.4692 118.728 81.8597C119.02 81.7283 119.35 81.7097 119.654 81.8075C119.959 81.9054 120.216 82.1127 120.377 82.3894C121.105 83.4414 121.941 84.4183 122.74 85.4213C123.291 86.0968 124.049 86.5723 124.898 86.7744C125.746 86.9765 126.637 86.894 127.434 86.5395C128.11 86.2161 128.667 85.688 129.026 85.0303C129.385 84.3726 129.528 83.6185 129.435 82.8749C129.348 81.9735 128.98 81.1221 128.383 80.4414C124.056 74.812 119.73 69.1814 115.407 63.5498C114.986 62.9518 114.399 62.4896 113.719 62.2198C112.901 61.9134 112.004 61.8862 111.169 62.1422C110.333 62.3983 109.606 62.9233 109.099 63.6356C108.582 64.3187 108.311 65.1573 108.332 66.0141C108.353 66.8709 108.664 67.6952 109.215 68.3522C110.768 70.346 112.36 72.3136 113.93 74.2951C114.642 75.1942 114.64 75.2139 113.474 75.4591C110.326 76.122 107.165 76.7269 104.033 77.4586C103.08 77.6809 102.97 77.4488 102.97 76.5782C102.997 66.0059 102.997 55.4336 102.97 44.8614C102.97 43.9802 103.125 43.7603 104.025 43.9532C109.031 45.024 114.045 46.0595 119.066 47.0595C119.846 47.2156 120.108 47.5009 120.103 48.3339C120.06 54.3993 120.079 60.4655 120.081 66.5318C120.014 66.9442 120.096 67.367 120.312 67.7244C122.513 70.5708 124.708 73.4209 126.899 76.2749L127.111 76.2005V75.1803C127.111 65.6135 127.111 56.0465 127.111 46.4791C127.111 46.1333 127.117 45.7851 127.088 45.4401C127.056 44.3572 126.686 43.3115 126.029 42.4499C125.373 41.5883 124.462 40.9542 123.427 40.6368C115.416 38.4763 107.405 36.2954 99.3692 34.2354C96.339 33.4589 92.918 34.4749 92.9589 39.2218C93.0758 53.3015 92.9981 67.3746 92.9989 81.4485Z" fill="#04B2A6"/>
<path d="M71.3921 52.902C72.18 53.3527 73.0918 53.539 73.9934 53.4333C74.895 53.3277 75.7389 52.9357 76.4014 52.3151C77.2409 51.5548 78.0779 50.793 79.1071 49.8627V51.2597C79.1071 61.0691 79.1036 70.8768 79.0965 80.6828C79.0757 81.4115 79.2157 82.1359 79.5064 82.8044C79.7972 83.4729 80.2316 84.0692 80.7788 84.5509C81.8031 85.4924 83.028 86.189 84.3608 86.588C87.1867 87.4398 88.9973 86.1033 88.9973 83.1637C88.9973 68.1925 88.9973 53.2208 88.9973 38.2485C88.9973 37.9371 89.0088 37.6248 88.9892 37.3133C89.0026 36.5388 88.7094 35.7903 88.1736 35.2309C87.6377 34.6714 86.9025 34.3463 86.1281 34.3264C85.1395 34.2541 84.1469 34.3952 83.2175 34.7402C82.2882 35.0852 81.444 35.626 80.742 36.3259C77.5654 39.1166 74.4281 41.9507 71.2368 44.7235C70.1137 45.6694 69.3848 47.001 69.1932 48.4567C69.0401 49.3352 69.1708 50.2395 69.5661 51.0387C69.9615 51.838 70.601 52.4906 71.3921 52.902Z" fill="#EF4567"/>
</g>
<g filter="url(#filter2_dii_91_13477)">
<mask id="path-4-outside-1_91_13477" maskUnits="userSpaceOnUse" x="61" y="97.2275" width="78" height="29" fill="black">
<rect fill="white" x="61" y="97.2275" width="78" height="29"/>
<path d="M67.8856 109.028H62.2943V106.379H68.6507C68.7292 105.908 68.788 105.437 68.8273 104.967C68.8861 104.496 68.9156 104.005 68.9156 103.495V102.406H62.2943V99.7578H73.0355V102.73C73.0159 104.555 72.7608 106.301 72.2704 107.968C71.7799 109.636 71.0638 111.146 70.1221 112.5C69.1804 113.854 68.0229 115.011 66.6496 115.973C65.2959 116.914 63.7461 117.581 62 117.974V115.296C63.3733 114.707 64.5504 113.873 65.5314 112.794C66.5319 111.696 67.3167 110.44 67.8856 109.028ZM79.3625 109.175V124.919H75.5369V98.2864H79.3625V106.526H81.2753V98.2864H85.1009V124.919H81.2753V109.175H79.3625Z"/>
<path d="M108.567 98.2275V124.919H104.594V116.326C103.868 116.698 103.024 116.954 102.063 117.091C101.102 117.209 100.131 117.267 99.1496 117.267H87.0253V114.619H89.3795V102.347H87.1724V99.6989H101.798V102.347H99.5321V109.44C99.5321 110.538 99.4831 111.558 99.385 112.5C99.2869 113.442 99.1594 114.148 99.0024 114.619H99.8264C100.729 114.619 101.563 114.58 102.328 114.501C103.113 114.403 103.868 114.148 104.594 113.736V98.2275H108.567ZM93.3523 114.619H95.0297C95.2258 114.109 95.3632 113.403 95.4417 112.5C95.5201 111.578 95.5594 110.558 95.5594 109.44V102.347H93.3523V114.619Z"/>
<path d="M134.498 125.213H119.902C119.49 125.213 119.097 125.115 118.725 124.919C118.352 124.742 118.028 124.487 117.754 124.154C117.479 123.82 117.253 123.437 117.077 123.006C116.92 122.574 116.841 122.113 116.841 121.623V118.091H130.202V116.355H116.841V113.707H134.204V118.239C134.204 118.906 134.008 119.494 133.615 120.004C133.223 120.495 132.772 120.74 132.262 120.74H120.814V121.534C120.814 121.848 120.912 122.094 121.108 122.27C121.324 122.466 121.628 122.564 122.021 122.564H134.498V125.213ZM113.428 98.875H125.935V101.523H117.4V103.731H125.64V106.379H117.4V107.644C117.4 107.998 117.508 108.272 117.724 108.468C117.94 108.645 118.264 108.733 118.695 108.733H125.67C126.533 108.733 127.308 108.704 127.994 108.645C128.701 108.586 129.436 108.361 130.202 107.968V98.2864H134.174V103.142H138V105.791H134.174V112.265H130.202V110.528C129.495 110.862 128.76 111.088 127.994 111.205C127.249 111.323 126.445 111.382 125.581 111.382H116.488C115.605 111.382 114.87 111.029 114.281 110.322C113.712 109.597 113.428 108.733 113.428 107.733V98.875Z"/>
</mask>
<path d="M67.8856 109.028H62.2943V106.379H68.6507C68.7292 105.908 68.788 105.437 68.8273 104.967C68.8861 104.496 68.9156 104.005 68.9156 103.495V102.406H62.2943V99.7578H73.0355V102.73C73.0159 104.555 72.7608 106.301 72.2704 107.968C71.7799 109.636 71.0638 111.146 70.1221 112.5C69.1804 113.854 68.0229 115.011 66.6496 115.973C65.2959 116.914 63.7461 117.581 62 117.974V115.296C63.3733 114.707 64.5504 113.873 65.5314 112.794C66.5319 111.696 67.3167 110.44 67.8856 109.028ZM79.3625 109.175V124.919H75.5369V98.2864H79.3625V106.526H81.2753V98.2864H85.1009V124.919H81.2753V109.175H79.3625Z" fill="#04B2A6"/>
<path d="M108.567 98.2275V124.919H104.594V116.326C103.868 116.698 103.024 116.954 102.063 117.091C101.102 117.209 100.131 117.267 99.1496 117.267H87.0253V114.619H89.3795V102.347H87.1724V99.6989H101.798V102.347H99.5321V109.44C99.5321 110.538 99.4831 111.558 99.385 112.5C99.2869 113.442 99.1594 114.148 99.0024 114.619H99.8264C100.729 114.619 101.563 114.58 102.328 114.501C103.113 114.403 103.868 114.148 104.594 113.736V98.2275H108.567ZM93.3523 114.619H95.0297C95.2258 114.109 95.3632 113.403 95.4417 112.5C95.5201 111.578 95.5594 110.558 95.5594 109.44V102.347H93.3523V114.619Z" fill="#04B2A6"/>
<path d="M134.498 125.213H119.902C119.49 125.213 119.097 125.115 118.725 124.919C118.352 124.742 118.028 124.487 117.754 124.154C117.479 123.82 117.253 123.437 117.077 123.006C116.92 122.574 116.841 122.113 116.841 121.623V118.091H130.202V116.355H116.841V113.707H134.204V118.239C134.204 118.906 134.008 119.494 133.615 120.004C133.223 120.495 132.772 120.74 132.262 120.74H120.814V121.534C120.814 121.848 120.912 122.094 121.108 122.27C121.324 122.466 121.628 122.564 122.021 122.564H134.498V125.213ZM113.428 98.875H125.935V101.523H117.4V103.731H125.64V106.379H117.4V107.644C117.4 107.998 117.508 108.272 117.724 108.468C117.94 108.645 118.264 108.733 118.695 108.733H125.67C126.533 108.733 127.308 108.704 127.994 108.645C128.701 108.586 129.436 108.361 130.202 107.968V98.2864H134.174V103.142H138V105.791H134.174V112.265H130.202V110.528C129.495 110.862 128.76 111.088 127.994 111.205C127.249 111.323 126.445 111.382 125.581 111.382H116.488C115.605 111.382 114.87 111.029 114.281 110.322C113.712 109.597 113.428 108.733 113.428 107.733V98.875Z" fill="#04B2A6"/>
<path d="M67.8856 109.028H62.2943V106.379H68.6507C68.7292 105.908 68.788 105.437 68.8273 104.967C68.8861 104.496 68.9156 104.005 68.9156 103.495V102.406H62.2943V99.7578H73.0355V102.73C73.0159 104.555 72.7608 106.301 72.2704 107.968C71.7799 109.636 71.0638 111.146 70.1221 112.5C69.1804 113.854 68.0229 115.011 66.6496 115.973C65.2959 116.914 63.7461 117.581 62 117.974V115.296C63.3733 114.707 64.5504 113.873 65.5314 112.794C66.5319 111.696 67.3167 110.44 67.8856 109.028ZM79.3625 109.175V124.919H75.5369V98.2864H79.3625V106.526H81.2753V98.2864H85.1009V124.919H81.2753V109.175H79.3625Z" stroke="#04B2A6" stroke-width="0.2" mask="url(#path-4-outside-1_91_13477)"/>
<path d="M108.567 98.2275V124.919H104.594V116.326C103.868 116.698 103.024 116.954 102.063 117.091C101.102 117.209 100.131 117.267 99.1496 117.267H87.0253V114.619H89.3795V102.347H87.1724V99.6989H101.798V102.347H99.5321V109.44C99.5321 110.538 99.4831 111.558 99.385 112.5C99.2869 113.442 99.1594 114.148 99.0024 114.619H99.8264C100.729 114.619 101.563 114.58 102.328 114.501C103.113 114.403 103.868 114.148 104.594 113.736V98.2275H108.567ZM93.3523 114.619H95.0297C95.2258 114.109 95.3632 113.403 95.4417 112.5C95.5201 111.578 95.5594 110.558 95.5594 109.44V102.347H93.3523V114.619Z" stroke="#04B2A6" stroke-width="0.2" mask="url(#path-4-outside-1_91_13477)"/>
<path d="M134.498 125.213H119.902C119.49 125.213 119.097 125.115 118.725 124.919C118.352 124.742 118.028 124.487 117.754 124.154C117.479 123.82 117.253 123.437 117.077 123.006C116.92 122.574 116.841 122.113 116.841 121.623V118.091H130.202V116.355H116.841V113.707H134.204V118.239C134.204 118.906 134.008 119.494 133.615 120.004C133.223 120.495 132.772 120.74 132.262 120.74H120.814V121.534C120.814 121.848 120.912 122.094 121.108 122.27C121.324 122.466 121.628 122.564 122.021 122.564H134.498V125.213ZM113.428 98.875H125.935V101.523H117.4V103.731H125.64V106.379H117.4V107.644C117.4 107.998 117.508 108.272 117.724 108.468C117.94 108.645 118.264 108.733 118.695 108.733H125.67C126.533 108.733 127.308 108.704 127.994 108.645C128.701 108.586 129.436 108.361 130.202 107.968V98.2864H134.174V103.142H138V105.791H134.174V112.265H130.202V110.528C129.495 110.862 128.76 111.088 127.994 111.205C127.249 111.323 126.445 111.382 125.581 111.382H116.488C115.605 111.382 114.87 111.029 114.281 110.322C113.712 109.597 113.428 108.733 113.428 107.733V98.875Z" stroke="#04B2A6" stroke-width="0.2" mask="url(#path-4-outside-1_91_13477)"/>
</g>
</g>
<defs>
<filter id="filter0_ii_91_13477" x="28" y="8" width="144" height="144" filterUnits="userSpaceOnUse" color-interpolation-filters="sRGB">
<feFlood flood-opacity="0" result="BackgroundImageFix"/>
<feBlend mode="normal" in="SourceGraphic" in2="BackgroundImageFix" result="shape"/>
<feColorMatrix in="SourceAlpha" type="matrix" values="0 0 0 0 0 0 0 0 0 0 0 0 0 0 0 0 0 0 127 0" result="hardAlpha"/>
<feOffset dx="2" dy="2"/>
<feGaussianBlur stdDeviation="5"/>
<feComposite in2="hardAlpha" operator="arithmetic" k2="-1" k3="1"/>
<feColorMatrix type="matrix" values="0 0 0 0 1 0 0 0 0 1 0 0 0 0 1 0 0 0 0.5 0"/>
<feBlend mode="normal" in2="shape" result="effect1_innerShadow_91_13477"/>
<feColorMatrix in="SourceAlpha" type="matrix" values="0 0 0 0 0 0 0 0 0 0 0 0 0 0 0 0 0 0 127 0" result="hardAlpha"/>
<feOffset dx="-2" dy="-2"/>
<feGaussianBlur stdDeviation="5"/>
<feComposite in2="hardAlpha" operator="arithmetic" k2="-1" k3="1"/>
<feColorMatrix type="matrix" values="0 0 0 0 0 0 0 0 0 0 0 0 0 0 0 0 0 0 0.16 0"/>
<feBlend mode="normal" in2="effect1_innerShadow_91_13477" result="effect2_innerShadow_91_13477"/>
</filter>
<filter id="filter1_dii_91_13477" x="68.1309" y="33" width="62.3318" height="54.8826" filterUnits="userSpaceOnUse" color-interpolation-filters="sRGB">
<feFlood flood-opacity="0" result="BackgroundImageFix"/>
<feColorMatrix in="SourceAlpha" type="matrix" values="0 0 0 0 0 0 0 0 0 0 0 0 0 0 0 0 0 0 127 0" result="hardAlpha"/>
<feOffset dx="0.5" dy="0.5"/>
<feGaussianBlur stdDeviation="0.25"/>
<feComposite in2="hardAlpha" operator="out"/>
<feColorMatrix type="matrix" values="0 0 0 0 0 0 0 0 0 0 0 0 0 0 0 0 0 0 0.1 0"/>
<feBlend mode="normal" in2="BackgroundImageFix" result="effect1_dropShadow_91_13477"/>
<feBlend mode="normal" in="SourceGraphic" in2="effect1_dropShadow_91_13477" result="shape"/>
<feColorMatrix in="SourceAlpha" type="matrix" values="0 0 0 0 0 0 0 0 0 0 0 0 0 0 0 0 0 0 127 0" result="hardAlpha"/>
<feOffset dx="1" dy="1"/>
<feGaussianBlur stdDeviation="1.5"/>
<feComposite in2="hardAlpha" operator="arithmetic" k2="-1" k3="1"/>
<feColorMatrix type="matrix" values="0 0 0 0 1 0 0 0 0 1 0 0 0 0 1 0 0 0 0.25 0"/>
<feBlend mode="normal" in2="shape" result="effect2_innerShadow_91_13477"/>
<feColorMatrix in="SourceAlpha" type="matrix" values="0 0 0 0 0 0 0 0 0 0 0 0 0 0 0 0 0 0 127 0" result="hardAlpha"/>
<feOffset dx="-1" dy="-1"/>
<feGaussianBlur stdDeviation="1.5"/>
<feComposite in2="hardAlpha" operator="arithmetic" k2="-1" k3="1"/>
<feColorMatrix type="matrix" values="0 0 0 0 0 0 0 0 0 0 0 0 0 0 0 0 0 0 0.25 0"/>
<feBlend mode="normal" in2="effect2_innerShadow_91_13477" result="effect3_innerShadow_91_13477"/>
</filter>
<filter id="filter2_dii_91_13477" x="61.3999" y="97.6276" width="77.7002" height="28.6854" filterUnits="userSpaceOnUse" color-interpolation-filters="sRGB">
<feFlood flood-opacity="0" result="BackgroundImageFix"/>
<feColorMatrix in="SourceAlpha" type="matrix" values="0 0 0 0 0 0 0 0 0 0 0 0 0 0 0 0 0 0 127 0" result="hardAlpha"/>
<feOffset dx="0.5" dy="0.5"/>
<feGaussianBlur stdDeviation="0.25"/>
<feComposite in2="hardAlpha" operator="out"/>
<feColorMatrix type="matrix" values="0 0 0 0 0 0 0 0 0 0 0 0 0 0 0 0 0 0 0.1 0"/>
<feBlend mode="normal" in2="BackgroundImageFix" result="effect1_dropShadow_91_13477"/>
<feBlend mode="normal" in="SourceGraphic" in2="effect1_dropShadow_91_13477" result="shape"/>
<feColorMatrix in="SourceAlpha" type="matrix" values="0 0 0 0 0 0 0 0 0 0 0 0 0 0 0 0 0 0 127 0" result="hardAlpha"/>
<feOffset dx="0.5" dy="0.5"/>
<feGaussianBlur stdDeviation="0.5"/>
<feComposite in2="hardAlpha" operator="arithmetic" k2="-1" k3="1"/>
<feColorMatrix type="matrix" values="0 0 0 0 1 0 0 0 0 1 0 0 0 0 1 0 0 0 0.25 0"/>
<feBlend mode="normal" in2="shape" result="effect2_innerShadow_91_13477"/>
<feColorMatrix in="SourceAlpha" type="matrix" values="0 0 0 0 0 0 0 0 0 0 0 0 0 0 0 0 0 0 127 0" result="hardAlpha"/>
<feOffset dx="-0.5" dy="-0.5"/>
<feGaussianBlur stdDeviation="0.5"/>
<feComposite in2="hardAlpha" operator="arithmetic" k2="-1" k3="1"/>
<feColorMatrix type="matrix" values="0 0 0 0 0 0 0 0 0 0 0 0 0 0 0 0 0 0 0.25 0"/>
<feBlend mode="normal" in2="effect2_innerShadow_91_13477" result="effect3_innerShadow_91_13477"/>
</filter>
<clipPath id="clip0_91_13477">
<rect width="140" height="140" fill="white" transform="translate(30 10)"/>
</clipPath>
</defs>
</svg>
