<svg width="360" height="201" viewBox="0 0 360 201" fill="none" xmlns="http://www.w3.org/2000/svg">
<path d="M120 65.2365C120 56.6698 126.945 49.7251 135.511 49.7251H232.565C241.132 49.7251 248.076 56.6698 248.076 65.2365V152.488C248.076 161.055 241.132 168 232.565 168H135.511C126.945 168 120 161.055 120 152.488V65.2365Z" fill="#7D6BCC"/>
<path d="M213.516 56.227C213.516 53.7069 215.559 51.6641 218.079 51.6641H221.151C223.671 51.6641 225.714 53.7069 225.714 56.227V56.7958C225.714 59.3158 223.671 61.3587 221.151 61.3587H218.079C215.559 61.3587 213.516 59.3158 213.516 56.7958V56.227Z" fill="#5743AE"/>
<path d="M215.549 45.0659C215.549 42.8204 217.369 41 219.615 41C221.861 41 223.681 42.8204 223.681 45.0659V55.3539C223.681 57.5995 221.861 59.4198 219.615 59.4198C217.369 59.4198 215.549 57.5995 215.549 55.3539V45.0659Z" fill="#9098A6"/>
<path d="M142.363 56.227C142.363 53.7069 144.405 51.6641 146.925 51.6641H149.997C152.517 51.6641 154.56 53.7069 154.56 56.227V56.7958C154.56 59.3158 152.517 61.3587 149.997 61.3587H146.925C144.405 61.3587 142.363 59.3158 142.363 56.7958V56.227Z" fill="#5743AE"/>
<path d="M144.396 45.0659C144.396 42.8204 146.216 41 148.462 41C150.707 41 152.528 42.8204 152.528 45.0659V55.3539C152.528 57.5995 150.707 59.4198 148.462 59.4198C146.216 59.4198 144.396 57.5995 144.396 55.3539V45.0659Z" fill="#9098A6"/>
<path d="M215.549 49.7251H223.681V55.3538C223.681 57.5994 221.861 59.4198 219.615 59.4198C217.369 59.4198 215.549 57.5994 215.549 55.3538V49.7251Z" fill="#A7ABB1"/>
<path d="M144.396 49.7251H152.528V55.3538C152.528 57.5994 150.707 59.4198 148.462 59.4198C146.216 59.4198 144.396 57.5994 144.396 55.3538V49.7251Z" fill="#A7ABB1"/>
<path d="M134.231 67.1757C134.231 66.1049 135.099 65.2368 136.17 65.2368H231.907C232.978 65.2368 233.846 66.1049 233.846 67.1757V136.977C233.846 138.048 232.978 138.916 231.907 138.916H136.17C135.099 138.916 134.231 138.048 134.231 136.977V67.1757Z" fill="white"/>
<path d="M134.231 102.076H233.846V136.977C233.846 138.048 232.978 138.916 231.907 138.916H136.17C135.099 138.916 134.231 138.048 134.231 136.977V102.076Z" fill="#D6D6D6"/>
<path d="M126.009 78.4925C125.558 77.2297 126.494 75.9009 127.835 75.9009H240.242C241.583 75.9009 242.519 77.2297 242.068 78.4925L233.636 102.076H134.441L126.009 78.4925Z" fill="#E2E2E2"/>
<g style="mix-blend-mode:multiply">
<path d="M126.053 124.668C125.583 125.935 126.52 127.282 127.871 127.282H240.206C241.557 127.282 242.494 125.935 242.024 124.668L233.636 102.076H134.441L126.053 124.668Z" fill="#E2E2E2" fill-opacity="0.5"/>
</g>
<path d="M198.377 149.474C198.985 149.474 199.495 149.578 199.907 149.787C200.031 149.849 200.11 149.942 200.143 150.066C200.177 150.19 200.16 150.314 200.093 150.438C200.025 150.567 199.938 150.649 199.831 150.683C199.724 150.711 199.611 150.7 199.493 150.649C199.312 150.57 199.14 150.517 198.977 150.488C198.814 150.455 198.619 150.438 198.394 150.438C198.208 150.438 198.044 150.46 197.903 150.505C197.768 150.545 197.653 150.601 197.557 150.674C197.461 150.742 197.388 150.821 197.337 150.911C197.292 150.996 197.27 151.083 197.27 151.173V151.224C197.27 151.331 197.286 151.424 197.32 151.503C197.36 151.582 197.424 151.655 197.515 151.723C197.61 151.784 197.74 151.844 197.903 151.9C198.067 151.951 198.278 152.001 198.537 152.052C199.242 152.199 199.746 152.416 200.05 152.703C200.355 152.99 200.507 153.359 200.507 153.81V153.886C200.507 154.467 200.318 154.909 199.941 155.213C199.563 155.518 199.005 155.67 198.267 155.67C197.918 155.67 197.577 155.628 197.244 155.543C196.917 155.453 196.641 155.337 196.416 155.197C196.281 155.112 196.204 155.005 196.188 154.875C196.171 154.74 196.202 154.613 196.281 154.495C196.359 154.371 196.455 154.295 196.568 154.267C196.681 154.239 196.802 154.261 196.931 154.334C197.129 154.447 197.346 154.537 197.582 154.605C197.819 154.667 198.064 154.698 198.318 154.698C198.706 154.698 198.988 154.63 199.163 154.495C199.338 154.354 199.425 154.179 199.425 153.971V153.912C199.425 153.675 199.332 153.492 199.146 153.362C198.966 153.227 198.673 153.12 198.267 153.041C197.912 152.973 197.605 152.895 197.346 152.804C197.086 152.714 196.869 152.602 196.695 152.466C196.526 152.325 196.399 152.159 196.314 151.968C196.235 151.77 196.196 151.531 196.196 151.249V151.19C196.196 150.953 196.241 150.731 196.331 150.522C196.427 150.314 196.568 150.133 196.754 149.981C196.94 149.823 197.168 149.7 197.439 149.609C197.709 149.519 198.022 149.474 198.377 149.474Z" fill="white" fill-opacity="0.9"/>
<path d="M190.83 149.517C190.977 149.517 191.104 149.553 191.211 149.626C191.318 149.7 191.371 149.818 191.371 149.981V151.993H193.899V149.981C193.899 149.818 193.952 149.7 194.059 149.626C194.166 149.553 194.293 149.517 194.44 149.517C194.586 149.517 194.713 149.553 194.82 149.626C194.927 149.7 194.98 149.818 194.98 149.981V155.163C194.98 155.326 194.927 155.445 194.82 155.518C194.713 155.591 194.586 155.628 194.44 155.628C194.293 155.628 194.166 155.591 194.059 155.518C193.952 155.445 193.899 155.326 193.899 155.163V152.889H191.371V155.163C191.371 155.326 191.318 155.445 191.211 155.518C191.104 155.591 190.977 155.628 190.83 155.628C190.684 155.628 190.557 155.591 190.45 155.518C190.343 155.445 190.289 155.326 190.289 155.163V149.981C190.289 149.818 190.343 149.7 190.45 149.626C190.557 149.553 190.684 149.517 190.83 149.517Z" fill="white" fill-opacity="0.9"/>
<path d="M189.188 149.567C189.318 149.567 189.413 149.612 189.475 149.702C189.537 149.792 189.568 149.899 189.568 150.023C189.568 150.147 189.537 150.254 189.475 150.345C189.413 150.435 189.318 150.48 189.188 150.48H187.734V155.162C187.734 155.326 187.681 155.444 187.574 155.518C187.466 155.591 187.34 155.627 187.193 155.627C187.047 155.627 186.92 155.591 186.813 155.518C186.706 155.444 186.652 155.326 186.652 155.162V150.48H185.19C185.06 150.48 184.965 150.435 184.903 150.345C184.841 150.254 184.81 150.147 184.81 150.023C184.81 149.899 184.841 149.792 184.903 149.702C184.965 149.612 185.06 149.567 185.19 149.567H189.188Z" fill="white" fill-opacity="0.9"/>
<path d="M183.595 149.517C183.725 149.517 183.84 149.553 183.941 149.626C184.043 149.694 184.094 149.804 184.094 149.956V154.892C184.094 155.157 184.04 155.34 183.933 155.442C183.832 155.543 183.646 155.594 183.375 155.594C183.274 155.594 183.184 155.586 183.105 155.569C183.026 155.552 182.95 155.515 182.876 155.459C182.803 155.397 182.727 155.309 182.648 155.197C182.569 155.084 182.476 154.932 182.369 154.74L180.772 151.883C180.687 151.731 180.611 151.579 180.544 151.427C180.476 151.275 180.417 151.103 180.366 150.911V155.188C180.366 155.34 180.315 155.453 180.214 155.526C180.112 155.594 179.997 155.628 179.867 155.628C179.738 155.628 179.622 155.594 179.521 155.526C179.419 155.453 179.369 155.34 179.369 155.188V150.252C179.369 149.987 179.419 149.804 179.521 149.703C179.628 149.601 179.817 149.55 180.087 149.55C180.189 149.55 180.279 149.559 180.358 149.576C180.436 149.593 180.513 149.632 180.586 149.694C180.659 149.75 180.735 149.835 180.814 149.948C180.893 150.06 180.986 150.213 181.093 150.404L182.691 153.261C182.775 153.413 182.851 153.565 182.919 153.718C182.986 153.87 183.046 154.042 183.096 154.233V149.956C183.096 149.804 183.147 149.694 183.248 149.626C183.35 149.553 183.465 149.517 183.595 149.517Z" fill="white" fill-opacity="0.9"/>
<path d="M175.643 149.474C176.055 149.474 176.421 149.53 176.742 149.643C177.063 149.756 177.334 149.931 177.554 150.167C177.773 150.404 177.94 150.708 178.052 151.08C178.171 151.446 178.23 151.886 178.23 152.399V152.745C178.23 153.258 178.171 153.7 178.052 154.072C177.94 154.439 177.773 154.74 177.554 154.977C177.334 155.213 177.063 155.388 176.742 155.501C176.421 155.614 176.055 155.67 175.643 155.67C175.232 155.67 174.866 155.614 174.545 155.501C174.223 155.388 173.953 155.213 173.733 154.977C173.513 154.74 173.344 154.439 173.226 154.072C173.113 153.7 173.057 153.258 173.057 152.745V152.399C173.057 151.886 173.113 151.446 173.226 151.08C173.344 150.708 173.513 150.404 173.733 150.167C173.953 149.931 174.223 149.756 174.545 149.643C174.866 149.53 175.232 149.474 175.643 149.474ZM175.643 150.463C175.395 150.463 175.178 150.497 174.993 150.565C174.807 150.632 174.649 150.745 174.519 150.903C174.395 151.055 174.302 151.26 174.24 151.52C174.178 151.779 174.147 152.1 174.147 152.483V152.661C174.147 153.044 174.178 153.365 174.24 153.624C174.302 153.884 174.395 154.092 174.519 154.25C174.649 154.402 174.807 154.512 174.993 154.579C175.178 154.647 175.395 154.681 175.643 154.681C175.891 154.681 176.108 154.647 176.294 154.579C176.48 154.512 176.635 154.402 176.759 154.25C176.889 154.092 176.985 153.884 177.047 153.624C177.108 153.365 177.139 153.044 177.139 152.661V152.483C177.139 152.1 177.108 151.779 177.047 151.52C176.985 151.26 176.889 151.055 176.759 150.903C176.635 150.745 176.48 150.632 176.294 150.565C176.108 150.497 175.891 150.463 175.643 150.463Z" fill="white" fill-opacity="0.9"/>
<path d="M166.785 149.55C166.909 149.55 167.016 149.562 167.106 149.584C167.196 149.601 167.275 149.64 167.343 149.702C167.416 149.759 167.484 149.843 167.546 149.956C167.613 150.069 167.687 150.221 167.766 150.412L168.924 153.303L170.031 150.421C170.099 150.235 170.163 150.086 170.225 149.973C170.293 149.86 170.363 149.773 170.437 149.711C170.516 149.649 170.6 149.607 170.69 149.584C170.786 149.562 170.896 149.55 171.02 149.55H171.197C171.468 149.55 171.654 149.601 171.755 149.702C171.862 149.804 171.916 149.987 171.916 150.252V155.188C171.916 155.34 171.865 155.453 171.764 155.526C171.662 155.594 171.541 155.628 171.4 155.628C171.271 155.628 171.152 155.594 171.045 155.526C170.944 155.453 170.893 155.34 170.893 155.188V150.497C170.842 150.711 170.794 150.889 170.749 151.029C170.704 151.165 170.659 151.292 170.614 151.41L169.498 154.157C169.425 154.337 169.346 154.458 169.262 154.52C169.183 154.577 169.07 154.605 168.924 154.605C168.749 154.605 168.617 154.574 168.526 154.512C168.442 154.444 168.363 154.318 168.29 154.132L167.199 151.41C167.154 151.297 167.109 151.17 167.064 151.029C167.019 150.889 166.965 150.711 166.903 150.497V155.188C166.903 155.34 166.85 155.453 166.743 155.526C166.641 155.594 166.523 155.628 166.388 155.628C166.258 155.628 166.143 155.594 166.041 155.526C165.94 155.453 165.889 155.34 165.889 155.188V150.252C165.889 149.987 165.94 149.804 166.041 149.702C166.148 149.601 166.337 149.55 166.608 149.55H166.785Z" fill="white" fill-opacity="0.9"/>
<path d="M185.115 119.365C184.355 120.372 183.271 120.947 182.134 120.946C180.997 120.945 179.914 120.369 179.155 119.361L166.138 102.077H176.893L182.154 109.265L187.678 102.077H198.574L185.115 119.365Z" fill="#424452"/>
<path d="M161.829 96.4705L164.444 94.4762C165.132 93.9513 166.085 93.9462 166.779 94.4636L176.988 102.077H166.055L162.015 99.6799C160.833 98.9785 160.736 97.304 161.829 96.4705Z" fill="#61647C"/>
<path d="M207.467 87.7356L210.304 89.9051C211.314 90.6771 211.32 92.1954 210.317 92.9758L198.618 102.077H187.672L205.057 87.7783C205.753 87.2062 206.751 87.1885 207.467 87.7356Z" fill="#61647C"/>
<g style="mix-blend-mode:multiply">
<path d="M154.56 168L127.115 109.832H120V152.489C120 161.055 126.945 168 135.511 168H154.56Z" fill="#B3B3B3" fill-opacity="0.4"/>
</g>
<path d="M81.5013 61.152L76.6039 41C75.4433 43.1655 73.3149 49.6376 73.0135 55.9666C72.7122 62.2955 77.5172 70.0373 80.0915 73.3964C82.1635 74.7777 85.554 76.3725 82.5402 71.7011C79.5264 67.0298 80.5919 62.7219 81.5013 61.152Z" fill="#F9BF4B"/>
<mask id="mask0_4608_44878" style="mask-type:alpha" maskUnits="userSpaceOnUse" x="73" y="41" width="11" height="34">
<path d="M81.5013 61.1534L76.6039 41.0015C75.4433 43.167 73.3149 49.6391 73.0135 55.968C72.7122 62.297 77.5172 70.0387 80.0915 73.3979C82.1635 74.7792 85.554 76.374 82.5402 71.7026C79.5264 67.0312 80.5919 62.7234 81.5013 61.1534Z" fill="#F9BF4B"/>
</mask>
<g mask="url(#mask0_4608_44878)">
<path d="M82.5044 73.9219L70.6707 51.9376L72.5255 34.9004L89.4313 59.7499L82.5044 73.9219Z" fill="#FFD47E"/>
</g>
<path d="M97.5307 72.7397C86.7579 73.4936 78.0881 68.572 75.7629 66.3428C77.4589 70.4552 84.2492 80.6881 92.5371 86.1129C100.825 91.5377 109.176 91.0103 112.315 90.0685C107.23 84.0246 103.155 80.2703 97.5307 72.7397Z" fill="#E1AC44"/>
<path d="M266.827 42.2955C263.862 46.9546 260.65 49.8842 259.415 50.7666C259.238 50.9431 261.427 51.1901 271.592 50.7666C281.757 50.343 291.709 39.6483 295.945 29.0594L272.651 28.0005C271.945 30.8242 269.792 37.6364 266.827 42.2955Z" fill="#F9BF4B"/>
<mask id="mask1_4608_44878" style="mask-type:alpha" maskUnits="userSpaceOnUse" x="259" y="28" width="37" height="23">
<path d="M266.827 42.295C263.862 46.9541 260.65 49.8837 259.415 50.7661C259.238 50.9426 261.427 51.1896 271.592 50.7661C281.757 50.3425 291.709 39.6478 295.945 29.0589L272.651 28C271.945 30.8237 269.792 37.6359 266.827 42.295Z" fill="#F9BF4B"/>
</mask>
<g mask="url(#mask1_4608_44878)">
<path d="M294.039 40.8595L267.087 38.8782L268.299 20.0664L297.821 20.65L294.039 40.8595Z" fill="#FFD47E"/>
</g>
<path d="M248.824 46.0015L234 52.8842C236.647 54.4726 242.473 55.3956 246.707 55.5315C255.616 55.8174 266.292 53.1995 273.704 50.5522C259.727 50.9758 254.119 48.6487 248.824 46.0015Z" fill="#E1AC44"/>
<path d="M78 163H128V175H78V163Z" fill="#F9BF4B"/>
<path d="M84 151H134V163H84V151Z" fill="#F9BF4B"/>
<path d="M75 139H125V151H75V139Z" fill="#F9BF4B"/>
<path d="M84 127H134V139H84V127Z" fill="#F9BF4B"/>
<path d="M87 115H137V127H87V115Z" fill="#F9BF4B"/>
<path d="M82 103H132V115H82V103Z" fill="#F9BF4B"/>
<path d="M99 163H107V175H99V163Z" fill="#FFE19B"/>
<path d="M105 151H113V163H105V151Z" fill="#FFE19B"/>
<path d="M96 139H104V151H96V139Z" fill="#FFE19B"/>
<path d="M105 127H113V139H105V127Z" fill="#FFE19B"/>
<path d="M108 115H116V127H108V115Z" fill="#FFE19B"/>
<path d="M103 103H111V115H103V103Z" fill="#FFE19B"/>
<path d="M84 163H127C127.552 163 128 163.448 128 164L-nan -nanL128 164H84V163Z" fill="black" fill-opacity="0.1"/>
<path d="M84 151H125V152H84V151Z" fill="black" fill-opacity="0.1"/>
<path d="M84 139H125V140H84V139Z" fill="black" fill-opacity="0.1"/>
<path d="M87 127H134V128H87V127Z" fill="black" fill-opacity="0.1"/>
<path d="M87 115H132V116H87V115Z" fill="black" fill-opacity="0.1"/>
</svg>
