<svg width="110" height="110" viewBox="0 0 110 110" fill="none" xmlns="http://www.w3.org/2000/svg">
<circle cx="55" cy="55" r="55" fill="#143B75" fill-opacity="0.1"/>
<rect x="15" y="15" width="80" height="80" rx="40" fill="#143B75"/>
<path d="M64.3264 73.3366C64.2482 73.3199 64.1674 73.3027 64.0891 73.2861C56.9667 71.1658 50.8318 66.5789 46.7834 60.3471C42.735 54.1153 41.0375 46.6457 41.9951 39.2763C42.0517 38.8595 42.193 38.4587 42.4102 38.0985C42.6274 37.7384 42.916 37.4264 43.2582 37.1819C43.5921 36.9432 43.972 36.7763 44.3737 36.6919C44.7754 36.6075 45.1902 36.6074 45.592 36.6916L51.7424 37.9533C52.4006 38.0899 52.9942 38.443 53.4284 38.9562C53.8626 39.4694 54.1125 40.1133 54.1383 40.785L54.3366 46.1448C54.359 46.7363 54.2049 47.3211 53.8939 47.8248C53.583 48.3285 53.1292 48.7282 52.5903 48.9732L49.7405 50.2751C51.0621 54.6716 53.5983 58.6055 57.0571 61.6241L59.4986 59.4996C59.9454 59.1114 60.4966 58.8634 61.0835 58.7865C61.6704 58.7097 62.2669 58.8074 62.7985 59.0676L67.6493 61.4293C68.2565 61.7208 68.7477 62.2083 69.0439 62.8133C69.34 63.4182 69.4237 64.1053 69.2814 64.7636L67.9465 71.0402C67.8634 71.4417 67.697 71.8213 67.458 72.1545C67.2191 72.4877 66.9129 72.7671 66.5593 72.9747C65.8871 73.372 65.0897 73.5012 64.3264 73.3366Z" fill="white"/>
</svg>
