<svg width="360" height="200" viewBox="0 0 360 200" fill="none" xmlns="http://www.w3.org/2000/svg">
<rect x="115" y="59" width="143.713" height="111.067" rx="16.686" fill="#36B6AF"/>
<rect x="115" y="59" width="143.713" height="111.067" rx="16.686" fill="#36B6AF"/>
<path d="M169.977 79.7082C169.977 79.1963 170.392 78.7812 170.904 78.7812H202.802C203.314 78.7812 203.729 79.1963 203.729 79.7082V107.496H169.977V79.7082Z" fill="white"/>
<path d="M169.977 107.495H203.729V135.283C203.729 135.795 203.314 136.21 202.802 136.21H170.904C170.392 136.21 169.977 135.795 169.977 135.283V107.495Z" fill="#F3F3F3"/>
<path d="M131.695 79.7082C131.695 79.1963 132.11 78.7812 132.622 78.7812H164.521C165.032 78.7812 165.448 79.1963 165.448 79.7082V107.496H131.695V79.7082Z" fill="white"/>
<path d="M131.695 107.495H165.448V135.283C165.448 135.795 165.032 136.21 164.521 136.21H132.622C132.11 136.21 131.695 135.795 131.695 135.283V107.495Z" fill="#F3F3F3"/>
<mask id="mask0_472_63922" style="mask-type:alpha" maskUnits="userSpaceOnUse" x="114" y="59" width="145" height="112">
<rect x="114.641" y="59" width="143.713" height="111.067" rx="16.686" fill="#36B6AF"/>
</mask>
<g mask="url(#mask0_472_63922)">
<g style="mix-blend-mode:multiply">
<path d="M142.641 170L130.641 106H115.141V170H142.641Z" fill="#CCCCCC" fill-opacity="0.4"/>
</g>
</g>
<path d="M207.759 79.7082C207.759 79.1963 208.174 78.7812 208.686 78.7812H240.584C241.096 78.7812 241.511 79.1963 241.511 79.7082V107.496H207.759V79.7082Z" fill="white"/>
<path d="M207.759 107.495H241.511V135.283C241.511 135.795 241.096 136.21 240.584 136.21H208.686C208.174 136.21 207.759 135.795 207.759 135.283V107.495Z" fill="#F3F3F3"/>
<g style="mix-blend-mode:multiply">
<path d="M203.018 124.978C202.868 125.564 203.31 126.135 203.916 126.135H245.354C245.959 126.135 246.402 125.564 246.252 124.978L241.511 106.488H207.759L203.018 124.978Z" fill="#CCCCCC" fill-opacity="0.4"/>
</g>
<path d="M202.199 93.1396C201.964 92.5321 202.412 91.8779 203.064 91.8779H246.201C246.852 91.8779 247.3 92.5321 247.065 93.1396L241.508 107.495H207.756L202.199 93.1396Z" fill="#EAEAEA"/>
<path d="M224.37 101.43C225.652 101.43 226.841 101.54 227.923 101.755C229.012 101.969 229.952 102.308 230.749 102.765C231.554 103.214 232.195 103.781 232.643 104.473C233.092 105.158 233.32 105.974 233.32 106.928C233.32 107.164 233.305 107.392 233.277 107.606H228.784C228.813 107.392 228.827 107.17 228.827 106.928C228.827 106.168 228.699 105.538 228.443 105.047C228.208 104.542 227.887 104.148 227.481 103.864C227.076 103.567 226.599 103.366 226.043 103.249C225.502 103.124 224.954 103.062 224.377 103.062C223.801 103.062 223.274 103.124 222.74 103.249C222.227 103.359 221.764 103.567 221.366 103.864C220.96 104.148 220.632 104.542 220.376 105.047C220.141 105.545 220.027 106.168 220.027 106.928C220.027 107.17 220.041 107.392 220.063 107.606H215.577C215.549 107.385 215.535 107.157 215.535 106.928C215.535 105.981 215.762 105.165 216.211 104.473C216.66 103.781 217.279 103.207 218.076 102.765C218.881 102.308 219.828 101.969 220.896 101.755C221.985 101.54 223.153 101.43 224.392 101.43H224.37Z" fill="#405254"/>
<path d="M228.778 107.502C228.721 108.498 228.614 109.376 228.436 110.116C228.201 111.202 227.881 112.074 227.475 112.724C227.069 113.374 226.585 113.824 226.03 114.073C225.496 114.322 224.94 114.446 224.364 114.446C223.787 114.446 223.26 114.322 222.726 114.073C222.214 113.824 221.751 113.374 221.345 112.724C220.939 112.074 220.605 111.209 220.348 110.116C220.192 109.376 220.085 108.498 220.035 107.502H215.542C215.628 108.954 215.834 110.255 216.176 111.403C216.625 112.911 217.244 114.163 218.034 115.172C218.846 116.155 219.786 116.888 220.854 117.372C221.943 117.856 223.111 118.091 224.35 118.091C225.588 118.091 226.82 117.849 227.909 117.372C228.999 116.888 229.938 116.155 230.729 115.172C231.54 114.17 232.174 112.911 232.623 111.403C232.957 110.255 233.171 108.954 233.256 107.502H228.764H228.778Z" fill="#3F4D4E"/>
<path d="M152.229 114.501V93.8867H148.237L140.93 99.9061L143.602 102.819L147.729 99.2265L147.594 101.33V114.501H142.655V118.094H156.593V114.501H152.229Z" fill="#4A5B5E"/>
<path d="M187.038 93.8867C184.786 93.8867 182.895 94.4707 181.364 95.6385C179.855 96.8064 178.904 98.6113 178.511 101.053L182.807 101.754C182.829 101.435 182.851 101.149 182.873 100.894C182.916 100.639 182.982 100.395 183.069 100.161C183.332 99.4607 183.78 98.8555 184.414 98.3459C185.048 97.815 185.824 97.5496 186.743 97.5496C187.814 97.5496 188.656 97.8362 189.268 98.4096C189.902 98.9617 190.219 99.7898 190.219 100.894C190.219 102.126 189.858 103.262 189.137 104.302C188.415 105.342 187.431 106.468 186.185 107.678L177.953 115.545V118.094H195.04V114.08H187.169C186.797 114.08 186.404 114.102 185.988 114.144C185.595 114.165 185.179 114.229 184.742 114.335L189.826 109.366C190.438 108.751 191.028 108.114 191.597 107.455C192.187 106.797 192.712 106.118 193.171 105.417C193.63 104.716 194.002 103.984 194.286 103.219C194.592 102.433 194.756 101.627 194.778 100.798C194.778 99.7792 194.581 98.8449 194.188 97.9955C193.816 97.1461 193.291 96.4242 192.613 95.8296C191.936 95.2138 191.116 94.7361 190.154 94.3963C189.213 94.0566 188.175 93.8867 187.038 93.8867Z" fill="#4A5B5E"/>
<mask id="mask1_472_63922" style="mask-type:alpha" maskUnits="userSpaceOnUse" x="140" y="93" width="17" height="26">
<path d="M152.237 114.497V93.8828H148.245L140.938 99.9022L143.61 102.815L147.737 99.2225L147.602 101.326V114.497H142.663V118.09H156.601V114.497H152.237Z" fill="#424242"/>
</mask>
<g mask="url(#mask1_472_63922)">
<rect x="131.678" y="107.412" width="33.7543" height="14.9513" fill="#161616" fill-opacity="0.2"/>
</g>
<mask id="mask2_472_63922" style="mask-type:alpha" maskUnits="userSpaceOnUse" x="177" y="93" width="19" height="26">
<path d="M187.038 93.8828C184.786 93.8828 182.895 94.4667 181.364 95.6346C179.855 96.8025 178.904 98.6074 178.511 101.049L182.807 101.75C182.829 101.432 182.851 101.145 182.873 100.89C182.916 100.635 182.982 100.391 183.069 100.157C183.332 99.4567 183.78 98.8516 184.414 98.342C185.048 97.8111 185.824 97.5457 186.743 97.5457C187.814 97.5457 188.656 97.8323 189.268 98.4057C189.902 98.9577 190.219 99.7859 190.219 100.89C190.219 102.122 189.858 103.258 189.137 104.298C188.415 105.339 187.431 106.464 186.185 107.674L177.953 115.542V118.09H195.04V114.076H187.169C186.797 114.076 186.404 114.098 185.988 114.14C185.595 114.161 185.179 114.225 184.742 114.331L189.826 109.362C190.438 108.747 191.028 108.11 191.597 107.451C192.187 106.793 192.712 106.114 193.171 105.413C193.63 104.712 194.002 103.98 194.286 103.215C194.592 102.43 194.756 101.623 194.778 100.794C194.778 99.7753 194.581 98.841 194.188 97.9916C193.816 97.1422 193.291 96.4203 192.613 95.8257C191.936 95.2099 191.116 94.7322 190.154 94.3924C189.213 94.0527 188.175 93.8828 187.038 93.8828Z" fill="#424242"/>
</mask>
<g mask="url(#mask2_472_63922)">
<rect x="170.121" y="107.412" width="33.7543" height="14.9513" fill="#161616" fill-opacity="0.2"/>
</g>
<path d="M165.411 144.544C165.574 144.544 165.715 144.558 165.834 144.588C165.952 144.61 166.056 144.662 166.145 144.744C166.242 144.818 166.331 144.929 166.412 145.078C166.501 145.226 166.598 145.426 166.701 145.678L168.225 149.483L169.683 145.689C169.772 145.445 169.857 145.248 169.938 145.1C170.027 144.952 170.12 144.837 170.217 144.755C170.32 144.673 170.432 144.618 170.55 144.588C170.676 144.558 170.821 144.544 170.984 144.544H171.218C171.574 144.544 171.818 144.61 171.952 144.744C172.093 144.877 172.163 145.118 172.163 145.467V151.963C172.163 152.164 172.097 152.312 171.963 152.408C171.83 152.497 171.67 152.542 171.485 152.542C171.314 152.542 171.158 152.497 171.018 152.408C170.884 152.312 170.817 152.164 170.817 151.963V145.79C170.751 146.071 170.688 146.305 170.628 146.49C170.569 146.668 170.51 146.835 170.45 146.991L168.982 150.606C168.885 150.844 168.782 151.003 168.67 151.085C168.567 151.159 168.418 151.196 168.225 151.196C167.996 151.196 167.821 151.155 167.703 151.073C167.591 150.984 167.488 150.818 167.391 150.573L165.956 146.991C165.897 146.843 165.837 146.676 165.778 146.49C165.719 146.305 165.648 146.071 165.567 145.79V151.963C165.567 152.164 165.496 152.312 165.355 152.408C165.222 152.497 165.066 152.542 164.888 152.542C164.718 152.542 164.566 152.497 164.432 152.408C164.299 152.312 164.232 152.164 164.232 151.963V145.467C164.232 145.118 164.299 144.877 164.432 144.744C164.573 144.61 164.821 144.544 165.177 144.544H165.411ZM177.069 144.444C177.61 144.444 178.092 144.518 178.515 144.666C178.938 144.814 179.294 145.044 179.583 145.356C179.872 145.667 180.091 146.068 180.239 146.557C180.395 147.039 180.473 147.618 180.473 148.292V148.749C180.473 149.423 180.395 150.006 180.239 150.495C180.091 150.977 179.872 151.374 179.583 151.685C179.294 151.997 178.938 152.227 178.515 152.375C178.092 152.523 177.61 152.597 177.069 152.597C176.528 152.597 176.046 152.523 175.623 152.375C175.2 152.227 174.844 151.997 174.555 151.685C174.266 151.374 174.043 150.977 173.888 150.495C173.739 150.006 173.665 149.423 173.665 148.749V148.292C173.665 147.618 173.739 147.039 173.888 146.557C174.043 146.068 174.266 145.667 174.555 145.356C174.844 145.044 175.2 144.814 175.623 144.666C176.046 144.518 176.528 144.444 177.069 144.444ZM177.069 145.745C176.743 145.745 176.457 145.79 176.212 145.879C175.968 145.968 175.76 146.116 175.589 146.323C175.426 146.524 175.304 146.794 175.222 147.136C175.141 147.477 175.1 147.899 175.1 148.404V148.637C175.1 149.142 175.141 149.564 175.222 149.905C175.304 150.247 175.426 150.521 175.589 150.729C175.76 150.929 175.968 151.073 176.212 151.162C176.457 151.251 176.743 151.296 177.069 151.296C177.395 151.296 177.681 151.251 177.926 151.162C178.17 151.073 178.374 150.929 178.537 150.729C178.708 150.521 178.834 150.247 178.916 149.905C178.997 149.564 179.038 149.142 179.038 148.637V148.404C179.038 147.899 178.997 147.477 178.916 147.136C178.834 146.794 178.708 146.524 178.537 146.323C178.374 146.116 178.17 145.968 177.926 145.879C177.681 145.79 177.395 145.745 177.069 145.745ZM187.534 144.499C187.704 144.499 187.856 144.547 187.99 144.644C188.123 144.733 188.19 144.877 188.19 145.078V151.574C188.19 151.923 188.119 152.164 187.979 152.297C187.845 152.431 187.6 152.497 187.244 152.497C187.111 152.497 186.992 152.486 186.888 152.464C186.785 152.442 186.684 152.393 186.588 152.319C186.492 152.238 186.392 152.123 186.288 151.974C186.184 151.826 186.062 151.626 185.921 151.374L183.818 147.614C183.707 147.414 183.607 147.213 183.518 147.013C183.429 146.813 183.351 146.587 183.284 146.335V151.963C183.284 152.164 183.217 152.312 183.084 152.408C182.951 152.497 182.798 152.542 182.628 152.542C182.457 152.542 182.305 152.497 182.172 152.408C182.038 152.312 181.972 152.164 181.972 151.963V145.467C181.972 145.118 182.038 144.877 182.172 144.744C182.313 144.61 182.561 144.544 182.917 144.544C183.051 144.544 183.169 144.555 183.273 144.577C183.377 144.599 183.477 144.651 183.573 144.733C183.67 144.807 183.77 144.918 183.874 145.066C183.978 145.215 184.1 145.415 184.241 145.667L186.343 149.427C186.455 149.627 186.555 149.828 186.644 150.028C186.733 150.228 186.811 150.454 186.877 150.706V145.078C186.877 144.877 186.944 144.733 187.078 144.644C187.211 144.547 187.363 144.499 187.534 144.499ZM194.894 144.566C195.065 144.566 195.191 144.625 195.273 144.744C195.354 144.863 195.395 145.003 195.395 145.167C195.395 145.33 195.354 145.471 195.273 145.589C195.191 145.708 195.065 145.767 194.894 145.767H192.981V151.93C192.981 152.145 192.911 152.301 192.77 152.397C192.629 152.494 192.462 152.542 192.269 152.542C192.076 152.542 191.909 152.494 191.769 152.397C191.628 152.301 191.557 152.145 191.557 151.93V145.767H189.633C189.462 145.767 189.336 145.708 189.255 145.589C189.173 145.471 189.132 145.33 189.132 145.167C189.132 145.003 189.173 144.863 189.255 144.744C189.336 144.625 189.462 144.566 189.633 144.566H194.894ZM197.056 144.499C197.248 144.499 197.415 144.547 197.556 144.644C197.697 144.74 197.768 144.896 197.768 145.111V147.758H201.094V145.111C201.094 144.896 201.164 144.74 201.305 144.644C201.446 144.547 201.613 144.499 201.806 144.499C201.998 144.499 202.165 144.547 202.306 144.644C202.447 144.74 202.518 144.896 202.518 145.111V151.93C202.518 152.145 202.447 152.301 202.306 152.397C202.165 152.494 201.998 152.542 201.806 152.542C201.613 152.542 201.446 152.494 201.305 152.397C201.164 152.301 201.094 152.145 201.094 151.93V148.938H197.768V151.93C197.768 152.145 197.697 152.301 197.556 152.397C197.415 152.494 197.248 152.542 197.056 152.542C196.863 152.542 196.696 152.494 196.555 152.397C196.414 152.301 196.344 152.145 196.344 151.93V145.111C196.344 144.896 196.414 144.74 196.555 144.644C196.696 144.547 196.863 144.499 197.056 144.499ZM206.987 144.444C207.788 144.444 208.459 144.581 209.001 144.855C209.164 144.937 209.268 145.059 209.312 145.222C209.357 145.385 209.334 145.549 209.245 145.712C209.156 145.882 209.041 145.99 208.9 146.034C208.76 146.071 208.611 146.056 208.455 145.99C208.218 145.886 207.992 145.815 207.777 145.778C207.562 145.734 207.306 145.712 207.009 145.712C206.765 145.712 206.55 145.741 206.364 145.801C206.186 145.853 206.034 145.927 205.908 146.023C205.782 146.112 205.686 146.216 205.619 146.335C205.56 146.446 205.53 146.561 205.53 146.679V146.746C205.53 146.887 205.552 147.009 205.597 147.113C205.649 147.217 205.734 147.314 205.852 147.402C205.979 147.484 206.149 147.562 206.364 147.636C206.579 147.703 206.857 147.77 207.198 147.836C208.125 148.029 208.789 148.315 209.19 148.693C209.59 149.071 209.79 149.557 209.79 150.15V150.25C209.79 151.014 209.542 151.596 209.045 151.997C208.548 152.397 207.814 152.597 206.842 152.597C206.383 152.597 205.934 152.542 205.496 152.431C205.066 152.312 204.703 152.16 204.406 151.974C204.228 151.863 204.128 151.722 204.106 151.552C204.084 151.374 204.125 151.207 204.228 151.051C204.332 150.888 204.458 150.788 204.607 150.751C204.755 150.714 204.914 150.743 205.085 150.84C205.344 150.988 205.63 151.107 205.941 151.196C206.253 151.277 206.576 151.318 206.909 151.318C207.421 151.318 207.792 151.229 208.022 151.051C208.252 150.866 208.366 150.636 208.366 150.361V150.284C208.366 149.972 208.244 149.731 207.999 149.561C207.762 149.383 207.376 149.242 206.842 149.138C206.375 149.049 205.971 148.945 205.63 148.826C205.289 148.708 205.003 148.559 204.773 148.381C204.551 148.196 204.384 147.977 204.273 147.725C204.169 147.466 204.117 147.15 204.117 146.78V146.702C204.117 146.39 204.176 146.097 204.295 145.823C204.421 145.549 204.607 145.311 204.851 145.111C205.096 144.903 205.396 144.74 205.752 144.622C206.108 144.503 206.52 144.444 206.987 144.444Z" fill="white" fill-opacity="0.9"/>
<path d="M94.466 56.5977L89.841 37.5664C88.745 39.6115 86.7349 45.7236 86.4503 51.7006C86.1657 57.6776 90.7035 64.9888 93.1346 68.1611C95.0914 69.4656 98.2933 70.9718 95.4471 66.5602C92.601 62.1486 93.6072 58.0803 94.466 56.5977Z" fill="#F9BF4B"/>
<mask id="mask3_472_63922" style="mask-type:alpha" maskUnits="userSpaceOnUse" x="86" y="37" width="11" height="33">
<path d="M94.466 56.5996L89.841 37.5684C88.745 39.6135 86.7349 45.7256 86.4503 51.7026C86.1657 57.6796 90.7035 64.9908 93.1346 68.1631C95.0914 69.4676 98.2933 70.9737 95.4471 66.5621C92.601 62.1505 93.6072 58.0823 94.466 56.5996Z" fill="#F9BF4B"/>
</mask>
<g mask="url(#mask3_472_63922)">
<path d="M95.4135 68.6581L84.2378 47.8963L85.9895 31.8066L101.955 55.2742L95.4135 68.6581Z" fill="#FFD47E"/>
</g>
<path d="M109.604 67.5412C99.4304 68.2532 91.2428 63.6052 89.0469 61.5C90.6486 65.3838 97.0611 75.0475 104.888 80.1706C112.715 85.2938 120.602 84.7957 123.566 83.9063C118.764 78.1985 114.915 74.653 109.604 67.5412Z" fill="#E1AC44"/>
<rect x="77" y="166" width="50" height="12" fill="#F9BF4B"/>
<rect x="83" y="154" width="50" height="12" fill="#F9BF4B"/>
<rect x="74" y="142" width="50" height="12" fill="#F9BF4B"/>
<rect x="83" y="130" width="50" height="12" fill="#F9BF4B"/>
<rect x="86" y="118" width="50" height="12" fill="#F9BF4B"/>
<rect x="81" y="106" width="50" height="12" fill="#F9BF4B"/>
<rect x="98" y="166" width="8" height="12" fill="#FFE19B"/>
<rect x="104" y="154" width="8" height="12" fill="#FFE19B"/>
<rect x="95" y="142" width="8" height="12" fill="#FFE19B"/>
<rect x="104" y="130" width="8" height="12" fill="#FFE19B"/>
<rect x="107" y="118" width="8" height="12" fill="#FFE19B"/>
<rect x="102" y="106" width="8" height="12" fill="#FFE19B"/>
<path d="M83 166H126C126.552 166 127 166.448 127 167H83V166Z" fill="black" fill-opacity="0.1"/>
<rect x="83" y="154" width="41" height="1" fill="black" fill-opacity="0.1"/>
<rect x="83" y="142" width="41" height="1" fill="black" fill-opacity="0.1"/>
<rect x="86" y="130" width="47" height="1" fill="black" fill-opacity="0.1"/>
<rect x="86" y="118" width="45" height="1" fill="black" fill-opacity="0.1"/>
<path d="M264.314 30.0479C261.514 34.4479 258.48 37.2145 257.314 38.0479C257.147 38.2145 259.214 38.4479 268.814 38.0479C278.414 37.6479 287.812 27.5479 291.812 17.5479L269.814 16.5479C269.147 19.2145 267.114 25.6479 264.314 30.0479Z" fill="#F9BF4B"/>
<mask id="mask4_472_63922" style="mask-type:alpha" maskUnits="userSpaceOnUse" x="257" y="16" width="35" height="23">
<path d="M264.314 30.0469C261.514 34.4469 258.48 37.2135 257.314 38.0469C257.147 38.2135 259.214 38.4469 268.814 38.0469C278.414 37.6469 287.812 27.5469 291.812 17.5469L269.814 16.5469C269.147 19.2135 267.114 25.6469 264.314 30.0469Z" fill="#F9BF4B"/>
</mask>
<g mask="url(#mask4_472_63922)">
<path d="M290.012 28.6914L264.559 26.8203L265.703 9.05469L293.584 9.60585L290.012 28.6914Z" fill="#FFD47E"/>
</g>
<path d="M247.312 33.5479L233.312 40.0479C235.812 41.5479 241.315 42.4195 245.312 42.5479C253.726 42.8179 263.809 40.3455 270.809 37.8455C257.609 38.2455 252.312 36.0479 247.312 33.5479Z" fill="#E1AC44"/>
</svg>
