<svg width="360" height="200" viewBox="0 0 360 200" fill="none" xmlns="http://www.w3.org/2000/svg">
<path fill-rule="evenodd" clip-rule="evenodd" d="M175.523 40.0015H174.401C173.168 40.0015 172 40.2806 170.956 40.7791C173.612 40.7874 175.508 44.6686 175.508 46.9977V62.933H175.418V151.797C175.418 156.215 179 159.797 183.418 159.797H269.826V48.0016C269.826 43.5833 266.244 40.0016 261.826 40.0016H175.523V40.0015Z" fill="#ECECEC"/>
<mask id="mask0_4978_40398" style="mask-type:alpha" maskUnits="userSpaceOnUse" x="175" y="40" width="95" height="120">
<path d="M269.823 48C269.823 43.5817 266.242 40 261.823 40H175.415V151.795C175.415 156.214 178.997 159.795 183.415 159.795H269.823V48Z" fill="#D9D9D9"/>
</mask>
<g mask="url(#mask0_4978_40398)">
<g style="mix-blend-mode:multiply">
<rect width="17.6938" height="14.2082" transform="matrix(-1 0 0 1 192.763 145.585)" fill="black" fill-opacity="0.08"/>
</g>
</g>
<rect width="34.0437" height="3.58355" rx="1.79178" transform="matrix(-1 0 0 1 258.373 76.0449)" fill="#ACB8B8" fill-opacity="0.6"/>
<rect width="34.0437" height="3.58355" rx="1.79178" transform="matrix(-1 0 0 1 258.373 87.6289)" fill="#ACB8B8" fill-opacity="0.6"/>
<rect width="34.0437" height="3.58355" rx="1.79178" transform="matrix(-1 0 0 1 258.373 99.2119)" fill="#ACB8B8" fill-opacity="0.6"/>
<rect width="34.0437" height="3.58355" rx="1.79178" transform="matrix(-1 0 0 1 258.373 110.796)" fill="#ACB8B8" fill-opacity="0.6"/>
<path d="M166.382 47.2224C166.762 42.6613 169.043 40 170.943 40C173.604 39.9987 175.504 43.1747 175.504 47.0419V64.4258H159.541C164.482 62.5253 166.002 51.7835 166.382 47.2224Z" fill="#C3C3C3"/>
<g style="mix-blend-mode:multiply">
<path d="M270.02 151.739L183.119 151.87L188.755 119.688L270.019 124.184L270.02 151.739Z" fill="#CCCCCC" fill-opacity="0.6"/>
</g>
<path fill-rule="evenodd" clip-rule="evenodd" d="M296 136.096C296 129.469 290.627 124.096 284 124.096H196.832V124.096H192.76V125.596C195.989 125.717 197.048 129.8 197.173 131.857V159.801H197.173V174.266H204.762C204.824 172.837 206.003 171.697 207.447 171.697C208.892 171.697 210.07 172.837 210.132 174.266H212.825C212.887 172.837 214.066 171.697 215.51 171.697C216.955 171.697 218.133 172.837 218.195 174.266H220.678C220.74 172.837 221.919 171.697 223.363 171.697C224.808 171.697 225.986 172.837 226.048 174.266H228.265C228.327 172.837 229.506 171.697 230.95 171.697C232.395 171.697 233.573 172.837 233.635 174.266H236.118C236.181 172.837 237.359 171.697 238.803 171.697C240.248 171.697 241.426 172.837 241.489 174.266H244.181C244.244 172.837 245.422 171.697 246.866 171.697C248.311 171.697 249.489 172.837 249.552 174.266H252.034C252.097 172.837 253.275 171.697 254.719 171.697C256.164 171.697 257.342 172.837 257.405 174.266H260.307C260.37 172.837 261.548 171.697 262.992 171.697C264.437 171.697 265.615 172.837 265.677 174.266H268.16C268.222 172.837 269.401 171.697 270.845 171.697C272.29 171.697 273.468 172.837 273.53 174.266H276.223C276.285 172.837 277.464 171.697 278.908 171.697C280.353 171.697 281.531 172.837 281.593 174.266H284.076C284.139 172.837 285.317 171.697 286.762 171.697C288.206 171.697 289.384 172.837 289.447 174.266H296V136.096Z" fill="#F2F2F2"/>
<path d="M284.607 153.69C285.131 153.363 285.131 152.636 284.607 152.31L276.319 147.138C275.739 146.776 274.967 147.17 274.967 147.828V151.518L262.746 151.506C261.782 151.505 261.001 152.244 261 153.157C260.999 154.07 261.78 154.811 262.744 154.812L274.967 154.824V158.172C274.967 158.83 275.739 159.224 276.319 158.862L284.607 153.69Z" fill="#C8CFCF"/>
<path d="M188.051 133.199C188.051 126.737 190.842 124.11 192.726 124.09C195.717 124.058 197.173 128.423 197.173 131.514V159.795H181.416C184.063 159.795 184.845 156.648 185.987 153.288C187.216 149.671 188.051 139.66 188.051 133.199Z" fill="#C3C3C3"/>
<path d="M284.893 134.409H207.938" stroke="#ACB8B8" stroke-opacity="0.6" stroke-linecap="square" stroke-dasharray="4 4"/>
<mask id="mask1_4978_40398" style="mask-type:alpha" maskUnits="userSpaceOnUse" x="192" y="124" width="104" height="51">
<path d="M296 136.096C296 129.469 290.628 124.096 284 124.096L192.76 124.096V125.596C195.989 125.717 197.048 129.8 197.173 131.857L197.173 174.266H204.762C204.824 172.837 206.003 171.697 207.447 171.697C208.892 171.697 210.07 172.837 210.132 174.266H212.825C212.887 172.837 214.066 171.697 215.51 171.697C216.955 171.697 218.133 172.837 218.195 174.266H220.678C220.74 172.837 221.919 171.697 223.363 171.697C224.808 171.697 225.986 172.837 226.048 174.266H228.265C228.327 172.837 229.506 171.697 230.95 171.697C232.395 171.697 233.573 172.837 233.635 174.266H236.119C236.181 172.837 237.359 171.697 238.804 171.697C240.248 171.697 241.426 172.837 241.489 174.266H244.181C244.244 172.837 245.422 171.697 246.867 171.697C248.311 171.697 249.489 172.837 249.552 174.266H252.034C252.097 172.837 253.275 171.697 254.72 171.697C256.164 171.697 257.342 172.837 257.405 174.266H260.307C260.37 172.837 261.548 171.697 262.993 171.697C264.437 171.697 265.615 172.837 265.678 174.266H268.16C268.223 172.837 269.401 171.697 270.845 171.697C272.29 171.697 273.468 172.837 273.531 174.266H276.223C276.286 172.837 277.464 171.697 278.908 171.697C280.353 171.697 281.531 172.837 281.594 174.266H284.077C284.139 172.837 285.317 171.697 286.762 171.697C288.206 171.697 289.385 172.837 289.447 174.266H296V136.096Z" fill="#F2F2F2"/>
</mask>
<g mask="url(#mask1_4978_40398)">
<g style="mix-blend-mode:multiply">
<path d="M248 177L224.873 107H195V177H248Z" fill="#CCCCCC" fill-opacity="0.4"/>
</g>
</g>
<rect x="112" y="145" width="22" height="31" rx="6" fill="#294D50"/>
<rect x="200" y="145" width="22" height="31" rx="6" fill="#294D50"/>
<path d="M104 111H115.814C117.495 111 118.426 109.051 117.37 107.743L111.902 100.973C110.383 99.0929 108.095 98 105.678 98H100C97.7909 98 96 99.7909 96 102V103C96 107.418 99.5817 111 104 111Z" fill="#36B6AF"/>
<g style="mix-blend-mode:multiply">
<path d="M112 101.1L114.5 104.2L111.5 111H105.5L112 101.1Z" fill="#CCCCCC" fill-opacity="0.4"/>
</g>
<path d="M229 111H217.186C215.505 111 214.574 109.051 215.63 107.743L221.098 100.973C222.617 99.0929 224.905 98 227.322 98H233C235.209 98 237 99.7909 237 102V103C237 107.418 233.418 111 229 111Z" fill="#36B6AF"/>
<g style="mix-blend-mode:multiply">
<path d="M221 101.1L218.5 104.2L221.5 111H228L221 101.1Z" fill="#CCCCCC" fill-opacity="0.4"/>
</g>
<rect x="105" y="140" width="123" height="25" rx="10" fill="#3B666B"/>
<path d="M114.5 101L105.428 114.426C103.194 117.733 102 121.633 102 125.623L102.083 142.5V145C102.083 151.627 107.456 157 114.083 157H218.981C225.583 157 230.946 151.666 230.981 145.064L231 141.5V125.623C231 121.633 229.806 117.733 227.572 114.426L218.5 101L208.669 80.5181C203.676 70.1166 193.161 63.5 181.623 63.5H151.377C139.839 63.5 129.324 70.1166 124.331 80.5181L114.5 101Z" fill="#36B6AF"/>
<g style="mix-blend-mode:multiply">
<path d="M102 137H231V145C231 151.627 225.627 157 219 157H114C107.373 157 102 151.627 102 145V137Z" fill="#CCCCCC" fill-opacity="0.4"/>
</g>
<path d="M181.447 69H151.554C142.244 69 133.773 74.3849 129.822 82.8156L120.995 101.651C120.374 102.978 121.342 104.5 122.806 104.5H210.195C211.659 104.5 212.627 102.978 212.006 101.651L203.179 82.8156C199.228 74.3849 190.757 69 181.447 69Z" fill="#294D50"/>
<mask id="mask2_4978_40398" style="mask-type:alpha" maskUnits="userSpaceOnUse" x="120" y="69" width="93" height="36">
<path d="M180.811 69H152.19C142.491 69 133.668 74.6093 129.552 83.3913L120.995 101.651C120.374 102.978 121.342 104.5 122.806 104.5H210.195C211.659 104.5 212.627 102.978 212.006 101.651L203.448 83.3913C199.333 74.6093 190.509 69 180.811 69Z" fill="#3F4D4E"/>
</mask>
<g mask="url(#mask2_4978_40398)">
<path d="M185.436 71H150.858C143.282 71 136.356 75.2808 132.968 82.0573L121.447 105.106C120.782 106.436 121.749 108 123.236 108H213.686C215.191 108 216.157 106.4 215.455 105.068L203.13 81.6768C199.67 75.1103 192.858 71 185.436 71Z" fill="#3B666B"/>
</g>
<path d="M153.762 130L179.238 130C183.666 130 187.97 128.53 191.473 125.821L194.368 123.582C195.877 122.415 195.052 120 193.145 120L139.855 120C137.948 120 137.123 122.415 138.632 123.582L141.527 125.821C145.03 128.53 149.334 130 153.762 130Z" fill="#3B666B"/>
<path d="M216 130H204.819C203.441 130 202.476 128.64 202.931 127.339L203.5 125.714C204.729 122.202 207.808 119.662 211.491 119.123L223.71 117.335C224.917 117.158 226 118.094 226 119.314V120C226 125.523 221.523 130 216 130Z" fill="white"/>
<path d="M117 130H128.181C129.559 130 130.524 128.64 130.069 127.339L129.5 125.714C128.271 122.202 125.192 119.662 121.509 119.123L109.29 117.335C108.083 117.158 107 118.094 107 119.314V120C107 125.523 111.477 130 117 130Z" fill="white"/>
<path d="M184.498 142H148.502C143.611 142 138.889 143.792 135.23 147.038L124 157H209L197.77 147.038C194.111 143.792 189.389 142 184.498 142Z" fill="#E7E7EF"/>
<path d="M188 157C188 153.134 184.866 150 181 150H151C147.134 150 144 153.134 144 157H188Z" fill="#CBCBD2"/>
<path d="M69.0285 60.0312L64.4035 41C63.3075 43.0451 61.2974 49.1572 61.0128 55.1342C60.7282 61.1112 65.266 68.4224 67.6971 71.5947C69.6539 72.8992 72.8558 74.4053 70.0096 69.9938C67.1635 65.5822 68.1697 61.5139 69.0285 60.0312Z" fill="#F9BF4B"/>
<mask id="mask3_4978_40398" style="mask-type:alpha" maskUnits="userSpaceOnUse" x="61" y="41" width="11" height="32">
<path d="M69.0285 60.0327L64.4035 41.0015C63.3075 43.0466 61.2974 49.1587 61.0128 55.1357C60.7282 61.1127 65.266 68.4239 67.6971 71.5962C69.6539 72.9007 72.8558 74.4068 70.0096 69.9952C67.1635 65.5836 68.1697 61.5154 69.0285 60.0327Z" fill="#F9BF4B"/>
</mask>
<g mask="url(#mask3_4978_40398)">
<path d="M69.976 72.0912L58.8003 51.3294L60.552 35.2397L76.5176 58.7073L69.976 72.0912Z" fill="#FFD47E"/>
</g>
<path d="M84.1665 70.9748C73.9929 71.6868 65.8053 67.0388 63.6094 64.9336C65.2111 68.8174 71.6236 78.4811 79.4507 83.6042C87.2777 88.7274 95.164 88.2293 98.1288 87.3398C93.3262 81.6321 89.4777 78.0866 84.1665 70.9748Z" fill="#E1AC44"/>
<path d="M260.001 36.5005C257.201 40.9005 254.168 43.6672 253.001 44.5005C252.835 44.6672 254.901 44.9005 264.501 44.5005C274.101 44.1005 283.5 34.0005 287.5 24.0005L265.501 23.0005C264.835 25.6672 262.801 32.1005 260.001 36.5005Z" fill="#F9BF4B"/>
<mask id="mask4_4978_40398" style="mask-type:alpha" maskUnits="userSpaceOnUse" x="252" y="23" width="36" height="22">
<path d="M260.001 36.5C257.201 40.9 254.168 43.6667 253.001 44.5C252.835 44.6667 254.901 44.9 264.501 44.5C274.101 44.1 283.5 34 287.5 24L265.501 23C264.835 25.6667 262.801 32.1 260.001 36.5Z" fill="#F9BF4B"/>
</mask>
<g mask="url(#mask4_4978_40398)">
<path d="M285.7 35.1445L260.247 33.2734L261.391 15.5078L289.271 16.059L285.7 35.1445Z" fill="#FFD47E"/>
</g>
<path d="M243 40.0005L229 46.5005C231.5 48.0005 237.002 48.8722 241 49.0005C249.414 49.2706 259.496 46.7982 266.496 44.2982C253.296 44.6982 248 42.5005 243 40.0005Z" fill="#E1AC44"/>
<path d="M217.394 55.906C217.637 55.906 217.847 55.9667 218.024 56.088C218.202 56.2093 218.29 56.4053 218.29 56.676V64.432H222.35C222.565 64.432 222.724 64.5067 222.826 64.656C222.929 64.8053 222.98 64.9827 222.98 65.188C222.98 65.3933 222.929 65.5707 222.826 65.72C222.724 65.8693 222.565 65.944 222.35 65.944H217.688C217.24 65.944 216.928 65.86 216.75 65.692C216.582 65.524 216.498 65.2207 216.498 64.782V56.676C216.498 56.4053 216.587 56.2093 216.764 56.088C216.942 55.9667 217.152 55.906 217.394 55.906ZM230.269 55.99C230.484 55.99 230.638 56.0647 230.731 56.214C230.834 56.354 230.885 56.5267 230.885 56.732C230.885 56.928 230.834 57.1007 230.731 57.25C230.638 57.3993 230.484 57.474 230.269 57.474H226.083V60.12H229.989C230.194 60.12 230.344 60.1947 230.437 60.344C230.54 60.484 230.591 60.652 230.591 60.848C230.591 61.044 230.54 61.2167 230.437 61.366C230.344 61.506 230.194 61.576 229.989 61.576H226.083V64.46H230.367C230.582 64.46 230.736 64.5347 230.829 64.684C230.932 64.8333 230.983 65.006 230.983 65.202C230.983 65.4073 230.932 65.5847 230.829 65.734C230.736 65.874 230.582 65.944 230.367 65.944H225.495C225.047 65.944 224.734 65.86 224.557 65.692C224.389 65.524 224.305 65.2207 224.305 64.782V57.152C224.305 56.7133 224.389 56.41 224.557 56.242C224.734 56.074 225.047 55.99 225.495 55.99H230.269ZM236.504 55.906C236.747 55.906 236.957 55.962 237.134 56.074C237.312 56.186 237.466 56.4053 237.596 56.732L240.746 64.852C240.849 65.1227 240.849 65.356 240.746 65.552C240.644 65.748 240.476 65.8833 240.242 65.958C240.009 66.0327 239.776 66.042 239.542 65.986C239.318 65.93 239.155 65.7527 239.052 65.454L238.24 63.214H234.712L233.886 65.51C233.784 65.7807 233.625 65.944 233.41 66C233.205 66.0467 232.99 66.0327 232.766 65.958C232.542 65.8833 232.379 65.7573 232.276 65.58C232.174 65.4027 232.174 65.1833 232.276 64.922L235.426 56.732C235.548 56.4053 235.697 56.186 235.874 56.074C236.061 55.962 236.271 55.906 236.504 55.906ZM236.476 58.146C236.402 58.426 236.327 58.678 236.252 58.902C236.187 59.1167 236.098 59.3827 235.986 59.7L235.244 61.73H237.708L236.98 59.7C236.859 59.3733 236.761 59.0933 236.686 58.86C236.621 58.6267 236.551 58.3887 236.476 58.146ZM245.848 55.836C246.856 55.836 247.701 56.0087 248.382 56.354C248.588 56.4567 248.718 56.6107 248.774 56.816C248.83 57.0213 248.802 57.2267 248.69 57.432C248.578 57.6467 248.434 57.782 248.256 57.838C248.079 57.8847 247.892 57.866 247.696 57.782C247.398 57.6513 247.113 57.5627 246.842 57.516C246.572 57.46 246.25 57.432 245.876 57.432C245.568 57.432 245.298 57.4693 245.064 57.544C244.84 57.6093 244.649 57.7027 244.49 57.824C244.332 57.936 244.21 58.0667 244.126 58.216C244.052 58.356 244.014 58.5007 244.014 58.65V58.734C244.014 58.9113 244.042 59.0653 244.098 59.196C244.164 59.3267 244.271 59.448 244.42 59.56C244.579 59.6627 244.794 59.7607 245.064 59.854C245.335 59.938 245.685 60.022 246.114 60.106C247.281 60.3487 248.116 60.708 248.62 61.184C249.124 61.66 249.376 62.2713 249.376 63.018V63.144C249.376 64.1053 249.064 64.838 248.438 65.342C247.813 65.846 246.889 66.098 245.666 66.098C245.088 66.098 244.523 66.028 243.972 65.888C243.431 65.7387 242.974 65.5473 242.6 65.314C242.376 65.174 242.25 64.9967 242.222 64.782C242.194 64.558 242.246 64.348 242.376 64.152C242.507 63.9467 242.666 63.8207 242.852 63.774C243.039 63.7273 243.24 63.7647 243.454 63.886C243.781 64.0727 244.14 64.222 244.532 64.334C244.924 64.4367 245.33 64.488 245.75 64.488C246.394 64.488 246.861 64.376 247.15 64.152C247.44 63.9187 247.584 63.6293 247.584 63.284V63.186C247.584 62.794 247.43 62.4907 247.122 62.276C246.824 62.052 246.338 61.8747 245.666 61.744C245.078 61.632 244.57 61.5013 244.14 61.352C243.711 61.2027 243.352 61.016 243.062 60.792C242.782 60.5587 242.572 60.2833 242.432 59.966C242.302 59.6393 242.236 59.2427 242.236 58.776V58.678C242.236 58.286 242.311 57.9173 242.46 57.572C242.619 57.2267 242.852 56.928 243.16 56.676C243.468 56.4147 243.846 56.2093 244.294 56.06C244.742 55.9107 245.26 55.836 245.848 55.836ZM257.216 55.99C257.431 55.99 257.585 56.0647 257.678 56.214C257.781 56.354 257.832 56.5267 257.832 56.732C257.832 56.928 257.781 57.1007 257.678 57.25C257.585 57.3993 257.431 57.474 257.216 57.474H253.03V60.12H256.936C257.141 60.12 257.291 60.1947 257.384 60.344C257.487 60.484 257.538 60.652 257.538 60.848C257.538 61.044 257.487 61.2167 257.384 61.366C257.291 61.506 257.141 61.576 256.936 61.576H253.03V64.46H257.314C257.529 64.46 257.683 64.5347 257.776 64.684C257.879 64.8333 257.93 65.006 257.93 65.202C257.93 65.4073 257.879 65.5847 257.776 65.734C257.683 65.874 257.529 65.944 257.314 65.944H252.442C251.994 65.944 251.681 65.86 251.504 65.692C251.336 65.524 251.252 65.2207 251.252 64.782V57.152C251.252 56.7133 251.336 56.41 251.504 56.242C251.681 56.074 251.994 55.99 252.442 55.99H257.216Z" fill="#C5CCCC"/>
</svg>
