<svg width="280" height="90" viewBox="0 0 280 90" fill="none" xmlns="http://www.w3.org/2000/svg">
<rect x="0.5" y="0.5" width="279" height="89" rx="7.5" fill="#FCFCFC"/>
<path d="M31.046 30.226V23.492H29.898V30.226H31.046ZM24.298 24.08C22.408 24.08 21.036 25.242 21.036 26.964C21.036 28.7 22.408 29.862 24.298 29.862C26.202 29.862 27.588 28.7 27.588 26.964C27.588 25.242 26.202 24.08 24.298 24.08ZM24.298 25.032C25.572 25.032 26.468 25.83 26.468 26.964C26.468 28.14 25.586 28.91 24.298 28.91C23.052 28.91 22.156 28.126 22.156 26.964C22.156 25.83 23.052 25.032 24.298 25.032ZM24.088 32.382V30.842H22.954V35.868H31.046V30.842H29.912V32.382H24.088ZM29.912 34.944H24.088V33.278H29.912V34.944ZM44.7369 29.694V28.77H42.9309C43.2669 27.188 43.2669 26.068 43.2669 25.074V24.15H34.7829V25.074H42.1329C42.1329 26.068 42.1189 27.202 41.7689 28.77H33.3269V29.694H44.7369ZM43.3089 31.402H34.7409V35.868H43.3089V31.402ZM42.1749 34.944H35.8609V32.326H42.1749V34.944ZM55.5998 29.512H57.6718V28.546H55.5998V23.492H54.4518V36.036H55.5998V29.512ZM50.1678 27.314V25.718H52.9538V24.766H46.1638V25.718H49.0338V27.314C49.0338 29.442 47.5218 31.822 45.7298 32.718L46.4018 33.628C47.8018 32.928 49.0478 31.29 49.6078 29.47C50.1678 31.15 51.3578 32.606 52.7578 33.32L53.4158 32.396C51.5958 31.542 50.1678 29.316 50.1678 27.314ZM59.1127 30.002H64.8387V28.924H67.7227V30.912H68.8847V23.492H67.7227V25.522H64.8387V24.43H59.1127V30.002ZM60.2467 25.354H63.7187V29.092H60.2467V25.354ZM64.8387 28V26.446H67.7227V28H64.8387ZM64.7267 31.29C62.1507 31.29 60.5547 32.144 60.5547 33.656C60.5547 35.154 62.1507 36.022 64.7267 36.022C67.3167 36.022 68.9127 35.154 68.9127 33.656C68.9127 32.144 67.3167 31.29 64.7267 31.29ZM64.7267 35.126C62.8087 35.126 61.7027 34.608 61.7027 33.656C61.7027 32.704 62.8087 32.186 64.7267 32.186C66.6447 32.186 67.7787 32.704 67.7787 33.656C67.7787 34.608 66.6447 35.126 64.7267 35.126Z" fill="#8F8F8F"/>
<path d="M36.038 57.214V55.666H33.536V49.132H31.664V65.404H33.536V57.214H36.038ZM26.552 51.634V49.366H24.698V51.634H20.828V53.146H30.35V51.634H26.552ZM25.652 54.298C23.294 54.298 21.62 55.864 21.62 58.096C21.62 60.328 23.294 61.894 25.652 61.894C27.956 61.894 29.684 60.328 29.684 58.096C29.684 55.864 27.956 54.298 25.652 54.298ZM25.652 60.364C24.338 60.364 23.384 59.464 23.384 58.096C23.384 56.728 24.338 55.828 25.652 55.828C26.966 55.828 27.92 56.728 27.92 58.096C27.92 59.464 26.966 60.364 25.652 60.364ZM52.1646 56.998V55.468H49.6986V49.132H47.8446V65.386H49.6986V56.998H52.1646ZM39.5286 59.788V50.716H37.6746V61.336H39.0246C41.4906 61.336 43.9926 61.174 46.7466 60.616L46.5306 59.086C44.0646 59.59 41.7786 59.77 39.5286 59.788ZM67.1932 49.114H65.4112V55.54H63.5572V49.51H61.8112V64.648H63.5572V57.052H65.4112V65.404H67.1932V49.114ZM60.4972 51.058H54.2152V52.552H58.6972C58.6432 53.326 58.5172 54.046 58.3552 54.766L53.3872 55.054L53.6392 56.656L57.8512 56.206C57.0772 58.006 55.6732 59.518 53.3512 60.832L54.3952 62.146C59.2912 59.41 60.4972 55.45 60.4972 51.058ZM82.9238 49.132H81.0698V65.404H82.9238V49.132ZM77.4518 59.734V52.264H79.0718V50.77H69.9098V52.264H71.5298V59.95C70.8098 59.968 70.1078 59.968 69.4778 59.968L69.6758 61.498C72.6458 61.498 76.4798 61.444 79.9358 60.868L79.8278 59.5C79.0538 59.59 78.2618 59.68 77.4518 59.734ZM73.3298 59.932V52.264H75.6518V59.842C74.8778 59.896 74.1038 59.878 73.3298 59.932ZM100.688 52.516H98.4024V49.132H96.5484V57.556H98.4024V54.046H100.688V52.516ZM95.1084 56.728L94.9464 55.27C92.8944 55.612 91.1664 55.666 88.2324 55.666V54.154H93.5964V52.732H88.2324V51.328H93.9024V49.87H86.3784V57.142H87.6564C91.0044 57.142 92.9124 57.07 95.1084 56.728ZM89.7624 63.802V62.344H98.4024V58.294H87.9084V59.734H96.5664V61.012H87.9444V65.242H98.9424V63.802H89.7624Z" fill="#15181F"/>
<path d="M112 50.5C112.742 50.5 113.344 51.1268 113.344 51.9V55.0751L115.983 53.4876C116.626 53.101 117.448 53.3304 117.819 54C118.19 54.6696 117.97 55.5258 117.327 55.9124L114.688 57.4999L117.328 59.0876C117.971 59.4742 118.191 60.3304 117.82 61C117.449 61.6696 116.627 61.899 115.984 61.5124L113.344 59.9247V63.1C113.344 63.8732 112.742 64.5 112 64.5C111.258 64.5 110.656 63.8732 110.656 63.1V59.9248L108.016 61.5124C107.373 61.899 106.551 61.6696 106.18 61C105.809 60.3304 106.029 59.4742 106.672 59.0876L109.312 57.4999L106.673 55.9124C106.03 55.5258 105.81 54.6696 106.181 54C106.552 53.3304 107.374 53.101 108.017 53.4876L110.656 55.0749V51.9C110.656 51.1268 111.258 50.5 112 50.5Z" fill="#00A69E"/>
<path d="M128 50.5C128.742 50.5 129.344 51.1268 129.344 51.9V55.0751L131.983 53.4876C132.626 53.101 133.448 53.3304 133.819 54C134.19 54.6696 133.97 55.5258 133.327 55.9124L130.688 57.4999L133.328 59.0876C133.971 59.4742 134.191 60.3304 133.82 61C133.449 61.6696 132.627 61.899 131.984 61.5124L129.344 59.9247V63.1C129.344 63.8732 128.742 64.5 128 64.5C127.258 64.5 126.656 63.8732 126.656 63.1V59.9248L124.016 61.5124C123.373 61.899 122.551 61.6696 122.18 61C121.809 60.3304 122.029 59.4742 122.672 59.0876L125.312 57.4999L122.673 55.9124C122.03 55.5258 121.81 54.6696 122.181 54C122.552 53.3304 123.374 53.101 124.017 53.4876L126.656 55.0749V51.9C126.656 51.1268 127.258 50.5 128 50.5Z" fill="#00A69E"/>
<path d="M144 50.5C144.742 50.5 145.344 51.1268 145.344 51.9V55.0751L147.983 53.4876C148.626 53.101 149.448 53.3304 149.819 54C150.19 54.6696 149.97 55.5258 149.327 55.9124L146.688 57.4999L149.328 59.0876C149.971 59.4742 150.191 60.3304 149.82 61C149.449 61.6696 148.627 61.899 147.984 61.5124L145.344 59.9247V63.1C145.344 63.8732 144.742 64.5 144 64.5C143.258 64.5 142.656 63.8732 142.656 63.1V59.9248L140.016 61.5124C139.373 61.899 138.551 61.6696 138.18 61C137.809 60.3304 138.029 59.4742 138.672 59.0876L141.312 57.4999L138.673 55.9124C138.03 55.5258 137.81 54.6696 138.181 54C138.552 53.3304 139.374 53.101 140.017 53.4876L142.656 55.0749V51.9C142.656 51.1268 143.258 50.5 144 50.5Z" fill="#00A69E"/>
<path d="M245.568 30.226V23.492H244.42V30.226H245.568ZM238.82 24.08C236.93 24.08 235.558 25.242 235.558 26.964C235.558 28.7 236.93 29.862 238.82 29.862C240.724 29.862 242.11 28.7 242.11 26.964C242.11 25.242 240.724 24.08 238.82 24.08ZM238.82 25.032C240.094 25.032 240.99 25.83 240.99 26.964C240.99 28.14 240.108 28.91 238.82 28.91C237.574 28.91 236.678 28.126 236.678 26.964C236.678 25.83 237.574 25.032 238.82 25.032ZM238.61 32.382V30.842H237.476V35.868H245.568V30.842H244.434V32.382H238.61ZM244.434 34.944H238.61V33.278H244.434V34.944ZM259.259 29.694V28.77H257.453C257.789 27.188 257.789 26.068 257.789 25.074V24.15H249.305V25.074H256.655C256.655 26.068 256.641 27.202 256.291 28.77H247.849V29.694H259.259ZM257.831 31.402H249.263V35.868H257.831V31.402ZM256.697 34.944H250.383V32.326H256.697V34.944Z" fill="#8F8F8F"/>
<path d="M235.923 55.072L238.083 53.254C238.065 53.56 238.065 53.866 238.065 54.154V62.272H235.293V64H242.547V62.272H240.045V50.662H238.425L234.825 53.74L235.923 55.072ZM255.969 58.672H252.783V59.968H255.969V61.48H257.823V49.114H255.969V58.672ZM249.543 55.468C251.919 55.468 253.557 54.334 253.557 52.606C253.557 50.878 251.919 49.744 249.543 49.744C247.167 49.744 245.511 50.878 245.511 52.606C245.511 54.334 247.167 55.468 249.543 55.468ZM249.543 51.112C250.911 51.112 251.793 51.688 251.793 52.606C251.793 53.524 250.911 54.1 249.543 54.1C248.175 54.1 247.275 53.524 247.275 52.606C247.275 51.688 248.175 51.112 249.543 51.112ZM248.805 57.934V60.958H250.659V57.826C252.045 57.754 253.467 57.592 254.835 57.358L254.691 56.026C251.235 56.458 247.257 56.512 244.269 56.512L244.503 58.024C245.799 58.024 247.221 58.006 248.805 57.934ZM258.201 63.568H248.319V60.274H246.465V65.08H258.201V63.568Z" fill="#15181F"/>
<rect x="0.5" y="0.5" width="279" height="89" rx="7.5" stroke="#EAEAEA"/>
</svg>
