<svg width="360" height="200" viewBox="0 0 360 200" fill="none" xmlns="http://www.w3.org/2000/svg">
<path d="M57 69C57 66.7909 58.7909 65 61 65H99C101.209 65 103 66.7909 103 69V91C103 93.2091 101.209 95 99 95H61C58.7909 95 57 93.2091 57 91V69Z" fill="#F3F3F3"/>
<path d="M63 73.8C63 72.8059 63.9594 72 65.1429 72H75.8571C77.0406 72 78 72.8059 78 73.8V85.2C78 86.1941 77.0406 87 75.8571 87H65.1429C63.9594 87 63 86.1941 63 85.2V73.8Z" fill="#E0E0E0"/>
<path d="M81 76.5C81 75.6716 81.6716 75 82.5 75H96.5C97.3284 75 98 75.6716 98 76.5C98 77.3284 97.3284 78 96.5 78H82.5C81.6716 78 81 77.3284 81 76.5Z" fill="#E0E0E0"/>
<path d="M81 83.5C81 82.6716 81.6716 82 82.5 82H89.5C90.3284 82 91 82.6716 91 83.5C91 84.3284 90.3284 85 89.5 85H82.5C81.6716 85 81 84.3284 81 83.5Z" fill="#E0E0E0"/>
<path d="M95.5 107C95.7761 107 96 106.776 96 106.5V96.5C96 96.2239 95.7761 96 95.5 96C95.2239 96 95 96.2239 95 96.5V106.5C95 106.776 95.2239 107 95.5 107Z" fill="#E0E0E0"/>
<path d="M218.336 142.666H257.225V151.999H218.336V142.666Z" fill="#F9BF4B"/>
<path d="M223 133.334H261.889V142.667H223V133.334Z" fill="#F9BF4B"/>
<path d="M216 124H254.889V133.333H216V124Z" fill="#F9BF4B"/>
<path d="M223 114.666H261.889V123.999H223V114.666Z" fill="#F9BF4B"/>
<path d="M225.336 105.334H264.225V114.667H225.336V105.334Z" fill="#F9BF4B"/>
<path d="M221.44 96H260.329V105.333H221.44V96Z" fill="#F9BF4B"/>
<path d="M234.664 142.666H240.887V151.999H234.664V142.666Z" fill="#FFE19B"/>
<path d="M239.336 133.334H245.558V142.667H239.336V133.334Z" fill="#FFE19B"/>
<path d="M232.336 124H238.558V133.333H232.336V124Z" fill="#FFE19B"/>
<path d="M239.336 114.666H245.558V123.999H239.336V114.666Z" fill="#FFE19B"/>
<path d="M241.664 105.334H247.887V114.667H241.664V105.334Z" fill="#FFE19B"/>
<path d="M237.776 96H243.998V105.333H237.776V96Z" fill="#FFE19B"/>
<path d="M223 142.666H256.444C256.874 142.666 257.222 143.014 257.222 143.444L-nan -nanL257.222 143.444H223V142.666Z" fill="black" fill-opacity="0.1"/>
<path d="M223 133.334H254.889V134.112H223V133.334Z" fill="black" fill-opacity="0.1"/>
<path d="M223 124H254.889V124.778H223V124Z" fill="black" fill-opacity="0.1"/>
<path d="M225.336 114.666H261.891V115.444H225.336V114.666Z" fill="black" fill-opacity="0.1"/>
<path d="M225.336 105.334H260.336V106.112H225.336V105.334Z" fill="black" fill-opacity="0.1"/>
<path d="M256 55C256 52.7909 257.791 51 260 51H291C293.209 51 295 52.7909 295 55V86C295 88.2091 293.209 90 291 90H260C257.791 90 256 88.2091 256 86V55Z" fill="#F3F3F3"/>
<path fill-rule="evenodd" clip-rule="evenodd" d="M127.216 33.0015C127.216 28.5832 130.797 25.0015 135.216 25.0015H232.477H232.595H234.66C236.082 25.0015 237.418 25.3727 238.575 26.0236C238.242 25.92 237.909 25.8697 237.586 25.8697C234.616 25.8682 232.495 30.208 232.495 32.811V50.5982H232.595V150.718C232.595 155.137 229.013 158.718 224.595 158.718H127.216V33.0015ZM242.66 33.0449V33.0015C242.66 31.7274 242.362 30.5229 241.832 29.4538C242.233 30.4298 242.527 31.6207 242.66 33.0449Z" fill="#ECECEC"/>
<mask id="mask0_4986_40242" style="mask-type:alpha" maskUnits="userSpaceOnUse" x="127" y="25" width="106" height="134">
<path d="M127.219 33C127.219 28.5817 130.8 25 135.219 25H232.598V150.717C232.598 155.135 229.016 158.717 224.598 158.717H127.219V33Z" fill="#D9D9D9"/>
</mask>
<g mask="url(#mask0_4986_40242)">
<g style="mix-blend-mode:multiply">
<path d="M213.234 142.855H232.984V158.715H213.234V142.855Z" fill="black" fill-opacity="0.08"/>
</g>
</g>
<path d="M242.681 33.0618C242.257 27.9706 239.711 25 237.59 25C234.62 24.9985 232.499 28.5436 232.499 32.8603V50.0319H250.318C244.802 47.9106 243.105 38.1529 242.681 33.0618Z" fill="#C3C3C3"/>
<g style="mix-blend-mode:multiply">
<path d="M127 149.724L225.284 158.635L222.708 113.949L127 118.967L127 149.724Z" fill="#CCCCCC" fill-opacity="0.3"/>
</g>
<path fill-rule="evenodd" clip-rule="evenodd" d="M98 130.869C98 124.241 103.373 118.869 110 118.869H208.693V118.869H213.238V120.543C209.634 120.678 208.452 125.236 208.312 127.532V158.723H208.312V174.869H199.841C199.771 173.273 198.456 172.001 196.844 172.001C195.231 172.001 193.916 173.273 193.847 174.869H190.841C190.771 173.273 189.456 172.001 187.844 172.001C186.231 172.001 184.916 173.273 184.847 174.869H182.075C182.006 173.273 180.69 172.001 179.078 172.001C177.466 172.001 176.151 173.273 176.081 174.869H173.606C173.537 173.273 172.222 172.001 170.609 172.001C168.997 172.001 167.682 173.273 167.612 174.869H164.841C164.771 173.273 163.456 172.001 161.844 172.001C160.231 172.001 158.916 173.273 158.847 174.869H155.841C155.771 173.273 154.456 172.001 152.844 172.001C151.231 172.001 149.916 173.273 149.847 174.869H147.075C147.006 173.273 145.69 172.001 144.078 172.001C142.466 172.001 141.151 173.273 141.081 174.869H137.841C137.771 173.273 136.456 172.001 134.844 172.001C133.231 172.001 131.916 173.273 131.847 174.869H129.075C129.006 173.273 127.69 172.001 126.078 172.001C124.466 172.001 123.151 173.273 123.081 174.869H120.075C120.006 173.273 118.69 172.001 117.078 172.001C115.466 172.001 114.151 173.273 114.081 174.869H111.31C111.24 173.273 109.925 172.001 108.312 172.001C106.7 172.001 105.385 173.273 105.315 174.869H98V130.869Z" fill="#F2F2F2"/>
<path d="M218.495 129.029C218.495 121.817 215.379 118.884 213.275 118.862C209.938 118.826 208.312 123.699 208.312 127.149L208.312 158.717H225.9C222.945 158.717 222.072 155.203 220.798 151.454C219.426 147.415 218.495 136.242 218.495 129.029Z" fill="#C3C3C3"/>
<path fill-rule="evenodd" clip-rule="evenodd" d="M109.897 129.881H112.85V130.881H109.897V129.881ZM115.754 129.881H120.659V130.881H115.754V129.881ZM123.563 129.881H128.467V130.881H123.563V129.881ZM131.372 129.881H136.276V130.881H131.372V129.881ZM139.181 129.881H144.085V130.881H139.181V129.881ZM146.99 129.881H151.894V130.881H146.99V129.881ZM154.798 129.881H159.703V130.881H154.798V129.881ZM162.607 129.881H167.512V130.881H162.607V129.881ZM170.416 129.881H175.321V130.881H170.416V129.881ZM178.225 129.881H183.129V130.881H178.225V129.881ZM186.034 129.881H190.938V130.881H186.034V129.881ZM193.843 129.881H196.795V130.881H193.843V129.881Z" fill="#ACB8B8" fill-opacity="0.6"/>
<path fill-rule="evenodd" clip-rule="evenodd" d="M170.185 141.73C171.09 141.39 172.099 141.849 172.438 142.754L175.572 151.112L178.707 142.754C178.963 142.071 179.616 141.618 180.345 141.618C181.075 141.618 181.728 142.071 181.984 142.754L185.118 151.112L188.253 142.754C188.592 141.849 189.601 141.39 190.506 141.73C191.411 142.069 191.869 143.078 191.53 143.983L186.757 156.71C186.501 157.394 185.848 157.846 185.118 157.846C184.389 157.846 183.736 157.394 183.48 156.71L180.345 148.352L177.211 156.71C176.955 157.394 176.302 157.846 175.572 157.846C174.843 157.846 174.19 157.394 173.934 156.71L169.161 143.983C168.821 143.078 169.28 142.069 170.185 141.73Z" fill="#0C408C"/>
<path fill-rule="evenodd" clip-rule="evenodd" d="M167.215 149.736C167.215 148.632 168.111 147.736 169.215 147.736L172.397 147.736C173.502 147.736 174.397 148.632 174.397 149.736C174.397 150.841 173.502 151.736 172.397 151.736L169.215 151.736C168.111 151.736 167.215 150.841 167.215 149.736Z" fill="#0C408C"/>
<path fill-rule="evenodd" clip-rule="evenodd" d="M186.31 149.736C186.31 148.632 187.205 147.736 188.31 147.736L191.492 147.736C192.596 147.736 193.492 148.632 193.492 149.736C193.492 150.841 192.596 151.736 191.492 151.736L188.31 151.736C187.205 151.736 186.31 150.841 186.31 149.736Z" fill="#0C408C"/>
<path d="M213 67.5C213 67.2239 213.224 67 213.5 67H255.5C255.776 67 256 67.2239 256 67.5C256 67.7761 255.776 68 255.5 68H213.5C213.224 68 213 67.7761 213 67.5Z" fill="#E0E0E0"/>
<path d="M146 90.5C146 89.1193 147.119 88 148.5 88H211.5C212.881 88 214 89.1193 214 90.5C214 91.8807 212.881 93 211.5 93H148.5C147.119 93 146 91.8807 146 90.5Z" fill="#BDBDBD"/>
<path d="M258 67.5C258 68.8807 256.881 70 255.5 70C254.119 70 253 68.8807 253 67.5C253 66.1193 254.119 65 255.5 65C256.881 65 258 66.1193 258 67.5Z" fill="#D9D9D9"/>
<path d="M146 103.5C146 102.119 147.119 101 148.5 101H175.5C176.881 101 178 102.119 178 103.5C178 104.881 176.881 106 175.5 106H148.5C147.119 106 146 104.881 146 103.5Z" fill="#BDBDBD"/>
<path d="M198 59C198 68.9411 189.941 77 180 77C170.059 77 162 68.9411 162 59C162 49.0589 170.059 41 180 41C189.941 41 198 49.0589 198 59Z" fill="white"/>
<path d="M185 53C185 55.7614 182.761 58 180 58C177.239 58 175 55.7614 175 53C175 50.2386 177.239 48 180 48C182.761 48 185 50.2386 185 53Z" fill="#20C7BF"/>
<path d="M170 67.7185C170 63.4557 173.77 60 178.42 60H181.58C186.23 60 190 63.4557 190 67.7185C190 68.1057 189.799 68.4662 189.417 68.6328C188.32 69.1126 185.54 70 180 70C174.46 70 171.68 69.1126 170.583 68.6328C170.201 68.4662 170 68.1057 170 67.7185Z" fill="#00A69E"/>
<path d="M93 95.5C93 96.8807 94.1193 98 95.5 98C96.8807 98 98 96.8807 98 95.5C98 94.1193 96.8807 93 95.5 93C94.1193 93 93 94.1193 93 95.5Z" fill="#D9D9D9"/>
<path d="M136 106.5C136 106.224 135.776 106 135.5 106H95.5C95.2239 106 95 106.224 95 106.5C95 106.776 95.2239 107 95.5 107H135.5C135.776 107 136 106.776 136 106.5Z" fill="#E0E0E0"/>
<path d="M286 70.5C286 72.5767 285.384 74.6068 284.23 76.3335C283.077 78.0602 281.437 79.406 279.518 80.2007C277.6 80.9954 275.488 81.2034 273.452 80.7982C271.415 80.3931 269.544 79.3931 268.075 77.9246C266.607 76.4562 265.607 74.5852 265.202 72.5484C264.797 70.5116 265.005 68.4004 265.799 66.4818C266.594 64.5632 267.94 62.9233 269.667 61.7696C271.393 60.6158 273.423 60 275.5 60V70.5H286Z" fill="#82A3D2"/>
<path d="M277.5 58C278.879 58 280.244 58.2716 281.518 58.7993C282.792 59.3269 283.95 60.1004 284.925 61.0754C285.9 62.0504 286.673 63.2079 287.201 64.4818C287.728 65.7557 288 67.1211 288 68.5L277.5 68.5V58Z" fill="#5478AC"/>
</svg>
