<svg width="360" height="200" viewBox="0 0 360 200" fill="none" xmlns="http://www.w3.org/2000/svg">
<g filter="url(#filter0_i_6852_46035)">
<path fill-rule="evenodd" clip-rule="evenodd" d="M135.205 64.0251C143.99 64.8342 150.881 72.5802 150.881 82.0163C150.881 91.4184 144.04 99.1426 135.3 99.9985V100.077H133.683H82.0226L81.9415 100.078L81.8604 100.077H81.2065V100.061C72.0492 99.657 64.7434 91.7327 64.7434 82.0165C64.7434 72.2468 72.1298 64.2889 81.3578 63.9657C83.9235 51.4493 95 42.0352 108.275 42.0352C121.572 42.0352 132.662 51.4791 135.205 64.0251Z" fill="url(#paint0_linear_6852_46035)"/>
</g>
<path fill-rule="evenodd" clip-rule="evenodd" d="M101.523 60.1787C100.996 60.1787 100.568 60.6062 100.568 61.1336V77.3809H98.1676C97.3734 77.3809 96.9263 78.2941 97.4134 78.9214L106.968 91.2269C107.35 91.7193 108.094 91.7193 108.476 91.2269L118.031 78.9214C118.518 78.2941 118.071 77.3809 117.277 77.3809H114.875V61.1336C114.875 60.6062 114.447 60.1787 113.92 60.1787H101.523Z" fill="url(#paint1_linear_6852_46035)" fill-opacity="0.5"/>
<path d="M154.648 30.5762H239.294C240.396 30.5762 241.29 31.5057 241.29 32.6524V152.431C241.29 161.604 234.14 169.041 225.32 169.041H145.26C136.44 169.041 129.29 161.604 129.29 152.431V58.0493L154.648 30.5762Z" fill="#ECECEC"/>
<path d="M129.29 146.966C129.29 138.654 136.028 131.916 144.34 131.916C152.652 131.916 159.391 138.654 159.391 146.966V153.99C159.391 162.302 152.652 169.041 144.34 169.041C136.028 169.041 129.29 162.302 129.29 153.99V146.966Z" fill="#A8A8A8"/>
<path d="M146.42 67.6516C146.42 66.5968 147.222 65.7417 148.211 65.7417H180.629C181.618 65.7417 182.42 66.5968 182.42 67.6516V67.8453C182.42 68.9001 181.618 69.7552 180.629 69.7552H148.211C147.222 69.7552 146.42 68.9001 146.42 67.8453V67.6516Z" fill="#C5CCCC"/>
<path d="M146.42 84.6608C146.42 83.606 147.222 82.751 148.211 82.751H180.629C181.618 82.751 182.42 83.606 182.42 84.6608V84.8546C182.42 85.9094 181.618 86.7644 180.629 86.7644H148.211C147.222 86.7644 146.42 85.9094 146.42 84.8546V84.6608Z" fill="#C5CCCC"/>
<path d="M147.35 101.718C147.35 100.664 148.205 99.8086 149.26 99.8086H217.683C218.738 99.8086 219.593 100.664 219.593 101.718V101.912C219.593 102.967 218.738 103.822 217.683 103.822H149.26C148.205 103.822 147.35 102.967 147.35 101.912V101.718Z" fill="#C5CCCC"/>
<path d="M147.35 118.776C147.35 117.721 148.205 116.866 149.26 116.866H217.683C218.738 116.866 219.593 117.721 219.593 118.776V118.969C219.593 120.024 218.738 120.879 217.683 120.879H149.26C148.205 120.879 147.35 120.024 147.35 118.969V118.776Z" fill="#C5CCCC"/>
<path d="M94.5586 114.586C94.5586 111.412 97.1318 108.839 100.306 108.839H157.656C160.831 108.839 163.404 111.412 163.404 114.586V153.216C163.404 156.39 160.831 158.963 157.656 158.963H100.306C97.1318 158.963 94.5586 156.39 94.5586 153.216V114.586Z" fill="#3AC3BC"/>
<mask id="mask0_6852_46035" style="mask-type:alpha" maskUnits="userSpaceOnUse" x="94" y="108" width="70" height="51">
<path d="M94.5586 114.586C94.5586 111.412 97.1318 108.839 100.306 108.839H157.656C160.831 108.839 163.404 111.412 163.404 114.586V153.216C163.404 156.39 160.831 158.963 157.656 158.963H100.306C97.1318 158.963 94.5586 156.39 94.5586 153.216V114.586Z" fill="#2C958F"/>
</mask>
<g mask="url(#mask0_6852_46035)">
<path d="M100.505 158.976H156.646L94.5588 108.941V153.029C94.5588 156.313 97.2211 158.976 100.505 158.976Z" fill="#29B7AF"/>
<path d="M157.638 158.976H101.498L163.585 108.941V153.029C163.585 156.313 160.922 158.976 157.638 158.976Z" fill="#29B7AF"/>
<path d="M156.381 159.007H101.196L125.649 135.905C127.423 134.229 130.195 134.231 131.967 135.907L156.381 159.007Z" fill="#32A8A1"/>
<path d="M163.404 108.838H94.5588L124.682 138.554C126.991 140.832 130.699 140.84 133.017 138.571L163.404 108.838Z" fill="#3BC8C0"/>
</g>
<path d="M226.795 66.7002C226.795 75.8169 219.405 83.2075 210.288 83.2075C201.171 83.2075 193.781 75.8169 193.781 66.7002C193.781 57.5835 201.171 50.1929 210.288 50.1929C219.405 50.1929 226.795 57.5835 226.795 66.7002Z" fill="white"/>
<path d="M214.57 60.9586C214.57 63.2579 212.706 65.1219 210.407 65.1219C208.108 65.1219 206.244 63.2579 206.244 60.9586C206.244 58.6593 208.108 56.7954 210.407 56.7954C212.706 56.7954 214.57 58.6593 214.57 60.9586Z" fill="#2AD6CE"/>
<path d="M201.213 73.6128C201.213 69.7857 204.316 66.6831 208.143 66.6831H212.671C216.498 66.6831 219.601 69.7857 219.601 73.6128C219.601 73.9801 219.416 74.3186 219.079 74.4641C218.08 74.8954 215.525 75.7034 210.407 75.7034C205.289 75.7034 202.734 74.8954 201.735 74.4641C201.397 74.3186 201.213 73.9801 201.213 73.6128Z" fill="#05B0A8"/>
<g style="mix-blend-mode:multiply">
<path d="M244.677 164.401L148.677 169.041L152.141 128.906L244.677 133.524L244.677 164.401Z" fill="#C5C5C5" fill-opacity="0.4"/>
</g>
<path fill-rule="evenodd" clip-rule="evenodd" d="M145.395 168.987C145.823 169.022 146.257 169.04 146.694 169.04H239.353C248.213 169.04 255.395 161.604 255.395 152.431L255.395 139.951H158.497V154.205C158.497 161.97 152.734 168.342 145.395 168.987Z" fill="#E8E8E8"/>
<path d="M155.664 54.2296V30.5762L129.29 58.0493H151.844C153.954 58.0493 155.664 56.3391 155.664 54.2296Z" fill="#D9D9D9"/>
<path fill-rule="evenodd" clip-rule="evenodd" d="M289.475 167.126L261.392 139.043L266.794 133.641L294.877 161.725L289.475 167.126Z" fill="#2E3149"/>
<path d="M268.234 150.468C267.843 150.077 267.843 149.444 268.234 149.054L276.804 140.484C277.195 140.093 277.828 140.093 278.218 140.484L292.947 155.213C295.704 157.97 295.704 162.44 292.947 165.197C290.19 167.954 285.72 167.954 282.963 165.197L268.234 150.468Z" fill="#5C6174"/>
<path d="M271.27 153.505L281.255 143.52L283.127 145.392L273.142 155.377L271.27 153.505Z" fill="white"/>
<path fill-rule="evenodd" clip-rule="evenodd" d="M261.5 133.749C269.89 125.358 269.89 111.754 261.5 103.363C253.109 94.9728 239.505 94.9728 231.114 103.363C222.723 111.754 222.723 125.358 231.114 133.749C239.505 142.14 253.109 142.14 261.5 133.749ZM266.901 139.151C278.275 127.777 278.275 109.336 266.901 97.9616C255.527 86.5875 237.086 86.5875 225.712 97.9616C214.338 109.336 214.338 127.777 225.712 139.151C237.086 150.525 255.527 150.525 266.901 139.151Z" fill="url(#paint2_linear_6852_46035)"/>
<defs>
<filter id="filter0_i_6852_46035" x="64.7434" y="42.0352" width="86.1372" height="61.9222" filterUnits="userSpaceOnUse" color-interpolation-filters="sRGB">
<feFlood flood-opacity="0" result="BackgroundImageFix"/>
<feBlend mode="normal" in="SourceGraphic" in2="BackgroundImageFix" result="shape"/>
<feColorMatrix in="SourceAlpha" type="matrix" values="0 0 0 0 0 0 0 0 0 0 0 0 0 0 0 0 0 0 127 0" result="hardAlpha"/>
<feOffset dy="3.8797"/>
<feGaussianBlur stdDeviation="1.93985"/>
<feComposite in2="hardAlpha" operator="arithmetic" k2="-1" k3="1"/>
<feColorMatrix type="matrix" values="0 0 0 0 0.933333 0 0 0 0 0.933333 0 0 0 0 0.933333 0 0 0 0.25 0"/>
<feBlend mode="normal" in2="shape" result="effect1_innerShadow_6852_46035"/>
</filter>
<linearGradient id="paint0_linear_6852_46035" x1="64.7434" y1="78.466" x2="129.201" y2="78.466" gradientUnits="userSpaceOnUse">
<stop stop-color="#D4F2F1"/>
<stop offset="1" stop-color="#D4F2F1" stop-opacity="0.09"/>
</linearGradient>
<linearGradient id="paint1_linear_6852_46035" x1="107.722" y1="60.1787" x2="107.722" y2="91.5962" gradientUnits="userSpaceOnUse">
<stop stop-color="#36B6AF"/>
<stop offset="1" stop-color="#36B6AF" stop-opacity="0.54"/>
</linearGradient>
<linearGradient id="paint2_linear_6852_46035" x1="225.712" y1="97.9616" x2="266.901" y2="139.151" gradientUnits="userSpaceOnUse">
<stop stop-color="#3F455B"/>
<stop offset="1" stop-color="#4C5471"/>
</linearGradient>
</defs>
</svg>
