<svg width="360" height="200" viewBox="0 0 360 200" fill="none" xmlns="http://www.w3.org/2000/svg">
<path fill-rule="evenodd" clip-rule="evenodd" d="M93.1719 52.0015C88.7536 52.0015 85.1719 55.5832 85.1719 60.0015V163.797C85.1719 168.215 88.7536 171.797 93.1719 171.797H171.58C175.998 171.797 179.58 168.215 179.58 163.797V74.933H179.49V58.9977C179.49 58.9403 179.492 58.882 179.494 58.8229C178.924 54.9634 175.598 52.0015 171.58 52.0015H93.1719Z" fill="#ECECEC"/>
<path fill-rule="evenodd" clip-rule="evenodd" d="M73 154C70.7909 154 69 155.791 69 158V167.797C69 170.006 70.7909 171.797 73 171.797H159.408C161.617 171.797 163.408 170.006 163.408 167.797V158C163.408 157.798 163.393 157.6 163.365 157.407H163.318V157.153C162.93 155.351 161.327 154 159.408 154H73Z" fill="#ECECEC"/>
<path fill-rule="evenodd" clip-rule="evenodd" d="M81 142C78.7909 142 77 143.791 77 146V149.797C77 152.006 78.7909 153.797 81 153.797H159.408C161.617 153.797 163.408 152.006 163.408 149.797V146C163.408 143.791 161.617 142 159.408 142H81Z" fill="#C5CCCC"/>
<rect x="99" y="73" width="34.0437" height="3.58355" rx="1.79178" fill="#ACB8B8" fill-opacity="0.6"/>
<rect x="99" y="84.5835" width="34.0437" height="3.58355" rx="1.79178" fill="#ACB8B8" fill-opacity="0.6"/>
<rect x="99" y="96.167" width="34.0437" height="3.58355" rx="1.79178" fill="#ACB8B8" fill-opacity="0.6"/>
<rect x="99" y="107.75" width="34.0437" height="3.58355" rx="1.79178" fill="#ACB8B8" fill-opacity="0.6"/>
<path d="M111 130C111 128.895 111.895 128 113 128H143C144.105 128 145 128.895 145 130C145 131.105 144.105 132 143 132H113C111.895 132 111 131.105 111 130Z" fill="#ACB8B8" fill-opacity="0.6"/>
<rect x="141" y="24" width="104" height="152" rx="10" fill="#716E7D"/>
<rect x="149" y="32" width="88" height="136" rx="6" fill="#F2F2F2"/>
<path fill-rule="evenodd" clip-rule="evenodd" d="M155 32C151.686 32 149 34.6863 149 38V161.647C149 164.95 151.67 167.63 154.969 167.646C152.222 167.63 150 165.398 150 162.647V38.1796C150 35.4181 152.239 33.1796 155 33.1796H233C233.768 33.1796 234.495 33.3525 235.145 33.6616C234.067 32.6322 232.608 32 231 32H155Z" fill="#C8CFCF"/>
<path d="M177 31.7718V33.5513C177 35.5398 178.614 37.1532 180.604 37.1532H205.866C207.856 37.1532 209.47 35.5398 209.47 33.5513V31L177 31.7665V31.7718Z" fill="#716E7D"/>
<path d="M199.852 77.5601C199.852 81.0681 197.008 83.912 193.5 83.912C189.992 83.912 187.148 81.0681 187.148 77.5601C187.148 74.0521 189.992 71.2083 193.5 71.2083C197.008 71.2083 199.852 74.0521 199.852 77.5601Z" fill="#C8CFCF"/>
<path d="M179.738 97.0603C179.738 90.968 184.926 86.0293 191.326 86.0293H195.675C202.075 86.0293 207.263 90.968 207.263 97.0603C207.263 97.6137 206.986 98.1289 206.461 98.367C204.951 99.0527 201.126 100.321 193.501 100.321C185.876 100.321 182.051 99.0527 180.54 98.367C180.015 98.1289 179.738 97.6137 179.738 97.0603Z" fill="#C8CFCF"/>
<path d="M206.43 65.7639H206.846C210.375 65.7639 213.235 68.6243 213.235 72.1528V72.5695" stroke="#C8CFCF" stroke-width="2" stroke-linecap="round" stroke-linejoin="round"/>
<path d="M206.43 105.236H206.846C210.375 105.236 213.235 102.375 213.235 98.847V98.4303" stroke="#C8CFCF" stroke-width="2" stroke-linecap="round" stroke-linejoin="round"/>
<path d="M180.57 65.7639H180.154C176.625 65.7639 173.765 68.6243 173.765 72.1528V72.5695" stroke="#C8CFCF" stroke-width="2" stroke-linecap="round" stroke-linejoin="round"/>
<path d="M180.57 105.236H180.154C176.625 105.236 173.765 102.375 173.765 98.847V98.4303" stroke="#C8CFCF" stroke-width="2" stroke-linecap="round" stroke-linejoin="round"/>
<path d="M191.673 154H116.051C108.288 154 102 147.735 102 140C102 132.265 108.288 126 116.051 126H191.673C199.436 126 205.724 132.265 205.724 140C205.724 147.735 199.436 154 191.673 154Z" fill="#7D6BCC"/>
<path d="M115.977 140.278C115.977 137.273 118.415 134.844 121.43 134.844C124.446 134.844 126.884 137.273 126.884 140.278C126.884 143.282 124.446 145.711 121.43 145.711C118.415 145.711 115.977 143.282 115.977 140.278Z" fill="#F9BF4B"/>
<path d="M137 140.278C137 137.273 139.438 134.844 142.454 134.844C145.469 134.844 147.907 137.273 147.907 140.278C147.907 143.282 145.469 145.711 142.454 145.711C139.438 145.711 137 143.282 137 140.278Z" fill="#F9BF4B"/>
<path d="M158.02 140.278C158.02 137.273 160.458 134.844 163.473 134.844C166.489 134.844 168.927 137.273 168.927 140.278C168.927 143.282 166.489 145.711 163.473 145.711C160.458 145.711 158.02 143.282 158.02 140.278Z" fill="#F9BF4B"/>
<path d="M179.035 140.278C179.035 137.273 181.473 134.844 184.489 134.844C187.504 134.844 189.942 137.273 189.942 140.278C189.942 143.282 187.504 145.711 184.489 145.711C181.473 145.711 179.035 143.282 179.035 140.278Z" fill="#F9BF4B"/>
<rect x="225" y="120.857" width="65" height="55.7143" rx="8.84732" fill="#F9BF4B"/>
<path d="M225 165H290V168.153C290 173.039 286.039 177 281.153 177H233.847C228.961 177 225 173.039 225 168.153V165Z" fill="#F9AB37"/>
<path fill-rule="evenodd" clip-rule="evenodd" d="M258.082 102.286C251.992 102.286 247.055 107.223 247.055 113.312V121.179C247.055 122.283 246.16 123.179 245.055 123.179H239.77C238.665 123.179 237.77 122.283 237.77 121.179V113.312C237.77 102.094 246.864 93 258.082 93C269.3 93 278.395 102.094 278.395 113.312V114.179C278.395 115.283 277.499 116.179 276.395 116.179H271.109C270.004 116.179 269.109 115.283 269.109 114.179V113.312C269.109 107.223 264.172 102.286 258.082 102.286Z" fill="#F9BF4B"/>
<rect x="237.77" y="116.215" width="9.28572" height="4.64286" fill="#F9AB37"/>
<path d="M266.589 143.607C266.589 138.859 262.799 135 258.134 135C253.47 135 249.68 138.859 249.68 143.607C249.68 146.656 251.243 149.355 253.602 150.866V165.571H262.693V150.866C265.052 149.328 266.615 146.656 266.615 143.607H266.589Z" fill="#F9AB37"/>
<g style="mix-blend-mode:soft-light" opacity="0.5">
<path d="M250.635 143.607C250.635 139.02 254.134 135.27 258.586 135C258.427 135 258.242 135 258.056 135C253.392 135 249.602 138.859 249.602 143.607C249.602 146.656 251.165 149.355 253.524 150.866V165.571H254.558V150.866C252.199 149.328 250.635 146.656 250.635 143.607Z" fill="#010101"/>
</g>
</svg>
