<svg width="360" height="200" viewBox="0 0 360 200" fill="none" xmlns="http://www.w3.org/2000/svg">
<path d="M171.052 121.61L170.399 115.74L164.964 116.175L168.225 123.566L171.052 121.61Z" fill="#BDBDBD"/>
<path d="M74.2453 130.166L72.5026 129.336L70.9258 119.875L83.789 111.826L98.312 118.548L94.0796 129.751L74.2453 130.166Z" fill="#BDBDBD"/>
<path d="M140.306 130.082L138.563 129.17L136.987 119.709L149.85 111.659L164.373 118.381L160.97 128.921L140.306 130.082Z" fill="#BDBDBD"/>
<path d="M65.8628 126.823C66.4603 128.947 71.6996 129.976 74.2446 130.225C72.0537 122.856 76.0427 118.579 78.3111 117.362C80.0372 116.632 84.3969 116.615 86.361 116.698C88.3527 116.632 89.6805 117.722 90.0955 118.275C92.8839 120.864 93.9129 126.989 94.0789 129.727L140.387 130.059C139.324 122.69 143.264 118.856 145.366 117.86C149.15 116.864 153.139 117.113 154.661 117.362C159.374 118.69 160.829 125.606 160.968 128.897L165.615 128.068C170.329 127.205 171.286 124.167 171.175 122.756C171.441 121.561 170.345 120.765 169.765 120.516L169.018 116.366C169.947 116.366 170.401 115.924 170.511 115.702C170.246 114.906 170.401 112.604 170.511 111.553C170.777 109.761 170.124 108.814 169.765 108.565C167.308 105.777 161.604 102.369 159.059 101.014L161.798 100.018C158.611 99.2211 150.954 97.8047 147.524 97.1961C131.125 95.7355 120.054 96.5875 116.569 97.1961C109.731 98.5239 99.4455 104.72 95.1578 107.653C78.6928 108.648 71.589 110.668 70.0952 111.553C66.9084 113.478 66.333 115.121 66.4437 115.702V118.856C65.9126 119.188 65.8351 119.713 65.8628 119.935V123.835C65.8628 125.03 66.416 125.55 66.6926 125.661C66.2279 125.926 65.9457 126.546 65.8628 126.823Z" fill="#D1D1D1"/>
<path opacity="0.1" fill-rule="evenodd" clip-rule="evenodd" d="M124.795 107.612L125.266 107.781L123.949 111.461L123.039 127.438C123.023 128.008 122.864 128.49 122.57 128.918C122.278 129.341 121.862 129.701 121.351 130.042L121.073 129.626C121.558 129.303 121.916 128.985 122.158 128.634C122.396 128.288 122.526 127.9 122.539 127.421L122.539 127.413L123.454 111.361L124.795 107.612Z" fill="black"/>
<path d="M109.766 100.93C100.671 105.312 96.2342 108.284 95.4873 109.419L123.293 108.067C145.202 107.072 144.815 106.491 146.115 105.993C148.704 104.798 151.841 103.116 153.086 102.424L145.866 99.9346C143.078 98.7396 131.094 98.3301 125.451 98.2748C117.617 97.8765 111.73 99.8792 109.766 100.93Z" fill="#BDBDBD"/>
<path d="M93.1627 127.095C93.1627 132.228 89.0013 136.39 83.868 136.39C78.7346 136.39 74.5732 132.228 74.5732 127.095C74.5732 121.962 78.7346 117.8 83.868 117.8C89.0013 117.8 93.1627 121.962 93.1627 127.095Z" fill="#9E9E9E"/>
<path d="M90.5101 127.095C90.5101 130.762 87.5377 133.734 83.871 133.734C80.2044 133.734 77.2319 130.762 77.2319 127.095C77.2319 123.428 80.2044 120.456 83.871 120.456C87.5377 120.456 90.5101 123.428 90.5101 127.095Z" fill="#BDBDBD"/>
<path d="M87.2689 127.095C87.2689 128.928 85.7456 130.414 83.8664 130.414C81.9872 130.414 80.4639 128.928 80.4639 127.095C80.4639 125.262 81.9872 123.775 83.8664 123.775C85.7456 123.775 87.2689 125.262 87.2689 127.095Z" fill="#DEDEDE"/>
<path d="M159.717 127.095C159.717 132.228 155.556 136.39 150.422 136.39C145.289 136.39 141.128 132.228 141.128 127.095C141.128 121.962 145.289 117.8 150.422 117.8C155.556 117.8 159.717 121.962 159.717 127.095Z" fill="#9E9E9E"/>
<path d="M157.064 127.095C157.064 130.762 154.092 133.734 150.425 133.734C146.759 133.734 143.786 130.762 143.786 127.095C143.786 123.428 146.759 120.456 150.425 120.456C154.092 120.456 157.064 123.428 157.064 127.095Z" fill="#BDBDBD"/>
<path d="M153.651 127.095C153.651 128.837 152.239 130.249 150.498 130.249C148.756 130.249 147.344 128.837 147.344 127.095C147.344 125.354 148.756 123.942 150.498 123.942C152.239 123.942 153.651 125.354 153.651 127.095Z" fill="#DEDEDE"/>
<g style="mix-blend-mode:soft-light" opacity="0.2">
<path d="M100.851 109.96C99.5228 109.96 98.7363 108.77 98.7363 108.327C98.7363 106.668 100.866 105.672 101.724 105.672C103.649 105.672 103.838 107.803 103.672 109.214C103.582 109.982 103.174 109.96 103.008 109.96H100.851Z" fill="black"/>
</g>
<path d="M100.467 109.584C99.1393 109.584 98.7244 108.782 98.7244 108.339C98.7244 106.679 100.854 105.684 101.712 105.684C103.637 105.684 103.455 107.426 103.289 108.837C103.198 109.606 102.791 109.584 102.625 109.584H100.467Z" fill="#D1D1D1"/>
<path d="M66.8554 114.564C66.5339 114.67 66.4404 115.393 66.4404 115.642L73.1625 114.647C73.2953 114.381 74.1584 113.817 74.4903 113.734C67.8595 114.232 67.1062 114.481 66.8563 114.563L66.8554 114.564Z" fill="#BDBDBD"/>
<path d="M160.05 111.326C166.888 111.326 169.953 110.552 170.59 110.33C170.59 109.799 170.258 109.224 170.092 109.002C168.847 109.417 165.029 109.832 161.959 109.998C161.228 110.065 160.299 110.911 160.05 111.326Z" fill="#BDBDBD"/>
<path d="M115.325 113.477C115.32 113.272 115.483 113.101 115.689 113.096L120.077 112.996C120.282 112.991 120.453 113.154 120.457 113.359C120.462 113.565 120.299 113.735 120.094 113.74L115.706 113.841C115.5 113.845 115.33 113.682 115.325 113.477Z" fill="#BDBDBD"/>
<path d="M138.895 112.977C138.891 112.772 139.053 112.602 139.259 112.597L143.647 112.496C143.852 112.492 144.023 112.654 144.027 112.86C144.032 113.065 143.869 113.236 143.664 113.24L139.276 113.341C139.07 113.346 138.9 113.183 138.895 112.977Z" fill="#BDBDBD"/>
<path d="M214.975 135.962L214.16 128.624L207.366 129.168L211.442 138.407L214.975 135.962Z" fill="#9E9E9E"/>
<path d="M94.1856 146.731L92.0071 145.694L90.0361 133.868L106.115 123.806L124.269 132.208L118.978 146.212L94.1856 146.731Z" fill="#8D8D8D"/>
<path d="M176.762 146.627L174.583 145.486L172.612 133.66L188.691 123.598L206.845 132L202.592 145.174L176.762 146.627Z" fill="#8D8D8D"/>
<path d="M83.4895 142.478C84.2364 145.133 90.7855 146.42 93.9668 146.731C91.2281 137.519 96.2144 132.174 99.0498 130.652C101.208 129.739 106.657 129.719 109.112 129.822C111.602 129.739 113.262 131.102 113.78 131.793C117.266 135.03 118.552 142.685 118.76 146.109L176.644 146.524C175.316 137.312 180.24 132.519 182.868 131.275C187.599 130.03 192.585 130.341 194.487 130.652C200.379 132.312 202.198 140.957 202.371 145.071L208.18 144.034C214.072 142.955 215.269 139.158 215.13 137.395C215.462 135.901 214.093 134.905 213.367 134.594L212.433 129.407C213.595 129.407 214.162 128.854 214.3 128.578C213.968 127.582 214.162 124.705 214.3 123.391C214.632 121.15 213.816 119.968 213.367 119.656C210.296 116.171 203.166 111.911 199.985 110.216L203.408 108.972C199.425 107.976 189.853 106.205 185.566 105.445C165.067 103.619 151.229 104.684 146.872 105.445C138.324 107.104 125.468 114.85 120.108 118.515C99.527 119.76 90.6472 122.284 88.78 123.391C84.7965 125.797 84.0773 127.851 84.2156 128.577V132.519C83.5517 132.934 83.4549 133.591 83.4895 133.868V138.743C83.4895 140.237 84.181 140.887 84.5268 141.026C83.9459 141.358 83.5932 142.132 83.4895 142.478Z" fill="#BDBDBD"/>
<path opacity="0.5" fill-rule="evenodd" clip-rule="evenodd" d="M157.096 118.444L157.802 118.697L156.16 123.289L155.022 143.25C155.002 143.974 154.799 144.588 154.425 145.132C154.054 145.671 153.527 146.126 152.884 146.555L152.468 145.931C153.07 145.529 153.511 145.137 153.807 144.707C154.097 144.285 154.257 143.811 154.272 143.224L154.273 143.213L155.417 123.138L157.096 118.444Z" fill="#9E9E9E"/>
<path d="M138.369 110.113C126.999 115.59 121.454 119.305 120.52 120.723L155.278 119.034C182.664 117.789 182.18 117.063 183.805 116.44C187.042 114.947 190.963 112.844 192.519 111.98L183.494 108.868C180.008 107.374 165.029 106.862 157.975 106.793C148.182 106.295 140.824 108.799 138.369 110.113Z" fill="#9E9E9E"/>
<path d="M117.614 142.818C117.614 149.235 112.413 154.436 105.996 154.436C99.5792 154.436 94.3774 149.235 94.3774 142.818C94.3774 136.401 99.5792 131.2 105.996 131.2C112.413 131.2 117.614 136.401 117.614 142.818Z" fill="#9E9E9E"/>
<path d="M114.299 142.818C114.299 147.402 110.583 151.117 106 151.117C101.416 151.117 97.7009 147.402 97.7009 142.818C97.7009 138.235 101.416 134.52 106 134.52C110.583 134.52 114.299 138.235 114.299 142.818Z" fill="#BDBDBD"/>
<path d="M110.247 142.818C110.247 145.109 108.343 146.967 105.994 146.967C103.645 146.967 101.741 145.109 101.741 142.818C101.741 140.526 103.645 138.668 105.994 138.668C108.343 138.668 110.247 140.526 110.247 142.818Z" fill="#DCDCDC"/>
<path d="M200.807 142.818C200.807 149.235 195.606 154.436 189.189 154.436C182.772 154.436 177.571 149.235 177.571 142.818C177.571 136.401 182.772 131.2 189.189 131.2C195.606 131.2 200.807 136.401 200.807 142.818Z" fill="#9E9E9E"/>
<path d="M197.492 142.818C197.492 147.402 193.776 151.117 189.193 151.117C184.609 151.117 180.894 147.402 180.894 142.818C180.894 138.235 184.609 134.52 189.193 134.52C193.776 134.52 197.492 138.235 197.492 142.818Z" fill="#BDBDBD"/>
<path d="M193.225 142.819C193.225 144.996 191.46 146.761 189.283 146.761C187.106 146.761 185.341 144.996 185.341 142.819C185.341 140.642 187.106 138.877 189.283 138.877C191.46 138.877 193.225 140.642 193.225 142.819Z" fill="#DCDCDC"/>
<g style="mix-blend-mode:soft-light" opacity="0.2">
<path d="M127.224 121.4C125.564 121.4 124.581 119.912 124.581 119.359C124.581 117.284 127.244 116.04 128.316 116.04C130.722 116.04 130.959 118.703 130.751 120.467C130.638 121.427 130.129 121.4 129.921 121.4H127.224Z" fill="black"/>
</g>
<path d="M126.745 120.929C125.085 120.929 124.566 119.926 124.566 119.373C124.566 117.299 127.229 116.054 128.301 116.054C130.708 116.054 130.479 118.232 130.272 119.996C130.159 120.956 129.649 120.929 129.442 120.929H126.745Z" fill="#BDBDBD"/>
<path d="M84.7303 127.154C84.3286 127.286 84.2117 128.191 84.2117 128.502L92.6143 127.257C92.7802 126.925 93.8591 126.221 94.274 126.117C85.9855 126.739 85.0439 127.05 84.7315 127.153L84.7303 127.154Z" fill="#9E9E9E"/>
<path d="M201.224 123.107C209.771 123.107 213.603 122.139 214.398 121.862C214.398 121.198 213.983 120.479 213.776 120.203C212.22 120.721 207.448 121.24 203.61 121.447C202.697 121.53 201.535 122.589 201.224 123.107Z" fill="#9E9E9E"/>
<path d="M145.318 125.796C145.312 125.539 145.515 125.326 145.772 125.32L151.257 125.194C151.514 125.188 151.727 125.392 151.733 125.649C151.739 125.905 151.535 126.118 151.278 126.124L145.793 126.25C145.536 126.256 145.323 126.052 145.318 125.796Z" fill="#9E9E9E"/>
<path d="M174.78 125.171C174.774 124.914 174.978 124.701 175.235 124.695L180.72 124.57C180.976 124.564 181.189 124.767 181.195 125.024C181.201 125.281 180.998 125.494 180.741 125.5L175.256 125.625C174.999 125.631 174.786 125.428 174.78 125.171Z" fill="#9E9E9E"/>
<path d="M265.748 152.989L264.75 144.005L256.431 144.67L261.422 155.984L265.748 152.989Z" fill="#757A84"/>
<path d="M117.586 166.084L114.919 164.814L112.505 150.335L132.193 138.015L154.42 148.303L147.942 165.449L117.586 166.084Z" fill="#292929"/>
<path d="M218.692 165.957L216.025 164.559L213.612 150.08L233.299 137.76L255.526 148.048L250.319 164.178L218.692 165.957Z" fill="#292929"/>
<path d="M104.756 160.968C105.671 164.219 113.69 165.794 117.585 166.175C114.232 154.896 120.337 148.351 123.809 146.488C126.451 145.37 133.123 145.345 136.129 145.472C139.177 145.37 141.21 147.039 141.845 147.885C146.112 151.848 147.687 161.222 147.941 165.413L218.815 165.921C217.19 154.642 223.218 148.774 226.436 147.25C232.228 145.726 238.333 146.107 240.662 146.488C247.876 148.52 250.103 159.105 250.315 164.143L257.428 162.873C264.642 161.552 266.107 156.903 265.938 154.744C266.344 152.915 264.667 151.696 263.778 151.315L262.635 144.964C264.058 144.964 264.752 144.287 264.922 143.948C264.515 142.729 264.752 139.206 264.922 137.597C265.328 134.854 264.329 133.406 263.778 133.025C260.019 128.757 251.289 123.541 247.394 121.467L251.585 119.942C246.708 118.723 234.988 116.555 229.739 115.624C204.641 113.389 187.697 114.693 182.362 115.624C171.896 117.656 156.155 127.14 149.593 131.628C124.393 133.152 113.52 136.242 111.234 137.597C106.357 140.544 105.476 143.059 105.646 143.948V148.774C104.833 149.282 104.714 150.087 104.756 150.425V156.395C104.756 158.224 105.603 159.02 106.027 159.189C105.315 159.596 104.883 160.544 104.756 160.968Z" fill="#757575"/>
<mask id="mask0_4984_40112" style="mask-type:alpha" maskUnits="userSpaceOnUse" x="104" y="114" width="162" height="53">
<path d="M104.756 160.968C105.671 164.219 113.69 165.794 117.585 166.175C114.232 154.896 120.337 148.351 123.809 146.488C126.451 145.37 133.123 145.345 136.129 145.472C139.177 145.37 141.21 147.039 141.845 147.885C146.112 151.848 147.687 161.222 147.941 165.413L218.815 165.921C217.19 154.642 223.218 148.774 226.436 147.25C232.228 145.726 238.333 146.107 240.662 146.488C247.876 148.52 250.103 159.105 250.315 164.143L257.428 162.873C264.642 161.552 266.107 156.903 265.938 154.744C266.344 152.915 264.667 151.696 263.778 151.315L262.635 144.964C264.058 144.964 264.752 144.287 264.922 143.948C264.515 142.729 264.752 139.206 264.922 137.597C265.328 134.854 264.329 133.406 263.778 133.025C260.019 128.757 251.289 123.541 247.394 121.467L251.585 119.942C246.708 118.723 234.988 116.555 229.739 115.624C204.641 113.389 187.697 114.693 182.362 115.624C171.896 117.656 156.155 127.14 149.593 131.628C124.393 133.152 113.52 136.242 111.234 137.597C106.357 140.544 105.476 143.059 105.646 143.948V148.774C104.833 149.282 104.714 150.087 104.756 150.425V156.395C104.756 158.224 105.603 159.02 106.027 159.189C105.315 159.596 104.883 160.544 104.756 160.968Z" fill="#757575"/>
</mask>
<g mask="url(#mask0_4984_40112)">
<path opacity="0.1" fill-rule="evenodd" clip-rule="evenodd" d="M194.842 131.527L195.783 131.864L193.774 137.48L192.382 161.914C192.332 163.693 191.427 165.324 189.779 166.423L189.224 165.591C190.622 164.659 191.345 163.316 191.382 161.88L191.383 161.873L192.784 137.279L194.842 131.527Z" fill="black"/>
</g>
<path d="M171.951 121.339C158.03 128.046 151.24 132.595 150.097 134.33L192.654 132.262C226.186 130.738 225.593 129.849 227.583 129.087C231.546 127.258 236.347 124.684 238.252 123.626L227.202 119.815C222.934 117.986 204.593 117.36 195.957 117.275C183.966 116.665 174.957 119.73 171.951 121.339Z" fill="#666666"/>
<path d="M146.539 161.384C146.539 169.241 140.17 175.61 132.313 175.61C124.457 175.61 118.088 169.241 118.088 161.384C118.088 153.528 124.457 147.159 132.313 147.159C140.17 147.159 146.539 153.528 146.539 161.384Z" fill="#424242"/>
<path d="M142.479 161.385C142.479 166.996 137.93 171.546 132.318 171.546C126.706 171.546 122.157 166.996 122.157 161.385C122.157 155.773 126.706 151.224 132.318 151.224C137.93 151.224 142.479 155.773 142.479 161.385Z" fill="#757575"/>
<path d="M137.519 161.384C137.519 164.19 135.187 166.464 132.311 166.464C129.435 166.464 127.104 164.19 127.104 161.384C127.104 158.578 129.435 156.303 132.311 156.303C135.187 156.303 137.519 158.578 137.519 161.384Z" fill="#BBBBBB"/>
<path d="M248.401 161.384C248.401 169.241 242.032 175.61 234.175 175.61C226.318 175.61 219.949 169.241 219.949 161.384C219.949 153.528 226.318 147.159 234.175 147.159C242.032 147.159 248.401 153.528 248.401 161.384Z" fill="#424242"/>
<path d="M244.341 161.385C244.341 166.996 239.792 171.546 234.18 171.546C228.568 171.546 224.019 166.996 224.019 161.385C224.019 155.773 228.568 151.224 234.18 151.224C239.792 151.224 244.341 155.773 244.341 161.385Z" fill="#757575"/>
<path d="M239.117 161.385C239.117 164.051 236.956 166.212 234.29 166.212C231.625 166.212 229.464 164.051 229.464 161.385C229.464 158.719 231.625 156.559 234.29 156.559C236.956 156.559 239.117 158.719 239.117 161.385Z" fill="#BBBBBB"/>
<g style="mix-blend-mode:soft-light" opacity="0.2">
<path d="M158.305 135.16C156.273 135.16 155.069 133.338 155.069 132.661C155.069 130.12 158.329 128.596 159.642 128.596C162.589 128.596 162.878 131.858 162.624 134.017C162.485 135.193 161.862 135.16 161.608 135.16H158.305Z" fill="black"/>
</g>
<path d="M157.719 134.583C155.686 134.583 155.051 133.356 155.051 132.678C155.051 130.138 158.311 128.614 159.624 128.614C162.571 128.614 162.291 131.281 162.037 133.44C161.899 134.616 161.275 134.583 161.021 134.583H157.719Z" fill="#757575"/>
<path d="M106.276 142.205C105.784 142.367 105.641 143.475 105.641 143.856L115.929 142.332C116.132 141.925 117.453 141.063 117.961 140.936C107.812 141.697 106.66 142.078 106.277 142.204L106.276 142.205Z" fill="#666666"/>
<path d="M248.91 137.25C259.376 137.25 264.067 136.065 265.041 135.726C265.041 134.913 264.533 134.033 264.279 133.694C262.374 134.329 256.531 134.964 251.832 135.218C250.714 135.32 249.291 136.615 248.91 137.25Z" fill="#666666"/>
<path d="M180.459 140.542C180.452 140.227 180.701 139.966 181.015 139.959L187.731 139.805C188.046 139.798 188.306 140.047 188.314 140.362C188.321 140.676 188.072 140.937 187.757 140.944L181.041 141.098C180.727 141.105 180.466 140.856 180.459 140.542Z" fill="#9E9E9E"/>
<path d="M216.533 139.777C216.526 139.462 216.775 139.202 217.089 139.194L223.805 139.041C224.12 139.033 224.381 139.283 224.388 139.597C224.395 139.911 224.146 140.172 223.831 140.179L217.115 140.333C216.801 140.34 216.54 140.091 216.533 139.777Z" fill="#9E9E9E"/>
<path d="M192.508 27.4615C189.301 32.5009 185.827 35.6695 184.491 36.6239C184.3 36.8148 186.667 37.0821 197.662 36.6239C208.657 36.1658 219.421 24.5983 224.002 13.1453L198.807 12C198.044 15.0541 195.715 22.4222 192.508 27.4615Z" fill="#F9BF4B"/>
<mask id="mask1_4984_40112" style="mask-type:alpha" maskUnits="userSpaceOnUse" x="184" y="12" width="40" height="25">
<path d="M192.504 27.4625C189.297 32.5018 185.823 35.6705 184.487 36.6249C184.296 36.8158 186.663 37.083 197.658 36.6249C208.653 36.1668 219.417 24.5993 223.998 13.1463L198.803 12.001C198.04 15.0551 195.711 22.4232 192.504 27.4625Z" fill="#F9BF4B"/>
</mask>
<g mask="url(#mask1_4984_40112)">
<path d="M221.947 25.9103L192.795 23.7674L194.106 3.42041L226.037 4.05166L221.947 25.9103Z" fill="#FFD47E"/>
</g>
<path d="M173.034 31.4702L157 38.9147C159.863 40.6326 166.165 41.6309 170.744 41.7779C180.38 42.0872 191.927 39.2556 199.944 36.3924C184.826 36.8505 178.761 34.3335 173.034 31.4702Z" fill="#E1AC44"/>
<path d="M93.8199 86.0668L90.5651 72.6738C89.7938 74.113 88.3792 78.4144 88.1789 82.6206C87.9786 86.8268 91.1721 91.9719 92.8829 94.2044C94.2599 95.1224 96.5133 96.1823 94.5103 93.0777C92.5074 89.9731 93.2154 87.1102 93.8199 86.0668Z" fill="#F9BF4B"/>
<mask id="mask2_4984_40112" style="mask-type:alpha" maskUnits="userSpaceOnUse" x="88" y="72" width="8" height="24">
<path d="M93.8199 86.0682L90.5651 72.6753C89.7938 74.1145 88.3792 78.4158 88.1789 82.622C87.9786 86.8282 91.1721 91.9734 92.8829 94.2058C94.2599 95.1239 96.5133 96.1838 94.5103 93.0792C92.5074 89.9746 93.2154 87.1116 93.8199 86.0682Z" fill="#F9BF4B"/>
</mask>
<g mask="url(#mask2_4984_40112)">
<path d="M94.487 94.5547L86.6223 79.944L87.855 68.6211L99.0906 85.136L94.487 94.5547Z" fill="#FFD47E"/>
</g>
<path d="M104.473 93.7685C97.3134 94.2695 91.5514 90.9986 90.0061 89.5171C91.1333 92.2502 95.646 99.0509 101.154 102.656C106.662 106.262 112.212 105.911 114.299 105.285C110.919 101.268 108.211 98.7733 104.473 93.7685Z" fill="#E1AC44"/>
<path d="M212 63C212 60.7909 213.791 59 216 59H282C284.209 59 286 60.7909 286 63V155C286 157.209 284.209 159 282 159H216C213.791 159 212 157.209 212 155V63Z" fill="#F3F3F3"/>
<path d="M231 94C231 84.0589 239.059 76 249 76C258.941 76 267 84.0589 267 94C267 103.941 258.941 112 249 112C239.059 112 231 103.941 231 94Z" fill="#0119A1"/>
<path fill-rule="evenodd" clip-rule="evenodd" d="M277.5 131C276.948 131 276.5 131.448 276.5 132V149.5H273.07C272.235 149.5 271.768 150.463 272.284 151.119L283.214 165.002C283.615 165.511 284.385 165.511 284.786 165.002L295.716 151.119C296.233 150.463 295.765 149.5 294.93 149.5H291.5V132C291.5 131.448 291.052 131 290.5 131H277.5Z" fill="url(#paint0_linear_4984_40112)"/>
<path d="M226 125C226 123.895 226.895 123 228 123H266C267.105 123 268 123.895 268 125C268 126.105 267.105 127 266 127H228C226.895 127 226 126.105 226 125Z" fill="#BDBDBD"/>
<path d="M226 137C226 135.895 226.895 135 228 135H246C247.105 135 248 135.895 248 137C248 138.105 247.105 139 246 139H228C226.895 139 226 138.105 226 137Z" fill="#BDBDBD"/>
<path fill-rule="evenodd" clip-rule="evenodd" d="M240.974 88.595C241.75 88.3047 242.615 88.6985 242.905 89.4744L245.126 95.412L247.615 89.4242C247.847 88.8646 248.394 88.4999 249 88.4999C249.606 88.4999 250.152 88.8646 250.385 89.4242L252.874 95.412L255.095 89.4744C255.385 88.6985 256.25 88.3047 257.025 88.595C257.801 88.8853 258.195 89.7496 257.905 90.5255L254.352 100.022C254.136 100.599 253.59 100.986 252.974 100.997C252.358 101.008 251.799 100.641 251.562 100.073L249 93.9081L246.438 100.073C246.201 100.641 245.641 101.008 245.026 100.997C244.41 100.986 243.863 100.599 243.648 100.022L240.095 90.5255C239.805 89.7496 240.198 88.8853 240.974 88.595Z" fill="white"/>
<path fill-rule="evenodd" clip-rule="evenodd" d="M237.409 94.8433C237.409 94.0148 238.081 93.3433 238.909 93.3433L242.867 93.3433C243.695 93.3433 244.367 94.0148 244.367 94.8433C244.367 95.6717 243.695 96.3433 242.867 96.3433L238.909 96.3433C238.081 96.3433 237.409 95.6717 237.409 94.8433Z" fill="white"/>
<path fill-rule="evenodd" clip-rule="evenodd" d="M253.634 94.8433C253.634 94.0148 254.305 93.3433 255.134 93.3433L259.091 93.3433C259.919 93.3433 260.591 94.0148 260.591 94.8433C260.591 95.6717 259.919 96.3433 259.091 96.3433L255.134 96.3433C254.305 96.3433 253.634 95.6717 253.634 94.8433Z" fill="white"/>
<defs>
<linearGradient id="paint0_linear_4984_40112" x1="284.841" y1="131" x2="284.841" y2="166.22" gradientUnits="userSpaceOnUse">
<stop stop-color="#0119A1"/>
<stop offset="1" stop-color="#4861ED"/>
<stop offset="1" stop-color="#0119A1" stop-opacity="0"/>
</linearGradient>
</defs>
</svg>
