<svg width="360" height="200" viewBox="0 0 360 200" fill="none" xmlns="http://www.w3.org/2000/svg">
<path d="M123 73H271V158C271 164.627 265.627 170 259 170H139.686C130.471 170 123 162.529 123 153.314V73Z" fill="#E2E2E2"/>
<path d="M127 50C127 43.3726 132.373 38 139 38H259C265.627 38 271 43.3726 271 50V87H127V50Z" fill="#5946AD"/>
<rect x="123" y="38" width="133" height="108" rx="12" fill="#7D6BCC"/>
<path d="M123 87H256V158C256 164.627 250.627 170 244 170H135C128.373 170 123 164.627 123 158V87Z" fill="#F2F2F2"/>
<rect x="136" y="102" width="19.4699" height="19.4699" rx="5.42428" fill="white"/>
<rect x="194.939" y="102" width="19.4699" height="19.4699" rx="5.42428" fill="white"/>
<rect x="136" y="131.47" width="19.4699" height="19.4699" rx="5.42428" fill="white"/>
<rect x="194.939" y="131.47" width="19.4699" height="19.4699" rx="5.42428" fill="white"/>
<rect x="165.47" y="102" width="19.4699" height="19.4699" rx="5.42428" fill="white"/>
<rect x="224.409" y="102" width="19.4699" height="19.4699" rx="5.42428" fill="white"/>
<rect x="165.47" y="131.47" width="19.4699" height="19.4699" rx="5.42428" fill="white"/>
<rect x="224.409" y="131.47" width="19.4699" height="19.4699" rx="5.42428" fill="white"/>
<path d="M240.714 112.575C241.095 112.303 241.095 111.697 240.714 111.425L234.67 107.115C234.247 106.813 233.684 107.142 233.684 107.69V110.765L228.273 110.755C227.571 110.754 227.001 111.37 227 112.131C226.999 112.892 227.569 113.509 228.271 113.51L233.684 113.52V116.31C233.684 116.858 234.247 117.187 234.67 116.885L240.714 112.575Z" fill="#C8CFCF"/>
<g style="mix-blend-mode:multiply">
<path d="M142 38H160V52C160 56.9706 155.971 61 151 61C146.029 61 142 56.9706 142 52V38Z" fill="#CCCCCC" fill-opacity="0.4"/>
</g>
<rect x="144" y="22" width="14" height="32" rx="7" fill="#F2F2F2"/>
<path d="M144 38H158V47C158 50.866 154.866 54 151 54C147.134 54 144 50.866 144 47V38Z" fill="#C8CFCF"/>
<g style="mix-blend-mode:multiply">
<path d="M218 38H236V53C236 57.9706 231.971 62 227 62C222.029 62 218 57.9706 218 53V38Z" fill="#CCCCCC" fill-opacity="0.4"/>
</g>
<rect x="220" y="22" width="14" height="32" rx="7" fill="#F2F2F2"/>
<path d="M220 38H234V47C234 50.866 230.866 54 227 54C223.134 54 220 50.866 220 47V38Z" fill="#C8CFCF"/>
<path d="M164.03 76L161.525 71.545H159.74V76H158V64.96H161.615C163.895 64.96 165.605 65.77 165.605 68.155C165.605 69.895 164.69 70.885 163.295 71.32L165.995 76H164.03ZM159.74 70.15H161.405C163.025 70.15 163.88 69.49 163.88 68.155C163.88 66.82 163.025 66.355 161.405 66.355H159.74V70.15Z" fill="white"/>
<path d="M176.754 64.96H183.279V66.415H178.494V69.49H182.544V70.96H178.494V74.53H183.444V76H176.754V64.96Z" fill="white"/>
<path d="M194.673 64.96H196.458L200.118 71.44L201.273 73.78H201.348C201.243 72.64 201.123 71.305 201.123 70.105V64.96H202.773V76H200.988L197.328 69.49L196.173 67.18H196.098C196.203 68.32 196.323 69.595 196.323 70.795V76H194.673V64.96Z" fill="white"/>
<path d="M216.849 66.415H213.609V64.96H221.844V66.415H218.589V76H216.849V66.415Z" fill="white"/>
<g style="mix-blend-mode:multiply">
<path d="M211 170L203.353 150.898C201.221 145.573 196.905 141.419 191.503 139.493L177.5 134.5L186 170H211Z" fill="#CCCCCC" fill-opacity="0.4"/>
</g>
<path d="M74.8394 168.172L74.9376 169.144C75.1403 171.14 76.8128 172.66 78.818 172.676L179.007 173.43L186.397 173.569C188.447 173.338 190.148 172.477 191.383 170.826L191.51 167.871L175.963 156.48L118.392 153.204L81.0069 158.222L74.8394 168.172Z" fill="#666564"/>
<path d="M107.797 169.35L161.547 169.379L182.726 170.662L191.387 170.823C191.387 170.823 193.512 167.636 193.832 166.195C193.959 165.618 194 164.792 194 164.012C194.003 162.641 193.319 161.361 192.172 160.61L192.099 160.563C192.099 160.563 192.818 153.664 191.637 151.161C191.637 151.161 192.733 149.666 192.438 148.038L184.104 137.67C181.278 134.559 177.506 132.471 173.369 131.733C162.171 129.735 139.236 126.643 126.29 131.933C107.797 139.491 101.787 144.062 101.787 144.062C101.787 144.062 84.0767 146.945 78.2006 150.778C77.8046 151.094 77.434 151.433 77.0856 151.785C74.808 154.066 73.7309 157.281 74.0572 160.487L74.8396 168.169L87.0322 168.14L107.793 169.347L107.797 169.35Z" fill="#F2A540"/>
<path d="M106.721 169.112C106.836 163.973 102.583 159.71 97.2221 159.59C91.8612 159.471 87.4223 163.539 87.3075 168.678C87.1927 173.817 91.4454 178.08 96.8063 178.199C102.167 178.319 106.606 174.25 106.721 169.112Z" fill="#666564"/>
<path d="M182.079 169.601C182.194 164.462 177.941 160.199 172.58 160.079C167.22 159.959 162.781 164.028 162.666 169.167C162.551 174.305 166.804 178.568 172.165 178.688C177.526 178.808 181.964 174.739 182.079 169.601Z" fill="#666564"/>
<path d="M178.197 169.27C178.265 166.188 175.715 163.632 172.5 163.56C169.286 163.488 166.624 165.928 166.555 169.01C166.486 172.092 169.036 174.649 172.251 174.72C175.466 174.792 178.128 172.352 178.197 169.27Z" fill="#E0E0E0"/>
<path d="M174.525 169.258C174.499 170.392 173.517 171.292 172.333 171.267C171.148 171.241 170.207 170.297 170.232 169.163C170.258 168.029 171.24 167.129 172.424 167.155C173.609 167.18 174.55 168.124 174.525 169.258Z" fill="white"/>
<path d="M102.838 169.271C102.907 166.189 100.357 163.632 97.142 163.561C93.9272 163.489 91.2653 165.929 91.1965 169.011C91.1276 172.093 93.6778 174.649 96.8926 174.721C100.107 174.793 102.769 172.353 102.838 169.271Z" fill="#E0E0E0"/>
<path d="M192.011 152.653L75.2168 154.341C75.9074 152.732 77.0889 151.291 80.0634 149.707C87.8529 145.554 101.74 144.09 101.74 144.09C101.74 144.09 107.749 139.519 126.243 131.961C139.864 126.395 164.544 130.108 174.975 132.063C178.079 132.645 180.908 134.226 183.03 136.564L192.438 148.031C192.733 149.659 191.59 151.189 191.59 151.189C191.776 151.582 191.913 152.086 192.017 152.653H192.011Z" fill="#FFD572"/>
<path d="M185.105 147.724C187.75 146.812 191.111 146.276 192.847 148.478C192.847 148.478 193.883 150.654 192.112 152.887L183.98 152.697L183.749 152.412C182.45 150.803 183.15 148.399 185.105 147.724Z" fill="white"/>
<path d="M77.4312 154.31C78.9643 152.45 82.848 149.469 90.1622 148.69C91.5465 148.541 92.2688 150.296 91.1823 151.17L90.6247 151.62C90.308 151.877 89.9848 152.124 89.6586 152.361C88.0462 153.534 86.1139 154.183 84.1182 154.215L77.4312 154.313V154.31Z" fill="white"/>
<path d="M171.784 135.53C171.765 135.519 171.75 135.509 171.732 135.498C171.373 135.284 166.946 132.817 152.001 132.016C150.973 131.961 150.075 132.707 149.932 133.726L148.567 143.467C148.395 144.689 149.362 145.774 150.596 145.744L166.627 145.355C166.885 145.348 167.138 145.294 167.366 145.173C168.521 144.56 172.2 142.273 173.065 137.609C173.202 136.869 172.813 136.147 172.167 135.76L171.784 135.53Z" fill="#666564"/>
<path d="M147.153 132.18C147.101 131.844 146.831 131.589 146.491 131.575C143.055 131.441 124.737 131.466 107.312 145.874C106.707 146.375 107.081 147.357 107.867 147.328L143.398 145.926C144.352 145.889 145.147 145.182 145.295 144.238L147.153 132.408C147.165 132.332 147.165 132.256 147.153 132.18Z" fill="#666564"/>
<path d="M117.088 146.08C117.088 146.08 115.472 142.19 117.088 140.302C114.18 142.029 110.866 144.503 108.858 146.406L117.088 146.08Z" fill="#666564"/>
<path d="M123.382 146.105L113.476 146.336C112 146.371 114.385 141.002 119.967 140.872L122.238 140.764C123.714 140.73 124.95 141.908 124.982 143.384L125.007 144.401C125.029 145.316 124.297 146.083 123.382 146.105Z" fill="#FFD572"/>
<path d="M99.0379 169.258C99.0125 170.392 98.0306 171.292 96.8458 171.267C95.6611 171.241 94.7203 170.297 94.7456 169.163C94.771 168.029 95.753 167.129 96.9377 167.155C98.1224 167.18 99.0632 168.124 99.0379 169.258Z" fill="white"/>
</svg>
