<svg width="280" height="90" viewBox="0 0 280 90" fill="none" xmlns="http://www.w3.org/2000/svg">
<path d="M0 8C0 3.58172 3.58172 0 8 0H272C276.418 0 280 3.58172 280 8V82C280 86.4183 276.418 90 272 90H8C3.58172 90 0 86.4183 0 82V8Z" fill="#FCFCFC"/>
<path fill-rule="evenodd" clip-rule="evenodd" d="M272 1H8C4.13401 1 1 4.13401 1 8V82C1 85.866 4.13401 89 8 89H272C275.866 89 279 85.866 279 82V8C279 4.13401 275.866 1 272 1ZM8 0C3.58172 0 0 3.58172 0 8V82C0 86.4183 3.58172 90 8 90H272C276.418 90 280 86.4183 280 82V8C280 3.58172 276.418 0 272 0H8Z" fill="#EAEAEA"/>
<rect x="0.5" y="0.5" width="279" height="89" rx="7.5" fill="#FCFCFC"/>
<path d="M64.8027 30.74H59.0767V25.168H64.8027V26.26H67.6867V24.23H68.8487V31.65H67.6867V29.662H64.8027V30.74ZM63.6827 26.092H60.2107V29.83H63.6827V26.092ZM64.8027 27.184V28.738H67.6867V27.184H64.8027ZM64.6907 32.028C67.2807 32.028 68.8767 32.882 68.8767 34.394C68.8767 35.892 67.2807 36.76 64.6907 36.76C62.1147 36.76 60.5187 35.892 60.5187 34.394C60.5187 32.882 62.1147 32.028 64.6907 32.028ZM64.6907 35.864C66.6087 35.864 67.7427 35.346 67.7427 34.394C67.7427 33.442 66.6087 32.924 64.6907 32.924C62.7727 32.924 61.6667 33.442 61.6667 34.394C61.6667 35.346 62.7727 35.864 64.6907 35.864Z" fill="#8F8F8F"/>
<path d="M57.6358 30.25H55.5639V36.774H54.4158V24.23H55.5639V29.284H57.6358V30.25ZM50.1318 28.052C50.1318 30.054 51.5598 32.28 53.3798 33.134L52.7218 34.058C51.3218 33.344 50.1318 31.888 49.5718 30.208C49.0118 32.028 47.7658 33.666 46.3658 34.366L45.6938 33.456C47.4858 32.56 48.9978 30.18 48.9978 28.052V26.456H46.1278V25.504H52.9178V26.456H50.1318V28.052Z" fill="#8F8F8F"/>
<path d="M44.701 29.5082V30.4322H33.291V29.5082H41.733C42.083 27.9402 42.097 26.8062 42.097 25.8122H34.747V24.8882H43.231V25.8122C43.231 26.8062 43.231 27.9262 42.895 29.5082H44.701ZM34.705 32.1402H43.273V36.6062H34.705V32.1402ZM35.825 35.6822H42.139V33.0642H35.825V35.6822Z" fill="#8F8F8F"/>
<path d="M31.01 24.23V30.964H29.862V24.23H31.01ZM24.262 24.818C26.166 24.818 27.552 25.98 27.552 27.702C27.552 29.438 26.166 30.6 24.262 30.6C22.372 30.6 21 29.438 21 27.702C21 25.98 22.372 24.818 24.262 24.818ZM24.262 25.77C23.016 25.77 22.12 26.568 22.12 27.702C22.12 28.864 23.016 29.648 24.262 29.648C25.55 29.648 26.432 28.878 26.432 27.702C26.432 26.568 25.536 25.77 24.262 25.77ZM24.052 31.58V33.12H29.876V31.58H31.01V36.606H22.918V31.58H24.052ZM24.052 35.682H29.876V34.016H24.052V35.682Z" fill="#8F8F8F"/>
<g clip-path="url(#clip0_4608_45020)">
<path d="M52.3367 57.2298H49.8707V65.6178H48.0167V49.3638H49.8707V55.6998H52.3367V57.2298ZM39.7007 60.0198C41.9507 60.0018 44.2367 59.8218 46.7027 59.3178L46.9187 60.8478C44.1647 61.4058 41.6627 61.5678 39.1967 61.5678H37.8467V50.9478H39.7007V60.0198Z" fill="#15181F"/>
<path d="M36.21 57.4458H33.708V65.6358H31.836V49.3638H33.708V55.8978H36.21V57.4458ZM26.724 51.8658H30.522V53.3778H21V51.8658H24.87V49.5978H26.724V51.8658ZM25.824 54.5298C28.128 54.5298 29.856 56.0958 29.856 58.3278C29.856 60.5598 28.128 62.1258 25.824 62.1258C23.466 62.1258 21.792 60.5598 21.792 58.3278C21.792 56.0958 23.466 54.5298 25.824 54.5298ZM25.824 60.5958C27.138 60.5958 28.092 59.6958 28.092 58.3278C28.092 56.9598 27.138 56.0598 25.824 56.0598C24.51 56.0598 23.556 56.9598 23.556 58.3278C23.556 59.6958 24.51 60.5958 25.824 60.5958Z" fill="#15181F"/>
</g>
<path d="M62.3366 50.5C63.0788 50.5 63.6805 51.1268 63.6805 51.9V55.0751L66.3201 53.4876C66.9629 53.101 67.7848 53.3304 68.156 54C68.5271 54.6696 68.3068 55.5258 67.664 55.9124L65.0246 57.4999L67.6645 59.0876C68.3073 59.4742 68.5275 60.3304 68.1564 61C67.7853 61.6696 66.9633 61.899 66.3205 61.5124L63.6805 59.9247V63.1C63.6805 63.8732 63.0788 64.5 62.3366 64.5C61.5943 64.5 60.9926 63.8732 60.9926 63.1V59.9248L58.3528 61.5124C57.71 61.899 56.8881 61.6696 56.517 61C56.1458 60.3304 56.3661 59.4742 57.0089 59.0876L59.6488 57.4999L57.0093 55.9124C56.3665 55.5258 56.1463 54.6696 56.5174 54C56.8885 53.3304 57.7105 53.101 58.3533 53.4876L60.9926 55.0749V51.9C60.9926 51.1268 61.5943 50.5 62.3366 50.5Z" fill="#00A69E"/>
<path d="M78.3366 50.5C79.0788 50.5 79.6805 51.1268 79.6805 51.9V55.0751L82.3201 53.4876C82.9629 53.101 83.7848 53.3304 84.156 54C84.5271 54.6696 84.3068 55.5258 83.664 55.9124L81.0246 57.4999L83.6645 59.0876C84.3073 59.4742 84.5275 60.3304 84.1564 61C83.7853 61.6696 82.9633 61.899 82.3205 61.5124L79.6805 59.9247V63.1C79.6805 63.8732 79.0788 64.5 78.3366 64.5C77.5943 64.5 76.9926 63.8732 76.9926 63.1V59.9248L74.3528 61.5124C73.71 61.899 72.8881 61.6696 72.517 61C72.1458 60.3304 72.3661 59.4742 73.0089 59.0876L75.6488 57.4999L73.0093 55.9124C72.3665 55.5258 72.1463 54.6696 72.5174 54C72.8885 53.3304 73.7105 53.101 74.3533 53.4876L76.9926 55.0749V51.9C76.9926 51.1268 77.5943 50.5 78.3366 50.5Z" fill="#00A69E"/>
<path d="M94.3366 50.5C95.0788 50.5 95.6805 51.1268 95.6805 51.9V55.0751L98.3201 53.4876C98.9629 53.101 99.7848 53.3304 100.156 54C100.527 54.6696 100.307 55.5258 99.664 55.9124L97.0246 57.4999L99.6645 59.0876C100.307 59.4742 100.528 60.3304 100.156 61C99.7853 61.6696 98.9633 61.899 98.3205 61.5124L95.6805 59.9247V63.1C95.6805 63.8732 95.0788 64.5 94.3366 64.5C93.5943 64.5 92.9926 63.8732 92.9926 63.1V59.9248L90.3528 61.5124C89.71 61.899 88.8881 61.6696 88.517 61C88.1458 60.3304 88.3661 59.4742 89.0089 59.0876L91.6488 57.4999L89.0093 55.9124C88.3665 55.5258 88.1463 54.6696 88.5174 54C88.8885 53.3304 89.7105 53.101 90.3533 53.4876L92.9926 55.0749V51.9C92.9926 51.1268 93.5943 50.5 94.3366 50.5Z" fill="#00A69E"/>
<path d="M258.701 30.2782V31.2022H247.291V30.2782H255.733C256.083 28.7102 256.097 27.5762 256.097 26.5822H248.747V25.6582H257.231V26.5822C257.231 27.5762 257.231 28.6962 256.895 30.2782H258.701ZM248.705 32.9102H257.273V37.3762H248.705V32.9102ZM249.825 36.4522H256.139V33.8342H249.825V36.4522Z" fill="#8F8F8F"/>
<path d="M245.01 25V31.734H243.862V25H245.01ZM238.262 25.588C240.166 25.588 241.552 26.75 241.552 28.472C241.552 30.208 240.166 31.37 238.262 31.37C236.372 31.37 235 30.208 235 28.472C235 26.75 236.372 25.588 238.262 25.588ZM238.262 26.54C237.016 26.54 236.12 27.338 236.12 28.472C236.12 29.634 237.016 30.418 238.262 30.418C239.55 30.418 240.432 29.648 240.432 28.472C240.432 27.338 239.536 26.54 238.262 26.54ZM238.052 32.35V33.89H243.876V32.35H245.01V37.376H236.918V32.35H238.052ZM238.052 36.452H243.876V34.786H238.052V36.452Z" fill="#8F8F8F"/>
<path d="M256.145 59.558V50H257.999V62.366H256.145V60.854H252.959V59.558H256.145ZM249.719 56.354C247.343 56.354 245.687 55.22 245.687 53.492C245.687 51.764 247.343 50.63 249.719 50.63C252.095 50.63 253.733 51.764 253.733 53.492C253.733 55.22 252.095 56.354 249.719 56.354ZM249.719 51.998C248.351 51.998 247.451 52.574 247.451 53.492C247.451 54.41 248.351 54.986 249.719 54.986C251.087 54.986 251.969 54.41 251.969 53.492C251.969 52.574 251.087 51.998 249.719 51.998ZM248.981 58.82C247.397 58.892 245.975 58.91 244.679 58.91L244.445 57.398C247.433 57.398 251.411 57.344 254.867 56.912L255.011 58.244C253.643 58.478 252.221 58.64 250.835 58.712V61.844H248.981V58.82ZM258.377 64.454V65.966H246.641V61.16H248.495V64.454H258.377Z" fill="#15181F"/>
<path d="M236.098 55.9579L235 54.6259L238.6 51.5479H240.22V63.1579H242.722V64.8859H235.468V63.1579H238.24V55.0399C238.24 54.7519 238.24 54.4459 238.258 54.1399L236.098 55.9579Z" fill="#15181F"/>
<rect x="0.5" y="0.5" width="279" height="89" rx="7.5" stroke="#EAEAEA"/>
<defs>
<clipPath id="clip0_4608_45020">
<rect width="31.3366" height="16.272" fill="white" transform="translate(21 49.3638)"/>
</clipPath>
</defs>
</svg>
