<svg width="360" height="200" viewBox="0 0 360 200" fill="none" xmlns="http://www.w3.org/2000/svg">
<path d="M125 64.487C125 55.9203 131.945 48.9756 140.511 48.9756H237.565C246.132 48.9756 253.076 55.9203 253.076 64.487V151.739C253.076 160.306 246.132 167.25 237.565 167.25H140.511C131.945 167.25 125 160.306 125 151.739V64.487Z" fill="#7D6BCC"/>
<path d="M218.516 55.477C218.516 52.9569 220.559 50.9141 223.079 50.9141H226.151C228.671 50.9141 230.714 52.9569 230.714 55.477V56.0458C230.714 58.5658 228.671 60.6087 226.151 60.6087H223.079C220.559 60.6087 218.516 58.5658 218.516 56.0458V55.477Z" fill="#5743AE"/>
<path d="M220.549 44.3159C220.549 42.0704 222.369 40.25 224.615 40.25C226.861 40.25 228.681 42.0704 228.681 44.3159V54.6039C228.681 56.8495 226.861 58.6698 224.615 58.6698C222.369 58.6698 220.549 56.8495 220.549 54.6039V44.3159Z" fill="#9098A6"/>
<path d="M147.363 55.477C147.363 52.9569 149.405 50.9141 151.925 50.9141H154.997C157.517 50.9141 159.56 52.9569 159.56 55.477V56.0458C159.56 58.5658 157.517 60.6087 154.997 60.6087H151.925C149.405 60.6087 147.363 58.5658 147.363 56.0458V55.477Z" fill="#5743AE"/>
<path d="M149.396 44.3159C149.396 42.0704 151.216 40.25 153.462 40.25C155.707 40.25 157.528 42.0704 157.528 44.3159V54.6039C157.528 56.8495 155.707 58.6698 153.462 58.6698C151.216 58.6698 149.396 56.8495 149.396 54.6039V44.3159Z" fill="#9098A6"/>
<path d="M220.549 48.9756H228.681V54.6043C228.681 56.8499 226.861 58.6702 224.615 58.6702C222.369 58.6702 220.549 56.8499 220.549 54.6043V48.9756Z" fill="#A7ABB1"/>
<path d="M149.396 48.9756H157.528V54.6043C157.528 56.8499 155.707 58.6702 153.462 58.6702C151.216 58.6702 149.396 56.8499 149.396 54.6043V48.9756Z" fill="#A7ABB1"/>
<path d="M139.231 66.4253C139.231 65.3544 140.099 64.4863 141.17 64.4863H236.907C237.978 64.4863 238.846 65.3544 238.846 66.4253V136.227C238.846 137.298 237.978 138.166 236.907 138.166H141.17C140.099 138.166 139.231 137.298 139.231 136.227V66.4253Z" fill="white"/>
<path d="M139.231 101.326H238.846V136.227C238.846 137.298 237.978 138.166 236.907 138.166H141.17C140.099 138.166 139.231 137.298 139.231 136.227V101.326Z" fill="#D6D6D6"/>
<path d="M131.009 77.7421C130.558 76.4792 131.494 75.1504 132.835 75.1504H245.242C246.583 75.1504 247.519 76.4792 247.068 77.7421L238.636 101.326H139.441L131.009 77.7421Z" fill="#E2E2E2"/>
<g style="mix-blend-mode:multiply">
<path d="M131.053 123.918C130.583 125.185 131.52 126.532 132.871 126.532H245.206C246.557 126.532 247.494 125.185 247.024 123.918L238.636 101.326H139.441L131.053 123.918Z" fill="#E2E2E2" fill-opacity="0.5"/>
</g>
<path d="M203.377 148.725C203.985 148.725 204.495 148.829 204.907 149.037C205.031 149.099 205.11 149.192 205.143 149.316C205.177 149.44 205.16 149.564 205.093 149.688C205.025 149.818 204.938 149.9 204.831 149.933C204.724 149.962 204.611 149.95 204.493 149.9C204.312 149.821 204.14 149.767 203.977 149.739C203.814 149.705 203.619 149.688 203.394 149.688C203.208 149.688 203.044 149.711 202.903 149.756C202.768 149.795 202.653 149.852 202.557 149.925C202.461 149.992 202.388 150.071 202.337 150.162C202.292 150.246 202.27 150.333 202.27 150.424V150.474C202.27 150.581 202.286 150.674 202.32 150.753C202.36 150.832 202.424 150.905 202.515 150.973C202.61 151.035 202.74 151.094 202.903 151.15C203.067 151.201 203.278 151.252 203.537 151.303C204.242 151.449 204.746 151.666 205.05 151.953C205.355 152.241 205.507 152.61 205.507 153.061V153.137C205.507 153.717 205.318 154.16 204.941 154.464C204.563 154.768 204.005 154.92 203.267 154.92C202.918 154.92 202.577 154.878 202.244 154.794C201.917 154.703 201.641 154.588 201.416 154.447C201.281 154.362 201.204 154.255 201.188 154.126C201.171 153.991 201.202 153.864 201.281 153.745C201.359 153.621 201.455 153.545 201.568 153.517C201.681 153.489 201.802 153.512 201.931 153.585C202.129 153.698 202.346 153.788 202.582 153.855C202.819 153.917 203.064 153.948 203.318 153.948C203.706 153.948 203.988 153.881 204.163 153.745C204.338 153.605 204.425 153.43 204.425 153.221V153.162C204.425 152.926 204.332 152.742 204.146 152.613C203.966 152.478 203.673 152.37 203.267 152.292C202.912 152.224 202.605 152.145 202.346 152.055C202.086 151.965 201.869 151.852 201.695 151.717C201.526 151.576 201.399 151.41 201.314 151.218C201.235 151.021 201.196 150.781 201.196 150.5V150.44C201.196 150.204 201.241 149.981 201.331 149.773C201.427 149.564 201.568 149.384 201.754 149.232C201.94 149.074 202.168 148.95 202.439 148.86C202.709 148.77 203.022 148.725 203.377 148.725Z" fill="white" fill-opacity="0.9"/>
<path d="M195.83 148.767C195.977 148.767 196.104 148.803 196.211 148.876C196.318 148.95 196.371 149.068 196.371 149.231V151.243H198.899V149.231C198.899 149.068 198.952 148.95 199.059 148.876C199.166 148.803 199.293 148.767 199.44 148.767C199.586 148.767 199.713 148.803 199.82 148.876C199.927 148.95 199.98 149.068 199.98 149.231V154.413C199.98 154.576 199.927 154.695 199.82 154.768C199.713 154.841 199.586 154.878 199.44 154.878C199.293 154.878 199.166 154.841 199.059 154.768C198.952 154.695 198.899 154.576 198.899 154.413V152.139H196.371V154.413C196.371 154.576 196.318 154.695 196.211 154.768C196.104 154.841 195.977 154.878 195.83 154.878C195.684 154.878 195.557 154.841 195.45 154.768C195.343 154.695 195.289 154.576 195.289 154.413V149.231C195.289 149.068 195.343 148.95 195.45 148.876C195.557 148.803 195.684 148.767 195.83 148.767Z" fill="white" fill-opacity="0.9"/>
<path d="M194.188 148.817C194.318 148.817 194.413 148.862 194.475 148.953C194.537 149.043 194.568 149.15 194.568 149.274C194.568 149.398 194.537 149.505 194.475 149.595C194.413 149.685 194.318 149.73 194.188 149.73H192.734V154.413C192.734 154.576 192.681 154.695 192.574 154.768C192.466 154.841 192.34 154.878 192.193 154.878C192.047 154.878 191.92 154.841 191.813 154.768C191.706 154.695 191.652 154.576 191.652 154.413V149.73H190.19C190.06 149.73 189.965 149.685 189.903 149.595C189.841 149.505 189.81 149.398 189.81 149.274C189.81 149.15 189.841 149.043 189.903 148.953C189.965 148.862 190.06 148.817 190.19 148.817H194.188Z" fill="white" fill-opacity="0.9"/>
<path d="M188.595 148.767C188.725 148.767 188.84 148.803 188.941 148.876C189.043 148.944 189.094 149.054 189.094 149.206V154.142C189.094 154.407 189.04 154.59 188.933 154.692C188.832 154.793 188.646 154.844 188.375 154.844C188.274 154.844 188.184 154.836 188.105 154.819C188.026 154.802 187.95 154.765 187.876 154.709C187.803 154.647 187.727 154.559 187.648 154.447C187.569 154.334 187.476 154.182 187.369 153.99L185.772 151.133C185.687 150.981 185.611 150.829 185.544 150.677C185.476 150.525 185.417 150.353 185.366 150.161V154.438C185.366 154.59 185.315 154.703 185.214 154.776C185.112 154.844 184.997 154.878 184.867 154.878C184.738 154.878 184.622 154.844 184.521 154.776C184.419 154.703 184.369 154.59 184.369 154.438V149.502C184.369 149.237 184.419 149.054 184.521 148.953C184.628 148.851 184.817 148.8 185.087 148.8C185.189 148.8 185.279 148.809 185.358 148.826C185.436 148.843 185.513 148.882 185.586 148.944C185.659 149 185.735 149.085 185.814 149.198C185.893 149.31 185.986 149.463 186.093 149.654L187.691 152.511C187.775 152.663 187.851 152.815 187.919 152.968C187.986 153.12 188.046 153.292 188.096 153.483V149.206C188.096 149.054 188.147 148.944 188.248 148.876C188.35 148.803 188.465 148.767 188.595 148.767Z" fill="white" fill-opacity="0.9"/>
<path d="M180.643 148.725C181.055 148.725 181.421 148.781 181.742 148.894C182.063 149.006 182.334 149.181 182.554 149.418C182.773 149.654 182.94 149.959 183.052 150.331C183.171 150.697 183.23 151.136 183.23 151.649V151.996C183.23 152.509 183.171 152.951 183.052 153.323C182.94 153.689 182.773 153.991 182.554 154.227C182.334 154.464 182.063 154.639 181.742 154.751C181.421 154.864 181.055 154.92 180.643 154.92C180.232 154.92 179.866 154.864 179.545 154.751C179.223 154.639 178.953 154.464 178.733 154.227C178.513 153.991 178.344 153.689 178.226 153.323C178.113 152.951 178.057 152.509 178.057 151.996V151.649C178.057 151.136 178.113 150.697 178.226 150.331C178.344 149.959 178.513 149.654 178.733 149.418C178.953 149.181 179.223 149.006 179.545 148.894C179.866 148.781 180.232 148.725 180.643 148.725ZM180.643 149.714C180.395 149.714 180.178 149.747 179.993 149.815C179.807 149.883 179.649 149.995 179.519 150.153C179.395 150.305 179.302 150.511 179.24 150.77C179.178 151.029 179.147 151.351 179.147 151.734V151.911C179.147 152.294 179.178 152.616 179.24 152.875C179.302 153.134 179.395 153.343 179.519 153.5C179.649 153.652 179.807 153.762 179.993 153.83C180.178 153.898 180.395 153.931 180.643 153.931C180.891 153.931 181.108 153.898 181.294 153.83C181.48 153.762 181.635 153.652 181.759 153.5C181.889 153.343 181.985 153.134 182.047 152.875C182.108 152.616 182.139 152.294 182.139 151.911V151.734C182.139 151.351 182.108 151.029 182.047 150.77C181.985 150.511 181.889 150.305 181.759 150.153C181.635 149.995 181.48 149.883 181.294 149.815C181.108 149.747 180.891 149.714 180.643 149.714Z" fill="white" fill-opacity="0.9"/>
<path d="M171.785 148.801C171.909 148.801 172.016 148.812 172.106 148.835C172.196 148.851 172.275 148.891 172.343 148.953C172.416 149.009 172.484 149.094 172.546 149.207C172.613 149.319 172.687 149.471 172.766 149.663L173.924 152.554L175.031 149.671C175.099 149.485 175.163 149.336 175.225 149.223C175.293 149.111 175.363 149.023 175.437 148.961C175.516 148.899 175.6 148.857 175.69 148.835C175.786 148.812 175.896 148.801 176.02 148.801H176.197C176.468 148.801 176.654 148.851 176.755 148.953C176.862 149.054 176.916 149.237 176.916 149.502V154.439C176.916 154.591 176.865 154.703 176.764 154.777C176.662 154.844 176.541 154.878 176.4 154.878C176.271 154.878 176.152 154.844 176.045 154.777C175.944 154.703 175.893 154.591 175.893 154.439V149.747C175.842 149.962 175.794 150.139 175.749 150.28C175.704 150.415 175.659 150.542 175.614 150.66L174.498 153.407C174.425 153.588 174.346 153.709 174.262 153.771C174.183 153.827 174.07 153.855 173.924 153.855C173.749 153.855 173.617 153.824 173.526 153.762C173.442 153.695 173.363 153.568 173.29 153.382L172.199 150.66C172.154 150.548 172.109 150.421 172.064 150.28C172.019 150.139 171.965 149.962 171.903 149.747V154.439C171.903 154.591 171.85 154.703 171.743 154.777C171.641 154.844 171.523 154.878 171.388 154.878C171.258 154.878 171.143 154.844 171.041 154.777C170.94 154.703 170.889 154.591 170.889 154.439V149.502C170.889 149.237 170.94 149.054 171.041 148.953C171.148 148.851 171.337 148.801 171.608 148.801H171.785Z" fill="white" fill-opacity="0.9"/>
<path d="M190.115 118.615C189.355 119.622 188.271 120.196 187.134 120.195C185.997 120.194 184.914 119.618 184.155 118.61L171.138 101.326H181.893L187.154 108.514L192.678 101.326H203.574L190.115 118.615Z" fill="#424452"/>
<path d="M166.829 95.7205L169.444 93.7262C170.132 93.2013 171.085 93.1962 171.779 93.7136L181.988 101.327H171.055L167.015 98.9299C165.833 98.2285 165.736 96.554 166.829 95.7205Z" fill="#61647C"/>
<path d="M212.467 86.9856L215.304 89.1551C216.314 89.9271 216.32 91.4454 215.317 92.2258L203.618 101.327H192.672L210.057 87.0283C210.753 86.4562 211.751 86.4385 212.467 86.9856Z" fill="#61647C"/>
<g style="mix-blend-mode:multiply">
<path d="M159.56 167.25L132.115 109.082H125V151.739C125 160.305 131.945 167.25 140.511 167.25H159.56Z" fill="#B3B3B3" fill-opacity="0.4"/>
</g>
<path d="M86.5013 60.402L81.6039 40.25C80.4433 42.4155 78.3149 48.8876 78.0135 55.2166C77.7122 61.5455 82.5172 69.2873 85.0915 72.6464C87.1635 74.0277 90.554 75.6225 87.5402 70.9511C84.5264 66.2798 85.5919 61.9719 86.5013 60.402Z" fill="#F9BF4B"/>
<mask id="mask0_4608_44878" style="mask-type:alpha" maskUnits="userSpaceOnUse" x="78" y="40" width="11" height="35">
<path d="M86.5013 60.4039L81.6039 40.252C80.4433 42.4175 78.3149 48.8896 78.0135 55.2185C77.7122 61.5475 82.5172 69.2892 85.0915 72.6483C87.1635 74.0297 90.554 75.6245 87.5402 70.9531C84.5264 66.2817 85.5919 61.9739 86.5013 60.4039Z" fill="#F9BF4B"/>
</mask>
<g mask="url(#mask0_4608_44878)">
<path d="M87.5044 73.1729L75.6707 51.1886L77.5255 34.1514L94.4313 59.0008L87.5044 73.1729Z" fill="#FFD47E"/>
</g>
<path d="M102.531 71.9897C91.7579 72.7436 83.0881 67.822 80.7629 65.5928C82.4589 69.7052 89.2492 79.9381 97.5371 85.3629C105.825 90.7877 114.176 90.2603 117.315 89.3185C112.23 83.2746 108.155 79.5203 102.531 71.9897Z" fill="#E1AC44"/>
<path d="M271.827 41.546C268.862 46.2051 265.65 49.1347 264.415 50.0171C264.238 50.1936 266.427 50.4406 276.592 50.0171C286.757 49.5935 296.709 38.8987 300.945 28.3099L277.651 27.251C276.945 30.0747 274.792 36.8869 271.827 41.546Z" fill="#F9BF4B"/>
<mask id="mask1_4608_44878" style="mask-type:alpha" maskUnits="userSpaceOnUse" x="264" y="27" width="37" height="24">
<path d="M271.827 41.545C268.862 46.2041 265.65 49.1337 264.415 50.0161C264.238 50.1926 266.427 50.4396 276.592 50.0161C286.757 49.5925 296.709 38.8978 300.945 28.3089L277.651 27.25C276.945 30.0737 274.792 36.8859 271.827 41.545Z" fill="#F9BF4B"/>
</mask>
<g mask="url(#mask1_4608_44878)">
<path d="M299.039 40.1095L272.087 38.1282L273.299 19.3164L302.821 19.9L299.039 40.1095Z" fill="#FFD47E"/>
</g>
<path d="M253.824 45.252L239 52.1347C241.647 53.7231 247.473 54.6461 251.707 54.7819C260.616 55.0679 271.292 52.4499 278.704 49.8027C264.727 50.2263 259.119 47.8992 253.824 45.252Z" fill="#E1AC44"/>
<path d="M83 162.25H133V174.25H83V162.25Z" fill="#F9BF4B"/>
<path d="M89 150.25H139V162.25H89V150.25Z" fill="#F9BF4B"/>
<path d="M80 138.25H130V150.25H80V138.25Z" fill="#F9BF4B"/>
<path d="M89 126.25H139V138.25H89V126.25Z" fill="#F9BF4B"/>
<path d="M92 114.25H142V126.25H92V114.25Z" fill="#F9BF4B"/>
<path d="M87 102.25H137V114.25H87V102.25Z" fill="#F9BF4B"/>
<path d="M104 162.25H112V174.25H104V162.25Z" fill="#FFE19B"/>
<path d="M110 150.25H118V162.25H110V150.25Z" fill="#FFE19B"/>
<path d="M101 138.25H109V150.25H101V138.25Z" fill="#FFE19B"/>
<path d="M110 126.25H118V138.25H110V126.25Z" fill="#FFE19B"/>
<path d="M113 114.25H121V126.25H113V114.25Z" fill="#FFE19B"/>
<path d="M108 102.25H116V114.25H108V102.25Z" fill="#FFE19B"/>
<path d="M89 162.25H132C132.552 162.25 133 162.698 133 163.25L-nan -nanL133 163.25H89V162.25Z" fill="black" fill-opacity="0.1"/>
<path d="M89 150.25H130V151.25H89V150.25Z" fill="black" fill-opacity="0.1"/>
<path d="M89 138.25H130V139.25H89V138.25Z" fill="black" fill-opacity="0.1"/>
<path d="M92 126.25H139V127.25H92V126.25Z" fill="black" fill-opacity="0.1"/>
<path d="M92 114.25H137V115.25H92V114.25Z" fill="black" fill-opacity="0.1"/>
</svg>
