<svg width="360" height="200" viewBox="0 0 360 200" fill="none" xmlns="http://www.w3.org/2000/svg">
<g opacity="0.4">
<path d="M53.5586 120.585C55.3698 113.162 62.0204 107.939 69.6611 107.939H135.384V126.947C135.384 129.157 133.593 130.947 131.384 130.947H56.6442C53.7958 131.01 51.6629 128.354 52.3382 125.586L53.5586 120.585Z" fill="#D1D1D1"/>
<path d="M117.538 109.939C117.538 108.834 118.433 107.939 119.538 107.939H139.879C140.984 107.939 141.879 108.834 141.879 109.939V126.947C141.879 129.157 140.088 130.947 137.879 130.947H119.538C118.433 130.947 117.538 130.052 117.538 128.947V109.939Z" fill="#D1D1D1"/>
<path d="M117.538 118.786C117.538 117.681 118.433 116.786 119.538 116.786H141.502C142.607 116.786 143.502 117.681 143.502 118.786V126.945C143.502 129.154 141.711 130.945 139.502 130.945H119.538C118.433 130.945 117.538 130.049 117.538 128.945V118.786Z" fill="#D1D1D1"/>
<path d="M132.136 114.855C132.136 114.501 132.423 114.214 132.778 114.214H141.873V117.421H134.702C133.285 117.421 132.136 116.273 132.136 114.855Z" fill="#BDBDBD"/>
<path d="M57 117C57 114.791 58.7909 113 61 113H66.0909C66.593 113 67 113.407 67 113.909V115C67 116.105 66.1046 117 65 117H57Z" fill="#BDBDBD"/>
<path d="M96.1021 114.305C96.1021 113.714 96.5807 113.235 97.1712 113.235H98.9541C99.5445 113.235 100.023 113.714 100.023 114.305C100.023 114.895 99.5445 115.374 98.9541 115.374H97.1712C96.5807 115.374 96.1021 114.895 96.1021 114.305Z" fill="#BDBDBD"/>
<path d="M115.69 114.305C115.69 113.714 116.169 113.235 116.759 113.235H118.542C119.132 113.235 119.611 113.714 119.611 114.305C119.611 114.895 119.132 115.374 118.542 115.374H116.759C116.169 115.374 115.69 114.895 115.69 114.305Z" fill="#BDBDBD"/>
<path d="M85.0869 130.95H112.535C112.535 132.131 111.578 133.089 110.397 133.089H87.2252C86.0443 133.089 85.0869 132.131 85.0869 130.95Z" fill="#BDBDBD"/>
<path d="M74.5278 108.957C84.9389 100.889 111.67 89.5938 135.306 108.957H74.5278Z" fill="#D1D1D1"/>
<circle cx="75" cy="128" r="9" fill="#9E9E9E"/>
<circle cx="75" cy="128" r="4" fill="#BDBDBD"/>
<ellipse cx="123.107" cy="128.175" rx="8.82262" ry="9.62238" fill="#9E9E9E"/>
<ellipse cx="123.075" cy="128.139" rx="3.92116" ry="4.27661" fill="#BDBDBD"/>
<path d="M103.748 102.024L102.936 109.103H81.8403C87.6823 104.856 99.1499 102.319 103.748 102.024Z" fill="#BDBDBD"/>
<path d="M105.368 109.103L106.179 102.024C114.617 102.024 120.514 103.794 122.407 104.679L120.784 109.103H105.368Z" fill="#BDBDBD"/>
</g>
<path d="M74.0288 127.421C76.1728 118.634 84.0457 112.451 93.0905 112.451H170.892V135.687C170.892 137.897 169.101 139.687 166.892 139.687H77.6814C74.3096 139.761 71.7847 136.618 72.5842 133.341L74.0288 127.421Z" fill="#BDBDBD"/>
<path d="M149.768 114.451C149.768 113.346 150.663 112.451 151.768 112.451H176.583C177.688 112.451 178.583 113.346 178.583 114.451V135.687C178.583 137.897 176.792 139.687 174.583 139.687H151.768C150.663 139.687 149.768 138.792 149.768 137.687V114.451Z" fill="#D1D1D1"/>
<path d="M149.768 124.923C149.768 123.818 150.663 122.923 151.768 122.923H178.504C179.609 122.923 180.504 123.818 180.504 124.923V135.684C180.504 137.893 178.713 139.684 176.504 139.684H151.768C150.663 139.684 149.768 138.789 149.768 137.684V124.923Z" fill="#D1D1D1"/>
<path d="M167.045 120.638C167.045 120.219 167.385 119.879 167.805 119.879H178.571V123.676H170.083C168.405 123.676 167.045 122.316 167.045 120.638Z" fill="#BDBDBD"/>
<path d="M77.5073 123.784C77.5073 120.988 79.7739 118.721 82.5699 118.721H90.1667C90.8659 118.721 91.4327 119.288 91.4327 119.987V121.784C91.4327 122.888 90.5372 123.784 89.4327 123.784H77.5073Z" fill="#9E9E9E"/>
<path d="M124.388 119.987C124.388 119.288 124.954 118.721 125.653 118.721H127.764C128.463 118.721 129.029 119.288 129.029 119.987C129.029 120.686 128.463 121.252 127.764 121.252H125.653C124.954 121.252 124.388 120.686 124.388 119.987Z" fill="#BDBDBD"/>
<path d="M147.576 119.987C147.576 119.288 148.142 118.721 148.841 118.721H150.952C151.651 118.721 152.217 119.288 152.217 119.987C152.217 120.686 151.651 121.252 150.952 121.252H148.841C148.142 121.252 147.576 120.686 147.576 119.987Z" fill="#BDBDBD"/>
<path d="M111.35 139.692H143.842C143.842 141.09 142.709 142.224 141.311 142.224H113.881C112.483 142.224 111.35 141.09 111.35 139.692Z" fill="#BDBDBD"/>
<path d="M98.8511 113.656C111.175 104.106 142.819 90.7345 170.799 113.656H98.8511Z" fill="#BDBDBD"/>
<circle cx="100" cy="136" r="11" fill="#9E9E9E"/>
<circle cx="100" cy="136" r="5" fill="#BDBDBD"/>
<ellipse cx="156.361" cy="136.406" rx="10.444" ry="11.3907" fill="#9E9E9E"/>
<ellipse cx="156.323" cy="136.364" rx="4.64178" ry="5.06255" fill="#BDBDBD"/>
<path d="M133.444 105.45L132.483 113.831H107.51C114.426 108.802 128.001 105.799 133.444 105.45Z" fill="#9E9E9E"/>
<path d="M135.361 113.831L136.321 105.45C146.311 105.45 153.29 107.545 155.531 108.593L153.61 113.831H135.361Z" fill="#9E9E9E"/>
<path d="M102.969 132.84C105.363 124.091 113.345 118.049 122.415 118.119L233 118.976V146.824C233 149.033 231.209 150.824 229 150.824H107.03C102.52 150.912 99.1932 146.639 100.384 142.289L102.969 132.84Z" fill="#757575"/>
<path d="M206 121C206 119.895 206.895 119 208 119H233C239.627 119 245 124.373 245 131V147C245 149.209 243.209 151 241 151H208C206.895 151 206 150.105 206 149V121Z" fill="#757575"/>
<path d="M204.103 132.075C204.103 130.971 204.998 130.075 206.103 130.075H243.505C244.61 130.075 245.505 130.971 245.505 132.075V146.776C245.505 148.985 243.714 150.776 241.505 150.776H206.103C204.998 150.776 204.103 149.881 204.103 148.776V132.075Z" fill="#757575"/>
<path d="M227.375 127.255C227.375 126.737 227.795 126.317 228.313 126.317H242.901V131.006H231.127C229.055 131.006 227.375 129.327 227.375 127.255Z" fill="#9E9E9E"/>
<path d="M106.766 131.139C106.766 127.686 109.565 124.887 113.018 124.887H123.818C124.76 124.887 125.523 125.65 125.523 126.592V129.139C125.523 130.244 124.628 131.139 123.523 131.139H106.766Z" fill="#666666"/>
<path d="M169.917 126.449C169.917 125.586 170.617 124.886 171.48 124.886H174.606C175.47 124.886 176.17 125.586 176.17 126.449C176.17 127.313 175.47 128.013 174.606 128.013H171.48C170.617 128.013 169.917 127.313 169.917 126.449Z" fill="#9E9E9E"/>
<path d="M201.152 126.449C201.152 125.586 201.852 124.886 202.715 124.886H205.841C206.705 124.886 207.404 125.586 207.404 126.449C207.404 127.313 206.705 128.013 205.841 128.013H202.715C201.852 128.013 201.152 127.313 201.152 126.449Z" fill="#9E9E9E"/>
<path d="M152.349 150.788H196.116C196.116 152.515 194.717 153.914 192.99 153.914H155.475C153.748 153.914 152.349 152.515 152.349 150.788Z" fill="#9E9E9E"/>
<path d="M136 119C152.102 106.926 193.444 90.0225 230 119H136Z" fill="#757575"/>
<circle cx="136" cy="147" r="14" fill="#424242"/>
<circle cx="136" cy="147" r="7" fill="#757575"/>
<circle cx="213" cy="147" r="14" fill="#424242"/>
<circle cx="213" cy="147" r="7" fill="#757575"/>
<path d="M182.112 108.496L180.818 118.847H147.179C156.495 112.636 174.78 108.927 182.112 108.496Z" fill="#666666"/>
<path d="M184.693 118.847L185.987 108.496C199.442 108.496 208.844 111.084 211.863 112.378L209.275 118.847H184.693Z" fill="#666666"/>
<path d="M176.508 50.4615C173.301 55.5009 169.827 58.6695 168.491 59.6239C168.3 59.8148 170.667 60.0821 181.662 59.6239C192.657 59.1658 203.421 47.5983 208.002 36.1453L182.807 35C182.044 38.0541 179.715 45.4222 176.508 50.4615Z" fill="#F9BF4B"/>
<mask id="mask0_4984_40484" style="mask-type:alpha" maskUnits="userSpaceOnUse" x="168" y="35" width="40" height="25">
<path d="M176.504 50.4625C173.297 55.5018 169.823 58.6705 168.487 59.6249C168.296 59.8158 170.663 60.083 181.658 59.6249C192.653 59.1668 203.417 47.5993 207.998 36.1463L182.803 35.001C182.04 38.0551 179.711 45.4232 176.504 50.4625Z" fill="#F9BF4B"/>
</mask>
<g mask="url(#mask0_4984_40484)">
<path d="M205.947 48.9103L176.795 46.7674L178.106 26.4204L210.037 27.0517L205.947 48.9103Z" fill="#FFD47E"/>
</g>
<path d="M157.034 54.4702L141 61.9147C143.863 63.6326 150.165 64.6309 154.744 64.7779C164.38 65.0872 175.927 62.2556 183.944 59.3924C168.826 59.8505 162.761 57.3335 157.034 54.4702Z" fill="#E1AC44"/>
<path d="M93.6499 84.3929L90.3952 71C89.6238 72.4392 88.2093 76.7405 88.009 80.9467C87.8087 85.1529 91.0021 90.2981 92.713 92.5306C94.09 93.4486 96.3434 94.5085 94.3404 91.4039C92.3374 88.2993 93.0455 85.4363 93.6499 84.3929Z" fill="#F9BF4B"/>
<mask id="mask1_4984_40484" style="mask-type:alpha" maskUnits="userSpaceOnUse" x="88" y="71" width="8" height="23">
<path d="M93.6499 84.3944L90.3952 71.0015C89.6238 72.4407 88.2093 76.742 88.009 80.9482C87.8087 85.1544 91.0021 90.2996 92.713 92.532C94.09 93.45 96.3434 94.5099 94.3404 91.4054C92.3374 88.3008 93.0455 85.4378 93.6499 84.3944Z" fill="#F9BF4B"/>
</mask>
<g mask="url(#mask1_4984_40484)">
<path d="M94.3173 92.8809L86.4526 78.2701L87.6854 66.9473L98.9209 83.4622L94.3173 92.8809Z" fill="#FFD47E"/>
</g>
<path d="M104.303 92.0947C97.1432 92.5957 91.3813 89.3248 89.8359 87.8433C90.9631 90.5764 95.4759 97.3771 100.984 100.982C106.492 104.588 112.042 104.237 114.128 103.611C110.749 99.5946 108.04 97.0994 104.303 92.0947Z" fill="#E1AC44"/>
<rect x="208" y="54" width="73" height="100" rx="4" fill="#F3F3F3"/>
<rect x="229" y="74" width="32" height="32" rx="16" fill="#0119A1"/>
<path fill-rule="evenodd" clip-rule="evenodd" d="M237.679 84.067C238.409 83.8323 239.192 84.234 239.426 84.9642L241.225 90.5602L243.676 84.8421C243.894 84.3315 244.397 84.0004 244.952 84.0004C245.508 84.0004 246.01 84.3315 246.229 84.8421L248.679 90.5602L250.478 84.9642C250.713 84.234 251.495 83.8323 252.225 84.067C252.956 84.3017 253.357 85.084 253.122 85.8142L250.188 94.945C250.01 95.4966 249.509 95.8802 248.931 95.9073C248.352 95.9345 247.817 95.5996 247.589 95.0671L244.952 88.915L242.316 95.0671C242.087 95.5996 241.553 95.9345 240.974 95.9073C240.395 95.8802 239.894 95.4966 239.717 94.945L236.782 85.8142C236.547 85.084 236.949 84.3017 237.679 84.067Z" fill="white"/>
<path d="M234 89.5885C234 88.7805 234.655 88.1255 235.463 88.1255H238.015C238.823 88.1255 239.478 88.7805 239.478 89.5885C239.478 90.3965 238.823 91.0515 238.015 91.0515H235.463C234.655 91.0515 234 90.3965 234 89.5885Z" fill="white"/>
<path d="M249.975 89.5885C249.975 88.7805 250.63 88.1255 251.438 88.1255H253.99C254.798 88.1255 255.453 88.7805 255.453 89.5885C255.453 90.3965 254.798 91.0515 253.99 91.0515H251.438C250.63 91.0515 249.975 90.3965 249.975 89.5885Z" fill="white"/>
<rect x="226" y="122" width="37" height="4" rx="2" fill="#BDBDBD"/>
<rect x="226" y="113" width="37" height="4" rx="2" fill="#BDBDBD"/>
<rect x="226" y="131" width="22" height="4" rx="2" fill="#BDBDBD"/>
</svg>
